<svg width="98" height="69" viewBox="0 0 98 69" fill="none" xmlns="http://www.w3.org/2000/svg">
<path d="M21.9691 48.7048V49.6348H20.1191V55.6548H18.9791V49.6348H17.1191V48.7048H21.9691ZM28.1737 52.7648C28.1737 52.9715 28.1603 53.1581 28.1337 53.3248H23.9237C23.957 53.7648 24.1203 54.1181 24.4137 54.3848C24.707 54.6515 25.067 54.7848 25.4937 54.7848C26.107 54.7848 26.5403 54.5281 26.7937 54.0148H28.0237C27.857 54.5215 27.5537 54.9381 27.1137 55.2648C26.6803 55.5848 26.1403 55.7448 25.4937 55.7448C24.967 55.7448 24.4937 55.6281 24.0737 55.3948C23.6603 55.1548 23.3337 54.8215 23.0937 54.3948C22.8603 53.9615 22.7437 53.4615 22.7437 52.8948C22.7437 52.3281 22.857 51.8315 23.0837 51.4048C23.317 50.9715 23.6403 50.6381 24.0537 50.4048C24.4737 50.1715 24.9537 50.0548 25.4937 50.0548C26.0137 50.0548 26.477 50.1681 26.8837 50.3948C27.2903 50.6215 27.607 50.9415 27.8337 51.3548C28.0603 51.7615 28.1737 52.2315 28.1737 52.7648ZM26.9837 52.4048C26.977 51.9848 26.827 51.6481 26.5337 51.3948C26.2403 51.1415 25.877 51.0148 25.4437 51.0148C25.0503 51.0148 24.7137 51.1415 24.4337 51.3948C24.1537 51.6415 23.987 51.9781 23.9337 52.4048H26.9837ZM28.9155 52.8748C28.9155 52.3215 29.0289 51.8315 29.2555 51.4048C29.4889 50.9781 29.8022 50.6481 30.1955 50.4148C30.5955 50.1748 31.0355 50.0548 31.5155 50.0548C31.9489 50.0548 32.3255 50.1415 32.6455 50.3148C32.9722 50.4815 33.2322 50.6915 33.4255 50.9448V50.1448H34.5755V55.6548H33.4255V54.8348C33.2322 55.0948 32.9689 55.3115 32.6355 55.4848C32.3022 55.6581 31.9222 55.7448 31.4955 55.7448C31.0222 55.7448 30.5889 55.6248 30.1955 55.3848C29.8022 55.1381 29.4889 54.7981 29.2555 54.3648C29.0289 53.9248 28.9155 53.4281 28.9155 52.8748ZM33.4255 52.8948C33.4255 52.5148 33.3455 52.1848 33.1855 51.9048C33.0322 51.6248 32.8289 51.4115 32.5755 51.2648C32.3222 51.1181 32.0489 51.0448 31.7555 51.0448C31.4622 51.0448 31.1889 51.1181 30.9355 51.2648C30.6822 51.4048 30.4755 51.6148 30.3155 51.8948C30.1622 52.1681 30.0855 52.4948 30.0855 52.8748C30.0855 53.2548 30.1622 53.5881 30.3155 53.8748C30.4755 54.1615 30.6822 54.3815 30.9355 54.5348C31.1955 54.6815 31.4689 54.7548 31.7555 54.7548C32.0489 54.7548 32.3222 54.6815 32.5755 54.5348C32.8289 54.3881 33.0322 54.1748 33.1855 53.8948C33.3455 53.6081 33.4255 53.2748 33.4255 52.8948ZM44.0405 55.6548L43.1805 54.7948C42.8472 55.1281 42.4839 55.3781 42.0905 55.5448C41.6972 55.7048 41.2572 55.7848 40.7705 55.7848C40.2772 55.7848 39.8405 55.6981 39.4605 55.5248C39.0805 55.3515 38.7872 55.1048 38.5805 54.7848C38.3739 54.4581 38.2705 54.0815 38.2705 53.6548C38.2705 53.1748 38.4072 52.7481 38.6805 52.3748C38.9539 51.9948 39.3605 51.6948 39.9005 51.4748C39.7072 51.2415 39.5705 51.0248 39.4905 50.8248C39.4105 50.6181 39.3705 50.3915 39.3705 50.1448C39.3705 49.8381 39.4472 49.5648 39.6005 49.3248C39.7605 49.0848 39.9872 48.8948 40.2805 48.7548C40.5739 48.6148 40.9139 48.5448 41.3005 48.5448C41.6939 48.5448 42.0272 48.6215 42.3005 48.7748C42.5805 48.9215 42.7872 49.1248 42.9205 49.3848C43.0605 49.6448 43.1172 49.9348 43.0905 50.2548H41.9505C41.9572 50.0081 41.8972 49.8181 41.7705 49.6848C41.6439 49.5448 41.4705 49.4748 41.2505 49.4748C41.0305 49.4748 40.8505 49.5415 40.7105 49.6748C40.5772 49.8015 40.5105 49.9581 40.5105 50.1448C40.5105 50.3248 40.5605 50.5048 40.6605 50.6848C40.7672 50.8581 40.9505 51.0848 41.2105 51.3648L43.0505 53.1948L43.7605 52.0248H44.9905L44.0905 53.5648L43.8405 53.9748L45.5305 55.6548H44.0405ZM40.7705 54.8148C41.3972 54.8148 41.9505 54.5581 42.4305 54.0448L40.5905 52.1948C39.8039 52.5081 39.4105 52.9815 39.4105 53.6148C39.4105 53.9548 39.5372 54.2415 39.7905 54.4748C40.0439 54.7015 40.3705 54.8148 40.7705 54.8148ZM48.4956 52.1648C48.4956 51.4848 48.6523 50.8748 48.9656 50.3348C49.2856 49.7948 49.7156 49.3748 50.2556 49.0748C50.8023 48.7681 51.3989 48.6148 52.0456 48.6148C52.7856 48.6148 53.4423 48.7981 54.0156 49.1648C54.5956 49.5248 55.0156 50.0381 55.2756 50.7048H53.9056C53.7256 50.3381 53.4756 50.0648 53.1556 49.8848C52.8356 49.7048 52.4656 49.6148 52.0456 49.6148C51.5856 49.6148 51.1756 49.7181 50.8156 49.9248C50.4556 50.1315 50.1723 50.4281 49.9656 50.8148C49.7656 51.2015 49.6656 51.6515 49.6656 52.1648C49.6656 52.6781 49.7656 53.1281 49.9656 53.5148C50.1723 53.9015 50.4556 54.2015 50.8156 54.4148C51.1756 54.6215 51.5856 54.7248 52.0456 54.7248C52.4656 54.7248 52.8356 54.6348 53.1556 54.4548C53.4756 54.2748 53.7256 54.0015 53.9056 53.6348H55.2756C55.0156 54.3015 54.5956 54.8148 54.0156 55.1748C53.4423 55.5348 52.7856 55.7148 52.0456 55.7148C51.3923 55.7148 50.7956 55.5648 50.2556 55.2648C49.7156 54.9581 49.2856 54.5348 48.9656 53.9948C48.6523 53.4548 48.4956 52.8448 48.4956 52.1648ZM59 55.7448C58.48 55.7448 58.01 55.6281 57.59 55.3948C57.17 55.1548 56.84 54.8215 56.6 54.3948C56.36 53.9615 56.24 53.4615 56.24 52.8948C56.24 52.3348 56.3633 51.8381 56.61 51.4048C56.8567 50.9715 57.1933 50.6381 57.62 50.4048C58.0467 50.1715 58.5233 50.0548 59.05 50.0548C59.5767 50.0548 60.0533 50.1715 60.48 50.4048C60.9067 50.6381 61.2433 50.9715 61.49 51.4048C61.7367 51.8381 61.86 52.3348 61.86 52.8948C61.86 53.4548 61.7333 53.9515 61.48 54.3848C61.2267 54.8181 60.88 55.1548 60.44 55.3948C60.0067 55.6281 59.5267 55.7448 59 55.7448ZM59 54.7548C59.2933 54.7548 59.5667 54.6848 59.82 54.5448C60.08 54.4048 60.29 54.1948 60.45 53.9148C60.61 53.6348 60.69 53.2948 60.69 52.8948C60.69 52.4948 60.6133 52.1581 60.46 51.8848C60.3067 51.6048 60.1033 51.3948 59.85 51.2548C59.5967 51.1148 59.3233 51.0448 59.03 51.0448C58.7367 51.0448 58.4633 51.1148 58.21 51.2548C57.9633 51.3948 57.7667 51.6048 57.62 51.8848C57.4733 52.1581 57.4 52.4948 57.4 52.8948C57.4 53.4881 57.55 53.9481 57.85 54.2748C58.1567 54.5948 58.54 54.7548 59 54.7548ZM65.2969 51.0748H64.2769V55.6548H63.1269V51.0748H62.4769V50.1448H63.1269V49.7548C63.1269 49.1215 63.2936 48.6615 63.6269 48.3748C63.9669 48.0815 64.4969 47.9348 65.2169 47.9348V48.8848C64.8703 48.8848 64.6269 48.9515 64.4869 49.0848C64.3469 49.2115 64.2769 49.4348 64.2769 49.7548V50.1448H65.2969V51.0748ZM68.6173 51.0748H67.5973V55.6548H66.4473V51.0748H65.7973V50.1448H66.4473V49.7548C66.4473 49.1215 66.6139 48.6615 66.9473 48.3748C67.2873 48.0815 67.8173 47.9348 68.5373 47.9348V48.8848C68.1906 48.8848 67.9473 48.9515 67.8073 49.0848C67.6673 49.2115 67.5973 49.4348 67.5973 49.7548V50.1448H68.6173V51.0748ZM74.6776 52.7648C74.6776 52.9715 74.6642 53.1581 74.6376 53.3248H70.4276C70.4609 53.7648 70.6242 54.1181 70.9176 54.3848C71.2109 54.6515 71.5709 54.7848 71.9976 54.7848C72.6109 54.7848 73.0442 54.5281 73.2976 54.0148H74.5276C74.3609 54.5215 74.0576 54.9381 73.6176 55.2648C73.1842 55.5848 72.6442 55.7448 71.9976 55.7448C71.4709 55.7448 70.9976 55.6281 70.5776 55.3948C70.1642 55.1548 69.8376 54.8215 69.5976 54.3948C69.3642 53.9615 69.2476 53.4615 69.2476 52.8948C69.2476 52.3281 69.3609 51.8315 69.5876 51.4048C69.8209 50.9715 70.1442 50.6381 70.5576 50.4048C70.9776 50.1715 71.4576 50.0548 71.9976 50.0548C72.5176 50.0548 72.9809 50.1681 73.3876 50.3948C73.7942 50.6215 74.1109 50.9415 74.3376 51.3548C74.5642 51.7615 74.6776 52.2315 74.6776 52.7648ZM73.4876 52.4048C73.4809 51.9848 73.3309 51.6481 73.0376 51.3948C72.7442 51.1415 72.3809 51.0148 71.9476 51.0148C71.5542 51.0148 71.2176 51.1415 70.9376 51.3948C70.6576 51.6415 70.4909 51.9781 70.4376 52.4048H73.4876ZM80.8494 52.7648C80.8494 52.9715 80.8361 53.1581 80.8094 53.3248H76.5994C76.6328 53.7648 76.7961 54.1181 77.0894 54.3848C77.3828 54.6515 77.7428 54.7848 78.1694 54.7848C78.7828 54.7848 79.2161 54.5281 79.4694 54.0148H80.6994C80.5328 54.5215 80.2294 54.9381 79.7894 55.2648C79.3561 55.5848 78.8161 55.7448 78.1694 55.7448C77.6428 55.7448 77.1694 55.6281 76.7494 55.3948C76.3361 55.1548 76.0094 54.8215 75.7694 54.3948C75.5361 53.9615 75.4194 53.4615 75.4194 52.8948C75.4194 52.3281 75.5328 51.8315 75.7594 51.4048C75.9928 50.9715 76.3161 50.6381 76.7294 50.4048C77.1494 50.1715 77.6294 50.0548 78.1694 50.0548C78.6894 50.0548 79.1528 50.1681 79.5594 50.3948C79.9661 50.6215 80.2828 50.9415 80.5094 51.3548C80.7361 51.7615 80.8494 52.2315 80.8494 52.7648ZM79.6594 52.4048C79.6528 51.9848 79.5028 51.6481 79.2094 51.3948C78.9161 51.1415 78.5528 51.0148 78.1194 51.0148C77.7261 51.0148 77.3894 51.1415 77.1094 51.3948C76.8294 51.6415 76.6628 51.9781 76.6094 52.4048H79.6594Z" fill="white"/>
<circle cx="48.3372" cy="20.3372" r="19.8372" stroke="white"/>
<g clip-path="url(#clip0_22_669)">
<path d="M49.5501 21.16C49.4801 21.36 49.4301 21.57 49.3901 21.78V21.89C49.7101 22.61 50.4501 23.14 51.3301 23.27C52.0401 23.37 52.8301 23.23 53.6501 22.84C55.4001 22.02 56.7701 20.32 57.1901 18.44L57.1001 18.24C54.3101 16.82 50.5901 17.97 49.5501 21.16ZM56.8101 18.5C56.3701 20.24 55.1001 21.77 53.4901 22.52C52.7301 22.88 52.0101 23.01 51.3701 22.92C50.6901 22.82 50.1101 22.43 49.8101 21.92C50.0901 21.96 50.3501 21.94 50.6001 21.89C50.6101 21.9 50.6201 21.92 50.6401 21.93L51.6401 22.39L51.8701 22.3L51.7801 22.07L51.0701 21.75C51.4301 21.6 51.7801 21.37 52.1201 21.13C52.1301 21.13 52.1301 21.15 52.1501 21.15L53.1801 21.47C53.2701 21.5 53.3701 21.45 53.4001 21.36C53.4301 21.27 53.3801 21.17 53.2901 21.14L52.4901 20.89C52.7701 20.7 53.0601 20.51 53.3801 20.34L53.4001 20.38L54.4901 20.83L54.7201 20.74L54.6201 20.51L53.7601 20.16C54.2001 19.96 54.6801 19.8 55.2501 19.76C55.3501 19.76 55.4201 19.67 55.4101 19.57C55.4101 19.47 55.3201 19.4 55.2201 19.41C54.6101 19.46 54.1101 19.62 53.6501 19.83L53.8601 19.4C53.9601 19.2 53.6501 19.03 53.5401 19.25L53.1701 20V20.02V20.06C52.9101 20.2 52.6701 20.35 52.4401 20.51C52.4601 20.26 52.5001 20.01 52.5801 19.76C52.6101 19.67 52.5601 19.57 52.4601 19.54C52.1601 19.45 52.0801 20.27 52.0701 20.76C51.7101 21.02 51.3601 21.25 51.0101 21.41L51.0701 20.37C51.0701 20.27 51.0001 20.19 50.9001 20.18C50.8001 20.18 50.7201 20.25 50.7101 20.35L50.6401 21.54C50.3801 21.62 50.1001 21.64 49.8001 21.59C50.6601 18.39 54.1801 17.28 56.8001 18.53L56.8101 18.5Z" fill="white"/>
<path d="M43.4699 22.1701C44.1999 22.7201 44.9299 23.0301 45.6499 23.0801C46.5299 23.1401 47.3699 22.7801 47.8299 22.1501L47.8599 22.0501C47.8599 21.8301 47.8599 21.6101 47.8299 21.4001C47.4999 18.0601 44.1099 16.1401 41.0699 16.9401L40.9399 17.1101C40.9599 19.0401 41.9299 20.9901 43.4699 22.1701ZM47.4899 21.7301C47.1899 21.7101 46.9199 21.6201 46.6799 21.4901L46.8699 20.3301C46.8799 20.2301 46.8199 20.1401 46.7199 20.1301C46.6199 20.1101 46.5299 20.1801 46.5199 20.2801L46.3599 21.3001C46.0499 21.0701 45.7599 20.7601 45.4599 20.4401C45.5499 19.9601 45.6399 19.1401 45.3399 19.1601C45.2399 19.1601 45.1699 19.2501 45.1799 19.3501C45.1999 19.6001 45.1799 19.8601 45.1599 20.1101C44.9699 19.9101 44.7599 19.7101 44.5399 19.5101L44.5599 19.4801V19.4601L44.3499 18.6501C44.2899 18.4201 43.9499 18.5101 44.0099 18.7301L44.1199 19.1901C43.7199 18.8901 43.2599 18.6301 42.6699 18.4501C42.5799 18.4201 42.4799 18.4801 42.4499 18.5701C42.4199 18.6601 42.4699 18.7601 42.5699 18.7901C43.1199 18.9601 43.5599 19.2101 43.9399 19.5001L43.0199 19.6601C42.9199 19.6801 42.8599 19.7801 42.8799 19.8601C42.8999 19.9601 42.9899 20.0201 43.0899 20.0001L44.2499 19.7901C44.2499 19.7901 44.2799 19.7701 44.2899 19.7701C44.5599 20.0001 44.7999 20.2501 45.0299 20.4901L44.1899 20.5701C44.0899 20.5701 44.0199 20.6601 44.0299 20.7601C44.0299 20.8601 44.1199 20.9301 44.2199 20.9201L45.2899 20.8201C45.2899 20.8201 45.3099 20.8101 45.3199 20.8001C45.6099 21.1101 45.8899 21.4001 46.2199 21.6301L45.4599 21.7901C45.3699 21.8101 45.2999 21.9001 45.3199 22.0001C45.3399 22.1001 45.4299 22.1601 45.5299 22.1401L46.6099 21.9101C46.6099 21.9101 46.6399 21.8901 46.6599 21.8801C46.8899 21.9901 47.1399 22.0601 47.4199 22.0801C47.0199 22.5201 46.3599 22.7801 45.6899 22.7301C45.0399 22.6801 44.3699 22.4001 43.6999 21.8901C42.2899 20.8101 41.3699 19.0501 41.3199 17.2501C44.1499 16.5901 47.3499 18.4301 47.5099 21.7301H47.4899Z" fill="white"/>
<path d="M58.3402 25.34C56.1702 23.08 52.2802 22.95 50.2502 25.62C50.1402 25.76 50.0402 25.92 49.9402 26.08C49.4302 26.7 48.9502 27.38 48.8002 27.62C48.8402 26.35 48.8102 24.73 48.8302 22.61L48.7302 22.48C48.5202 20.87 48.9702 19.07 49.4402 17.41C50.2102 17.51 51.1202 17.13 51.8802 16.36C53.0102 15.22 53.5702 13.61 53.3702 12.03C53.1802 10.55 52.3602 9.24 51.6402 8.08L51.5302 8L51.3902 8.03C50.9202 8.35 50.4702 8.72 50.0802 9.12C48.6902 10.51 47.8102 12.28 47.6002 14.11C47.5502 14.6 47.5102 15.33 47.8202 15.95C48.0902 16.48 48.4802 17.06 49.1002 17.3C48.6102 19.02 48.1402 20.9 48.3902 22.6C48.3902 22.66 48.4402 22.7 48.4802 22.72C48.4602 25.39 48.5002 27.24 48.4002 28.57C48.2002 28.2 47.9302 27.86 47.6702 27.54L47.6402 27.5C47.5102 27.34 47.3902 27.18 47.2802 27.02V26.94C47.1902 26.74 47.1002 26.54 47.0002 26.35C45.4102 23.4 41.5502 22.92 39.0502 24.82L38.9902 25.03C39.7502 26.81 41.3902 28.23 43.2602 28.73C44.1402 28.96 44.9402 28.97 45.6202 28.73C46.3202 28.5 46.8602 28 47.1302 27.41C47.2102 27.51 47.2802 27.61 47.3602 27.71L47.3902 27.75C47.7302 28.17 48.0902 28.61 48.2502 29.12C48.2802 29.2 48.2902 29.3 48.3002 29.39C48.2402 29.79 48.1602 30.12 48.0402 30.41C48.0102 30.45 47.9802 30.5 47.9402 30.53V30.66C47.7502 31.02 47.5102 31.32 47.1702 31.56L47.1302 31.81L47.3802 31.85C47.8102 31.53 48.1102 31.15 48.3202 30.67C48.5402 30.42 48.7202 29.94 48.6502 29.37C48.6802 29.18 48.7002 28.99 48.7102 28.78C48.7502 28.75 48.7802 28.7 48.7702 28.63C48.7202 28.2 49.2702 27.39 49.9102 26.62C50.0802 27.26 50.5402 27.84 51.2002 28.18C51.8402 28.51 52.6302 28.63 53.5302 28.54C55.4502 28.34 57.3002 27.19 58.3202 25.55L58.3002 25.34H58.3402ZM48.1502 15.8C47.8802 15.27 47.9102 14.61 47.9702 14.16C48.1702 12.41 49.0102 10.71 50.3402 9.38C50.6802 9.04 51.0602 8.72 51.4502 8.43C52.1302 9.52 52.8602 10.74 53.0302 12.08C53.2202 13.55 52.7002 15.06 51.6402 16.11C50.9702 16.78 50.2002 17.12 49.5402 17.06C49.5602 16.99 49.5802 16.92 49.6002 16.86L49.7502 16.33C49.7702 16.26 49.7902 16.18 49.8102 16.11H49.8302C50.3602 16 50.8602 15.82 51.3402 15.56L51.4102 15.32L51.1702 15.25C50.7702 15.47 50.3502 15.62 49.9102 15.72C50.2202 14.54 50.5102 13.22 51.2002 10.15C51.2502 9.92 50.9102 9.84 50.8602 10.07C50.1502 13.2 49.8702 14.52 49.5502 15.71L48.8202 14.67L48.5702 14.63L48.5302 14.88L49.4102 16.13H49.4302C49.4302 16.13 49.4102 16.2 49.4002 16.23L49.2502 16.76C49.2302 16.83 49.2102 16.9 49.1902 16.97C48.7002 16.77 48.3602 16.26 48.1302 15.8H48.1502ZM45.5202 28.42C44.9002 28.63 44.1702 28.62 43.3602 28.41C41.6402 27.95 40.1202 26.68 39.3802 25.04C41.5702 23.47 44.8702 23.76 46.4602 26.18C46.5202 26.41 46.6202 26.63 46.7302 26.83C46.4702 26.91 46.2202 26.93 45.9702 26.91L45.6902 25.75C45.6702 25.66 45.5702 25.6 45.4802 25.62C45.3902 25.64 45.3202 25.74 45.3502 25.83L45.5902 26.84C45.2102 26.74 44.8302 26.57 44.4302 26.39C44.3302 25.91 44.1002 25.12 43.8202 25.26L43.7402 25.5C43.8602 25.73 43.9402 25.97 44.0102 26.21C43.7602 26.1 43.4902 25.99 43.2102 25.9V25.86V25.84L42.7102 25.17C42.5702 24.98 42.2802 25.2 42.4302 25.38L42.7102 25.76C42.2202 25.64 41.6902 25.57 41.0902 25.63C40.9902 25.63 40.9202 25.73 40.9302 25.82C40.9302 25.92 41.0302 25.99 41.1202 25.98C41.6902 25.92 42.1902 25.99 42.6602 26.11L41.8802 26.61L41.8302 26.85L42.0702 26.9L43.0702 26.26V26.22C43.4202 26.33 43.7502 26.47 44.0502 26.61L43.3102 27L43.2402 27.24L43.4802 27.31L44.4302 26.81V26.78C44.8302 26.96 45.2102 27.12 45.6002 27.21L44.9602 27.65L44.9102 27.89L45.1602 27.94L46.0702 27.31C46.0702 27.31 46.0902 27.28 46.1002 27.27C46.3502 27.28 46.6102 27.25 46.8802 27.16C46.6802 27.72 46.1702 28.21 45.5302 28.42H45.5202ZM53.5302 28.2C52.6902 28.29 51.9702 28.18 51.4002 27.88C50.7902 27.57 50.3702 27.01 50.2602 26.42C50.5102 26.55 50.7602 26.62 51.0202 26.65C51.0202 26.67 51.0202 26.68 51.0402 26.7L51.8402 27.46H52.0902V27.2L51.5202 26.66C51.9202 26.63 52.3202 26.53 52.7302 26.42V26.45L53.6002 27.09L53.8502 27.05L53.8102 26.8L53.1302 26.3C53.4502 26.21 53.7902 26.12 54.1502 26.06V26.11L55.0402 26.9L55.2902 26.88V26.63L54.5702 26C55.0502 25.96 55.5602 25.97 56.1202 26.12C56.2102 26.15 56.3102 26.09 56.3302 25.99C56.3602 25.9 56.3002 25.8 56.2002 25.78C55.6202 25.63 55.0902 25.61 54.5902 25.65L54.9202 25.33C55.0902 25.17 54.8402 24.91 54.6702 25.08L54.0702 25.67L54.0502 25.69V25.72C53.7602 25.77 53.4802 25.84 53.2102 25.91C53.3102 25.68 53.4302 25.46 53.5802 25.25L53.5402 25.01C53.2902 24.83 52.9402 25.57 52.7702 26.03C52.3402 26.15 51.9402 26.26 51.5502 26.3L51.9402 25.34L51.8502 25.11C51.7602 25.08 51.6602 25.11 51.6202 25.21L51.1702 26.31C50.9102 26.3 50.6502 26.23 50.4002 26.1C50.7502 25.71 51.1002 25.36 51.3602 25.13V24.97C53.3502 23.42 56.2402 23.77 57.9802 25.48C56.9902 26.98 55.2902 28.01 53.5202 28.19L53.5302 28.2Z" fill="white"/>
</g>
<defs>
<clipPath id="clip0_22_669">
<path d="M39 8H58.36V22.19C58.36 27.5361 54.0261 31.87 48.68 31.87C43.3339 31.87 39 27.5361 39 22.19V8Z" fill="white"/>
</clipPath>
</defs>
</svg>
