<svg width="98" height="69" viewBox="0 0 98 69" fill="none" xmlns="http://www.w3.org/2000/svg">
<path d="M6.97987 48.7048L4.36987 55.6548H3.04987L0.429868 48.7048H1.64987L3.70987 54.4848L5.77987 48.7048H6.97987ZM12.9832 52.7648C12.9832 52.9715 12.9699 53.1581 12.9432 53.3248H8.73323C8.76656 53.7648 8.92989 54.1181 9.22323 54.3848C9.51656 54.6515 9.87656 54.7848 10.3032 54.7848C10.9166 54.7848 11.3499 54.5281 11.6032 54.0148H12.8332C12.6666 54.5215 12.3632 54.9381 11.9232 55.2648C11.4899 55.5848 10.9499 55.7448 10.3032 55.7448C9.77656 55.7448 9.30323 55.6281 8.88323 55.3948C8.46989 55.1548 8.14323 54.8215 7.90323 54.3948C7.66989 53.9615 7.55323 53.4615 7.55323 52.8948C7.55323 52.3281 7.66656 51.8315 7.89323 51.4048C8.12656 50.9715 8.44989 50.6381 8.86323 50.4048C9.28323 50.1715 9.76323 50.0548 10.3032 50.0548C10.8232 50.0548 11.2866 50.1681 11.6932 50.3948C12.0999 50.6215 12.4166 50.9415 12.6432 51.3548C12.8699 51.7615 12.9832 52.2315 12.9832 52.7648ZM11.7932 52.4048C11.7866 51.9848 11.6366 51.6481 11.3432 51.3948C11.0499 51.1415 10.6866 51.0148 10.2532 51.0148C9.85989 51.0148 9.52323 51.1415 9.24323 51.3948C8.96323 51.6415 8.79656 51.9781 8.74323 52.4048H11.7932ZM16.3251 50.0548C16.7518 50.0548 17.1284 50.1415 17.4551 50.3148C17.7884 50.4815 18.0484 50.6915 18.2351 50.9448V50.1448H19.3851V55.7448C19.3851 56.2515 19.2784 56.7015 19.0651 57.0948C18.8518 57.4948 18.5418 57.8081 18.1351 58.0348C17.7351 58.2615 17.2551 58.3748 16.6951 58.3748C15.9484 58.3748 15.3284 58.1981 14.8351 57.8448C14.3418 57.4981 14.0618 57.0248 13.9951 56.4248H15.1251C15.2118 56.7115 15.3951 56.9415 15.6751 57.1148C15.9618 57.2948 16.3018 57.3848 16.6951 57.3848C17.1551 57.3848 17.5251 57.2448 17.8051 56.9648C18.0918 56.6848 18.2351 56.2781 18.2351 55.7448V54.8248C18.0418 55.0848 17.7784 55.3048 17.4451 55.4848C17.1184 55.6581 16.7451 55.7448 16.3251 55.7448C15.8451 55.7448 15.4051 55.6248 15.0051 55.3848C14.6118 55.1381 14.2984 54.7981 14.0651 54.3648C13.8384 53.9248 13.7251 53.4281 13.7251 52.8748C13.7251 52.3215 13.8384 51.8315 14.0651 51.4048C14.2984 50.9781 14.6118 50.6481 15.0051 50.4148C15.4051 50.1748 15.8451 50.0548 16.3251 50.0548ZM18.2351 52.8948C18.2351 52.5148 18.1551 52.1848 17.9951 51.9048C17.8418 51.6248 17.6384 51.4115 17.3851 51.2648C17.1318 51.1181 16.8584 51.0448 16.5651 51.0448C16.2718 51.0448 15.9984 51.1181 15.7451 51.2648C15.4918 51.4048 15.2851 51.6148 15.1251 51.8948C14.9718 52.1681 14.8951 52.4948 14.8951 52.8748C14.8951 53.2548 14.9718 53.5881 15.1251 53.8748C15.2851 54.1615 15.4918 54.3815 15.7451 54.5348C16.0051 54.6815 16.2784 54.7548 16.5651 54.7548C16.8584 54.7548 17.1318 54.6815 17.3851 54.5348C17.6384 54.3881 17.8418 54.1748 17.9951 53.8948C18.1551 53.6081 18.2351 53.2748 18.2351 52.8948ZM25.9324 52.7648C25.9324 52.9715 25.9191 53.1581 25.8924 53.3248H21.6824C21.7158 53.7648 21.8791 54.1181 22.1724 54.3848C22.4658 54.6515 22.8258 54.7848 23.2524 54.7848C23.8658 54.7848 24.2991 54.5281 24.5524 54.0148H25.7824C25.6158 54.5215 25.3124 54.9381 24.8724 55.2648C24.4391 55.5848 23.8991 55.7448 23.2524 55.7448C22.7258 55.7448 22.2524 55.6281 21.8324 55.3948C21.4191 55.1548 21.0924 54.8215 20.8524 54.3948C20.6191 53.9615 20.5024 53.4615 20.5024 52.8948C20.5024 52.3281 20.6158 51.8315 20.8424 51.4048C21.0758 50.9715 21.3991 50.6381 21.8124 50.4048C22.2324 50.1715 22.7124 50.0548 23.2524 50.0548C23.7724 50.0548 24.2358 50.1681 24.6424 50.3948C25.0491 50.6215 25.3658 50.9415 25.5924 51.3548C25.8191 51.7615 25.9324 52.2315 25.9324 52.7648ZM24.7424 52.4048C24.7358 51.9848 24.5858 51.6481 24.2924 51.3948C23.9991 51.1415 23.6358 51.0148 23.2024 51.0148C22.8091 51.0148 22.4724 51.1415 22.1924 51.3948C21.9124 51.6415 21.7458 51.9781 21.6924 52.4048H24.7424ZM28.3843 51.0748V54.1248C28.3843 54.3315 28.431 54.4815 28.5243 54.5748C28.6243 54.6615 28.791 54.7048 29.0243 54.7048H29.7243V55.6548H28.8243C28.311 55.6548 27.9177 55.5348 27.6443 55.2948C27.371 55.0548 27.2343 54.6648 27.2343 54.1248V51.0748H26.5843V50.1448H27.2343V48.7748H28.3843V50.1448H29.7243V51.0748H28.3843ZM30.395 52.8748C30.395 52.3215 30.5084 51.8315 30.735 51.4048C30.9684 50.9781 31.2817 50.6481 31.675 50.4148C32.075 50.1748 32.515 50.0548 32.995 50.0548C33.4284 50.0548 33.805 50.1415 34.125 50.3148C34.4517 50.4815 34.7117 50.6915 34.905 50.9448V50.1448H36.055V55.6548H34.905V54.8348C34.7117 55.0948 34.4484 55.3115 34.115 55.4848C33.7817 55.6581 33.4017 55.7448 32.975 55.7448C32.5017 55.7448 32.0684 55.6248 31.675 55.3848C31.2817 55.1381 30.9684 54.7981 30.735 54.3648C30.5084 53.9248 30.395 53.4281 30.395 52.8748ZM34.905 52.8948C34.905 52.5148 34.825 52.1848 34.665 51.9048C34.5117 51.6248 34.3084 51.4115 34.055 51.2648C33.8017 51.1181 33.5284 51.0448 33.235 51.0448C32.9417 51.0448 32.6684 51.1181 32.415 51.2648C32.1617 51.4048 31.955 51.6148 31.795 51.8948C31.6417 52.1681 31.565 52.4948 31.565 52.8748C31.565 53.2548 31.6417 53.5881 31.795 53.8748C31.955 54.1615 32.1617 54.3815 32.415 54.5348C32.675 54.6815 32.9484 54.7548 33.235 54.7548C33.5284 54.7548 33.8017 54.6815 34.055 54.5348C34.3084 54.3881 34.5117 54.1748 34.665 53.8948C34.825 53.6081 34.905 53.2748 34.905 52.8948ZM38.6924 50.9648C38.8857 50.6981 39.149 50.4815 39.4824 50.3148C39.8224 50.1415 40.199 50.0548 40.6124 50.0548C41.099 50.0548 41.539 50.1715 41.9324 50.4048C42.3257 50.6381 42.6357 50.9715 42.8624 51.4048C43.089 51.8315 43.2024 52.3215 43.2024 52.8748C43.2024 53.4281 43.089 53.9248 42.8624 54.3648C42.6357 54.7981 42.3224 55.1381 41.9224 55.3848C41.529 55.6248 41.0924 55.7448 40.6124 55.7448C40.1857 55.7448 39.8057 55.6615 39.4724 55.4948C39.1457 55.3281 38.8857 55.1148 38.6924 54.8548V55.6548H37.5524V48.2548H38.6924V50.9648ZM42.0424 52.8748C42.0424 52.4948 41.9624 52.1681 41.8024 51.8948C41.649 51.6148 41.4424 51.4048 41.1824 51.2648C40.929 51.1181 40.6557 51.0448 40.3624 51.0448C40.0757 51.0448 39.8024 51.1181 39.5424 51.2648C39.289 51.4115 39.0824 51.6248 38.9224 51.9048C38.769 52.1848 38.6924 52.5148 38.6924 52.8948C38.6924 53.2748 38.769 53.6081 38.9224 53.8948C39.0824 54.1748 39.289 54.3881 39.5424 54.5348C39.8024 54.6815 40.0757 54.7548 40.3624 54.7548C40.6557 54.7548 40.929 54.6815 41.1824 54.5348C41.4424 54.3815 41.649 54.1615 41.8024 53.8748C41.9624 53.5881 42.0424 53.2548 42.0424 52.8748ZM45.4697 48.2548V55.6548H44.3297V48.2548H45.4697ZM52.0164 52.7648C52.0164 52.9715 52.0031 53.1581 51.9764 53.3248H47.7664C47.7998 53.7648 47.9631 54.1181 48.2564 54.3848C48.5498 54.6515 48.9098 54.7848 49.3364 54.7848C49.9498 54.7848 50.3831 54.5281 50.6364 54.0148H51.8664C51.6998 54.5215 51.3964 54.9381 50.9564 55.2648C50.5231 55.5848 49.9831 55.7448 49.3364 55.7448C48.8098 55.7448 48.3364 55.6281 47.9164 55.3948C47.5031 55.1548 47.1764 54.8215 46.9364 54.3948C46.7031 53.9615 46.5864 53.4615 46.5864 52.8948C46.5864 52.3281 46.6998 51.8315 46.9264 51.4048C47.1598 50.9715 47.4831 50.6381 47.8964 50.4048C48.3164 50.1715 48.7964 50.0548 49.3364 50.0548C49.8564 50.0548 50.3198 50.1681 50.7264 50.3948C51.1331 50.6215 51.4498 50.9415 51.6764 51.3548C51.9031 51.7615 52.0164 52.2315 52.0164 52.7648ZM50.8264 52.4048C50.8198 51.9848 50.6698 51.6481 50.3764 51.3948C50.0831 51.1415 49.7198 51.0148 49.2864 51.0148C48.8931 51.0148 48.5564 51.1415 48.2764 51.3948C47.9964 51.6415 47.8298 51.9781 47.7764 52.4048H50.8264ZM55.1383 55.7448C54.705 55.7448 54.315 55.6681 53.9683 55.5148C53.6283 55.3548 53.3583 55.1415 53.1583 54.8748C52.9583 54.6015 52.8516 54.2981 52.8383 53.9648H54.0183C54.0383 54.1981 54.1483 54.3948 54.3483 54.5548C54.555 54.7081 54.8116 54.7848 55.1183 54.7848C55.4383 54.7848 55.685 54.7248 55.8583 54.6048C56.0383 54.4781 56.1283 54.3181 56.1283 54.1248C56.1283 53.9181 56.0283 53.7648 55.8283 53.6648C55.635 53.5648 55.325 53.4548 54.8983 53.3348C54.485 53.2215 54.1483 53.1115 53.8883 53.0048C53.6283 52.8981 53.4016 52.7348 53.2083 52.5148C53.0216 52.2948 52.9283 52.0048 52.9283 51.6448C52.9283 51.3515 53.015 51.0848 53.1883 50.8448C53.3616 50.5981 53.6083 50.4048 53.9283 50.2648C54.255 50.1248 54.6283 50.0548 55.0483 50.0548C55.675 50.0548 56.1783 50.2148 56.5583 50.5348C56.945 50.8481 57.1516 51.2781 57.1783 51.8248H56.0383C56.0183 51.5781 55.9183 51.3815 55.7383 51.2348C55.5583 51.0881 55.315 51.0148 55.0083 51.0148C54.7083 51.0148 54.4783 51.0715 54.3183 51.1848C54.1583 51.2981 54.0783 51.4481 54.0783 51.6348C54.0783 51.7815 54.1316 51.9048 54.2383 52.0048C54.345 52.1048 54.475 52.1848 54.6283 52.2448C54.7816 52.2981 55.0083 52.3681 55.3083 52.4548C55.7083 52.5615 56.035 52.6715 56.2883 52.7848C56.5483 52.8915 56.7716 53.0515 56.9583 53.2648C57.145 53.4781 57.2416 53.7615 57.2483 54.1148C57.2483 54.4281 57.1616 54.7081 56.9883 54.9548C56.815 55.2015 56.5683 55.3948 56.2483 55.5348C55.935 55.6748 55.565 55.7448 55.1383 55.7448ZM66.4478 55.6548L65.5878 54.7948C65.2544 55.1281 64.8911 55.3781 64.4978 55.5448C64.1044 55.7048 63.6644 55.7848 63.1778 55.7848C62.6844 55.7848 62.2478 55.6981 61.8678 55.5248C61.4878 55.3515 61.1944 55.1048 60.9878 54.7848C60.7811 54.4581 60.6778 54.0815 60.6778 53.6548C60.6778 53.1748 60.8144 52.7481 61.0878 52.3748C61.3611 51.9948 61.7678 51.6948 62.3078 51.4748C62.1144 51.2415 61.9778 51.0248 61.8978 50.8248C61.8178 50.6181 61.7778 50.3915 61.7778 50.1448C61.7778 49.8381 61.8544 49.5648 62.0078 49.3248C62.1678 49.0848 62.3944 48.8948 62.6878 48.7548C62.9811 48.6148 63.3211 48.5448 63.7078 48.5448C64.1011 48.5448 64.4344 48.6215 64.7078 48.7748C64.9878 48.9215 65.1944 49.1248 65.3278 49.3848C65.4678 49.6448 65.5244 49.9348 65.4978 50.2548H64.3578C64.3644 50.0081 64.3044 49.8181 64.1778 49.6848C64.0511 49.5448 63.8778 49.4748 63.6578 49.4748C63.4378 49.4748 63.2578 49.5415 63.1178 49.6748C62.9844 49.8015 62.9178 49.9581 62.9178 50.1448C62.9178 50.3248 62.9678 50.5048 63.0678 50.6848C63.1744 50.8581 63.3578 51.0848 63.6178 51.3648L65.4578 53.1948L66.1678 52.0248H67.3978L66.4978 53.5648L66.2478 53.9748L67.9378 55.6548H66.4478ZM63.1778 54.8148C63.8044 54.8148 64.3578 54.5581 64.8378 54.0448L62.9978 52.1948C62.2111 52.5081 61.8178 52.9815 61.8178 53.6148C61.8178 53.9548 61.9444 54.2415 62.1978 54.4748C62.4511 54.7015 62.7778 54.8148 63.1778 54.8148ZM75.3728 48.7048V49.6348H72.4228V51.6848H74.7228V52.6148H72.4228V55.6548H71.2828V48.7048H75.3728ZM77.5693 50.9448C77.736 50.6648 77.956 50.4481 78.2293 50.2948C78.5093 50.1348 78.8393 50.0548 79.2193 50.0548V51.2348H78.9293C78.4827 51.2348 78.1427 51.3481 77.9093 51.5748C77.6827 51.8015 77.5693 52.1948 77.5693 52.7548V55.6548H76.4293V50.1448H77.5693V50.9448ZM85.2572 50.1448V55.6548H84.1172V55.0048C83.9372 55.2315 83.7005 55.4115 83.4072 55.5448C83.1205 55.6715 82.8139 55.7348 82.4872 55.7348C82.0539 55.7348 81.6639 55.6448 81.3172 55.4648C80.9772 55.2848 80.7072 55.0181 80.5072 54.6648C80.3139 54.3115 80.2172 53.8848 80.2172 53.3848V50.1448H81.3472V53.2148C81.3472 53.7081 81.4705 54.0881 81.7172 54.3548C81.9639 54.6148 82.3005 54.7448 82.7272 54.7448C83.1539 54.7448 83.4905 54.6148 83.7372 54.3548C83.9905 54.0881 84.1172 53.7081 84.1172 53.2148V50.1448H85.2572ZM87.3414 49.4148C87.1347 49.4148 86.9614 49.3448 86.8214 49.2048C86.6814 49.0648 86.6114 48.8915 86.6114 48.6848C86.6114 48.4781 86.6814 48.3048 86.8214 48.1648C86.9614 48.0248 87.1347 47.9548 87.3414 47.9548C87.5414 47.9548 87.7114 48.0248 87.8514 48.1648C87.9914 48.3048 88.0614 48.4781 88.0614 48.6848C88.0614 48.8915 87.9914 49.0648 87.8514 49.2048C87.7114 49.3448 87.5414 49.4148 87.3414 49.4148ZM87.9014 50.1448V55.6548H86.7614V50.1448H87.9014ZM90.7281 51.0748V54.1248C90.7281 54.3315 90.7747 54.4815 90.8681 54.5748C90.9681 54.6615 91.1347 54.7048 91.3681 54.7048H92.0681V55.6548H91.1681C90.6547 55.6548 90.2614 55.5348 89.9881 55.2948C89.7147 55.0548 89.5781 54.6648 89.5781 54.1248V51.0748H88.9281V50.1448H89.5781V48.7748H90.7281V50.1448H92.0681V51.0748H90.7281ZM95.1188 55.7448C94.6854 55.7448 94.2954 55.6681 93.9488 55.5148C93.6088 55.3548 93.3388 55.1415 93.1388 54.8748C92.9388 54.6015 92.8321 54.2981 92.8188 53.9648H93.9988C94.0188 54.1981 94.1288 54.3948 94.3288 54.5548C94.5354 54.7081 94.7921 54.7848 95.0988 54.7848C95.4188 54.7848 95.6654 54.7248 95.8388 54.6048C96.0188 54.4781 96.1088 54.3181 96.1088 54.1248C96.1088 53.9181 96.0088 53.7648 95.8088 53.6648C95.6154 53.5648 95.3054 53.4548 94.8788 53.3348C94.4654 53.2215 94.1288 53.1115 93.8688 53.0048C93.6088 52.8981 93.3821 52.7348 93.1888 52.5148C93.0021 52.2948 92.9088 52.0048 92.9088 51.6448C92.9088 51.3515 92.9954 51.0848 93.1688 50.8448C93.3421 50.5981 93.5888 50.4048 93.9088 50.2648C94.2354 50.1248 94.6088 50.0548 95.0288 50.0548C95.6554 50.0548 96.1588 50.2148 96.5388 50.5348C96.9254 50.8481 97.1321 51.2781 97.1588 51.8248H96.0188C95.9988 51.5781 95.8988 51.3815 95.7188 51.2348C95.5388 51.0881 95.2954 51.0148 94.9888 51.0148C94.6888 51.0148 94.4588 51.0715 94.2988 51.1848C94.1388 51.2981 94.0588 51.4481 94.0588 51.6348C94.0588 51.7815 94.1121 51.9048 94.2188 52.0048C94.3254 52.1048 94.4554 52.1848 94.6088 52.2448C94.7621 52.2981 94.9888 52.3681 95.2888 52.4548C95.6888 52.5615 96.0154 52.6715 96.2688 52.7848C96.5288 52.8915 96.7521 53.0515 96.9388 53.2648C97.1254 53.4781 97.2221 53.7615 97.2288 54.1148C97.2288 54.4281 97.1421 54.7081 96.9688 54.9548C96.7954 55.2015 96.5488 55.3948 96.2288 55.5348C95.9154 55.6748 95.5454 55.7448 95.1188 55.7448Z" fill="white"/>
<circle cx="48.3372" cy="20.3372" r="19.8372" stroke="white"/>
<g clip-path="url(#clip0_22_692)">
<path d="M59.9998 21.2768C59.9562 20.2746 59.4552 19.3051 58.6273 18.6297C57.8212 17.9652 56.7427 17.6166 55.5772 17.6166C55.6207 17.4968 55.6752 17.3879 55.7188 17.279C56.8952 14.1308 56.7972 12.4641 58.8016 9.26153L58.7471 9.01099L58.4965 9.05456C56.6774 11.56 53.9214 11.4729 51.307 12.4641C48.1915 13.6515 45.8386 16.2332 43.758 18.5099C42.9192 19.4358 41.8735 19.9042 41.1872 21.0153C40.4573 22.2027 40.1741 23.5753 40.4029 24.7953C40.4355 24.9478 40.4791 25.1112 40.5227 25.2746C38.6491 25.1439 36.7209 25.5251 35.0652 26.4075L34.978 26.6472C35.0652 26.8323 35.1305 27.0175 35.1959 27.1918C35.2613 27.377 35.3266 27.5622 35.4138 27.7583L35.5336 27.8563H35.588L35.6861 27.8236C36.4922 27.2572 37.4181 26.8432 38.4421 26.5818C37.9955 26.8432 37.5706 27.1373 37.1894 27.4641L37.1458 27.682C37.331 28.0742 37.5597 28.4881 37.8756 28.804L38.0063 28.8585H38.0172L38.148 28.7931C38.9214 27.8018 40.0107 27.0393 41.2308 26.6145C41.2634 26.658 41.2961 26.7016 41.3397 26.7452C40.8059 27.7256 40.0325 28.5535 39.0739 29.1308L38.9867 29.2506L39.0303 29.4031C39.3353 29.7844 39.6839 30.0023 40.0107 30.1766L40.0979 30.1983L40.2068 30.1657C40.4791 29.9587 40.7406 29.7408 40.9802 29.5121C40.7297 30.2201 40.3048 31.0153 39.6294 31.6254L39.5641 31.7779L39.6403 31.9195L40.5554 32.5513L40.6643 32.584L40.795 32.5295C42.0586 31.2986 42.8865 29.6101 43.1044 27.8563C43.4203 27.9434 43.7471 27.9979 44.1175 27.9979C45.1741 27.9979 46.3615 27.6166 47.6469 26.865C48.4639 26.3857 49.2373 25.8302 49.9671 25.2419C49.9671 26.5055 50.5554 27.7474 51.5467 28.5317C50.7623 29.1199 49.8909 29.6101 48.9541 29.9914C48.9105 29.8824 48.8669 29.7626 48.8125 29.6428C48.7689 29.523 48.7144 29.3922 48.6599 29.2615L50.185 28.3465L50.2504 28.096L49.9998 28.0306L48.3331 29.0219L48.2678 29.2615C48.344 29.414 48.4094 29.5883 48.4748 29.7626C48.5401 29.9369 48.6164 30.1221 48.7035 30.2964L48.8669 30.3944H48.9323C49.9998 29.9696 50.9802 29.4031 51.8626 28.7387C51.9497 28.7931 52.0369 28.8585 52.124 28.9129C53.5074 29.6646 55.283 29.5339 56.5467 28.6079C57.7994 27.6929 58.4312 26.0589 58.1589 24.5339C58.3985 24.3814 58.6164 24.2071 58.8233 24.011C59.6077 23.2485 60.0216 22.279 59.9889 21.2877L59.9998 21.2768ZM41.4922 26.3639L41.514 26.3204C41.4922 26.255 41.4377 26.2223 41.3833 26.2114C41.2961 26.0807 41.209 25.95 41.1436 25.8084L41.3179 25.6341L41.7754 26.0916L41.5031 26.3639H41.4922ZM39.2264 26.0371C37.8974 26.255 36.7101 26.7016 35.6752 27.3879C35.6316 27.279 35.588 27.1591 35.5554 27.0502C35.5118 26.9195 35.4573 26.7779 35.4029 26.6472C36.9933 25.841 38.8233 25.4925 40.5989 25.6341C40.185 25.7539 39.7711 25.9173 39.3789 26.0916C39.3353 26.048 39.2809 26.0262 39.2264 26.0371ZM38.0063 28.401C37.8321 28.194 37.6904 27.9543 37.5488 27.6602C38.5074 26.8759 39.6294 26.2986 40.8168 25.9609C40.8822 26.0807 40.9475 26.1896 41.0238 26.3095C39.8473 26.7343 38.7798 27.4641 38.0063 28.401ZM40.0979 29.7953C39.8255 29.6428 39.6294 29.5012 39.466 29.3269C40.3593 28.7495 41.0891 27.9543 41.612 27.0284C41.7427 27.1482 41.8843 27.2681 42.0369 27.377C41.6556 28.2811 40.9802 29.1308 40.0979 29.7953ZM40.6534 32.1482L40.0543 31.7343C40.9257 30.8737 41.3506 29.7408 41.5575 28.9129C41.5575 28.9129 41.5575 28.9021 41.5575 28.8912C41.8952 28.4663 42.1567 28.0197 42.3636 27.5513C42.4944 27.6166 42.6251 27.682 42.7667 27.7365C42.5815 29.3814 41.8299 30.9718 40.6643 32.1482H40.6534ZM47.4835 26.5273C45.2177 27.8563 43.5074 27.8236 42.3745 27.1373L42.3528 27.0829H42.3201C42.0586 26.9304 41.819 26.7234 41.6229 26.4946L41.917 26.2005L42.0804 26.3639H42.2111V26.2332L42.0477 26.0698L42.1785 25.9391V25.8084H42.0477L41.917 25.9391L41.4595 25.4816L41.8081 25.133V25.0023H41.6774L41.3288 25.3509L41.2525 25.2746H41.1218V25.4053L41.1981 25.4816L41.0674 25.6123C41.0674 25.6123 41.0238 25.5143 41.002 25.4707C41.002 25.4162 40.9911 25.3617 40.9475 25.3291C40.8713 25.133 40.8168 24.926 40.7732 24.7082C40.5554 23.5753 40.8277 22.3007 41.5031 21.1896C42.1567 20.1439 43.1697 19.6864 44.0303 18.7387C46.0782 16.4946 48.3985 13.9456 51.4377 12.7909C53.2678 12.0938 55.8386 11.8432 57.6142 10.5143C56.5902 12.5949 56.1872 14.9587 55.3702 17.1265C54.1175 20.4925 51.8843 23.4119 48.9976 25.5143L48.9105 25.4271L49.27 25.0676V24.9369H49.1392L48.7798 25.2964L48.6491 25.1657H48.5183V25.2964L48.6491 25.4271L47.9192 26.157L47.5379 25.7757H47.4072V25.9064L47.7885 26.2877L47.734 26.3421C47.6469 26.4075 47.5597 26.462 47.4726 26.5164L47.4835 26.5273ZM52.7558 23.0088H52.6251V23.1395L52.7122 23.2267L52.5597 23.3792C52.4835 23.292 52.4072 23.194 52.331 23.096L52.7885 22.6384L53.039 22.889L52.843 23.0851L52.7558 22.9979V23.0088ZM52.6796 23.5208L52.843 23.3574L53.1044 23.6188L52.9301 23.7931C52.843 23.706 52.7558 23.6188 52.6687 23.5317L52.6796 23.5208ZM51.0674 24.2724C51.0674 24.2724 51.1763 24.1744 51.2308 24.1199L51.3724 24.2615L51.2199 24.414L51.0782 24.2724H51.0674ZM50.588 25.2201L50.3266 24.9587C50.4138 24.8933 50.49 24.8062 50.5663 24.7408L50.8168 24.9914L50.588 25.2201ZM50.3593 25.2419L50.4573 25.34L50.3593 25.438C50.3593 25.3726 50.3593 25.3073 50.3593 25.2419ZM48.856 25.6341C48.7253 25.7212 48.5946 25.8084 48.4639 25.8955L48.7907 25.5687L48.856 25.6341ZM56.3397 28.3029C55.2068 29.1417 53.551 29.2506 52.3092 28.5861C52.2547 28.5535 52.2111 28.5208 52.1567 28.4881C52.8212 27.9434 53.4421 27.3552 53.9541 26.6798C54.1066 26.4837 53.8124 26.2659 53.6599 26.4511C53.1371 27.1265 52.5053 27.7256 51.8299 28.2702C51.1 27.7038 50.588 26.8541 50.4029 25.9391L50.6207 26.157L50.7514 26.0262L50.3811 25.6559L50.6316 25.4053H50.6534V25.3835L50.9693 25.0676H51.0347V24.9369L50.6861 24.5883C50.7623 24.523 50.8386 24.4467 50.9148 24.3705L51.0782 24.5339V24.6428H51.1872L51.209 24.6646L51.3397 24.5339L51.6556 24.218V24.0872H51.5249L51.5031 24.109L51.3724 23.9783C51.3724 23.9783 51.4704 23.8803 51.514 23.8367L51.7536 24.0763H51.8843V23.9456L51.6338 23.6951C51.7645 23.5535 51.8952 23.4119 52.0151 23.2702C52.4835 23.9674 53.1589 24.5012 53.9214 24.8389H53.8669V24.9478H53.856V25.0894L53.9541 25.035L54.1501 25.2092L54.0739 25.2855L54.2046 25.4162L54.5314 25.0894L54.7819 25.34L54.673 25.4489V25.5796H54.8037L54.9127 25.4707H55.0434V25.34L55.1741 25.1983C55.2504 25.1983 55.3157 25.1983 55.392 25.2092L55.49 25.3073L55.3484 25.4489V25.5796H55.4791L55.6207 25.438L55.7732 25.5905L55.8386 25.5251V25.5469H55.9693L56.1872 25.3291L56.4813 25.6232H56.612V25.4925L56.5575 25.438L56.8843 25.1112L57.0804 25.3073L57.0151 25.3726V25.5034H57.1458L57.2111 25.438L57.3745 25.6014H57.5053V25.4707L57.3528 25.3182L57.6469 25.0241L57.8647 25.2419C57.8647 25.2419 57.8647 25.3291 57.8647 25.3617L57.2438 25.9827V26.1134L57.3092 26.1352L57.3745 26.1134L57.843 25.645C57.7122 26.6689 57.1785 27.6602 56.3506 28.2702L56.3397 28.3029ZM53.6491 24.0219L53.8887 24.2615L53.7798 24.3705C53.6817 24.316 53.5728 24.2724 53.4748 24.2071L53.6599 24.0219H53.6491ZM55.6207 24.3814L55.904 24.6646L55.7079 24.8607C55.5445 24.8607 55.3811 24.8824 55.2286 24.8607C55.2068 24.8607 55.185 24.8498 55.1632 24.8389L55.6316 24.3705L55.6207 24.3814ZM56.612 24.218L56.8952 24.5012L56.6992 24.6973V24.7517C56.5793 24.7844 56.4486 24.8171 56.3288 24.8389L56.1654 24.6755L56.612 24.2288V24.218ZM57.0477 24.6537L57.1785 24.523L57.1567 24.5012L57.5924 24.0655V24.1853L57.6904 24.2833L57.6469 24.3269V24.3814C57.429 24.5012 57.2002 24.6101 56.9606 24.6864L57.0151 24.6319L57.0368 24.6537H57.0477ZM57.2111 25.2092L57.0368 25.035C57.2111 24.9805 57.3745 24.926 57.5379 24.8607V24.8933L57.222 25.2092H57.2111ZM56.3288 25.231V25.1983C56.4159 25.1875 56.514 25.1766 56.6011 25.1657L56.4268 25.34L56.3179 25.231H56.3288ZM55.8604 25.438L55.7623 25.34L55.8168 25.2855V25.2528C55.904 25.2528 55.9802 25.231 56.0565 25.231L55.8495 25.4489L55.8604 25.438ZM57.8538 25.0132L57.7667 24.926L57.8321 24.8607C57.8321 24.8607 57.843 24.9696 57.8538 25.0241V25.0132ZM56.1109 24.8716C56.1109 24.8716 56.0238 24.8716 55.9693 24.8716L56.0347 24.8062L56.1 24.8716H56.1109ZM54.9671 25.1766L54.9127 25.231L54.8255 25.1439C54.8255 25.1439 54.9127 25.1657 54.9562 25.1766H54.9671ZM54.9453 24.7953C54.8037 24.7735 54.673 24.7408 54.5314 24.6973L54.7928 24.4358L55.0434 24.6864L54.9453 24.7844V24.7953ZM54.3462 25.0241L54.2591 25.1112L54.1175 24.9587H54.1392C54.2046 24.9696 54.2809 24.9914 54.3462 25.0132V25.0241ZM58.1371 24.0763V23.9783H58.0064L57.8321 24.1526L57.734 24.0546H57.6142L57.6469 24.0219V23.8912H57.5162L57.0368 24.3705L56.7536 24.0872H56.6556V24.0655H56.5249L56.0456 24.5448L55.7623 24.2615L55.9366 24.0872V23.9565H55.8059L55.5663 24.1962L55.185 24.5774L54.9345 24.3269L55.1414 24.1199V23.9892H55.0107L54.8037 24.1962L54.6948 24.0872H54.5641V24.218L54.673 24.3269L54.3353 24.6646C54.2046 24.621 54.0848 24.5448 53.965 24.4794L54.0303 24.414L54.2264 24.6101H54.3571V24.4794L54.161 24.2833L54.4443 24.0001V23.8694H54.3135L54.0303 24.1526L53.7907 23.9129L53.9105 23.7931V23.6624H53.7798L53.3331 24.109C53.246 24.0437 53.1697 23.9783 53.0935 23.9129L53.246 23.7604L53.3331 23.8476L53.4639 23.7169L53.3767 23.6297L53.5401 23.4663V23.3356H53.4094L53.246 23.499L52.9846 23.2376L53.1806 23.0415L53.2896 23.1504L53.4203 23.0197L52.9301 22.5295L53.1589 22.3007V22.17H53.0281L52.843 22.3552C53.8996 21.0262 54.7711 19.5556 55.4247 17.987C56.5575 17.9652 57.636 18.3029 58.3985 18.9238C59.1501 19.5448 59.5968 20.4053 59.6294 21.2986C59.6621 22.2027 59.3026 23.0415 58.5728 23.7495C58.4421 23.8803 58.2787 23.9783 58.1262 24.0872L58.1371 24.0763Z" fill="white"/>
<path d="M50.4357 15.732L50.6972 15.6993L50.6645 15.4379L50.2505 15.1111L50 15.1438L50.0218 15.4052L50.4357 15.732Z" fill="white"/>
<path d="M44.2374 21.6035L43.9868 21.6471L44.0304 21.9085L44.6731 22.366L44.9345 22.3225L44.891 22.0719L44.2374 21.6035Z" fill="white"/>
<path d="M48.7144 19.2071L48.965 19.1417L48.9105 18.8911L48.5837 18.6951L48.3223 18.7495L48.3876 19.011L48.7144 19.2071Z" fill="white"/>
<path d="M52.8647 18.6188L52.9301 18.3573L52.7231 18.0305L52.4726 17.9761L52.4072 18.2266L52.6142 18.5534L52.8647 18.6188Z" fill="white"/>
<path d="M48.1592 22.9542L48.1919 22.6928L48.0285 22.4858L47.7671 22.4531L47.7344 22.7146L47.9087 22.9215L48.1592 22.9542Z" fill="white"/>
<path d="M42.7889 24.7297L42.7671 24.9912L43.181 25.4814L43.4425 25.5032L43.4643 25.2417L43.0503 24.7515L42.7889 24.7297Z" fill="white"/>
<path d="M56.4271 27.1265L56.0349 26.7452L56.1112 26.6689V26.5382H55.9695L55.414 27.1047L54.9891 26.6689L55.3159 26.3421V26.2114H55.1852L54.4336 26.974V27.0938H54.5643L54.8584 26.7997L55.2833 27.2354L55.1961 27.3225V27.4424H55.3268L55.414 27.3552L55.5338 27.475L55.6645 27.3443L55.5447 27.2354L55.9042 26.865L56.2963 27.2681L55.8933 27.6711V27.7909H56.024L56.4271 27.3879L56.5251 27.4859H56.6558V27.3552L56.5578 27.2572L57.0807 26.7452V26.6145H56.9499L56.4271 27.1265Z" fill="white"/>
</g>
<defs>
<clipPath id="clip0_22_692">
<path d="M34 9H60V20C60 27.1797 54.1797 33 47 33C39.8203 33 34 27.1797 34 20V9Z" fill="white"/>
</clipPath>
</defs>
</svg>
