<?xml version="1.0" encoding="UTF-8"?>
<svg id="Layer_1" xmlns="http://www.w3.org/2000/svg" viewBox="0 0 100 100">
  <defs>
    <style>
      .cls-1 {
        letter-spacing: -.02em;
      }

      .cls-2 {
        letter-spacing: 0em;
      }

      .cls-3 {
        letter-spacing: 0em;
      }

      .cls-4 {
        letter-spacing: .01em;
      }

      .cls-5 {
        fill: #f07426;
      }

      .cls-6 {
        letter-spacing: 0em;
      }

      .cls-7 {
        fill: #231f20;
        font-family: Montserrat-Medium, Montserrat;
        font-size: 7px;
        font-weight: 500;
      }
    </style>
  </defs>
  <g>
    <path class="cls-5" d="M66.46,59.9c-.02,2.01-.42,2.66-2.92,2.82l-20.28,1.34c-1.27.08-2.69.1-3.46-.79-.29-.33-.43-.75-.51-1.21l.65-.65h.09v-.09l.4-.4v-.27h-.27l-.31.31-.61-.61s0-.03,0-.05l.05-.94.56-.56.29.29h.27v-.27l-.29-.29.54-.54v-.27h-.27l-.54.54-.47-.47.04-.75.5-.5.14.14h.28v-.27l-.15-.15,1.08-1.08v-.27h-.27l-1.09,1.08-.42-.42.09-1.61h.01v.06h.05l.93.93h.28v-.27l-.82-.82,1.78-1.77v-.27h-.27l-1.83,1.83h-.1l.09-1.64.09-.09.58.58h.27v-.27l-.58-.58,2.12-2.12-.26-.26.2-.2-.65-.66.8-.8,1.47,1.47.27-.27-1.53-1.53v-.14h-.14l-.23-.23c.19.03.37.03.57.06.51.08,1.04.16,1.63.16.05,0,.1-.02.15-.02v.04l.63.63-1.18,1.19v.27h.27l1.19-1.19.92.92h.27v-.27l-.92-.92,1.15-1.15c.84-.31,1.65-.72,2.44-1.15l-1.44,1.44-.4-.4h-.27v.27l.4.4-.3.3v.27h.27l.3-.3.4.4h.27v-.27l-.4-.4,1.33-1.33.53.53v.2h.2l.41.41.27-.27-.37-.37.88-.87.59.59h.27v-.27l-.59-.59.77-.77v-.27h-.27l-.77.77-.34-.34c.8-.38,1.61-.69,2.45-.82l1.08,1.08v.2h.2l.03.03h.27v-.25l1.43-1.43c.41-.11.89-.27,1.46-.51l.17.17-.76.76.27.27.76-.76.4.4.27-.27-.4-.4.63-.63v-.17c.2-.1.42-.22.64-.34l.12.12-.45.45v.27h.27l.45-.45.23.22.27-.27-.22-.22.49-.49.52.53h.28v-.27l-.53-.52.3-.3c.17-.09.35-.19.51-.28.08.08.16.17.25.26h-.01v.28h.27l.04-.04c.11.07.21.1.27.05v-.27l-.03-.02.54-.55.3.3h.27v-.27l-.3-.3.15-.15v-.26s.05-.03.07-.04c1.77-.98,2.44-1.36,2.79-1.68l-.22,21.86ZM39.35,58.31l.23.23-.26.26.03-.49ZM40,46.97c.38-.08.76-.14,1.15-.14.16,0,.33.04.49.05v.14l.35.35-.8.8-1.2-1.2ZM39.75,51.35l.1-1.75.88.88-.92.92-.05-.05ZM39.48,56.1l.18.18-.2.2.02-.38ZM39.22,60.87l.36.36-.35.35c-.02-.23-.03-.47-.02-.71M40.9,49.01l.3-.3.65.65-.85.85-1.12-1.11.09-1.61.96.96-.3.3v.27h.27ZM45.98,46.89l-.63.64-.45-.45c.37-.04.73-.09,1.08-.19M49.51,45.49v-.02h-.23s.07-.04.11-.06c.4-.22.81-.43,1.22-.63v.05l.4.4-.87.87-.62-.62ZM54.71,44.58l-.83-.83c.23-.02.48-.05.69-.06.37-.02.74-.05,1.14-.11l-1,1ZM58.47,42.65l-.17.17-.06-.06c.08-.03.15-.07.24-.11M60.35,41.68l-.12.12-.04-.04c.05-.03.1-.06.16-.09M63.12,40.15l.02.02-.54.54-.18-.18c.26-.15.47-.26.7-.39M37.6,46.91c-.53.19-1.07.39-1.6.54-1.1.3-2.02.19-2.44-.34-.16-.2-.22-.44-.23-.7l.26.26.88-.89.1.1h.27v-.27l-.1-.1,1-1.01-.27-.27-1.01,1.01-.5-.5s.03-.05.05-.08c.29-.32.63-.6.98-.9.05-.04.1-.1.16-.14l.71.71h.27v-.27l-.69-.69c.34-.3.67-.61.94-.99.05-.07.08-.18.13-.26l.34.34-.74.74v.27h.27l.74-.74.1.1h.27v-.27l-.1-.1.65-.65v-.27h-.27l-.65.65-.41-.41h-.03c.18-.37.35-.79.51-1.25h.23l.13-.13.69.69.27-.27-.69-.69.97-.97.46.46.27-.27-.46-.46.77-.77h0s.44.44.44.44l-.51.51.27.27,1.55-1.55v-.11l.49.49h.27v-.27l-1.01-1h2.15s.37.36.37.36l-.96.96v.27h.27l.96-.95.77.77v.05h.05s.27,0,.27,0v-.05l1.12-1.12.98.98v.1h.1l.16.16.27-.27-.07-.07,1.02-1.02v-.17l.76.77-.39.39v.27h.28l.38-.39.26.26h.27v-.27l-.26-.26.47-.47v-.27h-.27l-.47.47-.52-.53h1.87s.67.65.67.65l-.39.39.27.27.47-.47h.1v-.1l.7-.69v-.07l13.49-.1-.16.53c-.16.31-.54.53-2.79,1.77-.81.45-1.86,1.03-3.22,1.79-3.47,1.95-4.54,2.01-5.78,2.08-.38.03-.77.05-1.25.12-1.53.23-2.92.97-4.26,1.69-1.58.85-3.07,1.65-4.77,1.65-.49,0-.97-.08-1.48-.15-.53-.08-1.07-.17-1.66-.17-1.24.01-2.4.44-3.52.85M33.75,45.07l.45.46-.87.87c-.02-.44.15-.91.42-1.33M38.19,38.05c.2-.37.43-.66.69-.86l.69.69-.77.77-.6-.61ZM37.48,39.81h-.02c.17-.48.34-.97.54-1.4l.52.52-.97.97-.08-.08ZM39.55,36.95h.83c.06.03.12.08.2.08s.15-.04.21-.09h.01l.62.62h-.11l-.77.77-1.31-1.31c.1-.03.21-.06.32-.06M40.97,35.54l.21.21-.13.13v.27h.27l.19-.19h.14v-.14l.47-.47-.27-.27-.4.41-.48-.48v-.98l.98.98h.27s0-.27,0-.27l-.86-.86h.69s0,.1,0,.1l1.05,1.05.27-.27-.89-.89h.69s.43.42.43.42l-.29.29.27.27.28-.28.24.24h.27v-.27l-.24-.24.44-.44h.3c.09.09.18.19.29.29l-.07.07v.27h.27l.1-.1c.11.07.21.1.26.04v-.27l-.02-.02.3-.3h.38s.39.38.39.38v.03h.03l.12.12h.27v-.27h0s.22-.22.22-.22v-.06h1.07c.02,1.12.03,1.95.03,2.31l-7.54.05v-.63ZM53.25,17h.1l-.13.12-.12-.12c.05,0,.1,0,.15,0M60.79,17.07h-.26l-.11.11-.27-.27c.16,0,.31,0,.47,0l.16.16ZM61.16,16.9c.2,0,.4,0,.59,0l-.3.3-.29-.29ZM62.58,17.01l-.12-.13c.08,0,.17,0,.25,0l-.13.13ZM65.82,24.37l-7.64.04c-.01-.42-.03-.85-.04-1.27l.18.09v-.27h0s.94-.95.94-.95v-.27h-.27l-.86.86c0-.19-.01-.37-.02-.55h0s.27,0,.27,0c.17-.17-.09-.38-.29-.57,0-.18-.01-.36-.02-.53l.14.15h.27v-.27l-.16-.16.72-.72v-.27h-.27l-.72.72h0c-.01-.37-.03-.73-.04-1.07l.02.02v.22h.27v-.02h.21v-.19l.79-.79v-.27h-.27l-.75.75-.29-.29c-.02-.47-.04-.91-.07-1.33l.32.32-.06.06.27.27.08-.08.09.04.13-.05v-.21l.33-.33v-.09l.33.33h.27v-.27l-.5-.5c.16,0,.31,0,.47,0l.53.53-.29.29v.27h.27l.67-.67v-.26l.66.66h.27v-.27h-.01s.38-.4.38-.4l.2.2-.11.11v.27h.27l.19-.19h.12v-.12l.29-.29v-.18s.03,0,.05,0l.32.32h.07v.07h.27s.19-.19.19-.19l.07.07.27-.27-.02-.02c.48,0,.96-.01,1.44-.02.09,2.46.11,4.98.09,7.53M49.23,32.97l.2-.03-.04-.26-.08-.12c0-.22.44-.61.68-.81l.23-.21v-.27h-.27l-.21.19c-.17.15-.37.32-.52.49,0-.16,0-.32,0-.49l.03.03.13.06.13-.06v-.27l-.3-.3c0-.37-.01-.74-.02-1.13h.06l.27-.27.15.15h.27s0-.27,0-.27l-.15-.14.69-.69v-.27h-.27l-.69.69-.35-.35c0-.45-.02-.91-.03-1.37l.45.45-.16.17v.27h.27l.16-.16.16.16h.27v-.27l-.16-.16.83-.83v-.27h-.27l-.83.83-.53-.53h-.2c0-.38-.02-.75-.03-1.13l.6.6.18.18h.27v-.27l-.04-.04.65-.65.79.79h.27v-.27l-.79-.79.03-.03v-.09h1.15s.23.22.23.22l-.49.49v.27h.27l.49-.48.49.49v.08h.27l.04-.04.58-.58h0s.43.42.43.42l.12.05.2.19.75-.75v-.2l.43.43-.13.13v.27h.28l.12-.12.17.17h.27v-.27l-.17-.17.37-.37v-.25h.54c.07,2.85.12,5.67.15,7.76l-8.36.09v-.06M41.14,19.33l-.16.17v-.33l.16.16ZM41.07,26.61h-.1v-.98s.63.63.63.63l-.44.44-.09-.09ZM40.97,27.17l.13.05h.03s.42.41.42.41l-.57.58v-1.04ZM49.17,29.18l.07.07-.07.07s0-.09,0-.14M48.86,18.77l.25.25-.22.23c0-.16-.01-.32-.02-.47M48.96,21.36l.02.02-.02.02v-.03M49.08,25.23v-.02h1.28s.12.12.12.12l-.65.65-.75-.75ZM56.6,25.18l-.34.34-.34-.34h.68ZM53.81,25.37h0l-.45.45-.39-.39.04-.04v-.19h.63s.18.18.18.18ZM55.49,25.29h-.2l-.52.52v-.02l-.6-.6h1.22s.1.1.1.1ZM58.83,25.55l-.38-.39h.77s-.39.39-.39.39ZM58.26,28.12c0-.33-.01-.67-.02-1.01l.24.24v.06h.06l.4.4-.49.49-.18-.18ZM58.32,31.12c0-.29,0-.57-.01-.87l.43.43h.02l-.44.44ZM58.61,26.32l.23-.23.35.35-.54.54-.41-.41c0-.37-.02-.73-.03-1.1l.36.36-.23.23v.27h.27ZM63.82,25.14h.37s-.19.18-.19.18l-.18-.18ZM59.93,25.16l.76.76-.24.24v.27h.27l.3-.3h.15v-.15l.62-.62.64.64v.14h.14l.02.02h.27v-.19l.63-.63.24.22-.16.16v.27h.27l.17-.17.19.18.13-.32-.09-.09.28-.28.11.11v.26l.14.06.13-.05.07.07h.27s0-.27,0-.27l-.07-.07.05-.05v-.23h.57c-.03,2.54-.12,5.11-.26,7.71l-7.2.08c0-.4-.01-.83-.02-1.27l.03-.03.28.28h.27v-.27l-.28-.28.96-.96v-.27h-.27l-.31.31v-.02l-.69-.69-.02.02c0-.25,0-.49-.01-.75l.16-.16.62.62h.27v-.27l-.62-.62.75-.75v-.27h-.25l-.3-.3.53-.54.26.26h.27v-.27l-.26-.26.12-.12v-.27h-.27l-.12.12-.35-.35.56-.56v-.1h.27ZM61.47,25.15l-.5.5-.5-.5h1ZM62.65,25.67l-.52-.52h1.04s-.53.52-.53.52ZM64.9,25.13h.03l-.02.02v-.02ZM58.88,17.18h-.09l-.29.29-.54-.54c.22,0,.45,0,.67,0l.25.25ZM50.57,17.51v.25h.27l.67-.67.56.57.1-.1h.22l.36-.36.28.27.04-.04v.12h.27l.41-.41.15.15h.27v-.27l-.03-.03c1-.01,1.99-.03,2.99-.04.13,2.06.22,4.74.29,7.45l-8.35.04c-.02-.86-.05-1.7-.08-2.54l.86-.85v-.27h-.27l-.32.31-.31-.31c0-.16-.01-.31-.02-.47l.18.18h.27v-.27l-.47-.47.47-.47h.01s.27-.26.27-.26v-.02s.06-.07.06-.07v-.27h-.27l-.08.08-.54-.54c-.02-.33-.03-.64-.05-.95l.35.35-.17.17v.27h.27l.18-.18.23.23h.27v-.27l-.23-.23.2-.2v-.27h-.27l-.2.2-.28-.28c.33,0,.65,0,.98-.01l.47.47ZM50.82,17.23l-.19-.19c.13,0,.26,0,.38,0l-.2.19ZM52.18,17.23l-.21-.21c.14,0,.28,0,.42,0l-.21.21ZM45.41,17.71l-.27-.27.03-.03v-.27h-.27l-.03.03-.05-.05c.32,0,.65,0,.97-.01l-.37.37v.23ZM43.08,17.14c.22,0,.45,0,.67,0l-.34.34-.33-.33ZM41.25,17.16c.22,0,.44,0,.66,0l-.33.33-.32-.32ZM41.3,17.75l-.22.22v.27h.27l.22-.22.67.67h.27v-.27l-.67-.67.37-.37v-.24c.11,0,.22,0,.33,0l.6.6-.2.2v.27h.27l.21-.2.12.12h.27v-.27l-.12-.12.4-.4v-.22c.08,0,.16,0,.24,0v.03l.28.28-.31.31v.27h.27l.31-.31.5.5h.27v-.27l-.16-.16.07.03.13-.06.42-.43.29.3h.27v-.27l-.25-.25c.53,0,1.06-.01,1.59-.02.12,2.06.22,4.7.29,7.38l-7.33.04v-2.04s.17-.17.17-.17l.03.03.13.06.13-.06v-.27l-.03-.03.42-.42-.27-.27-.42.42-.17-.17v-.99l.44.44h.27v-.27l-.69-.69h-.03v-.03l.44-.44h0s.27-.26.27-.26h0s.25-.25.25-.25v-.27h-.27l-.25.25-.43-.43v-1.2l.33.32ZM44.03,33.84l-.17.17-.16-.16h.33ZM45.46,33.83l-.03.03-.02-.03h.05ZM40.97,33.12v-2.45l.24-.24h.01s.27.01.27.01v-.27h-.01s.48-.49.48-.49v-.27h-.27l-.48.48-.24-.24v-.72s.29.29.29.29h.27v-.27l-.38-.38.67-.67.11.11.13.06.13-.06v-.27l-.12-.12v-.24h-.24l-.4-.4.44-.44.13.05.13-.05v-.27l.08-.08v-.27h-.27l-.08.08-.74-.74h.74s.87.86.87.86l.27-.27-.6-.6h1.11s.17.16.17.16l-.54.54.27.27.54-.54.34.34h.27v-.27l-.51-.51h.77s.23.23.23.23l-.28.28v.27h.27l.28-.28.27.27.14.05.13-.32-.27-.27h0v-.23h2.72c.07,2.87.12,5.71.15,7.81l-7.5.08ZM46.92,33.81h0s0,0,0,0ZM44.13,37.02l-.11-.11h.21s-.11.11-.11.11ZM45.06,37.94l-.65-.65.2-.2v-.18h1.44s.03.02.03.02l-1.01,1.01ZM46.61,36.93l.04-.04h1.79s-.94.93-.94.93l-.89-.89ZM49.27,36.11c0-.3-.01-.93-.02-1.79l.54.54h.27v-.27l-.81-.81h.96s0,.03,0,.03l.86.86h.27v-.27l-.63-.62h.97s0,.07,0,.07l.74.74h.27v-.27l-.56-.55h.31s0,.11,0,.11l.86.86h.27v-.27l-.7-.7,1.44-.02.69.69h.27v-.27l-.42-.42h.43s.63.63.63.63h.27v-.27l-.37-.37,1.8-.02c.02,1.13.03,1.96.03,2.36l-8.36.06ZM52.11,37.25l-.4-.4h.8s-.4.4-.4.4ZM58.39,36.04c0-.15,0-.36,0-.63l.31.31h.27v-.27l-.55-.55h-.04c0-.19,0-.4,0-.63l.51.51h.27v-.27l-.79-.79s0-.03,0-.04h.51s.78.77.78.77h.27v-.27l-.51-.51h1.1s.61.6.61.6h.27v-.27l-.35-.35h.63s.45.44.45.44h.27v-.27l-.19-.19h.74s.61.61.61.61h.27v-.27l-.35-.35,2.02-.02c-.04.8-.08,1.59-.14,2.39l-6.98.05ZM67.08,36.12h0s-.04.02-.06.03c-.11-.09-.23-.16-.39-.16h-.08c-.06-.12-.17-.22-.31-.22h-.08c.45-6.63.57-13.13.33-19.33,0-.21-.19-.39-.39-.37-4.27.05-8.56.11-12.85.17-4.22.06-8.44.11-12.65.16-.21,0-.37.17-.37.38v7.97s-.06.07-.06.12.03.08.05.12v11.19s-.67,0-.67,0c-1.67.01-2.34,1.99-2.92,3.73-.28.82-.54,1.59-.86,2.04-.33.47-.78.84-1.25,1.24-.36.3-.73.61-1.05.97-.85.94-1.3,2.42-.49,3.43.41.52,1.07.79,1.9.79.41,0,.87-.07,1.34-.2.56-.16,1.12-.36,1.65-.56.46-.17.92-.33,1.37-.47l-.75,13.1c-.07,1.26-.08,2.57.75,3.52.96,1.1,2.56,1.14,4.08,1.04l20.28-1.34c3.06-.2,3.61-1.31,3.64-3.57l.24-23.41c0-.21-.17-.38-.38-.38"/>
    <polygon class="cls-5" points="56.41 43.49 56.41 43.76 57.17 44.52 57.44 44.52 57.44 44.25 56.67 43.49 56.41 43.49"/>
    <path class="cls-5" d="M56.8,57.02l-.68-.68.94-.94.68.68-.94.94ZM60.92,55.15l-.85-.85,1.04-1.03v-.27h-.27l-1.04,1.04-1.48-1.48,1.61-1.61v-.27h-.27l-1.61,1.62h-.27v.27l-1.25,1.25v.27l.13.05.13-.05,1.25-1.25,1.48,1.48-1.51,1.51-.68-.68.53-.53v-.27h-.27l-.53.53-1.17-1.17h-.27v.27l1.17,1.17-.94.94-1.51-1.51h-.27v.27l1.51,1.51-.56.56v.27h.27l.56-.56.68.68-1.44,1.43v.27h.27l1.44-1.43,1.01,1.01h.28v-.27l-1.01-1.01.94-.94,1.85,1.85h.27v-.27l-1.85-1.85,1.51-1.51.85.85-1,1v.27h.27l1-1,.67.67.27-.27-.67-.67,1.22-1.21v-.27h-.27l-1.21,1.21Z"/>
  </g>
  <text class="cls-7" transform="translate(24.94 77.6)"><tspan class="cls-1" x="0" y="0">C</tspan><tspan x="4.91" y="0">on</tspan><tspan class="cls-6" x="14.13" y="0">f</tspan><tspan x="16.55" y="0">e</tspan><tspan class="cls-2" x="20.83" y="0">c</tspan><tspan x="24.87" y="0">tio</tspan><tspan class="cls-3" x="34.17" y="0">n</tspan><tspan x="38.95" y="0">e</tspan><tspan class="cls-4" x="43.23" y="0">r</tspan><tspan x="46.2" y="0">y</tspan></text>
</svg>