<svg width="98" height="69" viewBox="0 0 98 69" fill="none" xmlns="http://www.w3.org/2000/svg">
<path d="M35.5357 55.7248C35.0691 55.7248 34.6491 55.6448 34.2757 55.4848C33.9024 55.3181 33.6091 55.0848 33.3957 54.7848C33.1824 54.4848 33.0757 54.1348 33.0757 53.7348H34.2957C34.3224 54.0348 34.4391 54.2815 34.6457 54.4748C34.8591 54.6681 35.1557 54.7648 35.5357 54.7648C35.9291 54.7648 36.2357 54.6715 36.4557 54.4848C36.6757 54.2915 36.7857 54.0448 36.7857 53.7448C36.7857 53.5115 36.7157 53.3215 36.5757 53.1748C36.4424 53.0281 36.2724 52.9148 36.0657 52.8348C35.8657 52.7548 35.5857 52.6681 35.2257 52.5748C34.7724 52.4548 34.4024 52.3348 34.1157 52.2148C33.8357 52.0881 33.5957 51.8948 33.3957 51.6348C33.1957 51.3748 33.0957 51.0281 33.0957 50.5948C33.0957 50.1948 33.1957 49.8448 33.3957 49.5448C33.5957 49.2448 33.8757 49.0148 34.2357 48.8548C34.5957 48.6948 35.0124 48.6148 35.4857 48.6148C36.1591 48.6148 36.7091 48.7848 37.1357 49.1248C37.5691 49.4581 37.8091 49.9181 37.8557 50.5048H36.5957C36.5757 50.2515 36.4557 50.0348 36.2357 49.8548C36.0157 49.6748 35.7257 49.5848 35.3657 49.5848C35.0391 49.5848 34.7724 49.6681 34.5657 49.8348C34.3591 50.0015 34.2557 50.2415 34.2557 50.5548C34.2557 50.7681 34.3191 50.9448 34.4457 51.0848C34.5791 51.2181 34.7457 51.3248 34.9457 51.4048C35.1457 51.4848 35.4191 51.5715 35.7657 51.6648C36.2257 51.7915 36.5991 51.9181 36.8857 52.0448C37.1791 52.1715 37.4257 52.3681 37.6257 52.6348C37.8324 52.8948 37.9357 53.2448 37.9357 53.6848C37.9357 54.0381 37.8391 54.3715 37.6457 54.6848C37.4591 54.9981 37.1824 55.2515 36.8157 55.4448C36.4557 55.6315 36.0291 55.7248 35.5357 55.7248ZM40.4209 50.9548C40.6142 50.7015 40.8776 50.4881 41.2109 50.3148C41.5442 50.1415 41.9209 50.0548 42.3409 50.0548C42.8209 50.0548 43.2576 50.1748 43.6509 50.4148C44.0509 50.6481 44.3642 50.9781 44.5909 51.4048C44.8176 51.8315 44.9309 52.3215 44.9309 52.8748C44.9309 53.4281 44.8176 53.9248 44.5909 54.3648C44.3642 54.7981 44.0509 55.1381 43.6509 55.3848C43.2576 55.6248 42.8209 55.7448 42.3409 55.7448C41.9209 55.7448 41.5476 55.6615 41.2209 55.4948C40.8942 55.3215 40.6276 55.1081 40.4209 54.8548V58.2748H39.2809V50.1448H40.4209V50.9548ZM43.7709 52.8748C43.7709 52.4948 43.6909 52.1681 43.5309 51.8948C43.3776 51.6148 43.1709 51.4048 42.9109 51.2648C42.6576 51.1181 42.3842 51.0448 42.0909 51.0448C41.8042 51.0448 41.5309 51.1181 41.2709 51.2648C41.0176 51.4115 40.8109 51.6248 40.6509 51.9048C40.4976 52.1848 40.4209 52.5148 40.4209 52.8948C40.4209 53.2748 40.4976 53.6081 40.6509 53.8948C40.8109 54.1748 41.0176 54.3881 41.2709 54.5348C41.5309 54.6815 41.8042 54.7548 42.0909 54.7548C42.3842 54.7548 42.6576 54.6815 42.9109 54.5348C43.1709 54.3815 43.3776 54.1615 43.5309 53.8748C43.6909 53.5881 43.7709 53.2548 43.7709 52.8748ZM46.6382 49.4148C46.4316 49.4148 46.2582 49.3448 46.1182 49.2048C45.9782 49.0648 45.9082 48.8915 45.9082 48.6848C45.9082 48.4781 45.9782 48.3048 46.1182 48.1648C46.2582 48.0248 46.4316 47.9548 46.6382 47.9548C46.8382 47.9548 47.0082 48.0248 47.1482 48.1648C47.2882 48.3048 47.3582 48.4781 47.3582 48.6848C47.3582 48.8915 47.2882 49.0648 47.1482 49.2048C47.0082 49.3448 46.8382 49.4148 46.6382 49.4148ZM47.1982 50.1448V55.6548H46.0582V50.1448H47.1982ZM48.3149 52.8948C48.3149 52.3281 48.4283 51.8315 48.6549 51.4048C48.8883 50.9715 49.2083 50.6381 49.6149 50.4048C50.0216 50.1715 50.4883 50.0548 51.0149 50.0548C51.6816 50.0548 52.2316 50.2148 52.6649 50.5348C53.1049 50.8481 53.4016 51.2981 53.5549 51.8848H52.3249C52.2249 51.6115 52.0649 51.3981 51.8449 51.2448C51.6249 51.0915 51.3483 51.0148 51.0149 51.0148C50.5483 51.0148 50.1749 51.1815 49.8949 51.5148C49.6216 51.8415 49.4849 52.3015 49.4849 52.8948C49.4849 53.4881 49.6216 53.9515 49.8949 54.2848C50.1749 54.6181 50.5483 54.7848 51.0149 54.7848C51.6749 54.7848 52.1116 54.4948 52.3249 53.9148H53.5549C53.3949 54.4748 53.0949 54.9215 52.6549 55.2548C52.2149 55.5815 51.6683 55.7448 51.0149 55.7448C50.4883 55.7448 50.0216 55.6281 49.6149 55.3948C49.2083 55.1548 48.8883 54.8215 48.6549 54.3948C48.4283 53.9615 48.3149 53.4615 48.3149 52.8948ZM59.741 52.7648C59.741 52.9715 59.7277 53.1581 59.701 53.3248H55.491C55.5244 53.7648 55.6877 54.1181 55.981 54.3848C56.2744 54.6515 56.6344 54.7848 57.061 54.7848C57.6744 54.7848 58.1077 54.5281 58.361 54.0148H59.591C59.4244 54.5215 59.121 54.9381 58.681 55.2648C58.2477 55.5848 57.7077 55.7448 57.061 55.7448C56.5344 55.7448 56.061 55.6281 55.641 55.3948C55.2277 55.1548 54.901 54.8215 54.661 54.3948C54.4277 53.9615 54.311 53.4615 54.311 52.8948C54.311 52.3281 54.4244 51.8315 54.651 51.4048C54.8844 50.9715 55.2077 50.6381 55.621 50.4048C56.041 50.1715 56.521 50.0548 57.061 50.0548C57.581 50.0548 58.0444 50.1681 58.451 50.3948C58.8577 50.6215 59.1744 50.9415 59.401 51.3548C59.6277 51.7615 59.741 52.2315 59.741 52.7648ZM58.551 52.4048C58.5444 51.9848 58.3944 51.6481 58.101 51.3948C57.8077 51.1415 57.4444 51.0148 57.011 51.0148C56.6177 51.0148 56.281 51.1415 56.001 51.3948C55.721 51.6415 55.5544 51.9781 55.501 52.4048H58.551ZM62.8629 55.7448C62.4296 55.7448 62.0396 55.6681 61.6929 55.5148C61.3529 55.3548 61.0829 55.1415 60.8829 54.8748C60.6829 54.6015 60.5762 54.2981 60.5629 53.9648H61.7429C61.7629 54.1981 61.8729 54.3948 62.0729 54.5548C62.2796 54.7081 62.5362 54.7848 62.8429 54.7848C63.1629 54.7848 63.4096 54.7248 63.5829 54.6048C63.7629 54.4781 63.8529 54.3181 63.8529 54.1248C63.8529 53.9181 63.7529 53.7648 63.5529 53.6648C63.3596 53.5648 63.0496 53.4548 62.6229 53.3348C62.2096 53.2215 61.8729 53.1115 61.6129 53.0048C61.3529 52.8981 61.1262 52.7348 60.9329 52.5148C60.7462 52.2948 60.6529 52.0048 60.6529 51.6448C60.6529 51.3515 60.7396 51.0848 60.9129 50.8448C61.0862 50.5981 61.3329 50.4048 61.6529 50.2648C61.9796 50.1248 62.3529 50.0548 62.7729 50.0548C63.3996 50.0548 63.9029 50.2148 64.2829 50.5348C64.6696 50.8481 64.8762 51.2781 64.9029 51.8248H63.7629C63.7429 51.5781 63.6429 51.3815 63.4629 51.2348C63.2829 51.0881 63.0396 51.0148 62.7329 51.0148C62.4329 51.0148 62.2029 51.0715 62.0429 51.1848C61.8829 51.2981 61.8029 51.4481 61.8029 51.6348C61.8029 51.7815 61.8562 51.9048 61.9629 52.0048C62.0696 52.1048 62.1996 52.1848 62.3529 52.2448C62.5062 52.2981 62.7329 52.3681 63.0329 52.4548C63.4329 52.5615 63.7596 52.6715 64.0129 52.7848C64.2729 52.8915 64.4962 53.0515 64.6829 53.2648C64.8696 53.4781 64.9662 53.7615 64.9729 54.1148C64.9729 54.4281 64.8862 54.7081 64.7129 54.9548C64.5396 55.2015 64.2929 55.3948 63.9729 55.5348C63.6596 55.6748 63.2896 55.7448 62.8629 55.7448Z" fill="white"/>
<circle cx="48.3372" cy="20.3372" r="19.8372" stroke="white"/>
<g clip-path="url(#clip0_22_704)">
<path d="M39.3999 18.3899L39.4499 18.4299C40.0699 18.5799 40.7399 18.5499 41.3499 18.3699C41.7699 18.2399 42.2799 17.9899 42.4799 17.5099L46.9199 19.0399C47.1199 19.1099 47.3199 19.1699 47.5299 19.1499C47.7499 19.1299 48.0199 18.9799 48.0699 18.7099C48.1399 18.3299 47.7499 18.0599 47.6199 17.9699C46.3799 17.0899 45.0199 16.2999 43.5899 15.6199C43.6099 15.0099 43.4199 14.3899 43.0699 13.8999C42.6899 13.3799 42.1799 13.0299 41.5599 12.8799H41.5399C40.4399 12.4199 39.1299 12.5599 38.2099 13.2499C37.2399 13.9899 36.7899 15.2899 37.0999 16.4199C37.3899 17.4799 38.3499 18.2699 39.3999 18.3899ZM40.3899 18.2499H40.3999H40.4099C40.4099 18.2499 40.3899 18.2499 40.3799 18.2499H40.3899ZM40.4999 18.1299L40.7099 17.9199V17.9499L40.9399 18.1799C40.8299 18.1999 40.7099 18.2099 40.5999 18.2199L40.4999 18.1199V18.1299ZM42.2599 17.2999C42.2299 17.4199 42.1699 17.5199 42.0899 17.6199L41.9499 17.4799H41.9699L42.0199 17.4699L42.2599 17.2299L42.2899 17.2599L42.2599 17.2999ZM43.5899 17.3599L43.9799 17.7399C43.7999 17.6799 43.6099 17.6099 43.4099 17.5399L43.5999 17.3499L43.5899 17.3599ZM44.3299 17.6599L44.5399 17.8699L44.4899 17.9199C44.3899 17.8899 44.2899 17.8499 44.1799 17.8099L44.3299 17.6599ZM44.6399 17.9599H44.6499C44.6499 17.9599 44.6399 17.9599 44.6299 17.9599H44.6399ZM42.8199 17.3399L42.8899 17.2699L43.0399 17.4199C42.9699 17.3899 42.8899 17.3699 42.8199 17.3399ZM45.5099 18.2799C45.3899 18.2399 45.2599 18.1899 45.1199 18.1399L45.2899 17.9699V17.9899L45.5399 18.2399L45.5099 18.2699V18.2799ZM47.4999 18.8899C47.3899 18.8899 47.3099 18.8899 46.9599 18.7799L47.1999 18.5499L47.5299 18.8799C47.5299 18.8799 47.5099 18.8899 47.4999 18.8899ZM41.9499 13.3099C42.3099 13.4799 42.6099 13.7399 42.8599 14.0699C43.1999 14.5399 43.3599 15.1299 43.3199 15.6999L43.3999 15.8299C44.8499 16.5099 46.2199 17.3099 47.4699 18.1899C47.7199 18.3699 47.8299 18.5199 47.7999 18.6599C47.7899 18.7299 47.7299 18.7799 47.6599 18.8199V18.7999L47.2999 18.4399V18.3399H47.1999L47.1699 18.3099H47.0799V18.4099L47.1099 18.4399L46.8799 18.6699L46.4499 18.2399L46.5799 18.1099V18.0199H46.4799L46.3499 18.1499H46.2699V18.2299L46.1799 18.3199V18.4199H46.2699L46.3599 18.3299L46.6799 18.6599C46.4799 18.5899 46.2199 18.4999 45.8899 18.3899L45.7199 18.2199L45.9199 18.0199V17.9199H45.8299L45.6299 18.1199L45.3799 17.8699H45.3599L45.4299 17.7999V17.6999H45.3399L44.9799 18.0599C44.9799 18.0599 44.9599 18.0599 44.9399 18.0499L44.7299 17.8399L44.9699 17.5999V17.5099H44.8699L44.6299 17.7499L44.4199 17.5399V17.4499H44.3199L44.0999 17.6699L43.6799 17.2499L43.8999 17.0399V16.9399H43.7999L43.2799 17.4599L42.9899 17.1699L43.1299 17.0299V16.9299H43.0299L42.8899 17.0699L42.8199 16.9999H42.7199V17.0999L42.7899 17.1699L42.6699 17.2899C42.5899 17.2599 42.5099 17.2299 42.4199 17.1999L42.3499 17.1199L42.5199 16.9499V16.8599H42.4199L42.2499 17.0299L42.1899 16.9699H42.0899V17.0599L42.1499 17.1199L41.9099 17.3599V17.4399L41.8299 17.3599V17.3299H41.7999L41.7799 17.3099H41.6799V17.3799L41.3499 17.7099L41.2499 17.6099H41.1499V17.7099L41.2499 17.8099L41.0699 17.9899V18.0899H41.1599L41.3399 17.9099L41.4199 17.9899H41.5199V17.8899L41.4399 17.8099L41.7599 17.4899L41.9699 17.6999C41.7499 17.9099 41.4199 18.0499 41.0499 18.1399V18.1099L40.7799 17.8399H40.7499L40.9299 17.6599V17.5599H40.8299L40.3699 18.0199L40.3099 17.9599H40.2099V18.0599L40.2699 18.1199L40.1599 18.2299C40.0199 18.2299 39.8899 18.2199 39.7699 18.1999L39.6899 18.1299C39.6899 18.1299 39.6599 18.1299 39.6499 18.1299C39.8899 17.5899 40.3999 17.2099 40.9499 17.2099H40.9999L41.1399 17.0899L41.0299 16.9399C40.3599 16.8299 39.9499 16.3299 39.7999 15.9299C39.6799 15.5999 39.6999 15.2899 39.8599 15.0899C40.1299 14.7599 40.5299 14.5699 40.9599 14.5699C41.2299 14.5699 41.4899 14.6399 41.7199 14.7899L41.8999 14.7499C42.1799 14.3499 42.1599 13.7599 41.8999 13.2999L41.9499 13.3099ZM38.3799 13.4799C39.2299 12.8399 40.4399 12.7099 41.4599 13.1599C41.8299 13.4799 41.9699 14.0899 41.7699 14.4999C41.5299 14.3799 41.2599 14.3099 40.9899 14.3099C40.4799 14.3099 39.9999 14.5399 39.6799 14.9299C39.4599 15.1999 39.4199 15.6199 39.5799 16.0299C39.7399 16.4599 40.0699 16.8199 40.4799 17.0299C39.9999 17.1999 39.5999 17.6099 39.4099 18.1199C38.4799 17.9999 37.6199 17.2699 37.3599 16.3399C37.0799 15.3199 37.4899 14.1399 38.3799 13.4799Z" fill="white"/>
<path d="M49.1102 18.3801L46.8402 22.4901C46.7502 22.6601 46.6402 22.8501 46.6202 23.0701C46.6002 23.2901 46.7002 23.5801 46.9602 23.6801L47.1402 23.7101C47.4002 23.7101 47.6202 23.5101 47.7702 23.3701C48.8502 22.3001 49.8602 21.1001 50.7802 19.8001C51.3702 19.9201 52.0202 19.8501 52.5602 19.5801C53.1402 19.2901 53.5602 18.8501 53.8302 18.2701V18.2501C54.4802 17.2501 54.5702 15.9301 54.0402 14.9001C53.4902 13.8201 52.2902 13.1501 51.1202 13.2601C50.0202 13.3601 49.0702 14.1701 48.7702 15.1901L48.7302 15.2301C48.3002 16.2301 48.2702 17.8501 49.1102 18.3701V18.3801ZM47.2102 23.4201L47.6402 22.9901L47.7002 23.0501C47.7002 23.0501 47.6202 23.1501 47.5702 23.1901C47.4202 23.3301 47.3102 23.4001 47.2102 23.4201ZM48.1602 22.4501L48.2102 22.5001C48.0702 22.6501 47.9402 22.8001 47.8002 22.9501L47.7402 22.8901L48.1602 22.4701V22.4501ZM51.0302 19.5501L51.4202 19.1601L51.6502 19.3901L51.4502 19.5901C51.3102 19.5901 51.1702 19.5701 51.0302 19.5501ZM52.3502 19.2101V19.2801H52.4202H52.5002C52.2402 19.4201 51.9702 19.5101 51.6902 19.5501L51.7702 19.4701H51.8002V19.4401L52.1902 19.0501L52.3502 19.2101ZM52.5202 19.2701V19.2001L52.7302 18.9901L52.8302 19.0901C52.7302 19.1601 52.6202 19.2101 52.5202 19.2601V19.2701ZM51.1402 13.5401C52.2002 13.4401 53.2902 14.0501 53.7902 15.0401C54.2702 15.9901 54.1902 17.2001 53.5702 18.1301C53.1902 18.4501 52.5702 18.4901 52.1902 18.2101C52.6702 17.5801 52.6502 16.6801 52.1302 16.0701C51.6402 15.5001 50.5102 15.7201 49.9202 16.4901C49.8302 15.9901 49.5102 15.5301 49.0302 15.2501C49.3102 14.3501 50.1702 13.6301 51.1302 13.5301L51.1402 13.5401ZM48.8802 15.6301L48.9602 15.5701C48.9602 15.5701 48.9602 15.5401 48.9702 15.5301C49.4802 15.8701 49.7702 16.4601 49.6502 17.0101L49.7502 17.1701L49.9102 17.0801C50.2702 16.0701 51.5102 15.7601 51.9302 16.2401C52.4002 16.7801 52.3902 17.5901 51.9102 18.1301V18.3201C52.1402 18.5401 52.4602 18.6701 52.8302 18.6701C53.0102 18.6701 53.1802 18.6401 53.3402 18.5801C53.2302 18.7401 53.0802 18.8701 52.9402 18.9901L52.8402 18.8901L52.9302 18.8001V18.7001H52.8402L52.7502 18.7901L52.7202 18.7601H52.6302V18.8601L52.6602 18.8901L52.4602 19.0901L52.2902 18.9101V18.8801H52.2602L52.1902 18.8101H52.0902V18.9101L52.1302 18.9501L51.7802 19.3001L51.5502 19.0701L51.6302 18.9901V18.9001H51.5302L51.4502 18.9801L51.3202 18.8501H51.2202V18.9501L51.3502 19.0801L50.9702 19.4601L50.6202 19.1201L50.7602 18.9801V18.8801H50.6702L50.5002 19.0501H50.4602V19.0901L50.0902 19.4601V19.5601H50.1802L50.5202 19.2201L50.8602 19.5601C50.8602 19.5601 50.7902 19.5601 50.7602 19.5601L50.6202 19.6101C50.5202 19.7501 50.4102 19.8701 50.3102 20.0101L49.9902 19.6901H49.8902V19.7901L50.2202 20.1201C50.0502 20.3501 49.8702 20.5801 49.6902 20.8101L49.5802 20.7001L50.0502 20.2301V20.1401H49.9502L49.4802 20.6101L49.3802 20.5101H49.2802V20.6101L49.3802 20.7101L49.2202 20.8701V20.9701H49.3202L49.4802 20.8101L49.6002 20.9301C49.4202 21.1601 49.2402 21.4001 49.0502 21.6201L48.8802 21.4501L49.1302 21.2001V21.1001H49.0302L48.7802 21.3501L48.6502 21.2201H48.5502V21.3201L48.6802 21.4501L48.1002 22.0301L48.1902 22.1301L48.7702 21.5501L48.9502 21.7301C48.7302 21.9801 48.5002 22.2201 48.2802 22.4601L47.9402 22.1201H47.8402V22.2201L48.0602 22.4401H48.0502L47.6302 22.8601L47.4602 22.6901H47.3602V22.7901L47.5302 22.9601L47.0202 23.4701C46.9202 23.4101 46.8702 23.2801 46.8802 23.1601C46.8902 22.9901 46.9802 22.8301 47.0702 22.6901L49.4102 18.4601V18.3501L49.3502 18.2701C48.6702 17.9701 48.5602 16.7001 48.8802 15.7001V15.6301Z" fill="white"/>
<path d="M50.35 14.8099V14.9099H50.44L50.55 14.8099L50.61 14.8499V14.7599L50.6 14.7499L50.74 14.6099L50.97 14.8399L50.67 15.1399V15.2399H50.76L51.07 14.9399L51.26 15.1299H51.36V15.0399L51.16 14.8399L51.42 14.5799L51.68 14.8299L51.72 14.8499L51.77 14.8299V14.7399L51.52 14.4899L51.63 14.3799V14.2799H51.53L51.42 14.3899L51.24 14.2099H51.15V14.2999L51.33 14.4799L51.07 14.7499L50.84 14.5199L51.11 14.2499V14.1499H51.01L50.74 14.4199L50.6 14.2799H50.51V14.3799L50.65 14.5199L50.51 14.6599L50.33 14.4699H50.23V14.5699L50.44 14.7199L50.35 14.8099Z" fill="white"/>
<path d="M38.6299 14.2301L38.8899 14.4901H38.9899V14.4001L38.7299 14.1401L38.9099 13.9601L39.0499 14.1001L38.8899 14.2601L38.9899 14.3601L39.1499 14.2001L39.2599 14.3101H39.3499V14.2101L39.2399 14.1001L39.4599 13.8801L39.6999 14.1201H39.7999V14.0201L39.5599 13.7801L39.6699 13.6701V13.5701H39.5699L39.4599 13.6801L39.3199 13.5401L39.3899 13.4701V13.3701H39.2899L39.1899 13.4701H39.1399V13.5201L38.8999 13.7601L38.7599 13.6201H38.6599V13.7201L38.7999 13.8601L38.6199 14.0401L38.3399 13.7601H38.2399V13.8501L38.5199 14.1301L38.1299 14.5201V14.6201H38.2299L38.6199 14.2301H38.6299ZM39.2099 13.6401L39.3499 13.7801L39.1299 14.0001L38.9899 13.8601L39.2099 13.6401Z" fill="white"/>
<path d="M55.0601 23.21C55.4401 23.27 55.7001 22.86 55.7801 22.73C56.6001 21.45 57.3201 20.06 57.9301 18.59C58.5401 18.59 59.1501 18.37 59.6201 17.99C60.1201 17.59 60.4401 17.06 60.5701 16.43V16.41C60.9801 15.29 60.7801 13.99 60.0401 13.1C59.2701 12.17 57.9501 11.77 56.8301 12.14C55.7801 12.48 55.0401 13.48 54.9701 14.54L54.9301 14.59C54.8201 15.22 54.8701 15.88 55.0801 16.48C55.2301 16.89 55.5001 17.39 55.9901 17.56L54.6701 22.07C54.6101 22.28 54.5501 22.48 54.5901 22.69C54.6201 22.91 54.7801 23.17 55.0501 23.21H55.0601ZM55.1901 22.34L54.8801 22.68C54.8801 22.68 54.8701 22.66 54.8701 22.65C54.8601 22.54 54.8601 22.46 54.9601 22.11L55.2001 22.34H55.1901ZM56.9101 12.39C57.9201 12.06 59.1201 12.42 59.8201 13.27C60.5001 14.09 60.6801 15.29 60.2901 16.33C59.9901 16.73 59.3801 16.89 58.9601 16.71C59.0701 16.46 59.1301 16.19 59.1101 15.92C59.0801 15.41 58.8301 14.94 58.4301 14.64C58.1501 14.43 57.7301 14.41 57.3201 14.59C56.9001 14.77 56.5601 15.12 56.3601 15.54C56.1701 15.07 55.7401 14.69 55.2201 14.53C55.2901 13.59 55.9801 12.69 56.9001 12.39H56.9101ZM55.1601 15.55C55.1601 15.55 55.1601 15.53 55.1601 15.52H55.1701L55.1601 15.55ZM55.2801 15.62L55.5001 15.82H55.4701L55.2501 16.06C55.2201 15.95 55.2001 15.84 55.1901 15.72L55.2801 15.62ZM55.2801 16.19H55.3101L55.5601 15.91V15.88L55.7501 16.05H55.8501V15.95L55.3701 15.51L55.4301 15.44V15.35H55.3301L55.2701 15.42L55.1601 15.32C55.1601 15.18 55.1601 15.05 55.1701 14.92L55.2401 14.84C55.2401 14.84 55.2401 14.81 55.2401 14.8C55.7901 15.01 56.2001 15.51 56.2301 16.06V16.1L56.3601 16.23L56.5001 16.11C56.5801 15.43 57.0601 15 57.4501 14.83C57.7701 14.69 58.0901 14.7 58.2901 14.85C58.6301 15.1 58.8401 15.5 58.8601 15.93C58.8701 16.2 58.8101 16.47 58.6801 16.7L58.7301 16.88C59.1401 17.14 59.7401 17.09 60.1801 16.82C60.0301 17.19 59.7901 17.51 59.4601 17.76C59.0101 18.12 58.4301 18.32 57.8501 18.3L57.7201 18.38C57.1101 19.86 56.3801 21.27 55.5601 22.56C55.3901 22.82 55.2501 22.94 55.1101 22.92C55.0401 22.91 54.9801 22.85 54.9401 22.79H54.9601L55.3001 22.41H55.4001V22.31H55.3901L55.4201 22.28V22.18H55.3201L55.2901 22.22L55.0501 22L55.4501 21.55L55.5801 21.67H55.6801V21.57L55.5401 21.44V21.36H55.4601L55.3601 21.27H55.2601V21.37L55.3501 21.45L55.0401 21.79C55.1001 21.59 55.1701 21.33 55.2701 20.99L55.4301 20.82L55.6301 21H55.7301V20.9L55.5201 20.71L55.7601 20.44V20.42L55.8301 20.48H55.9301V20.38L55.5601 20.04C55.5601 20.04 55.5601 20.02 55.5701 20L55.7701 19.78L56.0201 20.01H56.1201V19.91L55.8701 19.68L56.0701 19.46H56.1601V19.36L55.9301 19.15L56.3301 18.71L56.5601 18.92H56.6601V18.82L56.1201 18.33L56.4001 18.03L56.5401 18.16H56.6301V18.06L56.4901 17.93L56.5601 17.85V17.75H56.4601L56.3901 17.83L56.2701 17.72C56.2901 17.63 56.3201 17.56 56.3401 17.47L56.4101 17.38L56.5901 17.54H56.6901V17.44L56.5101 17.28L56.5601 17.22V17.12H56.4601L56.4101 17.18L56.1601 16.95H56.0801L56.1501 16.87H56.1801V16.84L56.2001 16.82V16.72H56.1301L55.7901 16.41L55.8801 16.31V16.22H55.7801L55.6901 16.32L55.5001 16.15H55.4001V16.25L55.5901 16.42L55.5101 16.51V16.61H55.6101L55.6901 16.52L56.0201 16.82L55.8201 17.04C55.6001 16.83 55.4401 16.51 55.3401 16.15L55.2801 16.19ZM55.4901 20.23L55.6601 20.39H55.6401L55.4001 20.66L55.3701 20.63C55.4101 20.51 55.4501 20.38 55.4901 20.23ZM55.6401 19.74V19.75C55.6401 19.75 55.6401 19.75 55.6401 19.74ZM56.1801 17.9L56.2601 17.97L56.1201 18.13C56.1401 18.06 56.1601 17.98 56.1901 17.91L56.1801 17.9ZM56.0101 18.49L56.2001 18.67L55.8401 19.07C55.8901 18.89 55.9501 18.7 56.0101 18.5V18.49ZM55.7801 19.27L55.9401 19.41L55.7401 19.63L55.6901 19.58C55.7201 19.48 55.7501 19.37 55.7801 19.26V19.27ZM55.8601 17.18L55.9901 17.04L56.0101 17.1L56.2601 17.33L56.2301 17.37L56.1901 17.34C56.0701 17.32 55.9601 17.26 55.8601 17.19V17.18Z" fill="white"/>
<path d="M58.6 23.74L58.56 23.7C57.54 23.32 55.92 23.36 55.45 24.24L51.24 22.17C51.07 22.08 50.87 21.99 50.65 21.98C50.43 21.98 50.15 22.08 50.06 22.34L50.04 22.52C50.05 22.78 50.26 22.99 50.41 23.13C51.53 24.15 52.78 25.11 54.12 25.96C54.02 26.56 54.13 27.2 54.42 27.73C54.73 28.3 55.19 28.7 55.79 28.93H55.81C56.85 29.53 58.16 29.56 59.16 28.98C60.21 28.38 60.83 27.15 60.66 25.99C60.5 24.9 59.65 23.99 58.62 23.74H58.6ZM50.32 22.57L50.77 22.98L50.72 23.04C50.72 23.04 50.62 22.97 50.57 22.92C50.42 22.78 50.35 22.67 50.32 22.57ZM50.87 23.07L51.31 23.47H51.32L51.28 23.52C51.13 23.39 50.96 23.26 50.81 23.13L50.86 23.07H50.87ZM54.72 27.68H54.79L55.01 27.87L54.91 27.98C54.83 27.89 54.78 27.78 54.72 27.68ZM54.78 27.51H54.71V27.58V27.66C54.56 27.41 54.46 27.15 54.4 26.87L54.48 26.94L54.5 26.97H54.52L54.93 27.34L54.78 27.51ZM54.35 26.63C54.34 26.49 54.35 26.35 54.37 26.21L54.77 26.58L54.55 26.82L54.35 26.63ZM55.01 28.08L55.11 27.97L55.21 28.06H55.3V27.96L55.2 27.87L55.23 27.83V27.73H55.13L55.1 27.77L54.89 27.58L55.06 27.4H55.09V27.37L55.15 27.3V27.2H55.05L55.02 27.24L54.65 26.91L54.87 26.67L54.96 26.75H55.06V26.65L54.97 26.57L55.09 26.44V26.34H54.99L54.87 26.47L54.48 26.11L54.81 25.75L54.95 25.88H55.05V25.78L54.88 25.62V25.59H54.84L54.45 25.24H54.35V25.34L54.71 25.66L54.39 26.01C54.39 26.01 54.39 25.94 54.39 25.91L54.33 25.77C54.19 25.68 54.06 25.58 53.92 25.48L54.22 25.14V25.04H54.12L53.8 25.39C53.56 25.23 53.33 25.06 53.09 24.9L53.2 24.78L53.7 25.23H53.8V25.13L53.3 24.68L53.39 24.58V24.48H53.29L53.2 24.58L53.03 24.43H52.93V24.53L53.09 24.68L52.97 24.81C52.73 24.64 52.48 24.48 52.25 24.3L52.41 24.12L52.68 24.36H52.78V24.26L52.51 24.02L52.64 23.88V23.78H52.54L52.41 23.92L51.81 23.37L51.72 23.47L52.32 24.02L52.15 24.21C51.89 24.01 51.64 23.79 51.39 23.58L51.71 23.22V23.12H51.61L51.4 23.35L50.96 22.93L51.12 22.75V22.65H51.02L50.86 22.83L50.32 22.34C50.38 22.24 50.51 22.19 50.62 22.19C50.79 22.19 50.95 22.28 51.1 22.35L55.44 24.48H55.55L55.63 24.41C55.89 23.72 57.16 23.55 58.17 23.81L58.24 23.89C58.24 23.89 58.27 23.89 58.28 23.89C57.97 24.42 57.39 24.73 56.83 24.64L56.68 24.74L56.77 24.9C57.8 25.21 58.17 26.43 57.7 26.88C57.18 27.37 56.37 27.4 55.82 26.95L55.63 26.97C55.42 27.21 55.31 27.54 55.33 27.9C55.33 28.08 55.38 28.25 55.44 28.41C55.27 28.3 55.14 28.17 55.01 28.02V28.08ZM59.01 28.74C58.08 29.27 56.87 29.25 55.91 28.67C55.58 28.31 55.51 27.7 55.77 27.3C56.42 27.75 57.32 27.69 57.9 27.13C58.44 26.61 58.18 25.49 57.37 24.94C57.86 24.83 58.31 24.48 58.56 23.99C59.47 24.22 60.24 25.05 60.38 26.01C60.54 27.06 59.97 28.18 59.02 28.73L59.01 28.74Z" fill="white"/>
<path d="M59.3899 25.7699L59.6699 26.0299L59.7699 26.0199L59.7599 25.9199L59.4799 25.6699L59.6099 25.5199L59.5999 25.4299H59.5099L59.3799 25.5799L59.2299 25.4399L59.4099 25.2599L59.3999 25.1599H59.2999L59.1599 25.3799L59.0699 25.2899L58.9699 25.2999V25.3899L59.0799 25.4899L59.0399 25.5499H59.1399L59.2899 25.6799L59.0699 25.9199L58.7499 25.6299H58.6499L58.6599 25.7299L58.9799 26.0199L58.7899 26.2199V26.3199H58.8899L59.0799 26.1099L59.3499 26.3599L59.1099 26.6199L59.0899 26.6699L59.1199 26.7199L59.2099 26.7099L59.4499 26.4499L59.5599 26.5499H59.6599V26.4499L59.5399 26.3499L59.7099 26.1599V26.0599L59.6099 26.0699L59.4399 26.2599L59.1699 26.0099L59.3899 25.7699Z" fill="white"/>
<path d="M59.0902 13.5601L58.8402 13.8301V13.9301H58.9402L59.1902 13.6501L59.3702 13.8201L59.2302 13.9701L59.0602 13.8201L58.9702 13.9201L59.1402 14.0701L59.0402 14.1801V14.2701H59.1402L59.2402 14.1601L59.4702 14.3701L59.2402 14.6201V14.7201H59.3402L59.5702 14.4701L59.6802 14.5701H59.7802V14.4701L59.6702 14.3701L59.8102 14.2201L59.8902 14.2901H59.9902V14.1901L59.8902 14.1001V14.0501H59.8402L59.5902 13.8201L59.7302 13.6701V13.5701H59.6302L59.4902 13.7201L59.3102 13.5501L59.5702 13.2601V13.1601H59.4702L59.2102 13.4501L58.8002 13.0801H58.7002V13.1801L59.1102 13.5501L59.0902 13.5601ZM59.7002 14.1101L59.5602 14.2601L59.3302 14.0501L59.4702 13.9001L59.7002 14.1101Z" fill="white"/>
<path d="M52.6801 27.0799L52.6401 27.0299C52.0901 26.6999 51.4501 26.5099 50.8201 26.4999C50.3801 26.4899 49.8201 26.5699 49.4801 26.9699L45.7301 24.1399C45.5601 24.0099 45.3901 23.8899 45.1801 23.8399C44.9601 23.7899 44.6701 23.8399 44.5301 24.0899C44.3401 24.4199 44.6301 24.8099 44.7201 24.9299C45.6301 26.1499 46.6701 27.3199 47.8301 28.4099C47.6201 28.9799 47.6101 29.6299 47.8001 30.1999C48.0001 30.8099 48.3701 31.2999 48.9201 31.6399H48.9401C49.8401 32.4299 51.1301 32.6999 52.2201 32.3299C53.3701 31.9399 54.2001 30.8399 54.2601 29.6699C54.3101 28.5699 53.6501 27.5199 52.6801 27.0799ZM51.6601 26.9099C51.6601 26.9099 51.6801 26.9099 51.6901 26.9099H51.6701H51.6601ZM51.5501 26.9899L51.2901 27.1199V27.0899L51.1501 26.7999C51.2601 26.8199 51.3801 26.8399 51.4901 26.8599L51.5501 26.9799V26.9899ZM49.8801 26.9799L49.9701 27.1499H49.9601H49.9101L49.6001 27.3099L49.5801 27.2699L49.6201 27.2399C49.6801 27.1399 49.7801 27.0599 49.8801 26.9899V26.9799ZM48.3801 26.7699L48.1301 26.2899C48.2801 26.3999 48.4401 26.5299 48.6101 26.6499L48.3801 26.7699ZM47.7701 26.2599L47.6401 25.9899L47.7101 25.9599C47.7901 26.0199 47.8801 26.0899 47.9701 26.1599L47.7801 26.2599H47.7701ZM47.5701 25.8699C47.5701 25.8699 47.5701 25.8699 47.5801 25.8699H47.5701ZM49.1001 27.0199L49.0101 27.0699L48.9101 26.8799C48.9701 26.9299 49.0401 26.9799 49.1001 27.0199ZM46.8301 25.2999C46.9301 25.3799 47.0401 25.4599 47.1601 25.5499L46.9501 25.6599V25.6399L46.7901 25.3199L46.8301 25.2999ZM45.6001 24.3799L45.3001 24.5199L45.0901 24.1099C45.0901 24.1099 45.1101 24.1099 45.1201 24.1099C45.2301 24.1399 45.3001 24.1699 45.6001 24.3799ZM48.0601 30.1199C47.8801 29.5699 47.9101 28.9599 48.1201 28.4199L48.0901 28.2699C46.9201 27.1699 45.8601 25.9899 44.9501 24.7599C44.7701 24.5099 44.7101 24.3299 44.7801 24.2099C44.8201 24.1499 44.8801 24.1199 44.9601 24.0999V24.1199L45.1901 24.5699L45.1601 24.6599L45.2501 24.6899L45.2701 24.7299L45.3601 24.7599L45.3901 24.6699L45.3701 24.6299L45.6701 24.4799L45.9401 25.0099L45.7801 25.0899L45.7501 25.1799L45.8401 25.2099L46.0101 25.1199L46.0901 25.1499L46.1201 25.0699L46.2301 25.0099L46.2601 24.9199L46.1701 24.8899L46.0601 24.9399L45.8501 24.5299C46.0201 24.6499 46.2401 24.8199 46.5101 25.0299L46.6201 25.2399L46.3701 25.3699L46.3401 25.4599L46.4301 25.4899L46.6801 25.3599L46.8401 25.6799H46.8601L46.7801 25.7299L46.7501 25.8199L46.8401 25.8499L47.2901 25.6199C47.2901 25.6199 47.3101 25.6399 47.3201 25.6399L47.4501 25.8999L47.1401 26.0599L47.1101 26.1499L47.2001 26.1799L47.5101 26.0199L47.6501 26.2899L47.6201 26.3799L47.7101 26.4099L47.9801 26.2699L48.2501 26.8099L47.9801 26.9499L47.9501 27.0399L48.0401 27.0699L48.6901 26.7399L48.8801 27.1099L48.7101 27.1999L48.6801 27.2899L48.7701 27.3199L48.9401 27.2299L48.9901 27.3199L49.0801 27.3499L49.1101 27.2599L49.0601 27.1699L49.2101 27.0899C49.2801 27.1399 49.3401 27.1899 49.4201 27.2499L49.4701 27.3499L49.2601 27.4599L49.2301 27.5499L49.3201 27.5799L49.5301 27.4699L49.5701 27.5399L49.6601 27.5699L49.6901 27.4799L49.6501 27.4099L49.9501 27.2499L49.9701 27.1799L50.0201 27.2699V27.2999H50.0401V27.3299L50.1401 27.3599L50.1601 27.2899L50.5701 27.0799L50.6301 27.1999L50.7201 27.2299L50.7501 27.1399L50.6901 27.0199L50.9101 26.9099L50.9401 26.8199L50.8501 26.7899L50.6301 26.8999L50.5801 26.7999L50.4901 26.7699L50.4601 26.8599L50.5101 26.9599L50.1101 27.1599L49.9701 26.8899C50.2401 26.7599 50.6001 26.7199 50.9801 26.7599V26.7899L51.1401 27.1199H51.1701L50.9401 27.2499L50.9101 27.3399L51.0001 27.3699L51.5801 27.0799L51.6201 27.1599L51.7101 27.1899L51.7401 27.0999L51.7001 27.0199L51.8401 26.9499C51.9701 26.9899 52.0901 27.0399 52.2001 27.0999L52.2501 27.1899C52.2501 27.1899 52.2801 27.1999 52.2901 27.2099C51.9001 27.6499 51.2901 27.8599 50.7701 27.6899H50.7301V27.6799L50.5701 27.7599L50.6301 27.9299C51.2301 28.2499 51.4701 28.8499 51.4901 29.2699C51.5101 29.6199 51.3901 29.9099 51.1701 30.0499C50.8101 30.2799 50.3701 30.3399 49.9601 30.1999C49.7101 30.1199 49.4801 29.9599 49.3101 29.7599L49.1201 29.7399C48.7301 30.0299 48.5601 30.5999 48.6601 31.1099C48.3701 30.8399 48.1601 30.4999 48.0301 30.1099L48.0601 30.1199ZM52.1301 32.0699C51.1201 32.4099 49.9301 32.1599 49.1001 31.4199C48.8501 30.9999 48.9001 30.3799 49.2201 30.0399C49.4101 30.2299 49.6401 30.3799 49.9001 30.4599C50.3901 30.6199 50.9101 30.5499 51.3401 30.2799C51.6401 30.0899 51.8001 29.7099 51.7801 29.2599C51.7601 28.7999 51.5501 28.3599 51.2301 28.0299C51.7401 28.0099 52.2401 27.7499 52.5801 27.3299C53.4301 27.7299 54.0301 28.6899 53.9801 29.6599C53.9301 30.7199 53.1701 31.7099 52.1301 32.0699Z" fill="white"/>
<path d="M46.8702 20.88C47.0102 20.75 47.1702 20.6 47.2602 20.39C47.3502 20.18 47.3402 19.88 47.1302 19.71L46.9702 19.62C46.7302 19.54 46.4502 19.66 46.2602 19.75C44.9002 20.43 43.5702 21.26 42.3002 22.21C41.7802 21.91 41.1402 21.78 40.5402 21.87C39.9002 21.96 39.3602 22.25 38.9302 22.72V22.74C37.9902 23.49 37.5102 24.71 37.6902 25.85C37.8802 27.05 38.8102 28.06 39.9602 28.31C41.0402 28.55 42.1902 28.08 42.7902 27.2L42.8402 27.17C43.5602 26.35 44.0902 24.83 43.4502 24.07L46.8802 20.87L46.8702 20.88ZM46.3902 20C46.5702 19.91 46.7002 19.88 46.8102 19.89L46.2702 20.16L46.2302 20.09C46.2902 20.06 46.3402 20.02 46.4002 19.99L46.3902 20ZM45.6102 20.51L45.5802 20.45C45.7602 20.35 45.9302 20.24 46.1102 20.15L46.1502 20.22L45.6202 20.49L45.6102 20.51ZM41.9702 22.38L41.4802 22.63L41.3302 22.34L41.5802 22.21C41.7202 22.25 41.8402 22.32 41.9702 22.38ZM41.3502 22.18L41.2502 22.23H41.2102V22.25L40.7202 22.5L40.6202 22.3L40.6402 22.24L40.5802 22.22L40.5002 22.19C40.7902 22.14 41.0702 22.13 41.3602 22.19L41.3502 22.18ZM40.1902 22.39L40.1202 22.26C40.2302 22.22 40.3502 22.21 40.4702 22.19L40.4502 22.26L40.1902 22.39ZM40.0102 28.06C38.9702 27.83 38.1302 26.91 37.9502 25.82C37.7802 24.77 38.2402 23.64 39.1102 22.95C39.5602 22.76 40.1602 22.92 40.4402 23.3C39.7802 23.75 39.5202 24.61 39.8402 25.35C40.1302 26.04 41.2702 26.19 42.0702 25.63C42.0002 26.13 42.1702 26.67 42.5302 27.08C41.9902 27.85 40.9402 28.27 40.0002 28.06H40.0102ZM42.8102 26.77L42.7202 26.8C42.7202 26.8 42.7002 26.82 42.7002 26.84C42.3202 26.36 42.2302 25.71 42.5102 25.22L42.4702 25.04L42.2902 25.07C41.6402 25.92 40.3602 25.83 40.1102 25.24C39.8302 24.58 40.0902 23.81 40.7102 23.45L40.7602 23.27C40.6102 22.99 40.3402 22.77 40.0002 22.66C39.8302 22.6 39.6602 22.58 39.4802 22.58C39.6402 22.46 39.8202 22.38 39.9902 22.31L40.0602 22.44L39.9402 22.5L39.9102 22.59L40.0002 22.62L40.1202 22.56L40.1402 22.6L40.2302 22.63L40.2602 22.54L40.2402 22.5L40.4902 22.37L40.6002 22.59V22.62L40.6202 22.63L40.6602 22.72L40.7502 22.75L40.7802 22.66L40.7602 22.62L41.2002 22.4L41.3502 22.69L41.2502 22.74L41.2202 22.83L41.3102 22.86L41.4102 22.81L41.4902 22.97L41.5802 23L41.6102 22.91L41.5302 22.75L42.0002 22.51L42.2202 22.95L42.0502 23.04L42.0202 23.13L42.1102 23.16L42.3202 23.05H42.3502L42.3602 23.03L42.8302 22.79L42.8602 22.7L42.7702 22.67L42.3402 22.89L42.1202 22.46C42.1202 22.46 42.1902 22.48 42.2202 22.5H42.3702C42.5102 22.39 42.6502 22.31 42.7902 22.21L43.0002 22.62L43.0902 22.65L43.1202 22.56L42.9102 22.14C43.1502 21.97 43.3802 21.81 43.6202 21.65L43.6902 21.79L43.0902 22.09L43.0602 22.18L43.1502 22.21L43.7502 21.91L43.8102 22.03L43.9002 22.06L43.9302 21.97L43.8702 21.85L44.0702 21.75L44.1002 21.66L44.0102 21.63L43.8102 21.73L43.7302 21.57C43.9702 21.41 44.2102 21.24 44.4602 21.08L44.5702 21.3L44.2502 21.46L44.2202 21.55L44.3102 21.58L44.6302 21.42L44.7202 21.59L44.8102 21.62L44.8402 21.53L44.7502 21.36L45.4802 20.99L45.4202 20.87L44.6902 21.24L44.5802 21.02C44.8702 20.85 45.1602 20.69 45.4402 20.53L45.6602 20.96L45.7502 20.99L45.7802 20.9L45.6402 20.62H45.6602L46.1902 20.35L46.3002 20.56L46.3902 20.59L46.4202 20.5L46.3102 20.28L46.9602 19.95C47.0302 20.04 47.0402 20.18 47.0002 20.28C46.9402 20.43 46.8002 20.56 46.6802 20.67L43.1502 23.97L43.1102 24.07L43.1602 24.17C43.7102 24.66 43.4202 25.91 42.8102 26.76V26.77Z" fill="white"/>
<path d="M41.1598 27.09L41.1898 27L41.0998 26.97L41.0098 27.02C41.0098 27.02 40.9498 26.97 40.9298 26.98L40.8998 27.07L40.7298 27.16L40.5798 26.87L40.9598 26.68L40.9898 26.59L40.8998 26.56L40.5198 26.75L40.3898 26.5L40.2998 26.47L40.2698 26.56L40.3998 26.81L40.0698 26.98L39.9098 26.66L39.8698 26.63H39.8198L39.7898 26.72L39.9498 27.04L39.8098 27.11L39.7798 27.2L39.8698 27.23L40.0098 27.16L40.1298 27.39L40.2198 27.42L40.2498 27.33L40.1298 27.1L40.4598 26.93L40.6098 27.22L40.2698 27.39L40.2398 27.48L40.3298 27.51L40.6698 27.34L40.7598 27.51L40.8498 27.54L40.8798 27.45L40.7898 27.28L40.9598 27.19L41.0798 27.42L41.1698 27.45L41.1998 27.36C41.1998 27.36 41.1298 27.22 41.0898 27.13L41.1698 27.09H41.1598Z" fill="white"/>
</g>
<defs>
<clipPath id="clip0_22_704">
<path d="M37 12H60.77V20.615C60.77 27.1789 55.4489 32.5 48.885 32.5C42.3211 32.5 37 27.1789 37 20.615V12Z" fill="white"/>
</clipPath>
</defs>
</svg>
