<svg width="98" height="69" viewBox="0 0 98 69" fill="none" xmlns="http://www.w3.org/2000/svg">
<path d="M29.1657 55.6548H28.0257L24.5957 50.4648V55.6548H23.4557V48.6948H24.5957L28.0257 53.8748V48.6948H29.1657V55.6548ZM35.6527 50.1448V55.6548H34.5127V55.0048C34.3327 55.2315 34.0961 55.4115 33.8027 55.5448C33.5161 55.6715 33.2094 55.7348 32.8827 55.7348C32.4494 55.7348 32.0594 55.6448 31.7127 55.4648C31.3727 55.2848 31.1027 55.0181 30.9027 54.6648C30.7094 54.3115 30.6127 53.8848 30.6127 53.3848V50.1448H31.7427V53.2148C31.7427 53.7081 31.8661 54.0881 32.1127 54.3548C32.3594 54.6148 32.6961 54.7448 33.1227 54.7448C33.5494 54.7448 33.8861 54.6148 34.1327 54.3548C34.3861 54.0881 34.5127 53.7081 34.5127 53.2148V50.1448H35.6527ZM38.4869 51.0748V54.1248C38.4869 54.3315 38.5335 54.4815 38.6269 54.5748C38.7269 54.6615 38.8935 54.7048 39.1269 54.7048H39.8269V55.6548H38.9269C38.4135 55.6548 38.0202 55.5348 37.7469 55.2948C37.4735 55.0548 37.3369 54.6648 37.3369 54.1248V51.0748H36.6869V50.1448H37.3369V48.7748H38.4869V50.1448H39.8269V51.0748H38.4869ZM42.0176 50.9448C42.1842 50.6648 42.4042 50.4481 42.6776 50.2948C42.9576 50.1348 43.2876 50.0548 43.6676 50.0548V51.2348H43.3776C42.9309 51.2348 42.5909 51.3481 42.3576 51.5748C42.1309 51.8015 42.0176 52.1948 42.0176 52.7548V55.6548H40.8776V50.1448H42.0176V50.9448ZM45.2955 49.4148C45.0888 49.4148 44.9155 49.3448 44.7755 49.2048C44.6355 49.0648 44.5655 48.8915 44.5655 48.6848C44.5655 48.4781 44.6355 48.3048 44.7755 48.1648C44.9155 48.0248 45.0888 47.9548 45.2955 47.9548C45.4955 47.9548 45.6655 48.0248 45.8055 48.1648C45.9455 48.3048 46.0155 48.4781 46.0155 48.6848C46.0155 48.8915 45.9455 49.0648 45.8055 49.2048C45.6655 49.3448 45.4955 49.4148 45.2955 49.4148ZM45.8555 50.1448V55.6548H44.7155V50.1448H45.8555ZM48.6822 51.0748V54.1248C48.6822 54.3315 48.7288 54.4815 48.8222 54.5748C48.9222 54.6615 49.0888 54.7048 49.3222 54.7048H50.0222V55.6548H49.1222C48.6088 55.6548 48.2155 55.5348 47.9422 55.2948C47.6688 55.0548 47.5322 54.6648 47.5322 54.1248V51.0748H46.8822V50.1448H47.5322V48.7748H48.6822V50.1448H50.0222V51.0748H48.6822ZM51.6529 49.4148C51.4462 49.4148 51.2729 49.3448 51.1329 49.2048C50.9929 49.0648 50.9229 48.8915 50.9229 48.6848C50.9229 48.4781 50.9929 48.3048 51.1329 48.1648C51.2729 48.0248 51.4462 47.9548 51.6529 47.9548C51.8529 47.9548 52.0229 48.0248 52.1629 48.1648C52.3029 48.3048 52.3729 48.4781 52.3729 48.6848C52.3729 48.8915 52.3029 49.0648 52.1629 49.2048C52.0229 49.3448 51.8529 49.4148 51.6529 49.4148ZM52.2129 50.1448V55.6548H51.0729V50.1448H52.2129ZM56.0996 55.7448C55.5796 55.7448 55.1096 55.6281 54.6896 55.3948C54.2696 55.1548 53.9396 54.8215 53.6996 54.3948C53.4596 53.9615 53.3396 53.4615 53.3396 52.8948C53.3396 52.3348 53.4629 51.8381 53.7096 51.4048C53.9563 50.9715 54.2929 50.6381 54.7196 50.4048C55.1463 50.1715 55.6229 50.0548 56.1496 50.0548C56.6763 50.0548 57.1529 50.1715 57.5796 50.4048C58.0063 50.6381 58.3429 50.9715 58.5896 51.4048C58.8363 51.8381 58.9596 52.3348 58.9596 52.8948C58.9596 53.4548 58.8329 53.9515 58.5796 54.3848C58.3263 54.8181 57.9796 55.1548 57.5396 55.3948C57.1063 55.6281 56.6263 55.7448 56.0996 55.7448ZM56.0996 54.7548C56.3929 54.7548 56.6663 54.6848 56.9196 54.5448C57.1796 54.4048 57.3896 54.1948 57.5496 53.9148C57.7096 53.6348 57.7896 53.2948 57.7896 52.8948C57.7896 52.4948 57.7129 52.1581 57.5596 51.8848C57.4063 51.6048 57.2029 51.3948 56.9496 51.2548C56.6963 51.1148 56.4229 51.0448 56.1296 51.0448C55.8363 51.0448 55.5629 51.1148 55.3096 51.2548C55.0629 51.3948 54.8663 51.6048 54.7196 51.8848C54.5729 52.1581 54.4996 52.4948 54.4996 52.8948C54.4996 53.4881 54.6496 53.9481 54.9496 54.2748C55.2563 54.5948 55.6396 54.7548 56.0996 54.7548ZM62.8665 50.0548C63.2999 50.0548 63.6865 50.1448 64.0265 50.3248C64.3732 50.5048 64.6432 50.7715 64.8365 51.1248C65.0299 51.4781 65.1265 51.9048 65.1265 52.4048V55.6548H63.9965V52.5748C63.9965 52.0815 63.8732 51.7048 63.6265 51.4448C63.3799 51.1781 63.0432 51.0448 62.6165 51.0448C62.1899 51.0448 61.8499 51.1781 61.5965 51.4448C61.3499 51.7048 61.2265 52.0815 61.2265 52.5748V55.6548H60.0865V50.1448H61.2265V50.7748C61.4132 50.5481 61.6499 50.3715 61.9365 50.2448C62.2299 50.1181 62.5399 50.0548 62.8665 50.0548ZM66.2007 52.8748C66.2007 52.3215 66.314 51.8315 66.5407 51.4048C66.774 50.9781 67.0874 50.6481 67.4807 50.4148C67.8807 50.1748 68.3207 50.0548 68.8007 50.0548C69.234 50.0548 69.6107 50.1415 69.9307 50.3148C70.2574 50.4815 70.5174 50.6915 70.7107 50.9448V50.1448H71.8607V55.6548H70.7107V54.8348C70.5174 55.0948 70.254 55.3115 69.9207 55.4848C69.5874 55.6581 69.2074 55.7448 68.7807 55.7448C68.3074 55.7448 67.874 55.6248 67.4807 55.3848C67.0874 55.1381 66.774 54.7981 66.5407 54.3648C66.314 53.9248 66.2007 53.4281 66.2007 52.8748ZM70.7107 52.8948C70.7107 52.5148 70.6307 52.1848 70.4707 51.9048C70.3174 51.6248 70.114 51.4115 69.8607 51.2648C69.6074 51.1181 69.334 51.0448 69.0407 51.0448C68.7474 51.0448 68.474 51.1181 68.2207 51.2648C67.9674 51.4048 67.7607 51.6148 67.6007 51.8948C67.4474 52.1681 67.3707 52.4948 67.3707 52.8748C67.3707 53.2548 67.4474 53.5881 67.6007 53.8748C67.7607 54.1615 67.9674 54.3815 68.2207 54.5348C68.4807 54.6815 68.754 54.7548 69.0407 54.7548C69.334 54.7548 69.6074 54.6815 69.8607 54.5348C70.114 54.3881 70.3174 54.1748 70.4707 53.8948C70.6307 53.6081 70.7107 53.2748 70.7107 52.8948ZM74.498 48.2548V55.6548H73.358V48.2548H74.498ZM32.3391 62.7748C32.3391 63.1281 32.2558 63.4615 32.0891 63.7748C31.9225 64.0881 31.6558 64.3448 31.2891 64.5448C30.9225 64.7381 30.4525 64.8348 29.8791 64.8348H28.6191V67.6548H27.4791V60.7048H29.8791C30.4125 60.7048 30.8625 60.7981 31.2291 60.9848C31.6025 61.1648 31.8791 61.4115 32.0591 61.7248C32.2458 62.0381 32.3391 62.3881 32.3391 62.7748ZM29.8791 63.9048C30.3125 63.9048 30.6358 63.8081 30.8491 63.6148C31.0625 63.4148 31.1691 63.1348 31.1691 62.7748C31.1691 62.0148 30.7391 61.6348 29.8791 61.6348H28.6191V63.9048H29.8791ZM34.5664 62.9448C34.7331 62.6648 34.9531 62.4481 35.2264 62.2948C35.5064 62.1348 35.8364 62.0548 36.2164 62.0548V63.2348H35.9264C35.4797 63.2348 35.1397 63.3481 34.9064 63.5748C34.6797 63.8015 34.5664 64.1948 34.5664 64.7548V67.6548H33.4264V62.1448H34.5664V62.9448ZM39.6543 67.7448C39.1343 67.7448 38.6643 67.6281 38.2443 67.3948C37.8243 67.1548 37.4943 66.8215 37.2543 66.3948C37.0143 65.9615 36.8943 65.4615 36.8943 64.8948C36.8943 64.3348 37.0176 63.8381 37.2643 63.4048C37.5109 62.9715 37.8476 62.6381 38.2743 62.4048C38.7009 62.1715 39.1776 62.0548 39.7043 62.0548C40.2309 62.0548 40.7076 62.1715 41.1343 62.4048C41.5609 62.6381 41.8976 62.9715 42.1443 63.4048C42.3909 63.8381 42.5143 64.3348 42.5143 64.8948C42.5143 65.4548 42.3876 65.9515 42.1343 66.3848C41.8809 66.8181 41.5343 67.1548 41.0943 67.3948C40.6609 67.6281 40.1809 67.7448 39.6543 67.7448ZM39.6543 66.7548C39.9476 66.7548 40.2209 66.6848 40.4743 66.5448C40.7343 66.4048 40.9443 66.1948 41.1043 65.9148C41.2643 65.6348 41.3443 65.2948 41.3443 64.8948C41.3443 64.4948 41.2676 64.1581 41.1143 63.8848C40.9609 63.6048 40.7576 63.3948 40.5043 63.2548C40.2509 63.1148 39.9776 63.0448 39.6843 63.0448C39.3909 63.0448 39.1176 63.1148 38.8643 63.2548C38.6176 63.3948 38.4209 63.6048 38.2743 63.8848C38.1276 64.1581 38.0543 64.4948 38.0543 64.8948C38.0543 65.4881 38.2043 65.9481 38.5043 66.2748C38.8109 66.5948 39.1943 66.7548 39.6543 66.7548ZM43.2612 64.8748C43.2612 64.3215 43.3746 63.8315 43.6012 63.4048C43.8346 62.9781 44.1479 62.6481 44.5412 62.4148C44.9412 62.1748 45.3846 62.0548 45.8712 62.0548C46.2312 62.0548 46.5846 62.1348 46.9312 62.2948C47.2846 62.4481 47.5646 62.6548 47.7712 62.9148V60.2548H48.9212V67.6548H47.7712V66.8248C47.5846 67.0915 47.3246 67.3115 46.9912 67.4848C46.6646 67.6581 46.2879 67.7448 45.8612 67.7448C45.3812 67.7448 44.9412 67.6248 44.5412 67.3848C44.1479 67.1381 43.8346 66.7981 43.6012 66.3648C43.3746 65.9248 43.2612 65.4281 43.2612 64.8748ZM47.7712 64.8948C47.7712 64.5148 47.6912 64.1848 47.5312 63.9048C47.3779 63.6248 47.1746 63.4115 46.9212 63.2648C46.6679 63.1181 46.3946 63.0448 46.1012 63.0448C45.8079 63.0448 45.5346 63.1181 45.2812 63.2648C45.0279 63.4048 44.8212 63.6148 44.6612 63.8948C44.5079 64.1681 44.4312 64.4948 44.4312 64.8748C44.4312 65.2548 44.5079 65.5881 44.6612 65.8748C44.8212 66.1615 45.0279 66.3815 45.2812 66.5348C45.5412 66.6815 45.8146 66.7548 46.1012 66.7548C46.3946 66.7548 46.6679 66.6815 46.9212 66.5348C47.1746 66.3881 47.3779 66.1748 47.5312 65.8948C47.6912 65.6081 47.7712 65.2748 47.7712 64.8948ZM55.4086 62.1448V67.6548H54.2686V67.0048C54.0886 67.2315 53.8519 67.4115 53.5586 67.5448C53.2719 67.6715 52.9652 67.7348 52.6386 67.7348C52.2052 67.7348 51.8152 67.6448 51.4686 67.4648C51.1286 67.2848 50.8586 67.0181 50.6586 66.6648C50.4652 66.3115 50.3686 65.8848 50.3686 65.3848V62.1448H51.4986V65.2148C51.4986 65.7081 51.6219 66.0881 51.8686 66.3548C52.1152 66.6148 52.4519 66.7448 52.8786 66.7448C53.3052 66.7448 53.6419 66.6148 53.8886 66.3548C54.1419 66.0881 54.2686 65.7081 54.2686 65.2148V62.1448H55.4086ZM56.5327 64.8948C56.5327 64.3281 56.6461 63.8315 56.8727 63.4048C57.1061 62.9715 57.4261 62.6381 57.8327 62.4048C58.2394 62.1715 58.7061 62.0548 59.2327 62.0548C59.8994 62.0548 60.4494 62.2148 60.8827 62.5348C61.3227 62.8481 61.6194 63.2981 61.7727 63.8848H60.5427C60.4427 63.6115 60.2827 63.3981 60.0627 63.2448C59.8427 63.0915 59.5661 63.0148 59.2327 63.0148C58.7661 63.0148 58.3927 63.1815 58.1127 63.5148C57.8394 63.8415 57.7027 64.3015 57.7027 64.8948C57.7027 65.4881 57.8394 65.9515 58.1127 66.2848C58.3927 66.6181 58.7661 66.7848 59.2327 66.7848C59.8927 66.7848 60.3294 66.4948 60.5427 65.9148H61.7727C61.6127 66.4748 61.3127 66.9215 60.8727 67.2548C60.4327 67.5815 59.8861 67.7448 59.2327 67.7448C58.7061 67.7448 58.2394 67.6281 57.8327 67.3948C57.4261 67.1548 57.1061 66.8215 56.8727 66.3948C56.6461 65.9615 56.5327 65.4615 56.5327 64.8948ZM64.2388 63.0748V66.1248C64.2388 66.3315 64.2855 66.4815 64.3788 66.5748C64.4788 66.6615 64.6455 66.7048 64.8788 66.7048H65.5788V67.6548H64.6788C64.1655 67.6548 63.7721 67.5348 63.4988 67.2948C63.2255 67.0548 63.0888 66.6648 63.0888 66.1248V63.0748H62.4388V62.1448H63.0888V60.7748H64.2388V62.1448H65.5788V63.0748H64.2388ZM68.6295 67.7448C68.1962 67.7448 67.8062 67.6681 67.4595 67.5148C67.1195 67.3548 66.8495 67.1415 66.6495 66.8748C66.4495 66.6015 66.3428 66.2981 66.3295 65.9648H67.5095C67.5295 66.1981 67.6395 66.3948 67.8395 66.5548C68.0462 66.7081 68.3029 66.7848 68.6095 66.7848C68.9295 66.7848 69.1762 66.7248 69.3495 66.6048C69.5295 66.4781 69.6195 66.3181 69.6195 66.1248C69.6195 65.9181 69.5195 65.7648 69.3195 65.6648C69.1262 65.5648 68.8162 65.4548 68.3895 65.3348C67.9762 65.2215 67.6395 65.1115 67.3795 65.0048C67.1195 64.8981 66.8929 64.7348 66.6995 64.5148C66.5128 64.2948 66.4195 64.0048 66.4195 63.6448C66.4195 63.3515 66.5062 63.0848 66.6795 62.8448C66.8528 62.5981 67.0995 62.4048 67.4195 62.2648C67.7462 62.1248 68.1195 62.0548 68.5395 62.0548C69.1662 62.0548 69.6695 62.2148 70.0495 62.5348C70.4362 62.8481 70.6429 63.2781 70.6695 63.8248H69.5295C69.5095 63.5781 69.4095 63.3815 69.2295 63.2348C69.0495 63.0881 68.8062 63.0148 68.4995 63.0148C68.1995 63.0148 67.9695 63.0715 67.8095 63.1848C67.6495 63.2981 67.5695 63.4481 67.5695 63.6348C67.5695 63.7815 67.6229 63.9048 67.7295 64.0048C67.8362 64.1048 67.9662 64.1848 68.1195 64.2448C68.2729 64.2981 68.4995 64.3681 68.7995 64.4548C69.1995 64.5615 69.5262 64.6715 69.7795 64.7848C70.0395 64.8915 70.2629 65.0515 70.4495 65.2648C70.6362 65.4781 70.7329 65.7615 70.7395 66.1148C70.7395 66.4281 70.6529 66.7081 70.4795 66.9548C70.3062 67.2015 70.0595 67.3948 69.7395 67.5348C69.4262 67.6748 69.0562 67.7448 68.6295 67.7448Z" fill="white"/>
<circle cx="48.3372" cy="20.3372" r="19.8372" stroke="white"/>
</svg>
