<svg width="98" height="69" viewBox="0 0 98 69" fill="none" xmlns="http://www.w3.org/2000/svg">
<path d="M11.8745 52.1648C11.8745 51.4848 12.0312 50.8748 12.3445 50.3348C12.6645 49.7948 13.0945 49.3748 13.6345 49.0748C14.1812 48.7681 14.7779 48.6148 15.4245 48.6148C16.1645 48.6148 16.8212 48.7981 17.3945 49.1648C17.9745 49.5248 18.3945 50.0381 18.6545 50.7048H17.2845C17.1045 50.3381 16.8545 50.0648 16.5345 49.8848C16.2145 49.7048 15.8445 49.6148 15.4245 49.6148C14.9645 49.6148 14.5545 49.7181 14.1945 49.9248C13.8345 50.1315 13.5512 50.4281 13.3445 50.8148C13.1445 51.2015 13.0445 51.6515 13.0445 52.1648C13.0445 52.6781 13.1445 53.1281 13.3445 53.5148C13.5512 53.9015 13.8345 54.2015 14.1945 54.4148C14.5545 54.6215 14.9645 54.7248 15.4245 54.7248C15.8445 54.7248 16.2145 54.6348 16.5345 54.4548C16.8545 54.2748 17.1045 54.0015 17.2845 53.6348H18.6545C18.3945 54.3015 17.9745 54.8148 17.3945 55.1748C16.8212 55.5348 16.1645 55.7148 15.4245 55.7148C14.7712 55.7148 14.1745 55.5648 13.6345 55.2648C13.0945 54.9581 12.6645 54.5348 12.3445 53.9948C12.0312 53.4548 11.8745 52.8448 11.8745 52.1648ZM22.3789 55.7448C21.8589 55.7448 21.3889 55.6281 20.9689 55.3948C20.5489 55.1548 20.2189 54.8215 19.9789 54.3948C19.7389 53.9615 19.6189 53.4615 19.6189 52.8948C19.6189 52.3348 19.7422 51.8381 19.9889 51.4048C20.2356 50.9715 20.5722 50.6381 20.9989 50.4048C21.4256 50.1715 21.9022 50.0548 22.4289 50.0548C22.9556 50.0548 23.4322 50.1715 23.8589 50.4048C24.2856 50.6381 24.6222 50.9715 24.8689 51.4048C25.1156 51.8381 25.2389 52.3348 25.2389 52.8948C25.2389 53.4548 25.1122 53.9515 24.8589 54.3848C24.6056 54.8181 24.2589 55.1548 23.8189 55.3948C23.3856 55.6281 22.9056 55.7448 22.3789 55.7448ZM22.3789 54.7548C22.6722 54.7548 22.9456 54.6848 23.1989 54.5448C23.4589 54.4048 23.6689 54.1948 23.8289 53.9148C23.9889 53.6348 24.0689 53.2948 24.0689 52.8948C24.0689 52.4948 23.9922 52.1581 23.8389 51.8848C23.6856 51.6048 23.4822 51.3948 23.2289 51.2548C22.9756 51.1148 22.7022 51.0448 22.4089 51.0448C22.1156 51.0448 21.8422 51.1148 21.5889 51.2548C21.3422 51.3948 21.1456 51.6048 20.9989 51.8848C20.8522 52.1581 20.7789 52.4948 20.7789 52.8948C20.7789 53.4881 20.9289 53.9481 21.2289 54.2748C21.5356 54.5948 21.9189 54.7548 22.3789 54.7548ZM29.1458 50.0548C29.5792 50.0548 29.9658 50.1448 30.3058 50.3248C30.6525 50.5048 30.9225 50.7715 31.1158 51.1248C31.3092 51.4781 31.4058 51.9048 31.4058 52.4048V55.6548H30.2758V52.5748C30.2758 52.0815 30.1525 51.7048 29.9058 51.4448C29.6592 51.1781 29.3225 51.0448 28.8958 51.0448C28.4692 51.0448 28.1292 51.1781 27.8758 51.4448C27.6292 51.7048 27.5058 52.0815 27.5058 52.5748V55.6548H26.3658V50.1448H27.5058V50.7748C27.6925 50.5481 27.9292 50.3715 28.2158 50.2448C28.5092 50.1181 28.8192 50.0548 29.1458 50.0548ZM32.48 52.8748C32.48 52.3215 32.5933 51.8315 32.82 51.4048C33.0533 50.9781 33.3667 50.6481 33.76 50.4148C34.16 50.1748 34.6033 50.0548 35.09 50.0548C35.45 50.0548 35.8033 50.1348 36.15 50.2948C36.5033 50.4481 36.7833 50.6548 36.99 50.9148V48.2548H38.14V55.6548H36.99V54.8248C36.8033 55.0915 36.5433 55.3115 36.21 55.4848C35.8833 55.6581 35.5067 55.7448 35.08 55.7448C34.6 55.7448 34.16 55.6248 33.76 55.3848C33.3667 55.1381 33.0533 54.7981 32.82 54.3648C32.5933 53.9248 32.48 53.4281 32.48 52.8748ZM36.99 52.8948C36.99 52.5148 36.91 52.1848 36.75 51.9048C36.5967 51.6248 36.3933 51.4115 36.14 51.2648C35.8867 51.1181 35.6133 51.0448 35.32 51.0448C35.0267 51.0448 34.7533 51.1181 34.5 51.2648C34.2467 51.4048 34.04 51.6148 33.88 51.8948C33.7267 52.1681 33.65 52.4948 33.65 52.8748C33.65 53.2548 33.7267 53.5881 33.88 53.8748C34.04 54.1615 34.2467 54.3815 34.5 54.5348C34.76 54.6815 35.0333 54.7548 35.32 54.7548C35.6133 54.7548 35.8867 54.6815 36.14 54.5348C36.3933 54.3881 36.5967 54.1748 36.75 53.8948C36.91 53.6081 36.99 53.2748 36.99 52.8948ZM40.2173 49.4148C40.0107 49.4148 39.8373 49.3448 39.6973 49.2048C39.5573 49.0648 39.4873 48.8915 39.4873 48.6848C39.4873 48.4781 39.5573 48.3048 39.6973 48.1648C39.8373 48.0248 40.0107 47.9548 40.2173 47.9548C40.4173 47.9548 40.5873 48.0248 40.7273 48.1648C40.8673 48.3048 40.9373 48.4781 40.9373 48.6848C40.9373 48.8915 40.8673 49.0648 40.7273 49.2048C40.5873 49.3448 40.4173 49.4148 40.2173 49.4148ZM40.7773 50.1448V55.6548H39.6373V50.1448H40.7773ZM48.944 50.0548C49.3774 50.0548 49.764 50.1448 50.104 50.3248C50.4507 50.5048 50.7207 50.7715 50.914 51.1248C51.114 51.4781 51.214 51.9048 51.214 52.4048V55.6548H50.084V52.5748C50.084 52.0815 49.9607 51.7048 49.714 51.4448C49.4674 51.1781 49.1307 51.0448 48.704 51.0448C48.2774 51.0448 47.9374 51.1781 47.684 51.4448C47.4374 51.7048 47.314 52.0815 47.314 52.5748V55.6548H46.184V52.5748C46.184 52.0815 46.0607 51.7048 45.814 51.4448C45.5674 51.1781 45.2307 51.0448 44.804 51.0448C44.3774 51.0448 44.0374 51.1781 43.784 51.4448C43.5374 51.7048 43.414 52.0815 43.414 52.5748V55.6548H42.274V50.1448H43.414V50.7748C43.6007 50.5481 43.8374 50.3715 44.124 50.2448C44.4107 50.1181 44.7174 50.0548 45.044 50.0548C45.484 50.0548 45.8774 50.1481 46.224 50.3348C46.5707 50.5215 46.8374 50.7915 47.024 51.1448C47.1907 50.8115 47.4507 50.5481 47.804 50.3548C48.1574 50.1548 48.5374 50.0548 48.944 50.0548ZM57.7147 52.7648C57.7147 52.9715 57.7013 53.1581 57.6747 53.3248H53.4647C53.498 53.7648 53.6613 54.1181 53.9547 54.3848C54.248 54.6515 54.608 54.7848 55.0347 54.7848C55.648 54.7848 56.0813 54.5281 56.3347 54.0148H57.5647C57.398 54.5215 57.0947 54.9381 56.6547 55.2648C56.2213 55.5848 55.6813 55.7448 55.0347 55.7448C54.508 55.7448 54.0347 55.6281 53.6147 55.3948C53.2013 55.1548 52.8747 54.8215 52.6347 54.3948C52.4013 53.9615 52.2847 53.4615 52.2847 52.8948C52.2847 52.3281 52.398 51.8315 52.6247 51.4048C52.858 50.9715 53.1813 50.6381 53.5947 50.4048C54.0147 50.1715 54.4947 50.0548 55.0347 50.0548C55.5547 50.0548 56.018 50.1681 56.4247 50.3948C56.8313 50.6215 57.148 50.9415 57.3747 51.3548C57.6013 51.7615 57.7147 52.2315 57.7147 52.7648ZM56.5247 52.4048C56.518 51.9848 56.368 51.6481 56.0747 51.3948C55.7813 51.1415 55.418 51.0148 54.9847 51.0148C54.5913 51.0148 54.2547 51.1415 53.9747 51.3948C53.6947 51.6415 53.528 51.9781 53.4747 52.4048H56.5247ZM61.6165 50.0548C62.0499 50.0548 62.4365 50.1448 62.7765 50.3248C63.1232 50.5048 63.3932 50.7715 63.5865 51.1248C63.7799 51.4781 63.8765 51.9048 63.8765 52.4048V55.6548H62.7465V52.5748C62.7465 52.0815 62.6232 51.7048 62.3765 51.4448C62.1299 51.1781 61.7932 51.0448 61.3665 51.0448C60.9399 51.0448 60.5999 51.1781 60.3465 51.4448C60.0999 51.7048 59.9765 52.0815 59.9765 52.5748V55.6548H58.8365V50.1448H59.9765V50.7748C60.1632 50.5481 60.3999 50.3715 60.6865 50.2448C60.9799 50.1181 61.2899 50.0548 61.6165 50.0548ZM66.6607 51.0748V54.1248C66.6607 54.3315 66.7074 54.4815 66.8007 54.5748C66.9007 54.6615 67.0674 54.7048 67.3007 54.7048H68.0007V55.6548H67.1007C66.5874 55.6548 66.194 55.5348 65.9207 55.2948C65.6474 55.0548 65.5107 54.6648 65.5107 54.1248V51.0748H64.8607V50.1448H65.5107V48.7748H66.6607V50.1448H68.0007V51.0748H66.6607ZM71.0514 55.7448C70.6181 55.7448 70.2281 55.6681 69.8814 55.5148C69.5414 55.3548 69.2714 55.1415 69.0714 54.8748C68.8714 54.6015 68.7647 54.2981 68.7514 53.9648H69.9314C69.9514 54.1981 70.0614 54.3948 70.2614 54.5548C70.4681 54.7081 70.7247 54.7848 71.0314 54.7848C71.3514 54.7848 71.5981 54.7248 71.7714 54.6048C71.9514 54.4781 72.0414 54.3181 72.0414 54.1248C72.0414 53.9181 71.9414 53.7648 71.7414 53.6648C71.5481 53.5648 71.2381 53.4548 70.8114 53.3348C70.3981 53.2215 70.0614 53.1115 69.8014 53.0048C69.5414 52.8981 69.3147 52.7348 69.1214 52.5148C68.9347 52.2948 68.8414 52.0048 68.8414 51.6448C68.8414 51.3515 68.9281 51.0848 69.1014 50.8448C69.2747 50.5981 69.5214 50.4048 69.8414 50.2648C70.1681 50.1248 70.5414 50.0548 70.9614 50.0548C71.5881 50.0548 72.0914 50.2148 72.4714 50.5348C72.8581 50.8481 73.0647 51.2781 73.0914 51.8248H71.9514C71.9314 51.5781 71.8314 51.3815 71.6514 51.2348C71.4714 51.0881 71.2281 51.0148 70.9214 51.0148C70.6214 51.0148 70.3914 51.0715 70.2314 51.1848C70.0714 51.2981 69.9914 51.4481 69.9914 51.6348C69.9914 51.7815 70.0447 51.9048 70.1514 52.0048C70.2581 52.1048 70.3881 52.1848 70.5414 52.2448C70.6947 52.2981 70.9214 52.3681 71.2214 52.4548C71.6214 52.5615 71.9481 52.6715 72.2014 52.7848C72.4614 52.8915 72.6847 53.0515 72.8714 53.2648C73.0581 53.4781 73.1547 53.7615 73.1614 54.1148C73.1614 54.4281 73.0747 54.7081 72.9014 54.9548C72.7281 55.2015 72.4814 55.3948 72.1614 55.5348C71.8481 55.6748 71.4781 55.7448 71.0514 55.7448ZM82.3608 55.6548L81.5008 54.7948C81.1675 55.1281 80.8042 55.3781 80.4108 55.5448C80.0175 55.7048 79.5775 55.7848 79.0908 55.7848C78.5975 55.7848 78.1608 55.6981 77.7808 55.5248C77.4008 55.3515 77.1075 55.1048 76.9008 54.7848C76.6942 54.4581 76.5908 54.0815 76.5908 53.6548C76.5908 53.1748 76.7275 52.7481 77.0008 52.3748C77.2742 51.9948 77.6808 51.6948 78.2208 51.4748C78.0275 51.2415 77.8908 51.0248 77.8108 50.8248C77.7308 50.6181 77.6908 50.3915 77.6908 50.1448C77.6908 49.8381 77.7675 49.5648 77.9208 49.3248C78.0808 49.0848 78.3075 48.8948 78.6008 48.7548C78.8942 48.6148 79.2342 48.5448 79.6208 48.5448C80.0142 48.5448 80.3475 48.6215 80.6208 48.7748C80.9008 48.9215 81.1075 49.1248 81.2408 49.3848C81.3808 49.6448 81.4375 49.9348 81.4108 50.2548H80.2708C80.2775 50.0081 80.2175 49.8181 80.0908 49.6848C79.9642 49.5448 79.7908 49.4748 79.5708 49.4748C79.3508 49.4748 79.1708 49.5415 79.0308 49.6748C78.8975 49.8015 78.8308 49.9581 78.8308 50.1448C78.8308 50.3248 78.8808 50.5048 78.9808 50.6848C79.0875 50.8581 79.2708 51.0848 79.5308 51.3648L81.3708 53.1948L82.0808 52.0248H83.3108L82.4108 53.5648L82.1608 53.9748L83.8508 55.6548H82.3608ZM79.0908 54.8148C79.7175 54.8148 80.2708 54.5581 80.7508 54.0448L78.9108 52.1948C78.1242 52.5081 77.7308 52.9815 77.7308 53.6148C77.7308 53.9548 77.8575 54.2415 78.1108 54.4748C78.3642 54.7015 78.6908 54.8148 79.0908 54.8148ZM33.607 67.7248C33.1404 67.7248 32.7204 67.6448 32.347 67.4848C31.9737 67.3181 31.6804 67.0848 31.467 66.7848C31.2537 66.4848 31.147 66.1348 31.147 65.7348H32.367C32.3937 66.0348 32.5104 66.2815 32.717 66.4748C32.9304 66.6681 33.227 66.7648 33.607 66.7648C34.0004 66.7648 34.307 66.6715 34.527 66.4848C34.747 66.2915 34.857 66.0448 34.857 65.7448C34.857 65.5115 34.787 65.3215 34.647 65.1748C34.5137 65.0281 34.3437 64.9148 34.137 64.8348C33.937 64.7548 33.657 64.6681 33.297 64.5748C32.8437 64.4548 32.4737 64.3348 32.187 64.2148C31.907 64.0881 31.667 63.8948 31.467 63.6348C31.267 63.3748 31.167 63.0281 31.167 62.5948C31.167 62.1948 31.267 61.8448 31.467 61.5448C31.667 61.2448 31.947 61.0148 32.307 60.8548C32.667 60.6948 33.0837 60.6148 33.557 60.6148C34.2304 60.6148 34.7804 60.7848 35.207 61.1248C35.6404 61.4581 35.8804 61.9181 35.927 62.5048H34.667C34.647 62.2515 34.527 62.0348 34.307 61.8548C34.087 61.6748 33.797 61.5848 33.437 61.5848C33.1103 61.5848 32.8437 61.6681 32.637 61.8348C32.4304 62.0015 32.327 62.2415 32.327 62.5548C32.327 62.7681 32.3904 62.9448 32.517 63.0848C32.6503 63.2181 32.817 63.3248 33.017 63.4048C33.217 63.4848 33.4904 63.5715 33.837 63.6648C34.297 63.7915 34.6704 63.9181 34.957 64.0448C35.2504 64.1715 35.497 64.3681 35.697 64.6348C35.9037 64.8948 36.007 65.2448 36.007 65.6848C36.007 66.0381 35.9104 66.3715 35.717 66.6848C35.5304 66.9981 35.2537 67.2515 34.887 67.4448C34.527 67.6315 34.1004 67.7248 33.607 67.7248ZM36.9722 64.8748C36.9722 64.3215 37.0855 63.8315 37.3122 63.4048C37.5455 62.9781 37.8588 62.6481 38.2522 62.4148C38.6522 62.1748 39.0922 62.0548 39.5722 62.0548C40.0055 62.0548 40.3822 62.1415 40.7022 62.3148C41.0288 62.4815 41.2888 62.6915 41.4822 62.9448V62.1448H42.6322V67.6548H41.4822V66.8348C41.2888 67.0948 41.0255 67.3115 40.6922 67.4848C40.3588 67.6581 39.9788 67.7448 39.5522 67.7448C39.0788 67.7448 38.6455 67.6248 38.2522 67.3848C37.8588 67.1381 37.5455 66.7981 37.3122 66.3648C37.0855 65.9248 36.9722 65.4281 36.9722 64.8748ZM41.4822 64.8948C41.4822 64.5148 41.4022 64.1848 41.2422 63.9048C41.0888 63.6248 40.8855 63.4115 40.6322 63.2648C40.3788 63.1181 40.1055 63.0448 39.8122 63.0448C39.5188 63.0448 39.2455 63.1181 38.9922 63.2648C38.7388 63.4048 38.5322 63.6148 38.3722 63.8948C38.2188 64.1681 38.1422 64.4948 38.1422 64.8748C38.1422 65.2548 38.2188 65.5881 38.3722 65.8748C38.5322 66.1615 38.7388 66.3815 38.9922 66.5348C39.2522 66.6815 39.5255 66.7548 39.8122 66.7548C40.1055 66.7548 40.3788 66.6815 40.6322 66.5348C40.8855 66.3881 41.0888 66.1748 41.2422 65.8948C41.4022 65.6081 41.4822 65.2748 41.4822 64.8948ZM49.1195 62.1448V67.6548H47.9795V67.0048C47.7995 67.2315 47.5629 67.4115 47.2695 67.5448C46.9829 67.6715 46.6762 67.7348 46.3495 67.7348C45.9162 67.7348 45.5262 67.6448 45.1795 67.4648C44.8395 67.2848 44.5695 67.0181 44.3695 66.6648C44.1762 66.3115 44.0795 65.8848 44.0795 65.3848V62.1448H45.2095V65.2148C45.2095 65.7081 45.3329 66.0881 45.5795 66.3548C45.8262 66.6148 46.1628 66.7448 46.5895 66.7448C47.0162 66.7448 47.3529 66.6148 47.5995 66.3548C47.8529 66.0881 47.9795 65.7081 47.9795 65.2148V62.1448H49.1195ZM50.2437 64.8948C50.2437 64.3281 50.357 63.8315 50.5837 63.4048C50.817 62.9715 51.137 62.6381 51.5437 62.4048C51.9503 62.1715 52.417 62.0548 52.9437 62.0548C53.6103 62.0548 54.1603 62.2148 54.5937 62.5348C55.0337 62.8481 55.3303 63.2981 55.4837 63.8848H54.2537C54.1537 63.6115 53.9937 63.3981 53.7737 63.2448C53.5537 63.0915 53.277 63.0148 52.9437 63.0148C52.477 63.0148 52.1037 63.1815 51.8237 63.5148C51.5503 63.8415 51.4137 64.3015 51.4137 64.8948C51.4137 65.4881 51.5503 65.9515 51.8237 66.2848C52.1037 66.6181 52.477 66.7848 52.9437 66.7848C53.6037 66.7848 54.0403 66.4948 54.2537 65.9148H55.4837C55.3237 66.4748 55.0237 66.9215 54.5837 67.2548C54.1437 67.5815 53.597 67.7448 52.9437 67.7448C52.417 67.7448 51.9503 67.6281 51.5437 67.3948C51.137 67.1548 50.817 66.8215 50.5837 66.3948C50.357 65.9615 50.2437 65.4615 50.2437 64.8948ZM61.6698 64.7648C61.6698 64.9715 61.6564 65.1581 61.6298 65.3248H57.4198C57.4531 65.7648 57.6164 66.1181 57.9098 66.3848C58.2031 66.6515 58.5631 66.7848 58.9898 66.7848C59.6031 66.7848 60.0364 66.5281 60.2898 66.0148H61.5198C61.3531 66.5215 61.0498 66.9381 60.6098 67.2648C60.1764 67.5848 59.6364 67.7448 58.9898 67.7448C58.4631 67.7448 57.9898 67.6281 57.5698 67.3948C57.1564 67.1548 56.8298 66.8215 56.5898 66.3948C56.3564 65.9615 56.2398 65.4615 56.2398 64.8948C56.2398 64.3281 56.3531 63.8315 56.5798 63.4048C56.8131 62.9715 57.1364 62.6381 57.5498 62.4048C57.9698 62.1715 58.4498 62.0548 58.9898 62.0548C59.5098 62.0548 59.9731 62.1681 60.3798 62.3948C60.7864 62.6215 61.1031 62.9415 61.3298 63.3548C61.5564 63.7615 61.6698 64.2315 61.6698 64.7648ZM60.4798 64.4048C60.4731 63.9848 60.3231 63.6481 60.0298 63.3948C59.7364 63.1415 59.3731 63.0148 58.9398 63.0148C58.5464 63.0148 58.2098 63.1415 57.9298 63.3948C57.6498 63.6415 57.4831 63.9781 57.4298 64.4048H60.4798ZM64.7916 67.7448C64.3583 67.7448 63.9683 67.6681 63.6216 67.5148C63.2816 67.3548 63.0116 67.1415 62.8116 66.8748C62.6116 66.6015 62.505 66.2981 62.4916 65.9648H63.6716C63.6916 66.1981 63.8016 66.3948 64.0016 66.5548C64.2083 66.7081 64.465 66.7848 64.7716 66.7848C65.0916 66.7848 65.3383 66.7248 65.5116 66.6048C65.6916 66.4781 65.7816 66.3181 65.7816 66.1248C65.7816 65.9181 65.6816 65.7648 65.4816 65.6648C65.2883 65.5648 64.9783 65.4548 64.5516 65.3348C64.1383 65.2215 63.8016 65.1115 63.5416 65.0048C63.2816 64.8981 63.055 64.7348 62.8616 64.5148C62.675 64.2948 62.5816 64.0048 62.5816 63.6448C62.5816 63.3515 62.6683 63.0848 62.8416 62.8448C63.015 62.5981 63.2616 62.4048 63.5816 62.2648C63.9083 62.1248 64.2816 62.0548 64.7016 62.0548C65.3283 62.0548 65.8316 62.2148 66.2116 62.5348C66.5983 62.8481 66.805 63.2781 66.8316 63.8248H65.6916C65.6716 63.5781 65.5716 63.3815 65.3916 63.2348C65.2116 63.0881 64.9683 63.0148 64.6616 63.0148C64.3616 63.0148 64.1316 63.0715 63.9716 63.1848C63.8116 63.2981 63.7316 63.4481 63.7316 63.6348C63.7316 63.7815 63.785 63.9048 63.8916 64.0048C63.9983 64.1048 64.1283 64.1848 64.2816 64.2448C64.435 64.2981 64.6616 64.3681 64.9616 64.4548C65.3616 64.5615 65.6883 64.6715 65.9416 64.7848C66.2016 64.8915 66.425 65.0515 66.6116 65.2648C66.7983 65.4781 66.895 65.7615 66.9016 66.1148C66.9016 66.4281 66.815 66.7081 66.6416 66.9548C66.4683 67.2015 66.2216 67.3948 65.9016 67.5348C65.5883 67.6748 65.2183 67.7448 64.7916 67.7448Z" fill="white"/>
<circle cx="48.3372" cy="20.3372" r="19.8372" stroke="white"/>
<g clip-path="url(#clip0_22_644)">
<path d="M45.94 15.29C45.7 14.61 45.46 13.91 45.31 13.2C45.09 12.12 45.12 11.27 45.41 10.53C45.73 10.45 45.87 10.25 45.89 9.83001L45.93 8.93001C45.94 8.70001 45.93 8.43001 45.76 8.25001C45.61 8.10001 45.39 8.03001 45.02 8.03001L41.82 8.01001C41.56 8.01001 41.25 8.03001 41.01 8.19001C40.69 8.42001 40.51 9.35001 40.54 9.87001C40.56 10.2 40.66 10.42 40.84 10.51C40.91 10.54 40.97 10.56 41.04 10.57C41.68 12.17 40.96 13.95 40.32 15.51C40.11 16.02 39.91 16.51 39.76 16.97C38.81 19.98 38.99 26.37 39.07 28.26C39.1 29.02 39.19 29.86 39.78 30.39C39.76 30.4 39.74 30.41 39.73 30.42C39.6 30.55 39.53 30.73 39.55 30.9C39.6 31.37 40.02 31.62 40.79 31.64L45.08 31.74H45.31C45.57 31.74 45.85 31.72 46.11 31.62C46.45 31.49 46.8 31.17 46.81 30.74C46.81 30.52 46.71 30.3 46.54 30.16C46.84 29.75 46.96 29.23 47.05 28.76C47.84 24.5 47.53 20.08 46.16 15.97C46.08 15.74 46.01 15.51 45.93 15.29H45.94ZM40.92 9.84001C40.88 9.30001 41.09 8.59001 41.23 8.49001C41.39 8.38001 41.62 8.37001 41.83 8.37001L45.02 8.39001C45.27 8.39001 45.43 8.43001 45.5 8.50001C45.56 8.56001 45.58 8.69001 45.57 8.90001L45.53 9.80001C45.51 10.1 45.49 10.18 45.07 10.19L41.39 10.22C41.23 10.22 41.11 10.22 41.01 10.16C40.99 10.15 40.93 10.07 40.91 9.83001L40.92 9.84001ZM40.12 17.08C40.26 16.63 40.46 16.15 40.67 15.65C41.32 14.07 42.04 12.29 41.45 10.6L45.01 10.57C44.75 11.34 44.72 12.2 44.94 13.27C45.09 14 45.34 14.72 45.58 15.41C45.66 15.64 45.74 15.86 45.81 16.09C46.42 17.92 46.8 19.82 46.98 21.74L46.73 21.49H46.6V21.62L46.89 21.91L46.67 22.13L46.59 22.05H46.46V22.18L46.54 22.26L46.4 22.4V22.53L46.47 22.56L46.54 22.53L46.68 22.39L47.06 22.77H46.96L46.7 23.03L46.52 22.85H46.39V22.98L46.57 23.16L46.15 23.58H46.12V23.61L46.09 23.64V23.77L46.16 23.8L46.2 23.78L46.56 24.14L46.05 24.65L45.82 24.42H45.69V24.55L45.92 24.78L45.66 25.04V25.17L45.73 25.2L45.79 25.17L46.05 24.91L46.19 25.05V25.14L46.25 25.17H46.29L46.48 25.34L45.86 25.96L45.38 25.48H45.25V25.61L45.73 26.09L45.34 26.48V26.61L45.41 26.64L45.47 26.61L45.86 26.22L46.11 26.47L45.9 26.68V26.81L45.97 26.84L46.04 26.81L46.25 26.6L46.56 26.91L46.06 27.41L44.89 26.24H44.76V26.37L45.77 27.38H45.68L45.26 27.8L44.9 27.44V27.36H44.82L44.32 26.86H44.19V26.99L44.67 27.47L44.18 27.96L43.62 27.4H43.49V27.53L44.05 28.1L43.46 28.69L42.98 28.21L43.1 28.09V27.96H42.97L42.85 28.08H42.73V28.2L41.72 29.21L41.65 29.14H41.52V29.27L41.59 29.34L41.34 29.59L41.09 29.34L41.52 28.91V28.78H41.39L40.94 29.23H40.85V29.32L40.58 29.59L40.37 29.38H40.24V29.51L40.45 29.72L40.3 29.87L39.96 29.52H39.83V29.65L40.18 30L40.1 30.08V30.15C39.61 29.71 39.53 28.94 39.5 28.25C39.34 24.39 39.43 19.44 40.18 17.09L40.12 17.08ZM40.14 30.21H40.17L40.25 30.12L40.42 30.29L40.49 30.32L40.55 30.29V30.16L40.38 29.99L40.53 29.84L40.78 30.09L40.71 30.16V30.29L40.78 30.32L40.85 30.29L40.92 30.22L41.25 30.55C40.84 30.51 40.45 30.43 40.14 30.21ZM40.91 29.45L41.16 29.7L40.91 29.95L40.66 29.7L40.91 29.45ZM41.04 30.09L41.29 29.84L41.77 30.32L41.84 30.35H41.86V30.38L41.93 30.41L41.99 30.38L42.29 30.08L42.66 30.45L42.73 30.48L42.8 30.45V30.32L42.43 29.95L42.8 29.58L43.49 30.27L43.45 30.31V30.44L43.51 30.47L43.58 30.44L43.62 30.4L43.83 30.61C43.08 30.61 42.32 30.61 41.57 30.57C41.53 30.57 41.49 30.57 41.45 30.57V30.5L41.05 30.1L41.04 30.09ZM42.8 28.32L43.28 28.8L42.78 29.3L42.36 28.88H42.23L42.8 28.31V28.32ZM45.1 27.94L44.61 28.43L44.27 28.09L44.76 27.6L45.1 27.94ZM45.78 27.42L46.66 28.3L46.73 28.33H46.76C46.76 28.33 46.76 28.38 46.75 28.42L46.3 28.87L45.73 28.3L45.99 28.04V27.91H45.86L45.6 28.17L45.38 27.95L45.8 27.53V27.44L45.78 27.42ZM46.15 29L45.67 29.48L45.1 28.91L45.58 28.43L46.15 29ZM45.45 28.3L44.96 28.78L44.74 28.56L45.23 28.07L45.45 28.29V28.3ZM44.48 28.56L44.27 28.77V28.9L44.33 28.93L44.4 28.9L44.61 28.69L44.83 28.91L44.24 29.5L43.55 28.81L44.14 28.22L44.48 28.56ZM44.11 29.63L43.61 30.13L42.92 29.44L43.42 28.94L44.11 29.63ZM42.66 29.44L42.29 29.81L41.81 29.33L42.24 28.9V29.03L42.66 29.45V29.44ZM42.16 29.94L41.91 30.19L41.43 29.7L41.68 29.45L42.16 29.93V29.94ZM44.09 30.61L43.74 30.26L44.24 29.76L45.04 30.56C44.8 30.59 44.56 30.61 44.33 30.61C44.25 30.61 44.17 30.61 44.09 30.61ZM44.37 29.63L44.96 29.04L45.53 29.61L45.23 29.91V30.04L45.3 30.07L45.36 30.04L45.66 29.74L46.07 30.15C45.85 30.36 45.55 30.47 45.24 30.53V30.49L44.37 29.62V29.63ZM46.19 30.01L45.8 29.62L46.28 29.14L46.34 29.2L46.41 29.23L46.48 29.2V29.07L46.42 29.01L46.69 28.74C46.61 29.19 46.48 29.67 46.19 30.02V30.01ZM46.77 28.16L46.16 27.55L46.72 26.99L46.95 26.75C46.9 27.22 46.84 27.69 46.76 28.16H46.77ZM46.98 25.84H47H47.04C47.03 26.05 47.01 26.25 46.99 26.46L46.66 26.79L46.35 26.48L46.98 25.85V25.84ZM46.22 26.34L45.97 26.09L46.59 25.47L46.84 25.72L46.22 26.34ZM47.07 25.5L46.97 25.6L46.72 25.35L47.08 24.99C47.08 25.16 47.08 25.33 47.07 25.5ZM46.16 24.79L46.67 24.28L46.79 24.4L46.28 24.91L46.16 24.79ZM46.93 24.52L47.09 24.68C47.09 24.68 47.09 24.7 47.09 24.71L46.59 25.21L46.41 25.03L46.92 24.52H46.93ZM47.06 24.39L47.1 24.35V24.22H46.97L46.93 24.26L46.81 24.14L47.07 23.88V23.75H46.94L46.68 24.01L46.33 23.66L46.7 23.29L47.11 23.7C47.11 23.94 47.11 24.19 47.11 24.43L47.07 24.39H47.06ZM46.82 23.16L47.07 22.91C47.07 23.08 47.09 23.25 47.09 23.42L46.82 23.15V23.16ZM47.06 22.51L46.81 22.26L47.02 22.05C47.03 22.2 47.05 22.36 47.06 22.51ZM45.97 31.28C45.7 31.39 45.38 31.38 45.08 31.37L40.79 31.28C40.04 31.26 39.93 31.04 39.91 30.87L39.98 30.69L40.09 30.65C40.09 30.65 40.11 30.65 40.13 30.64C40.56 30.87 41.06 30.92 41.56 30.95C42.24 30.99 42.92 31 43.6 31C43.85 31 44.1 31 44.35 31C45.02 30.99 45.77 30.93 46.3 30.46C46.39 30.53 46.45 30.63 46.45 30.74C46.44 31 46.2 31.2 45.98 31.29L45.97 31.28Z" fill="white"/>
<path d="M39.8798 21.16L39.7798 21.24L39.8598 21.34H39.9698C39.9398 21.68 39.9098 22.01 39.8998 22.34L39.9898 22.44L40.0798 22.35C40.0898 22.02 40.1198 21.7 40.1498 21.38L40.3398 21.4L40.4298 21.32L40.3498 21.22L40.1498 21.2C40.1698 20.99 40.1798 20.78 40.1998 20.57H40.2198H40.2798L40.2998 20.44C40.2998 20.44 40.2498 20.41 40.2298 20.39C40.2498 20.21 40.2798 20.03 40.3098 19.86L40.3998 19.91H40.4498L40.5298 19.88L40.4998 19.75L40.3398 19.66C40.3798 19.38 40.4198 19.1 40.4698 18.82L40.5798 18.89L40.6298 18.91L40.7098 18.87L40.6798 18.74L40.5098 18.64C40.5798 18.31 40.6598 17.99 40.7398 17.66L41.0098 17.79H41.0498L41.1298 17.75L41.0898 17.63L40.7798 17.48C40.9498 16.84 41.1298 16.21 41.3598 15.59L41.3098 15.47L41.1898 15.53C40.9698 16.15 40.7798 16.77 40.6098 17.4L40.4798 17.34L40.3598 17.38L40.3998 17.5L40.5698 17.58C40.4898 17.9 40.4198 18.21 40.3498 18.53L40.2898 18.49L40.1598 18.52L40.1898 18.65L40.2998 18.72C40.2398 19 40.1998 19.28 40.1598 19.56L40.0398 19.59L40.0698 19.72L40.1298 19.76C40.0998 19.95 40.0698 20.13 40.0498 20.32C40.0098 20.32 39.9798 20.3 39.9398 20.3L39.8598 20.4L39.9598 20.48L40.0198 20.51C39.9898 20.74 39.9798 20.97 39.9598 21.2H39.8498L39.8798 21.16Z" fill="white"/>
<path d="M56.43 15.97C56.35 15.74 56.27 15.51 56.19 15.29C55.95 14.61 55.71 13.91 55.56 13.2C55.34 12.12 55.38 11.27 55.66 10.53C55.98 10.45 56.12 10.25 56.14 9.83001L56.18 8.93001C56.19 8.70001 56.18 8.43001 56.01 8.25001C55.86 8.10001 55.64 8.03001 55.26 8.03001L52.06 8.01001C51.8 8.01001 51.5 8.03001 51.25 8.19001C50.93 8.42001 50.75 9.35001 50.78 9.87001C50.8 10.2 50.9 10.42 51.08 10.51C51.15 10.54 51.22 10.56 51.29 10.57C51.93 12.17 51.21 13.95 50.56 15.52C50.35 16.03 50.15 16.51 50 16.98C49.04 20 49.22 26.38 49.3 28.27C49.33 29.03 49.43 29.87 50.01 30.4C49.99 30.41 49.97 30.42 49.96 30.43C49.83 30.56 49.76 30.74 49.78 30.91C49.83 31.38 50.25 31.63 51.02 31.65L55.31 31.75H55.54C55.8 31.75 56.08 31.73 56.34 31.63C56.68 31.5 57.03 31.18 57.04 30.75C57.04 30.53 56.94 30.31 56.77 30.17C57.07 29.76 57.2 29.24 57.28 28.77C58.07 24.51 57.76 20.09 56.4 15.98L56.43 15.97ZM50.39 30.21H50.42L50.5 30.12L50.67 30.29L50.74 30.32L50.8 30.29V30.16L50.63 29.99L50.78 29.84L51.03 30.09L50.96 30.16V30.29L51.03 30.32L51.1 30.29L51.17 30.22L51.5 30.55C51.09 30.51 50.7 30.43 50.39 30.21ZM51.17 29.45L51.42 29.7L51.17 29.95L50.92 29.7L51.17 29.45ZM51.3 30.08L51.55 29.83L52.03 30.31L52.1 30.34H52.12V30.37L52.19 30.4L52.26 30.37L52.56 30.07L52.93 30.44L52.99 30.47L53.06 30.44V30.31L52.69 29.94L53.06 29.57L53.75 30.26L53.71 30.3V30.43L53.77 30.46L53.84 30.43L53.88 30.39L54.1 30.61C53.35 30.61 52.59 30.61 51.84 30.57C51.8 30.57 51.76 30.57 51.72 30.57V30.5L51.31 30.09L51.3 30.08ZM53.06 28.32L53.55 28.81L53.05 29.31L52.63 28.89H52.5V29.02L52.92 29.44L52.55 29.81L52.06 29.32L53.06 28.32ZM55.35 27.94L54.86 28.43L54.52 28.09L55.01 27.6L55.35 27.94ZM56.04 27.42L56.92 28.3L56.98 28.33H57.01C57.01 28.33 57.01 28.39 57 28.42L56.55 28.87L55.98 28.3L56.24 28.04V27.91H56.11L55.85 28.17L55.63 27.95L56.05 27.53V27.44L56.04 27.42ZM56.41 29L55.92 29.48L55.35 28.91L55.84 28.42L56.41 28.99V29ZM55.7 28.29L55.21 28.78L54.99 28.56L55.48 28.07L55.7 28.29ZM54.73 28.56L54.52 28.77V28.9L54.58 28.93L54.65 28.9L54.86 28.69L55.08 28.91L54.49 29.5L53.8 28.81L54.39 28.22L54.73 28.56ZM54.37 29.63L53.87 30.13L53.18 29.44L53.68 28.94L54.37 29.63ZM52.41 29.94L52.16 30.19L51.68 29.7L51.93 29.45L52.42 29.94H52.41ZM54.35 30.61L54 30.26L54.5 29.76L55.3 30.56C55.06 30.59 54.82 30.61 54.59 30.61C54.51 30.61 54.43 30.61 54.35 30.61ZM54.63 29.63L55.22 29.04L55.79 29.61L55.49 29.91V30.04L55.56 30.07L55.63 30.04L55.93 29.74L56.34 30.15C56.12 30.35 55.83 30.46 55.51 30.53V30.49L54.64 29.62L54.63 29.63ZM56.45 30.01L56.06 29.62L56.54 29.13L56.6 29.19L56.67 29.22L56.74 29.19V29.06L56.68 29L56.95 28.73C56.87 29.18 56.74 29.66 56.46 30.01H56.45ZM57.03 28.16L56.42 27.55L56.98 26.99L57.21 26.75C57.16 27.22 57.1 27.69 57.02 28.16H57.03ZM56.42 24.79L56.93 24.28L57.05 24.4L56.54 24.91L56.42 24.79ZM57.19 23.75L56.93 24.01L56.58 23.66L56.95 23.29L57.36 23.7C57.36 23.94 57.36 24.19 57.36 24.43L57.32 24.39L57.36 24.35V24.22H57.23L57.19 24.26L57.07 24.14L57.33 23.88V23.75H57.2H57.19ZM57.31 22.51L57.06 22.26L57.27 22.05C57.28 22.2 57.3 22.36 57.31 22.51ZM57.33 22.91C57.33 23.08 57.34 23.25 57.35 23.43L57.08 23.16L57.33 22.91ZM57.18 24.52L57.34 24.68C57.34 24.68 57.34 24.7 57.34 24.71L56.84 25.21L56.66 25.03L57.17 24.52H57.18ZM57.34 24.98C57.34 25.15 57.34 25.32 57.33 25.49L57.23 25.59L56.98 25.34L57.34 24.98ZM57.1 25.73L56.48 26.35L56.23 26.1L56.85 25.48L57.1 25.73ZM57.24 25.84H57.26H57.3C57.29 26.05 57.26 26.25 57.25 26.46L56.92 26.78L56.61 26.47L57.24 25.84ZM51.17 9.84001C51.13 9.30001 51.34 8.59001 51.48 8.49001C51.63 8.38001 51.87 8.37001 52.07 8.37001L55.26 8.39001C55.52 8.39001 55.67 8.43001 55.74 8.50001C55.8 8.56001 55.82 8.69001 55.81 8.90001L55.77 9.80001C55.76 10.1 55.73 10.18 55.32 10.19L51.64 10.22C51.48 10.22 51.36 10.22 51.26 10.16C51.24 10.15 51.18 10.07 51.16 9.83001L51.17 9.84001ZM50.38 17.08C50.52 16.63 50.72 16.15 50.93 15.65C51.58 14.07 52.3 12.29 51.71 10.6L55.27 10.57C55.01 11.34 54.98 12.2 55.2 13.27C55.35 14.01 55.6 14.72 55.84 15.41C55.92 15.64 56 15.86 56.07 16.09C56.68 17.92 57.06 19.82 57.24 21.74L56.99 21.49H56.86V21.62L57.15 21.91L56.93 22.13L56.85 22.05H56.72V22.18L56.8 22.26L56.66 22.4V22.53L56.73 22.56L56.8 22.53L56.94 22.39L57.32 22.77H57.22L56.96 23.03L56.78 22.85H56.65V22.98L56.83 23.16L56.41 23.58H56.38V23.61L56.35 23.64V23.77L56.42 23.8L56.45 23.78L56.81 24.14L56.3 24.65L56.07 24.42H55.94V24.55L56.17 24.78L55.91 25.04V25.17L55.97 25.2L56.03 25.17L56.29 24.91L56.43 25.05V25.14L56.5 25.17H56.54L56.73 25.34L56.11 25.96L55.63 25.48H55.5V25.61L55.98 26.09L55.59 26.48V26.61L55.66 26.64L55.73 26.61L56.12 26.22L56.37 26.47L56.16 26.68V26.81L56.23 26.84L56.29 26.81L56.5 26.6L56.81 26.91L56.31 27.41L55.14 26.24H55.01V26.37L56.02 27.38H55.92L55.5 27.8L55.14 27.44V27.36H55.06L54.56 26.86H54.43V26.99L54.91 27.47L54.42 27.96L53.86 27.39H53.73V27.52L54.3 28.09L53.71 28.68L53.22 28.19L53.34 28.07V27.94H53.21L53.09 28.06H52.97V28.18L51.96 29.19L51.89 29.12H51.76V29.25L51.83 29.32L51.58 29.57L51.33 29.32L51.76 28.89V28.76H51.63L51.18 29.21H51.09V29.3L50.82 29.57L50.61 29.36H50.48V29.49L50.69 29.7L50.54 29.85L50.2 29.5H50.07V29.63L50.42 29.98L50.34 30.06V30.13C49.85 29.69 49.77 28.92 49.74 28.23C49.58 24.38 49.67 19.42 50.42 17.07L50.38 17.08ZM56.23 31.28C55.95 31.39 55.64 31.38 55.34 31.37L51.05 31.28C50.3 31.26 50.19 31.04 50.17 30.87L50.24 30.69L50.34 30.65C50.34 30.65 50.36 30.65 50.38 30.64C50.81 30.87 51.31 30.92 51.8 30.95C52.48 30.99 53.16 31 53.84 31C54.09 31 54.34 31 54.59 31C55.26 30.99 56.01 30.93 56.54 30.46C56.63 30.53 56.69 30.63 56.69 30.74C56.68 31 56.44 31.2 56.22 31.29L56.23 31.28Z" fill="white"/>
<path d="M50.14 21.16L50.04 21.24L50.12 21.34H50.23C50.2 21.68 50.17 22.01 50.16 22.34L50.25 22.44L50.34 22.35C50.35 22.02 50.38 21.7 50.41 21.38L50.6 21.4L50.69 21.32L50.61 21.22L50.41 21.2C50.43 20.99 50.44 20.78 50.46 20.57H50.48H50.54L50.56 20.44C50.56 20.44 50.51 20.41 50.49 20.39C50.51 20.21 50.54 20.03 50.57 19.85L50.66 19.9H50.71L50.79 19.87L50.76 19.74L50.6 19.65C50.64 19.37 50.68 19.09 50.73 18.81L50.84 18.88L50.89 18.9L50.97 18.86L50.94 18.73L50.77 18.63C50.84 18.3 50.91 17.98 51 17.65L51.27 17.78H51.31L51.39 17.74L51.35 17.62L51.04 17.47C51.21 16.83 51.39 16.2 51.62 15.58L51.56 15.46L51.44 15.52C51.22 16.14 51.03 16.76 50.86 17.39L50.73 17.33L50.61 17.37L50.65 17.49L50.82 17.57C50.74 17.89 50.66 18.2 50.6 18.52L50.54 18.48L50.41 18.51L50.44 18.64L50.55 18.71C50.49 18.99 50.45 19.27 50.41 19.55L50.29 19.58L50.32 19.71L50.38 19.75C50.35 19.94 50.32 20.12 50.3 20.31C50.26 20.31 50.22 20.29 50.19 20.29L50.11 20.39L50.21 20.47L50.27 20.5C50.24 20.73 50.23 20.96 50.21 21.19H50.1L50.14 21.16Z" fill="white"/>
</g>
<defs>
<clipPath id="clip0_22_644">
<path d="M39 8H57.74V22.37C57.74 27.5449 53.5449 31.74 48.37 31.74C43.1951 31.74 39 27.5449 39 22.37V8Z" fill="white"/>
</clipPath>
</defs>
</svg>
