<svg width="98" height="69" viewBox="0 0 98 69" fill="none" xmlns="http://www.w3.org/2000/svg">
<path d="M38.9142 48.7048C39.6542 48.7048 40.3008 48.8481 40.8542 49.1348C41.4142 49.4148 41.8442 49.8215 42.1442 50.3548C42.4508 50.8815 42.6042 51.4981 42.6042 52.2048C42.6042 52.9115 42.4508 53.5248 42.1442 54.0448C41.8442 54.5648 41.4142 54.9648 40.8542 55.2448C40.3008 55.5181 39.6542 55.6548 38.9142 55.6548H36.6442V48.7048H38.9142ZM38.9142 54.7248C39.7275 54.7248 40.3508 54.5048 40.7842 54.0648C41.2175 53.6248 41.4342 53.0048 41.4342 52.2048C41.4342 51.3981 41.2175 50.7681 40.7842 50.3148C40.3508 49.8615 39.7275 49.6348 38.9142 49.6348H37.7842V54.7248H38.9142ZM44.314 49.4148C44.1073 49.4148 43.934 49.3448 43.794 49.2048C43.654 49.0648 43.584 48.8915 43.584 48.6848C43.584 48.4781 43.654 48.3048 43.794 48.1648C43.934 48.0248 44.1073 47.9548 44.314 47.9548C44.514 47.9548 44.684 48.0248 44.824 48.1648C44.964 48.3048 45.034 48.4781 45.034 48.6848C45.034 48.8915 44.964 49.0648 44.824 49.2048C44.684 49.3448 44.514 49.4148 44.314 49.4148ZM44.874 50.1448V55.6548H43.734V50.1448H44.874ZM45.9907 52.8748C45.9907 52.3215 46.1041 51.8315 46.3307 51.4048C46.5641 50.9781 46.8774 50.6481 47.2707 50.4148C47.6707 50.1748 48.1107 50.0548 48.5907 50.0548C49.0241 50.0548 49.4007 50.1415 49.7207 50.3148C50.0474 50.4815 50.3074 50.6915 50.5007 50.9448V50.1448H51.6507V55.6548H50.5007V54.8348C50.3074 55.0948 50.0441 55.3115 49.7107 55.4848C49.3774 55.6581 48.9974 55.7448 48.5707 55.7448C48.0974 55.7448 47.6641 55.6248 47.2707 55.3848C46.8774 55.1381 46.5641 54.7981 46.3307 54.3648C46.1041 53.9248 45.9907 53.4281 45.9907 52.8748ZM50.5007 52.8948C50.5007 52.5148 50.4207 52.1848 50.2607 51.9048C50.1074 51.6248 49.9041 51.4115 49.6507 51.2648C49.3974 51.1181 49.1241 51.0448 48.8307 51.0448C48.5374 51.0448 48.2641 51.1181 48.0107 51.2648C47.7574 51.4048 47.5507 51.6148 47.3907 51.8948C47.2374 52.1681 47.1607 52.4948 47.1607 52.8748C47.1607 53.2548 47.2374 53.5881 47.3907 53.8748C47.5507 54.1615 47.7574 54.3815 48.0107 54.5348C48.2707 54.6815 48.5441 54.7548 48.8307 54.7548C49.1241 54.7548 49.3974 54.6815 49.6507 54.5348C49.9041 54.3881 50.1074 54.1748 50.2607 53.8948C50.4207 53.6081 50.5007 53.2748 50.5007 52.8948ZM54.2881 50.9448C54.4547 50.6648 54.6747 50.4481 54.9481 50.2948C55.2281 50.1348 55.5581 50.0548 55.9381 50.0548V51.2348H55.6481C55.2014 51.2348 54.8614 51.3481 54.6281 51.5748C54.4014 51.8015 54.2881 52.1948 54.2881 52.7548V55.6548H53.1481V50.1448H54.2881V50.9448ZM61.946 50.1448L58.566 58.2448H57.386L58.506 55.5648L56.336 50.1448H57.606L59.156 54.3448L60.766 50.1448H61.946Z" fill="white"/>
<circle cx="48.3372" cy="20.3372" r="19.8372" stroke="white"/>
<g clip-path="url(#clip0_22_683)">
<path d="M58.0928 17.3857C57.264 16.3889 55.8864 15.9969 54.7888 16.4225C54.7888 16.0865 54.7552 15.7393 54.6768 15.4033C54.5088 14.6305 54.1168 13.9921 53.5792 13.6225H53.5568C53.232 13.2417 52.8064 12.9505 52.4592 12.7489C51.4512 12.1777 50.3648 11.7857 49.2224 11.5729C49.1664 11.5729 49.1104 11.5729 49.0656 11.6177C48.8976 11.5169 48.7184 11.4161 48.5504 11.3265C47.9232 10.9681 47.3184 10.6321 46.9264 10.2625C46.4336 9.79206 45.9632 9.01926 46.12 8.23526L46.0304 8.02246L45.7952 8.04486C45.0672 8.68326 44.6304 9.71366 44.608 10.7441H44.5632L43.6336 11.5841C43.6112 11.6065 43.5888 11.6289 43.5664 11.6513H43.5104C42.424 11.7969 40.688 12.0209 39.624 13.1185H39.6128C38.9072 13.6337 38.3248 14.4401 38.1456 15.1681C37.6752 17.1057 38.1568 23.6577 40.7664 29.8401C41.1248 30.6801 41.5728 31.6321 42.368 32.2481C43.1632 32.8753 44.1936 33.0769 45.2576 33.2561C45.5152 33.3009 45.7952 33.3121 46.0976 33.3121C47.4976 33.3121 49.1664 32.8529 50.2192 32.1249C51.104 31.5089 51.608 30.5121 52.0112 29.6161C52.2576 29.0673 52.4816 28.5185 52.6944 27.9697C55.1472 27.8689 56.4576 26.1889 57.5216 24.3857C59.2688 21.4065 59.4592 19.0545 58.0816 17.3857H58.0928ZM54.0272 25.0801L53.6464 25.4609L53.5456 25.3601C53.6016 25.1585 53.6576 24.9569 53.7024 24.7665L54.016 25.0801H54.0272ZM53.2768 26.2897L53.6688 26.6817L53.1984 27.1521L53.0416 26.9953C53.12 26.7601 53.1984 26.5249 53.2768 26.2897ZM53.4896 25.5729L53.512 25.5953L53.4784 25.6289C53.4784 25.6289 53.4784 25.5953 53.4896 25.5729ZM54.6656 19.2449H54.7104C54.8896 19.0321 55.1584 18.8977 55.472 18.8865C55.7856 18.8753 56.0656 18.9873 56.2672 19.1777C56.8048 19.7377 56.9616 21.4737 55.9648 22.7953C55.4496 23.4785 54.6992 23.9377 53.8704 24.1281C54.2288 22.5489 54.464 20.9585 54.6208 19.3121C54.6432 19.2897 54.6544 19.2785 54.6768 19.2561L54.6656 19.2449ZM54.6544 18.7857C54.6544 18.7857 54.6544 18.7409 54.6544 18.7185L54.6992 18.6961L54.856 18.5393L54.9232 18.6065C54.8112 18.6513 54.7328 18.7185 54.6432 18.7857H54.6544ZM54.6768 18.4497C54.6768 18.4497 54.6768 18.3937 54.6768 18.3601L54.7216 18.4049L54.6768 18.4497ZM45.728 8.69446C45.784 9.33286 46.12 9.99366 46.68 10.5313C47.1056 10.9345 47.7216 11.2817 48.3712 11.6625C49.6144 12.3681 50.8912 13.0961 50.88 14.2161C50.88 14.4625 50.8128 14.6417 50.6896 14.7537C50.5552 14.6753 50.4096 14.6081 50.2416 14.5521C49.7152 14.3617 49.1664 14.2609 48.6288 14.1713C47.9344 14.0481 47.2848 13.9361 46.6912 13.6337C45.7728 13.1521 45.1344 12.2225 45.0112 11.1921C44.9104 10.3185 45.1904 9.38886 45.7168 8.71686L45.728 8.69446ZM49.4352 16.7137C49.3792 16.6913 49.2784 16.6577 49.144 16.6241C48.2816 16.3665 45.6496 15.5937 44.8432 13.8129C44.552 13.1745 44.5296 12.4465 44.7536 11.6625C45 12.6369 45.6384 13.4993 46.5344 13.9585C47.1728 14.2945 47.8896 14.4177 48.584 14.5409C49.0992 14.6305 49.6368 14.7201 50.1184 14.9105C51.0368 15.2465 51.2496 15.8065 51.1488 16.1873C51.0816 16.4561 50.8128 16.6913 50.4768 16.7697C50.1968 16.8369 49.872 16.8257 49.4464 16.7137H49.4352ZM44.4064 11.4161C44.1152 12.3457 44.1152 13.2081 44.4736 13.9697C45.3584 15.9185 48.024 16.7025 49.032 16.9937C49.0544 16.9937 49.0656 16.9937 49.088 17.0049C48.92 17.1617 48.7072 17.2961 48.4384 17.3521C47.8448 17.4753 47.1728 17.3521 46.512 17.1057V17.0833H46.4672C45.504 16.7025 44.5632 16.0305 43.936 15.3137C43.1632 14.4513 42.8496 13.5777 43.0736 12.9169C43.2192 12.4913 43.5888 12.1441 43.9248 11.8529L44.4064 11.4161ZM42.6144 13.4769C42.648 14.1377 42.9952 14.8769 43.6336 15.5937C44.2496 16.2881 45.1232 16.9377 46.064 17.3521C45.9184 17.4641 45.728 17.5425 45.448 17.5649C45.1456 17.5985 44.8096 17.5425 44.3616 17.3857C43.6112 17.1281 42.928 16.7361 42.3232 16.2209C41.4384 15.4705 41.2368 14.6529 41.752 13.9697C41.9536 13.7009 42.2784 13.5217 42.6144 13.4769ZM43.1184 12.0881C42.9392 12.2897 42.7824 12.5249 42.6928 12.8049C42.6592 12.8945 42.6704 12.9841 42.6592 13.0849C42.1888 13.1297 41.7296 13.3649 41.4496 13.7457C40.8 14.5969 41.024 15.6385 42.0656 16.5345C42.704 17.0833 43.432 17.4977 44.2272 17.7777C44.5072 17.8785 44.8768 17.9793 45.2688 17.9793H45.4816C45.784 17.9345 46.176 17.8449 46.4448 17.5201C46.9376 17.6993 47.4416 17.8113 47.9232 17.8113C48.1248 17.8113 48.3152 17.7889 48.5056 17.7553C48.9312 17.6657 49.3008 17.4417 49.5248 17.1393C49.7264 17.1841 49.928 17.2177 50.096 17.2177C50.2528 17.2177 50.4096 17.1953 50.544 17.1617C51.0144 17.0385 51.3952 16.7025 51.496 16.2881C51.5968 15.9073 51.496 15.3921 51.0032 14.9777C51.1712 14.7873 51.2496 14.5409 51.2608 14.2161C51.2608 13.3313 50.6448 12.6817 49.8608 12.1329C50.7008 12.3457 51.496 12.6705 52.2576 13.0961C52.7168 13.3537 53.3552 13.7793 53.5568 14.4065C53.7248 14.9553 53.5232 15.6385 53.0416 16.1425C52.56 16.6465 51.8992 16.9377 51.3056 17.1617C48.0016 18.3937 44.2272 18.3377 40.968 16.9825C40.408 16.7585 39.792 16.4449 39.4672 15.9297C39.0976 15.3473 39.1312 14.5073 39.5456 13.8465C40.3184 12.6033 41.8864 12.2673 43.1072 12.0993L43.1184 12.0881ZM38.5488 15.2353C38.616 14.9777 38.7504 14.6977 38.9184 14.4289C38.784 15.0225 38.8512 15.6385 39.1536 16.1201C39.5456 16.7361 40.2176 17.0833 40.8336 17.3409C42.592 18.0689 44.4848 18.4273 46.3776 18.4273C48.1136 18.4273 49.8384 18.1249 51.4624 17.5201C52.0896 17.2849 52.8064 16.9713 53.344 16.4113C53.8032 15.9297 54.0384 15.2913 54.016 14.7089C54.1392 14.9441 54.24 15.2017 54.3072 15.4817C54.4416 16.1201 54.4192 16.7809 54.3744 17.4193C54.3408 18.0017 54.2848 18.5729 54.24 19.1329C51.2832 22.4481 46.5568 22.2465 43.9808 21.8209C40.9904 21.3281 39.1424 20.1633 38.4592 18.3489C38.4592 18.3489 38.4592 18.3489 38.448 18.3377C38.3584 16.9377 38.4032 15.8513 38.56 15.2465L38.5488 15.2353ZM44.104 31.1617L44.6416 31.6993L44.2608 32.0801L43.7232 31.5425L44.104 31.1617ZM46.1424 31.0385L46.2096 31.0049L46.6576 30.5569L47.072 30.9713L46.456 31.5873L45.7392 30.8705L46.3552 30.2545L46.512 30.4113L46.064 30.8593V30.9937L46.1312 31.0273L46.1424 31.0385ZM49.0096 29.1905L49.816 29.9969L49.2112 30.6017L48.472 29.8625L49.0096 29.3249V29.1905ZM50.4544 30.6353L49.8496 31.2401L49.3456 30.7361L49.9504 30.1313L50.4544 30.6353ZM49.0656 30.7473L48.6736 31.1393L47.9344 30.4001L48.3264 30.0081L49.0656 30.7473ZM48.5392 31.2737L48.0912 31.7217L47.352 30.9825L47.8 30.5345L48.5392 31.2737ZM47.8 30.2545L47.3856 29.8401L47.8112 29.4145V29.4929L48.192 29.8737L47.8 30.2657V30.2545ZM47.6544 30.3889L47.2064 30.8369L46.792 30.4225L47.24 29.9745L47.6544 30.3889ZM46.3104 31.7329L45.5936 32.4497V32.3713L44.9216 31.6993L45.5936 31.0273L46.3104 31.7441V31.7329ZM45.4592 32.5169L45.5152 32.5393L45.224 32.8305C44.8096 32.7633 44.4176 32.6849 44.048 32.5841L44.272 32.3601L44.5072 32.5953L44.5744 32.6289L44.6416 32.5953V32.4609L44.4064 32.2257L44.7872 31.8449L45.4592 32.5169ZM44.1264 32.2145L43.8688 32.4721V32.5393C43.7792 32.5057 43.6896 32.4721 43.6 32.4385L43.6672 32.4161V32.2817L43.3312 31.9457L43.5888 31.6881L44.1264 32.2257V32.2145ZM43.5328 32.4049H43.544C43.376 32.3489 43.2192 32.2705 43.0624 32.1921L43.1856 32.0689L43.5216 32.4049H43.5328ZM45.4704 32.8529L46.456 31.8673L47.2288 32.6401L47.296 32.6737L47.3632 32.6401V32.5057L46.5904 31.7329L47.2064 31.1169L47.9456 31.8561L47.4192 32.3825V32.5281L47.4864 32.5505L47.5536 32.5281L48.08 32.0017L48.4496 32.3713L48.5168 32.4049L48.584 32.3713V32.2369L48.2144 31.8673L48.6624 31.4193L49.3792 32.1361C48.2256 32.7073 46.6464 33.0097 45.4592 32.8641L45.4704 32.8529ZM49.5808 32.0465L48.8192 31.2849L49.2112 30.8929L50.0624 31.7441C50.0624 31.7441 50.0288 31.7777 50.0064 31.7889C49.872 31.8785 49.7376 31.9681 49.5808 32.0465ZM50.208 31.6097L49.984 31.3857L50.5888 30.7809L50.7904 30.9825C50.6224 31.2177 50.4208 31.4193 50.1968 31.6097H50.208ZM50.7344 30.6353L51.4288 29.9409C51.2832 30.2433 51.1152 30.5345 50.9136 30.8257L50.7232 30.6353H50.7344ZM51.496 29.7953V29.7281H51.3616L50.6 30.4897L50.0848 29.9745V29.8625H49.9728L48.8752 28.7649H48.7296V28.8993L48.9984 29.1681H48.864L48.3264 29.7057L47.9456 29.3249H47.8672L48.1136 29.0785V28.9441H47.9792L47.2512 29.6833L47.1392 29.5713H47.0048V29.7057L47.1168 29.8177L46.6688 30.2657L46.512 30.1089L46.7472 29.8737V29.7393H46.6016L46.3776 29.9745L46.2544 29.8513H46.12V29.9969L46.2432 30.1201L45.6272 30.7361L45.2912 30.4001H45.1568V30.5345L45.4928 30.8705L44.8208 31.5425L44.2832 31.0049L44.8656 30.4225V30.2769H44.7312L43.6336 31.3745L43.376 31.1169H43.2416V31.2513L43.4992 31.5089L43.2416 31.7665L42.7824 31.3073H42.648V31.4417L43.1072 31.9009L42.9504 32.0577C42.8608 32.0017 42.7712 31.9569 42.6816 31.8897C41.9648 31.3297 41.5392 30.4337 41.2032 29.6385C39.5904 25.9873 38.8064 22.1905 38.5152 19.3457C39.456 20.8129 41.248 21.7761 43.8912 22.2129C44.6864 22.3473 45.672 22.4481 46.736 22.4481C49.1552 22.4481 52.0112 21.8769 54.1504 19.7601C54.0048 21.1377 53.8032 22.4705 53.5232 23.7921L53.1872 23.4449H53.0416V23.5793L53.4672 24.0049C53.4224 24.1841 53.3888 24.3633 53.344 24.5425V24.4977L53.1536 24.3073L53.2768 24.1841V24.0497H53.1424L53.0192 24.1729L52.8288 23.9825H52.6944V24.1281L52.8848 24.3185L52.4256 24.7777V24.8897H52.3472V25.0241L52.8848 25.5617L52.952 25.5953L53.0192 25.5617V25.4273L52.5376 24.9345H52.5712L53.0304 24.4641L53.2208 24.6545L53.288 24.6881L53.3328 24.6657C53.1312 25.4609 52.896 26.2561 52.616 27.0513V26.9729L52.0448 26.4017L52.448 25.9985L52.728 26.2897L52.7952 26.3121L52.8624 26.2897V26.1553L52.5824 25.8753L52.7504 25.7073V25.5729H52.6048L52.448 25.7297L52.1904 25.4721H52.0448V25.6065L52.3024 25.8641L51.888 26.2785H51.776V26.3905L51.7536 26.4129V26.5473L51.8208 26.5809L51.888 26.5473H51.8992L52.4704 27.1073L52.5376 27.1409L52.5824 27.1185C52.5264 27.2753 52.4704 27.4321 52.4144 27.6001H52.3248L52.112 27.8129L51.3168 27.0177H51.1824V27.1633L51.9776 27.9585L51.4624 28.4737L50.9472 27.9585L51.3056 27.6001V27.4545H51.1712L50.8128 27.8129L50.7232 27.7233H50.5776V27.8689L50.6672 27.9585L50.1072 28.5185L49.8272 28.2385H49.6816V28.3729L49.9616 28.6529L49.5136 29.1009V29.2353L49.5808 29.2689L49.648 29.2353L50.096 28.7873L51.104 29.7953L51.1712 29.8289L51.2384 29.7953V29.6609L50.824 29.2465L50.88 29.2689L50.9472 29.2353L51.4512 28.7313L51.7088 28.9889L51.776 29.0113L51.832 28.9889C51.7648 29.1345 51.7088 29.2801 51.6416 29.4369C51.5856 29.5489 51.5296 29.6721 51.4736 29.7841L51.496 29.7953ZM50.824 29.2353L50.2416 28.6529L50.8016 28.0929L51.3168 28.6081L50.8128 29.1121V29.2465L50.824 29.2353ZM51.8544 28.9777V28.8545L51.5968 28.5969L52.3136 27.8801C52.1792 28.2385 52.0224 28.6081 51.8544 28.9665V28.9777ZM52.9744 27.2081L53.064 27.2977L52.8848 27.4769V27.5553C52.8848 27.5553 52.8624 27.5553 52.8512 27.5553C52.896 27.4433 52.9296 27.3313 52.9744 27.2081ZM53.2432 27.4769L53.288 27.4993C53.288 27.4993 53.176 27.5105 53.12 27.5217L53.1984 27.4433L53.2432 27.4881V27.4769ZM57.1968 24.1841C56.2896 25.7185 55.192 27.1521 53.344 27.4993H53.3776V27.3425L53.344 27.3089L53.8592 26.7937L53.8816 26.7713V26.6369L53.344 26.0993C53.344 26.0993 53.3664 26.0321 53.3776 25.9985L53.4336 25.9761L53.6464 25.7633L53.7472 25.8641L53.8144 25.8977L53.8816 25.8641V25.7297L53.7808 25.6289L54.1616 25.2481L54.2288 25.2817L54.296 25.2481V25.1137L54.0944 24.9121L54.3744 24.6321V24.4865H54.24L53.96 24.7665L53.7696 24.5761C54.7552 24.3969 55.6624 23.8593 56.2672 23.0529C57.32 21.6641 57.2752 19.6929 56.536 18.9313C56.2672 18.6513 55.864 18.4945 55.4496 18.5169C55.3488 18.5169 55.2592 18.5617 55.1584 18.5841L55.0016 18.4273L55.2368 18.1921L55.2704 18.2257L55.3376 18.2481L55.4048 18.2257V18.0801L55.3376 18.0129V17.9345H55.2592L54.912 17.5761H54.7664V17.7105L55.0912 18.0353L54.856 18.2705L54.6992 18.1137C54.7216 17.8897 54.7328 17.6769 54.7552 17.4529C54.7552 17.3073 54.7776 17.1505 54.7776 17.0049L54.968 17.1953V17.3073L55.0352 17.3409L55.08 17.3185L55.4272 17.6657L55.4944 17.6993L55.5616 17.6657V17.5313L55.2256 17.1953L55.5728 16.8593V16.7249H55.4384L55.0912 17.0609L54.8672 16.8369C55.7968 16.4449 57.0512 16.7921 57.7792 17.6657C59.0448 19.1889 58.8432 21.3953 57.1856 24.2065L57.1968 24.1841Z" fill="white"/>
<path d="M43.32 25.1809V25.0465H43.1744L42.4688 25.7521L41.976 25.2593L42.7152 24.5089V24.3745H42.5808L41.8304 25.1137L41.6624 24.9457H41.5168V25.0801L41.696 25.2593L41.248 25.7073V25.8417L41.3152 25.8753L41.3824 25.8417L41.8304 25.3937L42.3344 25.8977L41.976 26.2561V26.3905L42.0432 26.4241L42.1104 26.3905L42.4688 26.0321L43.2528 26.8161L43.3312 26.8497L43.3984 26.8161V26.6817L42.6144 25.8977L43.32 25.1809Z" fill="white"/>
<path d="M42.1104 26.8384V26.984L42.8384 27.7008L42.9056 27.7344L42.9728 27.7008V27.5664L42.2448 26.8384H42.1104Z" fill="white"/>
<path d="M44.3729 25.2033V25.0577H44.2385L44.0257 25.2705L43.2193 24.4641H43.0737V24.5985L43.8913 25.4049L43.3873 25.9089V26.0433L43.4545 26.0769L43.5217 26.0433L44.0257 25.5505L44.3393 25.8641L44.4065 25.8865L44.4737 25.8641V25.7185L44.1601 25.4049L44.3729 25.2033Z" fill="white"/>
<path d="M40.117 18.2257C40.0274 18.3153 39.949 18.3937 39.8818 18.5057L39.9154 18.6401H39.9714L40.0498 18.6065C40.117 18.5057 40.1954 18.4049 40.285 18.3265C40.6322 18.5281 40.9906 18.6961 41.3602 18.8641L41.1586 19.0433V19.1889L41.2258 19.2225L41.293 19.2001L41.5618 18.9649C41.9986 19.1441 42.4466 19.3121 42.9058 19.4353L42.6818 19.6929V19.8273L42.7602 19.8497L42.8386 19.8161L43.1298 19.4913C43.5218 19.6033 43.925 19.6817 44.3282 19.7489C44.2834 19.8385 44.2386 19.9169 44.205 20.0177L44.2722 20.1409H44.2946L44.3842 20.0737C44.4178 19.9729 44.4738 19.8833 44.5186 19.7825C44.8098 19.8273 45.101 19.8833 45.3922 19.9057C45.5938 19.9169 45.7954 19.9281 45.997 19.9281L45.9074 20.1073L45.9522 20.2417H45.997L46.0866 20.1969L46.221 19.9281C46.221 19.9281 46.2882 19.9281 46.3218 19.9281C46.7474 19.9281 47.1618 19.8945 47.5762 19.8609L47.5538 19.9281L47.6098 20.0513H47.6434L47.733 19.9953L47.789 19.8385C48.3266 19.7713 48.853 19.6593 49.3794 19.5249L49.4018 19.6705L49.5026 19.7601H49.5138L49.6034 19.6481L49.581 19.4689C50.309 19.2673 51.0258 19.0209 51.6978 18.6849L51.7426 18.5505L51.6082 18.5057C51.2946 18.6625 50.9698 18.7745 50.645 18.8977L50.589 18.3825L50.477 18.2929L50.3874 18.4049L50.4546 18.9761C50.1522 19.0881 49.8498 19.1777 49.5474 19.2673L49.5138 19.0209L49.4018 18.9313L49.3122 19.0433L49.3458 19.3233C48.853 19.4465 48.3714 19.5473 47.8674 19.6145L47.9794 19.3009L47.9234 19.1777L47.8002 19.2337L47.6546 19.6369C47.2178 19.6817 46.7698 19.7153 46.333 19.7153L46.5794 19.2449L46.5346 19.1105L46.4002 19.1553L46.109 19.7153C45.8738 19.7153 45.6498 19.7265 45.4146 19.7153C45.1458 19.6929 44.877 19.6369 44.6082 19.6033C44.6978 19.4689 44.8098 19.3457 44.933 19.2337V19.0993L44.8098 19.0881C44.6418 19.2225 44.5186 19.3905 44.4066 19.5809C44.0258 19.5137 43.645 19.4353 43.2642 19.3457L43.3426 19.2561V19.1217H43.197L43.0514 19.2897C42.6034 19.1665 42.1666 19.0097 41.7298 18.8305L41.8418 18.7297V18.5953H41.7074L41.5282 18.7633C41.1698 18.6065 40.8114 18.4385 40.4642 18.2481C40.5202 18.2145 40.565 18.1697 40.6322 18.1361L40.677 18.0017L40.5426 17.9569C40.4418 18.0017 40.3634 18.0689 40.285 18.1361C40.005 17.9793 39.725 17.8225 39.4562 17.6433L39.3218 17.6657L39.3442 17.8001C39.5906 17.9681 39.8594 18.1137 40.117 18.2593V18.2257Z" fill="white"/>
</g>
<defs>
<clipPath id="clip0_22_683">
<path d="M38 8H59V22.8008C59 28.5998 54.299 33.3008 48.5 33.3008C42.701 33.3008 38 28.5998 38 22.8008V8Z" fill="white"/>
</clipPath>
</defs>
</svg>
