<svg width="98" height="69" viewBox="0 0 98 69" fill="none" xmlns="http://www.w3.org/2000/svg">
<path d="M19.0769 55.7248C18.4302 55.7248 17.8335 55.5748 17.2869 55.2748C16.7469 54.9681 16.3169 54.5448 15.9969 54.0048C15.6835 53.4581 15.5269 52.8448 15.5269 52.1648C15.5269 51.4848 15.6835 50.8748 15.9969 50.3348C16.3169 49.7948 16.7469 49.3748 17.2869 49.0748C17.8335 48.7681 18.4302 48.6148 19.0769 48.6148C19.7302 48.6148 20.3269 48.7681 20.8669 49.0748C21.4135 49.3748 21.8435 49.7948 22.1569 50.3348C22.4702 50.8748 22.6269 51.4848 22.6269 52.1648C22.6269 52.8448 22.4702 53.4581 22.1569 54.0048C21.8435 54.5448 21.4135 54.9681 20.8669 55.2748C20.3269 55.5748 19.7302 55.7248 19.0769 55.7248ZM19.0769 54.7348C19.5369 54.7348 19.9469 54.6315 20.3069 54.4248C20.6669 54.2115 20.9469 53.9115 21.1469 53.5248C21.3535 53.1315 21.4569 52.6781 21.4569 52.1648C21.4569 51.6515 21.3535 51.2015 21.1469 50.8148C20.9469 50.4281 20.6669 50.1315 20.3069 49.9248C19.9469 49.7181 19.5369 49.6148 19.0769 49.6148C18.6169 49.6148 18.2069 49.7181 17.8469 49.9248C17.4869 50.1315 17.2035 50.4281 16.9969 50.8148C16.7969 51.2015 16.6969 51.6515 16.6969 52.1648C16.6969 52.6781 16.7969 53.1315 16.9969 53.5248C17.2035 53.9115 17.4869 54.2115 17.8469 54.4248C18.2069 54.6315 18.6169 54.7348 19.0769 54.7348ZM24.8887 50.9448C25.0553 50.6648 25.2753 50.4481 25.5487 50.2948C25.8287 50.1348 26.1587 50.0548 26.5387 50.0548V51.2348H26.2487C25.802 51.2348 25.462 51.3481 25.2287 51.5748C25.002 51.8015 24.8887 52.1948 24.8887 52.7548V55.6548H23.7487V50.1448H24.8887V50.9448ZM29.8065 50.0548C30.2332 50.0548 30.6099 50.1415 30.9365 50.3148C31.2699 50.4815 31.5299 50.6915 31.7165 50.9448V50.1448H32.8665V55.7448C32.8665 56.2515 32.7599 56.7015 32.5465 57.0948C32.3332 57.4948 32.0232 57.8081 31.6165 58.0348C31.2165 58.2615 30.7365 58.3748 30.1765 58.3748C29.4299 58.3748 28.8099 58.1981 28.3165 57.8448C27.8232 57.4981 27.5432 57.0248 27.4765 56.4248H28.6065C28.6932 56.7115 28.8765 56.9415 29.1565 57.1148C29.4432 57.2948 29.7832 57.3848 30.1765 57.3848C30.6365 57.3848 31.0065 57.2448 31.2865 56.9648C31.5732 56.6848 31.7165 56.2781 31.7165 55.7448V54.8248C31.5232 55.0848 31.2599 55.3048 30.9265 55.4848C30.5999 55.6581 30.2265 55.7448 29.8065 55.7448C29.3265 55.7448 28.8865 55.6248 28.4865 55.3848C28.0932 55.1381 27.7799 54.7981 27.5465 54.3648C27.3199 53.9248 27.2065 53.4281 27.2065 52.8748C27.2065 52.3215 27.3199 51.8315 27.5465 51.4048C27.7799 50.9781 28.0932 50.6481 28.4865 50.4148C28.8865 50.1748 29.3265 50.0548 29.8065 50.0548ZM31.7165 52.8948C31.7165 52.5148 31.6365 52.1848 31.4765 51.9048C31.3232 51.6248 31.1199 51.4115 30.8665 51.2648C30.6132 51.1181 30.3399 51.0448 30.0465 51.0448C29.7532 51.0448 29.4799 51.1181 29.2265 51.2648C28.9732 51.4048 28.7665 51.6148 28.6065 51.8948C28.4532 52.1681 28.3765 52.4948 28.3765 52.8748C28.3765 53.2548 28.4532 53.5881 28.6065 53.8748C28.7665 54.1615 28.9732 54.3815 29.2265 54.5348C29.4865 54.6815 29.7599 54.7548 30.0465 54.7548C30.3399 54.7548 30.6132 54.6815 30.8665 54.5348C31.1199 54.3881 31.3232 54.1748 31.4765 53.8948C31.6365 53.6081 31.7165 53.2748 31.7165 52.8948ZM33.9839 52.8748C33.9839 52.3215 34.0972 51.8315 34.3239 51.4048C34.5572 50.9781 34.8706 50.6481 35.2639 50.4148C35.6639 50.1748 36.1039 50.0548 36.5839 50.0548C37.0172 50.0548 37.3939 50.1415 37.7139 50.3148C38.0406 50.4815 38.3006 50.6915 38.4939 50.9448V50.1448H39.6439V55.6548H38.4939V54.8348C38.3006 55.0948 38.0372 55.3115 37.7039 55.4848C37.3706 55.6581 36.9906 55.7448 36.5639 55.7448C36.0906 55.7448 35.6572 55.6248 35.2639 55.3848C34.8706 55.1381 34.5572 54.7981 34.3239 54.3648C34.0972 53.9248 33.9839 53.4281 33.9839 52.8748ZM38.4939 52.8948C38.4939 52.5148 38.4139 52.1848 38.2539 51.9048C38.1006 51.6248 37.8972 51.4115 37.6439 51.2648C37.3906 51.1181 37.1172 51.0448 36.8239 51.0448C36.5306 51.0448 36.2572 51.1181 36.0039 51.2648C35.7506 51.4048 35.5439 51.6148 35.3839 51.8948C35.2306 52.1681 35.1539 52.4948 35.1539 52.8748C35.1539 53.2548 35.2306 53.5881 35.3839 53.8748C35.5439 54.1615 35.7506 54.3815 36.0039 54.5348C36.2639 54.6815 36.5372 54.7548 36.8239 54.7548C37.1172 54.7548 37.3906 54.6815 37.6439 54.5348C37.8972 54.3881 38.1006 54.1748 38.2539 53.8948C38.4139 53.6081 38.4939 53.2748 38.4939 52.8948ZM43.9212 50.0548C44.3546 50.0548 44.7412 50.1448 45.0812 50.3248C45.4279 50.5048 45.6979 50.7715 45.8912 51.1248C46.0846 51.4781 46.1812 51.9048 46.1812 52.4048V55.6548H45.0512V52.5748C45.0512 52.0815 44.9279 51.7048 44.6812 51.4448C44.4346 51.1781 44.0979 51.0448 43.6712 51.0448C43.2446 51.0448 42.9046 51.1781 42.6512 51.4448C42.4046 51.7048 42.2812 52.0815 42.2812 52.5748V55.6548H41.1412V50.1448H42.2812V50.7748C42.4679 50.5481 42.7046 50.3715 42.9912 50.2448C43.2846 50.1181 43.5946 50.0548 43.9212 50.0548ZM48.2154 49.4148C48.0087 49.4148 47.8354 49.3448 47.6954 49.2048C47.5554 49.0648 47.4854 48.8915 47.4854 48.6848C47.4854 48.4781 47.5554 48.3048 47.6954 48.1648C47.8354 48.0248 48.0087 47.9548 48.2154 47.9548C48.4154 47.9548 48.5854 48.0248 48.7254 48.1648C48.8654 48.3048 48.9354 48.4781 48.9354 48.6848C48.9354 48.8915 48.8654 49.0648 48.7254 49.2048C48.5854 49.3448 48.4154 49.4148 48.2154 49.4148ZM48.7754 50.1448V55.6548H47.6354V50.1448H48.7754ZM49.8921 52.8948C49.8921 52.3281 50.0054 51.8315 50.2321 51.4048C50.4654 50.9715 50.7854 50.6381 51.1921 50.4048C51.5988 50.1715 52.0654 50.0548 52.5921 50.0548C53.2588 50.0548 53.8088 50.2148 54.2421 50.5348C54.6821 50.8481 54.9788 51.2981 55.1321 51.8848H53.9021C53.8021 51.6115 53.6421 51.3981 53.4221 51.2448C53.2021 51.0915 52.9254 51.0148 52.5921 51.0148C52.1254 51.0148 51.7521 51.1815 51.4721 51.5148C51.1988 51.8415 51.0621 52.3015 51.0621 52.8948C51.0621 53.4881 51.1988 53.9515 51.4721 54.2848C51.7521 54.6181 52.1254 54.7848 52.5921 54.7848C53.2521 54.7848 53.6888 54.4948 53.9021 53.9148H55.1321C54.9721 54.4748 54.6721 54.9215 54.2321 55.2548C53.7921 55.5815 53.2454 55.7448 52.5921 55.7448C52.0654 55.7448 51.5988 55.6281 51.1921 55.3948C50.7854 55.1548 50.4654 54.8215 50.2321 54.3948C50.0054 53.9615 49.8921 53.4615 49.8921 52.8948ZM62.9558 48.7048V49.6348H60.0058V51.6848H62.3058V52.6148H60.0058V55.6548H58.8658V48.7048H62.9558ZM66.4023 55.7448C65.8823 55.7448 65.4123 55.6281 64.9923 55.3948C64.5723 55.1548 64.2423 54.8215 64.0023 54.3948C63.7623 53.9615 63.6423 53.4615 63.6423 52.8948C63.6423 52.3348 63.7657 51.8381 64.0123 51.4048C64.259 50.9715 64.5957 50.6381 65.0223 50.4048C65.449 50.1715 65.9257 50.0548 66.4523 50.0548C66.979 50.0548 67.4557 50.1715 67.8823 50.4048C68.309 50.6381 68.6457 50.9715 68.8923 51.4048C69.139 51.8381 69.2623 52.3348 69.2623 52.8948C69.2623 53.4548 69.1357 53.9515 68.8823 54.3848C68.629 54.8181 68.2823 55.1548 67.8423 55.3948C67.409 55.6281 66.929 55.7448 66.4023 55.7448ZM66.4023 54.7548C66.6957 54.7548 66.969 54.6848 67.2223 54.5448C67.4823 54.4048 67.6923 54.1948 67.8523 53.9148C68.0123 53.6348 68.0923 53.2948 68.0923 52.8948C68.0923 52.4948 68.0157 52.1581 67.8623 51.8848C67.709 51.6048 67.5057 51.3948 67.2523 51.2548C66.999 51.1148 66.7257 51.0448 66.4323 51.0448C66.139 51.0448 65.8657 51.1148 65.6123 51.2548C65.3657 51.3948 65.169 51.6048 65.0223 51.8848C64.8757 52.1581 64.8023 52.4948 64.8023 52.8948C64.8023 53.4881 64.9523 53.9481 65.2523 54.2748C65.559 54.5948 65.9423 54.7548 66.4023 54.7548ZM72.7793 55.7448C72.2593 55.7448 71.7893 55.6281 71.3693 55.3948C70.9493 55.1548 70.6193 54.8215 70.3793 54.3948C70.1393 53.9615 70.0193 53.4615 70.0193 52.8948C70.0193 52.3348 70.1426 51.8381 70.3893 51.4048C70.6359 50.9715 70.9726 50.6381 71.3993 50.4048C71.8259 50.1715 72.3026 50.0548 72.8293 50.0548C73.3559 50.0548 73.8326 50.1715 74.2593 50.4048C74.6859 50.6381 75.0226 50.9715 75.2693 51.4048C75.5159 51.8381 75.6393 52.3348 75.6393 52.8948C75.6393 53.4548 75.5126 53.9515 75.2593 54.3848C75.0059 54.8181 74.6593 55.1548 74.2193 55.3948C73.7859 55.6281 73.3059 55.7448 72.7793 55.7448ZM72.7793 54.7548C73.0726 54.7548 73.3459 54.6848 73.5993 54.5448C73.8593 54.4048 74.0693 54.1948 74.2293 53.9148C74.3893 53.6348 74.4693 53.2948 74.4693 52.8948C74.4693 52.4948 74.3926 52.1581 74.2393 51.8848C74.0859 51.6048 73.8826 51.3948 73.6293 51.2548C73.3759 51.1148 73.1026 51.0448 72.8093 51.0448C72.5159 51.0448 72.2426 51.1148 71.9893 51.2548C71.7426 51.3948 71.5459 51.6048 71.3993 51.8848C71.2526 52.1581 71.1793 52.4948 71.1793 52.8948C71.1793 53.4881 71.3293 53.9481 71.6293 54.2748C71.9359 54.5948 72.3193 54.7548 72.7793 54.7548ZM76.3862 52.8748C76.3862 52.3215 76.4996 51.8315 76.7262 51.4048C76.9596 50.9781 77.2729 50.6481 77.6662 50.4148C78.0662 50.1748 78.5096 50.0548 78.9962 50.0548C79.3562 50.0548 79.7096 50.1348 80.0562 50.2948C80.4096 50.4481 80.6896 50.6548 80.8962 50.9148V48.2548H82.0462V55.6548H80.8962V54.8248C80.7096 55.0915 80.4496 55.3115 80.1162 55.4848C79.7896 55.6581 79.4129 55.7448 78.9862 55.7448C78.5062 55.7448 78.0662 55.6248 77.6662 55.3848C77.2729 55.1381 76.9596 54.7981 76.7262 54.3648C76.4996 53.9248 76.3862 53.4281 76.3862 52.8748ZM80.8962 52.8948C80.8962 52.5148 80.8162 52.1848 80.6562 51.9048C80.5029 51.6248 80.2996 51.4115 80.0462 51.2648C79.7929 51.1181 79.5196 51.0448 79.2262 51.0448C78.9329 51.0448 78.6596 51.1181 78.4062 51.2648C78.1529 51.4048 77.9462 51.6148 77.7862 51.8948C77.6329 52.1681 77.5562 52.4948 77.5562 52.8748C77.5562 53.2548 77.6329 53.5881 77.7862 53.8748C77.9462 54.1615 78.1529 54.3815 78.4062 54.5348C78.6662 54.6815 78.9396 54.7548 79.2262 54.7548C79.5196 54.7548 79.7929 54.6815 80.0462 54.5348C80.2996 54.3881 80.5029 54.1748 80.6562 53.8948C80.8162 53.6081 80.8962 53.2748 80.8962 52.8948Z" fill="white"/>
<circle cx="48.3372" cy="20.3372" r="19.8372" stroke="white"/>
<g clip-path="url(#clip0_22_625)">
<path d="M58.6601 18.4601C58.8501 18.1601 59.0001 17.8301 59.0501 17.4501C59.1801 16.4001 58.5701 14.5201 55.5501 13.9401C55.6301 13.8201 55.7101 13.7101 55.7801 13.5701C55.9701 13.2201 54.4901 11.9701 52.6201 12.1801C52.1501 12.2301 51.6801 12.3701 51.2001 12.5801C51.2001 12.1901 50.9901 11.8101 50.6601 11.6001C50.3201 11.3801 49.8701 11.3501 49.5101 11.5201C49.6501 10.6601 49.9801 9.88008 50.3801 9.34008L50.4001 9.17008L50.2601 9.06008C49.4501 8.94008 48.5901 9.04008 47.7101 9.36008L47.6001 9.47008L47.6301 9.63008C47.9801 10.1101 48.2301 10.6601 48.3901 11.2301C47.9901 11.1701 47.4201 11.0601 47.0701 10.9101C46.9001 10.7601 46.7101 10.6301 46.4901 10.5301L46.2701 10.5901L46.2901 10.8101C46.4601 10.9801 46.6601 11.1001 46.8601 11.2001C47.0501 11.3901 47.1901 11.6301 47.2901 11.8901C46.9201 12.0101 46.6101 12.2501 46.3801 12.5601C46.0001 12.1401 45.4901 11.8401 44.9101 11.7301C44.1101 11.5701 43.2901 11.7801 42.6701 12.3001C42.0601 12.8001 41.7001 13.5701 41.7001 14.3501C39.0401 14.6301 38.0801 18.0001 40.0301 19.6801C39.7101 20.1201 39.4701 21.2801 40.0501 22.2601C40.3101 22.6901 40.6801 23.0201 41.1101 23.2601C40.7601 24.1401 40.6801 24.8901 40.8601 25.5401C41.0501 26.2001 41.5001 26.7601 42.1401 27.1001C42.4101 27.2501 42.7001 27.3301 43.0101 27.3901C43.0701 28.1301 43.1801 28.8201 43.6801 29.3101C44.1301 29.7601 44.8901 29.9601 45.6201 29.9601C45.8601 29.9601 46.0901 29.9301 46.3201 29.8901C46.9501 30.9701 48.0901 31.6101 49.3001 31.6101C50.8001 31.6101 51.9401 30.6801 52.1801 29.6001C52.3701 29.6301 52.5501 29.6601 52.7401 29.6601C52.9901 29.6601 53.2401 29.6301 53.4701 29.5701C54.5901 29.2701 55.4801 28.2901 55.6701 27.1501C56.4801 26.9401 57.1901 26.4501 57.6301 25.7501C58.2701 24.7301 58.2101 23.3901 57.5201 22.4701C58.0401 22.1601 58.5001 21.7501 58.7601 21.2901C59.2701 20.3801 59.2301 19.2501 58.6801 18.4501L58.6601 18.4601ZM58.6901 17.4001C58.4801 19.0801 56.3301 19.9001 55.2701 19.7701C54.9401 19.7301 54.6701 19.5901 54.4501 19.4001L54.7401 19.1101L54.7601 19.1301H54.8801V19.0001L54.8601 18.9801L54.9801 18.8601L54.8601 18.7401L54.7401 18.8601L54.5201 18.6401C54.5201 18.6401 54.5301 18.5501 54.5401 18.5101H54.6401L54.8301 18.3201L54.9701 18.4601H55.0901V18.3401L54.9501 18.2001L55.1101 18.0401V17.9101H54.9901L54.8301 18.0701L54.5501 17.7901C54.5501 17.6901 54.5501 17.6001 54.5301 17.4901L54.6801 17.3401L54.8101 17.4701L54.8701 17.4901L54.9301 17.4701V17.3401L54.8001 17.2101L54.9101 17.1001V16.9801H54.7901L54.6801 17.1001L54.4201 16.8401L54.7801 16.4801V16.3601H54.6501L54.3001 16.7101C54.2201 16.5101 54.1201 16.3201 54.0101 16.1301L54.1301 16.0101L54.3401 16.2201H54.4701V16.1001L54.2601 15.8901L54.6201 15.5301V15.5101L54.7001 15.5901V15.6501H54.7601L54.8901 15.7801H55.0101V15.6601L54.9101 15.5601L55.3001 15.1701L55.4401 15.3101H55.5601V15.1901L55.1301 14.7601L55.3901 14.5001L55.7801 14.8601L55.8401 14.8301V14.7001L55.4201 14.2801C58.2401 14.8001 58.8201 16.4901 58.7101 17.4201L58.6901 17.4001ZM57.8001 19.7701L57.5501 19.5201C57.6901 19.4401 57.8101 19.3501 57.9401 19.2501L58.1301 19.4401L57.8001 19.7701ZM55.7201 20.1201C55.9201 20.1001 56.1301 20.0701 56.3401 20.0101L55.9801 20.3801L55.7201 20.1201ZM55.2801 21.8401L55.0301 22.0901L54.9401 22.0001C54.9701 21.8501 54.9801 21.7001 54.9801 21.5501L55.2801 21.8501V21.8401ZM55.8201 23.1001L55.7101 22.9901C55.7801 22.9901 55.8501 22.9901 55.9201 22.9901L55.8101 23.1001H55.8201ZM54.7501 22.6101C54.8501 22.7101 54.9601 22.7901 55.0901 22.8501L54.8801 23.0601L54.6401 22.8201C54.6801 22.7501 54.7201 22.6901 54.7501 22.6201V22.6101ZM54.9001 22.2101L54.8701 22.2401C54.8701 22.2401 54.8801 22.2101 54.8801 22.2001H54.8901L54.9001 22.2101ZM54.5701 22.0401C54.2201 23.4901 52.5301 24.4501 51.2901 24.1401C50.7801 24.0101 50.3601 23.6401 50.1901 23.2001C50.1901 23.2001 50.2001 23.2001 50.2101 23.2101H50.3301V23.0801C50.3301 23.0801 50.2901 23.0401 50.2801 23.0201L50.5101 22.7901H50.5401V22.7601L50.5601 22.7401L50.5401 22.7201V22.6701C50.5401 22.6701 50.4301 22.5501 50.3701 22.5001C50.3801 22.4601 50.3901 22.4201 50.4001 22.3901L50.5801 22.2101H50.7001V22.0901L50.7301 22.0601L50.6101 21.9401L50.5801 21.9701L50.5001 21.8901C50.5001 21.8101 50.5101 21.7301 50.5201 21.6501L50.6201 21.7501H50.7401V21.6201L50.6601 21.5401L50.8301 21.3701L50.7101 21.2401V21.1601L50.4701 20.9201C50.4501 20.8101 50.4101 20.7101 50.3701 20.6101C50.5401 20.6701 50.7201 20.7101 50.9001 20.7401L51.1801 21.0201C51.1801 21.0201 51.1401 21.1001 51.1801 21.1401H51.3001L51.3401 21.1001H51.3901V21.0501L51.5201 20.9201L51.4001 20.8001C51.4001 20.8001 51.3401 20.8501 51.3101 20.8801L51.1901 20.7601C51.4401 20.7801 51.6801 20.7801 51.9201 20.7601L52.0101 20.8501L51.9501 20.9101V21.0401H52.0701L52.1301 20.9801L52.1801 21.0301H52.3001V20.9101L52.2501 20.8601L52.3301 20.7801V20.7001C52.4501 20.6701 52.5701 20.6501 52.6901 20.6101L52.7601 20.6801L52.7001 20.7401V20.8601L52.7601 20.8901L52.8201 20.8601L52.8801 20.8001L52.9701 20.8901L53.0301 20.9201L53.0901 20.8901V20.7701L53.0001 20.6801L53.2601 20.4201V20.3501C53.2601 20.3501 53.3101 20.3201 53.3401 20.3001L53.5501 20.5101V20.5601H53.6001L53.6401 20.6001H53.7701V20.4801L53.9501 20.3001L53.8201 20.1801L53.6401 20.3601L53.5001 20.2101C53.5801 20.1501 53.6501 20.0901 53.7201 20.0301L53.9601 20.2701H54.0801V20.1501L53.8401 19.9101C54.4401 20.3801 54.7401 21.2501 54.5501 22.0501L54.5701 22.0401ZM52.4501 24.4601C52.5901 24.4301 52.7401 24.3801 52.8801 24.3301V24.3601L53.0401 24.5201L52.7801 24.7801L52.4601 24.4601H52.4501ZM50.6101 28.1401C49.5101 28.6401 48.1001 28.3701 47.2601 27.5001C46.8701 27.0901 46.6201 26.5701 46.5101 26.0101H46.6001L46.7401 26.1401H46.8601V26.0101L46.7201 25.8701L46.9501 25.6401L46.8501 25.5401H46.9101V25.4101L46.4901 24.9901H46.5901L46.9201 24.6601L47.0901 24.8301L47.0401 24.8801L47.1601 25.0101L47.2201 24.9501H47.2301L47.3601 24.9601V24.8301H47.3501L47.6401 24.5301V24.4301L48.0001 24.7901H48.0901V24.8601H48.2101L48.5901 24.4801L48.8601 24.7501L48.9201 24.7701L48.9801 24.7501V24.6201L48.5701 24.2101C48.5701 24.2101 48.6401 24.2001 48.6701 24.1801C48.8301 24.1201 48.9801 24.0501 49.1201 23.9601L49.3901 24.2301L49.1401 24.4701V24.5901L49.2001 24.6201L49.2601 24.5901L49.5001 24.3501L49.6001 24.4501L49.6601 24.4701L49.7201 24.4501V24.3201L49.6201 24.2201L49.8001 24.0401V23.9201H49.6801L49.5001 24.1001L49.2701 23.8701C49.4301 23.7701 49.5701 23.6501 49.7001 23.5201L50.0801 23.8801C50.0301 23.9301 49.9801 23.9901 49.9301 24.0301V24.1501L49.9901 24.1801L50.0501 24.1501L50.2401 23.9601V23.9101C50.4701 24.1401 50.7801 24.3401 51.1901 24.4501C51.3701 24.5001 51.5601 24.5201 51.7601 24.5201C51.8301 24.5201 51.9001 24.5101 51.9701 24.5001C52.6201 25.8001 52.0401 27.4501 50.5901 28.1001L50.6101 28.1401ZM50.5301 28.7301L50.4801 28.7501L50.3301 28.6001C50.3301 28.6001 50.3701 28.5901 50.3801 28.5801C50.4201 28.6301 50.4701 28.6701 50.5201 28.7201L50.5301 28.7301ZM49.7301 28.8701V28.8901L49.5701 28.7301C49.6801 28.7301 49.7901 28.7301 49.8901 28.7101L49.7301 28.8701ZM48.7201 28.8601L48.4401 28.5801C48.5901 28.6201 48.7401 28.6601 48.8901 28.6901L48.7201 28.8601ZM46.2601 26.4601L46.1601 26.5001C46.1601 26.5001 46.0801 26.4201 46.0401 26.4001C46.1001 26.3501 46.1501 26.2801 46.2101 26.2301C46.2301 26.3001 46.2401 26.3801 46.2701 26.4501L46.2601 26.4601ZM44.9101 23.2501L44.7201 23.0601C44.7201 23.0601 44.8001 23.0101 44.8401 22.9901C44.8901 23.0601 44.9301 23.1201 44.9801 23.1901L44.9101 23.2601V23.2501ZM44.2601 23.3601L44.2301 23.3301C44.2301 23.3301 44.3001 23.3001 44.3401 23.2801L44.2601 23.3601ZM45.0301 22.6501L45.0201 22.6401C45.0201 22.6401 45.0101 22.6301 45.0001 22.6201C44.7101 22.1001 44.6801 21.4801 44.8901 20.9901L45.2001 21.3001V21.4101H45.3301H45.4301V21.3101L45.6001 21.1401L45.9701 21.5101H46.0901V21.4901H46.1601L46.3401 21.3101L46.5701 21.5401H46.6901V21.4101L46.4601 21.1801L46.5301 21.1101C46.6501 21.0901 46.7601 21.0701 46.8801 21.0401L46.9601 21.1201L46.8301 21.2501V21.3701H46.9501L47.0801 21.2401L47.1401 21.3001H47.2701V21.1701L47.2101 21.1101L47.5001 20.8201V20.7901C47.5001 20.7901 47.5201 20.7901 47.5301 20.7701L47.8101 21.0201L47.8701 20.9901V20.8701H47.9301L48.3001 20.5001L48.3901 20.5901H48.5101V20.4601L48.2601 20.2101C48.3601 20.1101 48.4501 20.0001 48.5301 19.8901L48.6501 20.0101L48.5501 20.1101V20.2401H48.6701L48.8001 20.1101H48.8701V20.0401L48.9601 19.9501L48.8401 19.8301L48.7801 19.8901L48.6401 19.7501C48.6901 19.6701 48.7401 19.5801 48.7901 19.4901C48.8201 19.5301 48.8401 19.5601 48.8701 19.6001L48.8501 19.6201L48.9501 19.7201L48.9701 19.7401L49.1701 19.9401H49.1901C49.4001 20.1201 49.6301 20.2801 49.8901 20.4101C50.5701 21.7401 49.9201 23.3701 48.5101 23.8601C47.2801 24.2901 45.6401 23.7201 44.9901 22.6201L45.0301 22.6501ZM44.5801 20.8601H44.5301L44.4401 20.9401L44.3001 20.8001L44.4201 20.6801V20.6601C44.4801 20.7001 44.5401 20.7401 44.6101 20.7701C44.6001 20.8001 44.5901 20.8201 44.5801 20.8501V20.8601ZM43.6501 20.0001C43.6501 20.0001 43.7201 20.0701 43.7501 20.1101L43.6601 20.2001L43.5401 20.0801C43.5401 20.0801 43.6201 20.0301 43.6601 20.0001H43.6501ZM43.4901 19.0001C43.4301 18.8301 43.3901 18.6601 43.3601 18.4801H43.3801L43.4401 18.4601L43.5301 18.3701L43.5701 18.4101L43.6301 18.4401L43.6901 18.4101V18.2901L43.6501 18.2501L44.0401 17.8601L43.9101 17.7401L43.5301 18.1301L43.3301 17.9301C43.3301 17.7301 43.3701 17.5301 43.4201 17.3401L43.5201 17.4401L43.7901 17.7101L43.8501 17.7301L43.9101 17.7101V17.5801L43.7001 17.3701L44.1001 16.9701L44.2701 17.1401H44.3901V17.0201L44.2201 16.8501L44.3801 16.6901L44.2601 16.5701L44.1001 16.7301L43.8101 16.4401C43.8801 16.3301 43.9601 16.2301 44.0501 16.1401L44.7501 16.8401H44.8801V16.7101L44.1701 16.0001V15.8601C44.3401 15.9001 44.5001 15.9501 44.6601 15.9801L44.9001 16.2201L44.6601 16.4601L44.7801 16.5901L45.0201 16.3501L45.4101 16.7401H45.5301V16.6101L45.9301 16.2001L46.3101 16.5801L46.3701 16.6101L46.4301 16.5801V16.5401L46.4701 16.5201L46.7401 16.2501L46.9601 16.4701L47.0201 16.5001L47.0801 16.4701V16.3501L46.8601 16.1301L46.9301 16.0601V15.9401H46.8601C46.9501 15.9201 47.0401 15.8801 47.1401 15.8601L47.2501 15.9701L47.0601 16.1601V16.2801L47.1201 16.3101L47.1801 16.2801L47.3701 16.0901L47.4801 16.2001L47.5401 16.2201L47.6001 16.2001V16.0701L47.4601 15.9301V15.8601H47.3901L47.3201 15.7901C47.3201 15.7901 47.4201 15.7601 47.4601 15.7401C47.6001 16.1601 47.9601 16.5201 48.4601 16.7401C48.5601 16.7801 48.6601 16.8101 48.7701 16.8401C48.3801 17.3601 48.2401 18.0801 48.4301 18.7501C48.4801 18.9101 48.5401 19.0501 48.6101 19.1901H48.5701C47.5401 21.3701 44.3201 21.2901 43.4601 18.9901L43.4901 19.0001ZM43.3201 18.1701L43.4001 18.2501L43.3301 18.3201C43.3301 18.2701 43.3201 18.2201 43.3201 18.1701ZM43.7201 16.6001L43.9801 16.8601L43.5801 17.2601L43.5301 17.2001H43.4601C43.5201 16.9901 43.6101 16.7901 43.7201 16.6001ZM42.5601 14.7201C43.0001 14.6601 43.3801 14.3801 43.7801 14.1101C44.4501 13.6401 45.1401 13.1501 46.2801 13.4201C46.5701 13.4901 46.8501 13.6201 47.1001 13.7801V13.8401L47.2101 13.8801H47.2201C47.4401 14.0401 47.6301 14.2301 47.7801 14.4501C47.5301 14.7101 47.4001 15.0601 47.4201 15.4201C45.8601 16.0301 43.9401 15.7501 42.5601 14.7301V14.7201ZM42.6201 15.1801C42.6201 15.1801 42.6201 15.1801 42.6301 15.1801H42.6201ZM46.3801 16.3901L46.0501 16.0601C46.2101 16.0501 46.3701 16.0201 46.5301 16.0001V16.0301L46.6401 16.1401L46.3801 16.4001V16.3901ZM45.1501 16.2301L45.2601 16.1201L45.1901 16.0501C45.3901 16.0701 45.6001 16.0701 45.8001 16.0701L45.4001 16.4801L45.1401 16.2201L45.1501 16.2301ZM45.0301 16.1001L44.9501 16.0201C44.9501 16.0201 45.0401 16.0301 45.0901 16.0401L45.0301 16.1001ZM46.7201 15.9701C46.7201 15.9701 46.7801 15.9701 46.8101 15.9501L46.7601 16.0101L46.7201 15.9701ZM51.7001 18.7701L51.7901 18.7901L51.9101 18.7401C52.3801 18.2901 52.8201 17.8401 52.9001 17.1301C52.9801 16.5101 52.8401 15.8701 52.5301 15.3301C52.6701 15.3401 52.8101 15.3501 52.9601 15.3501C53.6301 16.0401 54.0601 16.7901 54.1901 17.5401C54.3901 18.6801 53.9201 20.2301 51.9201 20.4201C50.2701 20.5801 49.1101 19.7201 48.8101 18.6701C48.6301 18.0601 48.7801 17.4001 49.1701 16.9601C49.3401 17.0001 49.5201 17.0301 49.6901 17.0601C50.2301 17.1501 50.7401 17.2401 51.1501 17.5401C51.4501 17.7601 51.7201 18.1701 51.6301 18.5801L51.7201 18.7701H51.7001ZM54.8201 14.6901L55.1601 15.0301L54.7701 15.4201L54.3401 14.9901C54.5101 14.9001 54.6601 14.8001 54.8101 14.6901H54.8201ZM54.5001 15.3901H54.4801L54.1101 15.7501L53.6101 15.2501C53.8101 15.2001 54.0001 15.1401 54.1901 15.0601V15.0901L54.4901 15.3901H54.5001ZM53.4101 15.3001L53.9901 15.8801L53.9001 15.9701C53.7501 15.7401 53.5801 15.5201 53.3901 15.3001C53.3901 15.3001 53.4001 15.3001 53.4101 15.3001ZM54.3201 19.2901C54.3901 19.1501 54.4401 19.0101 54.4801 18.8501L54.6201 18.9901L54.3201 19.2901ZM54.5801 18.0701L54.7101 18.2001L54.5601 18.3501C54.5601 18.2601 54.5701 18.1701 54.5701 18.0701H54.5801ZM54.4801 17.3001C54.4601 17.2301 54.4501 17.1701 54.4301 17.1001L54.5601 17.2301L54.4901 17.3001H54.4801ZM52.9301 20.5201L52.8901 20.5601L52.8701 20.5401C52.8701 20.5401 52.9001 20.5301 52.9201 20.5201H52.9301ZM50.3401 22.7301L50.2301 22.8401C50.2601 22.7901 50.2901 22.7401 50.3101 22.6901C50.3201 22.7001 50.3301 22.7101 50.3501 22.7301H50.3401ZM49.8801 23.3701C49.9101 23.4401 49.9401 23.5201 49.9901 23.6001L49.8201 23.4301C49.8201 23.4301 49.8601 23.3901 49.8701 23.3601L49.8801 23.3701ZM50.5501 21.4101C50.5501 21.3501 50.5301 21.2801 50.5201 21.2201L50.5901 21.2901H50.6701L50.5501 21.4101ZM47.8401 20.8201L47.7201 20.7001C47.8801 20.6001 48.0301 20.4901 48.1801 20.3601L48.2101 20.3901L47.8401 20.7601V20.8201ZM47.1401 20.9801L47.1201 21.0001H47.1101C47.1101 21.0001 47.1301 20.9801 47.1501 20.9801H47.1401ZM46.0801 21.3501L45.8801 21.1501C46.0101 21.1501 46.1301 21.1501 46.2601 21.1501V21.1701L46.0801 21.3501ZM45.3301 21.1701L45.1701 21.0101C45.2501 21.0401 45.3401 21.0601 45.4201 21.0701L45.3301 21.1601V21.1701ZM48.4601 24.3901L48.1201 24.7301V24.7001L47.8001 24.3801C47.9901 24.3801 48.1801 24.3401 48.3701 24.3001L48.4601 24.3901ZM47.6101 24.4301H47.5101L47.2201 24.7201L47.0201 24.5201V24.4501H46.9501L46.7701 24.2701C47.0301 24.3401 47.2901 24.3701 47.5501 24.3801L47.6001 24.4301H47.6101ZM46.6301 24.3801L46.8001 24.5501L46.5001 24.8501C46.5301 24.6901 46.5701 24.5401 46.6301 24.3901V24.3801ZM46.5301 25.6901L46.4701 25.7501C46.4501 25.5701 46.4501 25.3901 46.4601 25.2101L46.7901 25.5401L46.5901 25.7401L46.5301 25.6801V25.6901ZM54.1001 19.6201C54.1001 19.6201 54.1101 19.6001 54.1201 19.6001C54.2301 19.7101 54.3501 19.8101 54.5001 19.8901L54.4401 19.9501C54.3401 19.8301 54.2301 19.7201 54.1101 19.6301L54.1001 19.6201ZM55.3101 14.2401L55.2201 14.3301L55.2501 14.3501L54.9901 14.6101L54.9501 14.5701C55.0701 14.4701 55.1901 14.3501 55.2901 14.2301C55.2901 14.2301 55.2901 14.2301 55.3001 14.2301L55.3101 14.2401ZM52.6601 12.5201C53.7401 12.4001 54.8101 12.7801 55.4101 13.4901C54.7301 14.6801 53.4601 15.1801 52.2801 14.9401C51.9801 14.5701 51.6001 14.3001 51.1901 14.1801C50.7301 14.0501 50.2501 14.1101 49.8701 14.3601C49.8001 14.2001 49.7301 14.0301 49.6801 13.8701C49.7101 13.8701 49.7301 13.8701 49.7601 13.8501C50.7501 13.0701 51.7201 12.6201 52.6701 12.5101L52.6601 12.5201ZM49.4601 11.9601C49.8201 12.2401 50.0601 12.6601 50.0801 13.1001C50.0801 13.1301 50.1001 13.1501 50.1101 13.1701C49.9301 13.2901 49.7601 13.4101 49.5801 13.5501C49.4501 13.0101 49.4201 12.4801 49.4601 11.9601ZM50.4701 11.8901C50.7101 12.0401 50.8601 12.3301 50.8501 12.6201C50.8501 12.6601 50.8701 12.6901 50.8901 12.7201C50.7301 12.8001 50.5701 12.8801 50.4101 12.9801C50.3601 12.5401 50.1501 12.1201 49.8201 11.8101C50.0401 11.7601 50.2701 11.7801 50.4601 11.9001L50.4701 11.8901ZM48.0601 11.5301C48.1801 11.5501 48.3001 11.5701 48.4201 11.5801C48.4401 11.5801 48.4701 11.5801 48.4901 11.5901C48.7001 12.6101 48.6301 13.6801 48.2301 14.6401C48.1901 14.7301 48.2301 14.8301 48.3301 14.8701H48.4001L48.5601 14.7801C49.0001 13.7101 49.0701 12.5101 48.8101 11.3901C48.8101 11.3701 48.8101 11.3601 48.8001 11.3401C48.6501 10.7301 48.4101 10.1401 48.0601 9.61008C48.7101 9.40008 49.3401 9.32008 49.9401 9.37008C49.1601 10.5601 48.6501 12.7101 49.6301 14.7201C49.7101 14.8801 49.9101 14.8201 49.9601 14.7001C50.0001 14.7001 50.0301 14.7001 50.0701 14.6801C50.6501 14.3101 51.5801 14.4701 52.1601 15.3901C52.4801 15.8901 52.6301 16.5201 52.5601 17.1101C52.5001 17.5601 52.2701 17.8901 51.9701 18.2101C51.7601 17.1501 50.6501 16.8801 49.7401 16.7201C49.3501 16.6501 48.9801 16.5901 48.6401 16.4501C48.2001 16.2601 47.8901 15.9401 47.8001 15.5901C47.7101 15.2201 47.8701 14.7901 48.1801 14.5801L48.2301 14.3301L48.1201 14.3101V14.2901C47.9501 14.0301 47.7301 13.8101 47.4801 13.6301C47.7801 13.1301 47.8801 12.5501 47.7301 11.9801C47.6801 11.7801 47.6001 11.5901 47.5001 11.4201C47.6901 11.4701 47.8901 11.5001 48.0801 11.5401L48.0601 11.5301ZM47.3901 12.2301C47.4501 12.6401 47.3801 13.0601 47.1701 13.4201C47.0301 13.3401 46.8901 13.2701 46.7501 13.2101L46.7801 13.1101C46.7301 13.0201 46.6701 12.9501 46.6201 12.8701C46.8001 12.5801 47.0701 12.3501 47.4001 12.2401L47.3901 12.2301ZM42.8901 12.5601C43.4301 12.1101 44.1401 11.9301 44.8401 12.0701C45.4501 12.1901 45.9701 12.5601 46.3201 13.0701C45.0501 12.7801 44.2301 13.3601 43.5701 13.8201C43.0401 14.2001 42.6201 14.4901 42.0801 14.3501L42.0401 14.3701C42.0401 13.6801 42.3501 13.0101 42.8901 12.5701V12.5601ZM39.6501 16.1501C39.6501 16.1501 39.7101 16.2101 39.7401 16.2401L39.5601 16.4201L39.6801 16.5401L39.8701 16.3501C39.9301 16.3901 39.9901 16.4201 40.0201 16.3901V16.2701L39.9901 16.2401L40.2101 16.0201V15.9001H40.0901L39.8701 16.1201L39.7401 15.9901C39.9601 15.6101 40.2701 15.2801 40.6601 15.0501L40.7501 15.1401L40.4901 15.4001L40.6101 15.5201L40.8701 15.2601L41.0301 15.4201H41.1501V15.3001L40.9901 15.1401L41.0501 15.0801V14.9601H40.9201L40.8701 15.0101L40.8201 14.9601C41.0001 14.8701 41.1901 14.7901 41.3901 14.7401V14.8101L41.6101 15.0301L41.5901 15.0501V15.1701H41.7101L41.7501 15.1301H41.8301V15.0501L41.9501 14.9301V14.8001H41.8301L41.7301 14.9001L41.5301 14.7001C41.6301 14.6801 41.7301 14.6601 41.8401 14.6501C41.8701 14.6501 41.8901 14.6301 41.9101 14.6201C41.9701 14.6901 42.0501 14.7401 42.1101 14.7901V14.8601L42.4801 15.2401H42.4901L42.3701 15.3701V15.5001L42.4301 15.5201L42.4901 15.5001L42.6801 15.3101V15.2201C42.7501 15.2601 42.8201 15.3001 42.8901 15.3401V15.4501L43.2901 15.8601L43.3501 15.8901L43.4101 15.8601V15.7301L43.2001 15.5201C43.4201 15.6301 43.6501 15.7201 43.8801 15.7901C43.3801 16.1001 42.5701 17.6401 43.1201 19.1201C43.2001 19.3301 43.3001 19.5201 43.4101 19.7001C42.5901 20.2701 41.5101 20.2701 40.5501 19.6601C39.2601 18.8301 39.0401 17.3001 39.6101 16.1501H39.6501ZM43.0501 20.3201L42.9801 20.3901L42.9401 20.3501C42.9401 20.3501 43.0101 20.3301 43.0501 20.3101V20.3201ZM40.6701 20.1101H40.6601L40.6101 20.0801C40.6301 20.0901 40.6501 20.1001 40.6701 20.1101ZM40.3601 22.0701C39.9601 21.4001 39.9601 20.5401 40.3401 19.9001C40.3501 19.9001 40.3601 19.9201 40.3801 19.9301L40.3101 20.0001L40.5501 20.2401L40.4701 20.3201L40.5901 20.4401L40.6701 20.3601L40.9501 20.6401H41.0701V20.5201L40.7901 20.2401L40.8401 20.1901C41.0001 20.2601 41.1501 20.3201 41.3101 20.3601L41.4301 20.4801L41.3101 20.6001L41.4301 20.7201L41.5501 20.6001L41.8201 20.8701H41.9401V20.7501L41.6701 20.4801L41.7001 20.4501C41.8301 20.4701 41.9601 20.4801 42.1001 20.4801L42.0701 20.5101L42.1301 20.5701L42.0301 20.6701L42.1501 20.8001L42.2501 20.7001L42.5001 20.9501H42.6301V20.8201L42.3801 20.5701L42.4901 20.4601C42.5801 20.4501 42.6701 20.4301 42.7601 20.4001V20.4301L42.8501 20.5201L42.7901 20.5801V20.7001H42.9101L42.9701 20.6401L43.1601 20.8301H43.2801V20.7001L43.0901 20.5101L43.3001 20.3001V20.2001C43.3001 20.2001 43.3401 20.1801 43.3701 20.1701L43.5201 20.3201L43.3301 20.5101V20.6301H43.4501L43.6401 20.4401L43.7201 20.5201L43.7801 20.5401L43.8401 20.5201V20.3901L43.7701 20.3201L43.8601 20.2301C43.9901 20.3601 44.1201 20.4801 44.2701 20.5801L44.1701 20.6801L44.1201 20.6301H44.0001V20.7601L44.0501 20.8101L43.9501 20.9101V21.0401L44.0101 21.0601L44.0701 21.0401L44.1701 20.9401L44.3101 21.0801L44.2501 21.1401V21.2701L44.3101 21.3001L44.3701 21.2701L44.4501 21.1901C44.3401 21.6701 44.4101 22.2101 44.6501 22.6901C43.0201 23.7801 41.1201 23.3701 40.3501 22.0801L40.3601 22.0701ZM41.4101 23.4901L41.5601 23.6401L41.2501 23.9501C41.2901 23.8001 41.3501 23.6501 41.4101 23.4901ZM41.7001 23.5101H41.6901H41.6701C41.6701 23.5101 41.6901 23.5101 41.7001 23.5101ZM41.4501 23.4201L41.4301 23.4401C41.4301 23.4401 41.4301 23.4201 41.4301 23.4101C41.4301 23.4101 41.4301 23.4101 41.4401 23.4101L41.4501 23.4201ZM41.2001 25.4501C41.0801 25.0301 41.1001 24.5501 41.2401 24.0001L41.3501 24.1101L41.6901 23.7701L41.9501 24.0301H42.0801V23.9001L41.8201 23.6401L41.8701 23.5901L41.8201 23.5401C42.0401 23.6001 42.2601 23.6301 42.4901 23.6501L42.4701 23.6701L42.5001 23.7001L42.3701 23.8301L42.4901 23.9501L42.6201 23.8201L42.8201 24.0201H42.9401V23.9001L42.7501 23.7001L42.7901 23.6601C42.9301 23.6601 43.0701 23.6301 43.2101 23.6101L43.2901 23.6901L43.1601 23.8201L43.2801 23.9401L43.4101 23.8101L43.4901 23.8901L43.5501 23.9201L43.6101 23.8901V23.7701L43.5301 23.6901L43.7301 23.4901C43.8301 23.4601 43.9301 23.4201 44.0301 23.3801L44.1301 23.4801V23.5901L44.1901 23.6201L44.2501 23.5901L44.3101 23.5601V23.5201L44.5901 23.2401V23.2101L44.8001 23.4201L44.8601 23.4501L44.9201 23.4201L44.9601 23.4001L45.0601 23.3001C45.0601 23.3001 45.1101 23.3501 45.1401 23.3801V23.4601L45.4101 23.7401H45.5301V23.7201C45.7701 23.8901 46.0301 24.0201 46.3001 24.1301C46.1301 24.4701 46.0001 25.1001 46.0801 25.8101C45.6201 26.3601 45.0501 26.7501 44.4301 26.9501C43.6801 27.1901 42.9101 27.1401 42.2701 26.7901C41.7201 26.4901 41.3201 26.0101 41.1601 25.4401L41.2001 25.4501ZM45.5101 27.0601L45.3601 26.9101C45.4301 26.8701 45.5001 26.8301 45.5601 26.7901L45.6701 26.9001L45.5101 27.0601ZM43.3801 27.5601L43.6001 27.7801L43.4301 27.9501C43.4101 27.8201 43.3901 27.6901 43.3701 27.5601H43.3801ZM43.9201 29.0601C43.6801 28.8201 43.5501 28.5001 43.4701 28.1501H43.4901L43.7201 27.9101L43.7901 27.9801H43.9101V27.8501L43.8401 27.7801L43.9201 27.7001V27.5801H43.8001L43.7201 27.6601L43.5101 27.4501C43.5101 27.4501 43.5301 27.4501 43.5401 27.4501C43.6901 27.4501 43.8501 27.4401 44.0001 27.4101V27.4601L44.2601 27.7201H44.3801V27.5901L44.1601 27.3701C44.2901 27.3401 44.4201 27.3201 44.5501 27.2801L44.6001 27.3301L44.5301 27.4001V27.5201H44.6501L44.7201 27.4501L44.8101 27.5401L44.8701 27.5601L44.9301 27.5401V27.4101L44.8401 27.3201L44.9401 27.2201V27.1101C45.0201 27.0701 45.1001 27.0301 45.1801 26.9901L45.4001 27.2101H45.4301V27.2301L45.4901 27.2601L45.5501 27.2301L45.7901 26.9901L45.8401 26.9701V26.9401L45.8601 26.9201V26.8001H45.7901L45.6701 26.6801C45.7401 26.6201 45.8201 26.5701 45.8901 26.5001C45.9101 26.5601 45.9801 26.6201 46.0401 26.6801V26.7101H46.0701C46.0701 26.7101 46.0801 26.7201 46.0901 26.7301L46.1501 26.7601L46.2101 26.7301V26.6101C46.2101 26.6101 46.1801 26.5801 46.1701 26.5701L46.2101 26.4701C46.3501 26.9101 46.5801 27.3601 46.9601 27.7401C47.2101 28.0001 47.5201 28.2001 47.8401 28.3601C47.6101 28.8301 47.1901 29.2101 46.6601 29.4201C46.5501 29.4601 46.4201 29.5001 46.3001 29.5301L46.2501 29.5101V29.5301C45.3801 29.7101 44.3401 29.5201 43.8701 29.0501L43.9201 29.0601ZM47.2801 29.5301L47.0701 29.7401L47.0001 29.6701C47.1001 29.6301 47.1901 29.5801 47.2801 29.5301ZM46.6701 29.8001C46.7201 29.7801 46.7901 29.7701 46.8401 29.7501L46.9501 29.8601L46.8001 30.0101C46.7501 29.9401 46.7101 29.8701 46.6701 29.8001ZM46.9101 30.1401H46.9201L47.0701 29.9801L47.1401 30.0501L47.2001 30.0801L47.2601 30.0501V29.9301L47.1901 29.8601L47.4301 29.6201V29.5001H47.3201C47.3201 29.5001 47.3701 29.4601 47.4001 29.4401L47.6101 29.6501L47.6701 29.6801L47.7301 29.6501V29.5301L47.5301 29.3301C47.6501 29.2301 47.7601 29.1201 47.8601 29.0101L47.9501 29.1001L47.8601 29.1901V29.3201L47.9201 29.3501L47.9801 29.3201L48.0701 29.2301L48.1201 29.2801L48.1801 29.3001L48.2401 29.2801V29.1501L48.1901 29.1001L48.3001 28.9901V28.8601H48.1801L48.0701 28.9701L47.9701 28.8701C48.0401 28.7801 48.0901 28.6701 48.1501 28.5701L48.6401 29.0601L48.7001 29.0901L48.7601 29.0601V29.0401H48.7701L49.0101 28.8001V28.7101C49.1101 28.7201 49.2001 28.7401 49.3001 28.7401L49.5901 29.0301L49.6501 29.0601L49.7101 29.0301V29.0101L49.7601 29.0301L49.8201 29.0001L49.9801 28.8401V28.7201H49.8601C49.9501 28.7101 50.0301 28.6901 50.1101 28.6701V28.6901L50.3001 28.8801V28.9601L50.3601 28.9901L50.4201 28.9601H50.4901V28.8901L50.5201 28.8701V28.8001C50.8701 29.1501 51.3001 29.4001 51.7701 29.5401C51.3901 31.3801 48.3601 32.0101 46.8501 30.1601L46.9101 30.1401ZM53.3701 29.2301C52.4401 29.4801 51.4001 29.1601 50.7501 28.4601C51.6901 28.0501 52.3501 27.2101 52.5501 26.2701C52.9501 26.8001 53.6001 27.1601 54.4201 27.2401C54.5401 27.2501 54.6701 27.2601 54.7901 27.2601C54.9601 27.2601 55.1301 27.2201 55.2901 27.2001C55.0801 28.1601 54.3201 28.9801 53.3701 29.2301ZM57.3101 25.5701C56.7301 26.5001 55.6001 27.0201 54.4401 26.9001C53.6801 26.8201 53.0901 26.4701 52.7601 25.9701H52.7801L52.8001 25.9501L52.9101 26.0601L52.9701 26.0901L53.0301 26.0601V25.9401L52.9201 25.8301L53.2001 25.5501L53.0801 25.4301L52.8001 25.7101L52.6001 25.5101C52.5901 25.2501 52.5401 25.0001 52.4501 24.7401L52.6901 24.9801L52.7101 24.9901L53.0101 25.2901H53.1301V25.1601L52.8901 24.9201L53.1501 24.6601L53.3501 24.8601H53.4701V24.7301L53.2701 24.5301L53.4401 24.3601L53.3201 24.2301L53.1501 24.4001L53.0201 24.2701C53.2201 24.1801 53.4101 24.0801 53.5901 23.9601L53.8901 24.2601L53.6701 24.4801V24.6001H53.8001L54.0201 24.3801H54.0301L54.1501 24.3901V24.2601L54.4301 23.9801V23.8601H54.3101L54.0301 24.1301L53.7601 23.8601C53.8901 23.7601 54.0201 23.6501 54.1401 23.5301L54.4601 23.8501L54.5201 23.8701L54.5801 23.8401V23.7201L54.2501 23.3901C54.3601 23.2601 54.4701 23.1301 54.5601 22.9801L54.7701 23.1901L54.7401 23.2201V23.3501L54.8001 23.3701L54.8601 23.3501L54.8901 23.3201L54.9501 23.3501L55.0101 23.3201V23.2001L55.2801 22.9301C55.3401 22.9501 55.4001 22.9801 55.4601 22.9901L55.7101 23.2401L55.6501 23.3001V23.4201H55.7701L56.2201 22.9701C56.2201 22.9701 56.2601 22.9701 56.2801 22.9601L56.5101 23.1901L56.4901 23.2101V23.3401H56.6101L56.6301 23.3201H56.7501V23.2001L56.8701 23.0801L56.7401 22.9501L56.6201 23.0701L56.4701 22.9201C56.6301 22.8801 56.7801 22.8301 56.9301 22.7701L57.1201 22.9601V23.0801H57.2401L57.3101 23.1501L57.3701 23.1701L57.4301 23.1501V23.0401C57.8201 23.8101 57.8001 24.8301 57.3201 25.5901L57.3101 25.5701ZM57.4101 22.9801L57.3601 22.9301L57.3801 22.9101C57.3801 22.9101 57.4001 22.9501 57.4101 22.9701V22.9801ZM57.2801 22.7801H57.2701L57.2401 22.8101L57.1101 22.6801C57.1101 22.6801 57.1701 22.6601 57.1901 22.6501C57.2201 22.6901 57.2601 22.7401 57.2901 22.7801H57.2801ZM56.2701 22.6001C55.9601 22.6601 55.7001 22.6701 55.4801 22.6301C55.2801 22.5901 55.1201 22.4901 54.9901 22.3801L55.0301 22.3401L55.1001 22.4101H55.2201V22.2901L55.1501 22.2201L55.4001 21.9701L55.4401 22.0101H55.5701V21.8901L55.5301 21.8501L55.7301 21.6501V21.5301H55.6101L55.4101 21.7301L54.9801 21.3001C54.9401 20.9001 54.8101 20.5201 54.6101 20.2001L55.1501 20.7401L54.9701 20.9201V21.0401L55.0301 21.0701L55.0901 21.0401L55.2701 20.8601L55.2901 20.8801L55.3501 20.9101L55.4101 20.8801V20.7601L55.3901 20.7401L55.6401 20.4901V20.3701H55.5101L55.2601 20.6201L54.6101 19.9701C54.8001 20.0601 55.0101 20.1201 55.2301 20.1501C55.3001 20.1501 55.3901 20.1501 55.4701 20.1501L55.8801 20.5601V20.6301L55.9401 20.6601H55.9701L56.0501 20.7301L56.1101 20.7601L56.1701 20.7301V20.6101L56.1001 20.5401L56.6101 20.0301L57.0301 20.4501H57.1501V20.3501L57.5901 19.9101L57.4701 19.7901L57.0501 20.2101L56.7601 19.9201C56.9801 19.8401 57.1901 19.7501 57.4001 19.6401L57.6801 19.9201L57.6501 19.9501V20.0701H57.7701L58.2601 19.5801H58.3801V19.4601L58.4001 19.4401V19.3201H58.2701L58.2501 19.3401L58.0801 19.1701C58.2101 19.0601 58.3201 18.9401 58.4301 18.8101C59.2501 20.1601 58.4101 22.2101 56.2701 22.6401V22.6001Z" fill="white"/>
<path d="M50.6699 21.06H50.7999L50.9699 20.89L50.8499 20.76C50.7599 20.85 50.5999 20.97 50.6799 21.05L50.6699 21.06Z" fill="white"/>
<path d="M40.5801 15.8299V15.7099L40.2701 15.3899L40.1401 15.5199L40.4601 15.8299H40.5801Z" fill="white"/>
<path d="M40.6999 18.1901V18.3201L40.7599 18.3501L40.8299 18.3201L40.9299 18.2201L41.1199 18.4201L41.1799 18.4401L41.2499 18.4201V18.2901L41.0499 18.1001L41.1399 18.0101L41.3399 18.2101L41.3999 18.2401L41.4699 18.2101V18.0801L41.2699 17.8801L41.3999 17.7501V17.6201H41.2799L41.1399 17.7601L41.0899 17.7101H40.9699V17.8401L41.0099 17.8801L40.9299 17.9701L40.7499 17.8001H40.6299V17.9201L40.7999 18.1001L40.6999 18.1901Z" fill="white"/>
<path d="M46.1501 19.6599L46.2101 19.6799L46.2701 19.6599V19.5299L46.0801 19.3399L46.3001 19.1099L46.6001 19.4099L46.6601 19.4299L46.7301 19.4099V19.2799L46.4301 18.9799L46.6301 18.7899V18.6599H46.5001L46.3001 18.8599L46.1201 18.6799H46.0001V18.7999L46.1801 18.9799L45.9501 19.2099L45.7401 18.9999H45.6201V19.1299L45.8301 19.3399L45.6801 19.4899V19.6099L45.7401 19.6399L45.8001 19.6099L45.9501 19.4599L46.1501 19.6599Z" fill="white"/>
<path d="M51.1901 18.8099V18.6799H51.0701L50.9901 18.7699H50.9001V18.8599L50.7401 19.0099L50.5001 18.7699H50.3701V18.8899L50.6201 19.1399L50.5301 19.2199V19.3499L50.5901 19.3699L50.6601 19.3499L50.7401 19.2599L50.9501 19.4799L51.0201 19.4999L51.0801 19.4799V19.3499L50.8701 19.1399L51.0001 18.9999L51.2501 19.2499L51.3101 19.2699L51.3801 19.2499V19.1199L51.1301 18.8699L51.1901 18.8099Z" fill="white"/>
<path d="M56.4998 17.5201V17.6401L56.5598 17.6701L56.6298 17.6401L56.6498 17.6201L56.8698 17.8301L56.9298 17.8601L56.9898 17.8301V17.7101L56.7798 17.4901L56.9798 17.2901L57.2098 17.5201L57.2698 17.5501L57.3398 17.5201V17.4001L57.1098 17.1601L57.1698 17.1001V16.9701H57.0498L56.9798 17.0401L56.7898 16.8401H56.6598V16.9701L56.8598 17.1601L56.6498 17.3701L56.4498 17.1701H56.3198V17.2901L56.5298 17.4901L56.4998 17.5201Z" fill="white"/>
<path d="M47.8602 23.24L47.9202 23.26L47.9902 23.24V23.11L47.7602 22.88L47.9802 22.67L48.2902 22.99L48.3502 23.01L48.4202 22.99V22.86L48.1002 22.55L48.2802 22.37V22.24H48.1602L47.9702 22.42L47.9002 22.35H47.7702V22.47L47.8502 22.55L47.6402 22.76L47.5302 22.65H47.4102V22.78L47.5102 22.89L47.4402 22.96V23.09H47.5602L47.6402 23.01L47.8602 23.24Z" fill="white"/>
<path d="M52.9301 22.39L52.8101 22.27L52.6901 22.4L52.8001 22.51L52.6701 22.64L52.4301 22.4H52.3101V22.53L52.5401 22.77L52.3901 22.92V23.04L52.4601 23.07L52.5201 23.04L52.6701 22.89L52.8401 23.06L52.9001 23.09L52.9601 23.06V22.94L52.7901 22.77L52.9301 22.64L53.0801 22.79L53.1501 22.82L53.2101 22.79V22.67L53.0501 22.51L53.2201 22.34V22.22H53.0901L52.9301 22.39Z" fill="white"/>
<path d="M43.7098 26.1801L43.7698 26.2101L43.8398 26.1801V26.0601L43.5798 25.8001L43.6498 25.7201L43.8898 25.9601L43.9498 25.9901L44.0098 25.9601V25.8401L43.7698 25.6001L43.9398 25.4401V25.3101H43.8098L43.6398 25.4801H43.5298V25.5901L43.4498 25.6701L43.2198 25.4401H43.0898V25.5701L43.3298 25.8001L43.1498 25.9701V26.0901L43.2098 26.1201L43.2798 26.0901L43.4498 25.9201L43.7098 26.1801Z" fill="white"/>
<path d="M50.0698 26.12V26H49.9398L49.8698 26.08L49.7698 25.98H49.6498V26.11L49.7398 26.2L49.4098 26.53L49.2198 26.34H49.0898V26.46L49.2898 26.65L49.0898 26.85V26.97H49.2198L49.4098 26.78L49.6798 27.04H49.7998V26.92L49.5398 26.65L49.8698 26.32L50.2298 26.69L50.2898 26.72L50.3498 26.69V26.56L49.9898 26.2L50.0698 26.12Z" fill="white"/>
<path d="M45.8801 28.3001V28.1701H45.7501L45.6801 28.2401L45.5501 28.1101H45.4301V28.2401L45.5601 28.3601L45.3801 28.5401L45.1901 28.3401H45.0601V28.4701L45.2501 28.6601L45.1301 28.7901V28.9101H45.2601L45.3801 28.7901L45.5401 28.9501H45.6601V28.8201L45.5001 28.6601L45.6801 28.4901L45.8701 28.6801L45.9301 28.7001L45.9901 28.6801V28.5501L45.8101 28.3601L45.8801 28.3001Z" fill="white"/>
<path d="M52.8598 28.27L52.6998 28.11H52.5698V28.24L52.7298 28.4L52.6398 28.49L52.7098 28.64L52.7698 28.62L52.8598 28.53L53.0498 28.72L53.1098 28.74L53.1698 28.72V28.59L52.9798 28.4L53.2298 28.15V28.03H53.0998L52.8598 28.27Z" fill="white"/>
<path d="M49.5601 30.06V29.94H49.4401L49.4301 29.95L49.2001 29.72H49.0801V29.85L49.3001 30.07L49.1201 30.25V30.38L49.1901 30.4L49.2501 30.38L49.4301 30.2L49.5501 30.32L49.6101 30.35L49.6701 30.32V30.19L49.5501 30.07L49.5601 30.06Z" fill="white"/>
<path d="M55.8602 24.7899V24.6699H55.7302L55.6102 24.7899L55.5702 24.7499H55.4402V24.8799L55.4802 24.9199L55.3402 25.0599L55.0602 24.7799H54.9302V24.9099L55.2102 25.1899L55.0002 25.3999V25.5199L55.0702 25.5499L55.1302 25.5199L55.3402 25.3099L55.6102 25.5799L55.6702 25.6099L55.7302 25.5799V25.4599L55.4602 25.1899L55.6102 25.0399L55.8702 25.2999L55.9302 25.3299L55.9902 25.2999V25.1799L55.7302 24.9199L55.8602 24.7899Z" fill="white"/>
</g>
<defs>
<clipPath id="clip0_22_625">
<path d="M39 9H59.1V21.56C59.1 27.1105 54.6005 31.61 49.05 31.61C43.4995 31.61 39 27.1105 39 21.56V9Z" fill="white"/>
</clipPath>
</defs>
</svg>
