<svg width="98" height="71" viewBox="0 0 98 71" fill="none" xmlns="http://www.w3.org/2000/svg">
<path d="M31.0467 48.7048V49.6348H28.0967V51.6848H30.3967V52.6148H28.0967V55.6548H26.9567V48.7048H31.0467ZM33.2431 50.9448C33.4098 50.6648 33.6298 50.4481 33.9031 50.2948C34.1831 50.1348 34.5131 50.0548 34.8931 50.0548V51.2348H34.6031C34.1565 51.2348 33.8165 51.3481 33.5831 51.5748C33.3565 51.8015 33.2431 52.1948 33.2431 52.7548V55.6548H32.1031V50.1448H33.2431V50.9448ZM38.331 55.7448C37.811 55.7448 37.341 55.6281 36.921 55.3948C36.501 55.1548 36.171 54.8215 35.931 54.3948C35.691 53.9615 35.571 53.4615 35.571 52.8948C35.571 52.3348 35.6944 51.8381 35.941 51.4048C36.1877 50.9715 36.5244 50.6381 36.951 50.4048C37.3777 50.1715 37.8544 50.0548 38.381 50.0548C38.9077 50.0548 39.3844 50.1715 39.811 50.4048C40.2377 50.6381 40.5744 50.9715 40.821 51.4048C41.0677 51.8381 41.191 52.3348 41.191 52.8948C41.191 53.4548 41.0644 53.9515 40.811 54.3848C40.5577 54.8181 40.211 55.1548 39.771 55.3948C39.3377 55.6281 38.8577 55.7448 38.331 55.7448ZM38.331 54.7548C38.6244 54.7548 38.8977 54.6848 39.151 54.5448C39.411 54.4048 39.621 54.1948 39.781 53.9148C39.941 53.6348 40.021 53.2948 40.021 52.8948C40.021 52.4948 39.9444 52.1581 39.791 51.8848C39.6377 51.6048 39.4344 51.3948 39.181 51.2548C38.9277 51.1148 38.6544 51.0448 38.361 51.0448C38.0677 51.0448 37.7944 51.1148 37.541 51.2548C37.2944 51.3948 37.0977 51.6048 36.951 51.8848C36.8044 52.1581 36.731 52.4948 36.731 52.8948C36.731 53.4881 36.881 53.9481 37.181 54.2748C37.4877 54.5948 37.871 54.7548 38.331 54.7548ZM43.328 54.7248H45.828V55.6548H42.008V54.7248L44.518 51.0748H42.008V50.1448H45.828V51.0748L43.328 54.7248ZM52.075 52.7648C52.075 52.9715 52.0617 53.1581 52.035 53.3248H47.825C47.8584 53.7648 48.0217 54.1181 48.315 54.3848C48.6084 54.6515 48.9684 54.7848 49.395 54.7848C50.0084 54.7848 50.4417 54.5281 50.695 54.0148H51.925C51.7584 54.5215 51.455 54.9381 51.015 55.2648C50.5817 55.5848 50.0417 55.7448 49.395 55.7448C48.8684 55.7448 48.395 55.6281 47.975 55.3948C47.5617 55.1548 47.235 54.8215 46.995 54.3948C46.7617 53.9615 46.645 53.4615 46.645 52.8948C46.645 52.3281 46.7584 51.8315 46.985 51.4048C47.2184 50.9715 47.5417 50.6381 47.955 50.4048C48.375 50.1715 48.855 50.0548 49.395 50.0548C49.915 50.0548 50.3784 50.1681 50.785 50.3948C51.1917 50.6215 51.5084 50.9415 51.735 51.3548C51.9617 51.7615 52.075 52.2315 52.075 52.7648ZM50.885 52.4048C50.8784 51.9848 50.7284 51.6481 50.435 51.3948C50.1417 51.1415 49.7784 51.0148 49.345 51.0148C48.9517 51.0148 48.615 51.1415 48.335 51.3948C48.055 51.6415 47.8884 51.9781 47.835 52.4048H50.885ZM55.9769 50.0548C56.4102 50.0548 56.7969 50.1448 57.1369 50.3248C57.4836 50.5048 57.7536 50.7715 57.9469 51.1248C58.1402 51.4781 58.2369 51.9048 58.2369 52.4048V55.6548H57.1069V52.5748C57.1069 52.0815 56.9836 51.7048 56.7369 51.4448C56.4902 51.1781 56.1536 51.0448 55.7269 51.0448C55.3002 51.0448 54.9602 51.1781 54.7069 51.4448C54.4602 51.7048 54.3369 52.0815 54.3369 52.5748V55.6548H53.1969V50.1448H54.3369V50.7748C54.5236 50.5481 54.7602 50.3715 55.0469 50.2448C55.3402 50.1181 55.6502 50.0548 55.9769 50.0548ZM67.6587 55.6548L66.7987 54.7948C66.4654 55.1281 66.102 55.3781 65.7087 55.5448C65.3154 55.7048 64.8754 55.7848 64.3887 55.7848C63.8954 55.7848 63.4587 55.6981 63.0787 55.5248C62.6987 55.3515 62.4054 55.1048 62.1987 54.7848C61.992 54.4581 61.8887 54.0815 61.8887 53.6548C61.8887 53.1748 62.0254 52.7481 62.2987 52.3748C62.572 51.9948 62.9787 51.6948 63.5187 51.4748C63.3254 51.2415 63.1887 51.0248 63.1087 50.8248C63.0287 50.6181 62.9887 50.3915 62.9887 50.1448C62.9887 49.8381 63.0654 49.5648 63.2187 49.3248C63.3787 49.0848 63.6054 48.8948 63.8987 48.7548C64.192 48.6148 64.532 48.5448 64.9187 48.5448C65.312 48.5448 65.6454 48.6215 65.9187 48.7748C66.1987 48.9215 66.4054 49.1248 66.5387 49.3848C66.6787 49.6448 66.7354 49.9348 66.7087 50.2548H65.5687C65.5754 50.0081 65.5154 49.8181 65.3887 49.6848C65.262 49.5448 65.0887 49.4748 64.8687 49.4748C64.6487 49.4748 64.4687 49.5415 64.3287 49.6748C64.1954 49.8015 64.1287 49.9581 64.1287 50.1448C64.1287 50.3248 64.1787 50.5048 64.2787 50.6848C64.3854 50.8581 64.5687 51.0848 64.8287 51.3648L66.6687 53.1948L67.3787 52.0248H68.6087L67.7087 53.5648L67.4587 53.9748L69.1487 55.6548H67.6587ZM64.3887 54.8148C65.0154 54.8148 65.5687 54.5581 66.0487 54.0448L64.2087 52.1948C63.422 52.5081 63.0287 52.9815 63.0287 53.6148C63.0287 53.9548 63.1554 54.2415 63.4087 54.4748C63.662 54.7015 63.9887 54.8148 64.3887 54.8148ZM8.43776 67.6548L6.83776 64.8748H5.96776V67.6548H4.82776V60.7048H7.22776C7.76109 60.7048 8.21109 60.7981 8.57776 60.9848C8.95109 61.1715 9.22776 61.4215 9.40776 61.7348C9.59443 62.0481 9.68776 62.3981 9.68776 62.7848C9.68776 63.2381 9.55443 63.6515 9.28776 64.0248C9.02776 64.3915 8.62443 64.6415 8.07776 64.7748L9.79776 67.6548H8.43776ZM5.96776 63.9648H7.22776C7.65443 63.9648 7.97443 63.8581 8.18776 63.6448C8.40776 63.4315 8.51776 63.1448 8.51776 62.7848C8.51776 62.4248 8.41109 62.1448 8.19776 61.9448C7.98443 61.7381 7.66109 61.6348 7.22776 61.6348H5.96776V63.9648ZM16.1961 64.7648C16.1961 64.9715 16.1828 65.1581 16.1561 65.3248H11.9461C11.9795 65.7648 12.1428 66.1181 12.4361 66.3848C12.7295 66.6515 13.0895 66.7848 13.5161 66.7848C14.1295 66.7848 14.5628 66.5281 14.8161 66.0148H16.0461C15.8795 66.5215 15.5761 66.9381 15.1361 67.2648C14.7028 67.5848 14.1628 67.7448 13.5161 67.7448C12.9895 67.7448 12.5161 67.6281 12.0961 67.3948C11.6828 67.1548 11.3561 66.8215 11.1161 66.3948C10.8828 65.9615 10.7661 65.4615 10.7661 64.8948C10.7661 64.3281 10.8795 63.8315 11.1061 63.4048C11.3395 62.9715 11.6628 62.6381 12.0761 62.4048C12.4961 62.1715 12.9761 62.0548 13.5161 62.0548C14.0361 62.0548 14.4995 62.1681 14.9061 62.3948C15.3128 62.6215 15.6295 62.9415 15.8561 63.3548C16.0828 63.7615 16.1961 64.2315 16.1961 64.7648ZM15.0061 64.4048C14.9995 63.9848 14.8495 63.6481 14.5561 63.3948C14.2628 63.1415 13.8995 63.0148 13.4661 63.0148C13.0728 63.0148 12.7361 63.1415 12.4561 63.3948C12.1761 63.6415 12.0095 63.9781 11.9561 64.4048H15.0061ZM19.628 63.0748H18.608V67.6548H17.458V63.0748H16.808V62.1448H17.458V61.7548C17.458 61.1215 17.6247 60.6615 17.958 60.3748C18.298 60.0815 18.828 59.9348 19.548 59.9348V60.8848C19.2013 60.8848 18.958 60.9515 18.818 61.0848C18.678 61.2115 18.608 61.4348 18.608 61.7548V62.1448H19.628V63.0748ZM21.7783 62.9448C21.945 62.6648 22.165 62.4481 22.4383 62.2948C22.7183 62.1348 23.0483 62.0548 23.4283 62.0548V63.2348H23.1383C22.6916 63.2348 22.3516 63.3481 22.1183 63.5748C21.8916 63.8015 21.7783 64.1948 21.7783 64.7548V67.6548H20.6383V62.1448H21.7783V62.9448ZM25.0562 61.4148C24.8495 61.4148 24.6762 61.3448 24.5362 61.2048C24.3962 61.0648 24.3262 60.8915 24.3262 60.6848C24.3262 60.4781 24.3962 60.3048 24.5362 60.1648C24.6762 60.0248 24.8495 59.9548 25.0562 59.9548C25.2562 59.9548 25.4262 60.0248 25.5662 60.1648C25.7062 60.3048 25.7762 60.4781 25.7762 60.6848C25.7762 60.8915 25.7062 61.0648 25.5662 61.2048C25.4262 61.3448 25.2562 61.4148 25.0562 61.4148ZM25.6162 62.1448V67.6548H24.4762V62.1448H25.6162ZM29.3329 62.0548C29.7596 62.0548 30.1362 62.1415 30.4629 62.3148C30.7962 62.4815 31.0562 62.6915 31.2429 62.9448V62.1448H32.3929V67.7448C32.3929 68.2515 32.2862 68.7015 32.0729 69.0948C31.8596 69.4948 31.5496 69.8081 31.1429 70.0348C30.7429 70.2615 30.2629 70.3748 29.7029 70.3748C28.9562 70.3748 28.3362 70.1981 27.8429 69.8448C27.3496 69.4981 27.0696 69.0248 27.0029 68.4248H28.1329C28.2196 68.7115 28.4029 68.9415 28.6829 69.1148C28.9696 69.2948 29.3096 69.3848 29.7029 69.3848C30.1629 69.3848 30.5329 69.2448 30.8129 68.9648C31.0996 68.6848 31.2429 68.2781 31.2429 67.7448V66.8248C31.0496 67.0848 30.7862 67.3048 30.4529 67.4848C30.1262 67.6581 29.7529 67.7448 29.3329 67.7448C28.8529 67.7448 28.4129 67.6248 28.0129 67.3848C27.6196 67.1381 27.3062 66.7981 27.0729 66.3648C26.8462 65.9248 26.7329 65.4281 26.7329 64.8748C26.7329 64.3215 26.8462 63.8315 27.0729 63.4048C27.3062 62.9781 27.6196 62.6481 28.0129 62.4148C28.4129 62.1748 28.8529 62.0548 29.3329 62.0548ZM31.2429 64.8948C31.2429 64.5148 31.1629 64.1848 31.0029 63.9048C30.8496 63.6248 30.6462 63.4115 30.3929 63.2648C30.1396 63.1181 29.8662 63.0448 29.5729 63.0448C29.2796 63.0448 29.0062 63.1181 28.7529 63.2648C28.4996 63.4048 28.2929 63.6148 28.1329 63.8948C27.9796 64.1681 27.9029 64.4948 27.9029 64.8748C27.9029 65.2548 27.9796 65.5881 28.1329 65.8748C28.2929 66.1615 28.4996 66.3815 28.7529 66.5348C29.0129 66.6815 29.2862 66.7548 29.5729 66.7548C29.8662 66.7548 30.1396 66.6815 30.3929 66.5348C30.6462 66.3881 30.8496 66.1748 31.0029 65.8948C31.1629 65.6081 31.2429 65.2748 31.2429 64.8948ZM38.9403 64.7648C38.9403 64.9715 38.9269 65.1581 38.9003 65.3248H34.6903C34.7236 65.7648 34.8869 66.1181 35.1803 66.3848C35.4736 66.6515 35.8336 66.7848 36.2603 66.7848C36.8736 66.7848 37.3069 66.5281 37.5603 66.0148H38.7903C38.6236 66.5215 38.3203 66.9381 37.8803 67.2648C37.4469 67.5848 36.9069 67.7448 36.2603 67.7448C35.7336 67.7448 35.2603 67.6281 34.8403 67.3948C34.4269 67.1548 34.1003 66.8215 33.8603 66.3948C33.6269 65.9615 33.5103 65.4615 33.5103 64.8948C33.5103 64.3281 33.6236 63.8315 33.8503 63.4048C34.0836 62.9715 34.4069 62.6381 34.8203 62.4048C35.2403 62.1715 35.7203 62.0548 36.2603 62.0548C36.7803 62.0548 37.2436 62.1681 37.6503 62.3948C38.0569 62.6215 38.3736 62.9415 38.6003 63.3548C38.8269 63.7615 38.9403 64.2315 38.9403 64.7648ZM37.7503 64.4048C37.7436 63.9848 37.5936 63.6481 37.3003 63.3948C37.0069 63.1415 36.6436 63.0148 36.2103 63.0148C35.8169 63.0148 35.4803 63.1415 35.2003 63.3948C34.9203 63.6415 34.7536 63.9781 34.7003 64.4048H37.7503ZM41.2021 62.9448C41.3688 62.6648 41.5888 62.4481 41.8621 62.2948C42.1421 62.1348 42.4721 62.0548 42.8521 62.0548V63.2348H42.5621C42.1155 63.2348 41.7755 63.3481 41.5421 63.5748C41.3155 63.8015 41.2021 64.1948 41.2021 64.7548V67.6548H40.0621V62.1448H41.2021V62.9448ZM43.52 64.8748C43.52 64.3215 43.6334 63.8315 43.86 63.4048C44.0934 62.9781 44.4067 62.6481 44.8 62.4148C45.2 62.1748 45.64 62.0548 46.12 62.0548C46.5534 62.0548 46.93 62.1415 47.25 62.3148C47.5767 62.4815 47.8367 62.6915 48.03 62.9448V62.1448H49.18V67.6548H48.03V66.8348C47.8367 67.0948 47.5734 67.3115 47.24 67.4848C46.9067 67.6581 46.5267 67.7448 46.1 67.7448C45.6267 67.7448 45.1934 67.6248 44.8 67.3848C44.4067 67.1381 44.0934 66.7981 43.86 66.3648C43.6334 65.9248 43.52 65.4281 43.52 64.8748ZM48.03 64.8948C48.03 64.5148 47.95 64.1848 47.79 63.9048C47.6367 63.6248 47.4334 63.4115 47.18 63.2648C46.9267 63.1181 46.6534 63.0448 46.36 63.0448C46.0667 63.0448 45.7934 63.1181 45.54 63.2648C45.2867 63.4048 45.08 63.6148 44.92 63.8948C44.7667 64.1681 44.69 64.4948 44.69 64.8748C44.69 65.2548 44.7667 65.5881 44.92 65.8748C45.08 66.1615 45.2867 66.3815 45.54 66.5348C45.8 66.6815 46.0734 66.7548 46.36 66.7548C46.6534 66.7548 46.9267 66.6815 47.18 66.5348C47.4334 66.3881 47.6367 66.1748 47.79 65.8948C47.95 65.6081 48.03 65.2748 48.03 64.8948ZM52.0074 63.0748V66.1248C52.0074 66.3315 52.054 66.4815 52.1474 66.5748C52.2474 66.6615 52.414 66.7048 52.6474 66.7048H53.3474V67.6548H52.4474C51.934 67.6548 51.5407 67.5348 51.2674 67.2948C50.994 67.0548 50.8574 66.6648 50.8574 66.1248V63.0748H50.2074V62.1448H50.8574V60.7748H52.0074V62.1448H53.3474V63.0748H52.0074ZM59.4481 64.7648C59.4481 64.9715 59.4347 65.1581 59.4081 65.3248H55.1981C55.2314 65.7648 55.3947 66.1181 55.6881 66.3848C55.9814 66.6515 56.3414 66.7848 56.7681 66.7848C57.3814 66.7848 57.8147 66.5281 58.0681 66.0148H59.2981C59.1314 66.5215 58.8281 66.9381 58.3881 67.2648C57.9547 67.5848 57.4147 67.7448 56.7681 67.7448C56.2414 67.7448 55.7681 67.6281 55.3481 67.3948C54.9347 67.1548 54.6081 66.8215 54.3681 66.3948C54.1347 65.9615 54.0181 65.4615 54.0181 64.8948C54.0181 64.3281 54.1314 63.8315 54.3581 63.4048C54.5914 62.9715 54.9147 62.6381 55.3281 62.4048C55.7481 62.1715 56.2281 62.0548 56.7681 62.0548C57.2881 62.0548 57.7514 62.1681 58.1581 62.3948C58.5647 62.6215 58.8814 62.9415 59.1081 63.3548C59.3347 63.7615 59.4481 64.2315 59.4481 64.7648ZM58.2581 64.4048C58.2514 63.9848 58.1014 63.6481 57.8081 63.3948C57.5147 63.1415 57.1514 63.0148 56.7181 63.0148C56.3247 63.0148 55.9881 63.1415 55.7081 63.3948C55.4281 63.6415 55.2614 63.9781 55.2081 64.4048H58.2581ZM60.1899 64.8748C60.1899 64.3215 60.3033 63.8315 60.5299 63.4048C60.7633 62.9781 61.0766 62.6481 61.4699 62.4148C61.8699 62.1748 62.3133 62.0548 62.7999 62.0548C63.1599 62.0548 63.5133 62.1348 63.8599 62.2948C64.2133 62.4481 64.4933 62.6548 64.6999 62.9148V60.2548H65.8499V67.6548H64.6999V66.8248C64.5133 67.0915 64.2533 67.3115 63.9199 67.4848C63.5933 67.6581 63.2166 67.7448 62.7899 67.7448C62.3099 67.7448 61.8699 67.6248 61.4699 67.3848C61.0766 67.1381 60.7633 66.7981 60.5299 66.3648C60.3033 65.9248 60.1899 65.4281 60.1899 64.8748ZM64.6999 64.8948C64.6999 64.5148 64.6199 64.1848 64.4599 63.9048C64.3066 63.6248 64.1033 63.4115 63.8499 63.2648C63.5966 63.1181 63.3233 63.0448 63.0299 63.0448C62.7366 63.0448 62.4633 63.1181 62.2099 63.2648C61.9566 63.4048 61.7499 63.6148 61.5899 63.8948C61.4366 64.1681 61.3599 64.4948 61.3599 64.8748C61.3599 65.2548 61.4366 65.5881 61.5899 65.8748C61.7499 66.1615 61.9566 66.3815 62.2099 66.5348C62.4699 66.6815 62.7433 66.7548 63.0299 66.7548C63.3233 66.7548 63.5966 66.6815 63.8499 66.5348C64.1033 66.3881 64.3066 66.1748 64.4599 65.8948C64.6199 65.6081 64.6999 65.2748 64.6999 64.8948ZM74.0349 60.7048V61.6348H71.0849V63.6848H73.3849V64.6148H71.0849V67.6548H69.9449V60.7048H74.0349ZM77.4814 67.7448C76.9614 67.7448 76.4914 67.6281 76.0714 67.3948C75.6514 67.1548 75.3214 66.8215 75.0814 66.3948C74.8414 65.9615 74.7214 65.4615 74.7214 64.8948C74.7214 64.3348 74.8448 63.8381 75.0914 63.4048C75.3381 62.9715 75.6748 62.6381 76.1014 62.4048C76.5281 62.1715 77.0048 62.0548 77.5314 62.0548C78.0581 62.0548 78.5348 62.1715 78.9614 62.4048C79.3881 62.6381 79.7248 62.9715 79.9714 63.4048C80.2181 63.8381 80.3414 64.3348 80.3414 64.8948C80.3414 65.4548 80.2148 65.9515 79.9614 66.3848C79.7081 66.8181 79.3614 67.1548 78.9214 67.3948C78.4881 67.6281 78.0081 67.7448 77.4814 67.7448ZM77.4814 66.7548C77.7748 66.7548 78.0481 66.6848 78.3014 66.5448C78.5614 66.4048 78.7714 66.1948 78.9314 65.9148C79.0914 65.6348 79.1714 65.2948 79.1714 64.8948C79.1714 64.4948 79.0948 64.1581 78.9414 63.8848C78.7881 63.6048 78.5848 63.3948 78.3314 63.2548C78.0781 63.1148 77.8048 63.0448 77.5114 63.0448C77.2181 63.0448 76.9448 63.1148 76.6914 63.2548C76.4448 63.3948 76.2481 63.6048 76.1014 63.8848C75.9548 64.1581 75.8814 64.4948 75.8814 64.8948C75.8814 65.4881 76.0314 65.9481 76.3314 66.2748C76.6381 66.5948 77.0214 66.7548 77.4814 66.7548ZM83.8584 67.7448C83.3384 67.7448 82.8684 67.6281 82.4484 67.3948C82.0284 67.1548 81.6984 66.8215 81.4584 66.3948C81.2184 65.9615 81.0984 65.4615 81.0984 64.8948C81.0984 64.3348 81.2217 63.8381 81.4684 63.4048C81.7151 62.9715 82.0517 62.6381 82.4784 62.4048C82.9051 62.1715 83.3817 62.0548 83.9084 62.0548C84.4351 62.0548 84.9117 62.1715 85.3384 62.4048C85.7651 62.6381 86.1017 62.9715 86.3484 63.4048C86.5951 63.8381 86.7184 64.3348 86.7184 64.8948C86.7184 65.4548 86.5917 65.9515 86.3384 66.3848C86.0851 66.8181 85.7384 67.1548 85.2984 67.3948C84.8651 67.6281 84.3851 67.7448 83.8584 67.7448ZM83.8584 66.7548C84.1517 66.7548 84.4251 66.6848 84.6784 66.5448C84.9384 66.4048 85.1484 66.1948 85.3084 65.9148C85.4684 65.6348 85.5484 65.2948 85.5484 64.8948C85.5484 64.4948 85.4717 64.1581 85.3184 63.8848C85.1651 63.6048 84.9617 63.3948 84.7084 63.2548C84.4551 63.1148 84.1817 63.0448 83.8884 63.0448C83.5951 63.0448 83.3217 63.1148 83.0684 63.2548C82.8217 63.3948 82.6251 63.6048 82.4784 63.8848C82.3317 64.1581 82.2584 64.4948 82.2584 64.8948C82.2584 65.4881 82.4084 65.9481 82.7084 66.2748C83.0151 66.5948 83.3984 66.7548 83.8584 66.7548ZM87.4653 64.8748C87.4653 64.3215 87.5787 63.8315 87.8053 63.4048C88.0387 62.9781 88.352 62.6481 88.7453 62.4148C89.1453 62.1748 89.5887 62.0548 90.0753 62.0548C90.4353 62.0548 90.7887 62.1348 91.1353 62.2948C91.4887 62.4481 91.7687 62.6548 91.9753 62.9148V60.2548H93.1253V67.6548H91.9753V66.8248C91.7887 67.0915 91.5287 67.3115 91.1953 67.4848C90.8687 67.6581 90.492 67.7448 90.0653 67.7448C89.5853 67.7448 89.1453 67.6248 88.7453 67.3848C88.352 67.1381 88.0387 66.7981 87.8053 66.3648C87.5787 65.9248 87.4653 65.4281 87.4653 64.8748ZM91.9753 64.8948C91.9753 64.5148 91.8953 64.1848 91.7353 63.9048C91.582 63.6248 91.3787 63.4115 91.1253 63.2648C90.872 63.1181 90.5987 63.0448 90.3053 63.0448C90.012 63.0448 89.7387 63.1181 89.4853 63.2648C89.232 63.4048 89.0253 63.6148 88.8653 63.8948C88.712 64.1681 88.6353 64.4948 88.6353 64.8748C88.6353 65.2548 88.712 65.5881 88.8653 65.8748C89.0253 66.1615 89.232 66.3815 89.4853 66.5348C89.7453 66.6815 90.0187 66.7548 90.3053 66.7548C90.5987 66.7548 90.872 66.6815 91.1253 66.5348C91.3787 66.3881 91.582 66.1748 91.7353 65.8948C91.8953 65.6081 91.9753 65.2748 91.9753 64.8948Z" fill="white"/>
<circle cx="48.3372" cy="20.3372" r="19.8372" stroke="white"/>
<g clip-path="url(#clip0_22_652)">
<path d="M61.8848 19.762C61.8848 19.44 61.8848 19.1065 61.8158 18.7846C61.4478 16.6342 59.7114 14.7023 57.515 13.9893C54.7897 13.1039 53.6283 14.0813 48.2466 12.7474C46.8091 12.3909 45.3257 12.0229 43.8308 12.0229C42.5429 12.0229 41.37 12.2989 40.2085 12.9314C38.7136 13.7364 37.5062 15.0243 36.7817 16.5422C36.4827 17.1747 36.3103 18.0601 36.2758 19.0375L36.2413 19.072C36.0803 20.7509 35.2293 24.8907 38.1502 26.9261C40.2085 28.3635 43.0374 27.639 44.6588 27.2596C47.3036 26.6386 48.1661 26.5236 51.8919 27.1676C53.6168 27.4666 55.3647 27.7655 57.1011 27.5011C58.9639 27.2136 60.4819 26.2821 61.2523 24.9482C62.1608 23.3958 62.0458 21.2569 61.8848 19.7965V19.762ZM61.5858 22.5103L61.5628 22.4873L61.5053 22.5448L61.2178 22.2574C61.3788 21.9469 61.5283 21.6249 61.6318 21.2914C61.6318 21.6939 61.6318 22.0964 61.5858 22.5103ZM58.849 24.1317C55.8131 25.5922 52.2138 23.4993 48.9365 23.7523C45.6937 24.0053 42.1634 26.6731 39.1736 24.8792C38.8516 24.6837 38.5526 24.4192 38.2881 24.1202C38.6101 21.9699 40.611 20.475 42.7729 20.7739C43.8193 20.9119 45.3027 21.5444 45.9582 19.1755C46.1077 19.2215 46.2457 19.279 46.3952 19.2905H46.5447C46.9011 19.2905 47.2461 19.1755 47.5451 18.9915C48.0511 19.8195 49.04 20.199 49.9025 20.199H50.19C51.3629 20.084 52.3633 19.463 53.3293 18.8651C55.7671 17.3471 57.0091 16.8297 61.4018 18.8881C61.4363 18.8996 61.4593 18.8881 61.4823 18.8881C61.8043 20.9924 60.7003 23.2233 58.8605 24.1088L58.849 24.1317ZM45.0153 17.6346C44.9923 17.4851 45.0038 17.3241 45.0153 17.1747L45.1532 17.3126L45.0728 17.3931V17.5196L45.1302 17.5426L45.1992 17.5196L45.2797 17.4391L45.7282 17.8876L45.4522 18.1636L45.0842 17.7956H45.0613C45.0613 17.7956 45.0153 17.6921 45.0038 17.6346H45.0153ZM45.4407 16.3352L45.4752 16.3122L45.8202 16.6572L45.6132 16.8642L45.2567 16.5077C45.2567 16.5077 45.3027 16.4157 45.3372 16.3812L45.4522 16.3237L45.4407 16.3352ZM45.1647 16.6687L45.4867 16.9907L45.2912 17.1862L45.1417 17.0367H45.0498C45.0728 16.9102 45.1187 16.7952 45.1647 16.6802V16.6687ZM45.3257 18.2901C45.3257 18.2901 45.2797 18.2441 45.2682 18.2211L45.3372 18.2901H45.3257ZM45.4522 18.4166L45.6707 18.6351L45.7397 18.6581L45.7972 18.6351V18.5086L45.5787 18.2901L46.2227 17.6461V17.5196H46.0962L45.8547 17.7611L45.4062 17.3126L45.6017 17.1172L45.9122 17.4276L45.9812 17.4506L46.0387 17.4276V17.3011L45.7282 16.9792L45.9352 16.7722L46.1537 16.9907L46.2227 17.0137L46.2917 16.9907V16.8642L46.0732 16.6457L46.1422 16.5767V16.4502H46.0157L45.9467 16.5192L45.6132 16.1857L45.6937 16.1167H45.8087L45.9352 16.0477L46.8666 16.9792L46.9931 16.8527L46.6482 16.5077L46.9931 16.1512L47.3151 16.4732L47.0391 16.7492L47.1656 16.8757L47.4416 16.5997L47.5566 16.7147H47.6831V16.5882L47.5681 16.4732L47.6026 16.4387L47.4761 16.3122L47.4416 16.3467L47.0736 15.9787C47.8211 16.2662 48.2466 17.1172 47.9936 17.8876C47.7866 18.5316 47.0851 19.003 46.3952 18.9455C46.0157 18.9111 45.6707 18.7156 45.4177 18.4396L45.4407 18.4166H45.4522ZM46.8551 16.0132V16.0362L46.5217 16.3927L46.0962 15.9672C46.4067 15.8752 46.6827 15.8752 46.9471 15.9442L46.8551 16.0247V16.0132ZM48.1546 13.0694C53.5478 14.4033 54.7667 13.4489 57.4 14.2998C59.3664 14.9438 60.9188 16.5997 61.3788 18.4971C57.0206 16.4847 55.6751 16.9907 53.1223 18.5661C52.1448 19.164 51.2249 19.739 50.1325 19.8425C49.3045 19.923 48.2696 19.601 47.7981 18.7846C48.0396 18.5661 48.2351 18.3131 48.3271 18.0026C48.7985 16.5767 47.4531 15.2083 46.0502 15.5877C45.8892 15.4613 45.6707 15.3923 45.4177 15.4038L45.1532 15.4383C44.7738 15.5072 44.2448 15.5992 43.7503 15.1508C42.8074 14.2998 43.6698 13.3109 43.4858 12.3794C44.9693 12.3219 46.4872 12.6669 48.1316 13.0694H48.1546ZM37.1037 16.6687C37.7822 15.2198 38.9551 14.0008 40.3695 13.2304C41.301 12.7244 42.2209 12.4829 43.1409 12.4024C43.3593 13.2189 42.3819 14.3803 43.5203 15.4153C44.1413 15.9787 44.8198 15.8637 45.2222 15.7947L45.4407 15.7602C45.4407 15.7602 45.5327 15.7602 45.5787 15.7602C45.5672 15.7602 45.5557 15.7602 45.5442 15.7717C45.4177 15.8062 45.3027 15.8752 45.1877 15.9787C44.7853 16.3467 44.5553 17.0597 44.6473 17.6691C44.7278 18.2441 45.1072 18.7271 45.6017 19.0145C45.1187 20.8199 44.2103 20.659 43.2444 20.4865C40.473 19.969 38.4606 21.6594 37.9892 23.7753C36.5862 21.8779 36.1723 18.6351 37.1037 16.6687ZM37.1612 23.3843L36.7817 23.0048L36.9197 22.8668L36.7932 22.7403L36.6552 22.8783L36.5057 22.7288L36.4023 22.8323C36.3793 22.6138 36.3678 22.3953 36.3678 22.1884L36.5747 21.9814L36.7357 22.1424C36.8737 22.5563 37.0577 22.9473 37.2762 23.3153L37.1612 23.3843ZM36.4367 21.6019L36.3563 21.6824C36.3563 21.3834 36.3793 21.1074 36.4023 20.8314C36.4597 21.1534 36.5287 21.4639 36.6207 21.7744L36.4367 21.5904V21.6019ZM36.3563 21.7744L36.4367 21.8549L36.3563 21.9354C36.3563 21.9354 36.3563 21.8319 36.3563 21.7744ZM36.4023 22.8783L36.5172 22.9933L36.4252 23.0853C36.4252 23.0163 36.4138 22.9473 36.4023 22.8783ZM36.5632 23.8673L36.8852 24.1892L36.7012 24.3732C36.6437 24.2007 36.5977 24.0398 36.5517 23.8673H36.5632ZM37.1382 25.3047L37.1842 25.2587L37.5982 25.6727L37.4832 25.7992C37.3567 25.6382 37.2417 25.4772 37.1382 25.3162V25.3047ZM39.1161 27.0181L39.1736 26.9606L39.3001 27.0871C39.2426 27.0641 39.1736 27.0296 39.1161 27.0066V27.0181ZM39.8751 27.2596L40.151 26.9836L40.519 27.3516C40.3005 27.3286 40.082 27.2941 39.8751 27.2481V27.2596ZM40.772 27.3746L41.048 27.0986L41.3355 27.3861C41.1515 27.3861 40.9675 27.3861 40.7835 27.3861L40.772 27.3746ZM42.0944 27.3401L42.3704 27.0641L42.5774 27.2711C42.4164 27.2941 42.2554 27.3171 42.0944 27.3401ZM43.5203 27.1101L43.7158 26.9146L43.8423 27.0411C43.7388 27.0641 43.6353 27.0871 43.5318 27.1101H43.5203ZM44.0378 26.9951L43.8308 26.7881L44.3943 26.2246L44.9578 26.7881C44.6473 26.8571 44.3483 26.9261 44.0378 26.9951ZM45.4752 26.6846L45.8317 26.3281L46.0732 26.5696C45.8777 26.6041 45.6707 26.6501 45.4752 26.6961V26.6846ZM46.8091 26.4316L46.9931 26.2476L47.1426 26.3971C47.0276 26.3971 46.9241 26.4201 46.8091 26.4316ZM47.8211 26.3626L48.0971 26.0866L48.3616 26.3511C48.1776 26.3511 48.0051 26.3511 47.8211 26.3511V26.3626ZM49.293 26.4086L49.3965 26.3051L49.523 26.4201C49.454 26.4201 49.3735 26.4201 49.3045 26.3971L49.293 26.4086ZM50.5234 26.5581L50.6499 26.4316L50.8109 26.5926C50.7189 26.5811 50.6269 26.5696 50.5234 26.5466V26.5581ZM51.8689 26.7766L52.0413 26.6041L52.2828 26.8456C52.1448 26.8226 52.0068 26.7996 51.8689 26.7766ZM52.5013 26.1441L52.9613 26.6041L52.6623 26.9031C52.6623 26.9031 52.5703 26.8916 52.5243 26.8801L52.5473 26.8571L52.1678 26.4776L52.4898 26.1556L52.5013 26.1441ZM53.8927 27.0756L54.2032 26.7651L54.5942 27.1561C54.3642 27.1331 54.1342 27.1101 53.9042 27.0756H53.8927ZM55.0542 27.1791L55.4797 26.7536L55.9281 27.2021C55.6406 27.2021 55.3417 27.2021 55.0542 27.1791ZM60.9418 24.7297C60.8843 24.8332 60.8153 24.9252 60.7463 25.0172L60.5854 24.8447L61.0338 24.3962L60.9073 24.2697L60.4589 24.7182L60.1369 24.3962L60.0104 24.5227L60.3324 24.8447L59.8609 25.3162L59.5274 24.9827H59.4009V25.1092L59.7344 25.4542L59.1939 25.9946L59.3204 26.1211L59.8609 25.5807L60.0219 25.7417L60.1484 25.6152L59.9874 25.4542L60.4589 24.9827L60.6199 25.1437H60.6658C59.9759 26.0406 58.8605 26.7076 57.5495 27.0181L58.021 26.5466L58.2165 26.7421L58.343 26.6156L58.1475 26.4201L58.573 25.9946L58.9639 26.3856H59.0904V26.2591L58.6995 25.8681L59.0329 25.5347L58.9065 25.4082L58.573 25.7417L58.4235 25.5922L58.297 25.7187L58.4465 25.8681L58.021 26.2936L57.5955 25.8681L57.469 25.9946L57.8945 26.4201L57.4115 26.9031L57.5265 27.0181C57.3655 27.0526 57.2045 27.0871 57.0321 27.1216C56.7791 27.1561 56.5146 27.1676 56.2616 27.1791L56.7446 26.6961L57.0781 27.0296H57.2045V26.9031L56.8711 26.5696L57.469 25.9716L57.3425 25.8451L56.7446 26.4431L56.4571 26.1556H56.3306V26.2821L56.6181 26.5696L56.0661 27.1216L55.5946 26.6386L56.3881 25.8451L56.2616 25.7187L55.4681 26.5121L55.3302 26.3741L55.2037 26.5006L55.3417 26.6386L54.8242 27.1561L54.3182 26.6501L54.6862 26.2821L54.5597 26.1556L54.1917 26.5236L54.1687 26.5006L54.0422 26.6271L54.0652 26.6501L53.6628 27.0526C53.3983 27.0181 53.1453 26.9836 52.8808 26.9376L53.0878 26.7306L53.2948 26.9376L53.4213 26.8111L53.2143 26.6041L53.7318 26.0866L53.6053 25.9601L53.0878 26.4776L52.6278 26.0176L52.8693 25.7762L52.7428 25.6497L52.0413 26.3511L51.6044 25.9141L51.4779 26.0406L51.9149 26.4776L51.7194 26.6731L51.8114 26.7651C51.5699 26.7191 51.3399 26.6846 51.0984 26.6386L50.7649 26.3051L51.4089 25.6612L51.2824 25.5347L50.6384 26.1786L50.3164 25.8566L50.19 25.9831L50.5119 26.3051L50.3164 26.5006V26.5236C50.1325 26.5006 49.937 26.4661 49.753 26.4431L49.5 26.1901L50.259 25.4312L50.1325 25.3047L49.3735 26.0636L49.109 25.7992L48.9825 25.9256L49.2585 26.1901L49.063 26.3856H49.0745C48.9135 26.3856 48.7525 26.3741 48.5915 26.3626L48.2236 25.9716L48.3156 25.8796L48.1891 25.7532L48.0971 25.8451L47.8901 25.6382L47.7636 25.7647L47.9706 25.9716L47.5681 26.3741C47.4991 26.3741 47.4416 26.3741 47.3726 26.3741L47.1196 26.1211L47.7981 25.4427L47.6716 25.3162L46.9931 25.9946L46.5907 25.5922L46.4642 25.7187L46.8666 26.1211L46.5102 26.4776C46.4297 26.4891 46.3492 26.5006 46.2802 26.5121L45.9697 26.1901L46.3262 25.8337L46.1997 25.7072L45.8432 26.0636L45.5557 25.7762L45.4292 25.9026L45.7167 26.1901L45.1647 26.7536C45.1647 26.7536 45.1532 26.7536 45.1417 26.7536V26.6961L44.5438 26.0981L44.7278 25.9141L44.6013 25.7877L43.7273 26.6616L43.3593 26.2936L43.2329 26.4201L43.6008 26.7881L43.2214 27.1676C43.0374 27.2021 42.8534 27.2366 42.6809 27.2596L42.7614 27.1791L42.5199 26.9376L43.2099 26.2476L43.0834 26.1211L42.3934 26.8111L42.0829 26.5006L41.9564 26.6271L42.2669 26.9376L41.9564 27.2481L42.0599 27.3516C41.9104 27.3631 41.7494 27.3861 41.6 27.3861L41.1975 26.9836L41.6459 26.5351L41.5195 26.4086L41.071 26.8571L40.887 26.6731L40.7605 26.7996L40.9445 26.9836L40.68 27.2481L40.3005 26.8686L40.657 26.5121L40.5305 26.3856L40.174 26.7421L40.0475 26.6156L39.921 26.7421L40.0475 26.8801L39.7141 27.2136H39.6911L39.3231 26.8456L39.7371 26.4316L39.6106 26.3051L39.1966 26.7191L38.9321 26.4546L38.8056 26.5811L39.0701 26.8456L38.9666 26.9491C38.8631 26.9031 38.7596 26.8456 38.6561 26.7881L38.5756 26.7076L38.7596 26.5236L38.6331 26.3971L38.4491 26.5811L38.2191 26.3511H38.0927V26.3971C38.0927 26.3971 38.0697 26.3741 38.0582 26.3626L38.5181 25.9026L38.3916 25.7762L37.9202 26.2476C37.8167 26.1441 37.7132 26.0406 37.6212 25.9256L37.7477 25.7992L37.9777 26.0291L38.1042 25.9026L37.8627 25.6612L38.1961 25.3392L38.0697 25.2127L37.7362 25.5462L37.3222 25.1322L37.6787 24.7757L37.5522 24.6492L37.1957 25.0057L37.0692 25.1207H37.0807V25.1437C36.9772 24.9597 36.8852 24.7642 36.8162 24.5687L37.0462 24.3387L37.3337 24.6262H37.4602V24.4997L37.1727 24.2122L37.3452 24.0398L37.2187 23.9133L37.0462 24.0858L36.5862 23.6258L36.5402 23.6718C36.5172 23.5568 36.4942 23.4533 36.4827 23.3383L36.6782 23.1543L37.0807 23.5568H37.2072V23.4303L37.3107 23.5338L37.3682 23.4418C37.4602 23.5913 37.5637 23.7408 37.6672 23.8788L37.4142 24.1317L37.5407 24.2582L37.7822 24.0168C38.0352 24.3272 38.3111 24.6147 38.6446 24.8677L38.4836 25.1437L38.7826 24.9712C40.0015 25.8107 41.7379 26.1326 44.1183 25.4427C49.0055 24.0513 47.8211 23.6258 53.9617 24.7642C55.6636 25.0747 57.4805 25.2127 59.0444 24.4652C59.4699 24.2582 59.8609 23.9708 60.2059 23.6488L60.4359 23.8788L60.2059 24.1088L60.3324 24.2352L60.5624 24.0053L60.7118 24.1547H60.8383V24.0283L60.6888 23.8788L60.8268 23.7408L60.7003 23.6143L60.5624 23.7523L60.3439 23.5338C60.6658 23.2118 60.9303 22.8438 61.1603 22.4413L61.4248 22.7058L61.0453 23.0853L61.1718 23.2118L61.5513 22.8323L61.5973 22.8783C61.5743 23.0048 61.5513 23.1313 61.5283 23.2578L61.4708 23.2003L61.0453 23.6258L61.1718 23.7523L61.4823 23.4418C61.3788 23.9133 61.2178 24.3617 60.9763 24.7642L60.9418 24.7297Z" fill="white"/>
<path d="M38.208 24.5918L38.0815 24.4653L37.978 24.5688L37.6446 24.2354L37.5181 24.3618L37.8515 24.6953L37.6446 24.9023L37.7711 25.0288L37.978 24.8218L38.2195 25.0748L38.346 24.9483L38.1045 24.6953L38.208 24.5918Z" fill="white"/>
<path d="M37.9433 18.6121L38.1963 18.7616H38.2423L38.3228 18.7271L38.2883 18.6006L37.9893 18.4166C38.0468 18.1521 38.1043 17.8991 38.1733 17.6577L38.2653 17.7611L38.3343 17.7841L38.3918 17.7611V17.6347L38.2308 17.4737C38.3228 17.1632 38.4378 16.8757 38.5643 16.5997C38.5988 16.6457 38.6448 16.6917 38.6678 16.7377L38.7483 16.7837H38.7943L38.8288 16.6572C38.7828 16.5652 38.7138 16.4847 38.6448 16.4157C38.6678 16.3582 38.6908 16.3007 38.7138 16.2547C38.8173 16.0592 38.9323 15.8753 39.0473 15.7028L39.1968 15.8408L39.2542 15.8638L39.3232 15.8408V15.7143L39.1393 15.5533C39.3002 15.3233 39.4612 15.1278 39.6452 14.9323L39.8752 15.1393L39.9327 15.1623L40.0017 15.1393V15.0128L39.7602 14.7943C39.9557 14.5988 40.1627 14.4148 40.3812 14.2539C40.4387 14.3113 40.4962 14.3688 40.5307 14.4378L40.6112 14.4838H40.6572L40.6917 14.3573C40.6457 14.2768 40.5882 14.2194 40.5307 14.1504C40.7492 14.0009 40.9791 13.8629 41.2206 13.7594L41.2666 13.6444L41.1516 13.5984C40.8872 13.7134 40.6457 13.8629 40.4042 14.0239C40.3122 13.9549 40.2202 13.8974 40.1167 13.8514L40.0017 13.9089L40.0592 14.0239C40.1282 14.0469 40.1972 14.0929 40.2662 14.1389C40.0477 14.2998 39.8407 14.4723 39.6567 14.6678L39.5302 14.5528H39.4037V14.6908L39.5302 14.8058C39.3577 15.0013 39.1853 15.1968 39.0243 15.4268L38.9898 15.3923H38.8633V15.5188L38.9323 15.5763C38.8058 15.7718 38.6793 15.9558 38.5643 16.1742C38.5413 16.2202 38.5298 16.2662 38.5068 16.3122C38.4608 16.2777 38.4033 16.2317 38.3458 16.2087L38.2193 16.2547L38.2653 16.3697C38.3228 16.3927 38.3803 16.4387 38.4263 16.4847C38.2998 16.7607 38.1848 17.0482 38.0928 17.3472H37.9663V17.4737L38.0353 17.5427C37.9548 17.7956 37.8973 18.0601 37.8283 18.3476L37.6328 18.2326L37.5063 18.2556L37.5408 18.3821L37.7938 18.5316C37.7133 18.9111 37.6558 19.3136 37.6098 19.739C37.5983 19.854 37.7823 19.877 37.7938 19.762C37.8398 19.3596 37.8973 18.9916 37.9663 18.6236L37.9433 18.6121Z" fill="white"/>
<path d="M51.1678 18.842L51.2138 18.911L51.3402 18.934L51.3632 18.8075V18.7845C51.6507 18.6695 51.9382 18.4971 52.1912 18.3131C52.2257 18.3821 52.3522 18.3821 52.3522 18.2786C52.3522 18.2556 52.3522 18.2211 52.3407 18.1981C52.5937 18.0026 52.7892 17.8301 52.8927 17.7496C52.9732 17.6806 53.0766 17.6346 53.1686 17.5656L53.1916 17.6231L53.3066 17.6691L53.3526 17.5426L53.3181 17.4621C53.5826 17.2896 53.8586 17.1286 54.1346 16.9906L54.1921 17.0826L54.3186 17.1171L54.3531 16.9906L54.3071 16.9101C54.6291 16.7607 54.9625 16.6342 55.3075 16.5422L55.3765 16.7032L55.4915 16.7492L55.5375 16.6342L55.48 16.4962C55.7215 16.4387 55.963 16.3812 56.2045 16.3467V16.3697C56.2505 16.4847 56.4115 16.4272 56.377 16.3237C56.5379 16.3007 56.6989 16.2662 56.8599 16.2547L56.9404 16.1627C56.9404 16.0937 56.6874 16.0822 56.308 16.1167L56.2275 15.8637C56.193 15.7487 56.0205 15.8062 56.055 15.9212L56.124 16.1397C55.9055 16.1742 55.664 16.2317 55.388 16.3007L55.319 16.1282C55.273 16.0132 55.112 16.0822 55.1465 16.1972L55.2155 16.3582C54.8935 16.4617 54.5486 16.5767 54.1921 16.7377L54.0886 16.5652L53.9276 16.6572L54.0311 16.8297C53.7666 16.9561 53.4906 17.1171 53.2261 17.2896L53.1686 17.1516L53.0536 17.1056L53.0077 17.2206L53.0881 17.3816C52.9847 17.4506 52.8812 17.5081 52.7777 17.5886C52.6627 17.6691 52.5017 17.8186 52.3062 17.9796C52.2717 17.8761 52.2142 17.7956 52.1452 17.7151L52.0187 17.8416C52.0877 17.9106 52.1222 18.0026 52.1452 18.0946C51.8807 18.3016 51.5702 18.4971 51.2368 18.612L50.9953 18.2786L50.8458 18.3821L51.0528 18.658C50.6963 18.75 50.3398 18.7155 50.0178 18.4396L49.9028 18.5775C50.2938 18.9225 50.7423 18.934 51.1678 18.819V18.842Z" fill="white"/>
<path d="M60.1485 20.291C60.0335 20.5324 59.8955 20.7624 59.7575 20.9809C59.6885 20.9349 59.6195 20.8889 59.539 20.8544L59.424 20.9004L59.47 21.0154C59.539 21.0499 59.608 21.0844 59.6655 21.1304C59.493 21.3834 59.286 21.6134 59.079 21.8319C58.9756 21.6824 58.8491 21.5559 58.6881 21.4754C58.5846 21.4179 58.5041 21.5789 58.6076 21.6364C58.7571 21.7169 58.8721 21.8319 58.9641 21.9814C58.7226 22.2113 58.4696 22.4183 58.1936 22.6023C58.1246 22.5103 58.0441 22.4183 57.9521 22.3493L57.8371 22.4873C57.9061 22.5448 57.9751 22.6253 58.0326 22.6943C57.7336 22.8783 57.4231 23.0278 57.0897 23.1543C57.0207 23.0163 56.9172 22.9358 56.8597 23.0048V23.1313C56.8597 23.1313 56.8942 23.1888 56.9057 23.2233C56.5837 23.3268 56.2502 23.4073 55.9052 23.4533C55.9052 23.2808 55.8477 23.1543 55.7442 23.1888L55.6867 23.3038C55.6867 23.3038 55.7097 23.4188 55.7097 23.4763C55.4223 23.5108 55.1348 23.5108 54.8473 23.4993C54.8818 23.3613 54.8588 23.2233 54.7553 23.2463L54.6863 23.3498C54.6863 23.3498 54.6863 23.4418 54.6863 23.4878C54.4563 23.4648 54.2263 23.4303 53.9848 23.3843L54.0193 23.3268C54.0768 23.2233 53.9273 23.1313 53.8584 23.2348L53.8009 23.3268C53.6514 23.2923 53.4904 23.2693 53.3409 23.2118C53.2259 23.1658 53.1684 23.3383 53.2834 23.3843C53.4214 23.4303 53.5709 23.4533 53.7204 23.4878L53.6974 23.5338C53.6399 23.6373 53.8009 23.7293 53.8584 23.6258L53.9158 23.5338C54.1458 23.5913 54.3873 23.6373 54.6173 23.6603C54.6173 23.6603 54.6173 23.6718 54.6173 23.6833L54.7438 23.8098C54.7438 23.8098 54.8013 23.7293 54.8358 23.6718C55.1463 23.6948 55.4453 23.6833 55.7442 23.6603C55.7442 23.7063 55.7327 23.7638 55.7097 23.8098C55.6637 23.9132 55.8247 23.9822 55.8707 23.8787C55.8937 23.8213 55.9167 23.7293 55.9167 23.6373C56.2732 23.5913 56.6182 23.5108 56.9632 23.3958C56.9632 23.4418 56.9632 23.4763 56.9517 23.5223C56.9057 23.6373 57.0667 23.7063 57.1242 23.5913C57.1587 23.4993 57.1702 23.4188 57.1587 23.3383C57.5036 23.2118 57.8371 23.0508 58.1591 22.8553C58.2051 22.9243 58.2626 23.0048 58.2971 23.0853L58.3776 23.1428H58.4121L58.4581 23.0163C58.4236 22.9358 58.3661 22.8553 58.3086 22.7863C58.5846 22.6023 58.8491 22.3953 59.0905 22.1653L59.148 22.1998H59.1825L59.2285 22.0734C59.2285 22.0619 59.217 22.0504 59.2055 22.0389C59.424 21.8204 59.631 21.5789 59.815 21.3144C59.8265 21.3259 59.8495 21.3489 59.861 21.3604L59.93 21.3949H59.976L59.999 21.2569C59.976 21.2224 59.93 21.1879 59.907 21.1534C60.0565 20.9119 60.2175 20.6819 60.3325 20.4175C60.3785 20.314 60.2175 20.2335 60.1715 20.337L60.1485 20.291Z" fill="white"/>
<path d="M41.7038 21.4409L41.6003 21.3259L41.4623 21.4409L41.5198 21.4984C41.3128 21.5789 41.1058 21.6824 40.8873 21.8319L40.8183 21.7169L40.6688 21.8089L40.7378 21.9239C40.5653 22.0504 40.4043 22.1884 40.2663 22.3609L40.2088 22.2919L40.0709 22.4069L40.1628 22.5219C40.0709 22.6484 39.9674 22.7748 39.8984 22.9358C39.8179 22.9128 39.7374 22.9013 39.6914 22.8898C39.5764 22.8783 39.5534 23.0508 39.6684 23.0738C39.7259 23.0738 39.7834 23.1083 39.8409 23.1198C39.7719 23.2808 39.7029 23.4533 39.6684 23.6488C39.6454 23.7638 39.8179 23.7983 39.8409 23.6833C39.8754 23.4993 39.9329 23.3268 40.0019 23.1658C40.1169 23.2118 40.2433 23.2578 40.3468 23.3268L40.4733 23.3038C40.5423 23.2003 40.3123 23.0853 40.0824 23.0048C40.1398 22.8898 40.2088 22.7863 40.2778 22.6828L40.3813 22.8093H40.5078L40.5193 22.6943L40.3813 22.5219C40.5193 22.3609 40.6803 22.2114 40.8413 22.0849L40.9908 22.3034L41.1173 22.3264L41.1403 22.1999L40.9908 21.9699C41.1978 21.8319 41.4278 21.7284 41.6808 21.6594L41.8188 21.8204H41.9452V21.7054L41.8647 21.6134C42.0142 21.5789 42.1637 21.5674 42.3247 21.5559L42.4167 21.4639C42.4167 21.3374 42.1177 21.3259 41.7268 21.4409H41.7038Z" fill="white"/>
</g>
<defs>
<clipPath id="clip0_22_652">
<path d="M36 12H62V14.7541C62 21.9338 56.1797 27.7541 49 27.7541C41.8203 27.7541 36 21.9338 36 14.7541V12Z" fill="white"/>
</clipPath>
</defs>
</svg>
