<?xml version="1.0" encoding="UTF-8"?>
<svg xmlns="http://www.w3.org/2000/svg" version="1.1" viewBox="0 0 180 183">
  <defs>
    <style>
      .cls-1 {
        fill: #f17324;
      }

      .cls-2 {
        fill: #90ae3d;
      }
    </style>
  </defs>
  <!-- Generator: Adobe Illustrator 28.6.0, SVG Export Plug-In . SVG Version: 1.2.0 Build 709)  -->
  <g>
    <g id="Layer_1">
      <path class="cls-1" d="M46.6,151.9c-1.8,0-3.4-1.1-4-2.7l-15.3-36.7c-.5-1.1-.5-2.3,0-3.4.4-1.1,1.3-1.9,2.4-2.4l9-3.7c.5-.2,1.1-.3,1.7-.3,1.8,0,3.4,1.1,4,2.7l1.4,3.4,1.2-.6c3.7-1.7,8.6-4.1,13.5-6.5,4.8-2.4,8.8-4.1,13.2-4.1s8.6,1.7,13.9,5.4h.2c0,.1,16.9,4.7,16.9,4.7,2.4.6,4.4,2.3,5.4,4.5l.5,1,24.6-7.2c3.1-.9,5.8-1.4,8.2-1.4s2.7.2,3.8.5c2.6.7,4.5,2.4,5.3,4.7,1.6,4.8-1.5,11-6.6,12.9l-35.3,13.6c-.4.1-.7.3-1.1.4h0c-4.4,1.7-9.4,3.7-14.2,3.7-1.4,0-2.7-.2-3.9-.5l-18.8-5.5c-1-.3-2-.4-3-.4-1.5,0-3.1.4-4.5,1.1l-7,3.4,1.5,3.6c.5,1.1.5,2.3,0,3.4-.4,1.1-1.3,1.9-2.4,2.4l-9,3.8c-.5.2-1.1.3-1.7.3ZM40.4,103.7c-.4,0-.9,0-1.3.3l-9,3.7c-.8.3-1.5,1-1.8,1.8-.3.8-.3,1.7,0,2.6l15.3,36.7c.5,1.2,1.7,2.1,3.1,2.1s.9,0,1.3-.3l9-3.8c.8-.3,1.5-1,1.8-1.8.3-.8.3-1.7,0-2.6l-15.3-36.7c-.5-1.2-1.7-2.1-3.1-2.1ZM69.7,133c1.1,0,2.2.2,3.3.5l18.8,5.5c1.1.3,2.3.5,3.6.5,4.6,0,9.7-2,13.8-3.6.4-.2.8-.3,1.1-.4l35.3-13.6c4.5-1.7,7.5-7.4,6-11.6-.6-1.7-2.4-4.5-8.2-4.5s-5,.4-7.9,1.3l-24.6,7.2v1.1c.2,1,0,1.9-.2,2.9-.6,2.2-2,4-4,5.2-1.3.8-2.8,1.2-4.3,1.2s-1.5,0-2.2-.3l-22.6-6.1c-.3,0-.4-.4-.4-.6,0-.2.3-.4.5-.4s0,0,.1,0l22.6,6.1c.6.2,1.3.3,1.9.3,1.3,0,2.6-.3,3.7-1,1.7-1,3-2.6,3.5-4.5.5-1.9.2-3.9-.7-5.7s-2.6-3-4.5-3.5l-17-4.6c0,0-.1,0-.2,0-5.3-3.7-9.4-5.4-13.6-5.4s-8,1.7-12.7,4c-4.9,2.4-9.9,4.8-13.7,6.6l-1.1.5,11.6,27.8,6.9-3.4c1.6-.8,3.3-1.2,5-1.2ZM45,90c0,0-.2,0-.3-.1l-10.5-8c-.1,0-.2-.3-.2-.4s0-.3.2-.4l10.5-8c0,0,.2-.1.3-.1s.2,0,.2,0c.2,0,.3.3.3.5v3.6h8c.3,0,.5.2.5.5s-.2.5-.5.5h-8.5c-.3,0-.5-.2-.5-.5v-3l-9.1,6.9,9.1,6.9v-3c0-.3.2-.5.5-.5h8.5c.3,0,.5.2.5.5s-.2.5-.5.5h-8v3.6c0,.2-.1.4-.3.5,0,0-.2,0-.2,0ZM142,59.3c0,0-.2,0-.2,0-.2,0-.3-.3-.3-.5v-3.6h-8c-.3,0-.5-.2-.5-.5s.2-.5.5-.5h8.5c.2,0,.3,0,.4.2,0,0,.2.2.2.4v3l9.1-6.9-9.1-6.9v3c0,.3-.2.5-.5.5h-8.5c-.3,0-.5-.2-.5-.5s.2-.5.5-.5h8v-3.6c0-.2.1-.4.3-.5,0,0,.2,0,.2,0,.1,0,.2,0,.3.1l10.5,8c.1,0,.2.3.2.4s0,.3-.2.4l-10.5,8c0,0-.2.1-.3.1Z"/>
      <path class="cls-2" d="M125.1,42.3h-20.6v-6.9c0-2.3-1.9-4.2-4.2-4.2h-13.6c-2.3,0-4.2,1.9-4.2,4.2v6.9h-20.6c-.9,0-1.6.7-1.6,1.6v44.5c0,.9.7,1.6,1.6,1.6h63.2c.9,0,1.6-.7,1.6-1.6v-44.5c0-.9-.7-1.6-1.6-1.6ZM83.5,35.3c0-1.8,1.4-3.2,3.2-3.2h13.6c1.8,0,3.2,1.4,3.2,3.2v6.9h-20v-6.9ZM125.7,89H61.3v-35.8l28.3,11.6v3.1c0,2.1,1.7,3.8,3.8,3.8s3.8-1.7,3.8-3.8v-3.1l28.3-11.6v35.8ZM90.7,67.9v-8.2h5.6v8.2c0,1.5-1.2,2.8-2.8,2.8s-2.8-1.2-2.8-2.8ZM125.7,52l-28.3,11.6v-4.6c0-.3-.2-.5-.5-.5h-6.6c-.3,0-.5.2-.5.5v4.6l-28.3-11.6v-8.7h64.3v8.7Z"/>
    </g>
  </g>
</svg>