<?xml version="1.0" encoding="UTF-8"?>
<svg xmlns="http://www.w3.org/2000/svg" version="1.1" viewBox="0 0 180 183">
  <defs>
    <style>
      .cls-1 {
        fill: #f17324;
      }

      .cls-2 {
        fill: #90ae3d;
      }
    </style>
  </defs>
  <!-- Generator: Adobe Illustrator 28.6.0, SVG Export Plug-In . SVG Version: 1.2.0 Build 709)  -->
  <g>
    <g id="Layer_1">
      <g>
        <path class="cls-1" d="M26.2,155.3h0c0-.4,0-.7,0-1v-5.6c0-6.3,0-12.6,0-18.9,0-4.1,1.9-7.5,5.5-9.9.6-.4,1-.7,1.3-.7s.6.3,1.2.8c-2.8,1.2-4.7,2.9-5.7,5.3-.4,1-.9,2.4-.9,3.7,0,6.2,0,12.6,0,18.7v5.4c0,.1,0,.3,0,.4v.6h19.8v-3.5c0-2.9,0-5.8,0-8.7,0-.6.2-1.3.6-2,.9-1.8,1.9-3.6,2.8-5.4,1-1.9,2-3.8,3-5.8.3-.5.3-1.4.2-2-1-3.2-3.1-5.5-6.2-6.8.4-.5.7-.7,1-.7s.7.2,1.3.6c2.1,1.3,3.6,3.1,4.7,5.5l.4.9,5.6-10.6c2.5-4.6,4.9-9.3,7.3-14,.3-.5.4-1.2.3-1.8-.7-3.7-2.9-6.4-6.5-8,.4-.5.7-.8,1-.8s.7.3,1.4.7c2.3,1.5,3.9,3.5,4.8,6.1l.6,1.8,5.9-1v-9.8c0-1.8,0-3.6,0-5.4,0-4.1,1.8-7.3,5.1-9.6.8-.6,1.3-.9,1.6-.9s.5.2,1,.6c-.3.2-.6.4-.9.7-1.1.8-2.3,1.6-3.2,2.7-1.4,1.7-2.2,3.6-2.3,5.1-.2,3.9-.2,7.7-.1,11.8,0,1.5,0,3.1,0,4.6v.5h26.4v-.2c.3-.2.4-.3.4-.6,0-1.5,0-2.9,0-4.4,0-3.6,0-7.2,0-10.9-.2-4.3-2.4-7.4-6.5-9.1,0,0-.1,0-.2,0,.5-.5.8-.8,1.1-.8s.8.3,1.5.8c3.5,2.4,5.3,5.8,5.4,10.1,0,3.4,0,6.7,0,10.1v4.8s5.9.9,5.9.9v-.4c.6-1.7,1.5-4.1,3.5-5.9h.1c.5-.6,1.1-1.1,1.6-1.5.7-.5,1.2-.9,1.5-.9s.5.2.9.6c-.3.3-.7.5-1,.8-1.2.9-2.3,1.8-3.3,2.9-.8,1-1.2,2.2-1.7,3.4-.1.4-.3.7-.4,1.1-.2.5,0,1.2.2,1.6,3.5,6.7,7,13.3,10.5,20l1.7,3.1c.2.3.3.5.6.5h.3l.2-.4c.4-.4.8-.9,1.2-1.3,1.1-1.2,2.2-2.3,3.4-3.4.7-.6,1.1-.9,1.4-.9s.6.3,1.2.8c0,0,0,0-.1,0-.6.3-1.2.6-1.7,1-1.1.9-2.4,2.2-3.5,3.7-1.2,1.7-1.3,3.3-.2,5.1,1.5,2.5,2.8,5.1,4,7.6.4.8.8,1.6,1.2,2.3.3.5.6,1.2.6,1.7,0,3.4,0,6.9,0,10.3v.5c0,.2,0,.5-.1.8,0,.2,0,.3-.1.5v.6c-.1,0,20.2,0,20.2,0v-2.2c0-2.1,0-4.2,0-6.3,0-4.8,0-9.8,0-14.7,0-5.4-2.1-9-6.7-11,.5-.5.7-.8,1-.8s.8.3,1.4.7c3.5,2.3,5.4,5.5,5.4,9.6,0,6.2,0,12.4,0,18.5,0,2.4,0,4.8,0,7.3,0,0,0,0,0,0H26.2ZM128.4,154.2h.6c.2,0,.4,0,.5,0,1.6-.3,2-1.4,1.9-2.3v-.5s-5.4,0-5.4,0c-.8,0-1.6,0-2.4,0h0c-.2,0-.4,0-.6,0-.2,0-.4,0-.6,0-.7,0-.8-.2-.8-.6,0-.2,0-.4.1-.5,0,0,.3-.1.6-.1s.3,0,.5,0c.2,0,.4,0,.5,0h.2c.4,0,.9,0,1.3,0,0,0,1.7,0,2.1,0h4.6v-2.9c-.1,0-8.1,0-8.1,0-1.6,0-4.7,0-4.7,0-.4,0-.9,0-1.1-.2,0,0-.1-.2-.1-.4,0-.4.1-.5,1.1-.5,1.7,0,3.4,0,5,0h7.8v-2.8h-8.7c-.3,0-.9,0-1.1-.2,0,0-.1-.1-.1-.4,0-.4.1-.5,1.1-.5,1.2,0,8.4,0,8.4,0h.6v-.6c-.5-2-1.9-2.3-3.2-2.3-19.1,0-38.2,0-57.4,0h-19.1c-.1,0-.3,0-.4,0-.2,0-.3,0-.5,0s-.3,0-.5,0c-1.4.2-2.1,1-2.1,2.4v.5s4.8,0,4.8,0c1.1,0,2.2,0,3.3,0h0c.2,0,.4,0,.6,0,.2,0,.3,0,.5,0,.3,0,.5,0,.6.1.1.1.1.3.1.5,0,.4,0,.6-.9.6s-.7,0-.9,0c-1.2,0-2.3,0-3.4,0h-4.9s.1,2.8.1,2.8h6.3c2.2,0,4.4,0,6.5,0,.3,0,1,.4,1,.6,0,.2,0,.3,0,.3,0,0-.3.2-1,.2-1.6,0-7.8,0-7.8,0h-5.1v2.9h5.7c1.1,0,2.3,0,3.4,0,.1,0,.4.3.6.5,0,0,0,0,0,0-.3.2-.5.5-.8.6,0,0-.2,0-.3,0s-.2,0-.4,0c-.2,0-.3,0-.5,0h-8v.5c.5,2.2,2.1,2.2,3.2,2.2,17.7,0,35.5,0,53.3,0h23.6ZM74.2,100.2c-3,0-5,1.2-6.4,4-2.9,5.6-5.8,11.3-8.7,16.8-1.2,2.3-2.4,4.5-3.5,6.8l-5.4,10.4h79.7l-.5-1c0-.2-.2-.4-.3-.6l-3.2-6.2c-4.7-9-9.4-18-14.1-26.9-1.1-2.1-2.9-3.2-5.4-3.2h-.7c-5.4,0-10.9,0-16.3,0s-10.1,0-15.1,0h0Z"/>
        <path class="cls-2" d="M43.5,87.2c-1.1,0-2.1-.1-3-.4-2-.5-2.3-2.5-2.3-3.7,0-4.1,0-8.2,0-12.3v-38.8c0-3.1,1.3-4.4,4.4-4.4h95c3,0,4.3,1.3,4.3,4.3,0,17,0,33.9,0,50.9,0,2.7-1.4,4.2-4.2,4.3-.3,0-.6,0-1,0h-1c.2-1,.6-1.3,1.5-1.3s.2,0,.3,0c.2,0,.4,0,.5,0,2.2,0,2.7-1.3,2.7-3.2,0-.4,0-.8,0-1.3v-1.3h-.5c-.3,0-.6,0-.8,0-.3,0-.5,0-.8,0s-.7,0-1,0c-.1,0-.3,0-.4,0-.4,0-.7,0-.8-.3-.2-.2-.3-.5-.3-.9h4.6v-46.8c0-2.6-.8-3.3-3.3-3.3H42.8c-2.8,0-3.5.7-3.5,3.5,0,16.7,0,33.3,0,50,0,2.4.4,3.5,2.9,3.5s.4,0,.6,0h.2c.8,0,1.1.3,1.4,1.3-.3,0-.6,0-.9,0Z"/>
        <path class="cls-1" d="M54.6,91.1c-4.7,0-8.4-4-8.4-8.7,0-4.7,3.9-8.5,8.6-8.5,4.8,0,8.7,4,8.6,8.8,0,4.7-3.9,8.5-8.7,8.5h-.1ZM54.7,75.1c-4,0-7.4,3.4-7.3,7.3,0,4.2,3.3,7.5,7.4,7.5,4.1,0,7.5-3.3,7.5-7.3,0-2.1-.8-4-2.2-5.5-1.4-1.4-3.3-2.2-5.3-2.2h0Z"/>
        <path class="cls-1" d="M125.1,91.1c-4.7,0-8.5-3.8-8.6-8.6,0-2.2.8-4.3,2.4-5.9,1.6-1.7,3.9-2.6,6.1-2.7h0c4.9,0,8.7,3.8,8.7,8.7,0,2.2-.9,4.4-2.5,6-1.6,1.6-3.8,2.5-6.1,2.6h0ZM125.2,75.1c-4.1,0-7.5,3.3-7.5,7.4,0,4.2,3.3,7.5,7.5,7.5,4,0,7.4-3.4,7.4-7.3,0-2.1-.8-4-2.2-5.4-1.4-1.4-3.2-2.2-5.2-2.2h0Z"/>
        <path class="cls-1" d="M90,73.1c-4.6,0-8.6-3.9-8.6-8.5,0-2.3.9-4.5,2.5-6.1,1.6-1.7,3.8-2.6,6.2-2.6,4.7,0,8.5,3.9,8.6,8.7,0,2.1-.9,4.2-2.4,5.9-1.7,1.7-3.9,2.7-6.2,2.7h0ZM90,57c-2,0-3.9.8-5.3,2.1-1.4,1.4-2.1,3.2-2.1,5.2,0,4.1,3.2,7.4,7.3,7.5h0c4.1,0,7.5-3.4,7.5-7.4,0-2.1-.8-4-2.1-5.4-1.4-1.4-3.2-2.1-5.3-2.1h0Z"/>
        <path class="cls-1" d="M139.2,119.3c-4.8,0-8.6-3.8-8.6-8.6,0-2.3.9-4.5,2.5-6.1,1.6-1.6,3.8-2.5,6-2.5,4.8,0,8.7,3.9,8.7,8.7,0,4.7-3.8,8.6-8.6,8.6h0ZM139.2,103.2c-4.1,0-7.4,3.3-7.4,7.4,0,4.1,3.2,7.4,7.3,7.5h0c4.1,0,7.5-3.3,7.5-7.3,0-2-.7-3.9-2.1-5.3-1.4-1.4-3.3-2.2-5.3-2.2h0Z"/>
        <path class="cls-1" d="M40.7,119.3c-4.7,0-8.6-3.9-8.6-8.7,0-2.2.9-4.4,2.5-6,1.6-1.6,3.9-2.6,6.1-2.6,4.7,0,8.6,3.9,8.6,8.6,0,2.3-.9,4.4-2.5,6.1-1.6,1.6-3.8,2.6-6.1,2.6h0ZM40.8,103.2c-4.2,0-7.4,3.3-7.5,7.4,0,4.1,3.2,7.4,7.3,7.5h0c4.1,0,7.5-3.3,7.6-7.3,0-2-.7-3.9-2.2-5.4-1.4-1.4-3.3-2.2-5.2-2.2h0Z"/>
        <path class="cls-1" d="M90.1,87c-.3,0-.7,0-1-.2-.7-.3-1.4-.7-1.9-1.3-.5-.5-.8-1.2-.7-1.7.3-2.3.8-4.7,1.2-6.9l.4-2h3.4l.5,2c.5,2.3,1.1,4.7,1.6,7.1,0,.3-.2,1-.6,1.4-.6.6-1.4,1.1-2.1,1.4-.2,0-.4.1-.7.1ZM89.3,75l-.5,2.3c-.4,2-.8,4.1-1.1,6.1-.1.7.6,1.5,1.2,1.8.3.1.7.2,1,.2s.8,0,1-.2c.5-.3,1.3-1.2,1.1-1.9-.4-2-.9-4.1-1.3-6.1l-.5-2.4h-1Z"/>
        <path class="cls-2" d="M80.6,42.9c-.6,0-.9,0-1-.2,0,0,0-.2,0-.4,0-.1.8-.5,1.2-.5,3.5,0,7.1,0,10.6,0h8c.4,0,1,0,1.1.2,0,0,.1.2.1.4,0,.4-.1.6-1,.6h-14.8c-1.4,0-2.7,0-4.1,0h0Z"/>
        <path class="cls-1" d="M40.5,99.1c.9-3.8,3-6.4,6.3-7.9h0c.3,0,.8.2,1.1.4,0,0,.2,0,.3.1-3.4,1.3-5.6,3.8-6.7,7.4h-1.1Z"/>
        <path class="cls-2" d="M88.1,38.9c-.6,0-1.2,0-1.7,0-.2,0-.4-.3-.7-.5,0,0,0,0,0,0,0,0,0,0,0,0,.2-.2.5-.5.6-.5,1.4,0,2.8,0,4.2,0s2.8,0,4.1,0c.1,0,.4.3.6.5,0,0,0,0,0,0,0,0,0,0,0,0-.2.2-.5.5-.6.5-.6,0-1.2,0-1.8,0s-.8,0-1.2,0c-.4,0-.8,0-1.2,0s-.8,0-1.2,0c-.4,0-.8,0-1.2,0Z"/>
        <path class="cls-1" d="M138.4,99.1c-1-3.5-3.2-6-6.5-7.3.5-.5.8-.7,1.1-.7s.8.3,1.6.8c2.6,1.8,4.2,4.1,4.9,7.2h-1.1Z"/>
        <path class="cls-2" d="M90.1,47c-1.3,0-2.6,0-3.9,0-.1,0-.4-.3-.5-.5,0,0,0,0,0,0,0,0,0,0,0,0,.2-.2.4-.4.6-.4.6,0,1.3,0,1.9,0s2.1,0,2.5,0,.8,0,1.2,0c.4,0,.8,0,1.1,0,.6,0,1.2,0,1.8,0,.1,0,.4.3.6.4,0,0,0,0,0,0,0,0,0,0,0,0-.2.2-.4.5-.6.5-1.5,0-3.1,0-4.6,0Z"/>
        <path class="cls-2" d="M107.6,87.1v-1.1c.4,0,.9,0,1.4,0,.6,0,1.2,0,1.8,0,1.2,0,2.1,0,3,.1.2,0,.6.5.8.8,0,0,.1.2.2.2h-7.2Z"/>
        <path class="cls-2" d="M107.9,80.1c-.6,0-1-.2-1.2-1.1h7.5c-.1.9-.6,1.1-1.3,1.1s-.3,0-.4,0c-.8,0-1.5-.1-2.2-.1s-1.4,0-2,.1c-.1,0-.3,0-.4,0Z"/>
        <path class="cls-2" d="M94.4,119.3c-.4,0-.9,0-1.4,0-1-.1-2.1-.2-3.4-.2s-1.8,0-2.8,0c-.8,0-1.5,0-2.3,0v-.3s-11.5-.5-11.5-.5h-.6c-.2,0-.5,0-.6,0-.8-.3-1.2-.6-1.3-.8,0-.2.2-.9.5-1.3,2.9-2.8,5.8-4.1,9.2-4.1s.8,0,1.3,0c4.6.4,9.2.5,13.8.7,2,0,3.9.1,5.9.2h.7c.1,0,.3,0,.3,0h.2c.5.3,1.1.7,1.2,1,0,.2-.2.9-.6,1.2-2.3,2.1-5,4.1-8.5,4.1ZM79.4,113.2c-2.5,0-4.6,1-6.6,3.1l-.7.7h1.4c.2.1.4.2.5.2,2,0,4,.1,6,.2,4.8.2,9.8.3,14.6.6.1,0,.3,0,.4,0,2.4,0,4.1-1.2,6.1-3l.7-.7-1.5-.2c-.3,0-.6,0-.9,0-2,0-3.9-.1-5.9-.2-4.5-.2-9.1-.3-13.6-.6-.2,0-.4,0-.6,0Z"/>
        <path class="cls-2" d="M99.9,124.3c-.4,0-.8,0-1.3,0-4.6-.4-9.4-.6-13.9-.7-2.1,0-4.1-.1-6.1-.2,0,0-.3,0-.3,0-.3,0-.8,0-.9-.1-.4-.3-.7-.9-.7-1.3.1-.2.6-.5.8-.5h0c.3,0,.5,0,.7,0,.2,0,.4,0,.5,0s.3,0,.4.5c0,.5.5.5,1.3.5l7.3.3c4.6.2,9.1.3,13.7.5h.2c2.1,0,3.6-1.2,5.2-2.5l1.6-1.3-5.4-.3c.7-.6,1.3-1.1,2.1-1.1s.3,0,.4,0c.3,0,.7,0,1.1,0h.7c.3,0,.7,0,1.1,0,.6.1,1.2.5,1.4.9,0,.2-.2.9-.5,1.2-3,2.8-5.8,4.1-9.1,4.1Z"/>
      </g>
    </g>
  </g>
</svg>