<?xml version="1.0" encoding="UTF-8"?>
<svg xmlns="http://www.w3.org/2000/svg" version="1.1" viewBox="0 0 180 183">
  <defs>
    <style>
      .cls-1 {
        fill: #f17324;
      }

      .cls-2 {
        fill: #90ae3d;
      }
    </style>
  </defs>
  <!-- Generator: Adobe Illustrator 28.6.0, SVG Export Plug-In . SVG Version: 1.2.0 Build 709)  -->
  <g>
    <g id="Layer_1">
      <g>
        <path class="cls-1" d="M148,75H32c-.5,0-1,.5-1,1v65.2c0,8,6.5,14.5,14.5,14.5h89.1c8,0,14.5-6.5,14.5-14.5v-65.2h0c0-.6-.4-1-1-1ZM147,141.1c0,6.9-5.6,12.5-12.5,12.5H45.5c-6.9,0-12.5-5.6-12.5-12.5v-64.2h114.1v64.2Z"/>
        <path class="cls-1" d="M148,75H32c-.5,0-1,.5-1,1v65.2c0,8,6.5,14.5,14.5,14.5h89.1c8,0,14.5-6.5,14.5-14.5v-65.2h0c0-.6-.4-1-1-1ZM147,141.1c0,6.9-5.6,12.5-12.5,12.5H45.5c-6.9,0-12.5-5.6-12.5-12.5v-64.2h114.1v64.2Z"/>
        <path class="cls-1" d="M121.8,30c-1.6-1.6-3.8-2.6-6.2-2.6-4.8,0-8.7,3.9-8.7,8.7v14.4c0,1.2.2,2.3.7,3.4.2.4.3.7.6,1.1.2.3.3.5.5.8.3.3.5.6.8.9.2.2.4.4.6.6,0,0,0,0,0,0,1.5,1.3,3.5,2,5.5,2h0c.7,0,1.5,0,2.2-.2,0,0,0,0,.1,0,.1,0,.2,0,.4-.1.2,0,.5-.2.7-.3.1,0,.3-.1.4-.2,0,0,0,0,0,0,2.9-1.4,4.9-4.4,4.9-7.8v-14.4c0-2.3-1-4.5-2.6-6.1ZM115.6,57.2c-3.7,0-6.7-3-6.7-6.7v-14.4c0-3.7,3-6.7,6.7-6.7,3.7,0,6.7,3,6.8,6.7v14.4c0,3.7-3,6.7-6.8,6.7Z"/>
        <path class="cls-1" d="M121.8,30c-1.6-1.6-3.8-2.6-6.2-2.6-4.8,0-8.7,3.9-8.7,8.7v14.4c0,1.2.2,2.3.7,3.4.2.4.3.7.6,1.1.2.3.3.5.5.8.3.3.5.6.8.9.2.2.4.4.6.6,0,0,0,0,0,0,1.5,1.3,3.5,2,5.5,2h0c.7,0,1.5,0,2.2-.2,0,0,0,0,.1,0,.1,0,.2,0,.4-.1.2,0,.5-.2.7-.3.1,0,.3-.1.4-.2,0,0,0,0,0,0,2.9-1.4,4.9-4.4,4.9-7.8v-14.4c0-2.3-1-4.5-2.6-6.1ZM115.6,57.2c-3.7,0-6.7-3-6.7-6.7v-14.4c0-3.7,3-6.7,6.7-6.7,3.7,0,6.7,3,6.8,6.7v14.4c0,3.7-3,6.7-6.8,6.7Z"/>
        <path class="cls-1" d="M70.5,30c-1.6-1.6-3.8-2.6-6.1-2.6-4.8,0-8.7,3.9-8.7,8.7v14.4c0,2.3.9,4.5,2.6,6.1,1.6,1.6,3.9,2.6,6.2,2.5,4.8,0,8.7-3.9,8.7-8.7v-14.4c0-2.3-.9-4.5-2.6-6.1ZM71.1,50.5c0,1.8-.7,3.5-2,4.8-2.6,2.6-6.9,2.6-9.5,0-1.3-1.2-2-3-2-4.8v-14.4c0-3.7,3-6.7,6.8-6.7,3.7,0,6.7,3,6.7,6.7v14.4Z"/>
        <path class="cls-1" d="M70.5,30c-1.6-1.6-3.8-2.6-6.1-2.6-4.8,0-8.7,3.9-8.7,8.7v14.4c0,2.3.9,4.5,2.6,6.1,1.6,1.6,3.9,2.6,6.2,2.5,4.8,0,8.7-3.9,8.7-8.7v-14.4c0-2.3-.9-4.5-2.6-6.1ZM71.1,50.5c0,1.8-.7,3.5-2,4.8-2.6,2.6-6.9,2.6-9.5,0-1.3-1.2-2-3-2-4.8v-14.4c0-3.7,3-6.7,6.8-6.7,3.7,0,6.7,3,6.7,6.7v14.4Z"/>
        <path class="cls-1" d="M134.5,43.2h-11.1c-.5,0-1,.4-1,1v6.3c0,3.7-3,6.7-6.8,6.7-3.7,0-6.7-3-6.7-6.7v-6.3c0-.5-.4-1-1-1h-35.8c-.5,0-1,.4-1,1v6.3c0,1.8-.7,3.5-2,4.8-2.6,2.6-6.9,2.6-9.5,0-1.3-1.2-2-3-2-4.8v-6.3c0-.5-.4-1-1-1h-11.2c-8,0-14.5,6.5-14.5,14.5v18.3c0,0,0,.2,0,.3.1.4.5.7.9.7h116c.5,0,1-.4,1-1h0v-18.4c0-8-6.5-14.5-14.5-14.4ZM33,57.6c0-6.9,5.6-12.5,12.5-12.5h10.1v5.3c0,2.3.9,4.6,2.6,6.2,1.6,1.6,3.8,2.6,6.2,2.6s4.5-.9,6.2-2.6c1.6-1.6,2.6-3.8,2.6-6.2v-5.3h33.8v5.3c0,1.2.2,2.3.7,3.4.2.4.3.7.6,1.1.2.3.3.5.5.8.4.6.9,1.1,1.5,1.5,0,0,0,0,0,0,1.5,1.2,3.4,2,5.5,2s1.5-.1,2.2-.3c0,0,0,0,.1,0,.1,0,.2,0,.4-.1.2,0,.5-.2.7-.3.1,0,.3-.1.4-.2,0,0,0,0,0,0,2.9-1.4,4.9-4.4,4.9-7.8v-5.3h10.1c6.9,0,12.5,5.6,12.5,12.4v17.3H33v-17.3Z"/>
        <path class="cls-1" d="M124.4,45.2v5.3c0,3.5-2,6.4-4.9,7.8,2.9-1.4,4.9-4.4,4.9-7.8v-5.3h0Z"/>
        <path class="cls-1" d="M90,89.6c-14.2,0-25.7,11.5-25.7,25.7,0,14.2,11.5,25.7,25.7,25.7,14.2,0,25.6-11.5,25.6-25.7h0c0-14.2-11.5-25.7-25.7-25.7ZM90,138.9c-13.1,0-23.7-10.6-23.7-23.7s10.6-23.7,23.7-23.7,23.7,10.6,23.7,23.7-10.6,23.7-23.7,23.7Z"/>
        <path class="cls-2" d="M90,89.6c-14.2,0-25.7,11.5-25.7,25.7,0,14.2,11.5,25.7,25.7,25.7,14.2,0,25.6-11.5,25.6-25.7h0c0-14.2-11.5-25.7-25.7-25.7ZM90,138.9c-13.1,0-23.7-10.6-23.7-23.7s10.6-23.7,23.7-23.7,23.7,10.6,23.7,23.7-10.6,23.7-23.7,23.7Z"/>
        <path class="cls-1" d="M99.2,126.2h-9c-1.9,0-3.4-1.5-3.4-3.4h0v-17.9c0-.5.4-1,1-1s1,.4,1,1v17.9c0,.8.7,1.5,1.5,1.5h9c.5,0,1,.4,1,1s-.4,1-1,1Z"/>
        <path class="cls-2" d="M99.2,126.2h-9c-1.9,0-3.4-1.5-3.4-3.4h0v-17.9c0-.5.4-1,1-1s1,.4,1,1v17.9c0,.8.7,1.5,1.5,1.5h9c.5,0,1,.4,1,1s-.4,1-1,1Z"/>
        <path class="cls-1" d="M87.7,98.9c-1.1,3-2.7,5.9-4.7,8.4l4.7-1.7,4.7,1.7c-2-2.5-3.6-5.4-4.7-8.4Z"/>
        <path class="cls-2" d="M87.7,98.9c-1.1,3-2.7,5.9-4.7,8.4l4.7-1.7,4.7,1.7c-2-2.5-3.6-5.4-4.7-8.4Z"/>
      </g>
    </g>
  </g>
</svg>