<?xml version="1.0" encoding="UTF-8"?>
<svg xmlns="http://www.w3.org/2000/svg" version="1.1" viewBox="0 0 180 183">
  <defs>
    <style>
      .cls-1 {
        fill: #f17324;
      }

      .cls-2 {
        fill: #90ae3d;
      }
    </style>
  </defs>
  <!-- Generator: Adobe Illustrator 28.6.0, SVG Export Plug-In . SVG Version: 1.2.0 Build 709)  -->
  <g>
    <g id="Layer_1">
      <path class="cls-1" d="M30.2,151.9c-2.6,0-4.8-2.1-4.8-4.8v-4.1c0-.4.3-.6.6-.6h9.7v-71.5c0-3.8,3.1-6.8,6.8-6.8h24.7c.4,0,.6.3.6.6s-.3.6-.6.6h-24.7c-3.1,0-5.5,2.5-5.5,5.5v71.5h9.4l-.2-1.5c0-.7-.1-1.4-.1-2,0-8.3,6.8-15.1,15.1-15.1s2.2.1,3.3.4l1,.2.5-.9c1.9-3.6,5.6-5.9,9.7-5.9s2.6.2,3.9.7l1.6.6.2-1.7c.5-4.5,4.3-7.9,8.8-7.9s8.3,3.4,8.8,7.9l.2,1.7,1.6-.6c1.2-.5,2.5-.7,3.9-.7,4.1,0,7.8,2.3,9.7,5.9l.5.9,1-.2c1.1-.3,2.2-.4,3.3-.4,8.3,0,15.1,6.8,15.1,15.1s0,1.3-.1,2l-.2,1.5h9.4v-71.5c0-3.1-2.5-5.5-5.5-5.5h-24.7c-.4,0-.6-.3-.6-.6s.3-.6.6-.6h24.7c3.8,0,6.8,3.1,6.8,6.8v71.5h9.7c.4,0,.6.3.6.6v4.1c0,2.6-2.1,4.8-4.8,4.8H30.2ZM26.7,147.2c0,1.9,1.6,3.5,3.5,3.5h119.6c1.9,0,3.5-1.6,3.5-3.5v-3.5H61.1c-.4,0-.6-.3-.6-.6s.3-.6.6-.6h71.1l.2-1.1c.1-.8.2-1.6.2-2.4,0-7.6-6.2-13.8-13.8-13.8s-3,.3-4.5.8c0,0-.1,0-.2,0s-.2,0-.3,0c-.2,0-.3-.2-.3-.4-1.3-3.9-5-6.6-9.1-6.6s-4.4.8-6.2,2.3c-.1,0-.3.2-.4.2s-.3,0-.4-.1c-.2-.2-.3-.5-.3-.7.3-.8.4-1.6.4-2.3,0-4.2-3.4-7.6-7.6-7.6s-7.6,3.4-7.6,7.6.1,1.4.4,2.3c0,.3,0,.6-.3.7-.1,0-.2.1-.4.1s-.3,0-.4-.2c-1.8-1.5-3.9-2.3-6.2-2.3-4.1,0-7.8,2.6-9.1,6.6,0,.2-.2.3-.3.4,0,0-.2,0-.3,0s-.1,0-.2,0c-1.5-.5-3-.8-4.5-.8-7.6,0-13.8,6.2-13.8,13.8s0,1.6.2,2.4l.2,1.1h5.1c.4,0,.6.3.6.6s-.3.6-.6.6h-26.2v3.5Z"/>
      <path class="cls-2" d="M81.8,102.5c-.2,0-.4,0-.5-.2-.1-.2-.2-.4-.1-.6l1.9-7.4-.3-.5c-.6-.9-1.1-1.8-1.6-2.7l-.6-1.1-14.9,8.4c0,0-.2,0-.3,0s-.2,0-.3,0c-.2-.1-.3-.3-.3-.6v-6c0-1.6.6-3.1,1.6-4.4l9.5-11.5v-.6c-.6-2.8-.8-5.7-.8-8.5,0-6.9,1.3-13.5,3.9-19.7,2.5-6,6.1-11.3,10.7-15.8.1-.1.3-.2.5-.2s.3,0,.5.2c4.6,4.5,8.2,9.8,10.7,15.8,2.6,6.2,3.9,12.8,3.9,19.7s-.2,5.7-.7,8.5v.6c0,0,9.4,11.4,9.4,11.4,1,1.2,1.6,2.8,1.6,4.4v6c0,.2-.1.4-.3.6,0,0-.2,0-.3,0s-.2,0-.3,0l-14.9-8.4-.6,1.1c-.5.9-1.1,1.9-1.6,2.7l-.3.5,1.9,7.4c0,.2,0,.4-.1.6-.1.2-.3.2-.5.2h-16.5ZM82.6,101.2h14.8l-1.7-7h-11.4l-1.7,7ZM103.4,79.9c-.7,2.6-1.6,5.2-2.7,7.7l-.5,1.1,14,7.9v-4.9c0-1.3-.5-2.6-1.3-3.5l-8.8-10.6-.6,2.4ZM67.2,88.1c-.8,1-1.3,2.3-1.3,3.5v4.9l14-7.9-.5-1.1c-1.1-2.5-2-5-2.7-7.7l-.6-2.4-8.8,10.6ZM79.2,49.7c-2,5.5-3,11.2-3,17.1,0,9.1,2.5,17.9,7.1,25.5l.4.6h12.6l.4-.6c4.6-7.6,7.1-16.5,7.1-25.5s-1-11.6-3-17.1l-.3-.8h-20.9l-.3.8ZM89.1,33.6c-3.3,3.6-6.1,7.6-8.2,12.1l-.9,1.8h19.9l-.9-1.8c-2.1-4.5-4.9-8.6-8.2-12.1l-.9-1-.9,1Z"/>
      <path class="cls-2" d="M90,71.5c-3.8,0-6.8-3.1-6.8-6.8s3.1-6.8,6.8-6.8,6.8,3.1,6.8,6.8-3.1,6.8-6.8,6.8ZM90,59.2c-3.1,0-5.5,2.5-5.5,5.5s2.5,5.5,5.5,5.5,5.5-2.5,5.5-5.5-2.5-5.5-5.5-5.5Z"/>
    </g>
  </g>
</svg>