<?xml version="1.0" encoding="UTF-8"?>
<svg id="Layer_1" xmlns="http://www.w3.org/2000/svg" viewBox="0 0 100 100">
  <defs>
    <style>
      .cls-1 {
        fill: #f17324;
      }
    </style>
  </defs>
  <path class="cls-1" d="M64.28,73.33c-2.46.25-4.58-.07-6.28-.94-1.79-.91-3.03-2.53-3.36-4.23.75.37,1.49.57,2.23.66.03.05.02.1.06.14l2.35,2.2.74-.02-.02-.72-1.67-1.56c1.17-.08,2.36-.37,3.57-.7v.1s2.55,1.86,2.55,1.86l.72-.1h0s-.11-.72-.11-.72l-1.99-1.45c.95-.26,1.95-.51,3-.68v.15s2.62,2.27,2.62,2.27l.73-.05-.04-.72-2.08-1.81c1.41-.13,2.92-.08,4.56.34.28.08.56-.1.63-.37.08-.27-.09-.55-.37-.62-1.72-.44-3.28-.5-4.74-.39l.96-.94c.49-.46-.23-1.21-.73-.73l-1.76,1.71-.05.05v.1c-.85.14-1.67.34-2.46.54.31-.66.66-1.31,1.1-1.9l-.11-.71c-.74-.53-1.77,1.63-2.28,2.96-1.26.35-2.44.67-3.58.77l1.16-2.78-.28-.67c-.27-.1-.57.02-.68.29l-1.34,3.19c-.77-.04-1.52-.23-2.27-.6,1.04-1.12,2.06-2.14,2.83-2.8l.03-.45c5.83-4.5,14.32-3.48,19.45,1.48-2.91,4.35-7.91,7.31-13.11,7.85M40.7,73.97c-1.82.6-3.96.58-6.36-.04-5.06-1.32-9.53-5.02-11.71-9.76,6.44-4.54,16.15-3.71,20.85,3.3.17.67.46,1.29.8,1.89-.76.22-1.5.29-2.23.22l-.82-3.36c-.07-.28-.35-.43-.62-.37-.28.06-.46.34-.38.61l.71,2.93c-1.15-.28-2.31-.8-3.55-1.37-2.65-1.2-5.65-2.56-9.7-2.18-.29.03-.49.28-.47.56.03.28.28.49.57.47,3.77-.36,6.63.94,9.16,2.09,1.33.61,2.63,1.19,3.97,1.49l-1.89,1.29-.13.71.72.13,2.68-1.82c.05-.04.05-.09.08-.13.75.03,1.51-.06,2.3-.31-.6,1.62-2.08,3.03-3.98,3.66M48.42,37.43c-.8-1.54-.69-3.45-.54-4.75.58-5.06,3.06-9.98,6.98-13.85,1.01-.99,2.11-1.91,3.28-2.74,1.99,3.15,4.14,6.7,4.65,10.55.56,4.25-.97,8.62-4.08,11.68-1.97,1.94-4.25,2.92-6.17,2.75.06-.19.11-.39.17-.58l.45-1.53c.06-.22.12-.43.18-.64.03,0,.04.02.07.01,1.55-.31,3.05-.85,4.44-1.59l.21-.69-.7-.2c-1.17.62-2.42,1.06-3.7,1.36.92-3.4,1.77-7.24,3.8-16.11.15-.66-.86-.89-1.02-.23-2.08,9.06-2.92,12.87-3.86,16.33l-2.15-3.01-.72-.12-.12.71,2.59,3.63h.06c-.03.1-.05.19-.08.28l-.44,1.53c-.06.2-.12.4-.18.61-1.45-.58-2.43-2.06-3.13-3.39M78.43,65.06c-6.39-6.54-17.85-6.93-23.81.81-.32.41-.61.86-.9,1.32-1.5,1.81-2.9,3.75-3.35,4.46.1-3.67.04-8.35.1-14.51l-.29-.37c-.61-4.65.7-9.87,2.09-14.66,2.28.28,4.95-.82,7.19-3.04,3.34-3.29,4.97-7.97,4.37-12.53-.56-4.27-2.97-8.08-5.09-11.43l-.34-.23-.4.09c-1.39.94-2.69,2.01-3.87,3.17-4.1,4.02-6.68,9.15-7.29,14.46-.16,1.43-.27,3.54.65,5.33.79,1.53,1.95,3.23,3.77,3.9-1.44,4.97-2.82,10.41-2.1,15.33.03.19.13.3.27.36-.07,7.72.04,13.08-.23,16.93-.58-1.08-1.37-2.05-2.15-2.98l-.1-.12c-.38-.46-.73-.91-1.07-1.38l-.02-.22c-.24-.58-.51-1.15-.8-1.69-4.67-8.55-16.05-9.92-23.4-4.43l-.16.61c2.22,5.15,7.08,9.28,12.57,10.72,2.6.68,4.94.68,6.95.02,2.06-.68,3.64-2.11,4.44-3.83.22.29.45.57.68.86l.1.12c1.01,1.23,2.07,2.5,2.55,3.96.08.24.12.52.16.79-.17,1.15-.42,2.12-.75,2.96-.1.11-.16.25-.29.35l-.04.36c-.53,1.05-1.24,1.9-2.22,2.62l-.11.72.73.1c1.27-.93,2.14-2.02,2.76-3.42.64-.71,1.19-2.11.97-3.77.08-.54.14-1.11.19-1.72.12-.1.21-.24.19-.45-.14-1.23,1.47-3.59,3.35-5.82.5,1.85,1.85,3.52,3.79,4.52,1.88.96,4.2,1.31,6.87,1.04,5.65-.58,11.1-3.92,14.1-8.67l-.07-.62ZM46.48,54.6c-.9-.06-1.67-.33-2.38-.71l.55-3.35c.04-.28-.15-.54-.43-.59-.28-.05-.55.15-.6.42l-.48,2.97c-.92-.67-1.76-1.55-2.65-2.5.28-1.4.54-3.77-.37-3.69-.28.02-.5.27-.48.55.06.73.02,1.47-.07,2.19-1.79-1.87-3.91-3.8-7.29-4.82-.28-.08-.57.07-.65.34-.09.27.07.55.35.63,3.45,1.04,5.54,3.16,7.36,5.09-.01.05-.01.1-.03.15-.07.27.1.55.37.62.12.03.24,0,.34-.04.86.91,1.71,1.77,2.68,2.44l-2.25.47c-.28.07-.47.33-.4.61.06.28.33.46.62.39l3.17-.67c.07-.01.09-.06.14-.09.68.31,1.42.51,2.25.58-1.19,1.28-3.11,2.02-5.11,1.88-1.92-.13-3.89-.95-5.86-2.43-4.16-3.13-6.85-8.22-7.01-13.43,8.34-1.91,17.76,3.41,18.22,12.96M34.65,55.88c2.14,1.6,4.29,2.49,6.42,2.64,2.6.18,5.06-.86,6.41-2.7l.09-.29c0-.64-.02-1.26-.08-1.87-.98-9.66-10.96-15.21-19.88-12.9l-.39.5c.05,5.6,2.92,11.23,7.43,14.64M73.93,45.24c-1.29,5.05-5.03,9.47-9.77,11.65-2.24,1.04-4.34,1.42-6.24,1.15-1.99-.29-3.71-1.42-4.59-2.91.83.11,1.6.06,2.33-.1.04.04.05.09.11.11l2.95,1.32.69-.26-.26-.67-2.09-.94c1.07-.45,2.08-1.1,3.1-1.79.03.02.04.05.08.06l3.02.94c.27.09.56-.06.65-.33h0c.09-.27-.07-.56-.34-.65l-2.36-.73c.81-.55,1.68-1.1,2.62-1.6l.06.12,3.21,1.3.68-.28-.28-.67-2.54-1.03c1.29-.57,2.71-1.03,4.39-1.16.28-.03.5-.27.47-.55-.02-.28-.27-.49-.56-.47-1.78.14-3.27.61-4.62,1.2l.62-1.24c.31-.59-.63-1.07-.94-.45l-1.09,2.18-.03.07.05.11c-.76.42-1.48.85-2.16,1.3.07-.73.19-1.45.41-2.16.08-.27-.08-.56-.34-.64-.87-.27-1.12,2.11-1.16,3.53-1.07.74-2.09,1.42-3.13,1.89l.17-3c.02-.28-.2-.52-.49-.54-.28-.01-.53.2-.55.48l-.19,3.45c-.78.22-1.59.29-2.48.15,2.52-9.25,12.88-12.47,20.61-8.86M52.55,52.96c-.19.58-.36,1.19-.49,1.81l.03.3c.92,2.09,3.1,3.61,5.68,3.98,2.1.3,4.41-.12,6.84-1.24,5.14-2.38,9.18-7.29,10.43-12.74l-.27-.57c-8.22-4.12-19.17-.78-22.22,8.45"/>
</svg>