<?xml version="1.0" encoding="UTF-8"?>
<svg id="Layer_1" xmlns="http://www.w3.org/2000/svg" viewBox="0 0 100 100">
  <defs>
    <style>
      .cls-1 {
        fill: #f17324;
      }
    </style>
  </defs>
  <path class="cls-1" d="M56.76,54.08l-.24-.3-1.42-.13-.29.24.24.29,1.42.14h.03l.26-.24ZM56.16,51.96l.16-.06.05-.37c-.24-.31-.64-.49-1.03-.45l-.24.3.3.23.54.24.22.1ZM57.03,49.9l-.09-.37-.92-.55-.37.09.09.37.92.56.14.04.23-.13ZM57.58,46.96l-.09-.37-1.13-.71-.37.09.09.37,1.14.71.14.04.23-.12ZM58.81,43.7l-.13-.36-1.77-.84-.35.12.12.36,1.78.84.11.03.24-.16ZM55.44,57.36l.27-.27c.22-6.71,1.48-13.31,3.76-19.63l-.16-.35-.34.17c-2.3,6.37-3.57,13.03-3.79,19.8l.26.28h0ZM74.35,57.61l1.7-1.7v-.38h-.38l-1.7,1.69v.38l.19.08.19-.08ZM73.42,61.18l2.51-2.5v-.38h-.38l-2.5,2.5v.38l.19.08.19-.08ZM73.67,65.16l2.3-2.29v-.38h-.38l-2.3,2.3v.38l.19.08.19-.08ZM72.14,65.25l3.74-3.74v-.38h-.38l-3.73,3.73v.38l.19.08.19-.08ZM73.08,72.29l3.14-3.15v-.38h-.38l-3.14,3.14v.39l.19.08.19-.08ZM72.82,70l3.49-3.48v-.38h-.38l-3.48,3.48v.38l.19.08.18-.08ZM71.21,69.4l5.1-5.09v-.39h-.38l-5.1,5.1v.38l.19.09.19-.09ZM68.15,76.02l4-4v-.38h-.38l-3.99,4v.38l.19.08.19-.08ZM70.96,79.33l4.34-4.35v-.38h-.38l-4.34,4.34v.39l.19.07.19-.07ZM65.78,80.43l6.91-6.92v-.38h-.38l-6.91,6.91v.39l.19.08.19-.08ZM61.2,80.26l8.31-8.31v-.38h-.38l-8.31,8.31v.38l.19.08.19-.08ZM57.89,80.01l6.38-6.38v-.38h-.38l-6.38,6.38v.38l.19.08.19-.08ZM55.94,79.76l3.77-3.77v-.39h-.38l-3.77,3.77v.38l.19.08.19-.07ZM57.04,80.01v-.38l-1.87-1.87h-.38v.38l1.87,1.87.19.08.19-.08ZM60.96,80.1v-.38l-2.81-2.82h-.38v.38l2.82,2.81.19.08.19-.08ZM59.64,80.99v-.38l-3.27-3.27h-.38v.38l3.27,3.28.19.08.19-.08ZM63.52,80.46v-.37l-3.42-3.42h-.38v.38l3.42,3.42.19.08.19-.08ZM67.82,81.88v-.38l-5.52-5.52h-.38v.38l5.52,5.52.19.08.19-.08ZM70.6,81.02v-.38l-7.03-7.03h-.38v.38l7.03,7.03.19.08.19-.08ZM76.45,56.49v-.38l-1.5-1.5h-.38v.39l1.5,1.5.19.08.19-.08ZM76.22,58.3v-.38l-1.7-1.71h-.38v.39l1.71,1.7.19.08.19-.08ZM76.69,61.31v-.38l-2.43-2.43h-.38v.38l2.43,2.42.19.08.19-.08ZM76.56,64.07v-.38l-3.05-3.06h-.38v.38l3.06,3.06.19.08.19-.08ZM75.89,67.13v-.38l-3.66-3.67h-.38v.38l3.66,3.66.19.09.19-.09ZM74.91,70.47v-.38l-3.95-3.95h-.38v.38l3.95,3.95.19.09.19-.09ZM75.07,74.28v-.38l-5.56-5.55h-.38v.38l5.56,5.56.19.08.19-.08ZM74.15,76.85v-.39l-6.33-6.34h-.38v.38l6.33,6.34.19.08.19-.08ZM73.46,79.71v-.38l-7.67-7.68h-.38v.38l7.68,7.68.19.08.19-.08ZM70.78,84.23c.76,0,1.56-.06,2.32-.35.98-.38,1.99-1.3,2.03-2.54.04-.85-.53-1.71-1.33-2.03-.28-.12-.59.02-.7.28-.11.28.02.59.29.7.39.16.68.61.67,1-.03.75-.72,1.34-1.35,1.58-.79.31-1.71.28-2.58.26l-12.4-.27c-2.17-.05-2.49-.69-2.53-1.17l.2-.51.3-.12c.29.03.57-.17.61-.47.03-.29-.17-.56-.46-.6-.43-.05-.87.1-1.2.42-.38.37-.58.9-.52,1.39.14,1.37,1.34,2.09,3.58,2.13l12.41.28h.67ZM65.82,82.06c.72,0,1.44,0,2.16-.02,1.96-.04,4.18-.19,5.73-1.61,1.38-1.26,1.82-3.16,2.13-4.84,2.27-12.3,1.39-25.08-2.55-36.95-.22-.66-.45-1.32-.68-1.98-.68-1.97-1.39-4-1.81-6.05-.65-3.18-.54-5.67.34-7.83.11-.27-.02-.59-.29-.69-.27-.11-.59.02-.7.29-.96,2.36-1.09,5.05-.39,8.45.43,2.13,1.15,4.19,1.85,6.19.23.65.45,1.31.67,1.97,3.89,11.7,4.77,24.29,2.53,36.42-.28,1.51-.67,3.21-1.8,4.24-1.27,1.15-3.25,1.28-5.02,1.32-2.65.05-5.33,0-7.98-.13-1.59-.08-3.23-.24-4.36-1.18-1.49-1.25-1.71-3.53-1.8-5.56-.47-11.14-.19-25.46,1.98-32.25.41-1.3.98-2.68,1.58-4.13,1.96-4.78,4.19-10.19,2.05-15.27-.12-.28-.44-.4-.7-.29-.28.12-.4.44-.29.7,1.97,4.68-.16,9.87-2.05,14.45-.61,1.48-1.18,2.87-1.61,4.21-2.79,8.72-2.26,27.17-2.03,32.63.09,2.26.35,4.8,2.17,6.33,1.39,1.16,3.23,1.34,4.99,1.43,1.96.11,3.93.15,5.9.15M60.72,16.68c-.6,0-1.27.02-1.72.34-.4.28-1,2.35-.9,3.9.05.69.22.92.28.95.28.14.64.17,1.08.17l10.63-.1c1.21-.01,1.27-.24,1.31-1.12l.12-2.61c.03-.62-.03-.99-.2-1.17-.2-.21-.65-.32-1.39-.32l-9.23-.06ZM59.47,23.12c-.52,0-1.07-.03-1.57-.29-.5-.26-.79-.88-.86-1.84-.1-1.5.42-4.2,1.35-4.85.71-.49,1.58-.53,2.34-.53l9.23.07c1.08,0,1.74.2,2.16.65.5.52.53,1.28.5,1.96l-.13,2.61c-.07,1.55-.69,2.11-2.37,2.13l-10.64.1ZM27.13,54.08l-.24-.3-1.41-.13-.29.24.24.29,1.42.14h.03l.27-.24ZM26.52,51.96l.16-.06.06-.37c-.24-.31-.64-.49-1.03-.45l-.24.3.29.23.54.24.22.1ZM27.39,49.9l-.09-.37-.93-.55-.37.09.09.37.93.56.14.04.23-.13ZM27.94,46.96l-.09-.37-1.14-.71-.37.09.09.37,1.13.71.15.04.23-.12ZM29.17,43.7l-.12-.36-1.78-.84-.36.12.13.36,1.78.84.11.03.24-.16ZM25.8,57.36l.27-.27c.22-6.71,1.49-13.31,3.75-19.63l-.16-.35-.34.17c-2.29,6.37-3.56,13.03-3.79,19.8l.26.28h0ZM44.71,57.61l1.7-1.7v-.38h-.38l-1.7,1.69v.38l.19.08.19-.08ZM43.78,61.18l2.5-2.5v-.38h-.38l-2.5,2.5v.38l.19.08.19-.08ZM44.03,65.16l2.3-2.29v-.38h-.38l-2.29,2.3v.38l.19.08.19-.08ZM42.5,65.25l3.74-3.74v-.38h-.38l-3.74,3.73v.38l.19.08.18-.08ZM43.44,72.29l3.14-3.15v-.38h-.38l-3.14,3.14v.39l.19.08.19-.08ZM43.19,70l3.48-3.48v-.38h-.38l-3.48,3.48v.38l.19.08.19-.08ZM41.57,69.4l5.1-5.09v-.39h-.38l-5.1,5.1v.38l.19.09.19-.09ZM38.52,76.02l4-4v-.38h-.38l-4,4v.38l.19.08.19-.08ZM41.32,79.33l4.35-4.35v-.38h-.39l-4.34,4.34v.39l.19.07.18-.07ZM36.14,80.43l6.92-6.92v-.38h-.38l-6.92,6.91v.39l.19.08.19-.08ZM31.56,80.26l8.31-8.31v-.38h-.38l-8.31,8.31v.38l.19.08.19-.08ZM28.26,80.01l6.38-6.38v-.38h-.38l-6.38,6.38v.38l.19.08.19-.08ZM26.3,79.76l3.77-3.77v-.39h-.38l-3.77,3.77v.38l.19.08.19-.07ZM27.41,80.01v-.38l-1.86-1.87h-.38v.38l1.87,1.87.19.08.19-.08ZM31.32,80.1v-.38l-2.81-2.82h-.38v.38l2.82,2.81.19.08.19-.08ZM30,80.99v-.38l-3.27-3.27h-.38v.38l3.27,3.28.19.08.18-.08ZM33.88,80.46v-.37l-3.42-3.42h-.38v.38l3.42,3.42.19.08.19-.08ZM38.18,81.88v-.38l-5.51-5.52h-.38v.38l5.52,5.52.19.08.18-.08ZM40.96,81.02v-.38l-7.02-7.03h-.38v.38l7.03,7.03.19.08.18-.08ZM46.81,56.49v-.38l-1.5-1.5h-.38v.39l1.5,1.5.19.08.19-.08ZM46.59,58.3v-.38l-1.71-1.71h-.38v.39l1.71,1.7.19.08.19-.08ZM47.05,61.31v-.38l-2.42-2.43h-.38v.38l2.42,2.42.19.08.19-.08ZM46.92,64.07v-.38l-3.06-3.06h-.38v.38l3.06,3.06.19.08.19-.08ZM46.25,67.13v-.38l-3.66-3.67h-.38v.38l3.67,3.66.19.09.19-.09ZM45.27,70.47v-.38l-3.95-3.95h-.38v.38l3.95,3.95.19.09.19-.09ZM45.43,74.28v-.38l-5.56-5.55h-.37v.38l5.55,5.56.19.08.18-.08ZM44.52,76.85v-.39l-6.34-6.34h-.38v.38l6.33,6.34.19.08.19-.08ZM43.82,79.71v-.38l-7.67-7.68h-.38v.38l7.68,7.68.19.08.19-.08ZM41.14,84.23c.76,0,1.56-.06,2.32-.35.98-.38,1.99-1.3,2.04-2.54.04-.85-.53-1.71-1.33-2.03-.28-.12-.59.02-.7.28-.11.28.01.59.29.7.39.16.69.61.67,1-.03.75-.72,1.34-1.35,1.58-.79.31-1.7.28-2.58.26l-12.4-.27c-2.17-.05-2.49-.69-2.54-1.17l.2-.51.31-.12c.28.03.56-.17.6-.47.04-.29-.17-.56-.46-.6-.43-.06-.86.1-1.2.42-.38.37-.58.9-.52,1.39.14,1.37,1.35,2.09,3.58,2.13l12.4.28h.67ZM36.19,82.06c.72,0,1.44,0,2.16-.02,1.95-.04,4.17-.19,5.72-1.61,1.38-1.26,1.82-3.16,2.13-4.84,2.27-12.3,1.39-25.08-2.56-36.95-.22-.66-.45-1.32-.67-1.98-.69-1.97-1.39-4-1.81-6.05-.65-3.18-.54-5.67.34-7.83.11-.27-.02-.59-.29-.7-.27-.11-.58.02-.7.3-.96,2.37-1.09,5.05-.4,8.45.44,2.12,1.16,4.19,1.85,6.19.23.65.45,1.31.67,1.96,3.89,11.7,4.76,24.3,2.53,36.42-.28,1.51-.67,3.21-1.8,4.23-1.27,1.16-3.26,1.29-5.02,1.32-2.65.06-5.33,0-7.98-.12-1.59-.08-3.23-.24-4.36-1.18-1.5-1.25-1.71-3.53-1.8-5.56-.46-11.15-.19-25.47,1.98-32.25.42-1.3.98-2.68,1.58-4.14,1.96-4.77,4.18-10.18,2.04-15.26-.12-.28-.44-.4-.71-.29-.27.12-.4.44-.29.7,1.97,4.68-.16,9.87-2.04,14.45-.61,1.48-1.19,2.88-1.61,4.22-2.78,8.71-2.26,27.17-2.03,32.63.09,2.26.35,4.8,2.18,6.33,1.38,1.16,3.22,1.34,4.99,1.43,1.95.11,3.93.15,5.9.15M31.09,16.68c-.6,0-1.27.02-1.72.34-.39.28-1,2.35-.89,3.9.04.69.21.92.28.95.28.14.63.17,1.08.17l10.63-.1c1.21-.01,1.27-.24,1.32-1.12l.12-2.61c.03-.62-.03-.99-.21-1.17-.19-.21-.64-.32-1.38-.32l-9.23-.06ZM29.83,23.12c-.53,0-1.07-.03-1.57-.29-.51-.26-.79-.88-.86-1.84-.11-1.5.42-4.2,1.35-4.85.71-.49,1.58-.53,2.34-.53l9.23.07c1.07,0,1.73.2,2.15.65.5.52.54,1.28.5,1.96l-.13,2.61c-.08,1.55-.7,2.11-2.37,2.13l-10.64.1Z"/>
</svg>