<?xml version="1.0" encoding="UTF-8"?>
<svg id="Layer_1" xmlns="http://www.w3.org/2000/svg" viewBox="0 0 100 100">
  <defs>
    <style>
      .cls-1 {
        fill: #f17324;
      }
    </style>
  </defs>
  <path class="cls-1" d="M42.85,60.29l1.35-1.35-.39-.39-1.35,1.35.39.39ZM41.78,62.36l1.36-1.36-.39-.39-1.35,1.35.39.4ZM38.97,62.89l2.68-2.69-.39-.39-2.68,2.68.39.4ZM36.47,62.99l2.98-2.98v-.39h-.39l-2.98,2.98.39.39ZM33.25,63.91l3.98-3.98-.39-.39-3.98,3.98.39.39ZM31.85,63.86l3.24-3.24-.4-.39-3.24,3.24.39.39ZM29.47,64.27l3.68-3.68-.39-.39-3.68,3.68.39.39ZM27.92,64.45l1.89-1.89-.39-.39-1.9,1.9.39.39ZM28.38,64.45v-.39l-.74-.75-.39.4.74.74h.39ZM29.86,64.09v-.39l-.92-.92-.39.39.92.92h.39ZM32.1,64.25v-.39l-1.46-1.46-.39.39,1.46,1.46h.39ZM34.21,63.3l-1.57-1.57h-.39v.39l1.56,1.56.4-.39ZM37.06,63.27l-2.35-2.35-.39.39,2.35,2.35.39-.39ZM42.27,61.73l-1.94-1.94h-.39v.39l1.94,1.94.39-.39ZM44.7,60.29v-.39l-1.46-1.46h-.39v.39l1.46,1.46h.39ZM43.18,61.3v-.39l-1.71-1.71-.39.39,1.71,1.71h.39ZM41.21,62.36l-2.62-2.62-.39.39,2.62,2.62.39-.39ZM40,63.52l-3.22-3.22-.39.39,3.21,3.21.4-.39ZM72.42,67.47l3.62-3.62-.39-.4-3.62,3.63.39.39ZM67.77,69.86l6.03-6.03-.39-.39-6.03,6.03.39.39ZM62,73.05l4.3-4.3-.39-.39-4.3,4.3.4.39ZM57.15,74.29l4.75-4.75-.39-.39-4.75,4.75.39.39ZM52.35,75.45l5.19-5.19-.39-.39-5.18,5.18.39.39ZM47.85,76.17l4.51-4.51-.39-.39-4.51,4.5.39.4ZM44.26,76.2l4.03-4.03-.39-.39-4.04,4.03.39.39ZM42.08,75.6l2.61-2.61-.39-.39-2.61,2.61.39.39ZM39.12,75.79l2.97-2.97-.4-.39-2.96,2.96.39.39ZM36.94,75.64l1.86-1.87-.39-.39-1.86,1.86.39.4ZM34.84,75.34l1.07-1.06-.4-.39-1.06,1.07.39.39ZM35.93,75.68v-.39l-1.31-1.32-.39.39,1.31,1.32h.39ZM38.1,75.87v-.39l-1.5-1.5-.39.39,1.5,1.5h.39ZM40.33,75.66v-.39l-1.11-1.11-.39.39,1.11,1.11h.39ZM43.81,76.13v-.39l-1.69-1.69-.39.39,1.69,1.69h.39ZM47.53,75.38l-2.04-2.04-.39.39,2.04,2.05.39-.39ZM51.3,75.21l-2.59-2.59-.39.39,2.78,2.67.19-.47ZM76.41,65.37v-.39l-1.7-1.7-.39.39,1.71,1.7.19.08.19-.08ZM74.43,66.45l-1.66-1.66-.39.39,1.66,1.66.39-.39ZM72.4,67.73v-.39l-1.46-1.46-.39.39,1.66,1.54.19-.08ZM70.59,69.62l-2.1-2.1-.39.39,2.1,2.1.39-.39ZM67.22,70.92l-1.89-1.89-.39.39,1.89,1.89.39-.39ZM64.09,72.15v-.4l-1.87-1.87-.39.39,1.87,1.87h.39ZM61.85,73.63v-.39l-2.42-2.41-.39.39,2.41,2.41h.4ZM59.07,74.29v-.4l-2.8-2.8-.39.39,2.8,2.8h.39ZM56.36,75.25v-.39l-3.19-3.19-.39.39,3.19,3.19h.39ZM78.89,49.56l2.37-2.37-.39-.39-2.37,2.37.39.39ZM74.96,51.15l2.4-2.41-.39-.39-2.41,2.41.39.4ZM70.74,56.53l4.22-4.22-.39-.39-4.22,4.22.39.39ZM63.58,63.98l5.4-5.41-.39-.39-5.4,5.41.39.39ZM58.34,65.43l6.75-6.75-.39-.39-6.75,6.75.39.39ZM56.09,65.24l3.72-3.73-.39-.39-3.73,3.73.39.39ZM58.18,64.68l-1.74-1.74-.39.39,1.74,1.74.4-.39ZM59.13,64.23v-.39l-1.46-1.47-.39.39,1.46,1.46h.39ZM81.52,48.36l-1.3-1.3-.39.4,1.3,1.3.39-.39ZM79.54,49.77v-.39l-1.43-1.42-.39.39,1.42,1.42h.39ZM78.31,50.47v-.39l-1.47-1.48-.39.39,1.47,1.47h.39ZM76.01,51.93v-.39l-1.18-1.18h-.39v.39l1.18,1.18h.39ZM75.06,53.08v-.39l-1.38-1.38h-.39v.39l1.39,1.38h.39ZM73.48,54.41v-.39l-1.22-1.23-.39.4,1.22,1.22h.39ZM72.29,56.25v-.39l-1.65-1.65-.39.39,1.65,1.65h.39ZM70.76,58.88v-.39l-1.97-1.97-.39.39,1.97,1.97h.39ZM69.52,59.78v-.39l-1.8-1.8-.39.39,2,1.88.19-.08ZM68.22,60.99l-2.24-2.25-.39.39,2.24,2.25.39-.39ZM66.4,62.65v-.39l-1.97-1.97-.39.39,1.97,1.97h.39ZM64.96,63.72l-3-3.01-.39.39,3,3,.39-.39ZM63.16,64.66l-3.18-3.18-.39.39,3.18,3.18.39-.39ZM37.09,35.58c-.62.38-.04,1.33.58.94,2.59-1.58,3.84-5.06,2.84-7.93-.36-1.04-1.1-2.18-1.38-3.16-.55-1.95.4-4.25,2.16-5.25l.21-.75-.75-.21c-2.23,1.25-3.38,4.05-2.68,6.52.19.65.49,1.26.78,1.84,1.92,3.85.27,6.77-1.75,8.01M50.72,36.68c.6,1.49,5.19-2.22,3.91-6.4-.87-2.83-4.84-5.49-3.63-8.24.35-.79,1.06-1.13,1.46-1.17.3-.03.53-.29.5-.6-.02-.31-.28-.53-.6-.5-.81.08-1.86.67-2.37,1.82-1.53,3.46,2.8,6.48,3.58,9.01.63,2.05-.56,4.55-2.55,5.35-.28.12-.42.43-.3.72M46.35,37.25c-.46.56.38,1.27.85.71,3.81-4.56-2.57-10.3-2.98-14.57-.3-3,1.95-6.06,4.91-6.68.3-.06.49-.36.43-.65-.06-.3-.36-.5-.65-.43-3.48.73-6.13,4.33-5.78,7.87.45,4.58,6.47,9.88,3.23,13.75M26.09,83.28h42.93c3.59-1,6.67-2.26,9.05-3.67H17.04c2.38,1.41,5.47,2.67,9.06,3.67M69.1,84.39H26.01l-.15-.02c-4.57-1.27-8.37-2.96-11-4.86l-.2-.62.52-.38h64.74l.53.38-.2.62c-2.63,1.9-6.43,3.59-11,4.86l-.15.02ZM36.09,48.19c-4.53,1.02-8.71,3.87-11.3,7.72-1.51,2.25-1.89,4.26-1.1,5.78,2.04,3.92,12.42,2.45,16.48,1.51,4.87-1.14,4.88-3.7,3.82-5.25-1.96-2.87-8.71-3.18-13.47.05-.62.41-1.23-.5-.63-.91,1.11-.55,5.22-3.74,6.2-8.9M22.72,62.19c-.69-1.32-1.05-3.6,1.16-6.91,2.9-4.31,7.68-7.43,12.79-8.34l.48.14.17.47c-.38,2.92-1.59,5.49-3.58,7.69,11.27-3.51,16.73,6.68,6.7,9.02-4.13.96-15.24,2.69-17.72-2.08M46.55,76.88c17.99,0,22.48-4.8,29.61-10.84,2.28-1.93,6.99-5.11.97-8.24-1.55-.8-2.84-1.57-2.95-2.79-.06-.73-1.16-.63-1.1.09.16,1.93,2.11,2.94,3.54,3.69.64.33,2.68,1.51,2.31,2.97-.15.58-.65,1.05-1.26,1.56-9.62,8.15-13.12,12.77-33.39,12.44-14.47-.24-17.97-3.08-25.16-10.06-1.09-1.06-2.16-2.21-2.11-3.53.03-.96.65-1.83,1.39-2.79l.19-.24c4.6-5.96,11.53-14.95,25.56-15.82,6.88-.42,13.75,1.53,19.39,5.49l.77-.14-.13-.77c-5.83-4.1-12.97-6.12-20.09-5.68-14.52.89-21.65,10.13-26.36,16.25l-.19.24c-.66.86-1.57,2.04-1.62,3.43-.05,1.78,1.24,3.18,2.46,4.36,8.13,7.88,12.11,10.39,28.2,10.39M80.57,41.12c-1.3,0-2.04,1.38-2.64,2.49-2.05,3.81-4.55,4.22-9.28,4.65-4.39.4-9.37.86-13.08,6.73-1.5,2.37-1.97,4.81-1.32,6.85,2.45,7.7,15.95,1.18,18.65-6.46,2.54-7.16,12.54-5.94,11.26-8.65-.53-1.1-2.33-.6-2.34-3.73,0-1.08-.11-1.88-1.25-1.88M53.2,62.17c-.75-2.36-.24-5.12,1.44-7.77,6.76-10.71,17.47-4.68,21.5-9.96.99-1.31,1.85-4.43,4.43-4.43,1.74,0,2.35,1.2,2.36,2.98.02,2.62,1.41,1.51,2.23,3.27.5,1.06-.14,2.31-1.06,2.91-1.34.86-8.28,1.28-10.16,6.58-3.08,8.69-17.92,15.31-20.74,6.42"/>
</svg>