<?xml version="1.0" encoding="UTF-8"?>
<svg xmlns="http://www.w3.org/2000/svg" version="1.1" viewBox="0 0 512 512">
  <defs>
    <style>
      .cls-1 {
        fill: #ff9d00;
      }
    </style>
  </defs>
  <!-- Generator: Adobe Illustrator 28.6.0, SVG Export Plug-In . SVG Version: 1.2.0 Build 709)  -->
  <g>
    <g id="simpleline">
      <path class="cls-1" d="M239.9,483c-32,0-63.8-8-92-23.2-.7-.4-1.2-1-1.5-1.8-.2-.8-.1-1.6.2-2.3.5-1,1.5-1.6,2.7-1.6s1,.1,1.4.4c27.1,14.7,57.8,22.4,88.7,22.4h.6c38,0,74.8-11.4,106.2-32.9l13.2-9.1h-16c-77.8-.4-141.9-61.6-146-139.3l-.2-4.7H51l.2,5.2c2.3,55.5,28.8,106.8,72.7,140.9.6.5,1,1.2,1.1,2,0,.8-.1,1.6-.6,2.2-.6.7-1.4,1.2-2.4,1.2s-1.2-.1-1.8-.6c-45.8-35.5-73.1-89.1-75-147v-3.8c-.1,0-3.8-.9-3.8-.9-9.8-2.4-17.3-10-19.7-19.9-1.7-7-.5-14.2,3.3-20.3,3.8-6.1,9.7-10.4,16.7-12l3.3-.8.5-3.4c.3-2,.7-4,1.3-5.9l.8-2.6-1.8-2.1c-6.6-7.5-9.7-17.5-8.4-27.5l.2-1.9-1.1-1.6c-6.5-9.6-8.9-21.6-6.5-32.9l.5-2.6-1.8-1.9c-1.6-1.6-2.9-3.4-4.1-5.4-3.6-6.3-4.5-13.5-2.6-20.5,1.9-6.9,6.4-12.7,12.7-16.3,4.1-2.3,8.7-3.5,13.3-3.5,9.7,0,18.7,5.2,23.5,13.6l1.3,2.3,2.7.2c11.6.9,22.5,6.5,29.8,15.6l2.1,2.5,3.2-.9c.7-.2,1.3-.4,2-.5,2.5-.6,5-.8,7.6-.8,16.2,0,30.6,11.5,34.1,27.4l2.7,12.4,6.5-10.9c2.5-4.2,5.7-7.9,9.4-11.1l2.5-2.1-.9-3.1c-2.5-8.8-1.5-18,2.8-26l1.8-3.4-2.8-2.6c-5.4-5.1-9.2-11.9-10.5-19.2-3.5-19,9-37.2,28-40.7l3.4-.6.6-3.4c2.2-12,10.7-22.1,22.1-26.3,4-1.5,8.1-2.3,12.3-2.3,14.5,0,27.6,9.1,32.8,22.7l.9,2.3,2.4.7c18.3,5.3,31,22.3,31,41.3,0,.6,0,1.2,0,1.8l-.5,9.5,7.9-4.3c1.5-.8,2.7-1.5,3.9-2,19.2-8.7,41-15.2,66.5-19.7,21.9-4,56.6-23.6,68.5-42.8.6-.9,1.5-1.4,2.5-1.4h.1c1,0,2,.6,2.5,1.6,15.2,27.5,25.5,94.9,5.1,149.9l-1,2.7,1.9,2.2c22.4,26.4,34.7,60,34.7,94.6,0,70.2-50,130.8-118.9,144.2l-1.4.3-1,.9c-35.7,32-81.8,49.6-129.8,49.6h0ZM344,147c-77.7,0-141,63.3-141,141s63.3,141,141,141,141-63.3,141-141-63.3-141-141-141ZM48,243c-11.6,0-21,9.4-21,21s9.4,21,21,21h149.2l.2-4.7c.5-10.4,2.2-20.9,4.9-30.9l1.7-6.3H48ZM232,35c-16,0-29,13-29,29,0,1.7-1.3,3-3,3-16,0-29,13-29,29,0,10.1,5.3,19.6,14.1,24.8.1,0,.2.2.4.3.6.5,1,1.2,1.1,2,0,.8-.2,1.6-.7,2.2-4.4,5.2-6.8,11.9-6.8,18.7,0,4.3,1,8.6,2.9,12.5.7,1.4.2,3.1-1.1,3.9-8,4.9-13.7,12.6-16.2,21.6l-1,3.6,3.2,2c12.7,7.9,20.3,21.5,20.3,36.4,0,2.4-.2,4.8-.6,7.1l-1,5.9h20.9l1.3-3.1c8.1-20.3,20.9-38.9,37-53.7l1.9-1.8-.4-2.6c-4.2-28.8-8.4-58.1-12.6-87l-1.8-12.4c-.1-.8,0-1.6.6-2.2.5-.6,1.2-1.1,2-1.2.1,0,.3,0,.4,0,1.5,0,2.8,1.1,3,2.6l1.8,12.4c3.7,25.6,7.4,51.7,11.2,77.5l1.2,8.2,6.7-4.8c4.2-3.1,8.7-5.9,13.3-8.5l.3-.2.3-.2c.2-.1.3-.2.5-.3h.1c0,0,.1-.1.1-.1,10-5.5,20.7-9.9,31.8-12.9l3-.8.6-3.1c.4-2.1.6-4.3.6-6.5,0-9.2-3.4-18-9.5-24.8-1.7-2-3.7-3.8-5.9-5.3-1-.7-1.5-1.9-1.3-3.1.4-2.3.7-4.6.7-6.9,0-17.9-12.8-33.2-30.4-36.4-1.2-.2-2.1-1.1-2.4-2.3-3.1-13.1-14.7-22.3-28.2-22.3h0ZM71.9,164.9c1,0,2,.5,2.5,1.4l6.8,10.1c13.8,20.5,24.7,36.7,35.3,57.9l1.4,2.8h60.9l1-3.7c.8-3,1.2-6.1,1.3-9.2,0-14.7-8.6-27.9-22-33.8-2.8-1.3-5.7-2.2-8.8-2.7,0,0-.2,0-.3,0-.8-.2-1.4-.7-1.8-1.4s-.5-1.5-.2-2.3c.7-2.6,1.1-5.2,1.1-7.8,0-16-13-29-29-29h-.1c-4.3,0-8.5,1-12.3,2.9-.4.2-.9.3-1.4.3-1.1,0-2-.5-2.6-1.4-6.6-10.9-18.7-17.8-31.5-17.8h-.9c-.2,0-.3,0-.5,0-1.4,0-2.6-.9-3-2.1-2.9-8.3-10.8-14-19.7-14-11.6,0-21,9.4-21,21,0,6.7,3.2,13.1,8.8,17,1.1.7,1.5,2.1,1.1,3.3-1.2,3.7-1.8,7.7-1.9,11.6,0,8.4,2.9,16.6,8.1,23.2.6.7.8,1.7.6,2.6-.5,2.1-.7,4.2-.7,6.3,0,8.4,3.6,16.4,10.1,21.9,1,.9,1.4,2.3.8,3.5h0c-.7,1.9-1.2,3.6-1.7,5.5l-1.4,6.1h60.4l-3.9-7.3c-9.3-17.5-19.4-32.5-31.2-50l-6.8-10.2c-.9-1.4-.5-3.3.9-4.1.5-.3,1-.5,1.6-.5ZM425.2,105.7c.3,0,.7,0,1,.2.8.3,1.4.8,1.7,1.5.3.7.4,1.5.1,2.3h0c-4.6,14.3-11.1,27.8-19.2,40.3l-3,4.6,4.9,2.5c12.3,6.3,23.6,14.2,33.6,23.7l5.8,5.5,2.4-7.6c13.9-44.4,8.7-96-2-125.2l-2.7-7.5-5.5,5.7c-15.6,16.1-43.9,31.6-64.4,35.4-25,4.5-46.3,10.8-65.1,19.3-.4.2-.8.4-1.1.6-.1,0-.3.2-.4.2l-4.8,2.4,2.7,4.6c3.9,6.6,6,14.1,6,21.8,0,.2,0,.4,0,.7,0,.4,0,.8,0,1.2l-.3,6.2,6.1-1c7.9-1.4,15.9-2,23.9-2,17.8,0,35.1,3.3,51.7,9.8l3.7,1.5,2.2-3.3c8.5-12.7,15.2-26.4,20-40.9v-.3c.5-1.2,1.6-2,2.9-2Z"/>
      <path class="cls-1" d="M344,387c-1.7,0-3-1.3-3-3v-61h-29c-36.9,0-67-30.1-67-67v-16c0-1.7,1.3-3,3-3h64.3c20.4,0,40,9.6,52.5,25.8l2.8,3.7,3.9-2.5c10.9-7.1,23.5-10.9,36.5-10.9h32c1.7,0,3,1.3,3,3,0,36.9-30.1,67-67,67h-29v61c0,1.7-1.3,3-3,3ZM408,259c-30.1,0-56,22.5-60.4,52.3l-.8,5.7h29.2c30.1,0,56-22.5,60.4-52.3l.8-5.7h-29.2ZM251,256c0,33.6,27.4,61,61,61h28.9l.5-4.4c.4-3.4,1.1-6.8,2-10.1l1-3.6-3.1-2c-18.5-11.7-36.6-19.1-53.8-22-.8-.1-1.5-.6-1.9-1.2-.5-.7-.6-1.4-.5-2.2.2-1.5,1.5-2.5,2.9-2.5s.3,0,.5,0c17.2,2.9,35.2,10,53.5,21.2l4.5,2.8,2.5-4.6c3-5.5,6.7-10.5,11-15l3-3.1-2.6-3.4c-11.4-14.9-29.4-23.9-48.1-23.9h-61.2v13Z"/>
    </g>
  </g>
</svg>