<?xml version="1.0" encoding="UTF-8"?>
<svg id="Layer_1" xmlns="http://www.w3.org/2000/svg" viewBox="0 0 100 100">
  <defs>
    <style>
      .cls-1 {
        fill: #f17324;
      }
    </style>
  </defs>
  <path class="cls-1" d="M44.75,77.61l2.54-2.54v-.42h-.43l-2.53,2.53v.43l.21.08.21-.08ZM46.18,82.88l2.99-3-.42-.43-2.99,2.99v.43h.43ZM41.51,83.28l5.26-5.26v-.42h-.42l-5.26,5.26.42.43ZM37.96,82.06l6.16-6.16v-.42h-.42l-6.16,6.16.42.42ZM34.31,81.86l5.5-5.51v-.42h-.42l-5.5,5.51v.42h.42ZM36.88,82.3v-.43l-2.47-2.46h-.43v.42l2.47,2.47h.42ZM41.9,82.45v-.42l-4.05-4.04h-.42v.42l4.04,4.04h.42ZM48.26,77.86v-.42l-3.8-3.81h-.43v.43l3.81,3.81h.42ZM48.31,81.27v-.43l-5.59-5.59h-.42v.42l5.59,5.59h.42ZM46.42,83.03v-.43l-6.44-6.44h-.43v.42l6.44,6.44h.43ZM62.21,82.49l6.27-6.27v-.42h-.43l-6.26,6.26v.43h.42ZM58.25,83.53l4.53-4.53v-.42h-.42l-4.53,4.53.42.42ZM55.9,82.67l2.13-2.12v-.42h-.43l-2.12,2.13v.42h.42ZM57.34,82.52v-.42l-1.26-1.26h-.43v.42l1.26,1.26h.42ZM59.93,82.57v-.42l-2.15-2.16h-.42v.43l2.15,2.15h.42ZM62.33,82.24v-.43l-2.29-2.29h-.42v.43l2.29,2.29h.42ZM66.02,81.4v-.42l-2.87-2.87h-.42v.42l2.86,2.86.21.09.21-.09ZM54.21,60.74v-.42l-2.49-2.49h-.42v.42l2.49,2.49h.42ZM56.78,53.16v-.43l-2.7-2.7h-.43v.43l2.7,2.7h.42ZM57.38,56.35v-.42l-2.51-2.51h-.42v.42l2.5,2.51h.42ZM55.66,58.24v-.42l-4.63-4.63h-.43v.42l4.63,4.63h.42ZM51.72,59.71l6.47-6.47v-.42h-.42l-6.47,6.47v.43h.42ZM50.13,57l6.5-6.5v-.43h-.43l-6.49,6.49v.42h.42ZM12.3,52.58c-.87.87-1.28,1.8-1.14,2.56.07.4.31.71.64.86.77.35,1.64-.29,2.5-.94,3.75-2.82,8.3-3.17,12.02-1.64l.13.07.29.13.47-.47c-.45-.56-1.29-1.23-2.49-1.99-4.22-2.64-9.36-1.66-12.43,1.42M12.27,57.3c-.33,0-.66-.07-.96-.21-.7-.31-1.18-.94-1.33-1.73-.13-.67-.1-2.04,1.47-3.62,3.44-3.46,9.19-4.55,13.91-1.59,1.66,1.04,2.68,1.94,3.14,2.77l-.09.7-.19.2c-.27.29-.44.48-.96.95l-.61.11-.69-.29-.12-.05c-3.34-1.38-7.41-1.07-10.83,1.49-.8.6-1.71,1.28-2.75,1.28M32.24,48.14c-.92,1.01-2.43,3.72-3.93,5.59-2.2,2.33-3.59,2.74-5.26,4.55-2.33,2.51-3.21,6.36-2.31,10.06,3.02,12.22,23.74,18.29,29.76,11.94-2-2.09-3.39-4.69-4.29-6.5-2.17-4.4-3.41-8.34-3.77-12.03-.44-4.62.53-8.99,2.73-12.33.52-.78,1.09-1.51,1.74-2.16-1.89-1.17-3.84-1.88-5.81-2.12-3.22-.38-6.68.61-8.87,3.02M43.39,84.23c-1.97,0-4.14-.37-6.84-1.17-7.7-2.26-15.03-6.65-16.95-14.42-1-4.09,0-8.37,2.59-11.17,1.76-1.91,3.17-2.33,5.24-4.51,2-2.51,2.39-3.91,3.94-5.61,2.47-2.7,6.31-3.82,9.89-3.39,2.38.28,4.72,1.2,6.97,2.72l.26.45-.2.49c-.79.71-1.5,1.55-2.1,2.46-2.05,3.12-2.95,7.22-2.54,11.56.35,3.55,1.54,7.35,3.65,11.63.92,1.85,2.37,4.55,4.45,6.58l.04.8c-1.19,1.46-2.97,2.6-4.86,3.13-1.1.31-2.28.46-3.54.46M62.51,43.99c.33.02.54.03.77.03h.05c.13-.79.05-1.98-.25-3.56-1.03-5.42-5.8-8.92-10.73-8.99-2.43,0-3.24,1.32-2.94,2.22.29.88,1.33,1.12,2.64,1.35,5.13.91,8.69,4.18,10.27,8.43l.05.13.13.39ZM63.28,45.21c-.32,0-.63-.02-1.25-.07l-.49-.38-.29-.79-.04-.12c-1.45-3.9-4.72-6.83-9.35-7.65-1.21-.2-3.03-.52-3.57-2.14-.53-1.58.65-3.81,4.07-3.81,5.51.1,10.76,3.96,11.91,9.96.4,2.11.43,3.61.11,4.57l-.57.41h-.52ZM56.06,44.38c-3.79,0-7.57,2.18-9.88,5.69-2.05,3.12-2.95,7.22-2.53,11.55.34,3.55,1.53,7.35,3.64,11.62,1.41,2.85,3.44,6.38,6.71,8.38,2.77,1.71,6.59,1.92,8.92.25.44-.31,1-.67,1.75-.49.47.1.91.36,1.33.63.7.43,1.45.83,3.22.83,3.5,0,6.56-2.25,8.58-5.15,1.62-2.33,2.61-5.04,3.36-7.36,1.38-4.27,2.02-7.72,2.03-10.89,0-2.79-.52-6.85-3.03-10.31-2.2-3.03-5.66-4.92-9.02-4.92-2.56.02-4.93.97-7.54,1.01h-.17c-2.54,0-4.96-.83-7.37-.83M58.94,84.23c-1.91,0-3.89-.56-5.56-1.58-3.53-2.17-5.68-5.87-7.16-8.87-2.18-4.4-3.41-8.34-3.76-12.03-.44-4.61.52-8.98,2.73-12.33,2.52-3.83,6.68-6.22,10.87-6.22,2.54,0,4.96.84,7.37.84h.16c2.45-.04,4.89-.99,7.48-1.01,3.81,0,7.64,2.07,10.07,5.41,2.7,3.72,3.26,8.04,3.26,11.01,0,3.29-.67,6.87-2.09,11.25-.77,2.41-1.8,5.21-3.51,7.68-2.24,3.22-5.65,5.66-9.56,5.66-1.91,0-2.93-.44-3.84-.99-.36-.22-.7-.43-.97-.5-.28-.06-.42.03-.79.3l-.67.43c-1.2.64-2.54.95-4.02.95"/>
</svg>