<?xml version="1.0" encoding="UTF-8"?>
<svg id="Layer_1" xmlns="http://www.w3.org/2000/svg" viewBox="0 0 100 100">
  <defs>
    <style>
      .cls-1 {
        fill: #f17324;
      }
    </style>
  </defs>
  <path class="cls-1" d="M77.81,67.04h.39v.38l-1.51,1.51.27.27v.38h-.39l-.27-.27-1.19,1.19h-.39v-.38l1.19-1.19-1.15-1.15-1.06,1.06.33.33-.39.38-.33-.33-.26.26h-.38v-.38l.26-.26-1.25-1.26-.87.87h-.39v-.39l2.21-2.22h.38v.39l-.96.97,1.25,1.25,1.63-1.64h.39v.38l-.2.2,1.16,1.15,1.51-1.51ZM36.9,61.53l1.21,1.45-.07.77-.77-.07-1.22-1.45.07-.77.77.07ZM51.19,56.16l-.49-.61.09-.77.76.09.48.6-.09.76-.76-.08ZM65.07,43.29l-.6-.97.18-.75.75.18.6.97-.17.74-.75-.17ZM52.61,44.62l-.18-.75.75-.18.97.6.17.74-.75.18-.97-.6ZM42.31,53.64l.12.75-.76.13-1.91-1.37-.12-.76.76-.12,1.91,1.37ZM57.42,34l-.08-.76.76-.09,1.21.97.09.77-.76.08-1.21-.97ZM81.32,59.54v-.29h-.39l-.51.52-.3-.3h-.35l.1-.1v-.39h-.39l-1.43,1.43-.84-.84h-.29v-.08h-.38l-1.41,1.41-.84-.84.52-.52v-.38h-.38l-.72.71h0s-1.11,1.11-1.11,1.11l-.75-.75.61-.62v-.39h-.39l-.61.61-.33-.33h-.39v.39l.33.34-1,1c-.39-.14-.74-.36-1.1-.54l.2-.2.58.57h.38v-.39l-.57-.57.82-.82v-.38h-.39l-.82.82-.7-.7.34-.34v-.38h-.37l-1.32,1.31c-.25-.18-.48-.37-.72-.57l.46-.45.25.25.38-.38-.25-.25.47-.47v-.38h-.39l-.46.47-.77-.78.59-.58.33.33.39-.39-1.46-1.46.69-.69v-.38h-.38l-.55.55c3.1-3.91,5.66-8.23,7.61-12.87,3.34-.08,6.5.92,8.77,2.77,2.2,1.81,3.53,4.37,3.64,7.01.11,2.65-.97,5.14-3.1,7.2-.39.38-.86.68-1.3,1M70.15,62.35l-.27.27v-.02l-.42-.42.07-.04c.2.08.41.14.62.21M71.93,61.67c-.41-.08-.81-.17-1.21-.29l.77-.77.75.75-.3.3ZM71.99,62.79l-.15.15-.24-.25c.13.03.26.07.4.09M75.36,61.88c-.14.01-.27-.01-.41,0l.2-.2.2.21ZM80.51,62.31l-.26-.26.21-.21c.02.16.05.31.05.47M79.77,61.74s.01,0,.02-.01h-.01s0,.01,0,.01ZM74.62,63.56l-.29-.29.16-.16v-.11c.24,0,.48-.05.72-.07l.03.02-.6.61ZM75.99,62.95l.03-.03v-.07c.27-.04.54-.05.81-.11l-.52.52-.32-.32ZM78.61,62.9l-.52-.53c.5-.15.99-.32,1.47-.53v.11l-.94.94ZM78.13,61.24l.38-.38-.06-.06,1.29-1.29v.34l.3.3-.12.12v.17c-.65.35-1.31.67-2.01.89l.16-.16.06.06ZM76.85,59.97l.83.82-.58.58v.14c-.37.09-.73.18-1.1.24l-.47-.47,1.32-1.32ZM73.92,60.45l.84.84-.58.59c-.48,0-.95.05-1.42,0-.07,0-.14-.04-.21-.05l1.37-1.37ZM68.11,59.4l.7.7-.33.33c-.3-.16-.62-.3-.9-.49l.54-.54ZM76.04,71.99c-3.34,2.46-8.21,2.79-11.86.82-.15-.08-.29-.19-.43-.28,1.96-1.59,3.78-3.34,5.31-5.31.45-.56-.42-1.23-.86-.67-1.55,2-3.39,3.77-5.38,5.36-2.16-1.67-3.67-4.18-4.2-6.86l.66.65.38-.38-1.1-1.1h-.02l.73-.73h.06v-.06l.93-.94h.2v-.38l-1.01-1.02c.23-.21.46-.42.69-.63l.46.47v.33h.32l.05.05.39-.38-.02-.02.92-.91v-.38h-.39l-.07.08-.39-.39c.14-.14.28-.28.42-.42l.72.71h.38v-.38l-.73-.73c.39-.4.76-.83,1.14-1.25,1.39,2.04,3.36,3.62,5.61,4.61h-.17v.32l-.04.04v.39l.28-.15.57.5-.21.21.38.38.98-.97.75.75-.31.31v.39h.38l.32-.32.03.03h.39v-.38l-.03-.03.39-.39s.02,0,.03,0c.21.03.42.03.63.04l.29.29-.4.4v.38h.38l.41-.41.45.45.19-.19v.07h.38l.64-.64.86.86h.39v-.38l-.17-.17.95-.95.59.58-.18.18v.38h.39l.18-.18.47.47h.38v-.38l-.46-.46.86-.86.65.65c0,.12,0,.24-.01.37l-1.84,1.83v.39l.19.08.19-.08,1.39-1.39c-.38,3.02-1.96,5.93-4.39,7.72M53.98,64.15c-.38.27-.78.51-1.16.77l.97-.97.19.19ZM58.4,62.99l.3.3-.29.29c-.01-.19-.01-.39-.01-.58M59.09,62.9l-.77-.77c.24-.21.46-.44.71-.65l.74.74-.68.68ZM60.51,60.11c.16-.15.32-.29.48-.44l.4.4-.46.46-.42-.42ZM65.24,57.91l.49-.49.77.78-.5.5c-.27-.25-.52-.51-.77-.78M65.47,56.39h-.38v.38l.27.27-.45.45c-.23-.27-.46-.53-.66-.83l1.34-1.34.74.74-.58.59-.26-.26ZM49.94,66.78c-6.68,3.91-11.71,3.83-15.05,1.81l-.07-.15-.09.04c-.78-.5-1.47-1.1-2.06-1.78l.85-.85.47.47h.39v-.39l-.47-.48.38-.38v-.38h-.38l-.39.38-1.35-1.35,1.02-1.02v-.38h-.39l-1.02,1.02-.23-.23h-.38v.38l.23.23-.38.38c-.06-.14-.12-.28-.18-.42h0c.02-.17-.05-.31-.15-.42-.21-.59-.39-1.2-.51-1.82-.64-3.32.15-7.1,2.16-10.36,1.91-3.09,4.89-4.42,7.45-7.23,6.03-6.62,12.86-14.12,21.81-17.53,5.4-2.06,12.96-2.8,18.18-6.7-3.01,6.14-4.21,13.09-6.6,19.48-3.69,9.9-10.28,18.5-18.76,24.7l-.25-.25,1.07-1.07v-.38h-.38l-1.07,1.07-.38-.38h-.39v.38l.38.38-2.15,2.15-1.12-1.13h-.38v.38l1.12,1.13-.16.16v.02c-.26.16-.51.34-.77.5M29.84,83.31l-1.77-1.22c2.56-2.53,3.81-5.88,4.42-8.32,0-.02-.01-.04,0-.06.99-1.24,1.77-2.58,2.36-3.95.38.2.76.39,1.18.55-.55,4.83-2.77,9.53-6.18,12.99M28.19,76.38c-.79-.45-1.38-.88-1.87-1.39,2.63-1.71,4.78-4.05,6.33-6.78.39.37.79.72,1.24,1.03-1.12,2.66-3.1,5.17-5.7,7.14M22.03,72.27c-.51-.6-.92-1.33-1.34-2.17,2.81-2.31,6.12-4.03,9.62-5.01.18.35.39.68.6,1.02-3.47,1.26-6.59,3.39-8.89,6.16M25.64,65.33c-3.9.64-7.42,1.97-10.45,3.98-.13-.33-.25-.66-.37-.99-.15-.4-.29-.79-.46-1.2,4.69-2.39,10.08-3.41,15.32-2.97-1.23.36-2.43.82-3.6,1.35-.12-.12-.28-.2-.45-.17M32.31,66.27l.06-.12c-.06-.18-.21-.28-.39-.33-.26-.38-.5-.78-.71-1.2l.51-.51,1.35,1.35-.82.82s0,0-.01-.01M86.81,51.29c-.12-2.95-1.59-5.79-4.04-7.8-2.39-1.96-5.56-2.98-9-2.99.13-.34.3-.66.43-1.01,3.46-9.29,3.19-14.19,9.08-23.61l-.16-.74-.74.13c-5.35,7.38-13.46,7.11-21.16,10.05-9.18,3.5-16.12,11.1-22.22,17.8-2.48,2.72-5.55,4.11-7.57,7.39-2.16,3.49-2.99,7.56-2.3,11.14.09.46.22.93.37,1.4-5.51-.39-11.18.74-16.06,3.33l-.25.7c.25.56.43,1.08.63,1.6.19.55.4,1.1.64,1.67l.36.3.15.02.31-.1c2.38-1.67,5.11-2.89,8.1-3.65-1.3.78-2.55,1.62-3.7,2.6l-.14.65c.56,1.17,1.21,2.38,2.16,3.31l.38.16h.03l.39-.21c2.27-2.94,5.48-5.18,9.08-6.42.1.13.2.25.31.37-1.57,2.88-3.86,5.32-6.67,7.02l-.26.37.11.44c.91,1.12,1.94,1.76,2.9,2.28l.26.07.33-.11c.81-.59,1.57-1.24,2.27-1.93-.75,2.09-1.98,4.44-3.98,6.22l-.18.44.24.42,2.7,1.85.31.09.37-.15c3.72-3.62,6.18-8.61,6.8-13.76.92.24,1.9.41,2.99.41,3.13,0,6.63-1.12,10.41-3.34,2.41-1.42,4.68-3.03,6.83-4.79-.03,3.74,1.74,7.38,4.65,9.69-2.32,1.73-4.89,3.17-7.64,4.3-.14-.32-.27-.66-.41-1.02-.14-.37-.29-.75-.45-1.11l4.5-2.68.18-.75-.74-.19-4.92,2.94-.21.71c.23.46.42.95.63,1.48.2.52.41,1.06.66,1.56l.5.3.2-.03c3.14-1.23,6.03-2.88,8.63-4.86.26.17.51.35.78.5,4.07,2.21,9.31,1.83,13.03-.9,3.67-2.71,5.56-7.51,4.74-12,.7-.45,1.36-.97,1.96-1.55,2.33-2.25,3.54-5.1,3.42-8.03"/>
</svg>