<?xml version="1.0" encoding="UTF-8"?>
<svg id="Layer_1" xmlns="http://www.w3.org/2000/svg" viewBox="0 0 100 100">
  <defs>
    <style>
      .cls-1 {
        fill: #f17324;
      }
    </style>
  </defs>
  <path class="cls-1" d="M25.04,42.08l-.07-.38.38-.07c.72.5,1.5.9,2.25,1.34.23-.17.45-.35.71-.48l.36.12-.12.36c-.16.08-.3.2-.45.3.94.52,1.9.98,2.88,1.4l.5-.45.38.02-.02.38-.31.28c1.18.48,2.37.89,3.6,1.24l.39-.45.38-.02.02.38-.22.25c1.02.27,2.05.49,3.1.65.3-.5.66-.96,1.11-1.34l.38.04-.03.38c-.35.28-.65.63-.9,1,.73.11,1.45.26,2.18.31.63.05,1.26,0,1.89.02l.78-1.54.37-.11.11.36-.66,1.29c1.21,0,2.41-.07,3.61-.2l.41-1.1.35-.16.16.34-.31.85c1.36-.18,2.7-.44,4.03-.79l-.09-.76.24-.3.3.24.08.68c.84-.23,1.66-.48,2.48-.78l-.18-1.56.23-.3.29.24.16,1.41c.88-.34,1.77-.66,2.62-1.07l.36.13-.13.37c-1.86.9-3.8,1.58-5.78,2.13l.06.48-.24.3h-.03l-.27-.24-.05-.39c-1.43.37-2.87.67-4.33.84l-.16.44-.25.18-.1-.02-.16-.34.07-.19c-1.14.12-2.28.19-3.42.19-.09,0-.18,0-.27,0l-.37.72-.24.15-.13-.03-.11-.36.25-.5c-.55-.01-1.09-.02-1.64-.06-.8-.06-1.59-.22-2.39-.34-.13.26-.28.51-.36.79l-.25.2h-.07s-.19-.34-.19-.34c.07-.26.22-.48.33-.72-1.1-.18-2.18-.43-3.26-.72l-.79.9-.2.09-.18-.07-.02-.38.62-.7c-1.24-.36-2.46-.79-3.65-1.29l-.73.65-.18.07-.2-.09.02-.38.54-.49c-1-.44-1.97-.92-2.92-1.45-.25.23-.47.48-.65.77l-.23.12-.15-.04-.08-.38c.18-.28.41-.52.64-.75-.71-.42-1.44-.79-2.12-1.26M38.18,62.9l.85.85v.38l-.19.08-.19-.08-.85-.85-1.36,1.36-.19.08-.19-.08v-.38l1.36-1.36-2.21-2.2v-.38h.39l2.2,2.21.57-.57h.38v.38l-.56.56ZM32.96,66.8l1.97,1.97v.38l-.19.08-.19-.08-1.97-1.97v-.38h.38ZM33.95,64.22l2.14,2.14v.38l-.19.08-.2-.08-2.13-2.14-.99.99-.19.08-.19-.08v-.38l.98-.99-1.36-1.36-1.22,1.22-.19.08-.2-.08v-.38l1.22-1.22-.47-.47v-.38h.38l.47.47,2.02-2.02h.38v.38l-2.02,2.02,1.36,1.36,1.92-1.93h.38v.38l-1.92,1.92ZM73.68,59.55c-2.46,4.18-5.45,8.08-10.49,9.02l.1-.04v-.38l-.11-.11,1.41-1.41v-.03l.07-.03v-.38l-1.47-1.48c.03-.09.05-.18.08-.26l.17-.07.59-.59.28.28.19.08.19-.08v-.38l-.28-.28,1.02-1.03h0s.2.08.2.08l.19-.08v-.38l-.56-.56.77-.77v-.38h-.38l-.78.77-.51-.51c2.69-.48,5.15-1.96,6.8-4.15,2.85-3.78,2.74-9.15.74-11.23-.73-.77-1.83-1.18-2.97-1.14-.28,0-.52.12-.78.19l-.42-.42.65-.65.1.1.2.07.19-.07v-.38l-.18-.18v-.22h-.22l-.96-.96h-.39v.38l.88.89-.65.65-.44-.44h0c.04-.6.1-1.19.14-1.79.03-.41.05-.82.07-1.24l.52.52v.29l.19.08.13-.05.94.94.19.08.19-.08v-.38l-.92-.92.93-.93v-.38h-.38l-.93.93-.61-.6c2.54-1.06,5.95-.11,7.92,2.27,3.44,4.15,2.9,10.15-1.61,17.83M62.91,68.53l.14.06c-.15.02-.31.03-.46.05l.22-.22.11.11ZM62.18,67.8l.24.24-.48.48v.2s-.06,0-.09,0c.11-.31.22-.62.33-.93M59.14,72.63v-.33l-.7-.7,1.94-1.94c-.38.98-.81,1.98-1.24,2.97M56.32,73.31l-1.57-1.57,1.54-1.54,1.4,1.39-1.36,1.36v.36ZM58.16,74.85v-.17h-.38l-2.09,2.09-1.4-1.4v-.3h-.3l-2.99-2.99h-.38v.38l.73.73h-.36l-1.48,1.48-1.03-1.03h-.22l.66-.66v-.38h-.38l-2,2-.29-.29h-.38v.38l.29.29-1.21,1.21-.43-.44.63-.63v-.38h-.38l-.63.63-.33-.33h-.38v.39l.33.33-1.69,1.69-.92-.92h-.38v.38l.92.92-1.84,1.84-1.47-1.47,1.59-1.59v-.39h-.38l-3,3-.7-.7h-.38v.38l.7.7-.69.69-1.25-1.25h-.38v.38l1.25,1.25-.44.44c-.24-.15-.5-.27-.73-.45-1.96-1.54-3.1-3.98-4.01-6.15-4.24-10.02-6.39-20.34-7.17-28.11,2.56,3.99,7.45,6.62,14.66,7.81,2.16.36,4.84.65,7.77.65,6.58,0,14.37-1.56,20.19-7.33-.39,3.75-.93,7.39-1.72,10.99l-.93-.93h-.39v.38l1.17,1.17c-.11.49-.22.97-.34,1.46v-.12l-.51-.51.33-.33v-.38h-.38l-.33.33-.51-.51h-.38v.38l.51.51-1.26,1.26v.29h-.22v.38l1.46,1.46.19.08.19-.08v-.38l-1.32-1.34.1-.03,1.25-1.26.51.51.19.08.12-.05c-.54,2.16-1.19,4.33-1.95,6.51v-.22l-1.56-1.56,1.1-1.1.78.78.19.08.19-.08v-.38l-.77-.78.44-.44v-.38h-.39l-.44.44-.7-.7h-.38v.38l.7.7-1.14,1.14h-.3v.3l-.07.07v.38l.19.08.19-.08.03-.03,1.56,1.55.19.08.13-.05c-.15.43-.3.86-.46,1.3h-.25l-.57.57-2.18-2.18h-.38v.38l2.18,2.17-1.39,1.39-1.39-1.4.96-.96v-.38h-.38l-.97.97-.25-.26h-.38v.39l.26.26-1.54,1.54-.77-.77h-.39v.38l.77.77-1.21,1.22v.38l.19.08.19-.08,1.22-1.22,2.73,2.73.19.08.19-.08v-.38l-1.12-1.12.15.06.19-.08,1.36-1.36.7.7.2.08.16-.06c-.17.4-.32.8-.51,1.21-.14.31-.3.63-.46.95M56.07,77.15l1.89-1.89c-.41.82-.86,1.63-1.39,2.4l-.51-.51ZM54.65,79.79l-.61-.61,1.65-1.65.56.56c-.47.63-1.01,1.2-1.6,1.7M52.94,80.97l-2.08-2.08,1.06-1.06,2.32,2.32c-.05.04-.09.1-.15.13-.36.25-.75.47-1.15.69M41.74,83.19l2.67-2.67,2.09,2.09.19.08.19-.08v-.38l-2.09-2.1,1.69-1.69,2.02,2.02-1.43,1.43v.39l.19.07.19-.07,1.44-1.44,1,1,.19.08.19-.08v-.38l-1-1,1.21-1.21,1.96,1.96c-3.15,1.57-7.43,2.38-10.69,1.97M36.45,81.96h.03c-.45-.16-.88-.35-1.3-.58l.34-.34.92.92ZM38.07,81.43l-.69.7v.18c-.26-.08-.48-.19-.73-.27l.18-.07v-.38l-.92-.92.69-.69,1.47,1.47ZM41.7,82.26l.15.06-.79.79c-1.13-.19-2.21-.4-3.22-.68l.61-.61.63.63.19.08.19-.08v-.38l-.63-.63,1.03-1.02,1.84,1.84ZM44.03,80.14l-1.95,1.95v-.21l-1.84-1.84,1.84-1.84,1.95,1.95ZM47.69,76.48l-1.21,1.21-1.13-1.13,1.21-1.21,1.14,1.14ZM48.07,76.09l-1.14-1.14,1.17-1.17v.22l1.03,1.03-1.06,1.06ZM50.09,78.88l-1.21,1.21-2.02-2.02,1.21-1.21,2.02,2.02ZM51.54,77.44l-1.06,1.06-2.02-2.02,1.06-1.06,2.02,2.02ZM55.31,77.14l-1.65,1.65-1.36-1.36,1.65-1.66,1.36,1.36ZM51.38,73.2l2.2,2.2-1.65,1.66-2.02-2.02,1.48-1.48v-.35ZM43.56,78.23l.19-.08,1.21-1.21,1.13,1.13-1.69,1.69-1.95-1.95,1.69-1.69.44.43-1.21,1.21v.38l.19.08ZM38.01,78.56l1.47,1.47-1.02,1.03-1.47-1.47,1.03-1.03ZM22.87,35.19c.17-.71.55-1.46,1.01-2.19-.36,1.62-.19,3.31.63,4.61,1.06,1.69,2.91,2.62,4.59,3.31,4.78,1.97,9.95,2.96,15.11,2.96,4.72,0,9.43-.83,13.85-2.47,1.71-.64,3.66-1.5,5.12-3.04,1.26-1.33,1.9-3.04,1.82-4.63.34.63.62,1.33.78,2.11.38,1.73.3,3.55.18,5.27-.11,1.59-.23,3.15-.37,4.68-8.04,9.02-20.92,8.47-27.96,7.32-8.14-1.34-13.19-4.53-15.03-9.47,0-.01-.03-.02-.03-.03-.24-3.8-.11-6.77.29-8.43M35.35,26.61c-.49.56-.92,1.2-1.16,1.94-.08.24-.06.5-.1.75-1.28.12-2.52.77-3.3,1.79-1.78,2.32-1.15,5.16,1.69,7.59,1.75,1.5,3.72,2.63,5.89,3.39.78.27,1.77.56,2.84.56l.58-.03c.81-.08,1.88-.34,2.63-1.23,1.35.49,2.72.81,4.03.81.54,0,1.06-.05,1.57-.16,1.17-.25,2.16-.86,2.79-1.69.54.11,1.09.22,1.55.22s.85-.05,1.23-.15c1.29-.32,2.32-1.25,2.61-2.37.28-1.05,0-2.44-1.35-3.58.46-.5.68-1.19.7-2.07.02-2.4-1.67-4.18-3.8-5.68,2.28.59,4.46,1.47,6.52,2.64,1.26.71,3,1.85,3.53,3.57.46,1.5-.09,3.36-1.41,4.74-1.31,1.37-3.12,2.17-4.72,2.77-9.01,3.36-19.27,3.19-28.16-.48-1.52-.63-3.2-1.45-4.09-2.88-1-1.58-.91-3.86.21-5.68,2.09-3.39,6.38-4.29,9.7-4.76M33.97,30.39c.1,1.8,1.05,3.8,2.79,5.75,1.67,1.88,4.07,3.66,6.61,4.8-.38.31-.91.51-1.69.59-.83.09-1.75-.06-2.96-.48-2.04-.71-3.91-1.78-5.55-3.18-2.4-2.05-2.96-4.28-1.54-6.12.56-.73,1.42-1.21,2.33-1.35M38.84,24.78c-.81,2.53-.79,4.88.17,6.96,2.41,5.3,9.67,7.44,12.41,8.24.06.02.1.03.15.04-.47.43-1.04.79-1.76.94-1.62.33-3.45.01-5.24-.67l-.02-.07-.09.02c-2.63-1.03-5.18-2.87-6.91-4.81-2.09-2.36-2.94-4.75-2.35-6.54.39-1.17,1.41-2.09,2.31-2.91l1.32-1.2ZM52.53,39.2s0,0,0,0c-.16-.06-.42-.14-.8-.25-2.36-.69-9.52-2.8-11.73-7.65-.79-1.75-.87-3.71-.25-5.86.68,2.65,2.42,4.99,4.85,6.26,1.75.92,3.7,1.25,5.58,1.58,1.41.25,2.87.5,4.19,1,2.51.93,3.07,2.45,2.8,3.48-.19.74-.91,1.37-1.82,1.6-.76.2-1.65.15-2.81-.15M42.43,17.36c.14,1.74,1.05,3.53,2.59,4.99,1.16,1.1,2.83,2.06,4.61,3.08,3.38,1.91,6.87,3.91,6.84,6.94,0,.69-.17,1.14-.52,1.46-.36-.2-.76-.39-1.21-.56-1.42-.53-2.93-.79-4.38-1.04-1.88-.33-3.66-.64-5.27-1.47-2.5-1.3-4.25-3.85-4.58-6.65-.27-2.37.48-4.92,1.92-6.74M66.83,43.94c0-.08.01-.17.02-.25l.12.11-.14.14ZM66.76,44.86c0-.06,0-.12.01-.17l.13-.05.44-.44.19.19c-.29.12-.53.3-.77.48M66.78,46.1h.11c.48-.59,1.23-.94,2.08-.98.86-.04,1.63.26,2.15.8,1.47,1.54,1.89,6.24-.82,9.84-1.39,1.85-3.45,3.13-5.71,3.64.98-4.3,1.61-8.63,2.04-13.13.05-.06.1-.1.15-.16v-.02ZM63.58,63.36l.05.05-.1.1s.03-.1.04-.15M63.01,65.31l1.07,1.07-1.28,1.28-.42-.42c.22-.64.44-1.29.64-1.93M65.04,62.01l-1.03,1.02-.26-.26c.15-.54.29-1.08.43-1.62l.86.86ZM76.13,41.03c-2.26-2.72-6.01-3.77-8.99-2.64-.02-.92-.1-1.85-.3-2.76-.46-2.11-1.53-3.84-2.99-4.87h-.06c-.88-1.05-2.04-1.84-2.99-2.38-2.75-1.56-5.72-2.63-8.83-3.21-.15-.02-.3.02-.41.11-.47-.27-.93-.54-1.39-.8-1.72-.98-3.35-1.9-4.41-2.91-1.33-1.27-2.61-3.38-2.19-5.53l-.26-.57-.63.06c-1.99,1.73-3.16,4.56-3.23,7.35h-.11s-2.54,2.3-2.54,2.3c-.06.05-.13.12-.19.18l-.16.02c-2.97.38-7.7.98-10.6,3.98h-.04c-1.93,1.4-3.5,3.6-3.98,5.58-1.27,5.27.03,23.13,7.15,39.97.97,2.29,2.19,4.87,4.35,6.57,2.17,1.71,4.96,2.27,7.88,2.74.71.11,1.48.17,2.28.17,3.82,0,8.38-1.26,11.23-3.23,2.42-1.66,3.78-4.39,4.89-6.83.68-1.51,1.29-3,1.85-4.47,6.67-.28,10.27-4.85,13.17-9.77,4.76-8.11,5.27-14.53,1.52-19.06"/>
</svg>