<?xml version="1.0" encoding="UTF-8"?>
<svg id="Layer_1" xmlns="http://www.w3.org/2000/svg" viewBox="0 0 100 100">
  <defs>
    <style>
      .cls-1 {
        fill: #f17324;
      }
    </style>
  </defs>
  <path class="cls-1" d="M41.32,38.87v.38l1.05,1.06h.39v-.39l-1.05-1.05h-.39ZM41.9,41.33v-.4h-.39l-.48.48-.58-.58h-.39v.4l.58.58-2.13,2.13-1.21-1.21,3.14-3.14v-.4h-.39l-3.15,3.14-.39-.39h-.4v.39l.4.39-1.55,1.55v.4h.4l1.55-1.55,1.23,1.19-.76.76.39.39.77-.77.77.74.2-.09v-.39l-.62-.62,2.13-2.13.64.64h.39v-.39l-.64-.64.48-.48ZM59.96,36.65h-.09s-.53-.4-.53-.4c-.02-.06.02-.12.03-.18-.7-.49-1.72-.74-3.09-.74-.32,0-.66.02-.97.04,0,0-.02,0-.03,0-7.59.51-15.04,2.86-21.55,6.8-2.03,1.23-4.53,2.96-5.94,5.45-1.22,2.15-1.38,4.83-.4,6.81.31.65,1.23,1.24,2.5,1.72l.36-.36-.55-.55v-.4h.39l.55.55,1.52-1.53h.39v.39l-1.52,1.53.67.67v.22c.52.12,1.07.21,1.65.29l.56-.56-1.3-1.23v-.4h.39l1.27,1.27,4-3.99h.39v.39l-2.11,2.11h.07l2.01,2.01,1.47-1.47-1.18-1.18v-.39h.39l1.18,1.18,2.07-2.07v-.03h.03l1.88-1.88h.39v.39l-1.7,1.7,1.9,1.9,1.62-1.62-1.18-1.18v-.39h.39l1.18,1.18,2.04-2.04-.52-.52v-.39h.39l2.5,2.49v.4h-.4l-1.59-1.59-2.04,2.04,1.18,1.18v.09c.48-.24.95-.47,1.41-.75.04-.05.1-.06.15-.1,2.53-1.54,4.86-3.65,6.77-6.44-.93.28-1.88.25-2.78-.07v.22l-.29.29.44.44.18-.18.39.39-.18.18.3.3v.39h-.39l-.3-.3-1.21,1.21h0v.39l-.19.09-.19-.09h0s-1.12,1.11-1.12,1.11h-.4v-.39l1.12-1.12-1.35-1.35v-.4h.4l1.35,1.35,1.21-1.21-.44-.44-.35.35-.19.08-.19-.08v-.39l.46-.46v-.18h.18l.39-.39c-.7-.32-1.35-.75-1.83-1.42-1.01-1.41-1.11-3.18-1.12-4.88,0-.3.24-.55.54-.56h0c.3,0,.55.25.55.55.01,1.52.09,3.1.92,4.24,1.07,1.49,3.11,1.88,4.66.91.11-.07.22-.05.32-.05.82-1.4,1.57-2.9,2.16-4.63.67-1.98.66-3.4-.04-4.35M40.48,55.48l-1.62,1.62c.94-.08,1.89-.19,2.87-.38l-1.24-1.24ZM45.87,55.53v.03c.77-.28,1.54-.6,2.3-.97l-1.11-1.11-1.62,1.62.43.43ZM45.05,55.49l-.57.57c.28-.09.56-.2.84-.3l-.27-.27ZM40.87,55.09l1.44,1.44v.07c.52-.11,1.05-.24,1.57-.39l-.17-.16.94-.94-1.9-1.9-1.89,1.89ZM38.78,57.05v.05h.05l-.05-.05ZM38.56,57.11h-.17l-2.18-2.17v-.07l-1.56,1.56.29.29v.39h-.03c1.15.09,2.37.09,3.65,0M34.67,57.12l-.36-.34-.27.27c.21.02.41.05.63.07M30.95,56.49l-.31-.31-.18.18c.15.05.33.09.49.13M34.64,58.18c-.8-.08-1.61-.19-2.43-.33-2.02-.35-4.79-.84-5.82-2.93-.97-1.98-.93-4.51-.03-6.75-2.75,1.94-5.05,4.48-6.73,7.39.07.08.14.16.14.28.23,2.52,2.31,4.45,4.83,4.5.31,0,.55.26.54.57,0,.3-.25.54-.55.54h0c-2.73-.05-5.02-1.89-5.72-4.44-.96,1.97-1.67,4.07-2.03,6.25-.09.56-.12,1.11-.17,1.65.66,1.24,2.22,1.78,3.49,1.72,1.52-.05,2.97-.67,4.38-1.29l.73.28-.29.73c-1.44.62-3.06,1.32-4.79,1.37h-.18c-1.34,0-2.54-.46-3.41-1.21,0,2.17.37,4.2,1.14,5.96.26.6.59,1.17.95,1.73l.47-.1c1.04.68,3.92,1.78,8.1-2.69l.77-.03.03.78c-2.7,2.88-5.01,3.65-6.71,3.65-.45,0-1.09-.1-1.67-.27,1.92,2.31,4.68,4.15,7.89,5.21,2.49-.48,4.67-2.39,5.45-4.79.09-.28.41-.45.7-.35.29.09.45.4.35.69-.72,2.22-2.48,4.05-4.63,4.99.72.16,1.48.28,2.26.38l.31-.31-.6-.6v-.39h.4l.6.6,1.33-1.33-.08-.07v-.39h.39l.08.08,1.05-1.05h.39v.38l-1.05,1.05,1.25,1.25,1.22-1.22-.92-.88v-.4h.39l.9.9,1.22-1.22h.33v-.06h.39l1.29,1.29.82-.82-.53-.51v-.39h.4l.51.51,1.72-1.72h.39v.39l-1.72,1.72,1.83,1.83,1.67-1.67-.86-.82-.1.1-.19.08-.19-.08v-.4l.09-.08-.36-.35v-.39h.39l.35.35.75-.75.39.39-.75.75,1.81,1.81v.18c1.17-1.63,1.1-4.52-4.05-3.63-11.45,1.98-16.3-11.66-8.32-17.62M47.48,75.23c.35.26.61.57.81.92,5.68-1.05,10.79-5.16,13.27-10.65-5.81.84-11.26,4.58-14.08,9.72M46.5,80c.11-.09.19-.21.29-.32l-.7-.67-2,2.01h0s0,0,0,0l-.05.05c1.09-.3,1.96-.66,2.47-1.08M37.76,79.68l1.22,1.23,1.22-1.22-1.23-1.23h0s-1.22,1.23-1.22,1.23ZM43.42,81.24l-.17-.17.43-.43-1.86-1.79-.82.83,1.01,1-.39.4-1.01-1.01-1.39,1.4-.19.08h-.03s-.03,0-.03,0l-.04-.04-.1-.04v-.06l-1.42-1.37-1.22,1.23.12.12v.39l-.19.08-.26-.25-.32.32c2.88.06,5.76-.19,7.91-.69M32.42,81.74h0s0,0,0,0h0ZM33.21,81.83c.63.05,1.28.08,1.92.1l-.19-.19.5-.5-1.28-1.22-1.34,1.34.44.44-.04.04ZM85.92,23.7c-.07.3-.35.49-.66.42-6.66-1.48-12.65,4.48-16.62,7.69-2.13,1.72-4.7,3.51-7.64,4.49.75,1.24.78,2.89.04,5.06-1.52,4.46-4.34,8.44-7.99,11.4,4.37-1.26,8.39-3.83,11.29-7.32l.78-.08.07.78c-3.61,4.35-8.87,7.35-14.44,8.28-.59.38-1.2.74-1.82,1.07-.35.18-.71.34-1.07.51,8.08-.46,15-3.52,20.31-8.45l.78.04-.03.78c-6.08,5.64-14.26,8.84-22.55,8.84-.42,0-.82.01-1.02-.19-2.93.99-6.08,1.42-9.49,1.23l-.09.45c-.3.19-.56.43-.83.66,1.68-.3,3.42-.26,5.06.15.29.07.48.37.4.67-.07.29-.36.48-.67.4-1.97-.48-4.12-.4-6.05.23h-.09c-.96,1.35-1.54,2.97-1.7,4.61,2.26-1.37,4.78-2.35,7.37-2.8.29-.05.58.15.64.45.05.3-.15.58-.45.63-2.69.47-5.31,1.51-7.6,3.01.04.8.16,1.59.43,2.34,0,.01.01.03.02.04,2.11-1.6,4.66-2.68,7.27-3.02.3-.03.58.18.62.48.04.31-.18.58-.48.62-2.51.32-4.96,1.37-6.94,2.93.6,1.12,1.45,2.09,2.48,2.88,1.56-1.07,2.91-2.38,4.01-3.92l.77-.13.13.77c-.67.95-2.64,3.13-3.88,3.97.72.41,1.48.75,2.28.96l.06-.22c1.27-.74,2.28-1.89,2.85-3.24l.72-.29c.28.12.41.44.29.72-.47,1.14-1.57,2.53-2.52,3.28.52.05,1.05.06,1.57,0,1.11-.11,2.1-.4,3.25-.43.67,0,1.22.1,1.72.27h0c3.19-5.84,9.28-9.84,15.9-10.45l.49.22.07.53c-2.43,6.21-8.02,10.93-14.3,12.15.2,1.25-.28,2.67-1.44,3.65-3.06,2.56-13.8,2.8-19.3,1.19-5.16-1.51-9.34-4.92-11.18-9.13-1.24-2.82-1.57-6.22-.98-9.85,1.14-6.96,5.45-13.26,11.53-16.84l.13.03c1.57-2.25,3.84-3.87,5.75-5.02,6.66-4.03,14.29-6.44,22.06-6.97.01,0,.03,0,.04,0,3.8-.07,7.07-2.44,10.65-5.28,4.99-3.96,9.59-8.44,13.69-13.3l.78-.06.07.78c-4.15,4.92-8.8,9.45-13.85,13.46-2.07,1.64-4.69,3.7-7.66,4.78.51.18.94.45,1.31.77,2.95-.88,5.54-2.71,7.7-4.45,4.14-3.34,10.32-9.5,17.55-7.9.3.06.49.36.42.66M56.95,37.73l.11.49-.13.48c-.16.25-.43.39-.72.39h-.12s-.53-.3-.53-.3l-.1-.05-.25-.52.05-.24.21-.54.18-.15.53-.18.48.22.17.26.12.15Z"/>
</svg>