<svg width="98" height="69" viewBox="0 0 98 69" fill="none" xmlns="http://www.w3.org/2000/svg">
<path d="M13.769 52.1648C13.769 51.4848 13.9257 50.8748 14.239 50.3348C14.559 49.7948 14.989 49.3748 15.529 49.0748C16.0757 48.7681 16.6724 48.6148 17.319 48.6148C18.059 48.6148 18.7157 48.7981 19.289 49.1648C19.869 49.5248 20.289 50.0381 20.549 50.7048H19.179C18.999 50.3381 18.749 50.0648 18.429 49.8848C18.109 49.7048 17.739 49.6148 17.319 49.6148C16.859 49.6148 16.449 49.7181 16.089 49.9248C15.729 50.1315 15.4457 50.4281 15.239 50.8148C15.039 51.2015 14.939 51.6515 14.939 52.1648C14.939 52.6781 15.039 53.1281 15.239 53.5148C15.4457 53.9015 15.729 54.2015 16.089 54.4148C16.449 54.6215 16.859 54.7248 17.319 54.7248C17.739 54.7248 18.109 54.6348 18.429 54.4548C18.749 54.2748 18.999 54.0015 19.179 53.6348H20.549C20.289 54.3015 19.869 54.8148 19.289 55.1748C18.7157 55.5348 18.059 55.7148 17.319 55.7148C16.6657 55.7148 16.069 55.5648 15.529 55.2648C14.989 54.9581 14.559 54.5348 14.239 53.9948C13.9257 53.4548 13.769 52.8448 13.769 52.1648ZM24.2734 55.7448C23.7534 55.7448 23.2834 55.6281 22.8634 55.3948C22.4434 55.1548 22.1134 54.8215 21.8734 54.3948C21.6334 53.9615 21.5134 53.4615 21.5134 52.8948C21.5134 52.3348 21.6368 51.8381 21.8834 51.4048C22.1301 50.9715 22.4668 50.6381 22.8934 50.4048C23.3201 50.1715 23.7968 50.0548 24.3234 50.0548C24.8501 50.0548 25.3268 50.1715 25.7534 50.4048C26.1801 50.6381 26.5168 50.9715 26.7634 51.4048C27.0101 51.8381 27.1334 52.3348 27.1334 52.8948C27.1334 53.4548 27.0068 53.9515 26.7534 54.3848C26.5001 54.8181 26.1534 55.1548 25.7134 55.3948C25.2801 55.6281 24.8001 55.7448 24.2734 55.7448ZM24.2734 54.7548C24.5668 54.7548 24.8401 54.6848 25.0934 54.5448C25.3534 54.4048 25.5634 54.1948 25.7234 53.9148C25.8834 53.6348 25.9634 53.2948 25.9634 52.8948C25.9634 52.4948 25.8868 52.1581 25.7334 51.8848C25.5801 51.6048 25.3768 51.3948 25.1234 51.2548C24.8701 51.1148 24.5968 51.0448 24.3034 51.0448C24.0101 51.0448 23.7368 51.1148 23.4834 51.2548C23.2368 51.3948 23.0401 51.6048 22.8934 51.8848C22.7468 52.1581 22.6734 52.4948 22.6734 52.8948C22.6734 53.4881 22.8234 53.9481 23.1234 54.2748C23.4301 54.5948 23.8134 54.7548 24.2734 54.7548ZM31.0404 50.0548C31.4737 50.0548 31.8604 50.1448 32.2004 50.3248C32.547 50.5048 32.817 50.7715 33.0104 51.1248C33.2037 51.4781 33.3004 51.9048 33.3004 52.4048V55.6548H32.1704V52.5748C32.1704 52.0815 32.047 51.7048 31.8004 51.4448C31.5537 51.1781 31.217 51.0448 30.7904 51.0448C30.3637 51.0448 30.0237 51.1781 29.7704 51.4448C29.5237 51.7048 29.4004 52.0815 29.4004 52.5748V55.6548H28.2604V50.1448H29.4004V50.7748C29.587 50.5481 29.8237 50.3715 30.1104 50.2448C30.4037 50.1181 30.7137 50.0548 31.0404 50.0548ZM37.0645 51.0748H36.0445V55.6548H34.8945V51.0748H34.2445V50.1448H34.8945V49.7548C34.8945 49.1215 35.0612 48.6615 35.3945 48.3748C35.7345 48.0815 36.2645 47.9348 36.9845 47.9348V48.8848C36.6379 48.8848 36.3945 48.9515 36.2545 49.0848C36.1145 49.2115 36.0445 49.4348 36.0445 49.7548V50.1448H37.0645V51.0748ZM43.1248 52.7648C43.1248 52.9715 43.1115 53.1581 43.0848 53.3248H38.8748C38.9082 53.7648 39.0715 54.1181 39.3648 54.3848C39.6582 54.6515 40.0182 54.7848 40.4448 54.7848C41.0582 54.7848 41.4915 54.5281 41.7448 54.0148H42.9748C42.8082 54.5215 42.5048 54.9381 42.0648 55.2648C41.6315 55.5848 41.0915 55.7448 40.4448 55.7448C39.9182 55.7448 39.4448 55.6281 39.0248 55.3948C38.6115 55.1548 38.2848 54.8215 38.0448 54.3948C37.8115 53.9615 37.6948 53.4615 37.6948 52.8948C37.6948 52.3281 37.8082 51.8315 38.0348 51.4048C38.2682 50.9715 38.5915 50.6381 39.0048 50.4048C39.4248 50.1715 39.9048 50.0548 40.4448 50.0548C40.9648 50.0548 41.4282 50.1681 41.8348 50.3948C42.2415 50.6215 42.5582 50.9415 42.7848 51.3548C43.0115 51.7615 43.1248 52.2315 43.1248 52.7648ZM41.9348 52.4048C41.9282 51.9848 41.7782 51.6481 41.4848 51.3948C41.1915 51.1415 40.8282 51.0148 40.3948 51.0148C40.0015 51.0148 39.6648 51.1415 39.3848 51.3948C39.1048 51.6415 38.9382 51.9781 38.8848 52.4048H41.9348ZM43.8667 52.8948C43.8667 52.3281 43.98 51.8315 44.2067 51.4048C44.44 50.9715 44.76 50.6381 45.1667 50.4048C45.5734 50.1715 46.04 50.0548 46.5667 50.0548C47.2334 50.0548 47.7834 50.2148 48.2167 50.5348C48.6567 50.8481 48.9534 51.2981 49.1067 51.8848H47.8767C47.7767 51.6115 47.6167 51.3981 47.3967 51.2448C47.1767 51.0915 46.9 51.0148 46.5667 51.0148C46.1 51.0148 45.7267 51.1815 45.4467 51.5148C45.1734 51.8415 45.0367 52.3015 45.0367 52.8948C45.0367 53.4881 45.1734 53.9515 45.4467 54.2848C45.7267 54.6181 46.1 54.7848 46.5667 54.7848C47.2267 54.7848 47.6634 54.4948 47.8767 53.9148H49.1067C48.9467 54.4748 48.6467 54.9215 48.2067 55.2548C47.7667 55.5815 47.22 55.7448 46.5667 55.7448C46.04 55.7448 45.5734 55.6281 45.1667 55.3948C44.76 55.1548 44.44 54.8215 44.2067 54.3948C43.98 53.9615 43.8667 53.4615 43.8667 52.8948ZM51.5728 51.0748V54.1248C51.5728 54.3315 51.6195 54.4815 51.7128 54.5748C51.8128 54.6615 51.9795 54.7048 52.2128 54.7048H52.9128V55.6548H52.0128C51.4995 55.6548 51.1061 55.5348 50.8328 55.2948C50.5595 55.0548 50.4228 54.6648 50.4228 54.1248V51.0748H49.7728V50.1448H50.4228V48.7748H51.5728V50.1448H52.9128V51.0748H51.5728ZM54.5435 49.4148C54.3368 49.4148 54.1635 49.3448 54.0235 49.2048C53.8835 49.0648 53.8135 48.8915 53.8135 48.6848C53.8135 48.4781 53.8835 48.3048 54.0235 48.1648C54.1635 48.0248 54.3368 47.9548 54.5435 47.9548C54.7435 47.9548 54.9135 48.0248 55.0535 48.1648C55.1935 48.3048 55.2635 48.4781 55.2635 48.6848C55.2635 48.8915 55.1935 49.0648 55.0535 49.2048C54.9135 49.3448 54.7435 49.4148 54.5435 49.4148ZM55.1035 50.1448V55.6548H53.9635V50.1448H55.1035ZM58.9902 55.7448C58.4702 55.7448 58.0002 55.6281 57.5802 55.3948C57.1602 55.1548 56.8302 54.8215 56.5902 54.3948C56.3502 53.9615 56.2302 53.4615 56.2302 52.8948C56.2302 52.3348 56.3536 51.8381 56.6002 51.4048C56.8469 50.9715 57.1836 50.6381 57.6102 50.4048C58.0369 50.1715 58.5136 50.0548 59.0402 50.0548C59.5669 50.0548 60.0436 50.1715 60.4702 50.4048C60.8969 50.6381 61.2336 50.9715 61.4802 51.4048C61.7269 51.8381 61.8502 52.3348 61.8502 52.8948C61.8502 53.4548 61.7236 53.9515 61.4702 54.3848C61.2169 54.8181 60.8702 55.1548 60.4302 55.3948C59.9969 55.6281 59.5169 55.7448 58.9902 55.7448ZM58.9902 54.7548C59.2836 54.7548 59.5569 54.6848 59.8102 54.5448C60.0702 54.4048 60.2802 54.1948 60.4402 53.9148C60.6002 53.6348 60.6802 53.2948 60.6802 52.8948C60.6802 52.4948 60.6036 52.1581 60.4502 51.8848C60.2969 51.6048 60.0936 51.3948 59.8402 51.2548C59.5869 51.1148 59.3136 51.0448 59.0202 51.0448C58.7269 51.0448 58.4536 51.1148 58.2002 51.2548C57.9536 51.3948 57.7569 51.6048 57.6102 51.8848C57.4636 52.1581 57.3902 52.4948 57.3902 52.8948C57.3902 53.4881 57.5402 53.9481 57.8402 54.2748C58.1469 54.5948 58.5302 54.7548 58.9902 54.7548ZM65.7572 50.0548C66.1905 50.0548 66.5772 50.1448 66.9172 50.3248C67.2638 50.5048 67.5338 50.7715 67.7272 51.1248C67.9205 51.4781 68.0172 51.9048 68.0172 52.4048V55.6548H66.8872V52.5748C66.8872 52.0815 66.7638 51.7048 66.5172 51.4448C66.2705 51.1781 65.9338 51.0448 65.5072 51.0448C65.0805 51.0448 64.7405 51.1781 64.4872 51.4448C64.2405 51.7048 64.1172 52.0815 64.1172 52.5748V55.6548H62.9772V50.1448H64.1172V50.7748C64.3038 50.5481 64.5405 50.3715 64.8272 50.2448C65.1205 50.1181 65.4305 50.0548 65.7572 50.0548ZM74.5213 52.7648C74.5213 52.9715 74.508 53.1581 74.4813 53.3248H70.2713C70.3046 53.7648 70.468 54.1181 70.7613 54.3848C71.0546 54.6515 71.4146 54.7848 71.8413 54.7848C72.4546 54.7848 72.888 54.5281 73.1413 54.0148H74.3713C74.2046 54.5215 73.9013 54.9381 73.4613 55.2648C73.028 55.5848 72.488 55.7448 71.8413 55.7448C71.3146 55.7448 70.8413 55.6281 70.4213 55.3948C70.008 55.1548 69.6813 54.8215 69.4413 54.3948C69.208 53.9615 69.0913 53.4615 69.0913 52.8948C69.0913 52.3281 69.2046 51.8315 69.4313 51.4048C69.6646 50.9715 69.988 50.6381 70.4013 50.4048C70.8213 50.1715 71.3013 50.0548 71.8413 50.0548C72.3613 50.0548 72.8246 50.1681 73.2313 50.3948C73.638 50.6215 73.9546 50.9415 74.1813 51.3548C74.408 51.7615 74.5213 52.2315 74.5213 52.7648ZM73.3313 52.4048C73.3246 51.9848 73.1746 51.6481 72.8813 51.3948C72.588 51.1415 72.2246 51.0148 71.7913 51.0148C71.398 51.0148 71.0613 51.1415 70.7813 51.3948C70.5013 51.6415 70.3346 51.9781 70.2813 52.4048H73.3313ZM76.7832 50.9448C76.9499 50.6648 77.1699 50.4481 77.4432 50.2948C77.7232 50.1348 78.0532 50.0548 78.4332 50.0548V51.2348H78.1432C77.6965 51.2348 77.3565 51.3481 77.1232 51.5748C76.8965 51.8015 76.7832 52.1948 76.7832 52.7548V55.6548H75.6432V50.1448H76.7832V50.9448ZM84.4411 50.1448L81.0611 58.2448H79.8811L81.0011 55.5648L78.8311 50.1448H80.1011L81.6511 54.3448L83.2611 50.1448H84.4411Z" fill="white"/>
<path d="M57.0546 18.7174C57.0546 18.7174 57.03 18.7295 57.0176 18.7295C56.9561 18.6811 56.8822 18.6447 56.7961 18.6447H56.7469C56.7099 18.5721 56.6484 18.5237 56.5745 18.5237H56.5253C56.7838 14.8074 56.8453 11.1638 56.7099 7.67751C56.7099 7.55646 56.5991 7.45962 56.4884 7.47173C54.0512 7.49594 51.6018 7.53225 49.1647 7.56857C46.7522 7.60488 44.3519 7.62909 41.9517 7.66541C41.8287 7.66541 41.7425 7.76225 41.7425 7.8833V12.3501C41.7425 12.3501 41.7056 12.3864 41.7056 12.4227C41.7056 12.4469 41.7302 12.4711 41.7302 12.4953V18.7658H41.3486C40.4008 18.7658 40.0193 19.8795 39.6869 20.86C39.5269 21.32 39.3792 21.7558 39.1946 22.01C39.01 22.2763 38.7515 22.4821 38.4807 22.7121C38.2714 22.8815 38.0622 23.051 37.8775 23.2568C37.3852 23.7894 37.139 24.6126 37.5944 25.1815C37.8283 25.472 38.2099 25.6294 38.6776 25.6294C38.9115 25.6294 39.1823 25.5931 39.4408 25.5204C39.7608 25.4357 40.0808 25.3147 40.3885 25.2057C40.647 25.1089 40.9055 25.0241 41.164 24.9394L40.7332 32.2872C40.6963 32.9893 40.6839 33.7277 41.164 34.2603C41.7179 34.8777 42.6287 34.9019 43.4903 34.8414L55.0606 34.0909C56.8084 33.9819 57.1161 33.3525 57.1407 32.0935L57.2761 18.9595C57.2761 18.8384 57.1777 18.7416 57.0546 18.7416V18.7174ZM52.0941 18.6811C52.0941 18.5963 52.0941 18.4753 52.0941 18.33L52.2665 18.4995H52.4142V18.3542L52.1065 18.0395H52.0818C52.0818 17.9305 52.0818 17.8095 52.0818 17.6884L52.3772 17.979H52.525V17.8337L52.0818 17.3979C52.0818 17.3979 52.0818 17.3858 52.0818 17.3737H52.3772L52.8204 17.8095H52.9804V17.6521L52.685 17.3616H53.3127L53.6574 17.7005H53.8051V17.5432L53.6081 17.3495H53.9651L54.2236 17.6037H54.3836V17.4584L54.2728 17.3495H54.6913L55.0359 17.6884H55.1836V17.5432L54.9867 17.3495H56.1437C56.1191 17.7853 56.0945 18.2332 56.0699 18.6811L52.0941 18.7053V18.6811ZM48.5123 19.3589L48.2784 19.1411H48.7339L48.5 19.3589H48.5123ZM46.8875 18.7174C46.8875 18.5479 46.8875 18.1969 46.8875 17.7127L47.1953 18.0153H47.343V17.8579L46.8752 17.41H47.4168V17.4221L47.9092 17.9063H48.0692V17.749L47.7122 17.3979H48.2661V17.4342L48.6846 17.8458H48.8323V17.6884L48.5123 17.3737H48.6846V17.4342L49.177 17.9184H49.3247V17.7611L48.9185 17.3616H49.7432L50.1371 17.7369H50.2848V17.5916L50.0386 17.3495H50.2848L50.6417 17.7005H50.7894V17.5553L50.5802 17.3495H51.6018C51.6018 17.9669 51.6141 18.439 51.6141 18.6569L46.8506 18.6932L46.8875 18.7174ZM45.3736 19.1774L45.3982 19.1532H46.4198L45.8782 19.6737L45.3736 19.1774ZM44.4873 19.7463L44.1181 19.3832L44.2289 19.2742V19.1653H45.0535L45.0782 19.1774L44.4997 19.7463H44.4873ZM43.9581 19.2258L43.8965 19.1653H44.0196L43.9581 19.2258ZM42.161 17.0348V15.6669L42.2964 15.5337H42.4441V15.3764L42.7149 15.0979V14.9527H42.5672L42.2964 15.219L42.161 15.0858V14.6864L42.3333 14.8437H42.481V14.6985L42.2595 14.4806L42.641 14.1053L42.7026 14.1659L42.7764 14.2022L42.8503 14.1659V14.0206L42.7764 13.948V13.8148H42.641L42.4072 13.5848L42.6657 13.3306L42.7395 13.3669L42.8134 13.3427V13.1974L42.8626 13.149V12.9917H42.7149L42.6657 13.0401L42.2472 12.6285H42.6657L43.158 13.1127L43.318 12.9674L42.9734 12.6285H43.6011L43.6996 12.7132L43.3919 13.0159L43.5396 13.1611L43.8473 12.8585L44.0442 13.0522H44.1919V12.9069L43.8965 12.6164H44.3396L44.475 12.7375L44.315 12.8948V13.0401H44.4627L44.6227 12.8827L44.7704 13.028L44.8443 13.0522L44.9182 12.8706L44.7704 12.7253V12.5922H46.3213C46.3583 14.2022 46.3952 15.8 46.4075 16.9742L42.1241 17.0227L42.161 17.0348ZM44.7212 17.4342H44.7089H44.6966H44.7212ZM43.8965 17.4463L43.7981 17.5432L43.6996 17.4463H43.8842H43.8965ZM42.3456 8.41593L42.2225 8.53698V8.68224H42.3702L42.4933 8.56119L42.8749 8.93645H43.0226V8.79118L42.641 8.41593L42.8503 8.21014V8.07698C42.9118 8.07698 42.9734 8.07698 43.0349 8.07698L43.3796 8.41593L43.2688 8.52487V8.67013H43.4165L43.5273 8.56119L43.5888 8.62171H43.7365V8.47645L43.675 8.40382L43.8965 8.18593V8.06488H44.0319V8.07698L44.1919 8.23435L44.0196 8.40382V8.54908H44.1673L44.3396 8.37961L44.6227 8.65803H44.7704V8.50066L44.6843 8.41593H44.7212L44.7951 8.40382L45.0412 8.16172L45.2136 8.33119H45.3613V8.18593L45.2136 8.04067C45.5213 8.04067 45.8167 8.04067 46.1244 8.04067C46.1983 9.19065 46.2475 10.6796 46.2844 12.1806L42.1118 12.2048V11.0548L42.2102 10.958H42.2225L42.2964 11.0064L42.3702 10.9701V10.8248H42.3579L42.5918 10.5706L42.4441 10.4254L42.2102 10.6554L42.1118 10.5585V10.0017L42.3702 10.2559H42.5179V10.1106L42.1241 9.72328H42.1118V9.69907L42.3579 9.45697L42.5056 9.3117L42.6533 9.16644V9.00908H42.5056L42.3579 9.15434L42.1118 8.91224V8.23435L42.2964 8.41593H42.3456ZM42.321 8.08909C42.4441 8.08909 42.5672 8.08909 42.6903 8.08909L42.5056 8.27066L42.321 8.08909ZM43.3549 8.06488C43.478 8.06488 43.6134 8.06488 43.7365 8.06488L43.5396 8.25856L43.3549 8.06488ZM44.6966 8.39172L44.5366 8.23435H44.5489V8.06488H44.3766L44.3519 8.05277C44.5366 8.05277 44.7212 8.05277 44.9058 8.05277L44.6966 8.25856V8.39172ZM48.5492 8.1254L48.4261 8.00435C48.5123 8.00435 48.5862 8.00435 48.6723 8.00435L48.5492 8.1254ZM47.7738 8.1254L47.663 8.01646H47.8846L47.7738 8.1254ZM47.6261 8.28277V8.41593H47.7738L48.1553 8.04067L48.4754 8.3554L48.5369 8.30698H48.66L48.8693 8.10119L49.0293 8.25856L49.0539 8.23435V8.30698H49.2016L49.4355 8.07698L49.5216 8.16172H49.6693V8.01646L49.6447 7.99225C50.2109 7.99225 50.7771 7.98014 51.3556 7.96804C51.4295 9.11802 51.4787 10.6312 51.5279 12.1564L46.7645 12.1806C46.7522 11.6964 46.7398 11.2243 46.7152 10.7522L47.2076 10.268V10.1227H47.0599L46.8752 10.3043L46.7029 10.1349C46.7029 10.0501 46.7029 9.95327 46.7029 9.86854L46.8014 9.96538H46.9491V9.82012L46.6783 9.55381L46.9491 9.28749L47.1091 9.14223L47.146 9.09381V8.93645H46.9983L46.9491 8.98487L46.6414 8.68224C46.6414 8.50066 46.6168 8.31908 46.6168 8.14961L46.8137 8.34329L46.7152 8.44014V8.5854H46.8629L46.9614 8.48856L47.0968 8.62171H47.2568V8.47645L47.1214 8.34329L47.2322 8.23435V8.07698H47.0845L46.9737 8.18593L46.8137 8.02856C46.9983 8.02856 47.183 8.02856 47.3676 8.02856L47.6384 8.29487L47.6261 8.28277ZM52.3772 8.10119H52.328L52.1557 8.27066L51.848 7.96804C51.9711 7.96804 52.1065 7.96804 52.2295 7.96804L52.3772 8.1133V8.10119ZM54.519 12.8585L54.2236 12.568H54.8144L54.519 12.8585ZM53.8543 12.568L53.5712 12.8464L53.2881 12.568H53.8543ZM52.9804 12.568L53.4112 12.9917L53.2758 13.1248V13.2701H53.4235L53.5958 13.1006H53.682V13.0159L54.0389 12.6648L54.4082 13.028V13.1127H54.5067L54.6544 13.1248V13.0159L55.0113 12.6648L55.1467 12.7859L55.0606 12.8706V13.028H55.2083L55.3067 12.9311L55.4175 13.028L55.4914 12.8464L55.4421 12.798L55.6021 12.6406L55.6637 12.7011V12.8464L55.7375 12.8827L55.8114 12.8585L55.8483 12.8948H56.0083V12.7496L55.9714 12.7132L55.996 12.689V12.5559H56.316C56.3037 13.9843 56.2545 15.4248 56.1683 16.8895L52.0572 16.9379C52.0572 16.7079 52.0572 16.4779 52.0572 16.2237H52.0695L52.2295 16.369H52.3772V16.2237L52.2172 16.0664L52.7711 15.5216V15.3764H52.6111L52.4388 15.5458L52.0449 15.1464C52.0449 15.0132 52.0449 14.8801 52.0449 14.7348L52.1311 14.6501L52.488 15.0011H52.648V14.8558L52.2911 14.5048L52.7219 14.0811V13.9359H52.5865L52.4142 13.7664L52.7219 13.4638L52.8696 13.609H53.0173V13.4638L52.8696 13.3185L52.9434 13.2459V13.1006H52.7957L52.7219 13.1732L52.525 12.9796L52.845 12.6648V12.6043H53.005L52.9804 12.568ZM55.1959 12.5559H55.4052L55.2944 12.6527L55.1959 12.5559ZM52.2172 13.2217L52.3403 13.1006L52.5373 13.2943L52.2295 13.5969L51.9957 13.3669C51.9957 13.1611 51.9957 12.9553 51.9834 12.7496L52.1926 12.9553L52.0695 13.0764V13.2338H52.2295L52.2172 13.2217ZM52.0572 15.909C52.0572 15.7516 52.0572 15.5943 52.0572 15.4248L52.3034 15.6669L52.0572 15.909ZM52.0203 14.2264C52.0203 14.0448 52.0203 13.8511 52.008 13.6574L52.1434 13.7906V13.8269H52.1803L52.4019 14.0448L52.1188 14.3232L52.0203 14.2264ZM52.3403 12.798L52.1188 12.5801H52.5619L52.3403 12.798ZM50.4448 12.6406H50.334L50.0386 12.9311L49.6939 12.5801H50.3955L50.4571 12.6406H50.4448ZM49.4847 12.689L49.2262 12.9432L49.0047 12.7253L49.0293 12.7011V12.5922H49.3862L49.4847 12.689ZM51.0725 12.5801L50.8756 12.7738L50.6786 12.5801H51.0602H51.0725ZM46.7891 12.6043H47.5153L47.5891 12.6648L47.2199 13.028L46.7891 12.6043ZM46.7152 10.4375V10.4617C46.7152 10.4617 46.7152 10.4496 46.7152 10.4375ZM46.6537 8.98487L46.7891 9.11802L46.666 9.25118C46.666 9.16644 46.666 9.0696 46.6537 8.98487ZM46.8383 14.8316L46.8752 14.868L46.8383 14.9043C46.8383 14.9043 46.8383 14.8558 46.8383 14.8316ZM42.161 13.6938L42.2348 13.7301H42.2472L42.481 13.9601L42.1487 14.2869V13.7059L42.161 13.6938ZM42.2102 13.3911H42.1487V12.8464L42.5056 13.1974L42.2595 13.4395L42.2102 13.3911ZM42.2595 9.2996L42.161 9.39644V9.21486L42.2595 9.3117V9.2996ZM46.8752 16.95H46.986L46.9614 16.7806L46.9122 16.72C46.9122 16.599 47.1583 16.3811 47.306 16.26L47.4414 16.139V15.9937H47.2937L47.1707 16.1027C47.0722 16.1874 46.9614 16.2842 46.8752 16.3811C46.8752 16.2964 46.8752 16.1995 46.8752 16.1027H46.8875L46.9614 16.1511L47.0353 16.1148V15.9695L46.8629 15.8C46.8629 15.5943 46.8629 15.3885 46.8629 15.1706H46.8999L47.0476 15.0253L47.1337 15.1101H47.2814V14.9648L47.1953 14.8801L47.5891 14.4927V14.3474H47.4414L47.0476 14.7348L46.8506 14.5411C46.8506 14.2869 46.8506 14.0327 46.8383 13.7664L47.0968 14.0206L46.9983 14.1174V14.2627H47.146L47.2445 14.1659L47.3307 14.2627H47.4907V14.1053L47.3922 14.0206L47.8599 13.5606V13.4153H47.6999L47.2322 13.8753L46.9368 13.5848H46.826C46.826 13.379 46.826 13.1611 46.8137 12.9432L47.1583 13.2822L47.2568 13.379H47.4045V13.2338L47.3799 13.2095L47.7492 12.8464L48.2046 13.2943H48.3523V13.1369L47.8969 12.689H47.9092V12.6164H48.5615L48.6969 12.7375L48.4138 13.0038V13.149H48.5615L48.8323 12.8827L49.1154 13.1611V13.2095H49.2631L49.6201 12.8585L49.8663 13.0885L49.9278 13.1127L50.0386 13.2217L50.4694 12.798V12.689L50.7156 12.9311L50.6417 13.0038V13.149H50.8017L50.8756 13.0764L50.9741 13.1732H51.1218V13.028L51.0233 12.9311L51.2325 12.7253V12.5922H51.5403C51.5772 14.1901 51.6141 15.7758 51.6264 16.95L46.8629 16.9985C46.8629 16.9985 46.8629 16.9742 46.8629 16.9621L46.8752 16.95ZM56.3284 12.1322L51.9711 12.1564C51.9711 11.9143 51.9588 11.6843 51.9464 11.4422L52.0449 11.4906V11.3454L52.5865 10.8127V10.6675H52.4388L51.9464 11.1517C51.9464 11.0427 51.9464 10.9459 51.9464 10.8369H52.0941C52.1926 10.7401 52.0449 10.6191 51.9341 10.5222C51.9341 10.4254 51.9341 10.3164 51.9341 10.2196L52.0203 10.3043H52.1803V10.1591L52.0941 10.0743L52.5003 9.67486V9.5296H52.3526L51.9464 9.92906C51.9464 9.72328 51.9341 9.51749 51.9218 9.32381V9.45697H52.0818H52.1926V9.34802L52.648 8.91224V8.76697H52.5003L52.0695 9.19065L51.9095 9.03329C51.8972 8.76697 51.8849 8.52487 51.8726 8.28277L52.0572 8.46435L52.0203 8.50066L52.168 8.64592L52.2172 8.5975L52.2665 8.62171L52.3403 8.5854V8.46435L52.525 8.28277V8.23435L52.7096 8.41593H52.8573V8.25856L52.5742 7.98014C52.6603 7.98014 52.7465 7.98014 52.845 7.98014L53.1404 8.28277L52.9804 8.44014V8.5854H53.1281L53.5097 8.21014V8.06488L53.8912 8.44014H54.0389V8.29487L54.2605 8.07698L54.3713 8.18593L54.3097 8.24645V8.39172H54.4574L54.5682 8.28277H54.6421V8.21014L54.8144 8.04067V7.94383H54.839L55.0236 8.1254H55.0606V8.16172H55.2083L55.319 8.05277L55.356 8.08909L55.5037 7.94383H55.4914C55.7622 7.93172 56.0329 7.91962 56.316 7.91962C56.3653 9.2996 56.3776 10.7159 56.3653 12.1443L56.3284 12.1322ZM54.482 7.99225L54.4082 7.91962C54.4082 7.91962 54.5067 7.91962 54.5559 7.91962L54.482 7.99225ZM53.682 7.93172C53.7928 7.93172 53.9035 7.93172 54.0266 7.93172L53.8543 8.10119L53.682 7.93172ZM53.4604 8.02856H53.3127L53.2512 8.08909L53.1035 7.94383C53.1896 7.94383 53.2881 7.94383 53.3743 7.94383L53.4604 8.02856ZM49.1647 7.99225C49.1647 7.99225 49.2016 7.99225 49.2139 7.99225L49.14 8.06488L49.0662 7.99225C49.0662 7.99225 49.1277 7.99225 49.1524 7.99225H49.1647ZM42.161 18.3905L42.2841 18.5116L42.2102 18.5842V18.7295H42.3579L42.4687 18.6205H42.5426V18.5479L42.8134 18.2816L42.6657 18.1363L42.4318 18.3663L42.161 18.1V17.5553L42.7272 18.1121H42.8872V17.9669L42.3949 17.4827H42.7887V17.5311L43.3919 18.1242L43.5396 17.979L43.0349 17.4827H43.4288L43.675 17.7127L43.515 17.87L43.6627 18.0153L43.8227 17.8579L43.9581 17.9911H44.1181V17.8458L43.9827 17.7127L44.2289 17.4705H44.4012C44.4012 17.4705 44.4997 17.5795 44.5612 17.6279L44.5243 17.6642V17.8095H44.672L44.7335 17.749C44.7951 17.7853 44.8566 17.8095 44.8812 17.7732V17.6279L45.0535 17.4463H45.2751L45.4967 17.6642L45.509 17.6763L45.5828 17.749H45.7305V17.6037L45.8536 17.4827V17.4463H46.4691C46.4691 18.0758 46.4814 18.5479 46.4814 18.7416L42.1733 18.7779V18.4269L42.161 18.3905ZM41.3486 19.1774H41.8163C41.8163 19.1774 41.8902 19.2258 41.9271 19.2258C41.9641 19.2258 42.0133 19.2016 42.0502 19.1774L42.4072 19.5284H42.3456L41.9025 19.9642L41.1517 19.2258C41.1517 19.2258 41.2748 19.1895 41.3363 19.1895L41.3486 19.1774ZM40.167 20.7874C40.2654 20.521 40.3639 20.2426 40.4747 20.0005L40.7701 20.291L40.2162 20.8358L40.167 20.7874ZM40.5732 19.8068C40.6839 19.601 40.8193 19.4316 40.967 19.3226L41.3609 19.71L40.9178 20.1458L40.5732 19.8068ZM38.0376 23.741L38.296 23.9952L37.8037 24.4794C37.8037 24.2373 37.8899 23.971 38.0376 23.741ZM40.2285 24.7699C39.9331 24.8789 39.6254 24.9878 39.3177 25.0726C38.6899 25.242 38.1607 25.1815 37.9268 24.8789C37.8406 24.7699 37.8037 24.6247 37.7914 24.4915L37.9391 24.6368L38.4438 24.1405L38.493 24.1889H38.6407V24.0436L38.5915 23.9952L39.17 23.4263L39.0223 23.281L38.4438 23.8499L38.1607 23.5715C38.1607 23.5715 38.1853 23.5473 38.1976 23.5231C38.3699 23.3415 38.5545 23.1842 38.7515 23.0147C38.7761 22.9905 38.813 22.9663 38.8376 22.93L39.2438 23.3294H39.4038V23.1842L39.01 22.7968C39.2069 22.6273 39.3915 22.4579 39.5392 22.24C39.5638 22.2036 39.5885 22.1431 39.6131 22.0947L39.81 22.2884L39.3915 22.7V22.8573H39.5392L39.9577 22.4458L40.0193 22.5063H40.1793V22.361L40.1177 22.3005L40.487 21.9373V21.78H40.327L39.9577 22.1431L39.7239 21.9131H39.7116C39.81 21.7073 39.9085 21.4773 40.007 21.211H40.1424L40.2162 21.1384L40.6101 21.5258L40.7701 21.3805L40.3762 20.9931L40.9301 20.4484L41.1886 20.7026L41.3363 20.5574L41.0778 20.3031L41.5209 19.8674L41.7794 20.1216L41.4963 20.4L41.644 20.5452L42.5303 19.6737V19.6132L42.8134 19.8916H42.9611V19.7342L42.3825 19.1774H43.6134L43.8227 19.3832L43.2811 19.9158V20.061H43.4411L43.9827 19.5284L44.4258 19.9642V19.9884H44.4504H44.5981V19.9642L45.2382 19.3347L45.7921 19.8795V19.94H45.8536L45.9398 20.0247L46.0875 19.8795L46.0506 19.8432L46.6291 19.2742V19.1774L47.0599 19.6132L46.8383 19.831V19.9763H46.9983L47.2199 19.7584L47.3676 19.9037H47.5153V19.7584L47.3676 19.6132L47.6384 19.3468V19.1895H47.4907L47.2199 19.4558L46.9245 19.1653H47.9953L48.3769 19.5284L48.1553 19.7463L48.3031 19.8916L48.5738 19.6253H48.6354V19.5647L49.0293 19.1774V19.1411L56.7222 19.0805L56.6238 19.3711C56.5376 19.5526 56.316 19.6616 55.0359 20.3637C54.5682 20.6179 53.9774 20.9447 53.2019 21.3684C51.2202 22.4579 50.6171 22.4942 49.9032 22.5426C49.6816 22.5547 49.4601 22.5668 49.1893 22.6152C48.3154 22.7484 47.5276 23.16 46.7645 23.5715C45.8659 24.0436 45.0166 24.4915 44.0442 24.4915C43.7734 24.4915 43.4903 24.4431 43.2072 24.4068C42.9118 24.3584 42.5918 24.3099 42.2595 24.3099C41.5579 24.3099 40.8932 24.552 40.2531 24.782L40.2285 24.7699ZM54.7898 20.981L54.482 21.2958L54.3836 21.1989C54.5313 21.1142 54.6544 21.0537 54.7775 20.981H54.7898ZM53.2142 21.8405L53.1404 21.9131L53.1158 21.8889C53.1158 21.8889 53.1773 21.8526 53.2019 21.8405H53.2142ZM52.1434 22.3852L52.0449 22.4821L52.008 22.4458C52.008 22.4458 52.0941 22.4094 52.1434 22.3852ZM49.9894 23.4626L49.5216 23.0026C49.657 22.9905 49.7924 22.9784 49.9155 22.9663C50.1247 22.9542 50.334 22.9421 50.5679 22.9057L49.9894 23.4747V23.4626ZM47.0353 23.971H46.8999C46.9245 23.971 46.9368 23.9468 46.9614 23.9347C47.1953 23.8136 47.4291 23.6926 47.663 23.5836V23.6078L47.8846 23.8257L47.3799 24.322L47.0229 23.971H47.0353ZM45.0166 24.7699L44.6597 25.121L44.4012 24.8668C44.6104 24.8426 44.8197 24.8184 45.0166 24.7578V24.7699ZM42.1118 25.9441L42.2841 25.7747L42.6533 26.1378L42.1733 26.6099L41.5332 25.9804L41.5825 25.0726L42.1241 25.6052L41.9517 25.7747V25.9199H42.0994L42.1118 25.9441ZM41.1517 32.6019L41.3609 32.8077L41.164 33.0014C41.164 32.8683 41.1517 32.7351 41.164 32.6019H41.1517ZM41.3117 29.9267L41.4102 30.0235L41.2994 30.1325V29.9146L41.3117 29.9267ZM41.4594 27.2636L41.5209 26.2831L42.0256 26.7794L41.4963 27.2999L41.4717 27.2757L41.4594 27.2636ZM41.6071 24.8062C41.8163 24.7578 42.0379 24.7336 42.2595 24.7336C42.3579 24.7336 42.4441 24.7578 42.5426 24.7578V24.8305L42.7395 25.0241L42.2841 25.472L41.6071 24.8062ZM41.2378 31.1735L41.3732 31.3067L41.2255 31.452V31.1735H41.2378ZM56.6976 32.0572C56.6976 33.183 56.4514 33.5461 55.0359 33.643L43.4657 34.3935C42.7395 34.4419 41.9394 34.454 41.4963 33.9577C41.3363 33.7761 41.2501 33.534 41.2009 33.2798L41.5702 32.9167H41.6194V32.8682L41.841 32.6504V32.5051H41.6933L41.5209 32.6746L41.1763 32.3356C41.1763 32.3356 41.1763 32.3235 41.1763 32.3114L41.2009 31.7788L41.5209 31.4641L41.681 31.6214H41.8287V31.4762L41.6686 31.3067L41.9764 31.0041V30.8467H41.8287L41.5209 31.1493L41.2501 30.883L41.2748 30.4593L41.5579 30.1809L41.644 30.2657H41.804V30.1204L41.7179 30.0357L42.3333 29.4304V29.2851H42.1856L41.5702 29.8904L41.3363 29.6604L41.3855 28.7646V28.8009H41.4102L41.9394 29.3215H42.0994V29.1762L41.6317 28.7162L42.641 27.7236V27.5783H42.481L41.4348 28.6073H41.3732L41.4225 27.6873L41.4717 27.6388L41.804 27.9657H41.9517V27.8204L41.6194 27.4936L42.8257 26.3073L42.678 26.162L42.7887 26.0531L42.4195 25.6899L42.8749 25.242L43.7119 26.0652L43.8596 25.9199L42.9857 25.0605V24.9878H42.9118L42.7764 24.8547C42.8872 24.8668 42.9857 24.8668 43.0965 24.891C43.3919 24.9394 43.6873 24.9757 44.0319 24.9757C44.0565 24.9757 44.0935 24.9757 44.1181 24.9757V24.9999L44.475 25.351L43.7981 26.0168V26.1741H43.9458L44.6227 25.5083L45.152 26.0289H45.2997V25.8836L44.7704 25.3631L45.4228 24.7215C45.9029 24.552 46.3583 24.322 46.8137 24.0799L45.989 24.891L45.7675 24.6731H45.6197V24.8184L45.8536 25.0484L45.6813 25.2178V25.3631H45.829L46.0013 25.1936L46.2352 25.4236H46.3829V25.2783L46.149 25.0484L46.9122 24.2978L47.2076 24.5884V24.6973H47.3184L47.5522 24.9273L47.6999 24.782L47.4907 24.5763L47.9953 24.0799L48.3277 24.4068H48.4754V24.2615L48.143 23.9347L48.5862 23.4989V23.3415H48.4261L47.983 23.7773L47.7861 23.5836C48.2415 23.3778 48.7092 23.1963 49.1893 23.1236L49.8047 23.7289V23.8378H49.9401L50.0878 23.8499V23.7047L50.9002 22.9057C51.1341 22.8452 51.4049 22.7605 51.7372 22.6152L51.8357 22.7121L51.4049 23.1357L51.5526 23.281L51.9834 22.8573L52.2172 23.0873L52.3772 22.9421L52.1434 22.7121L52.5003 22.361V22.2642C52.6111 22.2036 52.7465 22.1431 52.8696 22.0705L52.9311 22.131L52.6727 22.3852V22.5305H52.8327L53.0912 22.2763L53.2142 22.3973L53.3619 22.2521L53.2389 22.131L53.522 21.8526L53.8174 22.1431H53.9774V21.9858L53.682 21.6952L53.8543 21.5258C53.9528 21.4773 54.0512 21.4168 54.1374 21.3684C54.1866 21.4168 54.2359 21.4652 54.2851 21.5137V21.671H54.4451L54.4697 21.6468C54.5313 21.6831 54.5928 21.7073 54.6174 21.671V21.5258H54.6051L54.9128 21.211L55.0852 21.3805H55.2452V21.2352L55.0729 21.0658L55.159 20.981V20.8358C55.159 20.8358 55.1836 20.8237 55.1959 20.8116C56.2053 20.2668 56.5868 20.0489 56.7838 19.8674L56.6607 32.1298L56.6976 32.0572Z" fill="white"/>
<path d="M53.8802 29.6021L53.3756 29.1838L53.9966 28.6691V28.5404H53.8413L53.2204 29.0551L52.3407 28.3259L53.311 27.5215V27.3928H53.1557L52.1855 28.1972H52.0302V28.3259L51.2799 28.9479V29.0766L51.3575 29.1088L51.4352 29.0766L52.1855 28.4546L53.0652 29.1838L52.1596 29.9346L51.7586 29.6021L52.0691 29.3447V29.216H51.9138L51.6033 29.4734L50.9048 28.8943H50.7366V29.0337L51.4352 29.6128L50.866 30.0847L49.9604 29.334H49.8052V29.4734L50.7107 30.2241L50.3744 30.503V30.6317H50.5296L50.866 30.3528L51.2799 30.696L50.4132 31.4146V31.5433H50.5684L51.4352 30.8247L52.0432 31.3288H52.2114V31.2001L51.6033 30.696L52.1725 30.2241L53.2851 31.1465H53.4403V31.0178L52.3278 30.0954L53.2333 29.3447L53.7379 29.763L53.1428 30.2563V30.385H53.298L53.8931 29.8917L54.2941 30.2241L54.4623 30.0954L54.0613 29.763L54.7857 29.1624V29.0337H54.6175L53.8931 29.6343L53.8802 29.6021ZM51.4222 30.5351L51.0083 30.192L51.5775 29.7201L51.9785 30.0525L51.4093 30.5244L51.4222 30.5351Z" fill="white"/>
<circle cx="48.5603" cy="20.3372" r="19.8372" stroke="white"/>
</svg>
