<svg width="98" height="69" viewBox="0 0 98 69" fill="none" xmlns="http://www.w3.org/2000/svg">
<path d="M26.7899 52.0848C27.1633 52.1515 27.4799 52.3481 27.7399 52.6748C27.9999 53.0015 28.1299 53.3715 28.1299 53.7848C28.1299 54.1381 28.0366 54.4581 27.8499 54.7448C27.6699 55.0248 27.4066 55.2481 27.0599 55.4148C26.7133 55.5748 26.3099 55.6548 25.8499 55.6548H23.0699V48.7048H25.7199C26.1933 48.7048 26.5999 48.7848 26.9399 48.9448C27.2799 49.1048 27.5366 49.3215 27.7099 49.5948C27.8833 49.8615 27.9699 50.1615 27.9699 50.4948C27.9699 50.8948 27.8633 51.2281 27.6499 51.4948C27.4366 51.7615 27.1499 51.9581 26.7899 52.0848ZM24.2099 51.6248H25.6199C25.9933 51.6248 26.2833 51.5415 26.4899 51.3748C26.7033 51.2015 26.8099 50.9548 26.8099 50.6348C26.8099 50.3215 26.7033 50.0781 26.4899 49.9048C26.2833 49.7248 25.9933 49.6348 25.6199 49.6348H24.2099V51.6248ZM25.7499 54.7248C26.1366 54.7248 26.4399 54.6315 26.6599 54.4448C26.8799 54.2581 26.9899 53.9981 26.9899 53.6648C26.9899 53.3248 26.8733 53.0548 26.6399 52.8548C26.4066 52.6548 26.0966 52.5548 25.7099 52.5548H24.2099V54.7248H25.7499ZM34.4188 52.7648C34.4188 52.9715 34.4054 53.1581 34.3788 53.3248H30.1688C30.2021 53.7648 30.3654 54.1181 30.6588 54.3848C30.9521 54.6515 31.3121 54.7848 31.7388 54.7848C32.3521 54.7848 32.7854 54.5281 33.0388 54.0148H34.2688C34.1021 54.5215 33.7988 54.9381 33.3588 55.2648C32.9254 55.5848 32.3854 55.7448 31.7388 55.7448C31.2121 55.7448 30.7388 55.6281 30.3188 55.3948C29.9054 55.1548 29.5788 54.8215 29.3388 54.3948C29.1054 53.9615 28.9888 53.4615 28.9888 52.8948C28.9888 52.3281 29.1021 51.8315 29.3288 51.4048C29.5621 50.9715 29.8854 50.6381 30.2988 50.4048C30.7188 50.1715 31.1988 50.0548 31.7388 50.0548C32.2588 50.0548 32.7221 50.1681 33.1288 50.3948C33.5354 50.6215 33.8521 50.9415 34.0788 51.3548C34.3054 51.7615 34.4188 52.2315 34.4188 52.7648ZM33.2288 52.4048C33.2221 51.9848 33.0721 51.6481 32.7788 51.3948C32.4854 51.1415 32.1221 51.0148 31.6888 51.0148C31.2954 51.0148 30.9588 51.1415 30.6788 51.3948C30.3988 51.6415 30.2321 51.9781 30.1788 52.4048H33.2288ZM37.6706 54.6348L39.2306 50.1448H40.4406L38.3406 55.6548H36.9806L34.8906 50.1448H36.1106L37.6706 54.6348ZM46.3524 52.7648C46.3524 52.9715 46.339 53.1581 46.3124 53.3248H42.1024C42.1357 53.7648 42.299 54.1181 42.5924 54.3848C42.8857 54.6515 43.2457 54.7848 43.6724 54.7848C44.2857 54.7848 44.719 54.5281 44.9724 54.0148H46.2024C46.0357 54.5215 45.7324 54.9381 45.2924 55.2648C44.859 55.5848 44.319 55.7448 43.6724 55.7448C43.1457 55.7448 42.6724 55.6281 42.2524 55.3948C41.839 55.1548 41.5124 54.8215 41.2724 54.3948C41.039 53.9615 40.9224 53.4615 40.9224 52.8948C40.9224 52.3281 41.0357 51.8315 41.2624 51.4048C41.4957 50.9715 41.819 50.6381 42.2324 50.4048C42.6524 50.1715 43.1324 50.0548 43.6724 50.0548C44.1924 50.0548 44.6557 50.1681 45.0624 50.3948C45.469 50.6215 45.7857 50.9415 46.0124 51.3548C46.239 51.7615 46.3524 52.2315 46.3524 52.7648ZM45.1624 52.4048C45.1557 51.9848 45.0057 51.6481 44.7124 51.3948C44.419 51.1415 44.0557 51.0148 43.6224 51.0148C43.229 51.0148 42.8924 51.1415 42.6124 51.3948C42.3324 51.6415 42.1657 51.9781 42.1124 52.4048H45.1624ZM48.6142 50.9448C48.7809 50.6648 49.0009 50.4481 49.2742 50.2948C49.5542 50.1348 49.8842 50.0548 50.2642 50.0548V51.2348H49.9742C49.5276 51.2348 49.1876 51.3481 48.9542 51.5748C48.7276 51.8015 48.6142 52.1948 48.6142 52.7548V55.6548H47.4742V50.1448H48.6142V50.9448ZM50.9321 52.8748C50.9321 52.3215 51.0455 51.8315 51.2721 51.4048C51.5055 50.9781 51.8188 50.6481 52.2121 50.4148C52.6121 50.1748 53.0521 50.0548 53.5321 50.0548C53.9655 50.0548 54.3421 50.1415 54.6621 50.3148C54.9888 50.4815 55.2488 50.6915 55.4421 50.9448V50.1448H56.5921V55.6548H55.4421V54.8348C55.2488 55.0948 54.9855 55.3115 54.6521 55.4848C54.3188 55.6581 53.9388 55.7448 53.5121 55.7448C53.0388 55.7448 52.6055 55.6248 52.2121 55.3848C51.8188 55.1381 51.5055 54.7981 51.2721 54.3648C51.0455 53.9248 50.9321 53.4281 50.9321 52.8748ZM55.4421 52.8948C55.4421 52.5148 55.3621 52.1848 55.2021 51.9048C55.0488 51.6248 54.8455 51.4115 54.5921 51.2648C54.3388 51.1181 54.0655 51.0448 53.7721 51.0448C53.4788 51.0448 53.2055 51.1181 52.9521 51.2648C52.6988 51.4048 52.4921 51.6148 52.3321 51.8948C52.1788 52.1681 52.1021 52.4948 52.1021 52.8748C52.1021 53.2548 52.1788 53.5881 52.3321 53.8748C52.4921 54.1615 52.6988 54.3815 52.9521 54.5348C53.2121 54.6815 53.4855 54.7548 53.7721 54.7548C54.0655 54.7548 54.3388 54.6815 54.5921 54.5348C54.8455 54.3881 55.0488 54.1748 55.2021 53.8948C55.3621 53.6081 55.4421 53.2748 55.4421 52.8948ZM60.3095 50.0548C60.7361 50.0548 61.1128 50.1415 61.4395 50.3148C61.7728 50.4815 62.0328 50.6915 62.2195 50.9448V50.1448H63.3695V55.7448C63.3695 56.2515 63.2628 56.7015 63.0495 57.0948C62.8361 57.4948 62.5261 57.8081 62.1195 58.0348C61.7195 58.2615 61.2395 58.3748 60.6795 58.3748C59.9328 58.3748 59.3128 58.1981 58.8195 57.8448C58.3261 57.4981 58.0461 57.0248 57.9795 56.4248H59.1095C59.1961 56.7115 59.3795 56.9415 59.6595 57.1148C59.9461 57.2948 60.2861 57.3848 60.6795 57.3848C61.1395 57.3848 61.5095 57.2448 61.7895 56.9648C62.0761 56.6848 62.2195 56.2781 62.2195 55.7448V54.8248C62.0261 55.0848 61.7628 55.3048 61.4295 55.4848C61.1028 55.6581 60.7295 55.7448 60.3095 55.7448C59.8295 55.7448 59.3895 55.6248 58.9895 55.3848C58.5961 55.1381 58.2828 54.7981 58.0495 54.3648C57.8228 53.9248 57.7095 53.4281 57.7095 52.8748C57.7095 52.3215 57.8228 51.8315 58.0495 51.4048C58.2828 50.9781 58.5961 50.6481 58.9895 50.4148C59.3895 50.1748 59.8295 50.0548 60.3095 50.0548ZM62.2195 52.8948C62.2195 52.5148 62.1395 52.1848 61.9795 51.9048C61.8261 51.6248 61.6228 51.4115 61.3695 51.2648C61.1161 51.1181 60.8428 51.0448 60.5495 51.0448C60.2561 51.0448 59.9828 51.1181 59.7295 51.2648C59.4761 51.4048 59.2695 51.6148 59.1095 51.8948C58.9561 52.1681 58.8795 52.4948 58.8795 52.8748C58.8795 53.2548 58.9561 53.5881 59.1095 53.8748C59.2695 54.1615 59.4761 54.3815 59.7295 54.5348C59.9895 54.6815 60.2628 54.7548 60.5495 54.7548C60.8428 54.7548 61.1161 54.6815 61.3695 54.5348C61.6228 54.3881 61.8261 54.1748 61.9795 53.8948C62.1395 53.6081 62.2195 53.2748 62.2195 52.8948ZM69.9168 52.7648C69.9168 52.9715 69.9035 53.1581 69.8768 53.3248H65.6668C65.7002 53.7648 65.8635 54.1181 66.1568 54.3848C66.4502 54.6515 66.8102 54.7848 67.2368 54.7848C67.8502 54.7848 68.2835 54.5281 68.5368 54.0148H69.7668C69.6002 54.5215 69.2968 54.9381 68.8568 55.2648C68.4235 55.5848 67.8835 55.7448 67.2368 55.7448C66.7102 55.7448 66.2368 55.6281 65.8168 55.3948C65.4035 55.1548 65.0768 54.8215 64.8368 54.3948C64.6035 53.9615 64.4868 53.4615 64.4868 52.8948C64.4868 52.3281 64.6002 51.8315 64.8268 51.4048C65.0602 50.9715 65.3835 50.6381 65.7968 50.4048C66.2168 50.1715 66.6968 50.0548 67.2368 50.0548C67.7568 50.0548 68.2202 50.1681 68.6268 50.3948C69.0335 50.6215 69.3502 50.9415 69.5768 51.3548C69.8035 51.7615 69.9168 52.2315 69.9168 52.7648ZM68.7268 52.4048C68.7202 51.9848 68.5702 51.6481 68.2768 51.3948C67.9835 51.1415 67.6202 51.0148 67.1868 51.0148C66.7935 51.0148 66.4568 51.1415 66.1768 51.3948C65.8968 51.6415 65.7302 51.9781 65.6768 52.4048H68.7268ZM73.0387 55.7448C72.6054 55.7448 72.2154 55.6681 71.8687 55.5148C71.5287 55.3548 71.2587 55.1415 71.0587 54.8748C70.8587 54.6015 70.752 54.2981 70.7387 53.9648H71.9187C71.9387 54.1981 72.0487 54.3948 72.2487 54.5548C72.4554 54.7081 72.712 54.7848 73.0187 54.7848C73.3387 54.7848 73.5854 54.7248 73.7587 54.6048C73.9387 54.4781 74.0287 54.3181 74.0287 54.1248C74.0287 53.9181 73.9287 53.7648 73.7287 53.6648C73.5354 53.5648 73.2254 53.4548 72.7987 53.3348C72.3854 53.2215 72.0487 53.1115 71.7887 53.0048C71.5287 52.8981 71.302 52.7348 71.1087 52.5148C70.922 52.2948 70.8287 52.0048 70.8287 51.6448C70.8287 51.3515 70.9154 51.0848 71.0887 50.8448C71.262 50.5981 71.5087 50.4048 71.8287 50.2648C72.1554 50.1248 72.5287 50.0548 72.9487 50.0548C73.5754 50.0548 74.0787 50.2148 74.4587 50.5348C74.8454 50.8481 75.052 51.2781 75.0787 51.8248H73.9387C73.9187 51.5781 73.8187 51.3815 73.6387 51.2348C73.4587 51.0881 73.2154 51.0148 72.9087 51.0148C72.6087 51.0148 72.3787 51.0715 72.2187 51.1848C72.0587 51.2981 71.9787 51.4481 71.9787 51.6348C71.9787 51.7815 72.032 51.9048 72.1387 52.0048C72.2454 52.1048 72.3754 52.1848 72.5287 52.2448C72.682 52.2981 72.9087 52.3681 73.2087 52.4548C73.6087 52.5615 73.9354 52.6715 74.1887 52.7848C74.4487 52.8915 74.672 53.0515 74.8587 53.2648C75.0454 53.4781 75.142 53.7615 75.1487 54.1148C75.1487 54.4281 75.062 54.7081 74.8887 54.9548C74.7154 55.2015 74.4687 55.3948 74.1487 55.5348C73.8354 55.6748 73.4654 55.7448 73.0387 55.7448Z" fill="white"/>
<circle cx="48.3372" cy="20.3372" r="19.8372" stroke="white"/>
<g clip-path="url(#clip0_22_676)">
<path d="M54.7595 16.0103C54.4713 15.518 54.1111 14.8936 53.4988 14.6055C53.0665 14.4014 52.5862 14.3893 52.166 14.3893L47.9516 14.3173C48.1077 13.717 48.1677 13.0926 48.2158 12.4803C48.2878 11.4837 48.3959 9.95882 49.3444 9.08232C50.5571 7.96568 52.6943 8.27786 54.2432 7.36533L54.3513 7.08918C54.1351 6.45281 53.907 5.84046 53.6789 5.16808C53.6429 5.04801 53.5108 4.97597 53.3907 5.01199C49.1403 6.34475 48.3959 6.48883 47.5914 7.18523C46.7629 7.90564 46.3187 9.09432 46.2346 10.6912C46.1746 11.9039 46.2947 13.1166 46.0065 14.2693L44.3135 14.2453C43.5811 14.2333 42.7886 14.2453 42.1643 14.7015C41.708 15.0377 40.6634 16.5386 41.1197 17.223C41.2998 17.4871 41.636 17.5351 41.9121 17.5472L43.353 32.1595C43.5571 34.1767 44.1935 34.6809 45.9945 34.765C47.5794 34.837 48.624 34.9211 49.4164 34.9211C50.401 34.9211 50.9533 34.789 51.3976 34.3448C51.9019 33.8405 52.0219 33.1321 52.094 32.3876L53.6308 17.4751C53.8109 17.4631 54.0031 17.4631 54.1832 17.4391C54.3392 17.4271 54.5794 17.4031 54.7595 17.247C55.0597 16.9948 55.0597 16.5386 54.7475 15.9863L54.7595 16.0103ZM46.7029 10.7152C46.7749 9.23841 47.1832 8.16979 47.9036 7.53343C48.6 6.92108 49.2483 6.78901 53.3067 5.52828C53.4868 6.04458 53.6669 6.56088 53.835 7.05316C52.3821 7.79758 50.317 7.54544 49.0202 8.73412C47.9276 9.74269 47.8195 11.4116 47.7475 12.4322C47.6995 13.0806 47.6394 13.693 47.4713 14.2933H46.4748C46.7509 13.1046 46.6429 11.8799 46.7029 10.7032V10.7152ZM43.8212 32.1115L42.3804 17.5592C42.3804 17.5592 42.4525 17.5592 42.4885 17.5592L43.0648 18.1355L42.8127 18.3876V18.5557H42.9808L43.2329 18.3036L43.329 18.3996L43.413 18.4357L43.4971 18.3996V18.2315L43.401 18.1355L43.8693 17.6672L44.6737 18.4717L44.3615 18.7839V18.952H44.5296L44.8418 18.6398H45.0099V18.4717L45.5382 17.9434L46.0425 18.4357L45.7904 18.6878V18.8559H45.9585L46.2106 18.6038L46.4267 18.8199H46.5948V18.6518L46.3787 18.4357L46.943 17.8713V17.7032H46.7749L46.2106 18.2676L45.7183 17.7753V17.6672C46.1986 17.6672 46.6909 17.6912 47.1712 17.6912L47.6754 18.1955L47.2432 18.6278V18.7959H47.4113L47.8435 18.3636L48.0236 18.5437H48.1917V18.3756L48.0116 18.1955L48.5279 17.6792C48.6 17.6792 48.672 17.6792 48.732 17.6792L49.0802 18.0274L48.8521 18.2556V18.4237H49.0202L49.2603 18.1835L49.6686 18.5917H49.8367V18.4237L49.4164 18.0034L49.7886 17.6312C49.9928 17.6312 50.1969 17.6312 50.401 17.6312L50.7372 17.9674L50.3049 18.3996V18.5677L50.389 18.6038L50.473 18.5677L50.9053 18.1355L51.6377 18.8679H51.8058V18.6998L51.6857 18.5797C51.6857 18.5797 51.7218 18.5797 51.7458 18.5557L52.4182 17.8833L52.6943 18.1595V18.3036H52.8384L53.0905 18.5557L52.3941 25.3636L51.8058 24.7753H51.6377V24.9434L51.8658 25.1715L51.4456 25.5797V25.7478H51.6137L52.0339 25.3396L52.3581 25.6638L52.2861 26.3242L52.226 26.2641L52.2741 26.2161V26.048H52.106L52.0579 26.096L51.8898 25.9279C51.7818 25.8199 51.6137 25.988 51.7218 26.096L51.8898 26.2641L51.1454 27.0086V27.1767H51.2055L51.7097 27.6809L51.2055 28.1732L51.1214 28.0892H50.9533V28.2573L51.0374 28.3413L50.8092 28.5695V28.7375H50.9773L51.2055 28.5094L51.6977 29.0017H51.6377L50.9893 29.6501L50.6051 29.2658H50.437V29.4339L50.8212 29.8182L50.377 30.2624V30.4305H50.5451L50.9893 29.9863L51.8058 30.7907H51.8178L51.6617 32.3036C51.6617 32.3756 51.6377 32.4477 51.6377 32.5197L51.1694 32.0514V31.8954H51.0133L50.6892 31.5712L51.5537 30.7067V30.5386H51.3856L50.5211 31.4031L49.6085 30.4905H49.4404V30.6586L50.353 31.5712L50.0408 31.8833V32.0514H50.2089L50.5211 31.7393L50.8332 32.0514L50.1489 32.7358L49.2603 31.8473L49.5725 31.5351V31.367H49.4044L49.0923 31.6792L48.6 31.1869H48.4319V31.355L48.9242 31.8473L48.3959 32.3756L47.9636 31.9434L48.1917 31.7152V31.5472H48.0236L47.7955 31.7753L47.5194 31.4991H47.3513V31.6672L47.6274 31.9434L46.931 32.6398L46.4868 32.1955H46.3187V32.3636L46.7629 32.8079L46.4507 33.1321L45.9825 32.6638V32.5917H45.9104L45.8624 32.5437H45.6943V32.7118L45.214 33.2041L45.0099 33H44.8418V33.1681L45.0459 33.3722L44.8658 33.5523L44.6137 33.3002H44.4456V33.4683L44.6977 33.7204L44.5056 33.9125C44.5056 33.9125 44.4696 33.8885 44.4576 33.8765C44.0013 33.4923 43.8933 32.8079 43.8212 32.0995V32.1115ZM45.3581 17.7753L44.8298 18.3036L44.1574 17.6432C44.5417 17.6552 44.9259 17.6552 45.3101 17.6672V17.7513L45.3461 17.7873L45.3581 17.7753ZM42.8367 17.5832C43.0888 17.5952 43.329 17.6072 43.5811 17.6192L43.2209 17.9794L42.8247 17.5832H42.8367ZM47.4833 17.7032C47.7115 17.7032 47.9276 17.7032 48.1557 17.7032L47.8195 18.0394L47.4953 17.7152L47.4833 17.7032ZM49.0202 17.6792C49.1523 17.6792 49.2844 17.6792 49.4164 17.6792L49.2123 17.8833L49.0202 17.6912V17.6792ZM53.1506 17.6792L52.8144 18.0154L52.5382 17.7393L52.6463 17.6312V17.5231C52.8264 17.5231 52.9945 17.5111 53.1746 17.4991V17.6672L53.1506 17.6792ZM53.1145 18.0514L53.0905 18.3036L52.9825 18.1955L53.1145 18.0514ZM52.3701 17.5832L52.3461 17.5592C52.3461 17.5592 52.3821 17.5592 52.4061 17.5592L52.3701 17.5952V17.5832ZM52.202 17.7513L51.5296 18.4237C51.5296 18.4237 51.5176 18.4597 51.5056 18.4837L51.0254 18.0034L51.4096 17.6192C51.6257 17.6192 51.8538 17.5952 52.07 17.5832V17.6312L52.202 17.7633V17.7513ZM50.8573 17.8233L50.6772 17.6432C50.8092 17.6432 50.9293 17.6312 51.0614 17.6192L50.8573 17.8233ZM51.7818 29.1458L51.9499 29.3139L51.8178 30.5386L51.1334 29.8542L51.7818 29.2058V29.1458ZM51.3495 28.3773L51.8418 27.8731L52.07 28.1012L51.9739 29.0017L51.3375 28.3653L51.3495 28.3773ZM52.0099 27.717L52.13 27.5969L52.106 27.813L52.0099 27.717ZM52.166 27.2487H52.142L51.8418 27.5489L51.3856 27.0926L52.0219 26.4562L52.226 26.6604L52.166 27.2487ZM48.0597 33.8044L47.6995 33.4442L48.3959 32.7478L48.7561 33.108L48.0597 33.8044ZM47.0511 33.7564L46.6188 33.3242L46.931 33.012L47.3633 33.4442L47.0391 33.7564H47.0511ZM47.0991 32.8439L47.7955 32.1475L48.2278 32.5797L47.5314 33.2761L47.0991 32.8439ZM48.5519 32.5797L49.0802 32.0514L49.4645 32.4357H49.4164L48.9121 32.9399L48.5519 32.5797ZM44.6977 34.0566L44.8538 33.9005L44.9979 34.0446H45.166V33.8765L45.0219 33.7324L45.202 33.5523L45.6223 33.9725L45.3581 34.2367C45.094 34.2007 44.8778 34.1406 44.6977 34.0446V34.0566ZM45.3701 33.3842L45.8504 32.9039L46.2706 33.3242L45.7904 33.8044L45.3701 33.3842ZM45.6583 34.2727L45.8024 34.1286L45.8984 34.2247H46.0665V34.0566L45.9705 33.9605L46.4507 33.4803L46.883 33.9125L46.6549 34.1406V34.3087H46.823L47.1111 34.0206H47.1712V33.9605L47.5434 33.5883L47.9036 33.9485L47.5674 34.2847V34.3568C47.5674 34.3568 47.5073 34.3568 47.4833 34.3568C46.6909 34.3087 46.1266 34.2967 45.6703 34.2487L45.6583 34.2727ZM47.7955 34.3928L48.9121 33.2761L49.1283 33.4923H49.2964V33.3242L49.0802 33.108L49.5845 32.6038V32.5557L49.9688 32.9399L48.72 34.1887V34.3568H48.8881L50.1368 33.108L50.485 33.4562L49.6326 34.3087V34.4528C49.1643 34.4648 48.576 34.4408 47.7955 34.3928ZM51.0734 34.0206C50.7852 34.3087 50.401 34.4168 49.7766 34.4528L50.6411 33.6243L50.9053 33.8885L50.9893 33.9245L51.0734 33.8885V33.7204L50.8212 33.4683L51.2655 33.048V32.8799H51.0974L50.6651 33.3122L50.317 32.964L51.0013 32.2796L51.5416 32.8199H51.6017C51.5296 33.3002 51.3976 33.7324 51.0974 34.0326L51.0734 34.0206ZM54.4713 16.9108C54.4113 16.9588 54.2912 16.9708 54.1591 16.9828C52.9465 17.0789 51.7097 17.1389 50.4971 17.1869C49.4885 17.223 48.4559 17.235 47.4353 17.235C46.4147 17.235 45.3101 17.211 44.2535 17.1749V17.1149H44.0854L44.0374 17.1749C44.0374 17.1749 43.9173 17.1749 43.8573 17.1749C43.317 17.1509 42.7646 17.1269 42.2243 17.0909H42.0562C41.8641 17.0909 41.576 17.0789 41.5039 16.9708C41.2638 16.6226 42.0322 15.3859 42.4404 15.0857C42.9447 14.7135 43.6411 14.7135 44.3015 14.7255L52.142 14.8576C52.5382 14.8576 52.9465 14.8696 53.2826 15.0377C53.7749 15.2658 54.0871 15.8182 54.3513 16.2624C54.4953 16.5146 54.6034 16.8147 54.4713 16.9228V16.9108Z" fill="white"/>
<path d="M44.5301 25.3517L44.8903 25.2796C44.9263 25.6639 44.9504 26.0361 44.9864 26.4203C44.7703 26.4323 44.5781 26.5043 44.6382 26.6364L44.7943 26.6965C44.8543 26.6724 44.9263 26.6604 44.9984 26.6484C45.0224 26.9846 45.0584 27.3208 45.0704 27.657L44.5781 27.705L44.4701 27.8251L44.5902 27.9332L45.0704 27.8851C45.0824 28.2333 45.0944 28.5815 45.0944 28.9417H44.8183L44.6982 29.0618L44.8183 29.1819H45.0944C45.0944 29.422 45.1185 29.6622 45.1185 29.9023L45.2385 30.0224L45.3586 29.9023C45.3586 29.6622 45.3466 29.422 45.3346 29.1819H45.6948L45.8149 29.0618L45.6948 28.9417H45.3226C45.3226 28.5455 45.3106 28.1493 45.2866 27.7531C45.2745 27.3929 45.2385 27.0326 45.2145 26.6724C45.2505 26.6724 45.2866 26.6724 45.3226 26.6845L45.4667 26.6124L45.3946 26.4683C45.3946 26.4683 45.2625 26.4323 45.1905 26.4203C45.1545 26.0241 45.1305 25.6278 45.0944 25.2316L45.2145 25.2076L45.2986 25.0755L45.1665 24.9795L45.0584 25.0035C45.0104 24.5953 44.9624 24.199 44.9023 23.7908L45.2145 23.7067L45.2986 23.5627L45.1545 23.4786L44.8663 23.5507C44.7943 23.0464 44.7102 22.5541 44.6262 22.0498C44.8183 21.9778 45.0344 21.9537 45.2385 21.9537L45.3586 21.8457L45.2505 21.7256C45.0344 21.7256 44.8063 21.7496 44.5902 21.8217C44.5301 21.4855 44.4821 21.1493 44.41 20.8131L44.278 20.717L44.1819 20.8491C44.254 21.1973 44.302 21.5575 44.362 21.9057C44.1939 21.9778 44.0378 22.0738 43.9058 22.1939V22.362H44.0619C44.1699 22.2779 44.29 22.2179 44.41 22.1579C44.4941 22.6381 44.5661 23.1184 44.6382 23.5987L44.338 23.6827L44.254 23.8268L44.362 23.9109H44.386L44.6502 23.8388C44.6982 24.2351 44.7582 24.6313 44.7943 25.0395L44.41 25.1236C44.278 25.1476 44.29 25.3517 44.4341 25.3517H44.4581H44.5301Z" fill="white"/>
<path d="M49.2488 15.2058H48.4203C48.4203 15.2058 48.4323 15.1337 48.4203 15.0857L48.2762 15.0137L48.2042 15.1578C48.2042 15.1578 48.2042 15.2058 48.2042 15.2178L46.9555 15.2418C46.9675 15.1577 46.9795 15.0617 46.9555 14.9656L46.8114 14.8816L46.7273 15.0257C46.7514 15.0977 46.7273 15.1698 46.7153 15.2418L45.5387 15.2658L45.4786 15.2178L45.4306 15.2778L44.374 15.3018L44.338 15.2058L44.1819 15.2778V15.3018L42.9692 15.3258L42.8491 15.4459L42.9692 15.566L44.0858 15.542L43.9898 15.8061L44.0618 15.9622L44.2179 15.8902L44.35 15.53L45.3465 15.5059C45.3105 15.614 45.2505 15.7101 45.1424 15.7581L45.0944 15.9142L45.2505 15.9742C45.4306 15.8902 45.5387 15.6981 45.5867 15.5059L46.5833 15.4819C46.5833 15.4819 46.5833 15.4939 46.5712 15.5059L46.5352 15.662L46.7033 15.6981C46.7874 15.638 46.8594 15.566 46.9074 15.4699L48.1682 15.4459C48.1682 15.4459 48.1441 15.4939 48.1321 15.5059C48.0121 15.602 48.1441 15.7821 48.2642 15.6981C48.3483 15.638 48.4083 15.542 48.4443 15.4459L49.2848 15.4219L49.4049 15.3018L49.2848 15.1818L49.2488 15.2058Z" fill="white"/>
</g>
<defs>
<clipPath id="clip0_22_676">
<path d="M41 5H55V27.9331C55 31.7991 51.866 34.9331 48 34.9331C44.134 34.9331 41 31.7991 41 27.9331V5Z" fill="white"/>
</clipPath>
</defs>
</svg>
