<svg width="98" height="69" viewBox="0 0 98 69" fill="none" xmlns="http://www.w3.org/2000/svg">
<path d="M25.2158 49.6248V51.6648H27.6158V52.5948H25.2158V54.7248H27.9158V55.6548H24.0758V48.6948H27.9158V49.6248H25.2158ZM28.9399 52.8748C28.9399 52.3215 29.0533 51.8315 29.2799 51.4048C29.5133 50.9781 29.8266 50.6481 30.2199 50.4148C30.6199 50.1748 31.0633 50.0548 31.5499 50.0548C31.9099 50.0548 32.2633 50.1348 32.6099 50.2948C32.9633 50.4481 33.2433 50.6548 33.4499 50.9148V48.2548H34.5999V55.6548H33.4499V54.8248C33.2633 55.0915 33.0033 55.3115 32.6699 55.4848C32.3433 55.6581 31.9666 55.7448 31.5399 55.7448C31.0599 55.7448 30.6199 55.6248 30.2199 55.3848C29.8266 55.1381 29.5133 54.7981 29.2799 54.3648C29.0533 53.9248 28.9399 53.4281 28.9399 52.8748ZM33.4499 52.8948C33.4499 52.5148 33.3699 52.1848 33.2099 51.9048C33.0566 51.6248 32.8533 51.4115 32.5999 51.2648C32.3466 51.1181 32.0733 51.0448 31.7799 51.0448C31.4866 51.0448 31.2133 51.1181 30.9599 51.2648C30.7066 51.4048 30.4999 51.6148 30.3399 51.8948C30.1866 52.1681 30.1099 52.4948 30.1099 52.8748C30.1099 53.2548 30.1866 53.5881 30.3399 53.8748C30.4999 54.1615 30.7066 54.3815 30.9599 54.5348C31.2199 54.6815 31.4933 54.7548 31.7799 54.7548C32.0733 54.7548 32.3466 54.6815 32.5999 54.5348C32.8533 54.3881 33.0566 54.1748 33.2099 53.8948C33.3699 53.6081 33.4499 53.2748 33.4499 52.8948ZM36.6773 49.4148C36.4706 49.4148 36.2973 49.3448 36.1573 49.2048C36.0173 49.0648 35.9473 48.8915 35.9473 48.6848C35.9473 48.4781 36.0173 48.3048 36.1573 48.1648C36.2973 48.0248 36.4706 47.9548 36.6773 47.9548C36.8773 47.9548 37.0473 48.0248 37.1873 48.1648C37.3273 48.3048 37.3973 48.4781 37.3973 48.6848C37.3973 48.8915 37.3273 49.0648 37.1873 49.2048C37.0473 49.3448 36.8773 49.4148 36.6773 49.4148ZM37.2373 50.1448V55.6548H36.0973V50.1448H37.2373ZM39.874 50.9648C40.0673 50.6981 40.3307 50.4815 40.664 50.3148C41.004 50.1415 41.3807 50.0548 41.794 50.0548C42.2807 50.0548 42.7207 50.1715 43.114 50.4048C43.5073 50.6381 43.8173 50.9715 44.044 51.4048C44.2707 51.8315 44.384 52.3215 44.384 52.8748C44.384 53.4281 44.2707 53.9248 44.044 54.3648C43.8173 54.7981 43.504 55.1381 43.104 55.3848C42.7107 55.6248 42.274 55.7448 41.794 55.7448C41.3673 55.7448 40.9873 55.6615 40.654 55.4948C40.3273 55.3281 40.0673 55.1148 39.874 54.8548V55.6548H38.734V48.2548H39.874V50.9648ZM43.224 52.8748C43.224 52.4948 43.144 52.1681 42.984 51.8948C42.8307 51.6148 42.624 51.4048 42.364 51.2648C42.1107 51.1181 41.8373 51.0448 41.544 51.0448C41.2573 51.0448 40.984 51.1181 40.724 51.2648C40.4707 51.4115 40.264 51.6248 40.104 51.9048C39.9507 52.1848 39.874 52.5148 39.874 52.8948C39.874 53.2748 39.9507 53.6081 40.104 53.8948C40.264 54.1748 40.4707 54.3881 40.724 54.5348C40.984 54.6815 41.2573 54.7548 41.544 54.7548C41.8373 54.7548 42.1107 54.6815 42.364 54.5348C42.624 54.3815 42.8307 54.1615 42.984 53.8748C43.144 53.5881 43.224 53.2548 43.224 52.8748ZM46.6514 48.2548V55.6548H45.5114V48.2548H46.6514ZM53.1981 52.7648C53.1981 52.9715 53.1847 53.1581 53.1581 53.3248H48.9481C48.9814 53.7648 49.1447 54.1181 49.4381 54.3848C49.7314 54.6515 50.0914 54.7848 50.5181 54.7848C51.1314 54.7848 51.5647 54.5281 51.8181 54.0148H53.0481C52.8814 54.5215 52.5781 54.9381 52.1381 55.2648C51.7047 55.5848 51.1647 55.7448 50.5181 55.7448C49.9914 55.7448 49.5181 55.6281 49.0981 55.3948C48.6847 55.1548 48.3581 54.8215 48.1181 54.3948C47.8847 53.9615 47.7681 53.4615 47.7681 52.8948C47.7681 52.3281 47.8814 51.8315 48.1081 51.4048C48.3414 50.9715 48.6647 50.6381 49.0781 50.4048C49.4981 50.1715 49.9781 50.0548 50.5181 50.0548C51.0381 50.0548 51.5014 50.1681 51.9081 50.3948C52.3147 50.6215 52.6314 50.9415 52.8581 51.3548C53.0847 51.7615 53.1981 52.2315 53.1981 52.7648ZM52.0081 52.4048C52.0014 51.9848 51.8514 51.6481 51.5581 51.3948C51.2647 51.1415 50.9014 51.0148 50.4681 51.0148C50.0747 51.0148 49.7381 51.1415 49.4581 51.3948C49.1781 51.6415 49.0114 51.9781 48.9581 52.4048H52.0081ZM60.0876 55.7248C59.4409 55.7248 58.8443 55.5748 58.2976 55.2748C57.7576 54.9681 57.3276 54.5448 57.0076 54.0048C56.6943 53.4581 56.5376 52.8448 56.5376 52.1648C56.5376 51.4848 56.6943 50.8748 57.0076 50.3348C57.3276 49.7948 57.7576 49.3748 58.2976 49.0748C58.8443 48.7681 59.4409 48.6148 60.0876 48.6148C60.7409 48.6148 61.3376 48.7681 61.8776 49.0748C62.4243 49.3748 62.8543 49.7948 63.1676 50.3348C63.4809 50.8748 63.6376 51.4848 63.6376 52.1648C63.6376 52.8448 63.4809 53.4581 63.1676 54.0048C62.8543 54.5448 62.4243 54.9681 61.8776 55.2748C61.3376 55.5748 60.7409 55.7248 60.0876 55.7248ZM60.0876 54.7348C60.5476 54.7348 60.9576 54.6315 61.3176 54.4248C61.6776 54.2115 61.9576 53.9115 62.1576 53.5248C62.3643 53.1315 62.4676 52.6781 62.4676 52.1648C62.4676 51.6515 62.3643 51.2015 62.1576 50.8148C61.9576 50.4281 61.6776 50.1315 61.3176 49.9248C60.9576 49.7181 60.5476 49.6148 60.0876 49.6148C59.6276 49.6148 59.2176 49.7181 58.8576 49.9248C58.4976 50.1315 58.2143 50.4281 58.0076 50.8148C57.8076 51.2015 57.7076 51.6515 57.7076 52.1648C57.7076 52.6781 57.8076 53.1315 58.0076 53.5248C58.2143 53.9115 58.4976 54.2115 58.8576 54.4248C59.2176 54.6315 59.6276 54.7348 60.0876 54.7348ZM65.3394 49.4148C65.1327 49.4148 64.9594 49.3448 64.8194 49.2048C64.6794 49.0648 64.6094 48.8915 64.6094 48.6848C64.6094 48.4781 64.6794 48.3048 64.8194 48.1648C64.9594 48.0248 65.1327 47.9548 65.3394 47.9548C65.5394 47.9548 65.7094 48.0248 65.8494 48.1648C65.9894 48.3048 66.0594 48.4781 66.0594 48.6848C66.0594 48.8915 65.9894 49.0648 65.8494 49.2048C65.7094 49.3448 65.5394 49.4148 65.3394 49.4148ZM65.8994 50.1448V55.6548H64.7594V50.1448H65.8994ZM68.5361 48.2548V55.6548H67.3961V48.2548H68.5361ZM72.0328 55.7448C71.5995 55.7448 71.2095 55.6681 70.8628 55.5148C70.5228 55.3548 70.2528 55.1415 70.0528 54.8748C69.8528 54.6015 69.7462 54.2981 69.7328 53.9648H70.9128C70.9328 54.1981 71.0428 54.3948 71.2428 54.5548C71.4495 54.7081 71.7062 54.7848 72.0128 54.7848C72.3328 54.7848 72.5795 54.7248 72.7528 54.6048C72.9328 54.4781 73.0228 54.3181 73.0228 54.1248C73.0228 53.9181 72.9228 53.7648 72.7228 53.6648C72.5295 53.5648 72.2195 53.4548 71.7928 53.3348C71.3795 53.2215 71.0428 53.1115 70.7828 53.0048C70.5228 52.8981 70.2962 52.7348 70.1028 52.5148C69.9162 52.2948 69.8228 52.0048 69.8228 51.6448C69.8228 51.3515 69.9095 51.0848 70.0828 50.8448C70.2562 50.5981 70.5028 50.4048 70.8228 50.2648C71.1495 50.1248 71.5228 50.0548 71.9428 50.0548C72.5695 50.0548 73.0728 50.2148 73.4528 50.5348C73.8395 50.8481 74.0462 51.2781 74.0728 51.8248H72.9328C72.9128 51.5781 72.8128 51.3815 72.6328 51.2348C72.4528 51.0881 72.2095 51.0148 71.9028 51.0148C71.6028 51.0148 71.3728 51.0715 71.2128 51.1848C71.0528 51.2981 70.9728 51.4481 70.9728 51.6348C70.9728 51.7815 71.0262 51.9048 71.1328 52.0048C71.2395 52.1048 71.3695 52.1848 71.5228 52.2448C71.6762 52.2981 71.9028 52.3681 72.2028 52.4548C72.6028 52.5615 72.9295 52.6715 73.1828 52.7848C73.4428 52.8915 73.6662 53.0515 73.8528 53.2648C74.0395 53.4781 74.1362 53.7615 74.1428 54.1148C74.1428 54.4281 74.0562 54.7081 73.8828 54.9548C73.7095 55.2015 73.4628 55.3948 73.1428 55.5348C72.8295 55.6748 72.4595 55.7448 72.0328 55.7448Z" fill="white"/>
<circle cx="48.3372" cy="20.3372" r="19.8372" stroke="white"/>
<g clip-path="url(#clip0_22_618)">
<path d="M55.5802 18.2499C55.3802 16.7999 54.4902 16.7399 53.5902 16.8099L50.0402 17.0599C49.7502 16.2599 49.4802 15.4599 49.2202 14.6499C49.3402 14.6299 49.4602 14.6199 49.5802 14.5999C49.9702 14.5299 50.3602 14.4199 50.5902 14.0999C50.8302 13.7699 50.8402 13.2799 50.5902 12.8599C50.4302 12.5699 50.1802 12.3499 49.9402 12.1499C49.9702 12.1099 50.0102 12.0799 50.0302 12.0399C50.2802 11.6299 50.3402 11.1399 50.3702 10.7199C50.4802 8.95988 49.6402 8.11988 48.2602 7.99988C47.5702 7.94988 46.8602 8.11988 46.2402 8.26988C45.5102 8.44988 44.8702 8.70988 45.0202 9.91988C45.0902 10.4999 45.4002 11.5999 45.8702 12.2299C45.5702 12.3999 45.2502 12.5899 45.0202 12.8899C44.7602 13.2299 44.6202 13.7599 44.8902 14.1899C45.1602 14.6199 45.6902 14.7099 46.1302 14.7499C46.2302 14.7499 46.3202 14.7499 46.4202 14.7599C45.5602 19.5399 43.8302 22.4799 42.5602 24.6199C42.0602 25.4699 41.6202 26.2099 41.3802 26.8499C40.8802 28.1699 40.8702 29.3999 41.3802 30.4199C41.8702 31.4199 42.8202 32.1599 44.1302 32.5599C44.9202 32.7999 46.2102 32.9299 47.5702 32.9299C49.1802 32.9299 50.8702 32.7499 51.9002 32.3599C53.3902 31.7899 54.4802 30.6399 54.7402 29.3499C54.9502 28.2999 54.6302 27.2699 54.1902 26.2899C54.2902 26.1999 54.3502 26.0599 54.2402 25.9599L54.1302 25.8999C53.9802 24.6599 54.4102 23.4699 54.8602 22.1999C55.3102 20.9199 55.7802 19.5999 55.6002 18.2299L55.5802 18.2499ZM48.9702 15.1599L48.8302 15.0199L48.9002 14.9499C48.9202 15.0199 48.9502 15.0899 48.9702 15.1599ZM48.8202 14.6999C48.8202 14.6999 48.8202 14.7299 48.8302 14.7399L48.6902 14.8799L48.5502 14.7399C48.6402 14.7399 48.7302 14.7099 48.8102 14.6999H48.8202ZM49.4502 13.0999L49.2902 12.9399L49.5102 12.7199L49.6702 12.8799L49.4502 13.0999ZM49.1502 12.7999L49.1302 12.7799C49.1302 12.7799 49.1702 12.7699 49.1902 12.7599L49.1502 12.7999ZM49.6402 12.5799L49.7302 12.4899C49.7902 12.5399 49.8502 12.5899 49.9002 12.6399L49.8002 12.7399L49.6402 12.5799ZM46.3302 8.64988C46.9502 8.49988 47.5902 8.33988 48.2202 8.38988C49.6202 8.49988 50.0602 9.37988 49.9702 10.6899C49.9402 11.0899 49.8902 11.4999 49.6902 11.8299C49.3502 12.3799 48.6502 12.5899 48.1202 12.5999H48.0402C47.5002 12.5999 46.8002 12.5099 46.4202 12.2499C45.9402 11.9199 45.5002 10.6199 45.4102 9.85988C45.3002 8.98988 45.6302 8.80988 46.3402 8.63988L46.3302 8.64988ZM47.6602 13.1599L47.8002 13.0199V12.9999C47.9002 12.9999 47.9802 12.9999 48.0402 12.9999H48.1302V13.0199L48.1902 13.0799L47.8502 13.4199V13.3599L47.6502 13.1599H47.6602ZM47.5302 13.0199L47.4802 12.9699C47.4802 12.9699 47.5402 12.9699 47.5602 12.9699L47.5202 13.0099L47.5302 13.0199ZM46.8502 12.8499C46.8502 12.8499 46.8802 12.8499 46.8902 12.8599H46.8502V12.8499ZM46.1102 12.8699L46.0102 12.7699C46.0102 12.7699 45.9202 12.6999 45.8802 12.6799C45.9702 12.6299 46.0602 12.5699 46.1502 12.5199C46.1702 12.5399 46.1902 12.5599 46.2102 12.5699C46.2502 12.5999 46.3002 12.6199 46.3402 12.6399L46.1202 12.8599L46.1102 12.8699ZM45.2202 13.9899C45.0502 13.7199 45.1602 13.3599 45.3302 13.1399C45.3702 13.0899 45.4302 13.0499 45.4802 12.9999C45.5102 13.0299 45.5702 13.0399 45.6102 12.9999C45.7902 12.8199 45.7902 12.8499 45.8702 12.9199L46.1502 13.1999H46.2902L46.2302 13.0399L46.5102 12.7599V12.8199L46.7102 13.0199L46.5302 13.1899V13.3299H46.6702L46.8402 13.1499L46.9502 13.2599C47.0402 13.3499 47.1802 13.2099 47.0902 13.1199L46.9702 12.9999V12.8999C47.0602 12.9199 47.1502 12.9399 47.2402 12.9499V13.0299L47.3802 13.1699L47.1302 13.4199C47.0402 13.5099 47.1802 13.6499 47.2702 13.5599L47.5202 13.3099L47.7202 13.5099H47.8302C47.8302 13.5899 47.9202 13.6499 47.9902 13.5799L48.3302 13.2399L48.5902 13.4999H48.7302V13.3599L48.4702 13.0999L48.6102 12.9599C48.7202 12.9399 48.8202 12.9099 48.9202 12.8699L49.0002 12.9499L48.9202 13.0299C48.8302 13.1199 48.9702 13.2599 49.0602 13.1699L49.1402 13.0899L49.3102 13.2599H49.3302C49.3102 13.3399 49.4102 13.4299 49.4902 13.3499L49.8002 13.0399L49.9102 13.1499C50.0002 13.2399 50.1402 13.0999 50.0502 13.0099L49.9502 12.8999L50.0502 12.7999C50.1302 12.8899 50.2102 12.9699 50.2702 13.0699C50.4002 13.3099 50.4602 13.6499 50.2802 13.8899C50.1202 14.0999 49.8202 14.1799 49.5102 14.2399C48.4102 14.4399 47.2902 14.4899 46.1802 14.3999C45.8302 14.3699 45.4102 14.2999 45.2302 14.0199L45.2202 13.9899ZM48.1502 14.7699L47.9802 14.9399L47.8202 14.7799C47.9302 14.7799 48.0402 14.7799 48.1502 14.7699ZM46.7702 15.0099L46.9102 15.1499L46.7002 15.3599C46.7202 15.2399 46.7502 15.1299 46.7702 15.0099ZM46.8202 14.7899C46.9602 14.7899 47.1102 14.8099 47.2502 14.8099L47.0402 15.0199L46.8202 14.7999V14.7899ZM54.3502 29.2899C54.0702 30.6699 52.8302 31.5999 51.7602 32.0099C49.9602 32.6899 45.8702 32.6999 44.2402 32.2099C43.0402 31.8499 42.1702 31.1699 41.7302 30.2699C41.2802 29.3599 41.2902 28.2299 41.7502 27.0199C41.9902 26.3999 42.4102 25.6799 42.9102 24.8499C44.1302 22.7899 45.7602 19.9899 46.6702 15.5799H46.7802L47.0502 15.3099L47.2502 15.5099H47.3902V15.3699L47.1902 15.1699L47.4902 14.8699V14.8199C47.4902 14.8199 47.5402 14.8199 47.5702 14.8199L47.8402 15.0999L47.6902 15.2499V15.3899H47.8302L47.9802 15.2399L48.0902 15.3499H48.2302V15.2099L48.1202 15.0999L48.4002 14.8199V14.8799L48.5602 15.0399L48.4002 15.1999V15.3399H48.5402L48.7002 15.1799L48.9202 15.3999H49.0502C50.1802 18.7999 51.5802 22.1299 53.2502 25.3199C53.9302 26.6199 54.6302 27.9599 54.3502 29.3099V29.2899ZM52.3402 22.5799C51.7302 21.2799 51.1702 19.9499 50.6502 18.6199C51.2002 18.4299 51.8002 18.2799 52.2602 18.5399C52.7802 18.8199 52.9302 19.4999 52.9002 19.9899C52.8802 20.3899 52.7602 20.7999 52.6302 21.2499C52.5002 21.6899 52.3802 22.1399 52.3402 22.5899V22.5799ZM53.7102 25.3399C53.6702 25.2599 53.6202 25.1699 53.5802 25.0899C53.3502 24.6499 53.1302 24.1899 52.9102 23.7399C52.9302 23.6899 52.9302 23.6299 52.9102 23.5799C52.5502 22.8999 52.7702 22.1399 53.0002 21.3399C53.1302 20.8999 53.2602 20.4399 53.2802 19.9999C53.3102 19.3999 53.1102 18.5599 52.4402 18.1899C51.8402 17.8599 51.1402 18.0299 50.5002 18.2499C50.3902 17.9799 50.2802 17.6999 50.1802 17.4299L53.6202 17.1899C54.4502 17.1299 55.0502 17.1799 55.2002 18.2999C55.3802 19.5699 54.9202 20.8499 54.4802 22.0799C54.1002 23.1399 53.7202 24.2199 53.7102 25.3399Z" fill="white"/>
<path d="M50.1801 21.07L49.9501 20.97C48.5901 21.38 47.1201 21.49 45.7201 21.28L45.5201 21.37C44.5101 23.08 43.7901 25.04 43.1901 26.75C42.8401 27.76 42.5401 28.93 43.1001 29.89C43.4101 30.43 43.9401 30.84 44.7801 31.19C45.7801 31.61 46.9001 31.83 48.0201 31.83C49.1401 31.83 50.3401 31.59 51.3701 31.14C53.8601 30.06 53.7601 28.5 52.9601 26.67C52.0901 24.68 51.0701 22.72 50.1801 21.07ZM44.9301 30.83C44.1801 30.51 43.7001 30.15 43.4401 29.7C42.9701 28.87 43.2401 27.81 43.5601 26.88C44.1401 25.23 44.8401 23.34 45.8001 21.68C47.1701 21.87 48.5901 21.76 49.9201 21.39C50.7901 23.01 51.7701 24.9 52.6101 26.83C52.6401 26.91 52.6701 26.98 52.7001 27.06H52.6401L52.1301 26.56H51.9901V26.7L52.4901 27.2L51.9201 27.77L51.8101 27.66H51.6701V27.8L51.7801 27.91L51.5001 28.19V28.33H51.6401L51.9201 28.05L52.4001 28.53L51.7001 29.23L50.9801 28.51H50.8401V28.65L51.5601 29.37L50.8801 30.05L50.5301 29.7L51.1301 29.1V28.96H50.9901L50.3901 29.56L50.0401 29.21H49.9001V29.35L50.2501 29.7L48.9801 30.97C48.8901 31.06 49.0301 31.2 49.1201 31.11L50.3901 29.84L50.7401 30.19L50.3901 30.54V30.68H50.5301L50.8801 30.33L51.3001 30.75C49.6601 31.53 47.1401 31.78 44.9101 30.85L44.9301 30.83ZM53.0301 29.07C52.8701 29.67 52.3101 30.22 51.5001 30.64L51.0301 30.17L51.7101 29.49L52.0201 29.8H52.1601V29.66L51.8601 29.36L52.5601 28.66L52.6001 28.7H52.7401V28.56L52.0901 27.91L52.6601 27.34L52.9201 27.6C53.0801 28.1 53.1801 28.59 53.0501 29.07H53.0301Z" fill="white"/>
<path d="M52.0898 29.4199C51.9998 29.5099 52.1298 29.6499 52.2298 29.5599L53.0098 28.7799V28.6399H52.8698L52.0898 29.4199Z" fill="white"/>
</g>
<defs>
<clipPath id="clip0_22_618">
<path d="M41 8H55.62V25.63C55.62 29.6672 52.3472 32.94 48.31 32.94C44.2728 32.94 41 29.6672 41 25.63V8Z" fill="white"/>
</clipPath>
</defs>
</svg>
