<?xml version="1.0" encoding="UTF-8"?>
<svg xmlns="http://www.w3.org/2000/svg" version="1.1" viewBox="0 0 100 100">
  <defs>
    <style>
      .cls-1 {
        fill: #f07426;
      }
    </style>
  </defs>
  <!-- Generator: Adobe Illustrator 28.6.0, SVG Export Plug-In . SVG Version: 1.2.0 Build 709)  -->
  <g>
    <g id="Layer_1">
      <g id="Layer_1-2" data-name="Layer_1">
        <g>
          <path class="cls-1" d="M69.7,77c0,2.8-.6,3.7-4.1,4l-28.6,1.9c-1.8,0-3.8,0-4.9-1.1-.4-.5-.6-1.1-.7-1.7l.9-.9h0c0,0,.6-.7.6-.7v-.4h-.4l-.4.4-.9-.9h0v-1.3l.9-.8.4.4h.4v-.4l-.4-.4.8-.8v-.4h-.4l-.8.8-.7-.7v-1.1l.8-.7.2.2h.4v-.4l-.2-.2,1.5-1.5v-.4h-.4l-1.5,1.5-.6-.6v-2.3h.1l1.3,1.3h.4v-.4l-1.2-1.2,2.5-2.5v-.4h-.4l-2.6,2.6h-.1v-2.3c.1,0,.3,0,.3,0l.8.8h.4v-.4l-.8-.8,3-3-.4-.4.3-.3-.9-.9,1.1-1.1,2.1,2.1.4-.4-2.2-2.2v-.2h-.2l-.3-.3h.8c.7,0,1.5.2,2.3.2h.2l.9.9-1.7,1.7v.4h.4l1.7-1.7,1.3,1.3h.4v-.4l-1.3-1.3,1.6-1.6c1.2-.4,2.3-1,3.4-1.6l-2,2-.6-.6h-.4v.4l.6.6-.4.4v.4h.4l.4-.4.6.6h.4v-.4l-.6-.6,1.9-1.9.7.7v.3h.3l.6.6.4-.4-.5-.5,1.2-1.2.8.8h.4v-.4l-.8-.8,1.1-1.1v-.4h-.4l-1.1,1.1-.5-.5c1.1-.5,2.3-1,3.5-1.2l1.5,1.5v.3h.7v-.4l2-2c.6,0,1.3-.4,2.1-.7l.2.2-1.1,1.1.4.4,1.1-1.1.6.6.4-.4-.6-.6.9-.9v-.2c.3,0,.6-.3.9-.5l.2.2-.6.6v.4h.4l.6-.6.3.3.4-.4-.3-.3.7-.7.7.7h.4v-.4l-.7-.7.4-.4c.2,0,.5-.3.7-.4l.4.4h0v.4h.8v-.4h0l.8-.8.4.4h.4v-.4l-.4-.4.2-.2v-.4h0c2.5-1.4,3.4-1.9,3.9-2.4l-.3,30.8v.6ZM31.5,74.7l.3.3-.4.4v-.7h.1ZM32.4,58.8c.5,0,1.1-.2,1.6-.2h.7v.2l.5.5-1.1,1.1-1.7-1.7h0ZM32.1,64.9v-2.5c0,0,1.4,1.2,1.4,1.2l-1.3,1.3h-.1ZM31.7,71.6l.3.3-.3.3v-.5h0ZM31.3,78.3l.5.5-.5.5v-1M33.7,61.6l.4-.4.9.9-1.2,1.2-1.6-1.6v-2.3c0,0,1.5,1.4,1.5,1.4l-.4.4v.4s.4,0,.4,0ZM40.8,58.7l-.9.9-.6-.6c.5,0,1,0,1.5-.3M45.8,56.7h-.3.2c.6-.3,1.1-.6,1.7-.9h0l.6.6-1.2,1.2-.9-.9h0ZM53.2,55.4l-1.2-1.2h1c.5,0,1,0,1.6-.2,0,0-1.4,1.4-1.4,1.4ZM58.4,52.7l-.2.2h0c0,0,.2-.2.3-.2M61.1,51.3l-.2.2h0l.2-.2M65,49.1h0l-.8.8-.3-.2c.4-.2.7-.4,1-.5M29,58.7c-.7.3-1.5.6-2.3.8-1.5.4-2.8.3-3.4-.5-.2-.3-.3-.6-.3-1l.4.4,1.2-1.2h.1c0,0,.4,0,.4,0v-.4h-.1c0,0,1.4-1.6,1.4-1.6l-.4-.4-1.4,1.4-.7-.7h0c.4-.6.9-.9,1.4-1.4,0,0,.1,0,.2-.2l1,1h.4v-.4l-1-1c.5-.4.9-.9,1.3-1.4l.2-.4.5.5-1,1v.4h.4l1-1h.1c0,0,.4,0,.4,0v-.4h-.1c0,0,.9-1.1.9-1.1v-.4h-.4l-.9.9-.6-.6h0c.3-.5.5-1.1.7-1.8h.3l.2-.2,1,1,.4-.4-1-1,1.4-1.4.6.6.4-.4-.6-.6,1.1-1.1h0l.6.6-.7.7.4.4,2.2-2.2v-.2l.7.7h.4v-.4l-1.4-1.4h3l.5.5-1.4,1.3v.4h.4l1.3-1.3,1.1,1.1h.4l1.6-1.7,1.4,1.4h0c0,0,0,0,0,0l.2.2.4-.4h0c0,0,1.4-1.5,1.4-1.5v-.2l1.1,1.1-.5.5v.4h.4l.5-.5.4.4h.4v-.4l-.4-.4.7-.7v-.4h-.4l-.7.7-.7-.7h2.6l.9.9-.5.5.4.4.7-.7h0c0,0,1-1.1,1-1.1h0l19-.2-.2.7c-.2.4-.8.7-3.9,2.5-1.1.6-2.6,1.4-4.5,2.5-4.9,2.7-6.4,2.8-8.2,2.9-.5,0-1.1,0-1.8.2-2.2.3-4.1,1.4-6,2.4-2.2,1.2-4.3,2.3-6.7,2.3s-1.4,0-2.1-.2c-.7,0-1.5-.2-2.3-.2-1.7,0-3.4.6-5,1.2M23.6,56.1l.6.6-1.2,1.2c0-.6.2-1.3.6-1.9M29.9,46.2c.3-.5.6-.9,1-1.2l1,1-1.1,1.1s-.9-.9-.9-.9ZM28.9,48.7h0c.2-.7.5-1.4.8-2l.7.7-1.4,1.4h-.1ZM31.8,44.6h1.2s.2,0,.3,0,.2,0,.3,0h0l.9.9h-.2l-1.1,1.1-1.9-1.9h.4M33.8,42.7l.3.3-.2.2v.4h.4l.3-.3h.2v-.2l.7-.7-.4-.4-.6.6-.7-.7v-1.4l1.4,1.4h.4v-.4l-1.2-1.2h1c0,0,1.5,1.6,1.5,1.6l.4-.4-1.3-1.2h1l.6.6-.4.4.4.4.4-.4.3.3h.4v-.4l-.3-.3.6-.6h.4l.4.4h0v.5h.9v-.4h0l.4-.5h.5l.5.5h0l.2.2h.4v-.4h0l.3-.3h1.5v3.3h-10.6v-.8h0ZM51.1,16.5h0l-.2.2-.2-.2h.2M61.7,16.6h-.4l-.2.2-.4-.4h.7l.2.2h.1ZM62.2,16.4h.8l-.4.4s-.4-.4-.4-.4ZM64.2,16.5l-.2-.2h.4l-.2.2ZM68.8,26.9h-10.8v-1.7h.3c0,.1,0-.2,0-.2h0l1.3-1.3v-.4h-.4l-1.2,1.2v-.8h.4c.2-.2,0-.5-.4-.8v-.8l.2.2h.4v-.4l-.2-.2,1-1v-.4h-.4l-1,1h0v-1.5h0v.3h.7v-.3l1.1-1.1v-.4h-.4l-1.1,1.1-.4-.4v-1.9l.5.5h0l.4.5h0c0-.1,0,0,0,0h.2v-.4l.5-.5h0c0-.1.5.3.5.3h.4v-.4l-.7-.7h.7l.7.7-.4.4v.4h.4l.9-.9v-.4l.9.9h.4v-.4h0l.5-.6.3.3-.2.2v.4h.4l.3-.3h.2v-.2l.4-.4v-.3h0l.5.4h.5c0,.1.3-.2.3-.2h0c0,.1.4-.3.4-.3h2c0,3.5.2,7,0,10.6M45.4,39h.3v-.6c0-.3.5-.9.9-1.1l.3-.3v-.4h-.4l-.3.3c-.2.2-.5.4-.7.7v-.7h.2c0,0,.2,0,.2,0v-.5l-.4-.4v-1.6h0l.4-.4.2.2h.4v-.4l-.2-.2,1-1v-.4h-.4l-1,1-.5-.5v-1.9l.6.6-.2.2v.4h.4l.2-.2.2.2h.4v-.4l-.2-.2,1.2-1.2v-.4h-.4l-1.2,1.2-.7-.7h-.3v-1.6l.8.8.3.3h.4v-.4h0l.9-1,1.1,1.1h.4v-.4l-1.1-1.1h0v-.2h1.6l.3.3-.7.7v.4h.4l.7-.7.7.7h0c0,.1.4.1.4.1h0l.8-.9h0l.6.6h.2l.3.3,1.1-1.1v-.3l.6.6-.2.2v.4h.4l.2-.2.2.2h.4v-.4l-.2-.2.5-.5v-.3h.8c0,4,.2,8,.2,10.9h-11.8c0,0,0,0,0,0M34,19.8l-.2.2v-.5l.2.2h0ZM33.9,30.1h0v-1.4l.9.9-.6.6h-.2ZM33.8,30.8h.2l.6.6-.8.8v-1.5h0ZM45.3,33.7h0v.2-.2M44.9,19l.3.3-.3.3v-.7M45.1,22.7h0M45.2,28.1h1.8l.2.2-.9.9-1.1-1.1ZM55.8,28l-.5.5-.5-.5h1ZM51.9,28.3h0l-.6.6-.6-.6h0v-.3h.9l.3.2h0ZM54.2,28.2h-.3l-.7.7h0l-.8-.9h1.8v.2ZM59,28.6l-.5-.5h1.1l-.5.5h0ZM58.2,32.2v-1.4l.3.3h0l.6.6-.7.7-.3-.3h.1ZM58.2,36.4v-1.2l.6.6h0s-.6.6-.6.6ZM58.6,29.7l.3-.3.5.5-.8.8-.6-.6v-1.6l.5.5-.3.3v.4s.4,0,.4,0ZM66,28h.5l-.3.3-.3-.3h.1ZM60.5,28l1.1,1.1-.3.3v.4h.4l.4-.4h.2v-.2l.9-.9.9.9v.2h.6v-.3l.9-.9.3.3-.2.2v.4h.4l.2-.2.3.3.2-.5h0c0-.1.4-.5.4-.5l.2.2v.4h.8c0,.1,0-.3,0-.3h0v-.5h.8c0,3.6-.2,7.2-.4,10.9h-10.2v-1.7h0l.4.4h.4v-.4l-.4-.4,1.4-1.4v-.4h-.4l-.4.4h0l-1-1h0v-1l.2-.2.9.9h.4v-.4l-.9-.9,1.1-1.1v-.4h-.3l-.4-.4.8-.8.4.4h.4v-.4l-.4-.4.2-.2v-.4h-.4l-.2.2-.5-.5.8-.8h0c0-.1.4-.1.4-.1h-.3ZM62.7,28l-.7.7-.7-.7h1.4ZM64.3,28.7l-.7-.7h1.5l-.7.7h-.1ZM67.5,28h0ZM59,16.8h0l-.4.4-.8-.8h.9s.4.4.4.4ZM47.3,17.2v.3h.4l.9-.9.8.8h0c0-.1.3-.1.3-.1l.5-.5.4.4h0c0,.1.4.1.4.1l.6-.6.2.2h.4v-.4h0c1.4,0,2.8,0,4.2-.1.2,2.9.3,6.7.4,10.5h-11.8c0-1.1,0-2.3,0-3.5l1.2-1.2v-.4h-.4l-.4.4-.4-.4v-.7l.3.3h.4v-.4l-.7-.7.7-.7h0l.4-.4h0v-.5h-.5c0,.1-.8-.6-.8-.6v-1.3l.5.5-.2.2v.4h.4l.2-.2.3.3h.4v-.4l-.3-.3.3-.3v-.4h-.4l-.3.3-.4-.4h1.4l.7.7h-.2ZM47.7,16.8l-.3-.3h.5l-.3.3h0ZM49.6,16.8l-.3-.3h.6l-.3.3ZM40,17.5l-.4-.4h0v-.4h-.4,1.4l-.5.5v.3h0ZM36.8,16.7h1l-.5.5-.5-.5ZM34.2,16.7h.9l-.5.5-.5-.5h0ZM34.3,17.6l-.3.3v.4h.4l.3-.3.9.9h.4v-.4l-.9-.9.5-.5v-.3h.5l.8.8-.3.3v.4h.4l.3-.3.2.2h.4v-.4l-.2-.2.6-.6v-.3h.3l.4.4-.4.4v.4h.4l.4-.4.7.7h.4v-.4l-.2-.2h.3l.6-.6.4.4h.4v-.4l-.4-.4h2.2c.2,2.9.3,6.6.4,10.4h-10.3v-2.8l.2-.2h.2c0,.1.2.1.2.1v-.5h0l.6-.6-.4-.4-.6.6-.2-.2v-1.4l.6.6h.4v-.4l-1-1h0l.6-.7h0l.4-.4h0l.4-.4v-.4h-.4l-.4.4-.6-.6v-1.7l.5.5h-.1ZM38.1,40.3l-.2.2-.2-.2h.5,0ZM40.1,40.2h0ZM33.8,39.2v-3.4l.3-.3h.4v-.4h0l.7-.7v-.4h-.4l-.7.7-.3-.3v-1l.4.4h.4v-.4l-.5-.5.9-.9v.2h.5v-.5l-.2-.2v-.3h-.3l-.6-.6.6-.6h.4v-.4h0v-.5h-.5c0,.1-1-.9-1-.9h1l1.2,1.2.4-.4-.9-.8h1.6l.2.2-.8.8.4.4.8-.8.5.5h.4v-.4l-.7-.7h1.1l.3.3-.4.4v.4h.4l.4-.4.4.4h.2l.2-.4-.4-.4h0v-.3h3.8c0,4,.2,8.1.2,11h-10.6,0ZM42.2,40.2h0ZM38.2,44.7h0c0,0,.3-.2.3-.2l-.2.2ZM39.5,46l-.9-.9.3-.3v-.3h2l-1.4,1.4h0ZM41.7,44.6h2.5l-1.3,1.3-1.3-1.3h0ZM45.5,43.5v-2.5l.8.8h.4v-.4l-1.1-1.1h1.4l1.2,1.2h.4v-.4l-.9-.9h1.4l1,1h.4v-.4l-.8-.8h.4v.2l1.2,1.2h.4v-.4l-1-1h2l1,.9h.4v-.4l-.6-.6h.6l.9.9h.4v-.4l-.5-.5h2.5v3.3h-11.8v.3ZM49.5,45.1l-.6-.6h1.1l-.6.6h0ZM58.3,43.4v-.9l.4.4h.4v-.4l-.8-.8h0v-.9l.7.7h.4v-.4l-1.1-1.1h.7l1.1,1.1h.4v-.4l-.7-.7h1.6l.9.8h.4v-.4l-.5-.5h.9l.6.6h.4v-.4l-.3-.3h1l.9.9h.4v-.4l-.5-.5h2.9c0,1.1,0,2.2-.2,3.3h-9.8l-.2.3ZM70.6,43.5h0c0,0-.3-.2-.5-.2h0c0-.2-.2-.3-.4-.3h0c.6-9.3.8-18.5.5-27.2,0-.3-.3-.5-.5-.5-6,0-12.1.2-18.1.2s-11.9.2-17.8.2-.5.2-.5.5v27.4h-.9c-2.4,0-3.3,2.8-4.1,5.3-.4,1.2-.8,2.2-1.2,2.9-.5.7-1.1,1.2-1.8,1.7-.5.4-1,.9-1.5,1.4-1.2,1.3-1.8,3.4-.7,4.8.6.7,1.5,1.1,2.7,1.1s1.2,0,1.9-.3c.8-.2,1.6-.5,2.3-.8.7-.2,1.3-.5,1.9-.7l-1.1,18.5c-.1,1.8-.1,3.6,1.1,5,1.4,1.6,3.6,1.6,5.8,1.5l28.6-1.9c4.3-.3,5.1-1.8,5.1-5l.3-33c0-.3-.2-.5-.5-.5"/>
          <polygon class="cls-1" points="55.5 53.9 55.5 54.2 56.6 55.3 57 55.3 57 54.9 55.9 53.9 55.5 53.9"/>
          <path class="cls-1" d="M56.1,72.9l-1-1,1.3-1.3,1,1-1.3,1.3ZM61.9,70.3l-1.2-1.2,1.5-1.5v-.4h-.4l-1.5,1.5-2.1-2.1,2.3-2.3v-.4h-.4l-2.3,2.3h-.4v.4l-1.8,1.8v.4h.4l1.8-1.8,2.1,2.1-2.1,2.1-1-1,.7-.7v-.4h-.4l-.7.7-1.7-1.7h-.4v.4l1.7,1.7-1.3,1.3-2.1-2.1h-.4v.4l2.1,2.1-.8.8v.4h.4l.8-.8,1,1-2,2v.4h.4l2-2,1.4,1.4h.4v-.4l-1.4-1.4,1.3-1.3,2.6,2.6h.4v-.4l-2.6-2.6,2.1-2.1,1.2,1.2-1.4,1.4v.4h.4l1.4-1.4.9.9.4-.4-.9-.9,1.7-1.7v-.4h-.4s-1.7,1.7-1.7,1.7Z"/>
        </g>
      </g>
    </g>
  </g>
</svg>