<svg width="98" height="69" viewBox="0 0 98 69" fill="none" xmlns="http://www.w3.org/2000/svg">
<path d="M7.83553 55.7248C7.36887 55.7248 6.94887 55.6448 6.57553 55.4848C6.2022 55.3181 5.90887 55.0848 5.69553 54.7848C5.4822 54.4848 5.37553 54.1348 5.37553 53.7348H6.59553C6.6222 54.0348 6.73887 54.2815 6.94553 54.4748C7.15887 54.6681 7.45553 54.7648 7.83553 54.7648C8.22887 54.7648 8.53553 54.6715 8.75553 54.4848C8.97553 54.2915 9.08553 54.0448 9.08553 53.7448C9.08553 53.5115 9.01553 53.3215 8.87553 53.1748C8.7422 53.0281 8.5722 52.9148 8.36553 52.8348C8.16553 52.7548 7.88553 52.6681 7.52553 52.5748C7.0722 52.4548 6.7022 52.3348 6.41553 52.2148C6.13553 52.0881 5.89553 51.8948 5.69553 51.6348C5.49553 51.3748 5.39553 51.0281 5.39553 50.5948C5.39553 50.1948 5.49553 49.8448 5.69553 49.5448C5.89553 49.2448 6.17553 49.0148 6.53553 48.8548C6.89553 48.6948 7.3122 48.6148 7.78553 48.6148C8.45887 48.6148 9.00887 48.7848 9.43553 49.1248C9.86887 49.4581 10.1089 49.9181 10.1555 50.5048H8.89553C8.87553 50.2515 8.75553 50.0348 8.53553 49.8548C8.31553 49.6748 8.02553 49.5848 7.66553 49.5848C7.33887 49.5848 7.0722 49.6681 6.86553 49.8348C6.65887 50.0015 6.55553 50.2415 6.55553 50.5548C6.55553 50.7681 6.61887 50.9448 6.74553 51.0848C6.87887 51.2181 7.04553 51.3248 7.24553 51.4048C7.44553 51.4848 7.71887 51.5715 8.06553 51.6648C8.52553 51.7915 8.89887 51.9181 9.18553 52.0448C9.47887 52.1715 9.72553 52.3681 9.92553 52.6348C10.1322 52.8948 10.2355 53.2448 10.2355 53.6848C10.2355 54.0381 10.1389 54.3715 9.94553 54.6848C9.75887 54.9981 9.4822 55.2515 9.11553 55.4448C8.75553 55.6315 8.32887 55.7248 7.83553 55.7248ZM14.3607 50.0548C14.794 50.0548 15.1807 50.1448 15.5207 50.3248C15.8674 50.5048 16.1374 50.7715 16.3307 51.1248C16.524 51.4781 16.6207 51.9048 16.6207 52.4048V55.6548H15.4907V52.5748C15.4907 52.0815 15.3674 51.7048 15.1207 51.4448C14.874 51.1781 14.5374 51.0448 14.1107 51.0448C13.684 51.0448 13.344 51.1781 13.0907 51.4448C12.844 51.7048 12.7207 52.0815 12.7207 52.5748V55.6548H11.5807V50.1448H12.7207V50.7748C12.9074 50.5481 13.144 50.3715 13.4307 50.2448C13.724 50.1181 14.034 50.0548 14.3607 50.0548ZM17.6948 52.8748C17.6948 52.3215 17.8082 51.8315 18.0348 51.4048C18.2682 50.9781 18.5815 50.6481 18.9748 50.4148C19.3748 50.1748 19.8148 50.0548 20.2948 50.0548C20.7282 50.0548 21.1048 50.1415 21.4248 50.3148C21.7515 50.4815 22.0115 50.6915 22.2048 50.9448V50.1448H23.3548V55.6548H22.2048V54.8348C22.0115 55.0948 21.7482 55.3115 21.4148 55.4848C21.0815 55.6581 20.7015 55.7448 20.2748 55.7448C19.8015 55.7448 19.3682 55.6248 18.9748 55.3848C18.5815 55.1381 18.2682 54.7981 18.0348 54.3648C17.8082 53.9248 17.6948 53.4281 17.6948 52.8748ZM22.2048 52.8948C22.2048 52.5148 22.1248 52.1848 21.9648 51.9048C21.8115 51.6248 21.6082 51.4115 21.3548 51.2648C21.1015 51.1181 20.8282 51.0448 20.5348 51.0448C20.2415 51.0448 19.9682 51.1181 19.7148 51.2648C19.4615 51.4048 19.2548 51.6148 19.0948 51.8948C18.9415 52.1681 18.8648 52.4948 18.8648 52.8748C18.8648 53.2548 18.9415 53.5881 19.0948 53.8748C19.2548 54.1615 19.4615 54.3815 19.7148 54.5348C19.9748 54.6815 20.2482 54.7548 20.5348 54.7548C20.8282 54.7548 21.1015 54.6815 21.3548 54.5348C21.6082 54.3881 21.8115 54.1748 21.9648 53.8948C22.1248 53.6081 22.2048 53.2748 22.2048 52.8948ZM24.4722 52.8948C24.4722 52.3281 24.5855 51.8315 24.8122 51.4048C25.0455 50.9715 25.3655 50.6381 25.7722 50.4048C26.1788 50.1715 26.6455 50.0548 27.1722 50.0548C27.8388 50.0548 28.3888 50.2148 28.8222 50.5348C29.2622 50.8481 29.5588 51.2981 29.7122 51.8848H28.4822C28.3822 51.6115 28.2222 51.3981 28.0022 51.2448C27.7822 51.0915 27.5055 51.0148 27.1722 51.0148C26.7055 51.0148 26.3322 51.1815 26.0522 51.5148C25.7788 51.8415 25.6422 52.3015 25.6422 52.8948C25.6422 53.4881 25.7788 53.9515 26.0522 54.2848C26.3322 54.6181 26.7055 54.7848 27.1722 54.7848C27.8322 54.7848 28.2688 54.4948 28.4822 53.9148H29.7122C29.5522 54.4748 29.2522 54.9215 28.8122 55.2548C28.3722 55.5815 27.8255 55.7448 27.1722 55.7448C26.6455 55.7448 26.1788 55.6281 25.7722 55.3948C25.3655 55.1548 25.0455 54.8215 24.8122 54.3948C24.5855 53.9615 24.4722 53.4615 24.4722 52.8948ZM33.0283 52.9048L35.5683 55.6548H34.0283L31.9883 53.2848V55.6548H30.8483V48.2548H31.9883V52.5548L33.9883 50.1448H35.5683L33.0283 52.9048ZM43.843 50.7748C43.843 51.1281 43.7597 51.4615 43.593 51.7748C43.4264 52.0881 43.1597 52.3448 42.793 52.5448C42.4264 52.7381 41.9564 52.8348 41.383 52.8348H40.123V55.6548H38.983V48.7048H41.383C41.9164 48.7048 42.3664 48.7981 42.733 48.9848C43.1064 49.1648 43.383 49.4115 43.563 49.7248C43.7497 50.0381 43.843 50.3881 43.843 50.7748ZM41.383 51.9048C41.8164 51.9048 42.1397 51.8081 42.353 51.6148C42.5664 51.4148 42.673 51.1348 42.673 50.7748C42.673 50.0148 42.243 49.6348 41.383 49.6348H40.123V51.9048H41.383ZM46.0703 50.9448C46.237 50.6648 46.457 50.4481 46.7303 50.2948C47.0103 50.1348 47.3403 50.0548 47.7203 50.0548V51.2348H47.4303C46.9836 51.2348 46.6436 51.3481 46.4103 51.5748C46.1836 51.8015 46.0703 52.1948 46.0703 52.7548V55.6548H44.9303V50.1448H46.0703V50.9448ZM51.1582 55.7448C50.6382 55.7448 50.1682 55.6281 49.7482 55.3948C49.3282 55.1548 48.9982 54.8215 48.7582 54.3948C48.5182 53.9615 48.3982 53.4615 48.3982 52.8948C48.3982 52.3348 48.5215 51.8381 48.7682 51.4048C49.0149 50.9715 49.3515 50.6381 49.7782 50.4048C50.2049 50.1715 50.6815 50.0548 51.2082 50.0548C51.7349 50.0548 52.2115 50.1715 52.6382 50.4048C53.0649 50.6381 53.4015 50.9715 53.6482 51.4048C53.8949 51.8381 54.0182 52.3348 54.0182 52.8948C54.0182 53.4548 53.8915 53.9515 53.6382 54.3848C53.3849 54.8181 53.0382 55.1548 52.5982 55.3948C52.1649 55.6281 51.6849 55.7448 51.1582 55.7448ZM51.1582 54.7548C51.4515 54.7548 51.7249 54.6848 51.9782 54.5448C52.2382 54.4048 52.4482 54.1948 52.6082 53.9148C52.7682 53.6348 52.8482 53.2948 52.8482 52.8948C52.8482 52.4948 52.7715 52.1581 52.6182 51.8848C52.4649 51.6048 52.2615 51.3948 52.0082 51.2548C51.7549 51.1148 51.4815 51.0448 51.1882 51.0448C50.8949 51.0448 50.6215 51.1148 50.3682 51.2548C50.1215 51.3948 49.9249 51.6048 49.7782 51.8848C49.6315 52.1581 49.5582 52.4948 49.5582 52.8948C49.5582 53.4881 49.7082 53.9481 50.0082 54.2748C50.3149 54.5948 50.6982 54.7548 51.1582 54.7548ZM54.7651 52.8948C54.7651 52.3281 54.8785 51.8315 55.1051 51.4048C55.3385 50.9715 55.6585 50.6381 56.0651 50.4048C56.4718 50.1715 56.9385 50.0548 57.4651 50.0548C58.1318 50.0548 58.6818 50.2148 59.1151 50.5348C59.5551 50.8481 59.8518 51.2981 60.0051 51.8848H58.7751C58.6751 51.6115 58.5151 51.3981 58.2951 51.2448C58.0751 51.0915 57.7985 51.0148 57.4651 51.0148C56.9985 51.0148 56.6251 51.1815 56.3451 51.5148C56.0718 51.8415 55.9351 52.3015 55.9351 52.8948C55.9351 53.4881 56.0718 53.9515 56.3451 54.2848C56.6251 54.6181 56.9985 54.7848 57.4651 54.7848C58.1251 54.7848 58.5618 54.4948 58.7751 53.9148H60.0051C59.8451 54.4748 59.5451 54.9215 59.1051 55.2548C58.6651 55.5815 58.1185 55.7448 57.4651 55.7448C56.9385 55.7448 56.4718 55.6281 56.0651 55.3948C55.6585 55.1548 55.3385 54.8215 55.1051 54.3948C54.8785 53.9615 54.7651 53.4615 54.7651 52.8948ZM66.1912 52.7648C66.1912 52.9715 66.1779 53.1581 66.1512 53.3248H61.9412C61.9746 53.7648 62.1379 54.1181 62.4312 54.3848C62.7246 54.6515 63.0846 54.7848 63.5112 54.7848C64.1246 54.7848 64.5579 54.5281 64.8112 54.0148H66.0412C65.8746 54.5215 65.5712 54.9381 65.1312 55.2648C64.6979 55.5848 64.1579 55.7448 63.5112 55.7448C62.9846 55.7448 62.5112 55.6281 62.0912 55.3948C61.6779 55.1548 61.3512 54.8215 61.1112 54.3948C60.8779 53.9615 60.7612 53.4615 60.7612 52.8948C60.7612 52.3281 60.8746 51.8315 61.1012 51.4048C61.3346 50.9715 61.6579 50.6381 62.0712 50.4048C62.4912 50.1715 62.9712 50.0548 63.5112 50.0548C64.0312 50.0548 64.4946 50.1681 64.9012 50.3948C65.3079 50.6215 65.6246 50.9415 65.8512 51.3548C66.0779 51.7615 66.1912 52.2315 66.1912 52.7648ZM65.0012 52.4048C64.9946 51.9848 64.8446 51.6481 64.5512 51.3948C64.2579 51.1415 63.8946 51.0148 63.4612 51.0148C63.0679 51.0148 62.7312 51.1415 62.4512 51.3948C62.1712 51.6415 62.0046 51.9781 61.9512 52.4048H65.0012ZM69.3131 55.7448C68.8798 55.7448 68.4898 55.6681 68.1431 55.5148C67.8031 55.3548 67.5331 55.1415 67.3331 54.8748C67.1331 54.6015 67.0264 54.2981 67.0131 53.9648H68.1931C68.2131 54.1981 68.3231 54.3948 68.5231 54.5548C68.7298 54.7081 68.9864 54.7848 69.2931 54.7848C69.6131 54.7848 69.8598 54.7248 70.0331 54.6048C70.2131 54.4781 70.3031 54.3181 70.3031 54.1248C70.3031 53.9181 70.2031 53.7648 70.0031 53.6648C69.8098 53.5648 69.4998 53.4548 69.0731 53.3348C68.6598 53.2215 68.3231 53.1115 68.0631 53.0048C67.8031 52.8981 67.5764 52.7348 67.3831 52.5148C67.1964 52.2948 67.1031 52.0048 67.1031 51.6448C67.1031 51.3515 67.1898 51.0848 67.3631 50.8448C67.5364 50.5981 67.7831 50.4048 68.1031 50.2648C68.4298 50.1248 68.8031 50.0548 69.2231 50.0548C69.8498 50.0548 70.3531 50.2148 70.7331 50.5348C71.1198 50.8481 71.3264 51.2781 71.3531 51.8248H70.2131C70.1931 51.5781 70.0931 51.3815 69.9131 51.2348C69.7331 51.0881 69.4898 51.0148 69.1831 51.0148C68.8831 51.0148 68.6531 51.0715 68.4931 51.1848C68.3331 51.2981 68.2531 51.4481 68.2531 51.6348C68.2531 51.7815 68.3064 51.9048 68.4131 52.0048C68.5198 52.1048 68.6498 52.1848 68.8031 52.2448C68.9564 52.2981 69.1831 52.3681 69.4831 52.4548C69.8831 52.5615 70.2098 52.6715 70.4631 52.7848C70.7231 52.8915 70.9464 53.0515 71.1331 53.2648C71.3198 53.4781 71.4164 53.7615 71.4231 54.1148C71.4231 54.4281 71.3364 54.7081 71.1631 54.9548C70.9898 55.2015 70.7431 55.3948 70.4231 55.5348C70.1098 55.6748 69.7398 55.7448 69.3131 55.7448ZM74.6549 55.7448C74.2216 55.7448 73.8316 55.6681 73.4849 55.5148C73.1449 55.3548 72.8749 55.1415 72.6749 54.8748C72.4749 54.6015 72.3682 54.2981 72.3549 53.9648H73.5349C73.5549 54.1981 73.6649 54.3948 73.8649 54.5548C74.0716 54.7081 74.3282 54.7848 74.6349 54.7848C74.9549 54.7848 75.2016 54.7248 75.3749 54.6048C75.5549 54.4781 75.6449 54.3181 75.6449 54.1248C75.6449 53.9181 75.5449 53.7648 75.3449 53.6648C75.1516 53.5648 74.8416 53.4548 74.4149 53.3348C74.0016 53.2215 73.6649 53.1115 73.4049 53.0048C73.1449 52.8981 72.9182 52.7348 72.7249 52.5148C72.5382 52.2948 72.4449 52.0048 72.4449 51.6448C72.4449 51.3515 72.5316 51.0848 72.7049 50.8448C72.8782 50.5981 73.1249 50.4048 73.4449 50.2648C73.7716 50.1248 74.1449 50.0548 74.5649 50.0548C75.1916 50.0548 75.6949 50.2148 76.0749 50.5348C76.4616 50.8481 76.6682 51.2781 76.6949 51.8248H75.5549C75.5349 51.5781 75.4349 51.3815 75.2549 51.2348C75.0749 51.0881 74.8316 51.0148 74.5249 51.0148C74.2249 51.0148 73.9949 51.0715 73.8349 51.1848C73.6749 51.2981 73.5949 51.4481 73.5949 51.6348C73.5949 51.7815 73.6482 51.9048 73.7549 52.0048C73.8616 52.1048 73.9916 52.1848 74.1449 52.2448C74.2982 52.2981 74.5249 52.3681 74.8249 52.4548C75.2249 52.5615 75.5516 52.6715 75.8049 52.7848C76.0649 52.8915 76.2882 53.0515 76.4749 53.2648C76.6616 53.4781 76.7582 53.7615 76.7649 54.1148C76.7649 54.4281 76.6782 54.7081 76.5049 54.9548C76.3316 55.2015 76.0849 55.3948 75.7649 55.5348C75.4516 55.6748 75.0816 55.7448 74.6549 55.7448ZM78.5767 49.4148C78.37 49.4148 78.1967 49.3448 78.0567 49.2048C77.9167 49.0648 77.8467 48.8915 77.8467 48.6848C77.8467 48.4781 77.9167 48.3048 78.0567 48.1648C78.1967 48.0248 78.37 47.9548 78.5767 47.9548C78.7767 47.9548 78.9467 48.0248 79.0867 48.1648C79.2267 48.3048 79.2967 48.4781 79.2967 48.6848C79.2967 48.8915 79.2267 49.0648 79.0867 49.2048C78.9467 49.3448 78.7767 49.4148 78.5767 49.4148ZM79.1367 50.1448V55.6548H77.9967V50.1448H79.1367ZM83.4134 50.0548C83.8468 50.0548 84.2334 50.1448 84.5734 50.3248C84.9201 50.5048 85.1901 50.7715 85.3834 51.1248C85.5768 51.4781 85.6734 51.9048 85.6734 52.4048V55.6548H84.5434V52.5748C84.5434 52.0815 84.4201 51.7048 84.1734 51.4448C83.9268 51.1781 83.5901 51.0448 83.1634 51.0448C82.7368 51.0448 82.3968 51.1781 82.1434 51.4448C81.8968 51.7048 81.7734 52.0815 81.7734 52.5748V55.6548H80.6334V50.1448H81.7734V50.7748C81.9601 50.5481 82.1968 50.3715 82.4834 50.2448C82.7768 50.1181 83.0868 50.0548 83.4134 50.0548ZM89.3476 50.0548C89.7742 50.0548 90.1509 50.1415 90.4776 50.3148C90.8109 50.4815 91.0709 50.6915 91.2576 50.9448V50.1448H92.4076V55.7448C92.4076 56.2515 92.3009 56.7015 92.0876 57.0948C91.8742 57.4948 91.5642 57.8081 91.1576 58.0348C90.7576 58.2615 90.2776 58.3748 89.7176 58.3748C88.9709 58.3748 88.3509 58.1981 87.8576 57.8448C87.3642 57.4981 87.0842 57.0248 87.0176 56.4248H88.1476C88.2342 56.7115 88.4176 56.9415 88.6976 57.1148C88.9842 57.2948 89.3242 57.3848 89.7176 57.3848C90.1776 57.3848 90.5476 57.2448 90.8276 56.9648C91.1142 56.6848 91.2576 56.2781 91.2576 55.7448V54.8248C91.0642 55.0848 90.8009 55.3048 90.4676 55.4848C90.1409 55.6581 89.7676 55.7448 89.3476 55.7448C88.8676 55.7448 88.4276 55.6248 88.0276 55.3848C87.6342 55.1381 87.3209 54.7981 87.0876 54.3648C86.8609 53.9248 86.7476 53.4281 86.7476 52.8748C86.7476 52.3215 86.8609 51.8315 87.0876 51.4048C87.3209 50.9781 87.6342 50.6481 88.0276 50.4148C88.4276 50.1748 88.8676 50.0548 89.3476 50.0548ZM91.2576 52.8948C91.2576 52.5148 91.1776 52.1848 91.0176 51.9048C90.8642 51.6248 90.6609 51.4115 90.4076 51.2648C90.1542 51.1181 89.8809 51.0448 89.5876 51.0448C89.2942 51.0448 89.0209 51.1181 88.7676 51.2648C88.5142 51.4048 88.3076 51.6148 88.1476 51.8948C87.9942 52.1681 87.9176 52.4948 87.9176 52.8748C87.9176 53.2548 87.9942 53.5881 88.1476 53.8748C88.3076 54.1615 88.5142 54.3815 88.7676 54.5348C89.0276 54.6815 89.3009 54.7548 89.5876 54.7548C89.8809 54.7548 90.1542 54.6815 90.4076 54.5348C90.6609 54.3881 90.8642 54.1748 91.0176 53.8948C91.1776 53.6081 91.2576 53.2748 91.2576 52.8948Z" fill="white"/>
<circle cx="48.3372" cy="20.3372" r="19.8372" stroke="white"/>
<g clip-path="url(#clip0_22_720)">
<path d="M50.4698 10.8L50.6198 10.85C50.7898 10.85 50.9198 10.71 50.9198 10.55C50.9198 10.39 50.7898 10.25 50.6198 10.25C50.4498 10.25 50.3198 10.38 50.3198 10.55C50.3198 10.65 50.3698 10.75 50.4598 10.8" fill="white"/>
<path d="M44.57 10.7299C44.73 10.7299 44.87 10.5999 44.87 10.4299C44.87 10.2599 44.74 10.1299 44.57 10.1299C44.4 10.1299 44.27 10.2599 44.27 10.4299C44.27 10.5999 44.4 10.7299 44.57 10.7299Z" fill="white"/>
<path d="M58.4899 21.8C58.3299 21.8 58.1899 21.93 58.1899 22.1C58.1899 22.27 58.3199 22.4 58.4899 22.4C58.6599 22.4 58.7899 22.27 58.7899 22.1C58.7899 21.93 58.6599 21.8 58.4899 21.8Z" fill="white"/>
<path d="M56.1198 21.07C56.2798 21.07 56.4198 20.94 56.4198 20.77C56.4198 20.6 56.2898 20.47 56.1198 20.47C55.9498 20.47 55.8198 20.6 55.8198 20.77C55.8198 20.94 55.9498 21.07 56.1198 21.07Z" fill="white"/>
<path d="M56.1198 22.4999C56.2798 22.4999 56.4198 22.3699 56.4198 22.1999C56.4198 22.0299 56.2898 21.8999 56.1198 21.8999C55.9498 21.8999 55.8198 22.0299 55.8198 22.1999C55.8198 22.3699 55.9498 22.4999 56.1198 22.4999Z" fill="white"/>
<path d="M42.9899 19.85C43.1499 19.85 43.2899 19.72 43.2899 19.55C43.2899 19.38 43.1599 19.25 42.9899 19.25C42.8199 19.25 42.6899 19.38 42.6899 19.55C42.6899 19.72 42.8199 19.85 42.9899 19.85Z" fill="white"/>
<path d="M42.05 21.5099C42.21 21.5099 42.35 21.3799 42.35 21.2099C42.35 21.0399 42.22 20.9099 42.05 20.9099C41.88 20.9099 41.75 21.0399 41.75 21.2099C41.75 21.3799 41.88 21.5099 42.05 21.5099Z" fill="white"/>
<path d="M43.8298 20.6399C43.9898 20.6399 44.1298 20.7699 44.1298 20.9399C44.1298 21.1099 43.9998 21.2399 43.8298 21.2399C43.6598 21.2399 43.5298 21.1099 43.5298 20.9399C43.5298 20.7699 43.6598 20.6399 43.8298 20.6399Z" fill="white"/>
<path d="M43.05 22.02C42.88 22.02 42.75 22.15 42.75 22.32C42.75 22.49 42.88 22.62 43.05 22.62C43.21 22.62 43.35 22.49 43.35 22.32C43.35 22.16 43.22 22.02 43.05 22.02Z" fill="white"/>
<path d="M46.7902 22.06C46.9502 22.06 47.0902 21.93 47.0902 21.76C47.0902 21.59 46.9602 21.46 46.7902 21.46C46.6202 21.46 46.4902 21.59 46.4902 21.76C46.4902 21.92 46.6202 22.06 46.7902 22.06Z" fill="white"/>
<path d="M49.8498 20.1801C50.0098 20.1801 50.1498 20.0501 50.1498 19.8801C50.1498 19.7101 50.0198 19.5801 49.8498 19.5801C49.6798 19.5801 49.5498 19.7101 49.5498 19.8801C49.5498 20.0501 49.6798 20.1801 49.8498 20.1801Z" fill="white"/>
<path d="M48.4001 21.0099C48.5601 21.0099 48.7001 20.8799 48.7001 20.7099C48.7001 20.5399 48.5701 20.4099 48.4001 20.4099C48.2301 20.4099 48.1001 20.5399 48.1001 20.7099C48.1001 20.8699 48.2301 21.0099 48.4001 21.0099Z" fill="white"/>
<path d="M48.2902 22.6701C48.4502 22.6701 48.5902 22.5401 48.5902 22.3701C48.5902 22.2001 48.4602 22.0701 48.2902 22.0701C48.1202 22.0701 47.9902 22.2001 47.9902 22.3701C47.9902 22.5401 48.1202 22.6701 48.2902 22.6701Z" fill="white"/>
<path d="M50.1602 22.26C50.1602 22.43 50.2902 22.56 50.4602 22.56C50.6302 22.56 50.7602 22.43 50.7602 22.26C50.7602 22.09 50.6302 21.96 50.4602 21.96C50.2902 21.96 50.1602 22.09 50.1602 22.26Z" fill="white"/>
<path d="M52.1799 18.58C52.3399 18.58 52.4799 18.45 52.4799 18.28C52.4799 18.11 52.3499 17.98 52.1799 17.98C52.0099 17.98 51.8799 18.11 51.8799 18.28C51.8799 18.44 52.0099 18.58 52.1799 18.58Z" fill="white"/>
<path d="M52.07 21.07C52.23 21.07 52.37 20.94 52.37 20.77C52.37 20.6 52.24 20.47 52.07 20.47C51.9 20.47 51.77 20.6 51.77 20.77C51.77 20.94 51.9 21.07 52.07 21.07Z" fill="white"/>
<path d="M54.6198 19.35C54.7798 19.35 54.9198 19.22 54.9198 19.05C54.9198 18.88 54.7898 18.75 54.6198 18.75C54.4498 18.75 54.3198 18.88 54.3198 19.05C54.3198 19.21 54.4498 19.35 54.6198 19.35Z" fill="white"/>
<path d="M53.7399 17.58C53.8999 17.58 54.0399 17.45 54.0399 17.28C54.0399 17.11 53.9099 16.98 53.7399 16.98C53.5699 16.98 53.4399 17.11 53.4399 17.28C53.4399 17.45 53.5699 17.58 53.7399 17.58Z" fill="white"/>
<path d="M53.07 19.85C53.23 19.85 53.37 19.72 53.37 19.55C53.37 19.38 53.24 19.25 53.07 19.25C52.9 19.25 52.77 19.38 52.77 19.55C52.77 19.72 52.9 19.85 53.07 19.85Z" fill="white"/>
<path d="M54.7902 21.9501C54.9502 21.9501 55.0902 21.8201 55.0902 21.6501C55.0902 21.4801 54.9602 21.3501 54.7902 21.3501C54.6202 21.3501 54.4902 21.4801 54.4902 21.6501C54.4902 21.8201 54.6202 21.9501 54.7902 21.9501Z" fill="white"/>
<path d="M49.9602 17.3201C50.1202 17.3201 50.2602 17.4501 50.2602 17.6201C50.2602 17.7901 50.1302 17.9201 49.9602 17.9201C49.7902 17.9201 49.6602 17.7901 49.6602 17.6201C49.6602 17.4501 49.7902 17.3201 49.9602 17.3201Z" fill="white"/>
<path d="M45.5202 17.86C45.6802 17.86 45.8202 17.73 45.8202 17.56C45.8202 17.39 45.6902 17.26 45.5202 17.26C45.3502 17.26 45.2202 17.39 45.2202 17.56C45.2202 17.73 45.3502 17.86 45.5202 17.86Z" fill="white"/>
<path d="M46.3498 18.85C46.5098 18.85 46.6498 18.72 46.6498 18.55C46.6498 18.38 46.5198 18.25 46.3498 18.25C46.1798 18.25 46.0498 18.38 46.0498 18.55C46.0498 18.72 46.1798 18.85 46.3498 18.85Z" fill="white"/>
<path d="M45.87 19.77C45.87 19.61 45.74 19.47 45.57 19.47C45.4 19.47 45.27 19.61 45.27 19.77C45.27 19.93 45.4 20.07 45.57 20.07C45.74 20.07 45.87 19.94 45.87 19.77Z" fill="white"/>
<path d="M47.7902 19.13C47.9502 19.13 48.0902 19 48.0902 18.83C48.0902 18.66 47.9602 18.53 47.7902 18.53C47.6202 18.53 47.4902 18.66 47.4902 18.83C47.4902 19 47.6202 19.13 47.7902 19.13Z" fill="white"/>
<path d="M40.1799 18.9199C40.0199 18.9199 39.8799 19.0499 39.8799 19.2199C39.8799 19.3899 40.0099 19.5199 40.1799 19.5199C40.3499 19.5199 40.4799 19.3899 40.4799 19.2199C40.4799 19.0499 40.3499 18.9199 40.1799 18.9199Z" fill="white"/>
<path d="M37.9602 20.62C38.1202 20.62 38.2602 20.49 38.2602 20.32C38.2602 20.15 38.1302 20.02 37.9602 20.02C37.7902 20.02 37.6602 20.15 37.6602 20.32C37.6602 20.49 37.7902 20.62 37.9602 20.62Z" fill="white"/>
<path d="M37.9602 22.2799C38.1202 22.2799 38.2602 22.1499 38.2602 21.9899C38.2602 21.8299 38.1302 21.6899 37.9602 21.6899C37.7902 21.6899 37.6602 21.8199 37.6602 21.9899C37.6602 22.1599 37.7902 22.2799 37.9602 22.2799Z" fill="white"/>
<path d="M39.0798 21.34C39.2398 21.34 39.3798 21.21 39.3798 21.04C39.3798 20.87 39.2498 20.74 39.0798 20.74C38.9098 20.74 38.7798 20.87 38.7798 21.04C38.7798 21.2 38.9098 21.34 39.0798 21.34Z" fill="white"/>
<path d="M38.9399 22.32C38.9399 22.48 39.0699 22.62 39.2399 22.62C39.4099 22.62 39.5399 22.49 39.5399 22.32C39.5399 22.15 39.4099 22.02 39.2399 22.02C39.0699 22.02 38.9399 22.15 38.9399 22.32Z" fill="white"/>
<path d="M41.38 16.34C41.47 16.61 41.7 16.81 41.98 16.86L42.13 16.88C42.36 16.88 42.58 16.78 42.73 16.6L46.06 12.73C46.32 12.43 46.29 11.97 45.98 11.71C45.88 11.63 45.76 11.57 45.64 11.55L40.66 10.65C40.23 10.57 39.82 10.86 39.74 11.29C39.72 11.42 39.73 11.56 39.77 11.69L41.38 16.35V16.34ZM40.35 11.29L40.51 11.22H40.55L45.53 12.12L45.64 12.28L45.61 12.35L42.28 16.22L41.99 16.24L41.93 16.15L40.32 11.49L40.36 11.29" fill="white"/>
<path d="M44.2401 12.96C44.3901 13.03 44.5601 12.96 44.6401 12.82C44.7101 12.67 44.6401 12.49 44.5001 12.42C44.3501 12.35 44.1801 12.41 44.1001 12.56V12.79L44.2401 12.96Z" fill="white"/>
<path d="M42.4598 12.52C42.6098 12.59 42.7798 12.53 42.8598 12.38C42.9298 12.23 42.8698 12.05 42.7198 11.98C42.5698 11.91 42.3998 11.97 42.3198 12.12V12.35L42.4598 12.52Z" fill="white"/>
<path d="M43.3002 14.1101C43.4502 14.1801 43.6302 14.1201 43.7002 13.9701C43.7702 13.8201 43.7102 13.6401 43.5602 13.5701C43.4102 13.5001 43.2402 13.5601 43.1602 13.7101V13.9401L43.3002 14.1101Z" fill="white"/>
<path d="M41.7702 13.95L41.8602 13.93C42.0202 13.88 42.1002 13.71 42.0402 13.55C41.9902 13.39 41.8202 13.31 41.6602 13.37C41.5102 13.42 41.4202 13.6 41.4802 13.75C41.5202 13.87 41.6402 13.95 41.7602 13.95" fill="white"/>
<path d="M41.0101 12.11L41.2401 12.13C41.4001 12.08 41.4801 11.91 41.4201 11.75C41.3701 11.59 41.2001 11.51 41.0401 11.57C40.8901 11.62 40.8001 11.79 40.8601 11.95L41.0101 12.12V12.11Z" fill="white"/>
<path d="M42.2699 15.5C42.4199 15.57 42.5999 15.51 42.6699 15.36C42.7399 15.21 42.6799 15.03 42.5299 14.96C42.3799 14.89 42.1999 14.95 42.1299 15.1V15.33L42.2699 15.5Z" fill="white"/>
<path d="M47.9198 14.7699L53.0298 14.9099H53.0498C53.4498 14.9099 53.7698 14.5899 53.7698 14.1899C53.7698 14.0699 53.7398 13.9499 53.6798 13.8399L51.2398 9.4099C51.0298 9.0299 50.5498 8.8899 50.1698 9.0999C50.0498 9.1699 49.9498 9.2599 49.8798 9.3699L47.2798 13.5599C47.0498 13.9299 47.1698 14.4199 47.5398 14.6499C47.6598 14.7199 47.7998 14.7699 47.9398 14.7699M47.7698 13.8699L50.3698 9.6799L50.5498 9.5799L50.7298 9.6899L53.1798 14.1199V14.2599L53.0498 14.3299L47.9398 14.1899C47.8298 14.1899 47.7298 14.0899 47.7398 13.9799L47.7698 13.8699Z" fill="white"/>
<path d="M51.84 13.84L52 13.88C52.16 13.88 52.3 13.75 52.3 13.58C52.3 13.42 52.17 13.28 52.01 13.28C51.84 13.28 51.71 13.41 51.71 13.58C51.71 13.68 51.76 13.78 51.85 13.83" fill="white"/>
<path d="M51.0599 12.1801L51.2199 12.2201C51.3799 12.2201 51.5199 12.0901 51.5199 11.9201C51.5199 11.7501 51.3899 11.6201 51.2199 11.6201C51.0499 11.6201 50.9199 11.7501 50.9199 11.9201C50.9199 12.0201 50.9699 12.1201 51.0599 12.1701" fill="white"/>
<path d="M50.3602 13.8299L50.5202 13.8799H50.5902L50.7802 13.7399C50.8702 13.5999 50.8202 13.4199 50.6802 13.3299C50.5402 13.2399 50.3602 13.2899 50.2702 13.4299C50.1802 13.5699 50.2202 13.7499 50.3602 13.8399" fill="white"/>
<path d="M49.4598 12.4299C49.5998 12.5199 49.7898 12.4799 49.8798 12.3399C49.9698 12.1999 49.9298 12.0099 49.7898 11.9199C49.6498 11.8299 49.4598 11.8699 49.3698 12.0099C49.2798 12.1499 49.3198 12.3399 49.4598 12.4299Z" fill="white"/>
<path d="M48.6301 13.9101L48.8601 13.9501L49.0401 13.8201C49.1301 13.6801 49.0901 13.5001 48.9401 13.4101C48.8001 13.3201 48.6201 13.3601 48.5301 13.5001C48.4401 13.6401 48.4901 13.8201 48.6301 13.9101Z" fill="white"/>
<path d="M46.0202 14.9399L45.8102 15.0899C45.6802 15.1799 45.6502 15.3599 45.7402 15.4999C45.8302 15.6299 46.0102 15.6599 46.1402 15.5699L46.3502 15.4199C46.4802 15.3299 46.5102 15.1399 46.4202 15.0199C46.3202 14.8899 46.1402 14.8599 46.0102 14.9499" fill="white"/>
<path d="M37.72 13.03L37.93 13.19C38.06 13.29 38.24 13.27 38.34 13.14C38.44 13.01 38.42 12.83 38.29 12.73L38.09 12.57C37.96 12.47 37.78 12.5 37.68 12.63C37.59 12.75 37.61 12.93 37.73 13.03" fill="white"/>
<path d="M53.4898 11.82C53.6298 11.9 53.8098 11.84 53.8798 11.7L53.9998 11.47C54.0798 11.33 54.0198 11.15 53.8798 11.07C53.7398 11 53.5598 11.05 53.4898 11.19L53.3698 11.42C53.2898 11.56 53.3498 11.74 53.4898 11.81" fill="white"/>
<path d="M50.9199 15.6601C50.9199 15.8301 51.0499 15.9601 51.2199 15.9601C51.3899 15.9601 51.5199 15.8301 51.5199 15.6601C51.5199 15.4901 51.3899 15.3701 51.2199 15.3701C51.0499 15.3701 50.9199 15.5001 50.9199 15.6601Z" fill="white"/>
<path d="M59.8698 22.9299L59.7298 21.4199C59.6798 20.9099 59.2298 20.5399 58.7198 20.5899L58.5798 20.6099L58.5298 20.6299L57.4898 21.1099V19.5399C57.4898 19.2399 57.2498 18.9999 56.9398 18.9999C56.8498 18.9999 56.7598 19.0199 56.6798 19.0699L55.9698 19.4699L55.1598 16.7199C54.9398 15.9799 54.1598 15.5599 53.4198 15.7799C53.1798 15.8499 52.9698 15.9799 52.7998 16.1599L51.6298 17.3999L50.2898 16.3599C49.8898 16.0599 49.3198 16.1399 49.0198 16.5399L48.9398 16.6599L48.9198 16.7099L48.5898 17.7899L45.7198 16.1899C45.2698 15.9399 44.6998 16.0999 44.4498 16.5499C44.3698 16.6899 44.3298 16.8499 44.3298 16.9999V18.9999L44.2298 18.8299C43.8398 18.1599 42.9798 17.9399 42.3198 18.3299C42.1098 18.4499 41.9298 18.6299 41.8098 18.8499L41.7498 18.9499L40.5698 18.0799C40.1698 17.7799 39.5998 17.8599 39.2998 18.2699L39.2198 18.3899L39.1998 18.4399L38.8898 19.4599L37.9498 19.0199L37.8998 18.9999C37.4098 18.8799 36.9198 19.1699 36.7898 19.6499L36.7698 19.7899L36.4698 22.9699C36.2698 23.0699 36.0998 23.2599 36.0398 23.5899L36.0098 24.0799C36.0098 25.0599 36.3398 26.0099 36.9998 26.8999C37.6198 27.7399 38.5098 28.4999 39.6298 29.1399C40.7598 29.7799 42.0698 30.2899 43.4898 30.6299V31.8999C43.4898 32.0599 43.6198 32.1899 43.7798 32.1899H52.5698C52.7298 32.1899 52.8598 32.0599 52.8598 31.8999V30.6299C54.2798 30.2899 55.5898 29.7799 56.7198 29.1399C57.8498 28.4999 58.7298 27.7399 59.3498 26.8999C60.0098 26.0099 60.3398 25.0599 60.3398 24.0799C60.3398 23.8999 60.3398 23.7199 60.2998 23.5399C60.2598 23.2899 60.0998 23.0699 59.8698 22.9599M57.4798 21.7099L57.4998 21.7399L58.7398 21.1599C58.9198 21.1199 59.0998 21.2399 59.1398 21.4299V21.4599L59.2698 22.7999H59.1598H57.4798V21.6999V21.7099ZM56.8998 19.5999V22.8099H55.1598L52.9698 21.8799L53.1898 21.6699L56.8998 19.5999ZM53.6798 22.8099H49.5098L49.4498 22.3399C49.4098 22.0499 49.5298 21.7599 49.7598 21.5899C49.9898 21.4099 50.3098 21.3699 50.5798 21.4899L53.6898 22.8099H53.6798ZM53.2298 16.5499C53.5398 16.2199 54.0498 16.2099 54.3798 16.5099C54.4898 16.6099 54.5598 16.7299 54.5998 16.8699L55.4498 19.7399L52.9098 21.1599C52.7098 21.2799 52.5498 21.4399 52.4298 21.6399L51.4098 21.1999L51.3298 19.5599C51.3198 19.2999 51.2298 19.0399 51.0798 18.8199L53.2298 16.5399V16.5499ZM49.4698 16.8999C49.5698 16.7499 49.7698 16.6999 49.9198 16.7999H49.9398L51.2398 17.8199L50.6598 18.4399L50.5798 18.3999C50.1998 18.2099 49.7598 18.1899 49.3698 18.3699C49.2998 18.2699 49.2098 18.1799 49.1098 18.0999L49.4698 16.9099V16.8999ZM49.4898 18.9599C49.8698 18.7099 50.3698 18.8199 50.6198 19.1899C50.6998 19.3099 50.7398 19.4499 50.7498 19.5899L50.8198 20.9599H50.8098C50.0998 20.6499 49.2798 20.9799 48.9798 21.6899C48.8798 21.9199 48.8498 22.1699 48.8798 22.4199L48.9298 22.8199H46.5698L45.7498 21.4099L49.4998 18.9599H49.4898ZM44.9098 16.9899C44.9098 16.8699 44.9698 16.7499 45.0798 16.6899C45.1898 16.6299 45.3198 16.6199 45.4298 16.6899L48.6198 18.4699C48.7098 18.5199 48.7898 18.5899 48.8598 18.6699L45.4398 20.8999L44.9098 19.9899V16.9899ZM42.3098 19.1199C42.5298 18.7299 43.0298 18.5899 43.4198 18.8099C43.5498 18.8799 43.6498 18.9799 43.7198 19.1099L45.4698 22.0999C45.3498 21.9899 45.1598 21.9899 45.0498 22.1099C44.9398 22.2299 44.9398 22.4199 45.0598 22.5299C45.1798 22.6399 45.3698 22.6399 45.4798 22.5199C45.5498 22.4499 45.5798 22.3399 45.5498 22.2399L45.8798 22.7999H40.2298L40.5298 22.2699V22.3099C40.5298 22.4799 40.6598 22.6099 40.8198 22.6099C40.9798 22.6099 41.1198 22.4799 41.1198 22.3099C41.1198 22.1399 40.9898 22.0099 40.8198 22.0099L40.6298 22.0799L42.2998 19.1099L42.3098 19.1199ZM39.7498 18.6199C39.8498 18.4699 40.0498 18.4199 40.1998 18.5099H40.2198L41.4498 19.4399L40.9298 20.3699L39.4198 19.6699L39.7498 18.6099V18.6199ZM37.3398 19.8199C37.3398 19.7199 37.3998 19.6399 37.4798 19.5899L37.7298 19.5399L40.6498 20.8899L39.5698 22.8099H37.0598L37.3398 19.8199ZM52.2698 31.5699H44.0598V30.7199C46.7698 31.2599 49.5598 31.2599 52.2698 30.7199V31.5699ZM56.4298 28.5999C54.2298 29.8599 51.2998 30.5499 48.1698 30.5499C45.0398 30.5499 42.1198 29.8599 39.9098 28.5999C38.1998 27.6199 37.0898 26.3899 36.7198 25.0699H59.6098C59.2398 26.3899 58.1398 27.6199 56.4198 28.5999M59.7298 24.4899H36.6098C36.5898 24.3399 36.5798 24.1999 36.5798 24.0499L36.5998 23.6699C36.6298 23.4999 36.6798 23.3899 37.1698 23.3899H59.1598C59.6898 23.3899 59.7098 23.5099 59.7298 23.5999C59.7498 23.7499 59.7598 23.8899 59.7598 24.0399C59.7598 24.1899 59.7598 24.3299 59.7298 24.4799" fill="white"/>
<path d="M41.9099 28.35C43.1699 28.98 44.5499 29.33 45.9599 29.36C46.1199 29.36 46.2499 29.23 46.2499 29.07C46.2499 28.91 46.1199 28.78 45.9599 28.78C44.6399 28.75 43.3399 28.43 42.1599 27.83C42.0199 27.76 41.8399 27.81 41.7699 27.96C41.6999 28.1 41.7499 28.28 41.8999 28.35H41.9099Z" fill="white"/>
<path d="M40.5098 27.49C40.6398 27.58 40.7698 27.67 40.8998 27.76C41.0298 27.85 41.2098 27.81 41.2998 27.68C41.3898 27.55 41.3498 27.37 41.2198 27.28C41.0998 27.2 40.9798 27.11 40.8598 27.02C40.7298 26.93 40.5498 26.96 40.4498 27.09C40.3598 27.22 40.3898 27.4 40.5098 27.49Z" fill="white"/>
</g>
<defs>
<clipPath id="clip0_22_720">
<path d="M36 9H60.34V19.98C60.34 26.7013 54.8913 32.15 48.17 32.15C41.4487 32.15 36 26.7013 36 19.98V9Z" fill="white"/>
</clipPath>
</defs>
</svg>
