<svg width="98" height="69" viewBox="0 0 98 69" fill="none" xmlns="http://www.w3.org/2000/svg">
<path d="M16.1321 48.7048V55.6548H14.9921V50.8948L12.8721 55.6548H12.0821L9.95213 50.8948V55.6548H8.81213V48.7048H10.0421L12.4821 54.1548L14.9121 48.7048H16.1321ZM17.2505 52.8748C17.2505 52.3215 17.3638 51.8315 17.5905 51.4048C17.8238 50.9781 18.1372 50.6481 18.5305 50.4148C18.9305 50.1748 19.3705 50.0548 19.8505 50.0548C20.2838 50.0548 20.6605 50.1415 20.9805 50.3148C21.3072 50.4815 21.5672 50.6915 21.7605 50.9448V50.1448H22.9105V55.6548H21.7605V54.8348C21.5672 55.0948 21.3038 55.3115 20.9705 55.4848C20.6372 55.6581 20.2572 55.7448 19.8305 55.7448C19.3572 55.7448 18.9238 55.6248 18.5305 55.3848C18.1372 55.1381 17.8238 54.7981 17.5905 54.3648C17.3638 53.9248 17.2505 53.4281 17.2505 52.8748ZM21.7605 52.8948C21.7605 52.5148 21.6805 52.1848 21.5205 51.9048C21.3672 51.6248 21.1638 51.4115 20.9105 51.2648C20.6572 51.1181 20.3838 51.0448 20.0905 51.0448C19.7972 51.0448 19.5238 51.1181 19.2705 51.2648C19.0172 51.4048 18.8105 51.6148 18.6505 51.8948C18.4972 52.1681 18.4205 52.4948 18.4205 52.8748C18.4205 53.2548 18.4972 53.5881 18.6505 53.8748C18.8105 54.1615 19.0172 54.3815 19.2705 54.5348C19.5305 54.6815 19.8038 54.7548 20.0905 54.7548C20.3838 54.7548 20.6572 54.6815 20.9105 54.5348C21.1638 54.3881 21.3672 54.1748 21.5205 53.8948C21.6805 53.6081 21.7605 53.2748 21.7605 52.8948ZM25.5478 50.9448C25.7145 50.6648 25.9345 50.4481 26.2078 50.2948C26.4878 50.1348 26.8178 50.0548 27.1978 50.0548V51.2348H26.9078C26.4612 51.2348 26.1212 51.3481 25.8878 51.5748C25.6612 51.8015 25.5478 52.1948 25.5478 52.7548V55.6548H24.4078V50.1448H25.5478V50.9448ZM28.8257 49.4148C28.6191 49.4148 28.4457 49.3448 28.3057 49.2048C28.1657 49.0648 28.0957 48.8915 28.0957 48.6848C28.0957 48.4781 28.1657 48.3048 28.3057 48.1648C28.4457 48.0248 28.6191 47.9548 28.8257 47.9548C29.0257 47.9548 29.1957 48.0248 29.3357 48.1648C29.4757 48.3048 29.5457 48.4781 29.5457 48.6848C29.5457 48.8915 29.4757 49.0648 29.3357 49.2048C29.1957 49.3448 29.0257 49.4148 28.8257 49.4148ZM29.3857 50.1448V55.6548H28.2457V50.1448H29.3857ZM33.6624 50.0548C34.0958 50.0548 34.4824 50.1448 34.8224 50.3248C35.1691 50.5048 35.4391 50.7715 35.6324 51.1248C35.8258 51.4781 35.9224 51.9048 35.9224 52.4048V55.6548H34.7924V52.5748C34.7924 52.0815 34.6691 51.7048 34.4224 51.4448C34.1758 51.1781 33.8391 51.0448 33.4124 51.0448C32.9858 51.0448 32.6458 51.1781 32.3924 51.4448C32.1458 51.7048 32.0224 52.0815 32.0224 52.5748V55.6548H30.8824V50.1448H32.0224V50.7748C32.2091 50.5481 32.4458 50.3715 32.7324 50.2448C33.0258 50.1181 33.3358 50.0548 33.6624 50.0548ZM42.4266 52.7648C42.4266 52.9715 42.4133 53.1581 42.3866 53.3248H38.1766C38.2099 53.7648 38.3733 54.1181 38.6666 54.3848C38.9599 54.6515 39.3199 54.7848 39.7466 54.7848C40.3599 54.7848 40.7933 54.5281 41.0466 54.0148H42.2766C42.1099 54.5215 41.8066 54.9381 41.3666 55.2648C40.9333 55.5848 40.3933 55.7448 39.7466 55.7448C39.2199 55.7448 38.7466 55.6281 38.3266 55.3948C37.9133 55.1548 37.5866 54.8215 37.3466 54.3948C37.1133 53.9615 36.9966 53.4615 36.9966 52.8948C36.9966 52.3281 37.1099 51.8315 37.3366 51.4048C37.5699 50.9715 37.8933 50.6381 38.3066 50.4048C38.7266 50.1715 39.2066 50.0548 39.7466 50.0548C40.2666 50.0548 40.7299 50.1681 41.1366 50.3948C41.5433 50.6215 41.8599 50.9415 42.0866 51.3548C42.3133 51.7615 42.4266 52.2315 42.4266 52.7648ZM41.2366 52.4048C41.2299 51.9848 41.0799 51.6481 40.7866 51.3948C40.4933 51.1415 40.1299 51.0148 39.6966 51.0148C39.3033 51.0148 38.9666 51.1415 38.6866 51.3948C38.4066 51.6415 38.2399 51.9781 38.1866 52.4048H41.2366ZM51.0061 50.7748C51.0061 51.1281 50.9228 51.4615 50.7561 51.7748C50.5895 52.0881 50.3228 52.3448 49.9561 52.5448C49.5895 52.7381 49.1195 52.8348 48.5461 52.8348H47.2861V55.6548H46.1461V48.7048H48.5461C49.0795 48.7048 49.5295 48.7981 49.8961 48.9848C50.2695 49.1648 50.5461 49.4115 50.7261 49.7248C50.9128 50.0381 51.0061 50.3881 51.0061 50.7748ZM48.5461 51.9048C48.9795 51.9048 49.3028 51.8081 49.5161 51.6148C49.7295 51.4148 49.8361 51.1348 49.8361 50.7748C49.8361 50.0148 49.4061 49.6348 48.5461 49.6348H47.2861V51.9048H48.5461ZM53.2334 50.9448C53.4001 50.6648 53.6201 50.4481 53.8934 50.2948C54.1734 50.1348 54.5034 50.0548 54.8834 50.0548V51.2348H54.5934C54.1467 51.2348 53.8067 51.3481 53.5734 51.5748C53.3467 51.8015 53.2334 52.1948 53.2334 52.7548V55.6548H52.0934V50.1448H53.2334V50.9448ZM58.3213 55.7448C57.8013 55.7448 57.3313 55.6281 56.9113 55.3948C56.4913 55.1548 56.1613 54.8215 55.9213 54.3948C55.6813 53.9615 55.5613 53.4615 55.5613 52.8948C55.5613 52.3348 55.6846 51.8381 55.9313 51.4048C56.1779 50.9715 56.5146 50.6381 56.9413 50.4048C57.3679 50.1715 57.8446 50.0548 58.3713 50.0548C58.8979 50.0548 59.3746 50.1715 59.8013 50.4048C60.2279 50.6381 60.5646 50.9715 60.8113 51.4048C61.0579 51.8381 61.1813 52.3348 61.1813 52.8948C61.1813 53.4548 61.0546 53.9515 60.8013 54.3848C60.5479 54.8181 60.2013 55.1548 59.7613 55.3948C59.3279 55.6281 58.8479 55.7448 58.3213 55.7448ZM58.3213 54.7548C58.6146 54.7548 58.8879 54.6848 59.1413 54.5448C59.4013 54.4048 59.6113 54.1948 59.7713 53.9148C59.9313 53.6348 60.0113 53.2948 60.0113 52.8948C60.0113 52.4948 59.9346 52.1581 59.7813 51.8848C59.6279 51.6048 59.4246 51.3948 59.1713 51.2548C58.9179 51.1148 58.6446 51.0448 58.3513 51.0448C58.0579 51.0448 57.7846 51.1148 57.5313 51.2548C57.2846 51.3948 57.0879 51.6048 56.9413 51.8848C56.7946 52.1581 56.7213 52.4948 56.7213 52.8948C56.7213 53.4881 56.8713 53.9481 57.1713 54.2748C57.4779 54.5948 57.8613 54.7548 58.3213 54.7548ZM61.9282 52.8748C61.9282 52.3215 62.0416 51.8315 62.2682 51.4048C62.5016 50.9781 62.8149 50.6481 63.2082 50.4148C63.6082 50.1748 64.0516 50.0548 64.5382 50.0548C64.8982 50.0548 65.2516 50.1348 65.5982 50.2948C65.9516 50.4481 66.2316 50.6548 66.4382 50.9148V48.2548H67.5882V55.6548H66.4382V54.8248C66.2516 55.0915 65.9916 55.3115 65.6582 55.4848C65.3316 55.6581 64.9549 55.7448 64.5282 55.7448C64.0482 55.7448 63.6082 55.6248 63.2082 55.3848C62.8149 55.1381 62.5016 54.7981 62.2682 54.3648C62.0416 53.9248 61.9282 53.4281 61.9282 52.8748ZM66.4382 52.8948C66.4382 52.5148 66.3582 52.1848 66.1982 51.9048C66.0449 51.6248 65.8416 51.4115 65.5882 51.2648C65.3349 51.1181 65.0616 51.0448 64.7682 51.0448C64.4749 51.0448 64.2016 51.1181 63.9482 51.2648C63.6949 51.4048 63.4882 51.6148 63.3282 51.8948C63.1749 52.1681 63.0982 52.4948 63.0982 52.8748C63.0982 53.2548 63.1749 53.5881 63.3282 53.8748C63.4882 54.1615 63.6949 54.3815 63.9482 54.5348C64.2082 54.6815 64.4816 54.7548 64.7682 54.7548C65.0616 54.7548 65.3349 54.6815 65.5882 54.5348C65.8416 54.3881 66.0449 54.1748 66.1982 53.8948C66.3582 53.6081 66.4382 53.2748 66.4382 52.8948ZM74.0756 50.1448V55.6548H72.9356V55.0048C72.7556 55.2315 72.5189 55.4115 72.2256 55.5448C71.9389 55.6715 71.6322 55.7348 71.3056 55.7348C70.8722 55.7348 70.4822 55.6448 70.1356 55.4648C69.7956 55.2848 69.5256 55.0181 69.3256 54.6648C69.1322 54.3115 69.0356 53.8848 69.0356 53.3848V50.1448H70.1656V53.2148C70.1656 53.7081 70.2889 54.0881 70.5356 54.3548C70.7822 54.6148 71.1189 54.7448 71.5456 54.7448C71.9722 54.7448 72.3089 54.6148 72.5556 54.3548C72.8089 54.0881 72.9356 53.7081 72.9356 53.2148V50.1448H74.0756ZM75.1997 52.8948C75.1997 52.3281 75.313 51.8315 75.5397 51.4048C75.773 50.9715 76.093 50.6381 76.4997 50.4048C76.9064 50.1715 77.373 50.0548 77.8997 50.0548C78.5664 50.0548 79.1164 50.2148 79.5497 50.5348C79.9897 50.8481 80.2864 51.2981 80.4397 51.8848H79.2097C79.1097 51.6115 78.9497 51.3981 78.7297 51.2448C78.5097 51.0915 78.233 51.0148 77.8997 51.0148C77.433 51.0148 77.0597 51.1815 76.7797 51.5148C76.5064 51.8415 76.3697 52.3015 76.3697 52.8948C76.3697 53.4881 76.5064 53.9515 76.7797 54.2848C77.0597 54.6181 77.433 54.7848 77.8997 54.7848C78.5597 54.7848 78.9964 54.4948 79.2097 53.9148H80.4397C80.2797 54.4748 79.9797 54.9215 79.5397 55.2548C79.0997 55.5815 78.553 55.7448 77.8997 55.7448C77.373 55.7448 76.9064 55.6281 76.4997 55.3948C76.093 55.1548 75.773 54.8215 75.5397 54.3948C75.313 53.9615 75.1997 53.4615 75.1997 52.8948ZM82.9058 51.0748V54.1248C82.9058 54.3315 82.9525 54.4815 83.0458 54.5748C83.1458 54.6615 83.3125 54.7048 83.5458 54.7048H84.2458V55.6548H83.3458C82.8325 55.6548 82.4391 55.5348 82.1658 55.2948C81.8925 55.0548 81.7558 54.6648 81.7558 54.1248V51.0748H81.1058V50.1448H81.7558V48.7748H82.9058V50.1448H84.2458V51.0748H82.9058ZM87.2965 55.7448C86.8632 55.7448 86.4732 55.6681 86.1265 55.5148C85.7865 55.3548 85.5165 55.1415 85.3165 54.8748C85.1165 54.6015 85.0098 54.2981 84.9965 53.9648H86.1765C86.1965 54.1981 86.3065 54.3948 86.5065 54.5548C86.7132 54.7081 86.9698 54.7848 87.2765 54.7848C87.5965 54.7848 87.8432 54.7248 88.0165 54.6048C88.1965 54.4781 88.2865 54.3181 88.2865 54.1248C88.2865 53.9181 88.1865 53.7648 87.9865 53.6648C87.7932 53.5648 87.4832 53.4548 87.0565 53.3348C86.6432 53.2215 86.3065 53.1115 86.0465 53.0048C85.7865 52.8981 85.5598 52.7348 85.3665 52.5148C85.1798 52.2948 85.0865 52.0048 85.0865 51.6448C85.0865 51.3515 85.1732 51.0848 85.3465 50.8448C85.5198 50.5981 85.7665 50.4048 86.0865 50.2648C86.4132 50.1248 86.7865 50.0548 87.2065 50.0548C87.8332 50.0548 88.3365 50.2148 88.7165 50.5348C89.1032 50.8481 89.3098 51.2781 89.3365 51.8248H88.1965C88.1765 51.5781 88.0765 51.3815 87.8965 51.2348C87.7165 51.0881 87.4732 51.0148 87.1665 51.0148C86.8665 51.0148 86.6365 51.0715 86.4765 51.1848C86.3165 51.2981 86.2365 51.4481 86.2365 51.6348C86.2365 51.7815 86.2898 51.9048 86.3965 52.0048C86.5032 52.1048 86.6332 52.1848 86.7865 52.2448C86.9398 52.2981 87.1665 52.3681 87.4665 52.4548C87.8665 52.5615 88.1932 52.6715 88.4465 52.7848C88.7065 52.8915 88.9298 53.0515 89.1165 53.2648C89.3032 53.4781 89.3998 53.7615 89.4065 54.1148C89.4065 54.4281 89.3198 54.7081 89.1465 54.9548C88.9732 55.2015 88.7265 55.3948 88.4065 55.5348C88.0932 55.6748 87.7232 55.7448 87.2965 55.7448Z" fill="white"/>
<circle cx="48.3372" cy="20.3372" r="19.8372" stroke="white"/>
<path d="M51.2726 16.1265L51.2149 16.0342L51.0417 15.9534L50.8455 16.0226L50.7763 16.0803L50.6954 16.2766L50.6724 16.3689L50.7647 16.5652L50.7993 16.5882L50.9956 16.6921H51.0417C51.1456 16.6921 51.2495 16.646 51.3072 16.5536L51.3534 16.3805L51.3188 16.1958L51.2726 16.1381V16.1265Z" fill="white"/>
<path d="M61.8464 10.7473C59.1799 10.1586 56.8944 12.4326 55.3706 13.6677C54.5742 14.3142 53.6161 14.9837 52.531 15.3069C52.3925 15.1915 52.2309 15.0876 52.0462 15.0183C53.1428 14.6258 54.1124 13.864 54.8743 13.2522C56.7327 11.7746 58.4527 10.1009 59.9879 8.28858L59.9649 8L59.6763 8.02309C58.1641 9.82384 56.4673 11.4745 54.6203 12.929C53.3044 13.9794 52.0924 14.8452 50.6841 14.8798C50.6841 14.8798 50.6841 14.8798 50.6725 14.8798C47.7983 15.076 44.9817 15.9649 42.523 17.4539C41.8188 17.881 40.9762 18.4813 40.399 19.3124H40.3528C38.1135 20.6283 36.532 22.9601 36.1049 25.5227C35.8856 26.8617 36.0126 28.1199 36.4628 29.1588C37.1438 30.7056 38.6906 31.9754 40.5953 32.5294C40.8377 32.5987 41.1147 32.668 41.4033 32.7141V33.072H42.7885V32.8757C44.7277 33.0027 46.921 32.7603 47.7175 32.0908C48.1446 31.733 48.3292 31.2135 48.2484 30.7402C50.5686 30.2901 52.6233 28.547 53.5237 26.2499L53.5006 26.0537L53.3159 25.9729C50.8688 26.1922 48.6178 27.6697 47.452 29.8283C47.2673 29.7706 47.071 29.7244 46.8171 29.7244C46.39 29.7244 46.0206 29.8399 45.6166 29.886C45.4203 29.9091 45.2241 29.8976 45.0394 29.886C45.3973 29.609 45.8013 29.0896 45.9744 28.674C46.0206 28.5701 45.9744 28.4547 45.8705 28.4085L45.605 28.5124C45.3973 29.0088 45.0279 29.4359 44.5546 29.7129L44.5315 29.7937C44.2429 29.7129 43.9543 29.5975 43.6889 29.4359C44.1506 29.1242 44.8778 28.3162 45.1202 27.9699L45.074 27.6813L44.7855 27.7274C44.3814 28.2931 43.8851 28.7779 43.3079 29.1704C42.927 28.8818 42.6153 28.5239 42.396 28.1084C43.1232 27.5312 44.0352 27.1387 44.9586 27.0233C45.074 27.0118 45.1548 26.9079 45.1318 26.7924C45.1202 26.677 45.0163 26.6078 44.9009 26.6193C43.9428 26.7463 42.9963 27.1387 42.2229 27.739C42.2229 27.739 42.2229 27.739 42.2229 27.7274C42.119 27.4504 42.0843 27.1618 42.0613 26.8617C42.9039 26.3076 43.8735 25.9267 44.8663 25.7535C44.9702 25.7305 45.051 25.6266 45.0279 25.5227C45.0048 25.4073 44.9009 25.338 44.797 25.3495C43.8389 25.5227 42.9039 25.8805 42.0728 26.3884C42.1305 25.7766 42.3498 25.1879 42.6961 24.6916H42.7308C43.4464 24.4492 44.2429 24.4261 44.9702 24.5992C45.0856 24.6223 45.1895 24.553 45.2126 24.4492C45.2357 24.3453 45.1779 24.2298 45.0625 24.2068C44.4623 24.0567 43.8158 24.0451 43.1925 24.149C43.2964 24.0682 43.3887 23.9759 43.4926 23.9066L43.5272 23.7335C44.7855 23.8027 45.9513 23.6411 47.0249 23.2833C47.0941 23.3641 47.2442 23.3525 47.3942 23.3525C50.4532 23.3525 53.4775 22.1751 55.7169 20.0858V19.7972L55.4399 19.7857C53.4775 21.6095 50.9265 22.7408 47.9483 22.9024C48.0753 22.8446 48.2138 22.7869 48.3408 22.7177C48.5717 22.6022 48.791 22.4637 49.0103 22.3252C51.065 21.9789 53.0043 20.8707 54.3433 19.2662L54.3202 18.9777L54.0316 19.0007C52.9581 20.2936 51.4806 21.2401 49.8645 21.7019C51.2151 20.6053 52.254 19.1393 52.8196 17.4886C53.0966 16.6921 53.0851 16.0803 52.808 15.6186C53.8931 15.2607 54.8396 14.5912 55.6246 13.9563C57.0906 12.7789 59.3069 10.5741 61.7541 11.1167C61.8695 11.1398 61.9734 11.0705 61.9965 10.9551C62.0196 10.8512 61.9503 10.7358 61.8349 10.7127L61.8464 10.7473ZM41.1609 32.2524C41.2417 32.2178 41.3225 32.1716 41.4033 32.137V32.3101C41.3225 32.2986 41.2417 32.2755 41.1609 32.264V32.2524ZM42.7885 31.8946L42.8924 31.7907L43.3656 32.2409L43.1809 32.4256L43.2502 32.4948C43.0886 32.4948 42.9385 32.4833 42.7769 32.4717V31.8946H42.7885ZM43.4003 32.4948L43.5157 32.3794L43.608 32.4717L43.6773 32.4371V32.2986L43.6311 32.2524L44.0813 31.8022L44.6123 32.3101V32.3332H44.6469L44.6585 32.3563L44.7277 32.3332L45.2472 31.8138L45.6166 32.1832L45.7551 32.0331L45.3857 31.6637L45.6858 31.3636L46.3784 32.0215L46.2168 32.1832L46.2745 32.2409C45.4781 32.4256 44.4161 32.5179 43.3541 32.4948H43.4003ZM44.6816 31.2135L45.1318 31.6637L44.6816 32.1139L44.2314 31.6637L44.6816 31.2135ZM46.54 32.1832L46.5631 32.1601L47.3019 31.4213L47.5558 31.6637C47.5558 31.6637 47.4866 31.7445 47.452 31.7791C47.2673 31.9407 46.9441 32.0677 46.54 32.1832ZM53.0158 26.4346C52.1039 28.4662 50.2108 29.9784 48.1215 30.3709C48.0522 30.2439 47.9483 30.1284 47.8213 30.0246C48.8602 28.1199 50.8803 26.7463 53.0158 26.4346ZM46.1476 30.2323C48.0522 29.8976 48.0753 30.9711 47.6482 31.5714V31.5021L46.9787 30.8326L47.2557 30.5556L47.1172 30.417L46.8402 30.6941L46.7132 30.5671H46.5747V30.7056L46.7016 30.8326L46.667 30.8672V31.0173L46.7363 31.0404L46.8055 31.0173L46.8402 30.9827L47.1518 31.2828L46.54 31.8946L45.8705 31.2251L46.5054 30.5902V30.4517H46.3669L45.732 31.0865L45.5473 30.9018H45.3973V31.0404L45.5935 31.2251L45.2934 31.5252L44.8201 31.0519H44.6816V31.075H44.5546L44.1044 31.5252L43.7697 31.1904H43.6311V31.3405L43.9659 31.6637L43.5157 32.1139L43.054 31.6522L43.4464 31.2597V31.1212H43.2964L42.9155 31.5136L42.8924 31.4906H42.7538V31.6291L42.7769 31.6522L42.7308 31.6983H42.0613C42.4422 31.352 42.7423 30.9134 42.9039 30.4286C42.9385 30.3247 42.8808 30.2093 42.7769 30.1746C42.673 30.14 42.5576 30.1977 42.523 30.3016C42.2344 31.1904 41.4264 31.8946 40.5145 32.0677C39.3255 31.6752 38.3097 30.9942 37.6055 30.14C37.8133 30.1977 38.0557 30.2439 38.2173 30.2439C38.8407 30.2439 39.6949 29.9668 40.6991 28.8933V28.6047H40.399C38.8638 30.2554 37.7902 29.8514 37.4093 29.5975L37.2362 29.6321C37.0976 29.4243 36.9822 29.2165 36.8899 28.9972C36.6013 28.3508 36.4743 27.6005 36.4743 26.7924C36.7975 27.0695 37.2362 27.2426 37.7325 27.2426H37.8018C38.4367 27.2195 39.0369 26.9656 39.5679 26.7347L39.6718 26.4692L39.4063 26.3653C38.8869 26.5847 38.3559 26.8271 37.7902 26.8386C37.3285 26.8617 36.7513 26.6539 36.5089 26.2037C36.5205 25.996 36.532 25.7997 36.5667 25.5919C36.6936 24.7839 36.9591 24.0105 37.317 23.2833C37.5709 24.2183 38.4251 24.8993 39.4294 24.9224C39.5448 24.9224 39.6372 24.8301 39.6372 24.7262C39.6372 24.6108 39.5564 24.5184 39.4409 24.5184C38.5059 24.5069 37.7441 23.7912 37.6633 22.8562C37.6633 22.81 37.6286 22.7869 37.6055 22.7523C38.2289 21.6788 39.0715 20.7438 40.0874 20.0281C39.7526 20.8592 39.7411 21.7827 40.0874 22.5214C40.4683 23.2948 41.4841 23.4795 42.2344 23.6065C42.5345 23.6642 42.8346 23.6988 43.1348 23.7335C40.1912 25.9382 41.9804 30.9711 46.2053 30.2439L46.1476 30.2323ZM41.5303 23.0524L41.5995 22.9832L41.715 23.0986C41.6572 23.0871 41.588 23.064 41.5303 23.0524ZM42.8577 23.3064L42.9616 23.2025L43.0886 23.3295C43.0078 23.3295 42.9385 23.3179 42.8577 23.3064ZM43.1809 23.341H43.1925V23.1909L43.0886 23.0871L43.6658 22.5099V22.533L44.4738 23.3295H44.5315C44.0582 23.3641 43.608 23.3641 43.1809 23.3295V23.341ZM44.6239 23.3295C44.6239 23.3295 44.6239 23.3295 44.6123 23.3295V23.3064H44.6239V23.3295ZM46.0783 21.8866L46.7824 22.5907L46.4361 22.937L46.4939 22.9947C46.2976 23.0524 46.1014 23.0986 45.9167 23.1332V23.1101L45.3857 22.5792L46.0783 21.8866ZM47.0249 22.8331C46.921 22.8677 46.8171 22.9139 46.7132 22.9485L46.921 22.7408L47.0249 22.8446V22.8331ZM47.071 22.5907L47.6713 21.9904L48.0753 22.3945C47.7983 22.533 47.5097 22.6484 47.2211 22.7523L47.0595 22.5792L47.071 22.5907ZM45.6974 23.1909C45.3395 23.2602 44.9817 23.3064 44.6354 23.3295L45.2357 22.7292L45.6974 23.1909ZM52.4387 17.3847C52.2193 18.0196 51.9423 18.5736 51.6422 19.0931C51.6075 19.0931 51.5614 19.0931 51.5267 19.1162C50.9496 19.474 50.1993 19.3355 49.8068 18.7814C49.5067 18.3659 49.472 17.7772 49.472 17.2115C49.472 17.0961 49.3797 17.0038 49.2643 17.0038C49.1488 17.0038 49.0565 17.0961 49.068 17.2115C49.068 17.8349 49.1142 18.4928 49.4836 19.0123C49.6567 19.2547 49.8991 19.4163 50.1646 19.5433L50.0261 19.6818H49.9568V19.751L49.7837 19.9242V20.0743L49.853 20.1089L49.9222 20.0743L50.0492 19.9473L50.2108 20.1089L49.7606 20.5591L49.2643 20.0627H49.1142V20.2128L49.6105 20.7091L49.195 21.1247V21.2632H49.3451L49.7606 20.8477L49.8299 20.8823L49.8991 20.8477V20.7091L50.3493 20.259L50.4648 20.3744H50.6148V20.2359L50.4994 20.1204L50.5686 20.0512L50.4301 19.9127L50.3609 19.9819L50.1993 19.8203L50.3031 19.7164V19.6356C50.6379 19.751 50.9842 19.7626 51.3305 19.6587C50.6264 20.6861 49.7606 21.471 48.8256 22.0366C48.8025 22.0482 48.7794 22.0597 48.7679 22.0712C48.5947 22.1751 48.4216 22.2559 48.2484 22.3483V22.3137L47.8098 21.875L48.5601 21.1247L49.1488 21.7134H49.2989V21.5633L48.3754 20.6399H48.2369V20.7784L48.4331 20.9746L47.6828 21.7249L47.2442 21.2863H47.1057V21.4248L47.5443 21.8635L46.9441 22.4637L46.2399 21.7596L46.8633 21.1362V20.9977H46.7247L46.0321 21.6903L45.2703 22.4637L44.8316 22.0251H44.6931V22.1636L45.1318 22.6022L44.5892 23.1448L43.8505 22.406H43.8274L44.6008 21.6211V21.4825H44.4623L42.9847 22.9601L42.5114 22.4868H42.3729V22.6369L42.8577 23.0871L42.65 23.2948C42.4306 23.2602 42.2344 23.2256 42.0382 23.1909V23.1101L41.7958 22.8677L42.3614 22.3021V22.1521H42.2229L41.6572 22.7177L41.4495 22.5099H41.3109V22.66L41.5072 22.8677L41.3802 22.9947C40.9069 22.8216 40.5722 22.6022 40.4567 22.3598C40.0989 21.6326 40.1566 20.6399 40.6068 19.8434C41.1262 18.9199 42.0497 18.2851 42.8 17.8349C45.201 16.3804 47.9483 15.5147 50.7533 15.3184C50.8688 15.3184 50.9957 15.3069 51.1112 15.3069C51.6191 15.3069 51.9885 15.3992 52.254 15.5839C52.254 15.607 52.2424 15.6301 52.254 15.6532L52.4502 15.8033H52.4848C52.7388 16.1495 52.7503 16.6805 52.4964 17.4078L52.4387 17.3847Z" fill="white"/>
<path d="M45.7552 17.5118V17.3618H45.6166L45.432 17.5349L45.2242 17.3271H45.0741V17.4656L45.2934 17.685L44.5085 18.4699L44.0583 18.0197L45.2242 16.8654V16.7153H45.0741L43.9198 17.8812L43.7697 17.7311H43.6312V17.8697L43.7813 18.0197L43.2041 18.5853V18.7354H43.3542L43.9198 18.1582L44.3815 18.5969L44.0929 18.8739L44.243 19.024L44.52 18.7354L44.8086 19.0124L44.8779 18.9778V18.8393L44.6586 18.6084L45.4435 17.8235L45.6744 18.0659H45.8129V17.9158L45.582 17.685L45.7552 17.5118Z" fill="white"/>
<path d="M45.5474 16.5999V16.7384L45.9283 17.1308H46.0784V16.9808L45.6859 16.5999H45.5474Z" fill="white"/>
</svg>
