<?xml version="1.0" encoding="UTF-8"?>
<svg xmlns="http://www.w3.org/2000/svg" version="1.1" viewBox="0 0 100 100">
  <defs>
    <style>
      .cls-1 {
        fill: none;
        stroke: #a3a3a3;
        stroke-miterlimit: 10;
        stroke-width: .4px;
      }

      .cls-2 {
        fill: #f07426;
      }
    </style>
  </defs>
  <!-- Generator: Adobe Illustrator 28.6.0, SVG Export Plug-In . SVG Version: 1.2.0 Build 709)  -->
  <g>
    <g id="Layer_1">
      <g>
        <g>
          <path class="cls-2" d="M69.7,77c0,2.8-.6,3.7-4.1,4l-28.6,1.9c-1.8.1-3.8.1-4.9-1.1-.4-.5-.6-1.1-.7-1.7l.9-.9h.1c0-.1.6-.7.6-.7v-.4h-.4l-.4.4-.9-.9s0,0,0,0v-1.3c0,0,.9-.8.9-.8l.4.4h.4v-.4l-.4-.4.8-.8v-.4h-.4l-.8.8-.7-.7v-1.1c0,0,.8-.7.8-.7l.2.2h.4v-.4l-.2-.2,1.5-1.5v-.4h-.4l-1.5,1.5-.6-.6v-2.3c.1,0,.1,0,.1,0h0c0,0,0,0,0,0l1.3,1.3h.4v-.4l-1.2-1.2,2.5-2.5v-.4h-.4l-2.6,2.6h-.1v-2.3c.1,0,.3-.1.3-.1l.8.8h.4v-.4l-.8-.8,3-3-.4-.4.3-.3-.9-.9,1.1-1.1,2.1,2.1.4-.4-2.2-2.2v-.2h-.2l-.3-.3c.3,0,.5,0,.8,0,.7.1,1.5.2,2.3.2,0,0,.1,0,.2,0h0c0,0,.9.9.9.9l-1.7,1.7v.4h.4l1.7-1.7,1.3,1.3h.4v-.4l-1.3-1.3,1.6-1.6c1.2-.4,2.3-1,3.4-1.6l-2,2-.6-.6h-.4v.4l.6.6-.4.4v.4h.4l.4-.4.6.6h.4v-.4l-.6-.6,1.9-1.9.7.7v.3h.3l.6.6.4-.4-.5-.5,1.2-1.2.8.8h.4v-.4l-.8-.8,1.1-1.1v-.4h-.4l-1.1,1.1-.5-.5c1.1-.5,2.3-1,3.5-1.2l1.5,1.5v.3h.3s.4,0,.4,0v-.4l2-2c.6-.1,1.3-.4,2.1-.7l.2.2-1.1,1.1.4.4,1.1-1.1.6.6.4-.4-.6-.6.9-.9v-.2c.3-.1.6-.3.9-.5l.2.2-.6.6v.4h.4l.6-.6.3.3.4-.4-.3-.3.7-.7.7.7h.4v-.4l-.7-.7.4-.4c.2-.1.5-.3.7-.4.1.1.2.2.4.4h0v.4h.4c.2,0,.3,0,.4,0v-.4h0s.8-.8.8-.8l.4.4h.4v-.4l-.4-.4.2-.2v-.4s0,0,0,0c2.5-1.4,3.4-1.9,3.9-2.4l-.3,30.8ZM31.5,74.7l.3.3-.4.4v-.7ZM32.4,58.8c.5-.1,1.1-.2,1.6-.2.2,0,.5,0,.7,0v.2l.5.5-1.1,1.1-1.7-1.7ZM32.1,64.9v-2.5c.1,0,1.4,1.2,1.4,1.2l-1.3,1.3h0ZM31.7,71.6l.3.3-.3.3v-.5ZM31.3,78.3l.5.5-.5.5c0-.3,0-.7,0-1M33.7,61.6l.4-.4.9.9-1.2,1.2-1.6-1.6v-2.3c.1,0,1.5,1.4,1.5,1.4l-.4.4v.4h.4ZM40.8,58.7l-.9.9-.6-.6c.5,0,1-.1,1.5-.3M45.8,56.7h0s-.3,0-.3,0c0,0,.1,0,.2,0,.6-.3,1.1-.6,1.7-.9h0c0,0,.6.6.6.6l-1.2,1.2-.9-.9ZM53.2,55.4l-1.2-1.2c.3,0,.7,0,1,0,.5,0,1,0,1.6-.2l-1.4,1.4ZM58.4,52.7l-.2.2h0c.1-.1.2-.2.3-.2M61.1,51.3l-.2.2h0c0,0,.1-.1.2-.2M65,49.1h0s-.8.8-.8.8l-.3-.2c.4-.2.7-.4,1-.5M29,58.7c-.7.3-1.5.6-2.3.8-1.5.4-2.8.3-3.4-.5-.2-.3-.3-.6-.3-1l.4.4,1.2-1.2h.1c0,.1.4.1.4.1v-.4h-.1c0-.1,1.4-1.6,1.4-1.6l-.4-.4-1.4,1.4-.7-.7s0,0,0-.1c.4-.5.9-.8,1.4-1.3,0,0,.1-.1.2-.2l1,1h.4v-.4l-1-1c.5-.4.9-.9,1.3-1.4,0,0,.1-.2.2-.4l.5.5-1,1v.4h.4l1-1h.1c0,.1.4.1.4.1v-.4h-.1c0-.1.9-1.1.9-1.1v-.4h-.4l-.9.9-.6-.6h0c.3-.5.5-1.1.7-1.8h.3l.2-.2,1,1,.4-.4-1-1,1.4-1.4.6.6.4-.4-.6-.6,1.1-1.1h0s.6.6.6.6l-.7.7.4.4,2.2-2.2v-.2l.7.7h.4v-.4l-1.4-1.4h3s.5.5.5.5l-1.4,1.3v.4h.4l1.3-1.3,1.1,1.1h0c0,0,0,0,0,0h0s.4,0,.4,0h0c0,0,1.6-1.7,1.6-1.7l1.4,1.4h0c0,.1.1.1.1.1l.2.2.4-.4h-.1c0-.1,1.4-1.5,1.4-1.5v-.2l1.1,1.1-.5.5v.4h.4l.5-.5.4.4h.4v-.4l-.4-.4.7-.7v-.4h-.4l-.7.7-.7-.7h2.6s.9.9.9.9l-.5.5.4.4.7-.7h.1c0-.1,1-1.1,1-1.1h0c0,0,19-.2,19-.2l-.2.7c-.2.4-.8.7-3.9,2.5-1.1.6-2.6,1.4-4.5,2.5-4.9,2.7-6.4,2.8-8.2,2.9-.5,0-1.1,0-1.8.2-2.2.3-4.1,1.4-6,2.4-2.2,1.2-4.3,2.3-6.7,2.3-.7,0-1.4-.1-2.1-.2-.7-.1-1.5-.2-2.3-.2-1.7,0-3.4.6-5,1.2M23.6,56.1l.6.6-1.2,1.2c0-.6.2-1.3.6-1.9M29.9,46.2c.3-.5.6-.9,1-1.2l1,1-1.1,1.1-.9-.9ZM28.9,48.7h0c.2-.7.5-1.4.8-2l.7.7-1.4,1.4h-.1ZM31.8,44.6h1.2c0,0,.2.1.3.1s.2,0,.3-.1h0l.9.9h-.2l-1.1,1.1-1.9-1.9c.1,0,.3,0,.4,0M33.8,42.7l.3.3-.2.2v.4h.4l.3-.3h.2v-.2l.7-.7-.4-.4-.6.6-.7-.7v-1.4l1.4,1.4h.4s0-.4,0-.4l-1.2-1.2h1s0,.1,0,.1l1.5,1.5.4-.4-1.3-1.2h1s.6.6.6.6l-.4.4.4.4.4-.4.3.3h.4v-.4l-.3-.3.6-.6h.4c.1.1.3.3.4.4h-.1v.5h.5c.2,0,.3,0,.4,0v-.4h0s.4-.5.4-.5h.5s.5.5.5.5h0s0,0,0,0l.2.2h.4v-.4h0s.3-.3.3-.3h0c0,0,1.5,0,1.5,0,0,1.6,0,2.8,0,3.3h-10.6c0,0,0-.8,0-.8ZM51.1,16.5h.1l-.2.2-.2-.2c0,0,.1,0,.2,0M61.7,16.6h-.4l-.2.2-.4-.4c.2,0,.4,0,.7,0l.2.2ZM62.2,16.4c.3,0,.6,0,.8,0l-.4.4-.4-.4ZM64.2,16.5l-.2-.2c.1,0,.2,0,.4,0l-.2.2ZM68.8,26.9h-10.8c0-.5,0-1.1,0-1.7h.3c0,.1,0-.2,0-.2h0s1.3-1.3,1.3-1.3v-.4h-.4l-1.2,1.2c0-.3,0-.5,0-.8h0s.4,0,.4,0c.2-.2-.1-.5-.4-.8,0-.3,0-.5,0-.8l.2.2h.4v-.4l-.2-.2,1-1v-.4h-.4l-1,1h0c0-.5,0-1,0-1.5h0v.3h.4s.3,0,.3,0v-.3l1.1-1.1v-.4h-.4l-1.1,1.1-.4-.4c0-.7,0-1.3,0-1.9l.5.5h0c0,0,.4.5.4.5h.1c0-.1.1,0,.1,0h.2v-.4l.5-.5h0c0-.1.5.3.5.3h.4v-.4l-.7-.7c.2,0,.4,0,.7,0l.7.7-.4.4v.4h.4l.9-.9v-.4l.9.9h.4v-.4h0s.5-.6.5-.6l.3.3-.2.2v.4h.4l.3-.3h.2v-.2l.4-.4v-.3s0,0,0,0l.5.4h.1c0,0,.4.1.4.1l.3-.3h.1c0,.1.4-.3.4-.3h0c.7,0,1.4,0,2,0,.1,3.5.2,7,.1,10.6M45.4,39h.3s0-.4,0-.4v-.2c-.1-.3.5-.9.9-1.1l.3-.3v-.4h-.4l-.3.3c-.2.2-.5.4-.7.7,0-.2,0-.5,0-.7h0s.2.1.2.1h.2v-.5l-.4-.4c0-.5,0-1,0-1.6h0l.4-.4.2.2h.4s0-.4,0-.4l-.2-.2,1-1v-.4h-.4l-1,1-.5-.5c0-.6,0-1.3,0-1.9l.6.6-.2.2v.4h.4l.2-.2.2.2h.4v-.4l-.2-.2,1.2-1.2v-.4h-.4l-1.2,1.2-.7-.7h-.3c0-.5,0-1.1,0-1.6l.8.8.3.3h.4v-.4h0c0,0,.9-1,.9-1l1.1,1.1h.4v-.4l-1.1-1.1h0v-.2h1.6s.3.3.3.3l-.7.7v.4h.4l.7-.7.7.7h0c0,.1.4.1.4.1h0c0,0,.8-.9.8-.9h0s.6.6.6.6h.2c0,0,.3.3.3.3l1.1-1.1v-.3l.6.6-.2.2v.4h.4l.2-.2.2.2h.4v-.4l-.2-.2.5-.5v-.3h.8c.1,4,.2,8,.2,10.9h-11.8c0,.1,0,0,0,0M34,19.8l-.2.2v-.5l.2.2ZM33.9,30.1h-.1v-1.4s.9.9.9.9l-.6.6h-.1ZM33.8,30.8h.2c0,0,0,0,0,0l.6.6-.8.8v-1.5ZM45.3,33.7h0c0,0,0,.2,0,.2,0,0,0-.1,0-.2M44.9,19l.3.3-.3.3c0-.2,0-.4,0-.7M45.1,22.7h0s0,0,0,0h0M45.2,28.1h0s1.8,0,1.8,0l.2.2-.9.9-1.1-1.1ZM55.8,28l-.5.5-.5-.5h1ZM51.9,28.3h0l-.6.6-.6-.6h0v-.3h.9s.3.2.3.2ZM54.2,28.2h-.3l-.7.7h0s-.8-.9-.8-.9h1.7s.1.1.1.1ZM59,28.6l-.5-.5h1.1s-.5.5-.5.5ZM58.2,32.2c0-.5,0-.9,0-1.4l.3.3h0c0,0,0,0,0,0l.6.6-.7.7-.3-.3ZM58.2,36.4c0-.4,0-.8,0-1.2l.6.6h0l-.6.6ZM58.6,29.7l.3-.3.5.5-.8.8-.6-.6c0-.5,0-1,0-1.6l.5.5-.3.3v.4h.4ZM66,28h.5s-.3.3-.3.3l-.3-.3ZM60.5,28l1.1,1.1-.3.3v.4h.4l.4-.4h.2v-.2l.9-.9.9.9v.2h.2s.4,0,.4,0v-.3l.9-.9.3.3-.2.2v.4h.4l.2-.2.3.3.2-.5h-.1c0-.1.4-.5.4-.5l.2.2v.4h.2c0,0,.2,0,.2,0h0c0,0,.4.1.4.1v-.4h0c0,0,0-.2,0-.2v-.3h.8c0,3.6-.2,7.2-.4,10.9h-10.2c0-.5,0-1.1,0-1.7h0s.4.4.4.4h.4v-.4l-.4-.4,1.4-1.4v-.4h-.4l-.4.4h0s-1-1-1-1h0c0-.3,0-.7,0-1l.2-.2.9.9h.4v-.4l-.9-.9,1.1-1.1v-.4h-.3l-.4-.4.8-.8.4.4h.4v-.4l-.4-.4.2-.2v-.4h-.4l-.2.2-.5-.5.8-.8h0c0-.1.4-.1.4-.1ZM62.7,28l-.7.7-.7-.7h1.4ZM64.3,28.7l-.7-.7h1.5s-.7.7-.7.7ZM67.5,28h0,0s0,0,0,0ZM59,16.8h-.1l-.4.4-.8-.8c.3,0,.6,0,.9,0l.4.4ZM47.3,17.2v.3h.4l.9-.9.8.8h.1c0-.1.3-.1.3-.1l.5-.5.4.4h0c0,0,0,.1,0,.1h.4l.6-.6.2.2h.4v-.4h0c1.4,0,2.8,0,4.2-.1.2,2.9.3,6.7.4,10.5h-11.8c0-1.1,0-2.3-.1-3.5l1.2-1.2v-.4h-.4l-.4.4-.4-.4c0-.2,0-.4,0-.7l.3.3h.4v-.4l-.7-.7.7-.7h0s.4-.4.4-.4h0s.1-.1.1-.1v-.4h-.5c0,.1-.8-.6-.8-.6,0-.5,0-.9,0-1.3l.5.5-.2.2v.4h.4l.2-.2.3.3h.4v-.4l-.3-.3.3-.3v-.4h-.4l-.3.3-.4-.4c.5,0,.9,0,1.4,0l.7.7ZM47.7,16.8l-.3-.3c.2,0,.4,0,.5,0l-.3.3ZM49.6,16.8l-.3-.3c.2,0,.4,0,.6,0l-.3.3ZM40,17.5l-.4-.4h0v-.4h-.4s0,0,0,0c.5,0,.9,0,1.4,0l-.5.5v.3ZM36.8,16.7c.3,0,.6,0,1,0l-.5.5-.5-.5ZM34.2,16.7c.3,0,.6,0,.9,0l-.5.5-.5-.5ZM34.3,17.6l-.3.3v.4h.4l.3-.3.9.9h.4v-.4l-.9-.9.5-.5v-.3c.2,0,.3,0,.5,0l.8.8-.3.3v.4h.4l.3-.3.2.2h.4v-.4l-.2-.2.6-.6v-.3c.1,0,.2,0,.3,0h0s.4.4.4.4l-.4.4v.4h.4l.4-.4.7.7h.4v-.4l-.2-.2h.1s.2,0,.2,0l.6-.6.4.4h.4v-.4l-.4-.4c.7,0,1.5,0,2.2,0,.2,2.9.3,6.6.4,10.4h-10.3c0,0,0-2.8,0-2.8l.2-.2h0s.2.1.2.1h.2v-.5h0s.6-.6.6-.6l-.4-.4-.6.6-.2-.2v-1.4l.6.6h.4v-.4l-1-1h0s.6-.7.6-.7h0s.4-.4.4-.4h0s.4-.4.4-.4v-.4h-.4l-.4.4-.6-.6v-1.7l.5.5ZM38.1,40.3l-.2.2-.2-.2h.5ZM40.1,40.2h0s0,0,0,0h0ZM33.8,39.2v-3.4l.3-.3h0s.4,0,.4,0v-.4h0s.7-.7.7-.7v-.4h-.4l-.7.7-.3-.3v-1s.4.4.4.4h.4v-.4l-.5-.5.9-.9v.2c.1,0,.3,0,.3,0h.2v-.5l-.2-.2v-.3h-.3l-.6-.6.6-.6h.2c0,0,.2,0,.2,0v-.4h.1v-.5h-.5c0,.1-1-.9-1-.9h1s1.2,1.2,1.2,1.2l.4-.4-.9-.8h1.6s.2.2.2.2l-.8.8.4.4.8-.8.5.5h.4v-.4l-.7-.7h1.1s.3.3.3.3l-.4.4v.4h.4l.4-.4.4.4h.2c0,0,.2-.4.2-.4l-.4-.4h0v-.3h3.8c.1,4,.2,8.1.2,11h-10.6ZM42.2,40.2h0s0,0,0,0ZM38.2,44.7h-.1c0-.1.3-.2.3-.2l-.2.2ZM39.5,46l-.9-.9.3-.3v-.3h2s0,0,0,0l-1.4,1.4ZM41.7,44.6h0c0,0,2.5,0,2.5,0l-1.3,1.3-1.3-1.3ZM45.5,43.5c0-.4,0-1.3,0-2.5l.8.8h.4v-.4l-1.1-1.1h1.4s0,0,0,0l1.2,1.2h.4v-.4l-.9-.9h1.4s0,0,0,0l1,1h.4v-.4l-.8-.8h.4s0,.2,0,.2l1.2,1.2h.4v-.4l-1-1h2s1,.9,1,.9h.4v-.4l-.6-.6h.6s.9.9.9.9h.4v-.4l-.5-.5h2.5c0,1.6,0,2.7,0,3.3h-11.8ZM49.5,45.1l-.6-.6h1.1s-.6.6-.6.6ZM58.3,43.4c0-.2,0-.5,0-.9l.4.4h.4v-.4l-.8-.8h0c0-.3,0-.6,0-.9l.7.7h.4v-.4l-1.1-1.1s0,0,0,0h.7s1.1,1.1,1.1,1.1h.4v-.4l-.7-.7h1.6s.9.8.9.8h.4v-.4l-.5-.5h.9s.6.6.6.6h.4v-.4l-.3-.3h1s.9.9.9.9h.4v-.4l-.5-.5h2.9c0,1.1-.1,2.2-.2,3.3h-9.8ZM70.6,43.5h0s0,0,0,0c-.1-.1-.3-.2-.5-.2h-.1c0-.2-.2-.3-.4-.3h-.1c.6-9.3.8-18.5.5-27.2,0-.3-.3-.5-.5-.5-6,0-12.1.2-18.1.2-5.9,0-11.9.2-17.8.2-.3,0-.5.2-.5.5v11.2c0,0,0,.1,0,.2s0,.1,0,.2v15.8s-.9,0-.9,0c-2.4,0-3.3,2.8-4.1,5.3-.4,1.2-.8,2.2-1.2,2.9-.5.7-1.1,1.2-1.8,1.7-.5.4-1,.9-1.5,1.4-1.2,1.3-1.8,3.4-.7,4.8.6.7,1.5,1.1,2.7,1.1s1.2,0,1.9-.3c.8-.2,1.6-.5,2.3-.8.7-.2,1.3-.5,1.9-.7l-1.1,18.5c-.1,1.8-.1,3.6,1.1,5,1.4,1.6,3.6,1.6,5.8,1.5l28.6-1.9c4.3-.3,5.1-1.8,5.1-5l.3-33c0-.3-.2-.5-.5-.5"/>
          <polygon class="cls-2" points="55.5 53.9 55.5 54.2 56.6 55.3 57 55.3 57 54.9 55.9 53.9 55.5 53.9"/>
          <path class="cls-2" d="M56.1,72.9l-1-1,1.3-1.3,1,1-1.3,1.3ZM61.9,70.3l-1.2-1.2,1.5-1.5v-.4h-.4l-1.5,1.5-2.1-2.1,2.3-2.3v-.4h-.4l-2.3,2.3h-.4v.4l-1.8,1.8v.4h.2c0,0,.2,0,.2,0l1.8-1.8,2.1,2.1-2.1,2.1-1-1,.7-.7v-.4h-.4l-.7.7-1.7-1.7h-.4v.4l1.7,1.7-1.3,1.3-2.1-2.1h-.4v.4l2.1,2.1-.8.8v.4h.4l.8-.8,1,1-2,2v.4h.4l2-2,1.4,1.4h.4v-.4l-1.4-1.4,1.3-1.3,2.6,2.6h.4v-.4l-2.6-2.6,2.1-2.1,1.2,1.2-1.4,1.4v.4h.4l1.4-1.4.9.9.4-.4-.9-.9,1.7-1.7v-.4h-.4l-1.7,1.7Z"/>
        </g>
        <circle class="cls-1" cx="50" cy="50" r="50"/>
      </g>
    </g>
  </g>
</svg>