<svg width="98" height="69" viewBox="0 0 98 69" fill="none" xmlns="http://www.w3.org/2000/svg">
<path d="M20.4827 48.7048V55.6548H19.3427V50.8948L17.2227 55.6548H16.4327L14.3027 50.8948V55.6548H13.1627V48.7048H14.3927L16.8327 54.1548L19.2627 48.7048H20.4827ZM27.0311 52.7648C27.0311 52.9715 27.0177 53.1581 26.9911 53.3248H22.7811C22.8144 53.7648 22.9777 54.1181 23.2711 54.3848C23.5644 54.6515 23.9244 54.7848 24.3511 54.7848C24.9644 54.7848 25.3977 54.5281 25.6511 54.0148H26.8811C26.7144 54.5215 26.4111 54.9381 25.9711 55.2648C25.5377 55.5848 24.9977 55.7448 24.3511 55.7448C23.8244 55.7448 23.3511 55.6281 22.9311 55.3948C22.5177 55.1548 22.1911 54.8215 21.9511 54.3948C21.7177 53.9615 21.6011 53.4615 21.6011 52.8948C21.6011 52.3281 21.7144 51.8315 21.9411 51.4048C22.1744 50.9715 22.4977 50.6381 22.9111 50.4048C23.3311 50.1715 23.8111 50.0548 24.3511 50.0548C24.8711 50.0548 25.3344 50.1681 25.7411 50.3948C26.1477 50.6215 26.4644 50.9415 26.6911 51.3548C26.9177 51.7615 27.0311 52.2315 27.0311 52.7648ZM25.8411 52.4048C25.8344 51.9848 25.6844 51.6481 25.3911 51.3948C25.0977 51.1415 24.7344 51.0148 24.3011 51.0148C23.9077 51.0148 23.5711 51.1415 23.2911 51.3948C23.0111 51.6415 22.8444 51.9781 22.7911 52.4048H25.8411ZM27.773 52.8748C27.773 52.3215 27.8863 51.8315 28.113 51.4048C28.3463 50.9781 28.6596 50.6481 29.053 50.4148C29.453 50.1748 29.893 50.0548 30.373 50.0548C30.8063 50.0548 31.183 50.1415 31.503 50.3148C31.8296 50.4815 32.0896 50.6915 32.283 50.9448V50.1448H33.433V55.6548H32.283V54.8348C32.0896 55.0948 31.8263 55.3115 31.493 55.4848C31.1596 55.6581 30.7796 55.7448 30.353 55.7448C29.8796 55.7448 29.4463 55.6248 29.053 55.3848C28.6596 55.1381 28.3463 54.7981 28.113 54.3648C27.8863 53.9248 27.773 53.4281 27.773 52.8748ZM32.283 52.8948C32.283 52.5148 32.203 52.1848 32.043 51.9048C31.8896 51.6248 31.6863 51.4115 31.433 51.2648C31.1796 51.1181 30.9063 51.0448 30.613 51.0448C30.3196 51.0448 30.0463 51.1181 29.793 51.2648C29.5396 51.4048 29.333 51.6148 29.173 51.8948C29.0196 52.1681 28.943 52.4948 28.943 52.8748C28.943 53.2548 29.0196 53.5881 29.173 53.8748C29.333 54.1615 29.5396 54.3815 29.793 54.5348C30.053 54.6815 30.3263 54.7548 30.613 54.7548C30.9063 54.7548 31.1796 54.6815 31.433 54.5348C31.6863 54.3881 31.8896 54.1748 32.043 53.8948C32.203 53.6081 32.283 53.2748 32.283 52.8948ZM36.2603 51.0748V54.1248C36.2603 54.3315 36.307 54.4815 36.4003 54.5748C36.5003 54.6615 36.667 54.7048 36.9003 54.7048H37.6003V55.6548H36.7003C36.187 55.6548 35.7936 55.5348 35.5203 55.2948C35.247 55.0548 35.1103 54.6648 35.1103 54.1248V51.0748H34.4603V50.1448H35.1103V48.7748H36.2603V50.1448H37.6003V51.0748H36.2603ZM46.6187 55.6548L45.7587 54.7948C45.4253 55.1281 45.062 55.3781 44.6687 55.5448C44.2753 55.7048 43.8353 55.7848 43.3487 55.7848C42.8553 55.7848 42.4187 55.6981 42.0387 55.5248C41.6587 55.3515 41.3653 55.1048 41.1587 54.7848C40.952 54.4581 40.8487 54.0815 40.8487 53.6548C40.8487 53.1748 40.9853 52.7481 41.2587 52.3748C41.532 51.9948 41.9387 51.6948 42.4787 51.4748C42.2853 51.2415 42.1487 51.0248 42.0687 50.8248C41.9887 50.6181 41.9487 50.3915 41.9487 50.1448C41.9487 49.8381 42.0253 49.5648 42.1787 49.3248C42.3387 49.0848 42.5653 48.8948 42.8587 48.7548C43.152 48.6148 43.492 48.5448 43.8787 48.5448C44.272 48.5448 44.6053 48.6215 44.8787 48.7748C45.1587 48.9215 45.3653 49.1248 45.4987 49.3848C45.6387 49.6448 45.6953 49.9348 45.6687 50.2548H44.5287C44.5353 50.0081 44.4753 49.8181 44.3487 49.6848C44.222 49.5448 44.0487 49.4748 43.8287 49.4748C43.6087 49.4748 43.4287 49.5415 43.2887 49.6748C43.1553 49.8015 43.0887 49.9581 43.0887 50.1448C43.0887 50.3248 43.1387 50.5048 43.2387 50.6848C43.3453 50.8581 43.5287 51.0848 43.7887 51.3648L45.6287 53.1948L46.3387 52.0248H47.5687L46.6687 53.5648L46.4187 53.9748L48.1087 55.6548H46.6187ZM43.3487 54.8148C43.9753 54.8148 44.5287 54.5581 45.0087 54.0448L43.1687 52.1948C42.382 52.5081 41.9887 52.9815 41.9887 53.6148C41.9887 53.9548 42.1153 54.2415 42.3687 54.4748C42.622 54.7015 42.9487 54.8148 43.3487 54.8148ZM56.3137 50.7748C56.3137 51.1281 56.2304 51.4615 56.0637 51.7748C55.8971 52.0881 55.6304 52.3448 55.2637 52.5448C54.8971 52.7381 54.4271 52.8348 53.8537 52.8348H52.5937V55.6548H51.4537V48.7048H53.8537C54.3871 48.7048 54.8371 48.7981 55.2037 48.9848C55.5771 49.1648 55.8537 49.4115 56.0337 49.7248C56.2204 50.0381 56.3137 50.3881 56.3137 50.7748ZM53.8537 51.9048C54.2871 51.9048 54.6104 51.8081 54.8237 51.6148C55.0371 51.4148 55.1437 51.1348 55.1437 50.7748C55.1437 50.0148 54.7137 49.6348 53.8537 49.6348H52.5937V51.9048H53.8537ZM59.791 55.7448C59.271 55.7448 58.801 55.6281 58.381 55.3948C57.961 55.1548 57.631 54.8215 57.391 54.3948C57.151 53.9615 57.031 53.4615 57.031 52.8948C57.031 52.3348 57.1543 51.8381 57.401 51.4048C57.6477 50.9715 57.9843 50.6381 58.411 50.4048C58.8377 50.1715 59.3143 50.0548 59.841 50.0548C60.3677 50.0548 60.8443 50.1715 61.271 50.4048C61.6977 50.6381 62.0343 50.9715 62.281 51.4048C62.5277 51.8381 62.651 52.3348 62.651 52.8948C62.651 53.4548 62.5243 53.9515 62.271 54.3848C62.0177 54.8181 61.671 55.1548 61.231 55.3948C60.7977 55.6281 60.3177 55.7448 59.791 55.7448ZM59.791 54.7548C60.0843 54.7548 60.3577 54.6848 60.611 54.5448C60.871 54.4048 61.081 54.1948 61.241 53.9148C61.401 53.6348 61.481 53.2948 61.481 52.8948C61.481 52.4948 61.4043 52.1581 61.251 51.8848C61.0977 51.6048 60.8943 51.3948 60.641 51.2548C60.3877 51.1148 60.1143 51.0448 59.821 51.0448C59.5277 51.0448 59.2543 51.1148 59.001 51.2548C58.7543 51.3948 58.5577 51.6048 58.411 51.8848C58.2643 52.1581 58.191 52.4948 58.191 52.8948C58.191 53.4881 58.341 53.9481 58.641 54.2748C58.9477 54.5948 59.331 54.7548 59.791 54.7548ZM68.768 50.1448V55.6548H67.628V55.0048C67.448 55.2315 67.2113 55.4115 66.918 55.5448C66.6313 55.6715 66.3246 55.7348 65.998 55.7348C65.5646 55.7348 65.1746 55.6448 64.828 55.4648C64.488 55.2848 64.218 55.0181 64.018 54.6648C63.8246 54.3115 63.728 53.8848 63.728 53.3848V50.1448H64.858V53.2148C64.858 53.7081 64.9813 54.0881 65.228 54.3548C65.4746 54.6148 65.8113 54.7448 66.238 54.7448C66.6646 54.7448 67.0013 54.6148 67.248 54.3548C67.5013 54.0881 67.628 53.7081 67.628 53.2148V50.1448H68.768ZM71.4121 48.2548V55.6548H70.2721V48.2548H71.4121ZM74.2388 51.0748V54.1248C74.2388 54.3315 74.2855 54.4815 74.3788 54.5748C74.4788 54.6615 74.6455 54.7048 74.8788 54.7048H75.5788V55.6548H74.6788C74.1655 55.6548 73.7721 55.5348 73.4988 55.2948C73.2255 55.0548 73.0888 54.6648 73.0888 54.1248V51.0748H72.4388V50.1448H73.0888V48.7748H74.2388V50.1448H75.5788V51.0748H74.2388ZM77.7695 50.9448C77.9362 50.6648 78.1562 50.4481 78.4295 50.2948C78.7095 50.1348 79.0395 50.0548 79.4195 50.0548V51.2348H79.1295C78.6829 51.2348 78.3429 51.3481 78.1095 51.5748C77.8829 51.8015 77.7695 52.1948 77.7695 52.7548V55.6548H76.6295V50.1448H77.7695V50.9448ZM85.4274 50.1448L82.0474 58.2448H80.8674L81.9874 55.5648L79.8174 50.1448H81.0874L82.6374 54.3448L84.2474 50.1448H85.4274Z" fill="white"/>
<circle cx="48.3372" cy="20.3372" r="19.8372" stroke="white"/>
<path d="M60.9382 18.6523C60.6461 18.0232 60.1406 18.4164 60.1406 17.4727C60.1406 16.8324 59.9159 16.4055 59.2981 16.4055C58.3769 16.4055 58.0623 17.5289 57.7028 18.0007C56.8378 19.1354 55.1078 18.8208 53.3441 19.2028C51.2545 17.7536 48.7157 17.0346 46.1768 17.1919C40.9642 17.5064 38.4029 20.8317 36.7065 23.0336L36.6391 23.1234C36.4032 23.438 36.0774 23.8536 36.055 24.3592C36.0325 24.9995 36.5043 25.505 36.9312 25.9207C39.8521 28.7517 41.2788 29.6504 47.0643 29.6504C53.5238 29.6504 55.1415 27.9316 57.7028 25.7522C58.5229 25.0557 60.2192 23.9098 58.0511 22.7864C57.5231 22.5168 57.085 22.2472 57.0176 21.8428C57.8039 20.1464 60.0957 19.9779 60.5563 19.6858C60.8821 19.4724 61.118 19.023 60.9382 18.6411V18.6523ZM44.4805 29.1785L44.5591 29.0999L44.649 29.1898C44.5928 29.1898 44.5254 29.1898 44.4805 29.1898V29.1785ZM46.4015 29.2459L46.8396 28.8078L47.2777 29.2459C46.9969 29.2459 46.7048 29.2459 46.4127 29.2459H46.4015ZM47.6821 29.2459L48.1877 28.7404L48.682 29.2122C48.3674 29.2347 48.0304 29.2347 47.6821 29.2459ZM56.3548 25.4601L56.6244 25.7297L56.2424 26.1117L55.9728 25.8421L56.3548 25.4601ZM56.2761 26.3925L56.3435 26.3588V26.2577L56.7479 25.8645L56.8491 25.9656C56.4222 26.3251 56.0177 26.6621 55.6133 26.9655L55.2314 26.5835L55.838 25.9769L56.2761 26.3925ZM56.9052 25.7297L57.3883 25.2467L57.5343 25.3927C57.3546 25.5387 57.1861 25.696 57.0176 25.8308L56.9052 25.7185V25.7297ZM57.8601 23.1571C58.0848 23.2695 58.8262 23.6964 58.6914 24.2244C58.6353 24.4378 58.4555 24.5951 58.2421 24.7861C58.0511 24.9546 57.8601 25.1118 57.6691 25.2691L57.5119 25.1118L57.6467 24.977L57.5119 24.831L57.3771 24.9658L57.1748 24.7636L57.04 24.8984L57.2422 25.1006L56.7592 25.5837L56.4896 25.3141L56.8378 24.9658L56.703 24.831L55.8268 25.7072L55.692 25.8421L55.0966 26.4487L54.9393 26.3026L54.7932 26.4375L54.9505 26.5947L54.5461 26.9992L54.6809 27.134L55.0853 26.7295L55.4448 27.089C54.1417 28.0439 52.7711 28.7067 50.5693 29.0325V28.9314L49.9514 28.3135L50.4682 27.7968L50.9849 28.3135L50.7153 28.5831L50.8501 28.718L51.1197 28.4483L51.3893 28.7292H51.5242V28.5831L51.2545 28.3135L51.7264 27.8417L52.3779 28.4933H52.524V28.3585L51.8724 27.7069L52.5464 27.0329L52.4116 26.898L51.7376 27.5721L51.6702 27.5047L51.5242 27.6395L51.5916 27.7069L51.1197 28.1787L50.603 27.662L50.9849 27.28L50.8501 27.1452L49.8166 28.1787L49.4234 27.7855L49.2886 27.9203L49.6818 28.3135L48.9965 28.9988L49.1313 29.1448L49.8166 28.4596L50.412 29.055C49.884 29.1224 49.3223 29.1898 48.6932 29.2235L48.7606 29.0662L48.3112 28.6168L49.1426 27.7855L48.9965 27.6507L48.1652 28.482L47.8282 28.145L47.6821 28.2798L48.0304 28.6168L47.3788 29.2684C47.3788 29.2684 47.3002 29.2684 47.2665 29.2684L47.4013 29.1336L46.9632 28.6955L47.6709 27.9877L47.5361 27.8417L46.8284 28.5494L46.6711 28.3922L46.525 28.527L46.6823 28.6842L46.1094 29.2572C46.1094 29.2572 46.0757 29.2572 46.0644 29.2572L45.7274 28.9202L46.379 28.2686L46.2442 28.1338L45.5926 28.7854L45.4578 28.6505L45.323 28.7854L45.4578 28.9202L45.3118 29.0662L45.4466 29.201L45.5926 29.055L45.7836 29.2459C45.4466 29.2459 45.132 29.2235 44.8287 29.201V29.0887L44.7051 28.9651L45.4578 28.2124L45.3118 28.0776L44.5591 28.8303L44.4243 28.6955L44.2782 28.8415L44.413 28.9763L44.2445 29.1448L44.2782 29.1785C44.1884 29.1785 44.0985 29.1561 43.9974 29.1561L43.8401 28.9988L44.267 28.5719L44.121 28.4371L43.6941 28.864L43.4694 28.6505L43.3346 28.7854L43.548 28.9988L43.4469 29.0999C43.3571 29.0887 43.2559 29.0774 43.1661 29.055L43.0313 28.9202L43.211 28.7404L43.065 28.6056L42.8852 28.7854L42.7392 28.6393L42.5931 28.7741L42.7392 28.9202L42.6942 28.9651C40.2228 28.4933 39.0432 27.471 37.1671 25.6511C36.7739 25.2691 36.392 24.8535 36.4032 24.3816C36.4032 24.0334 36.6391 23.7188 36.8975 23.3818L36.9649 23.2919C38.6163 21.1463 41.1103 17.9221 46.1431 17.6076C48.4797 17.4615 50.8052 18.0906 52.7599 19.3601C51.7488 19.6746 50.749 20.2812 49.9177 21.5956C49.3111 22.5505 49.1313 23.5391 49.4009 24.3816C50.3895 27.4822 55.4223 25.3253 56.7367 22.3483C56.9951 22.7302 57.4445 22.9774 57.8152 23.1684L57.8601 23.1571ZM50.9625 24.9995L51.1422 24.8198L51.4343 25.1118L51.1422 25.4039L51.1871 25.4489C50.9962 25.4152 50.8164 25.3702 50.6591 25.2916L50.8052 25.1455L51.0748 25.4152L51.2208 25.2804L50.9512 25.0107L50.9625 24.9995ZM53.1755 25.022L53.3328 24.8647L53.4676 24.9995C53.2991 25.0781 53.1418 25.1455 52.9733 25.213L52.2993 24.5389L52.6476 24.1907L53.1868 24.7299L53.0295 24.8872L53.1643 25.0332L53.1755 25.022ZM52.7711 25.2804C52.2768 25.4376 51.805 25.505 51.3669 25.4601L52.1645 24.6625L52.7711 25.2691V25.2804ZM56.7367 21.472V21.4496L56.6918 21.4046L56.9389 21.1575C56.8603 21.2586 56.7929 21.3597 56.7255 21.472H56.7367ZM57.6017 20.5059L57.3883 20.2925L57.9275 19.7532L58.2758 20.1015C58.0399 20.2138 57.8152 20.3486 57.6017 20.5059ZM58.9161 19.8319V19.7757L58.8262 19.6858L59.2194 19.2926L59.4778 19.551L59.6126 19.405L59.3542 19.1466L59.5227 18.9781L59.3879 18.8433L59.2194 19.0118L59.152 18.9444L59.0172 19.0904L59.0846 19.1578L58.6914 19.551L58.4106 19.2702L58.2758 19.405L58.5566 19.6858L58.6914 19.8319L58.7588 19.888C58.6577 19.9218 58.5679 19.9667 58.4667 20.0116L58.0623 19.6072L58.1297 19.5398L57.9949 19.405L57.2535 20.1464L57.231 20.124H57.0962V20.2588L57.4669 20.6295C57.3995 20.6857 57.3321 20.7418 57.2647 20.8092L57.1524 20.6857L57.1074 20.7306L56.8378 20.461H56.703V20.607L56.9726 20.8766L56.5907 21.2586L56.3323 21.0002L56.1863 21.1463L56.4446 21.4046L56.0402 21.8091L55.7481 21.517L55.6021 21.6518L55.8942 21.9439L55.6358 22.2022L55.7706 22.3483L56.029 22.0899L56.1863 22.2472H56.3211V22.1124L56.1638 21.9551L56.5682 21.5507L56.6131 21.5956H56.703C56.6468 21.708 56.5907 21.8203 56.5457 21.9439C56.1188 23.1459 54.9393 24.2805 53.6811 24.9321L53.4901 24.7411L53.8721 24.3592L54.063 24.5501H54.1978V24.4153L54.0069 24.2244L54.4225 23.8087L54.7146 24.1008L54.8494 23.966L54.5573 23.6739L54.9505 23.2807L55.2538 23.5616L55.3212 23.5391V23.393L55.0741 23.1459L55.119 23.101L54.9842 22.9549L54.9393 22.9999L54.6809 22.7415L54.5349 22.8763L54.8045 23.1347L54.4113 23.5279L54.0406 23.1571L53.9058 23.2919L54.2765 23.6627L53.8608 24.0783L53.4901 23.7076L53.3553 23.8424L53.726 24.2131L53.3441 24.5951L52.8048 24.0559L53.7372 23.1234L53.5912 22.9886L52.6588 23.921L52.6026 23.8649L52.4678 23.9997L52.524 24.0559L52.1757 24.4041L51.9061 24.1345L51.7713 24.2693L52.0409 24.5389L51.6028 24.977L51.3107 24.6737L51.8499 24.1345L51.7151 23.9997L51.1759 24.5389L51.086 24.449L50.9512 24.5951L51.0411 24.685L50.8613 24.8647L50.6479 24.6513L50.5131 24.7973L50.7265 25.0107L50.5468 25.1905C50.2435 24.9883 50.0076 24.6962 49.8728 24.2581C49.6368 23.5279 49.8054 22.6516 50.3446 21.7978C51.6814 19.6858 53.4676 19.5286 55.0404 19.3825C56.7367 19.2252 57.6354 19.0792 58.3769 17.7087C58.5903 17.3155 58.8599 16.8099 59.3205 16.8099C59.7362 16.8099 59.7699 17.102 59.7699 17.484C59.7699 18.6074 60.4215 18.4276 60.6124 18.8208C60.8484 19.3376 59.9721 19.4612 58.9498 19.8319H58.9161Z" fill="white"/>
<path d="M42.4582 21.8877C43.1771 21.1013 43.604 20.1689 43.7501 19.1241L43.6939 18.9556L43.5254 18.8994C41.6943 19.2252 39.9755 20.3486 38.9307 21.8989C38.1331 23.0897 38.2679 23.9098 38.515 24.3816C39.4025 26.1004 43.3906 25.4713 44.8847 25.123C48.4908 24.2805 46.5249 20.6182 42.4806 21.8764L42.4582 21.8877ZM40.7057 24.8422L40.8068 24.9433L40.7731 24.977L40.8854 25.0893C40.7618 25.0893 40.6383 25.0669 40.5147 25.0556L40.5034 25.0332L40.6944 24.8422H40.7057ZM40.9528 25.1006L40.9977 25.0556H41.0764V24.977L41.346 24.7074L41.7504 25.1118H41.8852V24.977L41.8403 24.9321L42.1773 24.595L42.3009 24.7186L42.1661 24.8534L42.3009 24.9882L42.4357 24.8534L42.5031 24.9096L42.6491 24.7748L42.5817 24.7074L42.9637 24.3254L43.5366 24.8984L43.6714 24.7635L43.5142 24.6063L43.8512 24.2693L44.4016 24.8197C43.5029 24.9995 42.1324 25.1792 40.964 25.1006H40.9528ZM42.6828 24.0783L42.8064 24.2018L42.4245 24.5838L42.3009 24.4602L42.6828 24.0783ZM43.4243 23.8536L43.6939 24.1232L43.3569 24.4602L43.0873 24.1906L43.4243 23.8536ZM43.9747 24.1232L44.2668 23.8311L44.5589 24.1232L44.2668 24.4041L43.9747 24.112V24.1232ZM44.7724 24.7411C44.7724 24.7411 44.6713 24.7635 44.6263 24.7748L44.4129 24.5613L44.6937 24.2693L44.997 24.5726L45.1318 24.4378L44.8285 24.1344L44.9858 23.9772L45.2554 24.2468L45.1992 24.303L45.3341 24.449L45.716 24.067H45.8396V23.921L45.233 23.3031L45.0981 23.4379L45.5812 23.921L45.4127 24.0895L45.1431 23.8199L45.3116 23.6514L45.1768 23.5166L45.0083 23.6851L44.8398 23.5166H44.705V23.6514L44.8735 23.8199L44.7162 23.9772L44.4241 23.6851L44.5252 23.584V23.4492H44.3904L44.2893 23.5503L44.2219 23.4829L44.0871 23.6177L44.1545 23.6851L43.8624 23.9772L43.5928 23.7076L43.7388 23.5615L43.604 23.4267L42.9749 24.0558L42.8513 23.9322L42.9749 23.8087L42.8289 23.6739L42.1885 24.3142L42.0874 24.2131H41.9414V24.3591L42.0425 24.4602L41.7055 24.7973L41.492 24.5838L42.2672 23.8087L42.1211 23.6739L40.9753 24.8197L40.8742 24.7186L41.0764 24.5164L40.9416 24.3704L40.4136 24.8984L40.3012 24.786L40.1664 24.9321L40.2451 25.0107C39.616 24.8759 39.1104 24.6287 38.8858 24.2018C38.6049 23.6514 38.7397 22.9324 39.2789 22.1236C40.2114 20.7418 41.7167 19.7195 43.3344 19.3488C42.9862 21.2024 41.5033 22.3482 41.1101 22.5505C40.8966 22.6965 41.1101 23.0223 41.3348 22.8762C43.0423 21.7191 45.4689 21.8315 46.1766 22.8538C46.3002 23.0447 46.3788 23.2694 46.3676 23.5053L46.1654 23.3031L46.244 23.2245L46.1092 23.0897L46.0306 23.1683L45.907 23.0447H45.7609V23.1796L45.8845 23.3031L45.6261 23.5615L45.7609 23.6963L46.0193 23.4379L46.2777 23.6963H46.3339C46.2215 24.1007 45.8059 24.5052 44.7948 24.7411H44.7724Z" fill="white"/>
<path d="M35.7964 30.2458L35.6055 30.3807L35.6729 30.6053C36.6165 31.2906 37.9871 31.8972 39.6272 32.3578H39.6834H55.1638H55.22C56.8601 31.8972 58.2307 31.2906 59.1743 30.6053L59.2418 30.3807L59.0508 30.2458H35.7964ZM55.1413 31.9534H39.7171C38.4252 31.5939 37.313 31.1446 36.4593 30.639H58.388C57.5342 31.1446 56.422 31.5939 55.1301 31.9534H55.1413Z" fill="white"/>
<path d="M46.9853 15.4169C46.8167 15.6191 47.1201 15.8775 47.2886 15.6753C48.6591 14.0351 46.3674 11.9793 46.2213 10.4402C46.1202 9.36177 46.9179 8.26085 47.9851 8.03617C48.0974 8.0137 48.1648 7.91259 48.1424 7.80025C48.1199 7.68791 48.0075 7.62051 47.9064 7.64298C46.6595 7.90136 45.7046 9.2045 45.8282 10.4739C45.9854 12.1253 48.1536 14.0239 46.9853 15.4169Z" fill="white"/>
<path d="M48.6706 14.9562C48.5695 15.0012 48.5245 15.1135 48.5583 15.2146C48.7717 15.7539 50.4231 14.417 49.9625 12.9229C49.6479 11.9118 48.2212 10.9457 48.6594 9.95713C48.7829 9.67628 49.0413 9.55271 49.1874 9.54147C49.2997 9.54147 49.3783 9.44037 49.3671 9.32803C49.3671 9.21569 49.266 9.13705 49.1537 9.14828C48.8616 9.17075 48.4796 9.3842 48.2999 9.79985C47.7494 11.0468 49.2997 12.1253 49.5918 13.0352C49.8165 13.7767 49.3896 14.6642 48.6706 14.9562Z" fill="white"/>
<path d="M43.8738 15.1584C44.8062 14.5855 45.2556 13.3385 44.8961 12.305C44.7725 11.9343 44.5029 11.5186 44.4018 11.1704C44.1996 10.4739 44.5479 9.64255 45.177 9.28307L45.2556 9.01345L44.986 8.93481C44.1884 9.38417 43.7727 10.384 44.0199 11.2715C44.0873 11.5074 44.1996 11.7208 44.3007 11.9343C44.986 13.3161 44.4018 14.3721 43.6716 14.8102C43.4469 14.945 43.6604 15.282 43.8851 15.1472L43.8738 15.1584Z" fill="white"/>
<path d="M54.9165 22.483L55.6242 23.1907H55.7591V23.0447L55.0513 22.3369L54.9165 22.483Z" fill="white"/>
<path d="M54.1529 26.7408L54.0181 26.5947L53.0744 27.5271L52.6925 27.1452L52.5464 27.28L52.9396 27.6732L52.4678 28.145L52.6138 28.2798L53.0744 27.808L53.2204 27.954H53.3665V27.808L53.2204 27.6732L53.7934 27.1003L54.3438 27.6507L54.4899 27.5159L53.9282 26.9654L54.1529 26.7408Z" fill="white"/>
</svg>
