<svg width="98" height="69" viewBox="0 0 98 69" fill="none" xmlns="http://www.w3.org/2000/svg">
<path d="M29.0849 52.0848C29.4582 52.1515 29.7749 52.3481 30.0349 52.6748C30.2949 53.0015 30.4249 53.3715 30.4249 53.7848C30.4249 54.1381 30.3315 54.4581 30.1449 54.7448C29.9649 55.0248 29.7015 55.2481 29.3549 55.4148C29.0082 55.5748 28.6049 55.6548 28.1449 55.6548H25.3649V48.7048H28.0149C28.4882 48.7048 28.8949 48.7848 29.2349 48.9448C29.5749 49.1048 29.8315 49.3215 30.0049 49.5948C30.1782 49.8615 30.2649 50.1615 30.2649 50.4948C30.2649 50.8948 30.1582 51.2281 29.9449 51.4948C29.7315 51.7615 29.4449 51.9581 29.0849 52.0848ZM26.5049 51.6248H27.9149C28.2882 51.6248 28.5782 51.5415 28.7849 51.3748C28.9982 51.2015 29.1049 50.9548 29.1049 50.6348C29.1049 50.3215 28.9982 50.0781 28.7849 49.9048C28.5782 49.7248 28.2882 49.6348 27.9149 49.6348H26.5049V51.6248ZM28.0449 54.7248C28.4315 54.7248 28.7349 54.6315 28.9549 54.4448C29.1749 54.2581 29.2849 53.9981 29.2849 53.6648C29.2849 53.3248 29.1682 53.0548 28.9349 52.8548C28.7015 52.6548 28.3915 52.5548 28.0049 52.5548H26.5049V54.7248H28.0449ZM32.8037 50.9448C32.9704 50.6648 33.1904 50.4481 33.4637 50.2948C33.7437 50.1348 34.0737 50.0548 34.4537 50.0548V51.2348H34.1637C33.717 51.2348 33.377 51.3481 33.1437 51.5748C32.917 51.8015 32.8037 52.1948 32.8037 52.7548V55.6548H31.6637V50.1448H32.8037V50.9448ZM40.5516 52.7648C40.5516 52.9715 40.5383 53.1581 40.5116 53.3248H36.3016C36.3349 53.7648 36.4983 54.1181 36.7916 54.3848C37.0849 54.6515 37.4449 54.7848 37.8716 54.7848C38.4849 54.7848 38.9183 54.5281 39.1716 54.0148H40.4016C40.2349 54.5215 39.9316 54.9381 39.4916 55.2648C39.0583 55.5848 38.5183 55.7448 37.8716 55.7448C37.3449 55.7448 36.8716 55.6281 36.4516 55.3948C36.0383 55.1548 35.7116 54.8215 35.4716 54.3948C35.2383 53.9615 35.1216 53.4615 35.1216 52.8948C35.1216 52.3281 35.2349 51.8315 35.4616 51.4048C35.6949 50.9715 36.0183 50.6381 36.4316 50.4048C36.8516 50.1715 37.3316 50.0548 37.8716 50.0548C38.3916 50.0548 38.8549 50.1681 39.2616 50.3948C39.6683 50.6215 39.9849 50.9415 40.2116 51.3548C40.4383 51.7615 40.5516 52.2315 40.5516 52.7648ZM39.3616 52.4048C39.3549 51.9848 39.2049 51.6481 38.9116 51.3948C38.6183 51.1415 38.2549 51.0148 37.8216 51.0148C37.4283 51.0148 37.0916 51.1415 36.8116 51.3948C36.5316 51.6415 36.3649 51.9781 36.3116 52.4048H39.3616ZM49.0735 50.1448L47.3635 55.6548H46.1635L45.0535 51.5848L43.9435 55.6548H42.7435L41.0235 50.1448H42.1835L43.3335 54.5748L44.5035 50.1448H45.6935L46.8135 54.5548L47.9535 50.1448H49.0735ZM54.9754 52.7648C54.9754 52.9715 54.9621 53.1581 54.9354 53.3248H50.7254C50.7587 53.7648 50.9221 54.1181 51.2154 54.3848C51.5087 54.6515 51.8687 54.7848 52.2954 54.7848C52.9087 54.7848 53.3421 54.5281 53.5954 54.0148H54.8254C54.6587 54.5215 54.3554 54.9381 53.9154 55.2648C53.4821 55.5848 52.9421 55.7448 52.2954 55.7448C51.7687 55.7448 51.2954 55.6281 50.8754 55.3948C50.4621 55.1548 50.1354 54.8215 49.8954 54.3948C49.6621 53.9615 49.5454 53.4615 49.5454 52.8948C49.5454 52.3281 49.6587 51.8315 49.8854 51.4048C50.1187 50.9715 50.4421 50.6381 50.8554 50.4048C51.2754 50.1715 51.7554 50.0548 52.2954 50.0548C52.8154 50.0548 53.2787 50.1681 53.6854 50.3948C54.0921 50.6215 54.4087 50.9415 54.6354 51.3548C54.8621 51.7615 54.9754 52.2315 54.9754 52.7648ZM53.7854 52.4048C53.7787 51.9848 53.6287 51.6481 53.3354 51.3948C53.0421 51.1415 52.6787 51.0148 52.2454 51.0148C51.8521 51.0148 51.5154 51.1415 51.2354 51.3948C50.9554 51.6415 50.7887 51.9781 50.7354 52.4048H53.7854ZM57.2373 50.9448C57.404 50.6648 57.624 50.4481 57.8973 50.2948C58.1773 50.1348 58.5073 50.0548 58.8873 50.0548V51.2348H58.5973C58.1506 51.2348 57.8106 51.3481 57.5773 51.5748C57.3506 51.8015 57.2373 52.1948 57.2373 52.7548V55.6548H56.0973V50.1448H57.2373V50.9448ZM60.5152 49.4148C60.3085 49.4148 60.1352 49.3448 59.9952 49.2048C59.8552 49.0648 59.7852 48.8915 59.7852 48.6848C59.7852 48.4781 59.8552 48.3048 59.9952 48.1648C60.1352 48.0248 60.3085 47.9548 60.5152 47.9548C60.7152 47.9548 60.8852 48.0248 61.0252 48.1648C61.1652 48.3048 61.2352 48.4781 61.2352 48.6848C61.2352 48.8915 61.1652 49.0648 61.0252 49.2048C60.8852 49.3448 60.7152 49.4148 60.5152 49.4148ZM61.0752 50.1448V55.6548H59.9352V50.1448H61.0752ZM67.6219 52.7648C67.6219 52.9715 67.6086 53.1581 67.5819 53.3248H63.3719C63.4052 53.7648 63.5686 54.1181 63.8619 54.3848C64.1552 54.6515 64.5152 54.7848 64.9419 54.7848C65.5552 54.7848 65.9886 54.5281 66.2419 54.0148H67.4719C67.3052 54.5215 67.0019 54.9381 66.5619 55.2648C66.1286 55.5848 65.5886 55.7448 64.9419 55.7448C64.4152 55.7448 63.9419 55.6281 63.5219 55.3948C63.1086 55.1548 62.7819 54.8215 62.5419 54.3948C62.3086 53.9615 62.1919 53.4615 62.1919 52.8948C62.1919 52.3281 62.3052 51.8315 62.5319 51.4048C62.7652 50.9715 63.0886 50.6381 63.5019 50.4048C63.9219 50.1715 64.4019 50.0548 64.9419 50.0548C65.4619 50.0548 65.9252 50.1681 66.3319 50.3948C66.7386 50.6215 67.0552 50.9415 67.2819 51.3548C67.5086 51.7615 67.6219 52.2315 67.6219 52.7648ZM66.4319 52.4048C66.4252 51.9848 66.2752 51.6481 65.9819 51.3948C65.6886 51.1415 65.3252 51.0148 64.8919 51.0148C64.4986 51.0148 64.1619 51.1415 63.8819 51.3948C63.6019 51.6415 63.4352 51.9781 63.3819 52.4048H66.4319ZM70.7438 55.7448C70.3104 55.7448 69.9204 55.6681 69.5738 55.5148C69.2338 55.3548 68.9638 55.1415 68.7638 54.8748C68.5638 54.6015 68.4571 54.2981 68.4438 53.9648H69.6238C69.6438 54.1981 69.7538 54.3948 69.9538 54.5548C70.1604 54.7081 70.4171 54.7848 70.7238 54.7848C71.0438 54.7848 71.2904 54.7248 71.4638 54.6048C71.6438 54.4781 71.7338 54.3181 71.7338 54.1248C71.7338 53.9181 71.6338 53.7648 71.4338 53.6648C71.2404 53.5648 70.9304 53.4548 70.5038 53.3348C70.0904 53.2215 69.7538 53.1115 69.4938 53.0048C69.2338 52.8981 69.0071 52.7348 68.8138 52.5148C68.6271 52.2948 68.5338 52.0048 68.5338 51.6448C68.5338 51.3515 68.6204 51.0848 68.7938 50.8448C68.9671 50.5981 69.2138 50.4048 69.5338 50.2648C69.8604 50.1248 70.2338 50.0548 70.6538 50.0548C71.2804 50.0548 71.7838 50.2148 72.1638 50.5348C72.5504 50.8481 72.7571 51.2781 72.7838 51.8248H71.6438C71.6238 51.5781 71.5238 51.3815 71.3438 51.2348C71.1638 51.0881 70.9204 51.0148 70.6138 51.0148C70.3138 51.0148 70.0838 51.0715 69.9238 51.1848C69.7638 51.2981 69.6838 51.4481 69.6838 51.6348C69.6838 51.7815 69.7371 51.9048 69.8438 52.0048C69.9504 52.1048 70.0804 52.1848 70.2338 52.2448C70.3871 52.2981 70.6138 52.3681 70.9138 52.4548C71.3138 52.5615 71.6404 52.6715 71.8938 52.7848C72.1538 52.8915 72.3771 53.0515 72.5638 53.2648C72.7504 53.4781 72.8471 53.7615 72.8538 54.1148C72.8538 54.4281 72.7671 54.7081 72.5938 54.9548C72.4204 55.2015 72.1738 55.3948 71.8538 55.5348C71.5404 55.6748 71.1704 55.7448 70.7438 55.7448Z" fill="white"/>
<circle cx="48.3372" cy="20.3372" r="19.8372" stroke="white"/>
<g clip-path="url(#clip0_22_662)">
<path d="M53.18 22.1299C53.18 20.8199 53.18 19.1899 52.33 17.9199C52.32 17.8999 52.3 17.8799 52.28 17.8599C52.27 17.7999 52.24 17.7499 52.18 17.7099C52.18 17.7099 52.17 17.7099 52.16 17.7099C51.97 17.4699 51.77 17.2399 51.57 17.0199C51.3 16.7399 51.05 16.4699 50.85 16.1599C50.74 15.9899 50.66 15.7999 50.58 15.6199H50.59V15.4399H50.49C50.2 14.6799 50.13 13.8199 50.07 12.9899C50 11.7499 49.97 10.4599 49.98 9.1599H50.03C50.3 9.1299 50.56 8.9799 50.71 8.7699C50.96 8.4199 50.96 7.9899 50.96 7.6799V6.9999C50.96 6.2199 50.57 6.0099 49.79 6.0099C46.76 6.0099 46.15 5.9099 45.7 6.2099C45.08 6.6199 45.12 7.9599 45.37 8.4799C45.51 8.7699 45.82 9.0299 46.19 9.0799C46.19 10.4099 46.17 11.7299 46.09 12.9999C45.94 15.5299 45.47 16.0999 44.6 17.0299C44.34 17.3099 44.07 17.5999 43.85 17.9299C43 19.1899 43 20.8199 43 22.1299V30.7999C43 32.0999 43.06 33.4499 43.92 34.3499C44.64 35.1099 45.98 35.4999 47.92 35.4999C48.21 35.4999 48.49 35.4999 48.76 35.4799C50.06 35.4099 51.39 35.2599 52.25 34.3499C53.11 33.4399 53.18 32.0999 53.18 30.7999V22.1299ZM49.53 9.3999L49.44 9.3099L49.53 9.2199C49.53 9.2799 49.53 9.3399 49.53 9.4099V9.3999ZM48.09 9.6199L47.52 9.0499H48.02V9.0699L48.33 9.3799L48.09 9.6199ZM47.01 10.7199L46.66 11.0699C46.66 10.8499 46.66 10.6199 46.66 10.3799L47 10.7199H47.01ZM46.61 12.4599L46.64 12.4899L46.61 12.5199C46.61 12.5199 46.61 12.4799 46.61 12.4699V12.4599ZM46.68 12.1999H46.63C46.63 11.9799 46.65 11.7499 46.65 11.4999L47.12 11.9699H47.15L46.8 12.3199L46.68 12.1999ZM47.19 9.0399L47.35 9.1999L47.12 9.4299L46.72 9.0299H47.18L47.19 9.0399ZM48.8 8.0899L49.11 8.3999L49.08 8.4299C49.03 8.4799 49.04 8.5399 49.08 8.5899H48.77L48.53 8.3599L48.79 8.0999L48.8 8.0899ZM49.28 8.5599L49.3 8.5799H49.26L49.28 8.5599ZM48.45 8.5799H48.31L48.38 8.5099L48.45 8.5799ZM49.37 9.0399L49.27 9.1399L49.17 9.0399H49.37ZM49.99 8.7099H49.94L49.92 8.6499L49.76 8.5799H49.61V8.5599L49.44 8.3899L49.71 8.1199L49.99 8.3899V8.4699H50.07L50.21 8.5999C50.15 8.6399 50.08 8.6799 49.98 8.6899L49.99 8.7099ZM49.99 7.7899L50.26 8.0599H50.24L50.1 8.1999L49.86 7.9599L49.99 7.8299V7.7799V7.7899ZM50.26 8.3799L50.4 8.2399C50.4 8.2399 50.43 8.1899 50.43 8.1699H50.47C50.45 8.2899 50.41 8.3899 50.35 8.4799L50.26 8.3899V8.3799ZM45.8 8.2799C45.6 7.8799 45.62 6.8199 45.96 6.5999C46.24 6.4199 46.72 6.4799 49.8 6.4699C50.48 6.4599 50.5 6.6299 50.51 6.9999V7.0399L50.36 6.8899C50.47 6.7699 50.3 6.6099 50.2 6.7199L50.17 6.6999H50.01V6.8599L50.04 6.8899L49.94 6.9899V7.1499H50.1L50.2 7.0499L50.51 7.3599V7.6699C50.51 7.7699 50.51 7.8599 50.51 7.9599L49.92 7.3699H49.76V7.5399L49.9 7.6799H49.85L49.72 7.8099L49.55 7.6399H49.39V7.7999L49.57 7.9699L49.31 8.2299L49 7.9199L49.27 7.6499V7.4899H49.11L48.42 8.1799L48.29 8.0499H48.13V8.2099L48.26 8.3399L48.17 8.4399V8.5799H46.48L46.36 8.6299C46.14 8.6299 45.93 8.4599 45.84 8.2799H45.8ZM44.95 17.3399C45.9 16.3199 46.41 15.6599 46.59 12.8599L46.8 12.6499L46.88 12.7299H47.04V12.5699L46.96 12.4899L47.46 11.9899V11.8299H47.3L47.28 11.8499V11.8199L46.76 11.2999L47.17 10.8899L47.26 10.9799H47.42V10.8199L47.33 10.7299L47.53 10.5299V10.3699H47.37L47.17 10.5699L46.91 10.3099V10.2599L46.87 10.2199H46.82L46.67 10.0699C46.67 9.8299 46.67 9.5799 46.67 9.3299L46.96 9.6199L46.77 9.8099V9.9699H46.93L47.12 9.7799L47.25 9.9099C47.36 10.0199 47.52 9.8599 47.41 9.7499L47.28 9.6199L47.51 9.3899L47.97 9.8399H48.01C48.05 9.8999 48.12 9.9299 48.19 9.8699L48.5 9.5599L48.69 9.7499H48.85V9.5899L48.66 9.3999L48.77 9.2899V9.1299H48.61L48.5 9.2399L48.33 9.0699H48.85C48.85 9.0699 48.85 9.0799 48.85 9.0899L49.1 9.3399L49.05 9.3899C48.94 9.4899 49.1 9.6599 49.21 9.5499L49.26 9.4999L49.39 9.6299C49.39 9.6299 49.48 9.6699 49.52 9.6399C49.52 10.7899 49.55 11.9399 49.61 13.0499C49.69 14.3399 49.84 15.1499 50.11 15.7899L49.6 15.2799H49.44V15.4399L49.95 15.9499L49.51 16.3899V16.5499H49.67L50.12 16.0999L50.4 16.3899C50.4 16.3899 50.44 16.4099 50.46 16.4099C50.67 16.7299 50.92 17.0199 51.23 17.3599C51.41 17.5599 51.59 17.7499 51.75 17.9499C51.45 18.3899 51.14 18.8199 50.81 19.2399L50.46 18.8799L50.99 18.3499V18.2799L51.11 18.3999H51.27V18.2399L49.95 16.9199H49.79V17.0799L50.1 17.3899L49.53 17.9599L49.51 17.9399H49.35V18.0999L49.37 18.1199L49.04 18.4499V18.6099H49.2L49.53 18.2799L50.14 18.8899C50.11 18.9799 50.19 19.0599 50.28 19.0299L50.65 19.3999H50.68C50.45 19.6799 50.23 19.9599 49.99 20.2299V20.1399L49.89 20.0399L50.03 19.8999V19.7399H49.87L49.73 19.8799L48.88 19.0299H48.72V19.1899L49.57 20.0399L48.99 20.6199L48.64 20.2699L49.04 19.8699V19.7099H48.88L48.48 20.1099L48.14 19.7699H47.98V19.9299L48.32 20.2699L47.62 20.9699L47.36 20.7099H47.2V20.8699L47.46 21.1299L47.03 21.5599C46.08 20.4199 45.22 19.1999 44.47 17.9199C44.63 17.7199 44.79 17.5299 44.97 17.3399H44.95ZM49.7 18.1099L50.27 17.5399L50.9 18.1699H50.84L50.31 18.6999L49.71 18.0999L49.7 18.1099ZM48.4 21.7699L47.76 21.1299L48.46 20.4299L48.81 20.7799L48.67 20.9199V21.0799H48.83L48.97 20.9399L49.13 21.0999C48.9 21.3299 48.65 21.5499 48.4 21.7699ZM48.23 21.9199C48.06 22.0699 47.89 22.2299 47.71 22.3799C47.52 22.1699 47.34 21.9499 47.15 21.7299L47.59 21.2899L48.22 21.9199H48.23ZM49.29 20.9299L49.13 20.7699L49.71 20.1899L49.81 20.2899H49.9C49.7 20.5099 49.49 20.7199 49.28 20.9299H49.29ZM51.92 34.0399C51.18 34.8299 49.94 34.9599 48.74 35.0199C48.48 35.0299 48.21 35.0399 47.93 35.0399C46.13 35.0399 44.9 34.6999 44.27 34.0299C43.52 33.2399 43.46 32.0499 43.46 30.7899V22.1199C43.47 20.9199 43.48 19.4499 44.16 18.3199C45.12 19.9399 46.24 21.4599 47.52 22.8399L47.69 22.9099L47.84 22.8599C49.52 21.4999 50.89 20.0099 52.04 18.3199C52.72 19.4499 52.73 20.9199 52.73 22.1099V30.7799C52.74 32.0399 52.68 33.2299 51.93 34.0199L51.92 34.0399Z" fill="white"/>
<path d="M47.4202 24.7C45.4902 25.1 44.9502 26.65 45.0902 27.97C45.2702 29.7 46.5902 31.57 48.4102 31.57C49.9102 31.57 51.1202 30.28 51.3702 28.79C51.5502 27.68 51.2102 26.49 50.4802 25.7C49.7202 24.87 48.5002 24.47 47.4302 24.69L47.4202 24.7ZM48.6202 25.16V25.26L48.8602 25.5L48.5402 25.82L47.8302 25.11C47.9002 25.11 47.9602 25.09 48.0302 25.09C48.2302 25.09 48.4302 25.11 48.6202 25.16ZM47.5102 25.15C47.5102 25.15 47.5302 25.15 47.5402 25.15L48.3802 25.99L47.9402 26.43V26.45L47.3602 25.87L47.7002 25.53V25.37H47.5402L47.2002 25.71L46.8702 25.38C47.0702 25.29 47.2802 25.21 47.5202 25.16L47.5102 25.15ZM46.0302 26.01L46.6902 26.66L46.4202 26.93L45.8202 26.33C45.8802 26.21 45.9502 26.1 46.0302 26V26.01ZM45.7102 26.56L46.2502 27.1L45.7702 27.58L45.6002 27.41H45.5302C45.5402 27.1 45.6102 26.82 45.7102 26.56ZM45.6602 27.97L45.7402 27.94L45.7602 27.91L46.4902 28.63H46.5502L46.1202 29.06L45.7002 28.64C45.6302 28.4 45.5702 28.15 45.5402 27.91C45.5402 27.83 45.5402 27.75 45.5402 27.67L45.6102 27.74L45.5902 27.76V27.92L45.6702 27.95L45.6602 27.97ZM45.9002 29.17L45.9602 29.23L45.9402 29.25C45.9402 29.25 45.9102 29.2 45.9002 29.17ZM50.9102 28.72C50.7002 30 49.6702 31.11 48.4002 31.11C47.4102 31.11 46.5602 30.39 46.0502 29.46L46.1202 29.39L46.3302 29.59H46.4902V29.43L46.2902 29.23L47.0302 28.49V28.33H46.8702L46.6702 28.53V28.47L45.9402 27.75L46.4202 27.27L46.5702 27.42H46.7302V27.26L46.5802 27.11L46.8502 26.84L47.0202 27.01H47.1802V26.85L47.0102 26.68L47.2602 26.42V26.26H47.1002L46.8502 26.52L46.1802 25.85C46.3202 25.71 46.4702 25.59 46.6402 25.49L47.0302 25.87L46.8702 26.03V26.19L46.9502 26.22L47.0302 26.19L47.1902 26.03L47.7702 26.61H47.9302V26.59H48.0902L48.5302 26.15L48.8102 26.43H48.9702V26.27L48.6902 25.99L49.0102 25.67L49.4902 26.15L49.3302 26.31V26.47H49.4902L49.6502 26.31L50.0102 26.67C50.1102 26.78 50.2802 26.62 50.1702 26.51L49.8102 26.15L49.9102 26.05V25.89H49.7502L49.6502 25.99L49.1302 25.46V25.4H49.0702L48.9502 25.28C49.3902 25.43 49.8002 25.68 50.1202 26.03C50.7602 26.72 51.0602 27.76 50.9002 28.73L50.9102 28.72Z" fill="white"/>
<path d="M44.72 21.8401L44.87 21.7801L44.81 21.6301C44.65 21.5601 44.48 21.5101 44.3 21.4801V20.6901L44.19 20.5701L44.07 20.6901V21.4601C43.99 21.4601 43.91 21.4401 43.84 21.4501L43.73 21.5701L43.85 21.6801C43.92 21.6801 44 21.6801 44.07 21.6901V22.6201C44.07 22.6201 44.03 22.6201 44.01 22.6201L43.92 22.7601L44.05 22.8501C44.05 22.8501 44.06 22.8501 44.07 22.8501V23.8701C43.97 23.8701 43.86 23.8901 43.78 23.9401L43.74 24.1001L43.9 24.1401C43.95 24.1101 44.01 24.1101 44.08 24.1001V25.1001L43.92 25.1201L43.82 25.2501L43.93 25.3501H43.95L44.08 25.3301V25.8501H43.89L43.78 25.9901L43.89 26.1001H44.07V27.2401L44.19 27.3601L44.3 27.2401V26.0701L44.51 26.0501L44.62 25.9301L44.5 25.8201H44.31V25.3001L44.48 25.2801L44.58 25.1501L44.45 25.0501L44.31 25.0701V24.1401C44.31 24.1401 44.35 24.1401 44.37 24.1601C44.49 24.2501 44.63 24.0601 44.5 23.9701C44.45 23.9301 44.37 23.9301 44.31 23.9101V22.8501C44.44 22.8501 44.57 22.8701 44.69 22.9201L44.84 22.8501L44.77 22.7001C44.63 22.6501 44.47 22.6201 44.31 22.6201V21.7201C44.45 21.7501 44.59 21.7901 44.72 21.8501V21.8401Z" fill="white"/>
</g>
<defs>
<clipPath id="clip0_22_662">
<path d="M43 6H53.19V30.415C53.19 33.2289 50.9089 35.51 48.095 35.51C45.2811 35.51 43 33.2289 43 30.415V6Z" fill="white"/>
</clipPath>
</defs>
</svg>
