<?xml version="1.0" encoding="UTF-8"?>
<svg id="Layer_1" xmlns="http://www.w3.org/2000/svg" viewBox="0 0 100 100">
  <defs>
    <style>
      .cls-1 {
        fill: #f17324;
      }
    </style>
  </defs>
  <path class="cls-1" d="M32.54,55.2l-.23.24c-.41.01-.81.06-1.2.14l.22.24-.02.33-.34-.02-.36-.4c-.65.18-1.25.44-1.81.79l.4.59-.07.32-.33-.07-.39-.57c-.45.33-.87.69-1.23,1.11l.35.44-.04.32-.34-.03-.27-.33c-.19.27-.37.55-.52.84.61.21,1.2.5,1.02.77l-.32.07c-.29-.17-.59-.31-.91-.42-.19.42-.34.86-.44,1.33-.06.3-.53.21-.47-.09.1-.5.29-.93.47-1.36-.15-.04-.29-.09-.44-.12-.31-.05-.24-.5.07-.46.13.02.32.06.54.12.2-.39.46-.73.71-1.06l-.24-.29.37-.29.15.19c.39-.44.82-.81,1.26-1.13l-.19-.29.4-.25.2.29c.57-.37,1.14-.66,1.67-.85l-.15-.16.36-.31.27.3c1.04-.29,1.82-.27,1.83.06M79.93,52.37c-.32.68-.72,1.3-1.12,1.91.09.09.18.17.25.27l-.06.32-.13.04-.19-.09s-.08-.08-.12-.12c-.48.68-1.03,1.28-1.62,1.86.02.03.04.05.06.08l-.12.3-.1.02-.14-.09c-.64.59-1.33,1.14-2.06,1.61.13.2.28.39.38.6l-.11.31-.1.03-.21-.14c-.1-.21-.24-.4-.37-.59-.84.5-1.73.91-2.65,1.25.02.21,0,.44-.1.66-.12.28-.56.1-.44-.18.04-.1.03-.21.03-.32-.9.29-1.82.5-2.77.62-.02.25-.07.47-.13.63-.12.27-.56.1-.44-.18.05-.12.06-.25.09-.38-.8.08-1.6.08-2.41.03-.07.13-.14.26-.23.35l-.33-.33s.02-.03.03-.04c-.62-.06-1.24-.18-1.86-.31l-.15.25c-.15.26-.57.04-.41-.24l.07-.13c-.38-.1-.76-.15-1.14-.28-.29-.1-.14-.54.16-.44.4.14.82.19,1.22.3l.15-.25c.15-.26.57-.04.41.23l-.08.14c.62.13,1.23.23,1.85.28.03-.12.05-.24.03-.35l.19-.26c.29-.05.33.28.25.64.76.04,1.52.03,2.27-.05-.01-.15-.02-.3-.07-.44l.14-.3c.28-.1.39.25.41.68.9-.12,1.78-.32,2.64-.6-.04-.08-.06-.16-.12-.23v-.32c.16-.17.44.04.6.4.87-.32,1.7-.71,2.5-1.18-.16-.19-.33-.38-.52-.54l.31-.35c.23.2.44.43.63.66.72-.47,1.41-1,2.04-1.59-.24-.36-.55-.68-.94-.87-.28-.14-.06-.55.21-.41.43.21.76.55,1.04.93.56-.56,1.09-1.15,1.55-1.81-.16-.12-.34-.23-.52-.31l-.13-.3.32-.12c.2.08.39.21.57.34.37-.57.75-1.14,1.04-1.77.13-.28.57-.09.43.19M52.38,47.85l.32-.35c.84.71,1.79.78,2.74.56l-.54-.72.39-.27.65.87c.86-.3,1.68-.82,2.4-1.34-.06-.25-.17-.48-.35-.66l.34-.32c.19.19.34.42.43.68.53-.41.96-.78,1.25-1,.26-.2.54-.35.81-.54l-.2-.42.11-.3.32.11.17.35c.71-.45,1.42-.85,2.13-1.19l-.27-.43.41-.24.28.46c.94-.42,1.85-.73,2.71-.98l-.18-.41c-.12-.28.32-.46.44-.18l.19.45c.71-.19,1.37-.34,1.93-.43l-.19-.56c-.1-.28.35-.43.45-.15l.22.65c.99-.11,1.65-.07,1.66.11l-.22.24c-.43.02-.84.11-1.27.16.08.27-.35.42-.44.13l-.02-.07c-.65.1-1.28.22-1.91.38l.15.36-.13.3-.31-.12-.18-.41c-.9.25-1.78.57-2.64.95l.13.21-.08.32-.32-.08-.15-.25c-.75.36-1.47.77-2.17,1.22l.1.2-.11.31-.32-.12-.07-.14c-.24.16-.49.29-.72.47-.27.2-.79.66-1.46,1.16,0,.07.04.13.04.21-.02.27-.34.27-.44.09-.66.46-1.42.91-2.22,1.21l.05.06-.06.32-.33-.05-.13-.18c-1.14.32-2.32.27-3.36-.61M20.3,50.78c-.03.31-.5.25-.47-.05.12-1.11.3-2.13.5-3.12l-.66-.39-.08-.32.32-.07.53.31c.16-.71.34-1.4.54-2.06l-.19-.18v-.33h.35c.26-.77.56-1.52.89-2.22-.14-.1-.27-.22-.43-.29l-.11-.31.32-.12c.15.07.28.19.41.28.05-.11.1-.24.16-.34.28-.54.63-1.03.96-1.53l-.18-.16-.02-.32h.34s.11.08.11.08c.41-.58.87-1.09,1.34-1.59l-.34-.29-.02-.33.34-.02.32.28c.51-.51,1.06-.96,1.62-1.37-.17-.12-.34-.24-.54-.3l-.14-.3.3-.15c.28.1.53.26.77.44.64-.43,1.3-.8,1.99-1.1l.31.12-.12.31c-.63.28-1.24.62-1.83,1.02.16.17.33.33.44.53l-.1.31-.11.02-.21-.12c-.1-.18-.25-.32-.39-.47-.57.41-1.12.86-1.64,1.38l.62.55v.33s-.16.07-.16.07l-.16-.06-.6-.53c-.47.5-.92,1.03-1.33,1.61l.48.43v.33s-.16.07-.16.07l-.16-.06-.4-.36c-.31.46-.63.92-.9,1.43-.07.13-.13.29-.19.43.19.19.36.39.49.63l-.09.31-.12.02-.21-.12c-.07-.14-.19-.25-.29-.37-.32.71-.62,1.46-.87,2.26l.43.42v.33l-.17.07-.17-.07-.26-.25c-.18.62-.34,1.27-.49,1.94l.8.47.08.32-.2.11-.12-.03-.66-.39c-.18.93-.34,1.89-.46,2.92M21.17,63.53l.64.63-.34.33-.64-.63-.53.51-.33-.33.52-.51-.88-.86.33-.32.88.86.28-.27.33.33-.28.27ZM81.6,63.61c-.15.26-.34.5-.52.74v-.02l-.44-.43,1.2-1.17-.33-.32-1.2,1.17-.84-.82-.34.33.84.82-1.25,1.21-.89-.87h-.34v.32l.9.87-1.44,1.4.34.32,1.44-1.4.44.43.33-.33-.43-.42,1.24-1.21.44.42h.12c-1.82,2.32-4.77,4.04-8.24,4.82l1.25-1.21.52.51.34-.32-.53-.51,1.14-1.1,1.04,1.01h.34v-.32l-1.04-1.01.87-.85-.33-.33-.88.86-.4-.39-.34.32.41.4-1.14,1.1-1.11-1.08-.33.33,1.11,1.08-1.28,1.24.31.31c-.43.09-.85.19-1.29.25-.68.1-1.36.12-2.04.16l1.28-1.24.88.86h.34v-.33l-.88-.85,1.59-1.55-.34-.33-1.59,1.55-.76-.74h-.33v.33l.76.74-1.45,1.41v-.02l-1.26-1.23,2.1-2.05-.33-.33-2.11,2.05-.38-.37-.33.34.38.36-1.38,1.34-1.33-1.29.96-.93-.34-.33-.96.94-.05-.04-.34.32.05.05-1.08,1.05c-.69-.09-1.38-.19-2.07-.3l.54-.52.55.54.34-.32-.55-.54,1.38-1.34-.34-.32-1.38,1.34-1.22-1.18.65-.63-.34-.33-1.85,1.8-1.17-1.14-.33.32,1.17,1.14-.51.5.25.25c-.63-.11-1.26-.21-1.89-.31l-.89-.86,1.71-1.66-.34-.33-1.71,1.66-.84-.82-.34.33.84.82-.51.5v.07c-.5-.07-.99-.15-1.49-.2l-.68-.66,2.01-1.95-.34-.33-2.01,1.95-.71-.68-.34.32.72.67-.5.49.04.04c-.43-.03-.85-.08-1.28-.1v-.04l-.99-.96.24-.23-.33-.32-.24.23-.54-.53-.33.33.54.53-1.07,1.04c-.17,0-.34,0-.51,0l-.67-.65,1.8-1.75-.33-.32-1.8,1.75-1.06-1.03-.33.33,1.06,1.03-.95.93c-.21.03-.41.06-.62.1v-.03l-.83-.81.94-.92-.34-.33-.94.92-.76-.74-.34.33.76.74-1.47,1.44s-.04,0-.06.01v-.15l-1.58-1.53.49-.48-.33-.32-2.32,2.26-.98-.96-.33.33.98.95-1,.97c-.48.09-.96.17-1.44.24l.21-.21-.65-.63,1.83-1.79-.33-.32-1.84,1.78-.82-.79-.34.32.82.8-.81.79.26.26c-.41.04-.81.08-1.22.1h.01s-1.06-1.04-1.06-1.04l1.18-1.15-.34-.33-1.18,1.15-.49-.47-.33.32.49.47-.7.68-1-.97.94-.92-.34-.33-.94.92-.35-.34-.34.32.35.34-.9.87.03.02s-.05-.01-.07-.02l-.98-.95,1.11-1.08-.34-.33-1.1,1.08-.7-.68-.34.32.71.69-.27.27c-.27-.13-.54-.28-.81-.43h0s-.21-.21-.21-.21l.5-.49-.34-.33-.5.49-.6-.58h-.33v.11s-.07-.05-.1-.08l1.22-1.19-.34-.33-1.26,1.22c-.29-.26-.54-.54-.8-.81l.33-.32.62.6.34-.32-.63-.61.87-.84-.34-.34-.87.85-1.09-1.06.94-.92-.34-.32-.94.92-.03-.03-.34.33.03.03-.02.02c-.27-.48-.5-.97-.7-1.48l.62-.6.76.74h.34v-.32l-.76-.74.45-.44-.33-.32-.46.44-1.22-1.19-.11.11c-.06-.29-.12-.58-.16-.87l.5-.49,1.07,1.04h.33v-.31l.28.27.14-.23c.25.39.51.77.8,1.14l-.68.66.34.32.64-.62c.67.81,1.41,1.55,2.27,2.18l-.43.72.8-.46c3.23,2.17,7.82,2.99,14.12,1.23,12.92-3.59,9.79-4.68,26.04-1.74,4.5.81,9.31,1.17,13.45-.77,1.14-.53,2.15-1.27,3.07-2.11l.61.6-.6.58.34.33.59-.58.39.38h.34v-.32l-.39-.38.36-.35-.34-.33-.35.34-.59-.58c.84-.83,1.55-1.79,2.16-2.82l.68.67-1,.97.34.32,1-.97.11.11c-.05.33-.12.65-.19.98l-.15-.15-1.11,1.08.34.32.83-.81c-.28,1.21-.7,2.36-1.32,3.4M66.01,69.92l1.13-1.1,1.19,1.15c-.77.02-1.55-.01-2.32-.06M62.95,69.66l.81-.78,1.02.99c-.61-.05-1.22-.13-1.83-.21M59.26,67.25l1.22,1.19-.78.76c-.12-.02-.25-.04-.37-.06l.07-.07-1-.98.87-.84ZM57.6,68.86l.46-.45.64.63c-.37-.06-.74-.12-1.1-.18M54.03,68.31l.32-.31.43.42c-.25-.04-.5-.07-.75-.1M50.76,67.94l.26-.25.32.3c-.2-.02-.39-.03-.59-.05M46.89,67.83l.72-.71.7.68c-.47,0-.95.01-1.42.03M44.2,68l.5-.48.4.39c-.29.03-.59.05-.89.09M40.67,68.63l.95-.93.63.62c-.52.1-1.05.2-1.58.31M36.88,69.45l-.55-.53,1.5-1.45,1.49,1.45c-.81.18-1.62.36-2.44.53M35.5,69.73l.5-.49.33.32c-.28.06-.56.11-.83.17M31.73,70.32l.72-.71.56.54c-.43.06-.86.12-1.28.16M28.24,70.43l.73-.71.75.73c-.49.01-.99,0-1.47-.02M25.87,70.13l.72-.7.98.96c-.58-.05-1.15-.14-1.7-.26M23.87,69.48l.14-.13.35.34c-.17-.06-.32-.13-.49-.2M18.63,65.07l.12-.12,1.09,1.06-.32.31c-.34-.4-.63-.82-.9-1.25M17.11,61.39l.87.84-.47.46c-.15-.43-.28-.86-.39-1.3M16.68,58.85l.31.3-.25.24c-.02-.18-.04-.36-.06-.54M16.56,55.99l.21.21-.21.21c0-.14,0-.28,0-.41M16.78,55.55l-.22.22c.02-.76.06-1.48.12-2.18.14.82.33,1.63.57,2.43l-.47-.46ZM18.67,60.14l-1.01-.99.36-.35-.33-.32-.36.35-.39-.38-.28.27c-.05-.56-.09-1.11-.1-1.66l.55-.53.43.42c.38,1.05.87,2.06,1.44,3.01l-.3.18ZM18.54,42.85c1.81-3.72,4.89-6.87,8.65-8.86,2.47-1.3,4.89-1.93,7.32-2.13.57,2.11-1.99,5.1,1.02,7.76,1.65,1.47,3.44,1.17,4.51.99l.59-.08c.08,0,.23.01.37.02-.03.02-.07.02-.1.04-.33.09-.65.27-.95.54-1.06.95-1.67,2.79-1.43,4.35.22,1.47,1.22,2.72,2.52,3.47-1.27,4.65-3.67,4.23-6.23,3.78-7.34-1.33-12.66,3.01-13.91,8.45-3.73-4.91-4.81-13.27-2.35-18.33M47.77,33.6c14.26,3.44,17.49.97,24.46,3.18,5.19,1.65,9.3,5.92,10.52,10.8-11.51-5.19-15.1-3.89-21.83.16-2.58,1.55-5.01,3.02-7.9,3.29-2.18.19-4.94-.61-6.16-2.73.62-.55,1.15-1.21,1.41-2.01,1.23-3.68-2.3-7.18-6.02-6.22-.44-.31-1-.51-1.68-.46l-.69.09c-1.01.17-2.41.4-3.72-.75-2.48-2.2-.21-4.73-.69-7.12,3.93-.15,7.93.74,12.3,1.78M44.34,41.17l.04.04-.93.9-1.13-1.09c.81-.23,1.57-.25,2.24-.07l-.23.22ZM40.62,47.36l.57.56.17.06.17-.06v-.33l-.57-.55,1.71-1.67v-.32h-.34l-.63.62-1.18-1.15.51-.49.84.81.17.07.17-.07v-.33l-.84-.81.56-.55.59.57.17.06.17-.06v-.33l-.59-.57.17-.17v-.32h-.33l-.17.17-.88-.86.22-.18h.3s.34-.19.34-.19l2.46,2.39.34-.33-.91-.88.93-.9.85.83-.73.71.33.33.73-.71.3.29h.34v-.32l-.3-.29.09-.08-.33-.32-.09.08-.97-.95c1.96.73,3.1,2.94,2.44,4.9-.56,1.67-2.41,2.86-4.22,2.72-1-.08-1.91-.59-2.6-1.3l.06-.06ZM40.28,47.03l-.02.02c-.05-.07-.11-.13-.16-.2l.18.18ZM39.84,42.87l.84.82-.51.49-.41-.39h-.23c.07-.32.17-.63.3-.92M40.58,41.99l.08-.06.92.9-.56.55-.94-.91c.07-.11.13-.23.2-.33l.29-.14ZM39.46,45.35c-.06-.39-.03-.79.02-1.19l.36.35-.22.21v.33l.17.07.17-.07.22-.21,1.18,1.15-.74.72-.96-.94h-.05c-.04-.14-.12-.27-.15-.42M76.06,62.06c-8.03,3.76-17.55-1.62-26.23-.96-8.58.64-17.91,7.53-25.84,2.91-.86-.5-1.64-1.17-2.35-1.95.87-5.53,6.16-9.38,11.85-8.61,2.77.37,6.69,1.97,8.41-4.11.38.13.76.27,1.17.31h.39c.95.01,1.86-.3,2.66-.78,1.32,2.14,3.95,3.11,6.25,3.11l.75-.03c3.11-.28,5.75-1.87,8.31-3.42,6.46-3.89,9.75-5.23,21.36.07.09.04.14.01.21.03.86,5.42-2.08,11.17-6.93,13.43M83.3,57.9l-.05-.05-.16.16-.77-.75c.44-.8.82-1.62,1.1-2.49.02,1.03-.01,2.08-.12,3.13M84.1,50.81s-.01-.01-.02-.03c.02-.84-.02-1.69-.17-2.53-.99-5.54-5.56-10.51-11.38-12.35-7.22-2.29-10.29.23-24.53-3.2-3.8-.91-7.74-1.86-11.67-1.86-3.4,0-6.49.7-9.59,2.33-3.95,2.09-7.16,5.38-9.06,9.28-.79,1.62-1.26,3.91-1.34,6.42l-.1.09c-.41,4.31-2.68,14.97,5.04,20.22,5.45,3.71,12.92,1.84,17.22.86,7.01-1.59,9.28-1.89,19.14-.22,4.55.77,9.19,1.53,13.78.85,4.92-.74,8.94-3.14,11-6.58,2.39-4.01,2.11-9.49,1.67-13.27"/>
</svg>