<?xml version="1.0" encoding="UTF-8"?>
<svg id="Layer_1" xmlns="http://www.w3.org/2000/svg" viewBox="0 0 100 100">
  <defs>
    <style>
      .cls-1 {
        fill: #f17324;
      }
    </style>
  </defs>
  <path class="cls-1" d="M62.74,73.4h.39v.38l-2.18,2.2c-.25.26-.63-.13-.38-.39l2.17-2.19ZM63.21,74.59c-.82,3.14-5.52,5.82-11.25,6.49v-.27l-.32-.32-1.9-1.92,1.22-1.22,1.77,1.78-.79.8c-.25.26.13.65.39.39l.79-.8.8.81h.39v-.39l-.8-.81,1.22-1.22,1.16,1.17h0s0,0,0,0l.06.06h.38s0-.13,0-.13l3.2-3.22.85.86h.38v-.39l-.85-.85,1.96-1.97.1.1h.39v-.39l-1.83-1.84,1.58-1.59.73.73c.46,1.4.72,2.8.37,4.13M48.1,81.23v-.22l-.38-.39,1.39-1.4.26-.26.68.68,1.49,1.5c-1.11.11-2.26.14-3.43.09M51.35,76.96l.48-.49.73-.74,1.77,1.78-1.22,1.22-1.77-1.78ZM47.32,81l.18.18c-.11,0-.22-.02-.33-.03l.15-.15ZM36.37,76.38c-1.32-2.33-.57-5.32.34-7.93,1.63-4.64,3.58-9.97,6.25-14.63,3.84.52,7.8.24,11.52-.83,2.42,4.55,5.18,9.89,7.52,15.31.09.22.18.44.26.65h-.16l-1.41-1.42h-.39v.39l1.41,1.42-1.58,1.59-.3-.3h-.39v.39l.3.3-.79.8v.39h.38l.79-.8,1.34,1.35-1.95,1.97-2.03-2.04h-.38v.39l2.02,2.04-3.06,3.08-.97-.97,2.85-2.87v-.39h-.38l-2.86,2.87-1.57-1.58-.2-.2.05-.05v-.39h-.39l-3.25,3.27-.48-.48h-.39v.39h0s.09.09.09.09l.39.39-1.64,1.66-1.29-1.29h-.39v.39h0s.31.32.31.32l.97.97-.18.18v.32c-.42-.04-.85-.1-1.27-.17v-.34l-1.31-1.31-.61-.61h-.38v.38h0s.6.61.6.61h0l1.17,1.17c-1.49-.27-2.98-.68-4.43-1.29-2.11-.89-3.43-1.9-4.16-3.19M55.24,52.08l-.63-.27c-3.81,1.16-7.9,1.46-11.84.88l-.55.26c-2.83,4.82-4.85,10.34-6.53,15.14-.99,2.85-1.8,6.12-.26,8.84.86,1.51,2.35,2.67,4.69,3.66,2.81,1.18,5.94,1.81,9.07,1.81s6.48-.67,9.38-1.93c6.97-3.04,6.68-7.42,4.45-12.59-2.43-5.61-5.29-11.12-7.77-15.78M65.09,64.11c-.12-.23-.24-.47-.36-.7-.65-1.25-1.25-2.53-1.87-3.8.05-.14.06-.3-.02-.44-1-1.9-.38-4.04.26-6.31.36-1.24.73-2.54.8-3.78.1-1.7-.47-4.06-2.36-5.1-1.68-.93-3.64-.44-5.42.18-.3-.77-.61-1.54-.9-2.32l9.61-.67c2.31-.17,3.99-.04,4.42,3.12.49,3.58-.78,7.18-2.01,10.66-1.05,2.98-2.12,6.03-2.16,9.17M61.26,56.34c-1.71-3.66-3.27-7.4-4.74-11.16,1.54-.54,3.2-.95,4.5-.23,1.45.8,1.88,2.7,1.8,4.08-.06,1.12-.4,2.29-.76,3.54-.36,1.25-.71,2.52-.8,3.78M66.89,75.21c-.78,3.9-4.25,6.51-7.25,7.66-5.03,1.92-16.48,1.95-21.04.55-3.36-1.03-5.79-2.92-7.03-5.47-1.26-2.58-1.23-5.75.07-9.16.66-1.74,1.85-3.77,3.23-6.12,3.41-5.81,7.97-13.68,10.51-26.11h.32l.77-.77.57.58h.38v-.39l-.57-.57.85-.86v-.14c.07,0,.14,0,.21,0v.03l.77.77-.42.42v.39h.39l.42-.42.3.3h.38v-.38l-.3-.3.79-.8v.17l.45.46-.45.46v.39h.38l.46-.46.62.62h.37c3.16,9.57,7.07,18.95,11.74,27.93,1.89,3.65,3.85,7.42,3.09,11.24M45.84,34.39c.4.01.8.05,1.2.05l-.57.58-.63-.63ZM45.69,35.02l.39.39-.59.59c.07-.33.14-.64.2-.98M49.54,34.33l-.48.48-.44-.44c.31-.01.61-.02.92-.04M41.36,32.14c-.47-.75-.16-1.77.32-2.41.11-.15.28-.26.42-.39.1.09.25.13.37,0,.51-.52.51-.43.72-.22l.78.79h.38l-.18-.46.79-.8v-.02s0,0,.01,0v.16l.55.55-.49.49v.39h.39l.49-.49.32.32c.25.25.64-.13.38-.39l-.33-.33v-.28c.26.06.51.11.76.15v.22l.38.38-.7.7c-.26.25.13.64.39.38l.69-.7.56.56h.3c0,.21.27.4.46.2l.95-.96.72.72h.38s0-.38,0-.38l-.71-.72.4-.41c.3-.06.58-.15.86-.25l.23.24-.22.22c-.25.26.13.64.38.39l.22-.22.46.46h.06c-.05.23.23.47.44.25l.86-.87.3.3c.25.25.64-.13.38-.39l-.29-.3.27-.27c.22.24.45.47.61.75.37.67.53,1.64.04,2.3-.44.59-1.29.82-2.15.98-3.07.56-6.21.71-9.31.44-.97-.09-2.15-.28-2.65-1.07M43.84,29l-.28-.28c-.14-.13-.26-.19-.37-.25.25-.15.49-.31.75-.45.06.04.11.11.16.15.11.08.24.14.37.21l-.62.62ZM45.9,28.95s.07.02.11.03h-.08l-.03-.03ZM47.81,29.41l-.13-.13c.08,0,.15.01.23.02l-.11.11ZM48.19,29.79l.38-.38v-.07c.28.01.52.02.67.02h.25s0,0,.01,0v.06l.18.18-.94.94v-.18l-.56-.56ZM44.47,17.12c1.73-.42,3.52-.86,5.3-.72,3.92.31,5.14,2.78,4.9,6.47-.08,1.12-.22,2.28-.79,3.22-.96,1.56-2.9,2.14-4.4,2.17h-.22c-1.5,0-3.47-.26-4.53-.99-1.35-.93-2.58-4.59-2.84-6.71-.3-2.44.6-2.95,2.59-3.43M53.72,28.18l.26-.26c.16.14.33.27.48.41l-.29.29-.45-.45ZM52.34,28.78l-.06-.06c.06-.02.12-.04.18-.06l-.12.12ZM53.17,29.63l-.45-.45.6-.61.45.45-.6.61ZM51.42,34.14s.03.08.04.11l-.38.38-.4-.4c.25-.03.49-.07.74-.1M51.85,35.43l-.4-.39.19-.19c.06.2.14.39.2.59M70.33,44.13c-.55-4.07-3.06-4.24-5.58-4.06l-9.93.69c-.82-2.24-1.58-4.5-2.31-6.77.33-.05.67-.08,1-.14,1.08-.2,2.17-.51,2.83-1.41.68-.92.69-2.29.03-3.49-.46-.83-1.15-1.44-1.83-1.99.08-.11.19-.19.26-.31.7-1.15.87-2.52.95-3.72.33-4.97-2.02-7.32-5.9-7.63-1.93-.15-3.91.33-5.64.75-2.04.5-3.83,1.23-3.42,4.63.2,1.63,1.07,4.74,2.38,6.52-.84.48-1.72,1.02-2.37,1.86-.73.96-1.13,2.46-.37,3.66.76,1.2,2.25,1.48,3.47,1.58.27.02.54.02.81.04-2.41,13.45-7.24,21.73-10.8,27.77-1.41,2.4-2.62,4.47-3.31,6.29-1.41,3.71-1.42,7.18-.03,10.04,1.38,2.83,4.04,4.91,7.7,6.03,2.2.67,5.83,1.03,9.62,1.03,4.5,0,9.24-.51,12.11-1.61,4.17-1.6,7.21-4.84,7.93-8.47.59-2.96-.31-5.87-1.55-8.62.28-.27.44-.65.15-.94l-.31-.16c-.42-3.48.77-6.85,2.03-10.4,1.27-3.6,2.59-7.33,2.06-11.18"/>
</svg>