<?xml version="1.0" encoding="UTF-8"?>
<svg id="Layer_1" xmlns="http://www.w3.org/2000/svg" viewBox="0 0 100 100">
  <defs>
    <style>
      .cls-1 {
        fill: #f17324;
      }
    </style>
  </defs>
  <path class="cls-1" d="M28.59,70.85c.39.26.93.16,1.19-.23.26-.39.16-.92-.24-1.19h0c-.36-.24-.72-.5-1.07-.75-.38-.28-.92-.19-1.2.2-.26.38-.19.9.18,1.18.37.27.75.53,1.13.79M31.55,72.58c3.7,1.86,7.77,2.87,11.92,2.96h.02c.47.01.86-.37.87-.84,0-.47-.37-.86-.85-.87-3.89-.08-7.71-1.03-11.19-2.79-.42-.22-.94-.05-1.15.38-.22.42-.05.94.37,1.15h0ZM84.12,59.92c.01-.43-.01-.86-.08-1.3-.06-.29-.11-.63-1.66-.63H17.62c-1.45,0-1.59.31-1.69.82l-.05,1.11c0,.43.03.86.08,1.29h68.09c.05-.43.08-.86.08-1.29M83.69,62.92H16.3c1.1,3.89,4.34,7.51,9.39,10.4,6.48,3.71,15.11,5.74,24.31,5.74s17.83-2.03,24.31-5.74c5.05-2.89,8.29-6.5,9.39-10.4M62.08,79.57c-7.98,1.6-16.19,1.6-24.17,0v2.5h24.17v-2.5ZM17.27,56.28h.35s7.05,0,7.05,0l3.18-5.66-8.6-3.98-.73.16c-.24.16-.38.41-.41.69l-.84,8.8ZM24.23,47.05l4.46,2.07,1.54-2.75-3.64-2.7-.06-.05c-.46-.28-1.06-.14-1.34.31l-.97,3.12ZM27.83,54.14l.55-.19c.48,0,.87.4.87.88s-.4.88-.88.88-.88-.4-.87-.88v-.11s-.87,1.56-.87,1.56h16.64l-.97-1.66c.07.29-.01.59-.22.81-.33.35-.89.37-1.24.04-.36-.33-.37-.89-.04-1.24.34-.35.89-.37,1.24-.04l-5.14-8.82c-.22-.37-.52-.67-.89-.88-1.15-.65-2.62-.24-3.27.91l-4.91,8.74ZM40.41,47.96l1.57,2.69,10.06-6.57c-.2-.24-.44-.45-.71-.6l-9.39-5.24c-.32-.18-.71-.18-1.03.01-.31.18-.5.52-.5.88v8.83ZM42.84,52.13l2.42,4.14h6.94l-.15-1.16c-.09-.72,0-1.46.3-2.14.89-2.09,3.31-3.06,5.39-2.16l.05.02-.19-4.02c-.02-.42-.16-.83-.39-1.19-.73-1.11-2.21-1.42-3.32-.69l-11.03,7.21ZM52.75,42.38c.29.23.54.5.75.8,1.14-.52,2.45-.48,3.56.09l.24.13,1.72-1.83-3.81-2.97-.06-.04c-.46-.28-1.05-.14-1.33.31l-1.06,3.51ZM58.56,44.56c.45.64.7,1.39.74,2.16l.23,4.84,3.02,1.28c.34-.59.83-1.08,1.41-1.42l7.48-4.17-2.49-8.46c-.12-.41-.35-.78-.66-1.07-.96-.9-2.49-.86-3.4.11l-6.33,6.72ZM57.06,52.39c-.8-.35-1.72-.23-2.4.3-.68.51-1.04,1.36-.93,2.21l.18,1.38h12.29l-9.15-3.89ZM64.79,52.93l-.65.61,6.45,2.74h5.12v-9.44l-10.92,6.09ZM77.42,56.27h5.27s-.38-3.95-.38-3.95v-.09c-.11-.54-.64-.9-1.18-.79l-3.66,1.7-.05-.1v3.23ZM85.83,59.92c0,2.89-.98,5.68-2.91,8.3-1.83,2.48-4.44,4.7-7.76,6.59-3.32,1.9-7.17,3.38-11.36,4.39v3.73c0,.47-.38.86-.86.86h-25.88c-.47,0-.86-.38-.86-.86v-3.73c-4.18-1.01-8.04-2.48-11.36-4.39-3.31-1.89-5.92-4.11-7.76-6.59-1.94-2.62-2.92-5.41-2.92-8.3l.09-1.44c.18-.96.68-1.51,1.26-1.81l.9-9.35.07-.41c.38-1.43,1.84-2.29,3.27-1.92l.14.06,2.78,1.28.93-2.99.06-.15.22-.35c.89-1.19,2.57-1.43,3.75-.55l3.46,2.57.17-.3c.36-.64.88-1.17,1.51-1.53,1.96-1.15,4.48-.49,5.63,1.47l.3.51v-5.89c0-.47.12-.93.35-1.34.74-1.32,2.41-1.79,3.73-1.05l8.46,4.73.96-3.18.06-.15.23-.35c.88-1.19,2.56-1.43,3.75-.55h.02s3.94,3.09,3.94,3.09l3.44-3.65c.5-.53,1.13-.92,1.83-1.13,2.18-.65,4.47.59,5.12,2.78l2.37,8.09,2.08-1.16c.23-.13.5-.2.78-.2.88,0,1.6.71,1.6,1.6v4.63l3.07-1.42.15-.05.42-.08c1.49-.14,2.82.95,2.97,2.44l.42,4.45c.69.31,1.17.95,1.28,1.7.09.53.12,1.07.1,1.6M58.1,35.22c0,.49.39.88.87.88s.88-.39.88-.88-.39-.87-.88-.87-.87.39-.87.87M66.81,23.57l.36-.67c.22-.42.07-.93-.35-1.16-.42-.22-.94-.07-1.16.35l-.37.67c-.22.42-.07.94.35,1.16.42.22.94.06,1.17-.35M19.85,27.93c.37.29.91.22,1.2-.15.29-.37.23-.91-.15-1.2h-.01s-.6-.47-.6-.47c-.38-.28-.92-.2-1.2.19-.27.37-.2.89.15,1.17l.61.46ZM43.04,33.54c-.39.27-.48.81-.2,1.2.27.38.81.47,1.19.2h0s.62-.45.62-.45c.38-.27.47-.81.2-1.19-.28-.38-.82-.48-1.2-.2l-.62.45ZM52.02,30.19l.54-.39c.26-.4.13-.95-.28-1.2-.41-.26-.95-.14-1.2.27h0c-.26.42-.13.96.28,1.21l.67.11ZM53.79,25.71c.42.26.96.14,1.23-.27.27-.41.14-.96-.27-1.23-.42-.27-.96-.14-1.23.27-.26.41-.14.96.27,1.23h0ZM56.9,29.97l.2-.02.55-.39c.25-.41.13-.95-.29-1.21-.41-.25-.95-.13-1.2.28-.26.41-.14.95.27,1.2l.47.14ZM58.5,24.97h0s.46.13.46.13c.48,0,.87-.39.88-.87,0-.49-.39-.88-.87-.88s-.88.39-.88.88c0,.3.16.58.42.74M60.8,29.87l.46.12c.48,0,.87-.39.87-.87,0-.48-.39-.87-.87-.87-.49,0-.88.39-.88.87,0,.3.16.58.41.75h0ZM48.82,29.96l-.09.31c-.01.33.26.62.59.62l15.04.41.37-.2v-.42s-7.19-13.05-7.19-13.05l-.52-.31h-.01l-.52.29-7.66,12.34h0ZM47.36,29.06l7.66-12.35c.21-.34.51-.61.85-.81,1.12-.62,2.54-.22,3.16.91l7.2,13.05c.18.31.26.66.26,1.02,0,1.17-.95,2.13-2.12,2.13h-.06s-15.04-.41-15.04-.41c-.41,0-.81-.13-1.16-.35-1.09-.68-1.43-2.11-.75-3.2M33.81,34.33c.21-.43.03-.96-.4-1.17-.44-.21-.96-.03-1.17.41l-.04.66.44.5c.43.22.96.03,1.17-.41M29.02,23.15c-.46.16-.7.66-.54,1.11l.44.5.67.05c.46-.16.7-.66.55-1.11-.16-.46-.66-.7-1.12-.54M31.99,29.03c-.16-.46-.66-.7-1.11-.54-.46.16-.7.66-.54,1.12.12.35.46.59.83.59l.28-.05h0c.46-.16.7-.66.54-1.11M36.83,30.25c.21-.44.03-.96-.4-1.17-.44-.21-.96-.03-1.17.4l-.04.66.44.5c.44.21.96.03,1.17-.4M34.35,25.57c.21-.43.03-.96-.41-1.17-.43-.21-.96-.03-1.17.41l-.04.67.44.5c.44.21.96.03,1.17-.41M39.6,26.88c.21-.43.03-.96-.4-1.17-.43-.21-.96-.03-1.17.41l-.04.67.44.5c.43.21.96.03,1.17-.41M26.86,22.95l4.75,13.73.18.26.86-.06,9.8-11.4.1-.2-.34-.48-14.67-2.65h-.12s-.46.2-.46.2l-.11.6ZM25.24,23.51c-.13-.38-.16-.78-.09-1.17.23-1.27,1.44-2.11,2.7-1.88l14.68,2.65c.37.07.72.23,1.01.48.89.77.99,2.11.22,3l-9.81,11.4c-.44.51-1.08.81-1.75.81l-.45-.05c-.82-.15-1.49-.73-1.76-1.52l-4.75-13.73ZM22.83,54.83c0,.48.39.88.88.88s.87-.4.87-.88-.39-.88-.87-.88-.88.4-.88.88M23.22,51.95c.48,0,.87-.39.87-.87s-.39-.87-.87-.87-.88.39-.88.87c0,.48.39.87.88.87M19.95,54.72c.49,0,.88-.39.88-.87s-.39-.88-.88-.88-.87.39-.87.88.39.87.87.87M19.95,49.83c.49,0,.88-.39.88-.87s-.39-.87-.88-.87-.87.39-.87.87.39.87.87.87M26.48,44.83c-.48,0-.87.39-.87.87s.39.87.87.87.88-.39.88-.87-.4-.87-.88-.87M48.88,45.44c.49,0,.87-.39.87-.87s-.39-.88-.87-.88-.87.4-.87.88.39.87.87.87M43.22,47.33c0-.48-.39-.88-.88-.88s-.87.4-.87.88.39.88.87.88.88-.39.88-.87M44.64,44.62c.48,0,.87-.39.87-.87s-.39-.88-.87-.88-.88.39-.88.88.39.87.88.87M42.18,41.69c.49,0,.88-.4.88-.87s-.39-.88-.88-.88-.87.39-.87.88.39.87.87.87M55.26,41.85c.48,0,.87-.39.87-.88s-.39-.87-.87-.87-.88.39-.88.87.39.88.88.88M69.48,53.74c.49,0,.88-.39.88-.88s-.39-.87-.88-.87-.88.39-.88.87.4.88.88.88M64.42,47.55c.48,0,.87-.39.87-.88s-.39-.87-.87-.87-.88.39-.88.87.4.88.88.88M66.38,40.88c.48,0,.87-.39.87-.88s-.39-.87-.87-.87-.87.39-.87.87.39.88.87.88M69,46.09c.48,0,.88-.39.88-.88s-.4-.87-.88-.87-.88.39-.88.87c0,.49.4.88.88.88M61.48,51.14c.48,0,.87-.4.87-.88s-.39-.87-.87-.87-.88.39-.88.87.39.88.88.88M61.8,43.81c.49,0,.88-.4.88-.88s-.39-.88-.88-.88-.87.39-.87.88c0,.48.39.88.87.88M55.86,54.66c0,.49.39.88.87.88s.88-.39.88-.88-.4-.88-.88-.88-.87.4-.87.88M50.36,55.86c.48,0,.88-.39.88-.87s-.4-.88-.88-.88-.87.39-.87.88.39.87.87.87M50.69,50.97c.48,0,.87-.39.87-.87s-.39-.88-.87-.88c-.48,0-.88.4-.88.88,0,.48.4.87.88.87M54.94,48.53c.48,0,.87-.39.87-.87s-.39-.87-.87-.87-.88.38-.88.87.39.87.88.87M45.95,54.07c.48,0,.87-.39.87-.88s-.39-.88-.87-.88-.88.4-.88.88c0,.48.39.87.88.88M34.92,53.95c-.49,0-.88.39-.88.88s.39.88.88.88c.48,0,.87-.4.87-.88,0-.48-.4-.87-.87-.87M37.21,51.63c.48,0,.88-.39.88-.87s-.39-.88-.88-.88-.87.39-.87.88.39.87.87.87M31.97,52.44c.49,0,.88-.39.88-.88s-.39-.87-.88-.87-.87.39-.87.87.39.88.87.88M34.75,47.55c.48,0,.88-.39.88-.88s-.39-.87-.88-.87-.87.39-.87.87.39.88.87.88M73.41,55.37c.48,0,.88-.39.88-.88s-.4-.87-.88-.87-.88.39-.88.87.39.88.88.88M73.41,51.14c.48,0,.88-.4.88-.88s-.4-.87-.88-.87-.88.39-.88.87.39.88.88.88M80.39,53.3c-.48,0-.87.39-.87.87s.39.88.87.88.88-.39.88-.88-.39-.87-.88-.87M39.38,20.72c.48,0,.87-.39.87-.87s-.39-.88-.87-.88-.88.4-.88.88.4.87.88.87M56.76,20.91c-.26-.16-.42-.44-.42-.74,0-.49.4-.88.88-.88s.87.39.87.88-.39.88-.88.88l-.45-.13Z"/>
</svg>