<?xml version="1.0" encoding="UTF-8"?>
<svg id="Layer_1" xmlns="http://www.w3.org/2000/svg" viewBox="0 0 100 100">
  <defs>
    <style>
      .cls-1 {
        fill: #f17324;
      }
    </style>
  </defs>
  <path class="cls-1" d="M21.55,38.43l.16.12c1.87.43,3.86.37,5.69-.17,1.26-.38,2.8-1.13,3.38-2.58l13.32,4.59c.61.21,1.2.4,1.84.34.67-.06,1.46-.5,1.63-1.3.22-1.12-.95-1.95-1.34-2.23-3.72-2.63-7.79-5-12.09-7.04.07-1.82-.49-3.68-1.56-5.15-1.13-1.57-2.65-2.6-4.53-3.07l-.06.03c-3.3-1.42-7.22-1-10,1.08-2.9,2.19-4.27,6.08-3.34,9.46.88,3.18,3.75,5.56,6.91,5.92ZM24.53,38l.04-.04.04.04s-.06,0-.09,0ZM24.86,37.67l.62-.62v.09l.69.69c-.34.06-.68.1-1.03.13l-.29-.29ZM30.13,35.17c-.09.36-.28.67-.51.96l-.42-.41.05.02.14-.06.73-.73.1.11-.09.12ZM34.11,35.33l1.16,1.15c-.54-.19-1.12-.39-1.72-.59l.56-.56ZM36.34,36.23l.63.63-.16.16c-.3-.1-.61-.21-.93-.32l.46-.46ZM37.25,37.15l.04.04s-.04-.01-.05-.02l.02-.02ZM31.83,35.29l.22-.22.45.45c-.22-.07-.45-.15-.67-.23ZM39.88,38.09c-.37-.13-.75-.26-1.17-.41l.51-.51v.07l.76.76-.09.09ZM45.85,39.92c-.32.03-.56,0-1.61-.33l.73-.69,1,1s-.08.02-.11.03ZM29.19,23.2c1.08.51,1.99,1.28,2.73,2.28,1.01,1.4,1.51,3.18,1.39,4.9l.24.39c4.35,2.05,8.46,4.43,12.21,7.08.75.54,1.08,1,1,1.4-.04.22-.21.38-.42.5v-.06l-1.07-1.07.02-.02v-.29h-.31s-.1-.08-.1-.08h-.28v.29l.1.1-.7.7-1.28-1.28.38-.38v-.28h-.29l-.4.4h-.24v.24l-.28.28v.29h.28l.26-.26.97.98c-.59-.2-1.36-.47-2.35-.81l-.5-.5.59-.58v-.29h-.28l-.59.59-.75-.75h-.07l.2-.2v-.29h-.28l-1.07,1.07s-.07-.02-.1-.04l-.63-.63.73-.73v-.28h-.29l-.73.73-.64-.64v-.28h-.29l-.66.65-1.27-1.27.65-.64v-.29h-.29l-1.55,1.55-.88-.88.41-.41v-.29h-.29l-.41.42-.22-.22h-.29v.29l.22.22-.36.36c-.26-.09-.48-.17-.75-.26h-.02s-.22-.23-.22-.23l.51-.51v-.28h-.29l-.5.5-.17-.17h-.29v.29l.17.17-.73.73v.23l-.23-.23v-.09h-.09l-.06-.06h-.29v.2l-.98.99-.29-.29h-.29v.29l.29.29-.53.53v.29h.28l.53-.53.25.25h.29v-.29l-.25-.25.95-.94.64.64c-.66.63-1.64,1.06-2.75,1.31v-.09l-.8-.8h-.1l.55-.55v-.29h-.29l-1.37,1.37-.19-.19h-.29v.29l.19.19-.33.33c-.41,0-.8-.04-1.17-.09l-.23-.21s-.08,0-.12,0c.72-1.63,2.26-2.77,3.9-2.77h.13l.41-.37-.34-.44c-2.01-.34-3.25-1.84-3.69-3.02-.36-.98-.3-1.92.18-2.51.81-.99,2.02-1.56,3.31-1.56.81,0,1.59.22,2.28.66l.55-.11c.83-1.21.79-2.99.03-4.35ZM18.48,23.7c2.56-1.92,6.19-2.3,9.25-.96h.02c1.12.95,1.52,2.78.93,4.03-.72-.37-1.52-.57-2.35-.57-1.53,0-2.97.68-3.94,1.86-.67.82-.78,2.05-.31,3.31.48,1.3,1.48,2.37,2.71,3-1.43.51-2.63,1.72-3.21,3.26-2.8-.35-5.38-2.53-6.16-5.33-.85-3.07.41-6.61,3.05-8.6ZM50.68,38.41l-6.81,12.32c-.28.51-.61,1.09-.66,1.75-.05.67.24,1.53,1.01,1.82l.53.1c.77,0,1.45-.59,1.89-1.03,3.23-3.21,6.26-6.81,9.01-10.7,1.77.37,3.71.14,5.34-.65,1.74-.85,3.01-2.17,3.8-3.94v-.05c1.96-3.01,2.22-6.95.64-10.04-1.65-3.23-5.25-5.26-8.75-4.92-3.29.31-6.14,2.74-7.03,5.8l-.13.13c-1.28,3-1.39,7.85,1.16,9.41ZM44.9,53.57l1.35-1.35.17.17h.04c-.14.14-.27.29-.41.42-.46.46-.84.7-1.16.76ZM47.81,50.61l.18.18c-.42.45-.85.89-1.28,1.33v-.03l-.17-.17,1.27-1.27v-.05ZM56.39,41.97l1.22-1.22.7.69-.59.59c-.44.02-.88,0-1.32-.07ZM58.37,41.96l.3-.3.1-.04v-.06l1.16-1.16.48.48v.2h.2l.02.02h.29v-.23l.63-.63.32.32c-1.02.77-2.23,1.24-3.49,1.41ZM56.76,23.89c3.19-.31,6.45,1.54,7.95,4.49,1.45,2.85,1.2,6.49-.65,9.28v.03c-1.12.92-2.98,1.04-4.13.21,1.45-1.89,1.39-4.58-.19-6.41-1.46-1.7-4.87-1.06-6.63,1.27-.25-1.5-1.24-2.88-2.66-3.72.83-2.69,3.42-4.87,6.31-5.15ZM49.98,30.16l.24-.18s.02-.08.03-.13c1.53,1.02,2.38,2.79,2.04,4.45l.29.48.49-.26c1.08-3.04,4.79-3.97,6.06-2.51,1.41,1.63,1.38,4.06-.07,5.66v.56c.69.67,1.66,1.04,2.75,1.04.53,0,1.06-.09,1.54-.26-.34.48-.75.9-1.19,1.27l-.34-.34.28-.28v-.29h-.28l-.28.28-.1-.1h-.29v.29l.1.1-.61.6-.52-.52v-.1h-.1l-.21-.21h-.29v.29l.11.11-1.04,1.04-.7-.69.25-.25v-.28h-.29l-.24.24-.38-.38h-.29v.29l.38.38-1.13,1.13-1.04-1.03.41-.41v-.28h-.28l-.5.5h-.11v.11l-1.11,1.11v.29h.28l1.02-1.02,1.04,1.03h0c-.11-.02-.22-.03-.33-.05l-.43.16c-.29.41-.6.81-.9,1.22l-.99-.99h-.28v.29l1.03,1.02c-.51.7-1.04,1.39-1.57,2.07l-.37-.37,1.42-1.42v-.28h-.29l-1.42,1.41-.29-.29h-.29v.29l.29.29-.47.47v.29h.29l.47-.47.4.4c-.55.69-1.1,1.38-1.67,2.05l-.52-.52.76-.76v-.29h-.29l-.76.76-.4-.4h-.29v.29l.4.4-1.73,1.73.28.29,1.73-1.73.54.54c-.65.76-1.3,1.5-1.97,2.22l-1.08-1.08h-.29v.29l.65.65h-.04l-1.27,1.27-.51-.51h-.29v.29l.51.51-1.53,1.54c-.29-.18-.44-.58-.41-.92.04-.49.31-.99.56-1.42l7.02-12.69.03-.33-.22-.24c-2.03-.89-2.37-4.71-1.41-7.71ZM54.66,27.44l-.62-.46v-.28h.29l.54.54.42-.42-.42-.42v-.28h.29l.42.42.81-.81h.29v.29l-.81.81.69.69.78-.78-.54-.54v-.29h.29l.54.54.32-.32h.29v.29l-.32.32.75.76v.28l-.14.06-.15-.06-.76-.75-.78.78.59.59v.29h-.29l-.59-.59-.91.91h-.29v-.29l.91-.91-.69-.69-.42.42h.01v.3l-.18-.13-.31.31h-.28v-.28l.27-.27ZM19.24,25.95l.78.79h.29v-.28l-.79-.79.53-.53.43.43-.48.48.29.29.48-.48.32.32h.28v-.29l-.32-.32.66-.66.71.72h.28s0-.29,0-.29l-.71-.71.32-.32v-.29h-.29l-.32.32-.43-.43.22-.22v-.29h-.29l-.29.29h-.15v.15l-.72.72-.43-.43h-.29v.29l.43.43-.53.53-.83-.83h-.29v.28l.83.83-1.18,1.18v.29h.29l1.18-1.18ZM21,24.2l.43.43-.65.66-.43-.43.66-.65ZM68.51,52.88c1.13.17,1.91-1.04,2.16-1.44,2.44-3.84,4.62-8.02,6.44-12.41,1.82-.02,3.66-.68,5.07-1.81,1.51-1.2,2.47-2.78,2.85-4.67l-.03-.06c1.26-3.37.65-7.26-1.56-9.93-2.32-2.79-6.28-3.98-9.61-2.88-3.14,1.03-5.38,4.01-5.58,7.18l-.11.17c-.34,1.88-.19,3.87.45,5.68.43,1.23,1.25,2.74,2.74,3.25l-3.95,13.51c-.18.62-.35,1.22-.26,1.86.1.67.57,1.44,1.39,1.56ZM68.9,50.27l-.95,1.04s-.02-.07-.03-.11c-.04-.32-.03-.56.26-1.63l.72.7ZM74.08,20.45c3.03-1,6.62.08,8.74,2.63,2.04,2.46,2.59,6.07,1.41,9.19v.02c-.89,1.17-2.7,1.66-3.98,1.12.34-.74.5-1.55.46-2.37-.07-1.54-.83-2.94-2.05-3.85-.84-.63-2.09-.68-3.32-.15-1.27.54-2.29,1.59-2.87,2.85-.58-1.4-1.85-2.54-3.41-3.04.21-2.81,2.27-5.51,5.03-6.41ZM68.83,29.9s0-.05,0-.08l.04.04-.04.04ZM69.17,30.13l.65.59h-.09s-.65.72-.65.72c-.08-.33-.14-.67-.18-1.01l.27-.3ZM69.19,31.84h.08s.76-.84.76-.84v-.09s.57.52.57.52h.29s-.01-.3-.01-.3l-1.44-1.31.18-.2v-.28s-.3.01-.3.01l-.18.2-.34-.31c-.01-.41,0-.8.03-1.18l.2-.24s0-.08,0-.12c1.66.64,2.88,2.13,2.96,3.76v.12s0,.01,0,.01l.38.39.43-.36c.25-2.03,1.68-3.33,2.84-3.83.97-.42,1.91-.39,2.52.06,1.03.76,1.66,1.94,1.72,3.23.04.81-.15,1.6-.55,2.31l.14.55c1.24.77,3.01.64,4.34-.18-.46,1.1-1.17,2.06-2.15,2.83-1.34,1.08-3.1,1.67-4.82,1.63l-.39.25c-1.83,4.45-4.02,8.67-6.49,12.54-.5.79-.94,1.13-1.35,1.07-.22-.03-.39-.19-.51-.39h.06s1.02-1.13,1.02-1.13h.01s.29,0,.29,0l-.02-.29h-.01s.09-.11.09-.11v-.29s-.3.01-.3.01l-.1.11-.73-.67,1.21-1.33.4.37h.29s-.02-.3-.02-.3l-.43-.39v-.23s-.24,0-.24,0l-.3-.27-.29.02v.29s.28.24.28.24l-.92,1.01c.17-.6.4-1.39.7-2.39l.47-.52.61.55h.29s-.01-.29-.01-.29l-.62-.56.73-.8v-.06s.2.19.2.19h.29s-.01-.3-.01-.3l-1.12-1.01s.02-.08.03-.11l.59-.65.76.69h.29s-.01-.3-.01-.3l-.76-.69.61-.67h.27s0-.3,0-.3l-.68-.62,1.21-1.33.68.62h.29s-.02-.3-.02-.3l-1.62-1.47.83-.92.43.39h.28s0-.29,0-.29l-.43-.4.21-.23v-.29s-.3.01-.3.01l-.21.23-.37-.34c.08-.26.14-.49.22-.75v-.03s.21-.23.21-.23l.53.48.29-.02v-.28s-.54-.48-.54-.48l.16-.18v-.29s-.3.01-.3.01l-.16.18-.76-.69h-.23s.21-.23.21-.23h.08s0-.09,0-.09l.06-.07v-.29s-.22.01-.22.01l-1.03-.94.28-.31v-.28s-.3,0-.3,0l-.28.31-.56-.51h-.29s.01.3.01.3l.56.51-.23.25v.29s.3-.01.3-.01l.23-.26.99.9-.61.66c-.66-.63-1.14-1.59-1.44-2.68ZM69.82,43.96l.52.47h-.06s-.72.8-.72.8l-.09-.08c.11-.37.23-.76.35-1.19ZM70.26,42.46h.01s-.02.03-.02.03c0-.01,0-.02,0-.03ZM71.88,36.97l.23.21-.43.47c.06-.22.13-.45.2-.68ZM71.36,38.72l.58.53-1.09,1.2c.16-.54.33-1.12.51-1.72ZM70.67,41.08l.48.43-.6.66-.16-.14c.09-.31.18-.62.28-.95ZM70.93,34.8l.39-.43-.02.04.07.14.76.69-.1.11-.13-.09c-.36-.07-.68-.24-.98-.46ZM79.14,54.46l-.12-.12c-3.06-1.12-7.91-1.01-9.34,1.61l-12.63-6.21c-.53-.26-1.12-.55-1.79-.57-.67-.02-1.51.31-1.77,1.09l-.08.54c.04.77.66,1.42,1.12,1.84,3.36,3.07,7.1,5.93,11.12,8.49-.29,1.79.04,3.72.91,5.3.93,1.7,2.31,2.91,4.11,3.61l.06-.02c3.11,1.82,7.04,1.9,10.05.17,3.15-1.8,5-5.49,4.5-8.97-.48-3.27-3.03-6-6.13-6.75ZM54.25,50.91l1.41,1.28-.16.18v.04c-.14-.13-.29-.25-.44-.38-.47-.43-.74-.79-.82-1.11ZM55.96,52.47l1.33,1.21h.04s-.17.18-.17.18c-.47-.4-.93-.8-1.39-1.21h.02s.16-.18.16-.18ZM66.38,63.15c-.04-.44-.03-.88,0-1.32l1.27,1.15-.66.72-.61-.56ZM66.49,63.8l.3.28.05.1h.06s1.22,1.1,1.22,1.1l-.45.5h-.2s.01.21.01.21l-.02.02v.28s.26-.01.26-.01l.65.59-.3.33c-.82-.98-1.34-2.17-1.57-3.41ZM68.35,67.51l.32-.36.29.26h.28s-.01-.3-.01-.3l-.29-.26.1-.11-.02-.29h-.28s-.1.12-.1.12l-.63-.57.5-.55h.1s0-.11,0-.11l.19-.21v-.29s-.3.01-.3.01l-.1.11-1.1-.99.66-.73.26.23h.29s-.02-.3-.02-.3l-.26-.23.36-.4v-.28s-.3,0-.3,0l-.36.4-1.18-1.07.98-1.08.43.39.28-.02v-.29s-.54-.47-.54-.47v-.1s-.11,0-.11,0l-1.16-1.05-.29.02v.28s1.08.97,1.08.97l-.99,1.08h0c.02-.11.02-.22.04-.33l-.18-.42c-.43-.27-.84-.56-1.26-.84l.94-1.03v-.29s-.3.01-.3.01l-.98,1.08c-.72-.48-1.44-.97-2.14-1.47l.35-.39,1.49,1.35h.29s-.01-.29-.01-.29l-1.49-1.35.28-.31v-.29s-.3.02-.3.02l-.28.31-.49-.45h-.29s.02.31.02.31l.49.44-.39.42c-.72-.51-1.43-1.03-2.12-1.57l.5-.55.79.72h.29s-.01-.3-.01-.3l-.8-.72.38-.42v-.29s-.3.01-.3.01l-.38.42-1.81-1.64-.27.3,1.81,1.64-.51.57c-.79-.61-1.56-1.23-2.32-1.86l1.02-1.13v-.29s-.3.01-.3.01l-.62.69v-.04s-1.33-1.21-1.33-1.21l.49-.54v-.29s-.3.01-.3.01l-.49.54-1.61-1.46c.17-.29.56-.46.9-.45.5.01,1,.26,1.45.48l13.01,6.4h.33s.23-.22.23-.22c.79-2.07,4.58-2.59,7.62-1.79l.2.24s.08.02.12.02c-.94,1.57-2.66,2.51-4.34,2.24l-.46.31.28.48c3.08.93,4.19,4.6,2.79,5.93-1.56,1.48-3.99,1.57-5.65.2l-.56.05c-.64.71-.96,1.69-.9,2.79.02.53.14,1.04.33,1.52-.5-.32-.93-.71-1.33-1.13ZM80.37,69.48c-2.78,1.59-6.43,1.52-9.3-.2h-.03c-.98-1.07-1.19-2.92-.41-4.11,1.96,1.36,4.64,1.17,6.4-.5,1.62-1.54.83-4.91-1.59-6.56,1.48-.33,2.81-1.38,3.58-2.84,2.72.69,5.03,3.18,5.45,6.06.46,3.16-1.22,6.5-4.1,8.15ZM80.84,61.28l.82.74.52-.57h.28s.01.27.01.27l-.51.57.34.31v.29s-.28.01-.28.01l-.34-.31-.72.8h-.28s-.07-.13-.07-.13l.06-.15.72-.79-.82-.74-.56.62h-.29s-.01-.27-.01-.27l.56-.62-.95-.86v-.29s.27-.02.27-.02l.96.87.65-.72-.44-.4h0s-.29.03-.29.03l.12-.18-.33-.3-.02-.29.29-.02.28.26.43-.64h.29s.01.27.01.27l-.52.56.43.4.39-.43h.28s.01.27.01.27l-.39.43.85.77.02.29h-.29s-.85-.76-.85-.76l-.65.72ZM80.6,23.94l-.75.83v.29s.3-.02.3-.02l.75-.83.55.5-.41.45-.5-.46-.27.31.5.45-.3.33v.28s.31-.01.31-.01l.3-.33.69.62-.68.75v.29s.3-.01.3-.01l.68-.75.34.3h.29s-.02-.3-.02-.3l-.33-.3.41-.46.23.21h.28s-.01-.3-.01-.3l-.3-.27v-.16s-.16.01-.16.01l-.75-.69.41-.45v-.29s-.3.01-.3.01l-.41.45-.55-.5.79-.87v-.29s-.3.01-.3.01l-.79.87-1.24-1.12h-.28s0,.3,0,.3l1.24,1.12ZM82.44,25.61l-.41.45-.69-.62.41-.45.69.62ZM61.37,64.5l-.11-.16c-1.64-.99-3.56-1.55-5.46-1.59-1.31-.03-3.01.2-4.02,1.41l-11.24-8.49c-.51-.39-1.01-.76-1.64-.89-.65-.15-1.54.02-1.95.74-.56,1,.29,2.15.57,2.53,2.72,3.65,5.86,7.16,9.32,10.44-.62,1.7-.66,3.65-.1,5.38.59,1.84,1.72,3.29,3.36,4.32h.06c2.7,2.37,6.55,3.18,9.84,2.06,3.44-1.18,5.95-4.45,6.11-7.96.15-3.3-1.84-6.45-4.74-7.77ZM58.32,63.97s.05.02.08.03l-.05.03-.03-.06ZM57.99,64.21l-.79.4.03-.09-.44-.86c.34.05.68.11,1.02.19l.18.36ZM53,64.2l.27.52-.04-.04h-.15s-.92.48-.92.48l-.07-.13.13-.09c.19-.31.47-.55.78-.75ZM48.47,63.57l-.74-1.45c.45.34.94.71,1.44,1.09l-.7.36ZM46.64,62.02l-.4-.79.19-.1c.25.19.52.39.79.6l-.58.3ZM46.05,60.86l-.02-.03s.02.02.03.03h-.02ZM50.64,64.31l-.28.14-.29-.57c.18.14.38.29.57.43ZM43.84,59.16c.31.24.63.48.99.75l-.63.32.02-.05-.49-.96.12-.06ZM40.16,56.39l-.91.43-.63-1.24s.07,0,.1,0c.32.07.54.17,1.43.82ZM47.51,73.61c-.53-1.64-.46-3.49.19-5.09l-.1-.45c-3.5-3.29-6.68-6.83-9.42-10.52-.55-.74-.72-1.28-.52-1.64.11-.19.31-.28.54-.33v.05s.68,1.36.68,1.36h-.01s-.09.28-.09.28l.28.09h.01s.07.12.07.12l.28.09.09-.27-.06-.13.89-.45.82,1.6-.48.24-.09.27.27.09.51-.26.23.08.08-.24.34-.17.09-.27-.27-.09-.32.16-.62-1.22c.5.37,1.16.87,1.99,1.5l.32.63-.74.38-.09.27.28.09.74-.38.49.96.05.02-.25.12-.09.27.28.09,1.35-.68s.06.05.1.07l.4.79-.92.47-.09.27.28.09.92-.47.41.8-.08.26.27.09.82-.42.82,1.6-.82.41-.09.27.27.09,1.95-.99.56,1.1-.52.26-.09.28.28.09.52-.27.14.28.27.09.09-.28-.14-.28.45-.23c.21.16.4.31.63.47h.02s.14.3.14.3l-.64.33-.09.27.27.09.64-.33.11.21.27.09.09-.27-.11-.21.92-.47.07-.22.14.28-.03.08.08.03.04.08.27.09.06-.2,1.24-.63.19.37.27.09.09-.27-.19-.36.67-.34.09-.28-.27-.09-.67.34-.16-.31-.27-.09-.1.27.16.31-1.19.61-.41-.8c.82-.39,1.89-.5,3.02-.4l-.03.08.51,1.01.1.03-.7.36-.09.28.27.09,1.72-.88.12.23.27.09.09-.28-.12-.23.41-.21c.38.13.75.28,1.09.45l.15.27s.07.03.11.04c-1.18,1.33-3.01,1.94-4.57,1.43l-.11-.04h-.01s-.49.22-.49.22l.18.52c1.81.95,2.51,2.75,2.57,4.02.05,1.05-.31,1.92-.94,2.34-1.08.69-2.4.86-3.63.46-.76-.25-1.44-.71-1.96-1.33l-.56-.06c-1.17.88-1.67,2.59-1.37,4.12-.87-.82-1.5-1.82-1.89-3.01ZM59.73,79.47c-3.03,1.03-6.6.27-9.09-1.95h-.03c-.76-1.26-.58-3.12.37-4.12.57.58,1.27,1.02,2.05,1.27,1.46.48,3.04.27,4.32-.55.89-.57,1.38-1.71,1.32-3.05-.06-1.38-.67-2.71-1.65-3.69,1.52-.05,3.03-.83,4.06-2.11,2.55,1.2,4.33,4.07,4.2,6.98-.15,3.19-2.43,6.16-5.56,7.23ZM43.96,45.9c.43-.39.91-.84,1.17-1.46.26-.62.24-1.53-.39-2.05l-.47-.26c-.73-.23-1.56.11-2.12.4-4.07,2.05-8.06,4.53-11.88,7.38-1.57-.91-3.49-1.28-5.28-1.03-1.91.27-3.54,1.13-4.84,2.56v.06c-2.81,2.26-4.27,5.92-3.73,9.34.56,3.59,3.36,6.63,6.79,7.39,3.23.72,6.69-.7,8.48-3.33l.16-.08c2.14-2.45,3.75-7.03,1.82-9.3l10.3-9.61ZM42.52,43.25c.55-.28.93-.35,1.25-.32l-1.62.82-.11-.21h-.04c.17-.1.34-.2.51-.29ZM40.17,44.79l-.12-.23c.54-.3,1.09-.59,1.63-.87v.03s.1.21.1.21l-1.6.81v.04ZM27.81,51.14l-.45-.87.75-.38c.42.12.83.28,1.23.47l-1.53.78ZM27.47,49.75l-.37.19h-.12s-.02.07-.02.07l-1.46.74-.31-.6.06-.18-.18-.06-.02-.03-.27-.09-.08.23-.79.4-.2-.4c1.21-.42,2.51-.49,3.76-.26ZM23.39,67.44c-3.12-.69-5.65-3.46-6.17-6.73-.5-3.16.87-6.55,3.48-8.62v-.03c1.36-.53,3.16-.07,4.01,1.08-1.97,1.35-2.75,3.92-1.81,6.15.87,2.07,4.3,2.52,6.7.85-.22,1.5.29,3.12,1.38,4.36-1.62,2.3-4.76,3.57-7.59,2.94ZM31.78,63.57l-.28.1s-.05.07-.07.11c-1.14-1.44-1.41-3.39-.57-4.86l-.13-.54-.55.09c-1.96,2.55-5.79,2.28-6.54.51-.83-1.99-.05-4.29,1.82-5.36l.17-.55c-.44-.84-1.25-1.49-2.28-1.83-.51-.17-1.03-.25-1.55-.23.47-.36.99-.62,1.52-.84l.22.43-.35.18-.09.28.28.09.35-.18.06.13.28.08.09-.27-.06-.12.76-.39.34.66-.03.1.09.03.13.26.27.09.09-.27-.07-.14,1.32-.67.44.87-.31.16-.09.27.27.09.31-.16.25.48.28.09.09-.27-.25-.48,1.42-.72.67,1.31-.51.26-.09.28.27.09.62-.32.1.03.04-.1,1.4-.71.09-.27-.27-.09-1.29.65-.67-1.31h0c.1.05.2.09.29.15l.46-.02c.41-.3.82-.59,1.23-.88l.63,1.24.27.09.09-.28-.66-1.29c.71-.5,1.41-1,2.13-1.48l.24.47-1.79.91-.09.27.28.09,1.79-.91.19.37.28.09.08-.27-.19-.37.59-.3.09-.27-.27-.09-.59.3-.26-.51c.73-.49,1.47-.97,2.21-1.43l.34.66-.96.49-.09.27.28.09.96-.49.26.51.27.09.09-.27-.26-.51,2.18-1.11-.19-.37-2.18,1.11-.35-.69c.85-.52,1.7-1.03,2.57-1.51l.69,1.36.28.09.09-.27-.42-.83.05.02,1.6-.82.33.64.27.1.09-.28-.33-.65,1.94-.99c.22.26.24.68.11,1-.19.45-.61.84-.97,1.18l-10.6,9.89-.13.3.14.29c1.66,1.48.79,5.21-1.04,7.77ZM26.6,64.66c.14.26.27.56.34.69l-.09.27-.27-.09-.35-.68-.52.26.27.52-.09.28-.27-.09-.27-.52-1.02.52-.27-.09.08-.28,1.02-.52-.44-.87-.98.5.35.69-.09.27-.27-.09-.35-.68-.41.21-.27-.09.08-.27.41-.21-.49-.96.09-.27h.15s.12.09.12.09l.49.96.98-.5-.38-.75.09-.28.27.09.38.75,1.15-.58.27.09-.09.27-1.15.58.44.87.52-.26h0s.09-.29.09-.29c.07-.04.16.02.25.12l.28-.14.27.09-.09.28-.23.12Z"/>
</svg>