<?xml version="1.0" encoding="UTF-8"?>
<svg xmlns="http://www.w3.org/2000/svg" version="1.1" viewBox="0 0 100 100">
  <defs>
    <style>
      .cls-1 {
        fill: #f17324;
      }
    </style>
  </defs>
  <!-- Generator: Adobe Illustrator 28.6.0, SVG Export Plug-In . SVG Version: 1.2.0 Build 709)  -->
  <g>
    <g id="Layer_1">
      <g>
        <path class="cls-1" d="M80.8,40.3l-.2-.2v-.3c3.2-8.5,1.7-18.9-.7-23.1-.2-.4-.9-.5-1.2,0-1.8,2.9-7,5.8-10.3,6.4-3.9.7-7.2,1.7-10.2,3-.1,0-.3.1-.5.2l-1,.5v-1c0,0,0-.3,0-.3,0-3-2-5.7-4.9-6.6h-.2c0,0,0-.3,0-.3-.8-2.2-2.9-3.6-5.2-3.6s-1.3.1-2,.4c-1.8.7-3.2,2.3-3.5,4.2v.3c0,0-.4,0-.4,0-1.5.3-2.7,1.1-3.6,2.3-.8,1.2-1.2,2.7-.9,4.2.2,1.2.8,2.2,1.7,3.1l.3.3-.2.3c-.7,1.3-.8,2.8-.4,4.2v.3c0,0-.2.2-.2.2-.6.5-1.1,1.1-1.5,1.8l-.7,1.1-.3-1.3c-.6-2.5-2.9-4.4-5.5-4.4s-.9,0-1.2.1c-.1,0-.2,0-.3,0h-.3c0,0-.2-.2-.2-.2-1.1-1.4-2.9-2.3-4.7-2.5h-.3s-.1-.3-.1-.3c-.8-1.4-2.2-2.2-3.8-2.2s-1.5.2-2.2.6c-1,.6-1.7,1.5-2.1,2.6-.3,1.1-.2,2.3.4,3.3.2.4.4.6.7.9l.2.2v.3c-.4,1.8,0,3.7,1,5.2v.2c.1,0,0,.2,0,.2-.2,1.6.3,3.2,1.3,4.4l.2.2v.3c-.2.3-.2.6-.3.9v.4c0,0-.4,0-.4,0-1.1.3-2.1.9-2.7,1.9-.6,1-.8,2.2-.5,3.3.4,1.6,1.6,2.8,3.2,3.2.2,0,.3,0,.4,0v.4c.3,8.9,4.5,17.2,11.6,22.7.1.1.2.2.4.2s.4,0,.6-.3c.1-.2.1-.4.1-.5,0-.2-.1-.3-.3-.5-6.7-5.2-10.7-12.9-11-21.3v-.5s21.8,0,21.8,0v.5c.7,12,10.6,21.5,22.6,21.5h1.6l-1.4.9c-4.8,3.3-10.3,5-16.1,5h0c-4.7,0-9.3-1.2-13.4-3.4-.1,0-.2-.1-.4-.1-.3,0-.5.1-.6.4,0,.2,0,.3,0,.5,0,.2.2.3.3.4,4.3,2.3,9.2,3.6,14.1,3.6h.1c7.4,0,14.5-2.7,20-7.6h.1c0,0,.1-.1.1-.1,10.6-2.1,18.4-11.4,18.4-22.3s-1.9-10.5-5.4-14.6ZM63.4,33.6c11.7,0,21.3,9.6,21.3,21.3s-9.6,21.3-21.3,21.3-21.3-9.6-21.3-21.3,9.6-21.3,21.3-21.3ZM79.8,38.1l-.2.8-.6-.6c-1.5-1.4-3.3-2.7-5.2-3.7l-.5-.3.3-.5c1.3-2,2.3-4,3-6.2,0-.2,0-.4,0-.5,0-.2-.2-.3-.3-.3-.1,0-.2,0-.3,0h-.6s.2.2.2.2c0,0-.2.2-.2.3h0c-.7,2.3-1.7,4.3-3,6.3l-.2.3-.4-.2c-2.6-1-5.3-1.5-8-1.5s-2.5.1-3.7.3h-.6c0,.1,0-.5,0-.5v-.3c0-1.2-.3-2.4-1-3.5l-.3-.5.5-.2s0,0,0,0h0c0,0,0,0,.1-.1,2.8-1.3,6.1-2.2,9.9-2.9,3.2-.6,7.6-3,10-5.5l.6-.6.3.8c1.6,4.4,2.4,12.2.3,19ZM52.5,35.3h0s0,0,0,0ZM57.8,32.6v.3c0,0-.4,0-.4,0-1.7.5-3.3,1.1-4.9,2h0s0,0,0,0h-.1c-.8.5-1.5.9-2.1,1.4l-.7.5v-.8c-.5-2.6-.9-5.3-1.3-7.9l-.8-5.8c0-.4-.4-.6-.7-.6h0c-.2,0-.3.1-.5.3,0,0-.2.3-.2.5l1.1,7.8c.4,2.5.7,4.9,1.1,7.4v.3s-.2.2-.2.2c-2.5,2.3-4.5,5.2-5.7,8.3v.3h-2.9v-.6c.2-.4.2-.7.2-1.1,0-2.4-1.2-4.5-3.2-5.8l-.3-.2v-.4c.5-1.3,1.3-2.4,2.5-3.2.3-.2.4-.6.3-.9-.3-.6-.4-1.2-.4-1.8,0-1,.3-1.9,1-2.7.1-.1.2-.3.2-.5,0-.2-.1-.3-.3-.5h0c0,0,0,0,0,0-1.2-.7-2-2.1-2-3.5,0-2.3,1.9-4.2,4.2-4.2s.7-.3.7-.7c0-2.3,1.8-4.2,4.1-4.2h.1c1.9,0,3.6,1.4,4.1,3.2,0,.3.3.5.6.5,2.6.5,4.4,2.7,4.4,5.3s0,.6-.1,1c0,.3,0,.6.3.7.3.2.6.5.9.8.9,1,1.4,2.3,1.4,3.6s0,.6,0,.9ZM16.7,34.8c.1-.3,0-.6-.3-.8-.8-.5-1.2-1.4-1.2-2.4,0-1.6,1.3-3,3-3s2.4.8,2.8,2c0,.3.4.5.7.5h.2c1.9,0,3.6,1,4.6,2.6.2.3.6.4.9.3.5-.3,1.2-.4,1.8-.4,2.3,0,4.2,1.9,4.2,4.2s0,.7-.2,1.1c0,.2,0,.4,0,.6,0,.2.2.3.4.3h0c.4,0,.9.2,1.3.4,2,.9,3.2,2.8,3.2,4.9,0,.5,0,.9-.2,1.3v.4h-9.1v-.3c-1.8-3.3-3.4-5.7-5.6-8.9l-1-1.5c-.1-.2-.3-.3-.6-.3h-.2c0,0,0,.1-.1.1-.2,0-.3.2-.3.4,0,.2,0,.4,0,.6l1,1.6c1.8,2.6,3.3,4.9,4.8,7.6l.4.7h-8.5v-.6c.2-.3.3-.6.4-.8.1-.3,0-.6-.2-.8-.9-.8-1.5-1.9-1.5-3.2s0-.6.1-.9c0-.2,0-.5-.1-.6-.8-1-1.2-2.2-1.2-3.4,0-.6.1-1.2.3-1.7ZM41.7,48.3l-.2.6c-.4,1.6-.7,3.2-.8,4.8v.5h-22.6c-1.6,0-3-1.3-3-3s1.2-2.8,2.7-2.9h23.8Z"/>
        <path class="cls-1" d="M58.5,60.5h4.2v9.1c0,.3.2.6.5.7h0c0,0,.2,0,.2,0,.4,0,.7-.3.7-.7v-9.1h4.2c5.8,0,10.5-4.7,10.5-10.5s-.3-.7-.7-.7h-4.9c-2,0-4,.6-5.7,1.7l-.4.3-.3-.4c-2-2.5-5-4-8.2-4h-9.8c-.4,0-.7.3-.7.7v2.4c0,5.8,4.7,10.5,10.5,10.5ZM64.1,59v-.6c.7-4.4,4.6-7.8,9.1-7.8h4.2v.6c-.7,4.4-4.6,7.8-9.1,7.8h-4.2ZM65.7,52.5c-.7.7-1.3,1.5-1.7,2.3l-.3.5-.5-.3c-2.8-1.7-5.6-2.8-8.3-3.3h-.1c-.3,0-.6.2-.7.6,0,.1,0,.3.1.5.1.2.3.3.5.3,2.6.4,5.3,1.6,8.1,3.3l.3.2v.4c-.3.5-.4,1.1-.4,1.6v.5h-4.2c-4.9,0-8.9-3.9-9.1-8.8v-2h9.1c2.8,0,5.5,1.3,7.2,3.6l.3.3-.3.3Z"/>
      </g>
    </g>
  </g>
</svg>