<?xml version="1.0" encoding="UTF-8"?>
<svg id="Layer_1" xmlns="http://www.w3.org/2000/svg" viewBox="0 0 100 100">
  <defs>
    <style>
      .cls-1 {
        fill: #f17324;
      }
    </style>
  </defs>
  <path class="cls-1" d="M41.18,52.23v2.1c.37,0,.73.06,1.07.18l.16.35-.35.16c-.28-.11-.58-.15-.88-.16v2.47c.15.04.32.05.45.14.3.2-.02.64-.31.44-.04-.03-.1-.02-.14-.04v2.17l.32-.04.3.23-.23.3-.39.05v1.23l.45-.03.29.25-.25.28-.49.04v2.73l-.27.27-.27-.27v-2.7l-.4.03h-.02l-.27-.25.25-.29.44-.03v-1.2l-.3.04h-.03s-.27-.24-.27-.24l.24-.3.37-.05v-2.33c-.14.01-.29.03-.41.1l-.37-.09.09-.37c.2-.12.45-.15.68-.17v-2.37s-.03,0-.05,0l-.31-.21.22-.32s.09,0,.14,0v-2.16c-.17-.01-.34-.04-.51-.03l-.29-.25.25-.29c.18-.01.36.02.55.03v-1.8l.27-.27.27.27v1.83c.41.06.81.18,1.18.35l.13.36-.36.13c-.3-.14-.62-.24-.95-.3M56.55,68.57c-.49,2.97-2.88,5.58-5.84,5.58-2.32,0-4.29-1.68-5.49-3.84l.17-.17.48.48h.38v-.38l-.48-.48,1.73-1.73v-.38h-.38l-.47.47v-.13l-1.69-1.69,1.13-1.13.35.35h.38v-.38l-.35-.35.63-.63.39.38h.38v-.38l-.39-.39.59-.6v-.38h-.38l-.6.6-1.55-1.55c.32-.32.67-.6,1.07-.84l.9.9-.37.37v.38l.19.07.19-.07.37-.37,1.36,1.36h.38v-.04h.37l1.03-1.03.65.65h.38v-.38l-.65-.65.75-.75,1.11,1.11-.36.36v.38h.38l.36-.36.84.84c.24.25.63-.13.38-.38l-.84-.84.23-.23v-.38h-.38l-.23.23-1.22-1.22v-.15h-.15l-.28-.28c1.03.36,1.99.94,2.73,1.74,1.49,1.62,2.19,4.03,1.81,6.3M44.87,69.62l.14.14-.05.05c-.03-.06-.07-.13-.1-.19M44.32,66.82l.19-.08.06-.06,1.69,1.69h.13l-1,1.01-.98-.98c-.17-.56-.31-1.13-.37-1.7-.02-.19,0-.37-.01-.56l.16.16-.06.06v.38l.19.08ZM44.44,63.53l1.26,1.26-1.13,1.13-.4-.4h-.15c.03-.72.18-1.39.42-1.99M45.18,62.26l1.53,1.53-.63.63-1.39-1.39c.14-.27.31-.53.5-.77M48.63,60.24s.05,0,.07,0l1.96,1.96-1.03,1.03v.04l-1.35-1.35.8-.8v-.38h-.38l-.8.8-.77-.77c.46-.22.95-.4,1.51-.52M51.23,60.28v.24l.55.55-.75.75-1.65-1.65c.15-.01.31-.05.46-.05.46,0,.93.05,1.38.15M48.41,59.19c-4.49.94-5.75,4.55-5.43,7.62.42,4.04,3.49,8.4,7.73,8.4,3.5,0,6.33-3,6.9-6.47.43-2.59-.37-5.35-2.08-7.21-1.78-1.92-4.62-2.87-7.11-2.34M58.92,80.97c-1.74,1.84-4.62,2.15-7.42,2.3-.59.03-1.23.05-1.89.05-4.19,0-7.06-.79-8.53-2.35-1.74-1.83-1.88-4.62-1.88-7.55l.02-20.21c0-2.79.02-6.22,1.62-8.86,2.23,3.77,4.85,7.32,7.82,10.55l.39.17.34-.12c3.92-3.17,7.12-6.64,9.79-10.57,1.58,2.64,1.6,6.06,1.6,8.84l.02,20.21c0,2.93-.14,5.71-1.88,7.55M52.79,50.41l-.37-.36,1.36-1.36.24.24h.21c-.46.51-.96.99-1.45,1.48M50.31,52.73c-.41.35-.79.72-1.21,1.07-.45-.49-.86-1-1.3-1.51l1.03-1.03,1.47,1.47ZM50.72,52.37l-1.5-1.49,1.64-1.64.8.81-.32.32v.38h.38l.32-.32.37.37c-.55.53-1.12,1.06-1.69,1.57M53.73,43.85l1.32-1.32,1.47,1.47h-.15l-1.25,1.24-1.4-1.4ZM42.67,42.05c2.22-2.39,3.4-3.9,3.82-10.45l.48-.48.19.18h.38v-.38l-.19-.19,1.16-1.16v-.38h-.38l-.04.04v-.08l-1.21-1.21.95-.95.21.21h.38v-.38l-.21-.21.47-.47v-.38h-.38l-.47.47-.61-.61v-.12l-.09-.1h-.13l-.34-.34c0-.55,0-1.14,0-1.73l.67.67-.43.43v.38h.38l.43-.43.29.3c.25.24.64-.13.38-.37l-.3-.3.54-.54,1.06,1.06h.09c.08.13.26.2.41.06l.72-.73.43.43h.38v-.38l-.43-.43.26-.26v-.38h-.38l-.27.27-.38-.38h1.22s0,.03.01.04l.58.58-.1.1c-.25.24.13.63.38.38l.1-.11.31.31c.1.1.21.08.3.03,0,2.69.07,5.36.22,7.94.18,3.01.54,4.9,1.17,6.38l-1.19-1.19h-.38v.38l1.19,1.19-1.03,1.03v.38h.38l1.04-1.04.66.66s.1.05.14.06c.49.74,1.07,1.43,1.79,2.2.43.46.83.92,1.2,1.39-.69,1.04-1.43,2.04-2.2,3.01h0s-.83-.83-.83-.83l1.24-1.25v-.15l.28.28h.38v-.38l-3.08-3.08h-.38v.38l.72.72-1.32,1.32-.05-.05h-.38v.38l.05.05-.76.76v.38h.38l.76-.76,1.42,1.42c-.08.2.12.4.32.32l.85.85h.07c-.53.65-1.05,1.31-1.62,1.93v-.2l-.24-.24.33-.33v-.38h-.38l-.33.33-1.98-1.98h-.38v.38l1.98,1.98-1.36,1.36-.81-.81.92-.92v-.38h-.38l-.92.92-.8-.8h-.38v.38l.8.8-1.64,1.63-.6-.6h-.38v.38l.6.6-1,1c-2.22-2.66-4.22-5.5-5.96-8.48.36-.46.75-.9,1.17-1.35M44.64,20.92c-.46-.94-.42-3.39.38-3.91.66-.43,1.76-.27,8.95-.29,1.58-.03,1.64.38,1.64,1.24v.1l-.34-.34.02-.02c.25-.25-.13-.63-.38-.38l-.02.02-.06-.06h-.38v.38l.06.06-.24.24v.38h.38l.24-.24.72.72h0v.73c0,.22,0,.45-.02.67l-1.37-1.38h-.38v.38l.32.32h-.12l-.31.31-.4-.4h-.38v.37l.41.39-.61.61-.73-.73.63-.64v-.38h-.38l-1.62,1.62-.29-.29h-.38v.38l.29.29-.22.22v.32h-3.93l-.28.11c-.52-.02-1-.4-1.21-.83M55.04,21.16l.33-.33c.05-.05.07-.11.07-.17h.09c-.05.28-.14.52-.28.72l-.22-.22ZM54.42,19.8l.62.62s-.04,0-.05.02l-.33.34-.55-.55.31-.31v-.11ZM54.4,21.92l-.11-.03-.04-.1-.38-.16h-.36v-.04l-.39-.39.62-.62.66.63v.18h.19l.32.31c-.15.1-.3.19-.53.21M52.97,22.71l-.24.24-.24-.24h.48ZM50.82,21.63h-.33l.17-.17.17.17ZM52.75,21.59l.04.04h-.09l.04-.04ZM51.64,20.48l.73.73-.06.06c-.12.12-.09.27,0,.36h-.72l-.55-.55.6-.6ZM47.88,22.71l.38.38-.54.54-.92-.92h1.08ZM46.7,30.07h-.13c.02-.51.04-1.06.05-1.62l1.09,1.09h.07l-.81.81-.28-.29ZM46.54,30.67l.06.06-.06.06s0-.08,0-.12M47.46,26.61l-.81.81c0-.51.01-1.05.02-1.6l.79.79ZM49.97,24.04l-1.34-1.34h1.17v.04l.73.73-.57.57ZM53.33,23.55l-.22-.22.22-.22c0,.15,0,.29,0,.44M61.86,53.21c0-3.05,0-6.85-1.99-9.8-.03-.05-.08-.09-.11-.14-.03-.14-.1-.26-.23-.34-.01-.01-.03,0-.04,0-.43-.57-.9-1.1-1.37-1.6-.62-.66-1.2-1.28-1.67-2-.26-.39-.45-.83-.64-1.26l.03-.03v-.38h-.24c-.67-1.77-.85-3.78-.97-5.72-.17-2.89-.24-5.89-.22-8.92h.12c.63-.08,1.24-.43,1.59-.92.58-.81.58-1.81.57-2.54v-1.59c-.02-1.83-.92-2.31-2.73-2.31-7.05.02-8.48-.22-9.54.47-1.44.95-1.36,4.08-.76,5.29.33.68,1.06,1.27,1.91,1.4.02,3.1-.05,6.17-.23,9.13-.34,5.91-1.44,7.22-3.47,9.4-.61.65-1.23,1.32-1.75,2.09-1.99,2.96-1.99,6.75-1.99,9.81l-.02,20.21c0,3.03.17,6.17,2.17,8.28,1.68,1.78,4.81,2.68,9.31,2.68.68,0,1.33-.02,1.95-.05,3.02-.17,6.14-.51,8.15-2.63,2.01-2.12,2.18-5.25,2.18-8.28l-.02-20.21Z"/>
</svg>