<?xml version="1.0" encoding="UTF-8"?>
<svg id="Layer_1" xmlns="http://www.w3.org/2000/svg" viewBox="0 0 100 100">
  <defs>
    <style>
      .cls-1 {
        fill: #f17324;
      }
    </style>
  </defs>
  <path class="cls-1" d="M51.9,80.44v-.38l-1.44-1.44h-.38v.38l1.44,1.44.19.08.19-.08ZM50.6,80.62l.96-.97v-.38h-.38l-.96.96v.38l.19.08.19-.08ZM61.36,75.24l1.41-1.42v-.38h-.38l-1.41,1.41.19.46.19-.08ZM62.6,75.54v-.39l-1.46-1.46h-.39v.38l1.46,1.47.19.07.19-.07ZM38.4,76.13l1.89-1.88v-.39h-.38l-1.89,1.89v.38h.38ZM40.65,75.42v-.38l-1.34-1.35h-.39v.38l1.35,1.34.19.08.19-.08ZM39.64,76.25v-.38l-1.45-1.47h-.38v.38l1.46,1.46h.38ZM50.51,70.22l2.6-2.6v-.38h-.38l-2.6,2.6v.38h.38ZM53.98,69.35v-.38l-1.77-1.78h-.38v.38l1.77,1.77.19.08.19-.08ZM52.29,70.43v-.39l-1.78-1.78h-.38v.38l1.78,1.78h.38ZM32.35,67.53l2.01-2.01v-.38h-.38l-2.01,2.01v.38l.19.08.19-.08ZM34.59,67.12v-.38l-1.08-1.08h-.38v.38l1.08,1.08.19.08.19-.08ZM34.06,67.8v-.38l-1.89-1.89h-.38v.39l1.89,1.88.19.08.19-.08ZM60.6,58.2l2.14-2.14v-.38h-.38l-2.14,2.14v.38l.19.08.19-.08ZM62.71,57.44v-.38l-1.21-1.22-.38.38,1.22,1.21.19.08.19-.08ZM61.96,58.27v-.39l-1.63-1.63h-.38v.38l1.63,1.64.19.07.19-.07ZM45.44,58.33l2.21-2.2v-.38h-.39l-2.2,2.2v.38h.38ZM48.06,58.04v-.38l-1.58-1.58h-.38v.38l1.58,1.58.19.08.19-.08ZM46.75,58.79v-.39l-1.4-1.39h-.38v.39l1.39,1.39.19.07.19-.07ZM54.9,46.91l1.64-1.64v-.38h-.38l-1.64,1.64v.38l.19.08.19-.08ZM57.11,46.59v-.38l-1.08-1.09h-.39v.38l1.08,1.08.19.08.19-.08ZM56.2,47.3v-.38l-1.78-1.79h-.38v.38l1.79,1.78.19.08.19-.08ZM40.07,47.72l2.52-2.53v-.39h-.38l-2.53,2.52v.39l.19.07.19-.07ZM42.89,47.09v-.39l-1.84-1.84h-.38v.38l1.84,1.84.19.08.19-.08ZM41.5,47.85v-.39l-1.62-1.61h-.38v.38l1.62,1.62.19.07.19-.07ZM24.86,43.77l1.75-1.75v-.39h-.39l-1.75,1.75v.39l.19.07.19-.07ZM26.82,43.43v-.39l-1.14-1.13h-.38v.38l1.14,1.14.19.07.19-.07ZM26.15,44.06v-.38l-1.5-1.5h-.38v.38l1.5,1.5.19.08.19-.08ZM30.02,35.16l.58-.58v-.39h-.38l-.58.58v.39l.19.07.19-.07ZM27.6,34.17l.73-.73v-.39h-.38l-.73.73v.38h.38ZM24.19,35.2l1.35-1.35v-.38h-.39l-1.34,1.35.38.38ZM21.37,38.34l1.61-1.61v-.38h-.38l-1.61,1.61.38.38ZM32.87,36.26v-.39l-1.23-1.24h-.38v.38l1.23,1.24.19.07.19-.07ZM30.36,34.37v-.38l-1.14-1.14h-.38v.38l1.14,1.14.19.08.19-.08ZM27.97,34.04v-.38l-1-.99h-.38v.38l.99.99h.39ZM25.87,34.91v-.38l-1.32-1.32h-.38v.38l1.32,1.32h.38ZM24.12,36.16v-.38l-.96-.96-.39.39.96.96h.38ZM20.99,36.86c.29.29,1.13,1.3,1.4,1.02v-.38l-1.02-1.02-.38.38ZM44.32,37.54l.86-.86v-.39h-.38l-.86.87v.38l.19.07.19-.07ZM42.17,38.3l1.4-1.4v-.38h-.38l-1.4,1.4v.38l.19.08.19-.08ZM38.99,38.79l1.82-1.82-.38-.39-1.82,1.82.38.38ZM36.97,38.48l1.43-1.44-.38-.38-1.43,1.43.38.39ZM33.47,41.08l2.29-2.28-.38-.38-2.29,2.29v.38l.19.08.19-.08ZM32.85,44.22l1.84-1.84-.39-.38-1.84,1.84v.38l.19.08.19-.08ZM33.63,44.06v-.38l-1.19-1.19h-.38v.38l1.19,1.19.19.08.19-.08ZM34.31,41.91v-.39l-1.19-1.19h-.38v.38l1.19,1.2.19.07.19-.07ZM35.76,40.18v-.38l-1.88-1.89h-.38v.38l1.89,1.89h.38ZM45.6,37.29v-.39l-1.18-1.18h-.39v.39l1.19,1.19.19.07.19-.07ZM44.05,38.16v-.38l-1.39-1.4h-.38v.39l1.39,1.38.19.08.19-.08ZM42.04,38.48v-.39l-1.84-1.84-.39.38,1.84,1.84.19.08.19-.08ZM39.27,38.94v-.38l-2.44-2.43-.38.38,2.44,2.44h.38ZM37.27,39.27v-.39l-2.72-2.71h-.38v.38l2.71,2.72h.39ZM67.59,35.57l1.79-1.8-.38-.38-1.79,1.79v.39h.38ZM64.86,37.31l2.11-2.12v-.38h-.38l-2.11,2.11v.39h.38ZM66.07,39.55l1.42-1.42v-.38h-.38l-1.41,1.41v.39l.19.07.19-.07ZM66.7,41.3l1.23-1.23v-.38h-.38l-1.24,1.24v.38l.19.08.19-.08ZM67.1,44.35l1.43-1.43v-.39h-.38l-1.43,1.44v.38h.38ZM66.47,47.13l1.69-1.7-.38-.38-1.69,1.69.38.39ZM67.85,46.26v-.38l-1.28-1.28h-.38v.38l1.29,1.29h.38ZM68.48,44.19v-.38l-1.69-1.69h-.38v.39l1.69,1.68h.38ZM67.97,41.19v-.39l-2.35-2.35h-.38v.38l2.35,2.36.19.07.19-.07ZM69.86,34.5v-.38l-2.09-2.09-.38.38,2.09,2.09h.38ZM68.19,35.97v-.38l-2.07-2.07h-.38v.38l2.07,2.07h.38ZM66.5,37.33v-.38l-2.81-2.81h-.38v.39l2.81,2.8h.38ZM68.09,56.23l2.31-2.32v-.38h-.38l-2.31,2.31v.38l.19.08.19-.08ZM68.88,56.26v-.38l-1.15-1.15h-.38v.39l1.15,1.14h.38ZM69.93,55.02v-.38l-2.2-2.21h-.38v.39l2.2,2.2h.39ZM69.43,51.52v-.38l-2.69-2.69-.39.39,2.7,2.68.19.08.19-.08ZM67.72,59.1l1.33-1.33v-.38h-.38l-1.33,1.32v.39l.19.07.19-.07ZM64.5,62.95l1.9-1.9v-.38h-.38l-1.91,1.9v.38h.39ZM61.54,64.12l1.93-1.93-.38-.39-1.94,1.94v.38h.38ZM61.45,67.13l1.28-1.29-.38-.38-1.29,1.28v.39h.38ZM62.22,67.39v-.38l-1.35-1.35h-.38v.38l1.35,1.35.19.08.19-.08ZM68.2,59.03v-.38l-1.28-1.28h-.38v.38l1.28,1.28.19.08.19-.08ZM66.85,60.64v-.38l-1.14-1.13h-.38v.38l1.14,1.14.19.07.19-.08ZM65.59,62.3v-.38l-1.5-1.5h-.38v.39l1.49,1.49h.38ZM63.55,63.71v-.39l-1.47-1.47h-.38v.38l1.48,1.47h.38ZM62.5,65.03v-.39l-2.12-2.11h-.38v.38l2.12,2.12h.38ZM52.92,61.82l.19-.08.59-.59v-.38c-.28-.27-.68.3-.97.59v.38l.19.08ZM50.65,63.09l1.68-1.68v-.37h-.38l-1.69,1.68v.38l.19.08.19-.08ZM47.42,63.85l1.23-1.23v-.38h-.38l-1.23,1.23v.38h.38ZM44.23,64.26l1.43-1.43v-.38h-.38l-1.42,1.42.38.39ZM42.48,64.21l1.32-1.32v-.39h-.38l-1.32,1.33v.38h.38ZM42.48,67.26l1.1-1.09-.39-.38-1.09,1.09v.38h.38ZM43.29,67.66v-.38l-.99-.98-.38.38.98.99h.38ZM43.47,65.87v-.39l-1.66-1.66-.38.38,1.66,1.67h.38ZM53.72,61.14v-.38l-1.46-1.47-.38.39,1.65,1.54.19-.08ZM52.07,62.63v-.38l-1.83-1.83h-.38v.39l1.84,1.83.19.08.19-.08ZM49.77,63.52v-.38l-1.73-1.74h-.38v.39l1.73,1.73.19.07.19-.07ZM47.15,63.64v-.38l-1.48-1.48-.38.38,1.49,1.49h.38ZM44.82,64.12v-.38l-2.06-2.07h-.39v.38l2.06,2.07h.39ZM64.21,50.6l.81-.81-.39-.38-.8.81v.38h.38ZM61.56,51.53l1.38-1.38v-.37h-.38l-1.38,1.38v.38l.19.08.19-.08ZM59.25,52.07l.8-.81v-.38h-.38l-.8.8v.39h.38ZM56.53,52.38h.38l.64-.64-.38-.38c-.3.3-.92.74-.64,1.03M54.95,52.15h.39l.51-.51-.38-.39c-.28.29-.78.63-.51.89M54.66,53.9l.82-.82-.38-.39-.82.82v.38h.38ZM54.17,56.21l1.01-1.01-.38-.38-1.01,1v.39h.38ZM53.31,58.63l1.33-1.33-.38-.38-1.33,1.33v.38h.38ZM65.45,49.71v-.38l-.79-.8h-.38v.38l.79.8h.38ZM64.47,50.71v-.38l-1.04-1.05h-.38v.38l1.04,1.05h.38ZM62.4,51.61v-.38l-1.09-1.09h-.38v.38l1.09,1.09.19.08.19-.08ZM59.97,52.06v-.38l-1-1.01h-.38v.38l1.01,1.01h.38ZM57.17,52.27v-.38l-1.33-1.33-.38.38,1.33,1.33h.39ZM55.08,52.83v-.38l-1.1-1.1-.38.38,1.1,1.1h.38ZM55.21,54.24v-.38l-.81-.81-.38.38.81.82h.38ZM55.09,55.65v-.38l-.74-.75h-.38v.39l.74.74h.38ZM54.18,57.47h.38v-.39c-.31-.31-.77-.95-1.05-.67-.28.28.36.74.67,1.05M53.56,58.74h.38v-.39c-.3-.29-.71-.88-.99-.6-.28.28.31.7.61.99M49,49.73l.87-.88-.38-.38-.87.87v.38h.38ZM46.68,51.62l1.43-1.43-.38-.37-1.43,1.42v.39h.38ZM43.7,53.11l1.67-1.66v-.39h-.38l-1.67,1.67v.38h.38ZM41.25,53.45l1.43-1.43-.38-.39-1.43,1.44v.39h.38ZM38.65,53.23l.89-.88-.39-.38-.88.88v.38h.38ZM50.89,48.8v-.38l-.99-.99-.38.38.99.99h.38ZM49.61,49.33v-.38l-.81-.81h-.38v.38l.81.81h.38ZM48.49,50.77v-.39l-1.01-1.01h-.38v.38l1.01,1.01h.38ZM46.51,52.01v-.38l-.82-.82-.38.39,1.01.89.19-.08ZM44.65,52.91v-.39l-1.04-1.04h-.38v.39l1.04,1.04h.38ZM42.89,53.61v-.39l-1.05-1.05h-.38v.38l1.05,1.06h.38ZM41.03,53.52v-.38l-1.22-1.23h-.38v.38l1.23,1.23h.38ZM38.98,53.21v-.38l-1.31-1.32h-.39v.38l1.31,1.31h.39ZM35.94,52.22v-.39l-.99-.99h-.38v.38l.99.99.19.07.19-.07ZM35.72,52.76l.84-.84v-.38h-.38l-.83.83v.38l.19.08.19-.08ZM34.81,52.06l1.04-1.04v-.39h-.38l-1.04,1.04v.38l.19.08.19-.08ZM32.92,50.86l1.45-1.45v-.38h-.38l-1.45,1.45v.38h.38ZM31.24,51.05l1.21-1.21v-.38h-.38l-1.21,1.21v.38h.38ZM28.91,51.33l1.31-1.31-.38-.38-1.31,1.31.38.39ZM26.73,51.12l.83-.83-.38-.38-.83.83.38.38ZM24.11,50.28l1.42-1.42-.38-.38-1.42,1.42.38.38ZM34.12,50.5v-.39l-1.16-1.16h-.38v.39l1.16,1.17.19.07.19-.07ZM32.4,51.43v-.39l-1.22-1.22h-.38v.38l1.22,1.23h.38ZM30.38,51.78v-.38l-1.32-1.32-.38.39,1.31,1.31h.39ZM28.29,51.59v-.38l-1.64-1.64-.38.39,1.64,1.63h.38ZM25.6,50.9v-.38l-1.97-1.97-.39.38,1.97,1.97h.38ZM37.61,59.31l.67-.67v-.38h-.38l-.67.66v.38l.19.08.19-.08ZM35.39,59.9l1.08-1.07v-.39h-.39l-1.07,1.08v.38l.19.08.19-.08ZM32.41,60.98l1.56-1.57v-.38h-.38l-1.56,1.56.38.38ZM29.97,60.98l1.12-1.12-.38-.38-1.12,1.12.38.38ZM26.47,61.46l1.57-1.57-.38-.38-1.57,1.58.39.38ZM39.36,60.34v-.39l-.84-.84h-.38v.38l.84.85h.38ZM37.5,59.38v-.38l-.87-.87h-.38v.38l.87.87.19.08.19-.08ZM35.61,59.79v-.38l-.73-.74h-.38v.39l.73.73.19.08.19-.08ZM33.41,60.83v-.38l-.9-.89h-.38v.38l.9.89.19.08.19-.08ZM31.34,61.19v-.38l-1.08-1.09-.39.38,1.08,1.08h.38ZM28.68,61.23v-.38l-1.7-1.7-.39.38,1.7,1.7h.38ZM41.15,69.37l.33-.71-.71.32.19.46.19-.07ZM39.4,71.04l.96-.97v-.38h-.38l-.96.97v.38l.19.08.19-.08ZM36.6,71.95l.93-.93v-.38h-.39l-.93.93v.38h.38ZM33.03,73.77l1.32-1.32v-.38h-.38l-1.32,1.32v.38l.19.08.19-.08ZM41.25,69.56l.19-.08v-.38c-.29-.29-.67-.82-.94-.56-.27.27.27.65.56.94l.19.08ZM40.3,70.22v-.38l-.65-.64h-.38v.38l.65.65.19.08.19-.08ZM39.3,70.98v-.38l-.67-.67h-.38v.38l.67.68.19.08.19-.08ZM37.49,72.01v-.39l-.96-.96h-.39v.38l.97.97.19.07.19-.07ZM35.78,72.52v-.38l-.8-.79h-.38v.38l.79.79h.38ZM34.32,73.29v-.39l-1.33-1.34h-.38v.39l1.34,1.34h.38ZM54.33,76.24l.32-.31v-.38l-.7.32v.38l.19.08.19-.08ZM52.47,76.39l.5-.5v-.38h-.38l-.5.5v.38l.19.08.19-.08ZM49.23,76.5l.72-.73v-.38h-.38l-.72.72v.38l.19.08.19-.08ZM46.83,77.34l.99-.99v-.39h-.38l-.99.99v.38l.19.08.19-.08ZM43.48,79.89l1.59-1.58v-.38h-.38l-1.59,1.58v.38l.19.08.19-.08ZM55.95,76.52v-.39l-.73-.34.35.73h.38ZM54.57,76.23v-.38l-.83-.82h-.38v.38l.83.83h.38ZM52.11,76.47v-.39l-1.03-1.02h-.38v.38l1.02,1.03.19.08.19-.08ZM49.2,76.57v-.38l-1.64-1.64h-.38v.38l1.64,1.64.19.08.19-.08ZM47.62,77.22v-.39l-1.05-1.05h-.38v.39l1.05,1.05.19.07.19-.07ZM46.01,78.38v-.38l-.82-.82h-.38v.38l.82.83.19.08.19-.08ZM44.54,79.64v-.38l-1.14-1.14h-.38v.39l1.14,1.14.19.08.19-.08ZM47.99,33.27l.5-.33c2.1-5.09,1.49-11.21-1.53-15.81,1.98-.64,3.9-.89,5.73-.74-2.37,3.65-3.96,10.22-.96,16.34.31.64,1.29.17.97-.47-2.88-5.87-1.27-12.48,1.38-15.97l.07-.53-.42-.33c-2.48-.38-5.11-.07-7.81.92l-.33.35.08.47c3.16,4.35,3.87,10.38,1.82,15.36-.12.27.01.59.29.7l.21.04ZM56.05,26.89c.29,0,.53-.23.54-.53.04-1.25-.61-2.49-1.66-3.17-1.04-.68-2.44-.77-3.57-.24l-.25.72.72.26c.79-.37,1.77-.31,2.51.17.74.47,1.19,1.36,1.17,2.23,0,.3.23.55.52.56h.01ZM41.93,27.52l.48-.29c.54-.99,1.47-1.77,2.56-2.11.28-.09.44-.4.35-.68-.09-.29-.4-.44-.68-.35-1.35.43-2.5,1.39-3.18,2.63l.21.73.26.07ZM28.05,32.28h0c.3,0,.54-.25.53-.55-.02-2.14.95-4.23,2.59-5.59,1.66-1.38,3.83-1.93,5.97-1.51,2.13.43,3.93,1.76,4.94,3.67l.73.23.22-.73c-1.17-2.19-3.24-3.73-5.69-4.21-2.45-.49-4.96.15-6.86,1.73-1.9,1.57-3.01,3.97-2.99,6.42,0,.29.24.54.54.54M50.73,84.4c4.72,0,8.29-3,8.87-6.43.12-.7-.94-.88-1.06-.17-1.07,6.29-12.18,8.17-16.22.42l-.73-.23-.23.72c1.86,3.58,5.52,5.69,9.38,5.69M61.23,78.45c.75,0,1.51-.09,2.24-.29,3.49-.92,6.27-4.06,6.77-7.64.04-.29-.17-.57-.46-.6-.29-.04-.57.17-.61.46-.44,3.16-2.89,5.92-5.97,6.74-3.07.82-6.58-.37-8.52-2.9l-.76-.09-.1.75c1.73,2.26,4.57,3.58,7.41,3.58M39.49,79.35c1.34,0,2.66-.22,3.74-.65,2.01-.78,3.6-2.28,4.36-4.11.12-.28,0-.59-.29-.71-.27-.11-.59.01-.7.29-.65,1.56-2.03,2.84-3.76,3.52-2.77,1.08-6.83.56-8.52-1.11-1.32-1.32-1.58-3.38-1.75-5.55-.02-.3-.32-.53-.58-.51-.29.03-.52.29-.5.59.18,2.39.48,4.66,2.07,6.24,1.39,1.38,3.69,1.99,5.93,1.99M33.19,71.68c1.04,0,2.1-.17,3.15-.5,2.1-.68,4.03-2.02,5.58-3.87l-.07-.76-.76.07c-1.42,1.7-3.18,2.92-5.09,3.54-2.29.74-4.65.57-6.61-.49-1.69-.91-2.89-2.37-3.38-4.11-.49-1.78-.24-3.89.79-6.44.27-.65-.73-1.07-1.01-.39-1.12,2.77-1.39,5.1-.83,7.13.57,2.03,1.96,3.73,3.91,4.77,1.32.72,2.79,1.07,4.3,1.07M67.51,71.11c3.54,0,6.86-1.74,8.66-4.63,2.05-3.26,1.77-7.66-.66-10.46l-.76-.05-.05.77c2.09,2.4,2.33,6.35.56,9.18-1.78,2.84-5.22,4.43-8.76,4.06-2.78-.29-4.9-1.72-5.67-3.82-.25-.67-1.25-.3-1.01.37.92,2.5,3.37,4.19,6.57,4.52.37.04.75.06,1.12.06M51.17,75.61c7.41,0,11.95-7.72,8.64-13.67l-.73-.21-.21.73c2.23,4.01.44,9.27-4.1,11.31-3.37,1.52-7.67.7-10.24-1.96-2.57-2.66-3.24-7-1.59-10.31l-.25-.72c-1.32-.66-3.56,7,1.07,11.78,1.91,1.98,4.67,3.05,7.42,3.05M22.51,55.8c2.77,4.63,9.54,5.97,15.1,1.92l.12-.75-.75-.12c-5.08,3.69-11.14,2.42-13.55-1.61-1.32-2.2-1.26-5.11.16-7.07l-.12-.75c-1.12-.81-3.4,4.31-.96,8.38M66.92,56.46c2.66,3.66,10.32.64,12.71-3.61,1.61-2.85,1.46-6.4-.35-8.85l-.75-.11-.11.75c3.03,4.1.49,10.86-6.34,12.22-.94.19-1.73.21-2.41.08-.8-.16-1.48-.56-1.88-1.11l-.75-.12-.12.76ZM58.35,62.83c4.02,0,8.53-3.08,9.58-7.43.74-3.04-.43-6.29-2.83-7.93l-.75.14.15.75c2,1.36,3.01,4.21,2.39,6.78-1.06,4.42-6.23,7.36-10.01,6.43-1.71-.42-3.13-1.72-3.51-3.23-.08-.29-.37-.46-.66-.39-1.01.26.34,3.79,3.91,4.67.55.14,1.14.21,1.74.21M45.76,62.31c1.07,0,2.11-.17,3.07-.51,4.91-1.73,7.19-7.43,4.82-12.06l-.73-.23-.24.72c2.08,4.06.08,9.05-4.21,10.56-3.8,1.34-8.9-.47-10.83-3.89-.99-1.76-1.05-3.91-.14-5.46l-.19-.74-.74.19c-1.1,1.89-1.05,4.45.12,6.54,1.74,3.1,5.62,4.89,9.06,4.89M68.89,49.26c3.69.45,10.94-2.31,11.65-8.18.4-3.27-1.53-9.24-11.31-10.87-.7-.12-.88.96-.18,1.06,8.97,1.49,10.77,6.79,10.41,9.67-.63,5.13-7.21,7.64-10.45,7.25-1.3-.16-2.44-.76-3.13-1.63l-.76-.1-.09.75c.86,1.11,2.26,1.86,3.85,2.05M23.56,48.77c3.34,2.13,7.36,2.25,10.41-.21l.08-.76-.76-.08c-2.56,2.06-6.07,2.12-9.16.14-6.68-4.27-4.02-14.69,3.85-15.25.29-.02.52-.28.5-.57-.02-.3-.31-.52-.58-.5-8.93.63-11.89,12.42-4.36,17.23M31.98,46.24c2.93,7.8,13.96,8.44,17.61.74l-.26-.72-.72.26c-3.15,6.63-12.98,6.39-15.62-.66-1.16-3.1-.31-6.86,2.1-9.14l.02-.76c-1.03-1.08-5.2,4.77-3.13,10.28M48.17,45.12c2.7,9.35,20.68,8.18,18.57-3.93-.43-2.5-1.83-5.01-4.04-7.28h-.76s-.01.76-.01.76c2.06,2.1,3.35,4.42,3.75,6.7.61,3.48-.81,8.21-6.95,8.8-5.03.49-8.59-2.13-9.52-5.34-.56-1.91-.09-4.01,1.18-5.36l-.02-.76-.76.02c-1.53,1.62-2.09,4.12-1.43,6.4M44.37,30.17l.43-.22c1.21-1.62,1.61-3.67,1.1-5.63-.15-.6-.39-1.18-.7-1.7.58.15,1.19.26,1.79.38.36.07.72.12,1.09.17.57.08,1.12.24,1.22-.36.09-.61-.49-.62-1.07-.7-1.24-.17-3.11-.52-4.27-1.01-.51-.47-1.11-.86-1.76-1.15l-.67.2.07.68c.53.51,1.12.89,1.75,1.18.72.7,1.25,1.59,1.51,2.59.43,1.65.09,3.36-.92,4.71l.12.75.32.11ZM53.16,27.81c.01.29.27.53.57.51.3,0,.53-.27.51-.56-.12-2.03-1.37-3.95-3.2-4.9l-.73.23.23.73c1.5.78,2.53,2.35,2.62,4M28.21,32.53c4.59,4.25,11.74,5.6,17.41,3.27l.29-.7c-.11-.27-.42-.41-.7-.29-4.81,1.98-10.78,1.12-15.05-2.05,1.34-.2,2.5-1.03,3.71-1.88,2.04-1.45,4.16-2.94,7.63-2.12,1.89.45,3.61,1.64,4.7,3.25l.75.14.14-.75c-1.24-1.83-3.19-3.18-5.34-3.7-3.94-.94-6.47.85-8.5,2.28-1.63,1.15-2.91,2.05-4.54,1.63l-.61.26.1.66ZM59.66,34.52c4.28.86,8.73-1.13,10.91-5.29.57-1.08-3.95-4.89-9.66-4.25-3.09.34-6.26,1.79-9.43,4.31-.55.45.11,1.29.67.84,3.01-2.39,5.99-3.76,8.88-4.08,3.3-.37,6.56.8,8.42,2.98-2.09,3.63-5.97,5.16-9.57,4.43-.29-.06-.58.13-.63.43-.06.29.13.57.42.63M58.35,45.2l-.27-.06-.26-.58c.27-1.26-.54-2.5-1.46-3.18-1.26-.93-2.83-1.2-4.48-1.48-1.21-.21-2.47-.42-3.62-.91-1.67-.72-2.83-1.95-3.19-3.37-.4-1.58.26-3.32,1.6-4.24l.75.14-.14.75c-.96.65-1.46,1.95-1.17,3.08.27,1.08,1.23,2.07,2.56,2.64,1.04.45,2.17.64,3.37.84,2.79.48,6.19,1.29,6.82,4.55.93-.98,1.63-2,1.8-3.36.21-1.81-.22-3.73-1.21-5.25-1.8-2.79-4.64-3.3-6.4-2.16-.59.39-1.18-.52-.59-.91,1.14-.74,2.61-.94,4.03-.54,1.51.43,2.89,1.5,3.87,3.02,1.12,1.74,1.62,3.91,1.37,5.97-.26,2.14-1.58,3.54-3.03,4.91l-.37.15Z"/>
</svg>