<?xml version="1.0" encoding="UTF-8"?>
<svg id="Layer_1" xmlns="http://www.w3.org/2000/svg" viewBox="0 0 100 100">
  <defs>
    <style>
      .cls-1 {
        fill: #f17324;
      }
    </style>
  </defs>
  <path class="cls-1" d="M52.91,38.63l.27.27-.26.28-1.96.04c-.08.23-.21.44-.42.59-.29.21-.61-.23-.31-.44.04-.03.06-.09.09-.13l-12,.25h0l-.27-.27.27-.27,12.17-.26s.02-.1,0-.15l.17-.35.34.16c.04.11,0,.21,0,.32l1.91-.04h0ZM65.01,42.58c-.14.12-.42.15-.72.18-2.82.21-5.68.37-8.5.47-2.35.08-4.74.12-7.1.12-2.76,0-5.55-.06-8.3-.17-1.27-.05-2.54-.12-3.8-.18h-.38c-.45-.02-1.11-.03-1.28-.28-.54-.82,1.23-3.68,2.16-4.38,1.16-.87,2.8-.87,4.33-.85l18.2.31c.92.02,1.86.03,2.65.41,1.14.54,1.87,1.81,2.47,2.83.33.57.58,1.28.27,1.54M57.14,82.28c-.68.66-1.56.93-3.01,1l2-1.94.6.6.19.08.19-.08v-.39l-.59-.59,1.02-.99v-.39h-.38l-1.01,1-.8-.8,1.58-1.58,1.25,1.24h.14c-.17,1.12-.46,2.13-1.17,2.82M49.54,83.16l2.6-2.6.51.51h.39v-.38l-.51-.51,1.18-1.18v-.1l.89.89-2.89,2.88v.39h.39l2.89-2.89.8.8-1.98,1.98v.33c-1.07.03-2.46-.03-4.26-.13M44.57,82.88l2.95-2.95,1.01,1.01-1.66,1.66v.39h.38l1.67-1.67.84.84-.79.79v.17c-.07,0-.13,0-.21-.01-1.83-.1-3.16-.14-4.19-.24M51.29,78.95l1.23-1.23.89.89h-.1l-1.18,1.18-.84-.84ZM48.92,80.56l-1.01-1.01,1.61-1.61,1.01,1.01-1.61,1.61ZM50.14,81.79l-.84-.84,1.61-1.61.84.84-1.61,1.61ZM59.67,66.58h-.05l-.69.69-1.05-1.05,1.47-1.47.46.46-.14,1.37ZM59.31,67.65l.28-.28-.05.51-.23-.23ZM57.77,69.19l1.15-1.15.54.54-.22,2.09-1.47-1.47ZM58.78,70.98l.39.39-.29,2.85-1.6-1.6,1.51-1.51v-.14ZM56.65,44.7l-.42-.42c.29,0,.59-.04.89-.05l-.47.47ZM59.76,44.53l-1.55,1.56s-.04.08-.05.13l-1.12-1.12.9-.9c.51-.02,1.02-.06,1.53-.08v.12l.3.3ZM60.15,44.14l-.07-.07s.1,0,.14,0l-.08.08ZM61.86,45.22l-.06.58-.26-.26.32-.32ZM61.95,44.37l-.79.79-.63-.63.24-.24v-.25c.4-.02.81-.04,1.22-.07l-.04.4ZM52.38,44.36c.31,0,.61,0,.91-.01l-.46.46-.45-.45ZM48.81,44.42c.52,0,1.04-.02,1.56-.03l-.79.79-.77-.76ZM40.3,77.85l-3.33-33.76c1.13.06,2.26.12,3.39.17,2.54.1,5.12.14,7.68.15l1.16,1.16-1,1v.39h.39l1-1,.43.43h.38v-.39l-.43-.43,1.19-1.19c.16,0,.32,0,.48,0l.82.82-.54.54v.38h.38l.55-.54.96.96h.38v-.38l-.96-.96.86-.86c.47-.01.94,0,1.41-.02l.78.78-1,.99v.39l.2.08.19-.08,1-.99,1.7,1.7h.38v-.38l-.27-.27s.09-.01.13-.05l1.56-1.56.65.65v.35h.35l.59.59-1.63,15.79-1.38-1.37h-.38v.38l.54.54-.96.96v.39h.38l.97-.96.76.76-.16,1.52-.15-.15.1-.1v-.39h-.38l-.1.1-.4-.4c-.26-.25-.63.13-.38.39l.4.4-1.73,1.73v.39h.14l1.17,1.17-1.16,1.15-.2-.19h-.38v.39l.19.19-.54.54v.39h.38l.54-.54,1.15,1.15h-.14l-1.5,1.5-.89-.89h-.39v.38l.89.89-1.03,1.03v.39h.38l1.04-1.04,1.88,1.88h.04l-.36,3.52c-.02.17-.04.34-.06.51l-1.08-1.08v-.36h-.36l-.75-.75,2.02-2.01v-.38h-.39l-2.01,2.01-2.12-2.12h-.38v.38l2.12,2.12-.72.72v.39h.39l.72-.72.73.73-1.58,1.58-2.07-2.07.72-.72v-.38h-.38l-.72.72-1.14-1.14h-.38v.38l1.14,1.14-1.23,1.23-1.01-1.01.53-.53v-.39h-.38l-.53.53-.65-.65h-.38v.38l.65.65-1.61,1.61-1.03-1.03h-.38v.38l1.03,1.03-3.25,3.25c-.92-.13-1.58-.35-2.12-.81-1.07-.91-1.3-2.47-1.47-4.14M46.99,28.21c.17-3.42,1.1-5.91,2.78-7.38,1.62-1.42,3.11-1.72,12.55-4.66.4,1.2.85,2.39,1.23,3.54-3.36,1.74-8.16,1.15-11.17,3.91-2.53,2.33-2.78,6.2-2.96,8.59-.12,1.51-.26,2.93-.64,4.32l-2.31-.04c.63-2.73.39-5.56.52-8.27M65.68,40.49c-.66-1.15-1.49-2.58-2.93-3.26-1-.48-2.12-.5-3.1-.51l-9.76-.17c.35-1.4.51-2.85.62-4.25.18-2.3.41-5.85,2.62-7.88,2.82-2.6,7.79-1.86,11.37-3.99l.24-.64c-.49-1.49-1.03-2.91-1.55-4.47-.09-.28-.39-.44-.68-.35-9.87,3.08-11.6,3.42-13.45,5.04-1.91,1.67-2.96,4.42-3.14,8.15-.14,2.82.13,5.64-.54,8.31l-3.93-.07c-1.7-.03-3.55-.02-4.99,1.06-1.05.79-3.49,4.25-2.42,5.85.42.62,1.18.72,1.85.74l3.35,33.91c.46,4.69,1.95,5.85,6.13,6.05,3.67.18,6.12.37,7.94.37,2.3,0,3.55-.31,4.61-1.33,1.18-1.15,1.44-2.81,1.62-4.55l3.57-34.6c.43-.03.86-.04,1.29-.07.36-.03.91-.07,1.34-.43.71-.59.7-1.66-.03-2.92"/>
</svg>