<svg width="30" height="24" viewBox="0 0 30 24" fill="none" xmlns="http://www.w3.org/2000/svg">
<path fill-rule="evenodd" clip-rule="evenodd" d="M3.22968 9.32776H0V10.669C6.32571 10.669 12.6524 10.669 18.9772 10.669C18.81 10.1742 18.5516 9.71942 18.2209 9.32776C17.4522 8.41065 16.2943 7.82887 14.999 7.82887C13.7046 7.82887 12.5476 8.41065 11.778 9.32776H7.32125C8.43112 6.17518 11.4513 3.91389 14.999 3.91389C18.5476 3.91389 21.5679 6.17518 22.6777 9.32776C22.8294 9.75864 22.9458 10.2076 23.0236 10.669C23.0947 11.1018 23.1331 11.547 23.1331 12.0008C23.1331 12.5004 23.087 12.9896 22.9995 13.4654H11.0699C11.5763 14.8086 12.7592 15.8231 14.2073 16.0983L26.3648 16.0506C26.8212 14.7857 27.0692 13.4215 27.0692 12.0009C27.0692 5.37374 21.6649 1.54347e-09 14.999 1.54347e-09C9.25856 -9.05768e-05 4.45299 3.98653 3.22968 9.32776ZM22.896 21.0756H30V19.7343H24.2287H17.3812C16.8921 19.8834 16.3828 19.9865 15.8591 20.041C15.5765 20.0706 15.2893 20.0859 14.9991 20.0859C11.0122 20.0859 7.69324 17.2304 6.99945 13.4655H3.0184C3.74581 19.4001 8.83391 24 14.9992 24C15.6027 24 16.1955 23.9561 16.774 23.8719C19.0955 23.5307 21.2018 22.5334 22.896 21.0756Z" fill="#2A07F9"/>
</svg>
